# File produced by Open Asset Import Library (http://www.assimp.sf.net)
# (assimp v6.0.0)

mtllib spacejunk8.mtl

# 252 vertex positions
v 52.2499962 1.62000084 -18.6499996
v 63.8899994 1.61999953 12.5
v 63.8899994 1.62000084 -18.6499996
v 63.8899994 1.61999953 12.5
v 52.2499962 1.62000084 -18.6499996
v 57.7400017 1.61999929 18.6499996
v 52.2499962 1.62000084 -18.6499996
v 44.8700027 1.6200006 -13.7299995
v 57.7400017 1.61999929 18.6499996
v 57.7400017 1.61999929 18.6499996
v 44.8700027 1.6200006 -13.7299995
v 31.3499985 1.61999929 18.6499996
v 44.8700027 1.6200006 -13.7299995
v 23.9700012 1.61999929 14.96
v 31.3499985 1.61999929 18.6499996
v -19.0200005 1.6200006 -13.7299995
v 23.9700012 1.61999929 14.96
v 44.8700027 1.6200006 -13.7299995
v 23.9700012 1.61999929 14.96
v -19.0200005 1.6200006 -13.7299995
v -44.8199997 1.61999929 14.96
v -33.3999977 1.62000036 -6.61000013
v -44.8199997 1.61999929 14.96
v -19.0200005 1.6200006 -13.7299995
v -44.8199997 1.61999929 14.96
v -33.3999977 1.62000036 -6.61000013
v -41.2099991 1.61999989 2.92000008
v -48.9099998 1.62 0.400000125
v -44.8199997 1.61999929 14.96
v -41.2099991 1.61999989 2.92000008
v -55.2399979 1.62 0.590000093
v -44.8199997 1.61999929 14.96
v -48.9099998 1.62 0.400000125
v -44.8199997 1.61999929 14.96
v -55.2399979 1.62 0.590000093
v -63.8899994 1.61999929 14.96
v -60.4600029 1.62 0.160000071
v -63.8899994 1.61999929 14.96
v -55.2399979 1.62 0.590000093
v -63.8899994 1.62000024 -3.27999997
v -63.8899994 1.61999929 14.96
v -60.4600029 1.62 0.160000071
v -34.5200005 1.6200006 -12.4099998
v -33.3999977 1.62000036 -6.61000013
v -19.0200005 1.6200006 -13.7299995
v -62.3300018 1.62000024 -4.88999987
v -63.8899994 1.62000024 -3.27999997
v -60.4600029 1.62 0.160000071
v -60.4600029 1.62 0.160000071
v -55.2399979 1.62 0.590000093
v -60.0200005 1.62000024 -2.97000003
v -48.9099998 1.62 0.400000125
v -53.6199989 1.62000024 -4.11000013
v -55.2399979 1.62 0.590000093
v -47.6300011 1.62 -2.0999999
v -48.9099998 1.62 0.400000125
v -41.2099991 1.61999989 2.92000008
v -39.8600006 1.62 -1.49999988
v -41.2099991 1.61999989 2.92000008
v -33.3999977 1.62000036 -6.61000013
v -63.8899994 -1.61999989 -3.27999997
v -62.3300018 1.62000024 -4.88999987
v -62.3300018 -1.61999989 -4.88999987
v -62.3300018 1.62000024 -4.88999987
v -63.8899994 -1.61999989 -3.27999997
v -63.8899994 1.62000024 -3.27999997
v -63.8899994 -1.61999989 -3.27999997
v -63.8899994 1.61999929 14.96
v -63.8899994 1.62000024 -3.27999997
v -63.8899994 1.61999929 14.96
v -63.8899994 -1.61999989 -3.27999997
v -63.8899994 -1.62000084 14.96
v -53.6199989 1.62000024 -4.11000013
v -55.2399979 -1.62 0.589999914
v -55.2399979 1.62 0.590000093
v -55.2399979 -1.62 0.589999914
v -53.6199989 1.62000024 -4.11000013
v -53.6199989 -1.61999989 -4.11000013
v -39.8600006 1.62 -1.49999988
v -41.2099991 -1.62000024 2.92000008
v -41.2099991 1.61999989 2.92000008
v -41.2099991 -1.62000024 2.92000008
v -39.8600006 1.62 -1.49999988
v -39.8600006 -1.62 -1.5
v -33.3999977 1.62000036 -6.61000013
v -39.8600006 -1.62 -1.5
v -39.8600006 1.62 -1.49999988
v -39.8600006 -1.62 -1.5
v -33.3999977 1.62000036 -6.61000013
v -33.3999977 -1.61999965 -6.61000013
v -34.5200005 1.6200006 -12.4099998
v -33.3999977 -1.61999965 -6.61000013
v -33.3999977 1.62000036 -6.61000013
v -33.3999977 -1.61999965 -6.61000013
v -34.5200005 1.6200006 -12.4099998
v -34.5200005 -1.61999953 -12.4099998
v 57.7400017 1.61999929 18.6499996
v 31.3499985 -1.62000084 18.6499996
v 57.7400017 -1.62000084 18.6499996
v 31.3499985 -1.62000084 18.6499996
v 57.7400017 1.61999929 18.6499996
v 31.3499985 1.61999929 18.6499996
v 31.3499985 1.61999929 18.6499996
v 23.9700012 -1.62000084 14.96
v 31.3499985 -1.62000084 18.6499996
v 23.9700012 -1.62000084 14.96
v 31.3499985 1.61999929 18.6499996
v 23.9700012 1.61999929 14.96
v -44.8199997 1.61999929 14.96
v 23.9700012 -1.62000084 14.96
v 23.9700012 1.61999929 14.96
v 23.9700012 -1.62000084 14.96
v -44.8199997 1.61999929 14.96
v -44.8199997 -1.62000084 14.96
v -44.8199997 1.61999929 14.96
v -63.8899994 -1.62000084 14.96
v -44.8199997 -1.62000084 14.96
v -63.8899994 -1.62000084 14.96
v -44.8199997 1.61999929 14.96
v -63.8899994 1.61999929 14.96
v -55.2399979 1.62 0.590000093
v -60.0200005 -1.61999989 -2.97000003
v -60.0200005 1.62000024 -2.97000003
v -60.0200005 -1.61999989 -2.97000003
v -55.2399979 1.62 0.590000093
v -55.2399979 -1.62 0.589999914
v -41.2099991 1.61999989 2.92000008
v -47.6300011 -1.62 -2.0999999
v -47.6300011 1.62 -2.0999999
v -47.6300011 -1.62 -2.0999999
v -41.2099991 1.61999989 2.92000008
v -41.2099991 -1.62000024 2.92000008
v 63.8899994 -1.61999929 -18.6499996
v 52.2499962 1.62000084 -18.6499996
v 63.8899994 1.62000084 -18.6499996
v 52.2499962 1.62000084 -18.6499996
v 63.8899994 -1.61999929 -18.6499996
v 52.2499962 -1.61999929 -18.6499996
v 52.2499962 -1.61999929 -18.6499996
v 44.8700027 1.6200006 -13.7299995
v 52.2499962 1.62000084 -18.6499996
v 44.8700027 1.6200006 -13.7299995
v 52.2499962 -1.61999929 -18.6499996
v 44.8700027 -1.61999953 -13.7299995
v 44.8700027 -1.61999953 -13.7299995
v -19.0200005 1.6200006 -13.7299995
v 44.8700027 1.6200006 -13.7299995
v -19.0200005 1.6200006 -13.7299995
v 44.8700027 -1.61999953 -13.7299995
v -19.0200005 -1.61999953 -13.7299995
v -34.5200005 -1.61999953 -12.4099998
v -19.0200005 1.6200006 -13.7299995
v -19.0200005 -1.61999953 -13.7299995
v -19.0200005 1.6200006 -13.7299995
v -34.5200005 -1.61999953 -12.4099998
v -34.5200005 1.6200006 -12.4099998
v 63.8899994 -1.6200006 12.5
v 57.7400017 1.61999929 18.6499996
v 57.7400017 -1.62000084 18.6499996
v 57.7400017 1.61999929 18.6499996
v 63.8899994 -1.6200006 12.5
v 63.8899994 1.61999953 12.5
v 63.8899994 -1.61999929 -18.6499996
v 63.8899994 1.61999953 12.5
v 63.8899994 -1.6200006 12.5
v 63.8899994 1.61999953 12.5
v 63.8899994 -1.61999929 -18.6499996
v 63.8899994 1.62000084 -18.6499996
v -60.0200005 1.62000024 -2.97000003
v -60.4600029 -1.62 0.159999922
v -60.4600029 1.62 0.160000071
v -60.4600029 -1.62 0.159999922
v -60.0200005 1.62000024 -2.97000003
v -60.0200005 -1.61999989 -2.97000003
v -47.6300011 1.62 -2.0999999
v -48.9099998 -1.62 0.399999917
v -48.9099998 1.62 0.400000125
v -48.9099998 -1.62 0.399999917
v -47.6300011 1.62 -2.0999999
v -47.6300011 -1.62 -2.0999999
v 63.8899994 -1.6200006 12.5
v 52.2499962 -1.61999929 -18.6499996
v 63.8899994 -1.61999929 -18.6499996
v 52.2499962 -1.61999929 -18.6499996
v 63.8899994 -1.6200006 12.5
v 57.7400017 -1.62000084 18.6499996
v 44.8700027 -1.61999953 -13.7299995
v 52.2499962 -1.61999929 -18.6499996
v 57.7400017 -1.62000084 18.6499996
v 44.8700027 -1.61999953 -13.7299995
v 57.7400017 -1.62000084 18.6499996
v 31.3499985 -1.62000084 18.6499996
v 23.9700012 -1.62000084 14.96
v 44.8700027 -1.61999953 -13.7299995
v 31.3499985 -1.62000084 18.6499996
v 23.9700012 -1.62000084 14.96
v -19.0200005 -1.61999953 -13.7299995
v 44.8700027 -1.61999953 -13.7299995
v -19.0200005 -1.61999953 -13.7299995
v 23.9700012 -1.62000084 14.96
v -44.8199997 -1.62000084 14.96
v -44.8199997 -1.62000084 14.96
v -33.3999977 -1.61999965 -6.61000013
v -19.0200005 -1.61999953 -13.7299995
v -33.3999977 -1.61999965 -6.61000013
v -34.5200005 -1.61999953 -12.4099998
v -19.0200005 -1.61999953 -13.7299995
v -33.3999977 -1.61999965 -6.61000013
v -44.8199997 -1.62000084 14.96
v -41.2099991 -1.62000024 2.92000008
v -41.2099991 -1.62000024 2.92000008
v -39.8600006 -1.62 -1.5
v -33.3999977 -1.61999965 -6.61000013
v -44.8199997 -1.62000084 14.96
v -48.9099998 -1.62 0.399999917
v -41.2099991 -1.62000024 2.92000008
v -48.9099998 -1.62 0.399999917
v -47.6300011 -1.62 -2.0999999
v -41.2099991 -1.62000024 2.92000008
v -44.8199997 -1.62000084 14.96
v -55.2399979 -1.62 0.589999914
v -48.9099998 -1.62 0.399999917
v -53.6199989 -1.61999989 -4.11000013
v -48.9099998 -1.62 0.399999917
v -55.2399979 -1.62 0.589999914
v -55.2399979 -1.62 0.589999914
v -44.8199997 -1.62000084 14.96
v -63.8899994 -1.62000084 14.96
v -63.8899994 -1.62000084 14.96
v -60.4600029 -1.62 0.159999922
v -55.2399979 -1.62 0.589999914
v -55.2399979 -1.62 0.589999914
v -60.4600029 -1.62 0.159999922
v -60.0200005 -1.61999989 -2.97000003
v -63.8899994 -1.62000084 14.96
v -63.8899994 -1.61999989 -3.27999997
v -60.4600029 -1.62 0.159999922
v -63.8899994 -1.61999989 -3.27999997
v -62.3300018 -1.61999989 -4.88999987
v -60.4600029 -1.62 0.159999922
v -60.4600029 1.62 0.160000071
v -62.3300018 -1.61999989 -4.88999987
v -62.3300018 1.62000024 -4.88999987
v -62.3300018 -1.61999989 -4.88999987
v -60.4600029 1.62 0.160000071
v -60.4600029 -1.62 0.159999922
v -48.9099998 1.62 0.400000125
v -53.6199989 -1.61999989 -4.11000013
v -53.6199989 1.62000024 -4.11000013
v -53.6199989 -1.61999989 -4.11000013
v -48.9099998 1.62 0.400000125
v -48.9099998 -1.62 0.399999917

# 74 UV coordinates
vt 0.624100029 0.771499991 0
vt 0.587899983 0.676299989 0
vt 0.587499976 0.771499991 0
vt 0.607299984 0.657599986 0
vt 0.647300005 0.756500006 0
vt 0.690199971 0.657599986 0
vt 0.71329999 0.668799996 0
vt 0.847800016 0.756500006 0
vt 0.929199994 0.668799996 0
vt 0.893000007 0.734700024 0
vt 0.917699993 0.705600023 0
vt 0.941799998 0.71329999 0
vt 0.961700022 0.712700009 0
vt 0.989000022 0.668799996 0
vt 0.978100002 0.713999987 0
vt 0.988799989 0.724600017 0
vt 0.896499991 0.752499998 0
vt 0.983900011 0.729499996 0
vt 0.976599991 0.72359997 0
vt 0.956499994 0.727100015 0
vt 0.93779999 0.721000016 0
vt 0.913399994 0.719099998 0
vt 0.918900013 0.648100019 0
vt 0.912 0.658100009 0
vt 0.912 0.648100019 0
vt 0.918900013 0.658100009 0
vt 0.975499988 0.658100009 0
vt 0.975499988 0.648100019 0
vt 0.851599991 0.658100009 0
vt 0.866999984 0.648100019 0
vt 0.866999984 0.658100009 0
vt 0.851599991 0.648100019 0
vt 0.783200026 0.658100009 0
vt 0.797500014 0.648100019 0
vt 0.797500014 0.658100009 0
vt 0.783200026 0.648100019 0
vt 0.757700026 0.658100009 0
vt 0.757700026 0.648100019 0
vt 0.739400029 0.658100009 0
vt 0.739400029 0.648100019 0
vt 0.964299977 0.614000022 0
vt 0.882399976 0.603999972 0
vt 0.964399993 0.603999972 0
vt 0.882300019 0.614000022 0
vt 0.85680002 0.603999972 0
vt 0.856700003 0.614000022 0
vt 0.643100023 0.614000022 0
vt 0.643100023 0.603999972 0
vt 0.583899975 0.603999972 0
vt 0.583899975 0.614000022 0
vt 0.885500014 0.648100019 0
vt 0.885500014 0.658100009 0
vt 0.822700024 0.648100019 0
vt 0.822700024 0.658100009 0
vt 0.680299997 0.627399981 0
vt 0.716400027 0.637399971 0
vt 0.680199981 0.637399971 0
vt 0.716499984 0.627399981 0
vt 0.743900001 0.637399971 0
vt 0.744000018 0.627399981 0
vt 0.942300022 0.637399971 0
vt 0.942399979 0.627399981 0
vt 0.990700006 0.627399981 0
vt 0.99059999 0.637399971 0
vt 0.639299989 0.638800025 0
vt 0.666599989 0.628799975 0
vt 0.666400015 0.638800025 0
vt 0.639400005 0.628799975 0
vt 0.541899979 0.638800025 0
vt 0.542100012 0.628799975 0
vt 0.895299971 0.648100019 0
vt 0.895299971 0.658100009 0
vt 0.831399977 0.648100019 0
vt 0.831399977 0.658100009 0

# 45 vertex normals
vn 0 1 4.37113883e-08
vn -0.815713942 -0.474808067 -0.330405653
vn -0.275592685 4.20186446e-08 -0.961274505
vn 0.559916496 -0.48381418 -0.67261976
vn -0.926868141 1.64086931e-08 -0.375387102
vn -0.89442718 -1.95483256e-08 0.44721359
vn -0.26729697 -0.801790893 0.534493864
vn -0.657583773 3.29313465e-08 -0.753381431
vn -0.241099045 -0.931896329 -0.270998955
vn 0.128095075 4.33512923e-08 -0.991761923
vn 0.210497871 -0.480795085 -0.851191282
vn -0.87981838 2.07764579e-08 -0.475309968
vn -0.293207467 -0.904323101 -0.310207963
vn 0.145997778 4.32430198e-08 -0.989284992
vn -0.720879555 -0.328090698 -0.610482752
vn -0.849729776 2.30454518e-08 -0.527218461
vn -0.540713727 -0.836921275 -0.084802188
vn -0.957481503 1.26104913e-08 -0.288494438
vn -0.487611264 -0.42340976 -0.763517678
vn 0.38269034 -4.03839309e-08 0.923876703
vn -0.126106083 -0.563927233 0.816139281
vn 0.200692713 -0.851468921 0.484482318
vn -0.305407047 -4.16229433e-08 0.95222187
vn -0.182000086 -0.610400379 0.770900309
vn -0.22980848 -4.25414939e-08 0.973235905
vn 0 -4.37113883e-08 1
vn 0 -0.948693275 0.316197723
vn 0.101198204 -0.494991183 -0.862984657
vn -0.788074374 2.69078573e-08 -0.615580022
vn 0.149304196 -0.436712205 -0.887124896
vn -0.565225124 3.60591272e-08 -0.824936628
vn 0.666677773 -0.333288848 -0.666677773
vn -0.19219166 4.28964952e-08 -0.981357396
vn 0.707106769 3.09086161e-08 -0.707106769
vn -0.266495883 -0.720688939 -0.639990211
vn -0.384388119 4.03531111e-08 -0.92317152
vn -0.112495348 -0.810966372 -0.574176192
vn -0.0424998477 4.36718928e-08 -0.999096453
vn -0.0189996921 -0.89458549 -0.446492791
vn 0.701988876 -0.581490755 0.41119343
vn 0.967541873 -1.10463469e-08 0.252710938
vn -0.249390423 -0.956763268 -0.149694294
vn 0.727988541 2.99680565e-08 -0.685589194
vn -0.244297937 -0.897692442 -0.366696954
vn 0.251208514 4.23096935e-08 -0.96793294

# Mesh 'PipelineFBX' with 84 faces
g PipelineFBX
usemtl DefaultMaterial
f  1/1/1 2/2/1 3/3/1
f  4/2/1 5/1/1 6/4/1
f  7/1/1 8/5/1 9/4/1
f  10/4/1 11/5/1 12/6/1
f  13/5/1 14/7/1 15/6/1
f  16/8/1 17/7/1 18/5/1
f  19/7/1 20/8/1 21/9/1
f  22/10/1 23/9/1 24/8/1
f  25/9/1 26/10/1 27/11/1
f  28/12/1 29/9/1 30/11/1
f  31/13/1 32/9/1 33/12/1
f  34/9/1 35/13/1 36/14/1
f  37/15/1 38/14/1 39/13/1
f  40/16/1 41/14/1 42/15/1
f  43/17/1 44/10/1 45/8/1
f  46/18/1 47/16/1 48/15/1
f  49/15/1 50/13/1 51/19/1
f  52/12/1 53/20/1 54/13/1
f  55/21/1 56/12/1 57/11/1
f  58/22/1 59/11/1 60/10/1
f  61/23/2 62/24/3 63/25/4
f  64/24/3 65/23/2 66/26/5
f  67/23/2 68/27/6 69/26/5
f  70/27/6 71/23/2 72/28/7
f  73/29/8 74/30/9 75/31/10
f  76/30/9 77/29/8 78/32/11
f  79/33/12 80/34/13 81/35/14
f  82/34/13 83/33/12 84/36/15
f  85/37/16 86/36/15 87/33/12
f  88/36/15 89/37/16 90/38/17
f  91/39/18 92/38/17 93/37/16
f  94/38/17 95/39/18 96/40/19
f  97/41/20 98/42/21 99/43/22
f  100/42/21 101/41/20 102/44/23
f  103/44/23 104/45/24 105/42/21
f  106/45/24 107/44/23 108/46/25
f  109/47/26 110/45/24 111/46/25
f  112/45/24 113/47/26 114/48/27
f  115/47/26 116/49/7 117/48/27
f  118/49/7 119/47/26 120/50/6
f  121/31/10 122/51/28 123/52/29
f  124/51/28 125/31/10 126/30/9
f  127/35/14 128/53/30 129/54/31
f  130/53/30 131/35/14 132/34/13
f  133/55/32 134/56/33 135/57/34
f  136/56/33 137/55/32 138/58/35
f  139/58/35 140/59/36 141/56/33
f  142/59/36 143/58/35 144/60/37
f  145/60/37 146/61/38 147/59/36
f  148/61/38 149/60/37 150/62/39
f  151/63/19 152/61/38 153/62/39
f  154/61/38 155/63/19 156/64/18
f  157/65/40 158/66/20 159/67/22
f  160/66/20 161/65/40 162/68/41
f  163/69/32 164/68/41 165/65/40
f  166/68/41 167/69/32 168/70/34
f  169/52/29 170/71/42 171/72/43
f  172/71/42 173/52/29 174/51/28
f  175/54/31 176/73/44 177/74/45
f  178/73/44 179/54/31 180/53/30
f  181/2/40 182/1/35 183/3/32
f  184/1/35 185/2/40 186/4/22
f  187/5/37 188/1/35 189/4/22
f  190/5/37 191/4/22 192/6/21
f  193/7/24 194/5/37 195/6/21
f  196/7/24 197/8/39 198/5/37
f  199/8/39 200/7/24 201/9/27
f  202/9/27 203/10/17 204/8/39
f  205/10/17 206/17/19 207/8/39
f  208/10/17 209/9/27 210/11/13
f  211/11/13 212/22/15 213/10/17
f  214/9/27 215/12/44 216/11/13
f  217/12/44 218/21/30 219/11/13
f  220/9/27 221/13/9 222/12/44
f  223/20/11 224/12/44 225/13/9
f  226/13/9 227/9/27 228/14/7
f  229/14/7 230/15/42 231/13/9
f  232/13/9 233/15/42 234/19/28
f  235/14/7 236/16/2 237/15/42
f  238/16/2 239/18/4 240/15/42
f  241/72/43 242/25/4 243/24/3
f  244/25/4 245/72/43 246/71/42
f  247/74/45 248/32/11 249/29/8
f  250/32/11 251/74/45 252/73/44

