# File produced by Open Asset Import Library (http://www.assimp.sf.net)
# (assimp v6.0.0)

mtllib spacejunk4.mtl

# 180 vertex positions
v -5.30999994 19.2699986 23.210001
v 5.30999994 18.0999985 13.8600025
v 5.30999994 19.2699986 23.210001
v 5.30999994 18.0999985 13.8600025
v -5.30999994 19.2699986 23.210001
v -5.30999994 18.0999985 13.8600025
v -5.30999994 18.0999985 13.8600025
v 5.30999994 15.3500004 5.04000092
v 5.30999994 18.0999985 13.8600025
v 5.30999994 15.3500004 5.04000092
v -5.30999994 18.0999985 13.8600025
v -5.30999994 15.3500004 5.04000092
v -5.30999994 15.3500004 5.04000092
v 5.30999994 10.8699999 -3.11999941
v 5.30999994 15.3500004 5.04000092
v 5.30999994 10.8699999 -3.11999941
v -5.30999994 15.3500004 5.04000092
v -5.30999994 10.8699999 -3.11999941
v -5.30999994 10.8699999 -3.11999941
v 5.30999994 4.80000019 -10.1899996
v 5.30999994 10.8699999 -3.11999941
v 5.30999994 4.80000019 -10.1899996
v -5.30999994 10.8699999 -3.11999941
v -5.30999994 4.80000019 -10.1899996
v -5.30999994 4.80000019 -10.1899996
v 5.30999994 -2.58999944 -15.8500004
v 5.30999994 4.80000019 -10.1899996
v 5.30999994 -2.58999944 -15.8500004
v -5.30999994 4.80000019 -10.1899996
v -5.30999994 -2.58999944 -15.8500004
v -5.30999994 -2.58999944 -15.8500004
v 5.30999994 -10.9399986 -19.8799992
v 5.30999994 -2.58999944 -15.8500004
v 5.30999994 -10.9399986 -19.8799992
v -5.30999994 -2.58999944 -15.8500004
v -5.30999994 -10.9399986 -19.8799992
v -5.30999994 -10.9399986 -19.8799992
v 5.30999994 -19.9899979 -22.4900017
v 5.30999994 -10.9399986 -19.8799992
v 5.30999994 -19.9899979 -22.4900017
v -5.30999994 -10.9399986 -19.8799992
v -5.30999994 -19.9899979 -22.4900017
v 5.30999994 -19.8899994 -23.210001
v 5.30999994 -10.9399986 -19.8799992
v 5.30999994 -19.9899979 -22.4900017
v 5.30999994 -10.9399986 -19.8799992
v 5.30999994 -19.8899994 -23.210001
v 5.30999994 -10.6899996 -20.5599995
v 5.30999994 -2.20999932 -16.4699993
v 5.30999994 -10.9399986 -19.8799992
v 5.30999994 -10.6899996 -20.5599995
v 5.30999994 -10.9399986 -19.8799992
v 5.30999994 -2.20999932 -16.4699993
v 5.30999994 -2.58999944 -15.8500004
v 5.30999994 5.30000019 -10.71
v 5.30999994 -2.58999944 -15.8500004
v 5.30999994 -2.20999932 -16.4699993
v 5.30999994 -2.58999944 -15.8500004
v 5.30999994 5.30000019 -10.71
v 5.30999994 4.80000019 -10.1899996
v 5.30999994 5.30000019 -10.71
v 5.30999994 10.8699999 -3.11999941
v 5.30999994 4.80000019 -10.1899996
v 5.30999994 10.8699999 -3.11999941
v 5.30999994 5.30000019 -10.71
v 5.30999994 11.46 -3.52999973
v 5.30999994 11.46 -3.52999973
v 5.30999994 15.3500004 5.04000092
v 5.30999994 10.8699999 -3.11999941
v 5.30999994 15.3500004 5.04000092
v 5.30999994 11.46 -3.52999973
v 5.30999994 16.0100002 4.76000071
v 5.30999994 18.8099995 13.7200012
v 5.30999994 15.3500004 5.04000092
v 5.30999994 16.0100002 4.76000071
v 5.30999994 15.3500004 5.04000092
v 5.30999994 18.8099995 13.7200012
v 5.30999994 18.0999985 13.8600025
v 5.30999994 19.9899979 23.210001
v 5.30999994 18.0999985 13.8600025
v 5.30999994 18.8099995 13.7200012
v 5.30999994 18.0999985 13.8600025
v 5.30999994 19.9899979 23.210001
v 5.30999994 19.2699986 23.210001
v -5.30999994 19.2699986 23.210001
v 5.30999994 19.9899979 23.210001
v -5.30999994 19.9899979 23.210001
v 5.30999994 19.9899979 23.210001
v -5.30999994 19.2699986 23.210001
v 5.30999994 19.2699986 23.210001
v -5.30999994 -10.9399986 -19.8799992
v -5.30999994 -19.8899994 -23.210001
v -5.30999994 -19.9899979 -22.4900017
v -5.30999994 -19.8899994 -23.210001
v -5.30999994 -10.9399986 -19.8799992
v -5.30999994 -10.6899996 -20.5599995
v -5.30999994 -10.9399986 -19.8799992
v -5.30999994 -2.20999932 -16.4699993
v -5.30999994 -10.6899996 -20.5599995
v -5.30999994 -2.20999932 -16.4699993
v -5.30999994 -10.9399986 -19.8799992
v -5.30999994 -2.58999944 -15.8500004
v -5.30999994 -2.58999944 -15.8500004
v -5.30999994 5.30000019 -10.71
v -5.30999994 -2.20999932 -16.4699993
v -5.30999994 5.30000019 -10.71
v -5.30999994 -2.58999944 -15.8500004
v -5.30999994 4.80000019 -10.1899996
v -5.30999994 10.8699999 -3.11999941
v -5.30999994 5.30000019 -10.71
v -5.30999994 4.80000019 -10.1899996
v -5.30999994 5.30000019 -10.71
v -5.30999994 10.8699999 -3.11999941
v -5.30999994 11.46 -3.52999973
v -5.30999994 15.3500004 5.04000092
v -5.30999994 11.46 -3.52999973
v -5.30999994 10.8699999 -3.11999941
v -5.30999994 11.46 -3.52999973
v -5.30999994 15.3500004 5.04000092
v -5.30999994 16.0100002 4.76000071
v -5.30999994 15.3500004 5.04000092
v -5.30999994 18.8099995 13.7200012
v -5.30999994 16.0100002 4.76000071
v -5.30999994 18.8099995 13.7200012
v -5.30999994 15.3500004 5.04000092
v -5.30999994 18.0999985 13.8600025
v -5.30999994 18.0999985 13.8600025
v -5.30999994 19.9899979 23.210001
v -5.30999994 18.8099995 13.7200012
v -5.30999994 19.9899979 23.210001
v -5.30999994 18.0999985 13.8600025
v -5.30999994 19.2699986 23.210001
v 5.30999994 19.9899979 23.210001
v -5.30999994 18.8099995 13.7200012
v -5.30999994 19.9899979 23.210001
v -5.30999994 18.8099995 13.7200012
v 5.30999994 19.9899979 23.210001
v 5.30999994 18.8099995 13.7200012
v 5.30999994 18.8099995 13.7200012
v -5.30999994 16.0100002 4.76000071
v -5.30999994 18.8099995 13.7200012
v -5.30999994 16.0100002 4.76000071
v 5.30999994 18.8099995 13.7200012
v 5.30999994 16.0100002 4.76000071
v 5.30999994 16.0100002 4.76000071
v -5.30999994 11.46 -3.52999973
v -5.30999994 16.0100002 4.76000071
v -5.30999994 11.46 -3.52999973
v 5.30999994 16.0100002 4.76000071
v 5.30999994 11.46 -3.52999973
v 5.30999994 11.46 -3.52999973
v -5.30999994 5.30000019 -10.71
v -5.30999994 11.46 -3.52999973
v -5.30999994 5.30000019 -10.71
v 5.30999994 11.46 -3.52999973
v 5.30999994 5.30000019 -10.71
v 5.30999994 5.30000019 -10.71
v -5.30999994 -2.20999932 -16.4699993
v -5.30999994 5.30000019 -10.71
v -5.30999994 -2.20999932 -16.4699993
v 5.30999994 5.30000019 -10.71
v 5.30999994 -2.20999932 -16.4699993
v 5.30999994 -2.20999932 -16.4699993
v -5.30999994 -10.6899996 -20.5599995
v -5.30999994 -2.20999932 -16.4699993
v -5.30999994 -10.6899996 -20.5599995
v 5.30999994 -2.20999932 -16.4699993
v 5.30999994 -10.6899996 -20.5599995
v 5.30999994 -10.6899996 -20.5599995
v -5.30999994 -19.8899994 -23.210001
v -5.30999994 -10.6899996 -20.5599995
v -5.30999994 -19.8899994 -23.210001
v 5.30999994 -10.6899996 -20.5599995
v 5.30999994 -19.8899994 -23.210001
v 5.30999994 -19.9899979 -22.4900017
v -5.30999994 -19.8899994 -23.210001
v 5.30999994 -19.8899994 -23.210001
v -5.30999994 -19.8899994 -23.210001
v 5.30999994 -19.9899979 -22.4900017
v -5.30999994 -19.9899979 -22.4900017

# 72 UV coordinates
vt 0.907400012 0.220400006 0
vt 0.940999985 0.190699995 0
vt 0.940999985 0.220400006 0
vt 0.907400012 0.190699995 0
vt 0.940999985 0.160999998 0
vt 0.907400012 0.160999998 0
vt 0.940999985 0.131300002 0
vt 0.907400012 0.131300002 0
vt 0.940999985 0.101599999 0
vt 0.907400012 0.101599999 0
vt 0.940999985 0.0719000027 0
vt 0.907400012 0.0719000027 0
vt 0.940999985 0.0423000008 0
vt 0.907400012 0.0423000008 0
vt 0.940999985 0.0126 0
vt 0.907400012 0.0126 0
vt 0.88499999 0.225999996 0
vt 0.868399978 0.198799998 0
vt 0.886799991 0.224399999 0
vt 0.866299987 0.200000003 0
vt 0.853299975 0.170699999 0
vt 0.855599999 0.170000002 0
vt 0.846499979 0.139400005 0
vt 0.84890002 0.139200002 0
vt 0.848699987 0.107699998 0
vt 0.846300006 0.1074 0
vt 0.854900002 0.0768000036 0
vt 0.852599978 0.0760999992 0
vt 0.865100026 0.0467000008 0
vt 0.867200017 0.0478999987 0
vt 0.883400023 0.0205000006 0
vt 0.885299981 0.0219999999 0
vt 0.907000005 0.226999998 0
vt 0.940500021 0.229300007 0
vt 0.907000005 0.229300007 0
vt 0.940500021 0.226999998 0
vt 0.882200003 0.0427000001 0
vt 0.898999989 0.0155999996 0
vt 0.90079999 0.0172000006 0
vt 0.880100012 0.0414999984 0
vt 0.866900027 0.070600003 0
vt 0.869199991 0.0714000016 0
vt 0.859899998 0.101800002 0
vt 0.862299979 0.1021 0
vt 0.861899972 0.133599997 0
vt 0.859499991 0.1338 0
vt 0.867900014 0.164399996 0
vt 0.86559999 0.165099993 0
vt 0.878000021 0.194600001 0
vt 0.880100012 0.193399996 0
vt 0.896200001 0.220899999 0
vt 0.898000002 0.219300002 0
vt 0.957599998 0.220500007 0
vt 0.990800023 0.190699995 0
vt 0.990800023 0.220500007 0
vt 0.957599998 0.190699995 0
vt 0.990800023 0.160999998 0
vt 0.957599998 0.160999998 0
vt 0.990800023 0.131200001 0
vt 0.957599998 0.131200001 0
vt 0.990800023 0.101400003 0
vt 0.957599998 0.101400003 0
vt 0.990800023 0.0716999993 0
vt 0.957599998 0.0716999993 0
vt 0.990800023 0.0419000015 0
vt 0.957599998 0.0419000015 0
vt 0.990800023 0.0120999999 0
vt 0.957599998 0.0120999999 0
vt 0.941200018 0.0074 0
vt 0.907999992 0.00510000018 0
vt 0.941200018 0.00510000018 0
vt 0.907999992 0.0074 0

# 32 vertex normals
vn -0.316302508 -0.627805054 0.711205661
vn 0.708321154 -0.694020748 0.128903821
vn 0.554840207 -0.550539911 0.623745263
vn -0.708329439 -0.68512845 0.169907033
vn 0.801266372 -0.55807656 0.215690911
vn -0.801306009 -0.542403996 0.252401888
vn 0.708789587 -0.593491256 0.38129431
vn -0.708813071 -0.565610409 0.421507746
vn 0.556489766 -0.591489077 0.583489239
vn -0.556528926 -0.549528539 0.623132348
vn 0.708706319 -0.390003532 0.587905288
vn -0.70871824 -0.349009007 0.613115788
vn 0.80093199 -0.22950919 0.553022087
vn -0.800906897 -0.198001742 0.565104842
vn 0.314102292 -0.796205759 0.517103672
vn -0.551791131 -0.699388802 0.454292685
vn 0.836510539 -0.298503757 -0.459505826
vn 0.555892408 0.274596304 -0.78458935
vn 0.70876807 0.348984301 -0.613072395
vn 0.801383436 0.395891845 -0.448390692
vn 0.708802938 0.56570226 -0.421401709
vn 0.556391001 0.753287792 -0.350694269
vn 0.708367229 0.68506825 -0.169992104
vn 0.602678359 0.598078549 0.528281033
vn -0.833816409 0.41370815 0.365507245
vn -0.606798828 -0.433099121 -0.666498601
vn -0.555922151 0.318412721 -0.767830551
vn -0.708784103 0.390191257 -0.587686837
vn -0.801386416 0.425992817 -0.419892848
vn -0.708774567 0.593578696 -0.381186277
vn -0.556419194 0.774926722 -0.29981032
vn -0.708389282 0.693989456 -0.128698021

# Mesh 'PipelineFBX' with 60 faces
g PipelineFBX
usemtl DefaultMaterial
f  1/1/1 2/2/2 3/3/3
f  4/2/2 5/1/1 6/4/4
f  7/4/4 8/5/5 9/2/2
f  10/5/5 11/4/4 12/6/6
f  13/6/6 14/7/7 15/5/5
f  16/7/7 17/6/6 18/8/8
f  19/8/8 20/9/9 21/7/7
f  22/9/9 23/8/8 24/10/10
f  25/10/10 26/11/11 27/9/9
f  28/11/11 29/10/10 30/12/12
f  31/12/12 32/13/13 33/11/11
f  34/13/13 35/12/12 36/14/14
f  37/14/14 38/15/15 39/13/13
f  40/15/15 41/14/14 42/16/16
f  43/17/17 44/18/13 45/19/15
f  46/18/13 47/17/17 48/20/18
f  49/21/19 50/18/13 51/20/18
f  52/18/13 53/21/19 54/22/11
f  55/23/20 56/22/11 57/21/19
f  58/22/11 59/23/20 60/24/9
f  61/23/20 62/25/7 63/24/9
f  64/25/7 65/23/20 66/26/21
f  67/26/21 68/27/5 69/25/7
f  70/27/5 71/26/21 72/28/22
f  73/29/23 74/27/5 75/28/22
f  76/27/5 77/29/23 78/30/2
f  79/31/24 80/30/2 81/29/23
f  82/30/2 83/31/24 84/32/3
f  85/33/1 86/34/24 87/35/25
f  88/34/24 89/33/1 90/36/3
f  91/37/14 92/38/26 93/39/16
f  94/38/26 95/37/14 96/40/27
f  97/37/14 98/41/28 99/40/27
f  100/41/28 101/37/14 102/42/12
f  103/42/12 104/43/29 105/41/28
f  106/43/29 107/42/12 108/44/10
f  109/45/8 110/43/29 111/44/10
f  112/43/29 113/45/8 114/46/30
f  115/47/6 116/46/30 117/45/8
f  118/46/30 119/47/6 120/48/31
f  121/47/6 122/49/32 123/48/31
f  124/49/32 125/47/6 126/50/4
f  127/50/4 128/51/25 129/49/32
f  130/51/25 131/50/4 132/52/1
f  133/53/24 134/54/32 135/55/25
f  136/54/32 137/53/24 138/56/23
f  139/56/23 140/57/31 141/54/32
f  142/57/31 143/56/23 144/58/22
f  145/58/22 146/59/30 147/57/31
f  148/59/30 149/58/22 150/60/21
f  151/60/21 152/61/29 153/59/30
f  154/61/29 155/60/21 156/62/20
f  157/62/20 158/63/28 159/61/29
f  160/63/28 161/62/20 162/64/19
f  163/64/19 164/65/27 165/63/28
f  166/65/27 167/64/19 168/66/18
f  169/66/18 170/67/26 171/65/27
f  172/67/26 173/66/18 174/68/17
f  175/69/15 176/70/26 177/71/17
f  178/70/26 179/69/15 180/72/16

