# File produced by Open Asset Import Library (http://www.assimp.sf.net)
# (assimp v6.0.0)

mtllib spacejunk5.mtl

# 108 vertex positions
v 6.36000061 -1.9100014 32.1800003
v 4.85000038 1.9100014 -32.1800003
v 6.36000061 1.90999842 32.1800003
v 4.85000038 1.9100014 -32.1800003
v 6.36000061 -1.9100014 32.1800003
v 4.85000038 -1.90999842 -32.1800003
v 4.85000038 -1.90999842 -32.1800003
v 3.06999993 1.91000104 -24.6800003
v 4.85000038 1.9100014 -32.1800003
v 3.06999993 1.91000104 -24.6800003
v 4.85000038 -1.90999842 -32.1800003
v 3.06999993 -1.90999877 -24.6800003
v 3.06999993 -1.90999877 -24.6800003
v 1.13999999 1.9100008 -22.8799992
v 3.06999993 1.91000104 -24.6800003
v 1.13999999 1.9100008 -22.8799992
v 3.06999993 -1.90999877 -24.6800003
v 1.13999999 -1.90999901 -22.8799992
v 1.13999999 -1.90999901 -22.8799992
v 0.0700000003 1.91000068 -18.4799995
v 1.13999999 1.9100008 -22.8799992
v 0.0700000003 1.91000068 -18.4799995
v 1.13999999 -1.90999901 -22.8799992
v 0.0700000003 -1.90999913 -18.4799995
v 0.0700000003 -1.90999913 -18.4799995
v -1.33999991 1.9100008 -19.6800003
v 0.0700000003 1.91000068 -18.4799995
v -1.33999991 1.9100008 -19.6800003
v 0.0700000003 -1.90999913 -18.4799995
v -1.33999991 -1.90999901 -19.6800003
v -1.33999991 -1.90999901 -19.6800003
v -2.06999993 1.91000068 -16.0799999
v -1.33999991 1.9100008 -19.6800003
v -2.06999993 1.91000068 -16.0799999
v -1.33999991 -1.90999901 -19.6800003
v -2.06999993 -1.90999913 -16.0799999
v -2.06999993 -1.90999913 -16.0799999
v -5.20000029 1.9100008 -19.2800007
v -2.06999993 1.91000068 -16.0799999
v -5.20000029 1.9100008 -19.2800007
v -2.06999993 -1.90999913 -16.0799999
v -5.20000029 -1.90999901 -19.2800007
v 6.36000061 1.90999842 32.1800003
v 0.0500000007 -1.9100014 32.1800003
v 6.36000061 -1.9100014 32.1800003
v 0.0500000007 -1.9100014 32.1800003
v 6.36000061 1.90999842 32.1800003
v 0.0500000007 1.90999842 32.1800003
v 0.0500000007 1.90999842 32.1800003
v -6.36000061 -1.9100014 32.1800003
v 0.0500000007 -1.9100014 32.1800003
v -6.36000061 -1.9100014 32.1800003
v 0.0500000007 1.90999842 32.1800003
v -6.36000061 1.90999842 32.1800003
v -5.20000029 -1.90999901 -19.2800007
v -6.36000061 1.90999842 32.1800003
v -5.20000029 1.9100008 -19.2800007
v -6.36000061 1.90999842 32.1800003
v -5.20000029 -1.90999901 -19.2800007
v -6.36000061 -1.9100014 32.1800003
v -5.20000029 1.9100008 -19.2800007
v -6.36000061 1.90999842 32.1800003
v -2.06999993 1.91000068 -16.0799999
v 0.0500000007 1.90999842 32.1800003
v -2.06999993 1.91000068 -16.0799999
v -6.36000061 1.90999842 32.1800003
v -2.06999993 1.91000068 -16.0799999
v 0.0500000007 1.90999842 32.1800003
v -1.33999991 1.9100008 -19.6800003
v 0.0700000003 1.91000068 -18.4799995
v -1.33999991 1.9100008 -19.6800003
v 0.0500000007 1.90999842 32.1800003
v 0.0500000007 1.90999842 32.1800003
v 1.13999999 1.9100008 -22.8799992
v 0.0700000003 1.91000068 -18.4799995
v 6.36000061 1.90999842 32.1800003
v 1.13999999 1.9100008 -22.8799992
v 0.0500000007 1.90999842 32.1800003
v 6.36000061 1.90999842 32.1800003
v 3.06999993 1.91000104 -24.6800003
v 1.13999999 1.9100008 -22.8799992
v 3.06999993 1.91000104 -24.6800003
v 6.36000061 1.90999842 32.1800003
v 4.85000038 1.9100014 -32.1800003
v -6.36000061 -1.9100014 32.1800003
v -5.20000029 -1.90999901 -19.2800007
v -2.06999993 -1.90999913 -16.0799999
v -2.06999993 -1.90999913 -16.0799999
v 0.0500000007 -1.9100014 32.1800003
v -6.36000061 -1.9100014 32.1800003
v 0.0500000007 -1.9100014 32.1800003
v -2.06999993 -1.90999913 -16.0799999
v -1.33999991 -1.90999901 -19.6800003
v -1.33999991 -1.90999901 -19.6800003
v 0.0700000003 -1.90999913 -18.4799995
v 0.0500000007 -1.9100014 32.1800003
v 1.13999999 -1.90999901 -22.8799992
v 0.0500000007 -1.9100014 32.1800003
v 0.0700000003 -1.90999913 -18.4799995
v 1.13999999 -1.90999901 -22.8799992
v 6.36000061 -1.9100014 32.1800003
v 0.0500000007 -1.9100014 32.1800003
v 3.06999993 -1.90999877 -24.6800003
v 6.36000061 -1.9100014 32.1800003
v 1.13999999 -1.90999901 -22.8799992
v 6.36000061 -1.9100014 32.1800003
v 3.06999993 -1.90999877 -24.6800003
v 4.85000038 -1.90999842 -32.1800003

# 38 UV coordinates
vt 0.728200018 0.225299999 0
vt 0.736800015 0.0219999999 0
vt 0.740199983 0.225099996 0
vt 0.724699974 0.0221999995 0
vt 0.70599997 0.0175000001 0
vt 0.689800024 0.0254999995 0
vt 0.699599981 0.0126 0
vt 0.696200013 0.0303000007 0
vt 0.686399996 0.0298999995 0
vt 0.692799985 0.0346999988 0
vt 0.680700004 0.0373999998 0
vt 0.686999977 0.0423000008 0
vt 0.678300023 0.0405000001 0
vt 0.684700012 0.0454000011 0
vt 0.673600018 0.0465999991 0
vt 0.680000007 0.0515000001 0
vt 0.667900026 0.0540999994 0
vt 0.674300015 0.0588999987 0
vt 0.716400027 0.247799993 0
vt 0.696500003 0.235799998 0
vt 0.716400027 0.235799998 0
vt 0.696500003 0.247799993 0
vt 0.676299989 0.235799998 0
vt 0.676299989 0.247799993 0
vt 0.671999991 0.0636000037 0
vt 0.654900014 0.224900007 0
vt 0.65990001 0.0631999969 0
vt 0.666899979 0.225299999 0
vt 0.680000007 0.063000001 0
vt 0.676299989 0.225199997 0
vt 0.689899981 0.0731000006 0
vt 0.696500003 0.225199997 0
vt 0.692099988 0.0617999993 0
vt 0.69660002 0.0656000003 0
vt 0.699999988 0.0516999997 0
vt 0.716400027 0.225199997 0
vt 0.706099987 0.0460000001 0
vt 0.711700022 0.0223999992 0

# 20 vertex normals
vn 0.536183298 -0.804475009 0.255592018
vn 0.703176618 0.68507725 -0.19029367
vn 0.268100291 0.804500818 0.530000627
vn -0.648173571 -0.685072064 -0.33248648
vn -0.748395979 0.569596946 -0.339798152
vn -0.665573061 -0.569576919 -0.482280493
vn -0.560886264 0.720382392 -0.407989949
vn -0.630412877 -0.720414698 -0.289105922
vn -0.482704967 0.745307684 -0.459904701
vn 0.120906025 -0.745337129 -0.655632675
vn 0.118996315 0.752476633 -0.647779822
vn -0.493580163 -0.752469718 -0.436082453
vn -0.36319083 0.875078022 -0.31989193
vn 0.131194994 -0.875066578 -0.465882242
vn 0.240199119 0.558598042 -0.793897152
vn -0.717645407 -0.558635354 -0.415826321
vn 0 -0.857492983 0.51449573
vn 0 0.857492864 0.51449579
vn -0.334905982 -0.670011938 0.662511885
vn -0.669899344 0.669999361 0.319899708

# Mesh 'PipelineFBX' with 36 faces
g PipelineFBX
usemtl DefaultMaterial
f  1/1/1 2/2/2 3/3/3
f  4/2/2 5/1/1 6/4/4
f  7/5/4 8/6/5 9/7/2
f  10/6/5 11/5/4 12/8/6
f  13/8/6 14/9/7 15/6/5
f  16/9/7 17/8/6 18/10/8
f  19/10/8 20/11/9 21/9/7
f  22/11/9 23/10/8 24/12/10
f  25/12/10 26/13/11 27/11/9
f  28/13/11 29/12/10 30/14/12
f  31/14/12 32/15/13 33/13/11
f  34/15/13 35/14/12 36/16/14
f  37/16/14 38/17/15 39/15/13
f  40/17/15 41/16/14 42/18/16
f  43/19/3 44/20/17 45/21/1
f  46/20/17 47/19/3 48/22/18
f  49/22/18 50/23/19 51/20/17
f  52/23/19 53/22/18 54/24/20
f  55/25/16 56/26/20 57/27/15
f  58/26/20 59/25/16 60/28/19
f  61/29/15 62/30/20 63/31/13
f  64/32/18 65/31/13 66/30/20
f  67/31/13 68/32/18 69/33/11
f  70/34/9 71/33/11 72/32/18
f  73/32/18 74/35/7 75/34/9
f  76/36/3 77/35/7 78/32/18
f  79/36/3 80/37/5 81/35/7
f  82/37/5 83/36/3 84/38/2
f  85/30/19 86/29/16 87/31/14
f  88/31/14 89/32/17 90/30/19
f  91/32/17 92/31/14 93/33/12
f  94/33/12 95/34/10 96/32/17
f  97/35/8 98/32/17 99/34/10
f  100/35/8 101/36/1 102/32/17
f  103/37/6 104/36/1 105/35/8
f  106/36/1 107/37/6 108/38/4

