# File produced by Open Asset Import Library (http://www.assimp.sf.net)
# (assimp v6.0.0)

mtllib spacejunk12.mtl

# 468 vertex positions
v 7.09000015 6.9199996 20.1199989
v 33.0299988 -8.6600008 17.8899994
v 7.09000015 -6.92000103 20.1199989
v 33.0299988 -8.6600008 17.8899994
v 7.09000015 6.9199996 20.1199989
v 33.0299988 8.65999889 17.8899994
v -54.3899994 2.78999925 15.6200008
v -54.3899994 -2.79000211 50.2099991
v -54.3899994 2.78999758 50.2099991
v -54.3899994 -2.79000211 50.2099991
v -54.3899994 2.78999925 15.6200008
v -54.3899994 -2.79000068 15.6200008
v -7.26999998 -5.95000029 -2.68000007
v -3.08999991 6.23000097 -14.1599998
v -7.26999998 5.95000029 -2.67999983
v -3.08999991 6.23000097 -14.1599998
v -7.26999998 -5.95000029 -2.68000007
v -3.08999991 -6.22999907 -14.1599998
v -3.68999982 3.68999887 24.9400005
v 23.1999989 3.68999887 23.1499996
v 11.9300003 3.68999958 4.8300004
v -16.7999992 3.6900003 -9.73999977
v -3.68999982 3.68999887 24.9400005
v 11.9300003 3.68999958 4.8300004
v 4.01000023 3.69000101 -26.539999
v -16.7999992 3.6900003 -9.73999977
v 11.9300003 3.68999958 4.8300004
v 11.9300003 3.68999958 4.8300004
v 7.73999977 3.69000053 -20.9400005
v 4.01000023 3.69000101 -26.539999
v 29.5500011 3.6900003 -9.18999958
v 7.73999977 3.69000053 -20.9400005
v 11.9300003 3.68999958 4.8300004
v 7.73999977 3.69000053 -20.9400005
v 29.5500011 3.6900003 -9.18999958
v 21.4300003 3.69000053 -21.1599998
v 21.4300003 -3.6899991 -21.1599998
v 7.73999977 3.69000053 -20.9400005
v 21.4300003 3.69000053 -21.1599998
v 7.73999977 3.69000053 -20.9400005
v 21.4300003 -3.6899991 -21.1599998
v 7.73999977 -3.6899991 -20.9400005
v 23.1999989 -3.69000101 23.1499996
v 11.9300003 3.68999958 4.8300004
v 23.1999989 3.68999887 23.1499996
v 11.9300003 3.68999958 4.8300004
v 23.1999989 -3.69000101 23.1499996
v 11.9300003 -3.6900003 4.8300004
v 33.0299988 8.65999889 17.8899994
v 33.0299988 -8.66000175 36.6599998
v 33.0299988 -8.6600008 17.8899994
v 33.0299988 -8.66000175 36.6599998
v 33.0299988 8.65999889 17.8899994
v 33.0299988 8.65999794 36.6599998
v 1.16999996 6.51999998 7.67000008
v -7.21000004 -5.96000051 4.8499999
v -7.21000004 5.95999956 4.85000038
v -7.21000004 -5.96000051 4.8499999
v 1.16999996 6.51999998 7.67000008
v 1.16999996 -6.51999998 7.67000008
v -14.3900003 5.47000074 -16.1300011
v -13.29 -5.54999971 -10.4300003
v -14.3900003 -5.46999931 -16.1300011
v -13.29 -5.54999971 -10.4300003
v -14.3900003 5.47000074 -16.1300011
v -13.29 5.55000067 -10.4300003
v -3.08999991 6.23000097 -14.1599998
v -13.29 -5.54999971 -10.4300003
v -13.29 5.55000067 -10.4300003
v -13.29 -5.54999971 -10.4300003
v -3.08999991 6.23000097 -14.1599998
v -3.08999991 -6.22999907 -14.1599998
v -16.7999992 -3.68999958 -9.73999977
v 4.01000023 -3.68999887 -26.539999
v 7.73999977 -3.6899991 -20.9400005
v 7.73999977 -3.6899991 -20.9400005
v 11.9300003 -3.6900003 4.8300004
v -16.7999992 -3.68999958 -9.73999977
v 11.9300003 -3.6900003 4.8300004
v -3.68999982 -3.69000101 24.9400005
v -16.7999992 -3.68999958 -9.73999977
v 11.9300003 -3.6900003 4.8300004
v 23.1999989 -3.69000101 23.1499996
v -3.68999982 -3.69000101 24.9400005
v 7.73999977 -3.6899991 -20.9400005
v 29.5500011 -3.68999958 -9.18999958
v 11.9300003 -3.6900003 4.8300004
v 29.5500011 -3.68999958 -9.18999958
v 7.73999977 -3.6899991 -20.9400005
v 21.4300003 -3.6899991 -21.1599998
v -16.7999992 3.6900003 -9.73999977
v 4.01000023 -3.68999887 -26.539999
v -16.7999992 -3.68999958 -9.73999977
v 4.01000023 -3.68999887 -26.539999
v -16.7999992 3.6900003 -9.73999977
v 4.01000023 3.69000101 -26.539999
v 2.25999999 6.58999968 -4.46999979
v -7.26999998 -5.95000029 -2.68000007
v -7.26999998 5.95000029 -2.67999983
v -7.26999998 -5.95000029 -2.68000007
v 2.25999999 6.58999968 -4.46999979
v 2.25999999 -6.58999968 -4.47000027
v 6.31000042 6.85999918 12.1700001
v -5.18000031 -6.09000063 17.4799995
v -5.18000031 6.0899992 17.4799995
v -5.18000031 -6.09000063 17.4799995
v 6.31000042 6.85999918 12.1700001
v 6.31000042 -6.86000061 12.1700001
v -5.18000031 -6.09000063 17.4799995
v 1.16999996 6.51999998 7.67000008
v -5.18000031 6.0899992 17.4799995
v 1.16999996 6.51999998 7.67000008
v -5.18000031 -6.09000063 17.4799995
v 1.16999996 -6.51999998 7.67000008
v 21.4300003 3.69000053 -21.1599998
v 29.5500011 -3.68999958 -9.18999958
v 21.4300003 -3.6899991 -21.1599998
v 29.5500011 -3.68999958 -9.18999958
v 21.4300003 3.69000053 -21.1599998
v 29.5500011 3.6900003 -9.18999958
v 29.5500011 3.6900003 -9.18999958
v 11.9300003 -3.6900003 4.8300004
v 29.5500011 -3.68999958 -9.18999958
v 11.9300003 -3.6900003 4.8300004
v 29.5500011 3.6900003 -9.18999958
v 11.9300003 3.68999958 4.8300004
v -14.3900003 5.47000074 -16.1300011
v -54.3899994 -2.79000068 15.6200008
v -54.3899994 2.78999925 15.6200008
v -54.3899994 -2.79000068 15.6200008
v -14.3900003 5.47000074 -16.1300011
v -14.3900003 -5.46999931 -16.1300011
v 6.31000042 6.85999918 12.1700001
v 7.09000015 -6.92000103 20.1199989
v 6.31000042 -6.86000061 12.1700001
v 7.09000015 -6.92000103 20.1199989
v 6.31000042 6.85999918 12.1700001
v 7.09000015 6.9199996 20.1199989
v 33.0299988 -8.66000175 36.6599998
v -54.3899994 2.78999758 50.2099991
v -54.3899994 -2.79000211 50.2099991
v -54.3899994 2.78999758 50.2099991
v 33.0299988 -8.66000175 36.6599998
v 33.0299988 8.65999794 36.6599998
v -7.21000004 5.95999956 4.85000038
v 2.25999999 -6.58999968 -4.47000027
v 2.25999999 6.58999968 -4.46999979
v 2.25999999 -6.58999968 -4.47000027
v -7.21000004 5.95999956 4.85000038
v -7.21000004 -5.96000051 4.8499999
v 7.73999977 -3.6899991 -20.9400005
v 4.01000023 3.69000101 -26.539999
v 7.73999977 3.69000053 -20.9400005
v 4.01000023 3.69000101 -26.539999
v 7.73999977 -3.6899991 -20.9400005
v 4.01000023 -3.68999887 -26.539999
v 33.0299988 8.65999889 17.8899994
v 7.09000015 6.9199996 20.1199989
v 33.0299988 8.65999794 36.6599998
v 33.0299988 8.65999794 36.6599998
v 7.09000015 6.9199996 20.1199989
v -5.18000031 6.0899992 17.4799995
v 33.0299988 8.65999794 36.6599998
v -5.18000031 6.0899992 17.4799995
v -54.3899994 2.78999758 50.2099991
v -5.18000031 6.0899992 17.4799995
v -7.21000004 5.95999956 4.85000038
v -54.3899994 2.78999758 50.2099991
v -7.21000004 5.95999956 4.85000038
v -7.26999998 5.95000029 -2.67999983
v -54.3899994 2.78999758 50.2099991
v -7.26999998 5.95000029 -2.67999983
v -54.3899994 2.78999925 15.6200008
v -54.3899994 2.78999758 50.2099991
v -13.29 5.55000067 -10.4300003
v -54.3899994 2.78999925 15.6200008
v -7.26999998 5.95000029 -2.67999983
v -14.3900003 5.47000074 -16.1300011
v -54.3899994 2.78999925 15.6200008
v -13.29 5.55000067 -10.4300003
v 6.31000042 6.85999918 12.1700001
v -5.18000031 6.0899992 17.4799995
v 7.09000015 6.9199996 20.1199989
v -3.08999991 6.23000097 -14.1599998
v -13.29 5.55000067 -10.4300003
v -7.26999998 5.95000029 -2.67999983
v 2.25999999 6.58999968 -4.46999979
v -7.26999998 5.95000029 -2.67999983
v -7.21000004 5.95999956 4.85000038
v 1.16999996 6.51999998 7.67000008
v -7.21000004 5.95999956 4.85000038
v -5.18000031 6.0899992 17.4799995
v 7.09000015 -6.92000103 20.1199989
v 33.0299988 -8.6600008 17.8899994
v 33.0299988 -8.66000175 36.6599998
v 7.09000015 -6.92000103 20.1199989
v 33.0299988 -8.66000175 36.6599998
v -5.18000031 -6.09000063 17.4799995
v -5.18000031 -6.09000063 17.4799995
v 6.31000042 -6.86000061 12.1700001
v 7.09000015 -6.92000103 20.1199989
v -5.18000031 -6.09000063 17.4799995
v 33.0299988 -8.66000175 36.6599998
v -54.3899994 -2.79000211 50.2099991
v -7.21000004 -5.96000051 4.8499999
v -5.18000031 -6.09000063 17.4799995
v -54.3899994 -2.79000211 50.2099991
v -7.21000004 -5.96000051 4.8499999
v 1.16999996 -6.51999998 7.67000008
v -5.18000031 -6.09000063 17.4799995
v -7.26999998 -5.95000029 -2.68000007
v -7.21000004 -5.96000051 4.8499999
v -54.3899994 -2.79000211 50.2099991
v -7.26999998 -5.95000029 -2.68000007
v 2.25999999 -6.58999968 -4.47000027
v -7.21000004 -5.96000051 4.8499999
v -54.3899994 -2.79000068 15.6200008
v -7.26999998 -5.95000029 -2.68000007
v -54.3899994 -2.79000211 50.2099991
v -54.3899994 -2.79000068 15.6200008
v -13.29 -5.54999971 -10.4300003
v -7.26999998 -5.95000029 -2.68000007
v -13.29 -5.54999971 -10.4300003
v -3.08999991 -6.22999907 -14.1599998
v -7.26999998 -5.95000029 -2.68000007
v -54.3899994 -2.79000068 15.6200008
v -14.3900003 -5.46999931 -16.1300011
v -13.29 -5.54999971 -10.4300003
v 54.2599983 7.91613274e-07 -18.1099987
v 54.3500023 1.73000097 -21.1100006
v 54.2900009 1.73000073 -19.1100006
v 54.3500023 1.73000097 -21.1100006
v 54.2599983 7.91613274e-07 -18.1099987
v 54.3899994 9.66458856e-07 -22.1100006
v 54.2599983 7.91613274e-07 -18.1099987
v 54.3500023 -1.72999907 -21.1100006
v 54.3899994 9.66458856e-07 -22.1100006
v 54.3500023 -1.72999907 -21.1100006
v 54.2599983 7.91613274e-07 -18.1099987
v 54.2900009 -1.7299993 -19.1100006
v 24.3199997 2.18600667e-06 -50.0100021
v 21.3199997 1.73000228 -50.1600037
v 23.3199997 1.73000228 -50.0599976
v 21.3199997 1.73000228 -50.1600037
v 24.3199997 2.18600667e-06 -50.0100021
v 20.3299999 2.19474873e-06 -50.2099991
v 24.3199997 2.18600667e-06 -50.0100021
v 21.3199997 -1.72999775 -50.1600037
v 20.3299999 2.19474873e-06 -50.2099991
v 21.3199997 -1.72999775 -50.1600037
v 24.3199997 2.18600667e-06 -50.0100021
v 23.3199997 -1.72999775 -50.0599976
v 24.3199997 2.18600667e-06 -50.0100021
v 21.3799992 -1.72999835 -39.829998
v 23.3199997 -1.72999775 -50.0599976
v 21.3799992 -1.72999835 -39.829998
v 24.3199997 2.18600667e-06 -50.0100021
v 22.3199997 1.72572572e-06 -39.4799995
v 16.9499989 1.30871899e-06 -29.9400005
v 21.3799992 -1.72999835 -39.829998
v 22.3199997 1.72572572e-06 -39.4799995
v 21.3799992 -1.72999835 -39.829998
v 16.9499989 1.30871899e-06 -29.9400005
v 16.1400013 -1.72999871 -30.5299988
v 14.5100002 -1.72999871 -31.6900024
v 21.3799992 -1.72999835 -39.829998
v 16.1400013 -1.72999871 -30.5299988
v 21.3799992 -1.72999835 -39.829998
v 14.5100002 -1.72999871 -31.6900024
v 19.5100002 -1.72999823 -40.5400009
v 21.3199997 -1.72999775 -50.1600037
v 21.3799992 -1.72999835 -39.829998
v 19.5100002 -1.72999823 -40.5400009
v 21.3799992 -1.72999835 -39.829998
v 21.3199997 -1.72999775 -50.1600037
v 23.3199997 -1.72999775 -50.0599976
v 6.70000029 8.73353542e-07 -19.9799995
v 16.1400013 -1.72999871 -30.5299988
v 16.9499989 1.30871899e-06 -29.9400005
v 16.1400013 -1.72999871 -30.5299988
v 6.70000029 8.73353542e-07 -19.9799995
v 6.07999992 -1.72999907 -20.7700005
v 4.85000038 -1.72999907 -22.3500004
v 16.1400013 -1.72999871 -30.5299988
v 6.07999992 -1.72999907 -20.7700005
v 16.1400013 -1.72999871 -30.5299988
v 4.85000038 -1.72999907 -22.3500004
v 14.5100002 -1.72999871 -31.6900024
v 4.85000038 -1.72999907 -22.3500004
v 13.6999998 1.41100372e-06 -32.2800026
v 14.5100002 -1.72999871 -31.6900024
v 18.5699997 1.78735866e-06 -40.8899994
v 14.5100002 -1.72999871 -31.6900024
v 13.6999998 1.41100372e-06 -32.2800026
v 14.5100002 -1.72999871 -31.6900024
v 18.5699997 1.78735866e-06 -40.8899994
v 19.5100002 -1.72999823 -40.5400009
v 18.5699997 1.78735866e-06 -40.8899994
v 21.3199997 -1.72999775 -50.1600037
v 19.5100002 -1.72999823 -40.5400009
v 21.3199997 -1.72999775 -50.1600037
v 18.5699997 1.78735866e-06 -40.8899994
v 20.3299999 2.19474873e-06 -50.2099991
v 18.5699997 1.78735866e-06 -40.8899994
v 21.3199997 1.73000228 -50.1600037
v 20.3299999 2.19474873e-06 -50.2099991
v 21.3199997 1.73000228 -50.1600037
v 18.5699997 1.78735866e-06 -40.8899994
v 19.5100002 1.73000193 -40.5400009
v 21.3799992 1.73000169 -39.829998
v 21.3199997 1.73000228 -50.1600037
v 19.5100002 1.73000193 -40.5400009
v 21.3199997 1.73000228 -50.1600037
v 21.3799992 1.73000169 -39.829998
v 23.3199997 1.73000228 -50.0599976
v 13.6999998 1.41100372e-06 -32.2800026
v 4.85000038 -1.72999907 -22.3500004
v 4.23999977 1.01148146e-06 -23.1399994
v 4.85000038 1.73000097 -22.3500004
v 13.6999998 1.41100372e-06 -32.2800026
v 4.23999977 1.01148146e-06 -23.1399994
v 13.6999998 1.41100372e-06 -32.2800026
v 4.85000038 1.73000097 -22.3500004
v 14.5100002 1.73000133 -31.6900024
v 14.5100002 1.73000133 -31.6900024
v 18.5699997 1.78735866e-06 -40.8899994
v 13.6999998 1.41100372e-06 -32.2800026
v 18.5699997 1.78735866e-06 -40.8899994
v 14.5100002 1.73000133 -31.6900024
v 19.5100002 1.73000193 -40.5400009
v 14.5100002 1.73000133 -31.6900024
v 21.3799992 1.73000169 -39.829998
v 19.5100002 1.73000193 -40.5400009
v 21.3799992 1.73000169 -39.829998
v 14.5100002 1.73000133 -31.6900024
v 16.1400013 1.73000133 -30.5299988
v 16.9499989 1.30871899e-06 -29.9400005
v 21.3799992 1.73000169 -39.829998
v 16.1400013 1.73000133 -30.5299988
v 21.3799992 1.73000169 -39.829998
v 16.9499989 1.30871899e-06 -29.9400005
v 22.3199997 1.72572572e-06 -39.4799995
v 24.3199997 2.18600667e-06 -50.0100021
v 21.3799992 1.73000169 -39.829998
v 22.3199997 1.72572572e-06 -39.4799995
v 21.3799992 1.73000169 -39.829998
v 24.3199997 2.18600667e-06 -50.0100021
v 23.3199997 1.73000228 -50.0599976
v 4.85000038 1.73000097 -22.3500004
v 16.1400013 1.73000133 -30.5299988
v 14.5100002 1.73000133 -31.6900024
v 16.1400013 1.73000133 -30.5299988
v 4.85000038 1.73000097 -22.3500004
v 6.07999992 1.73000097 -20.7700005
v 6.70000029 8.73353542e-07 -19.9799995
v 16.1400013 1.73000133 -30.5299988
v 6.07999992 1.73000097 -20.7700005
v 16.1400013 1.73000133 -30.5299988
v 6.70000029 8.73353542e-07 -19.9799995
v 16.9499989 1.30871899e-06 -29.9400005
v 44.0299988 1.73000097 -20.3099995
v 54.2900009 1.73000073 -19.1100006
v 54.3500023 1.73000097 -21.1100006
v 54.2900009 1.73000073 -19.1100006
v 44.0299988 1.73000097 -20.3099995
v 44.4300003 1.73000073 -18.3500004
v 44.6300011 7.59266868e-07 -17.3700008
v 54.2900009 1.73000073 -19.1100006
v 44.4300003 1.73000073 -18.3500004
v 54.2900009 1.73000073 -19.1100006
v 44.6300011 7.59266868e-07 -17.3700008
v 54.2599983 7.91613274e-07 -18.1099987
v 44.6300011 7.59266868e-07 -17.3700008
v 54.2900009 -1.7299993 -19.1100006
v 54.2599983 7.91613274e-07 -18.1099987
v 54.3899994 9.66458856e-07 -22.1100006
v 44.0299988 1.73000097 -20.3099995
v 54.3500023 1.73000097 -21.1100006
v 44.0299988 1.73000097 -20.3099995
v 54.3899994 9.66458856e-07 -22.1100006
v 43.8300018 9.30615386e-07 -21.289999
v 33.5399971 7.84619374e-07 -17.9500008
v 44.0299988 1.73000097 -20.3099995
v 43.8300018 9.30615386e-07 -21.289999
v 44.0299988 1.73000097 -20.3099995
v 33.5399971 7.84619374e-07 -17.9500008
v 33.9300003 1.73000073 -17.0300007
v 34.7200012 1.73000073 -15.1899996
v 44.0299988 1.73000097 -20.3099995
v 33.9300003 1.73000073 -17.0300007
v 44.0299988 1.73000097 -20.3099995
v 34.7200012 1.73000073 -15.1899996
v 44.4300003 1.73000073 -18.3500004
v 34.7200012 1.73000073 -15.1899996
v 44.6300011 7.59266868e-07 -17.3700008
v 44.4300003 1.73000073 -18.3500004
v 44.6300011 7.59266868e-07 -17.3700008
v 34.7200012 1.73000073 -15.1899996
v 35.1100006 6.23761537e-07 -14.2700005
v 34.7200012 -1.7299993 -15.1899996
v 44.6300011 7.59266868e-07 -17.3700008
v 35.1100006 6.23761537e-07 -14.2700005
v 44.6300011 7.59266868e-07 -17.3700008
v 34.7200012 -1.7299993 -15.1899996
v 44.4300003 -1.7299993 -18.3500004
v 54.2900009 -1.7299993 -19.1100006
v 44.6300011 7.59266868e-07 -17.3700008
v 44.4300003 -1.7299993 -18.3500004
v 44.0299988 -1.72999907 -20.3099995
v 54.2900009 -1.7299993 -19.1100006
v 44.4300003 -1.7299993 -18.3500004
v 54.2900009 -1.7299993 -19.1100006
v 44.0299988 -1.72999907 -20.3099995
v 54.3500023 -1.72999907 -21.1100006
v 25.0600014 5.68685152e-07 -13.0099993
v 33.9300003 1.73000073 -17.0300007
v 33.5399971 7.84619374e-07 -17.9500008
v 33.9300003 1.73000073 -17.0300007
v 25.0600014 5.68685152e-07 -13.0099993
v 25.6399994 1.73000062 -12.1899996
v 25.6399994 1.73000062 -12.1899996
v 34.7200012 1.73000073 -15.1899996
v 33.9300003 1.73000073 -17.0300007
v 34.7200012 1.73000073 -15.1899996
v 25.6399994 1.73000062 -12.1899996
v 26.8000011 1.73000038 -10.5599995
v 26.8000011 1.73000038 -10.5599995
v 35.1100006 6.23761537e-07 -14.2700005
v 34.7200012 1.73000073 -15.1899996
v 35.1100006 6.23761537e-07 -14.2700005
v 26.8000011 1.73000038 -10.5599995
v 27.3799992 4.26186034e-07 -9.75
v 26.8000011 -1.72999966 -10.5599995
v 35.1100006 6.23761537e-07 -14.2700005
v 27.3799992 4.26186034e-07 -9.75
v 35.1100006 6.23761537e-07 -14.2700005
v 26.8000011 -1.72999966 -10.5599995
v 34.7200012 -1.7299993 -15.1899996
v 25.6399994 -1.72999954 -12.1899996
v 34.7200012 -1.7299993 -15.1899996
v 26.8000011 -1.72999966 -10.5599995
v 34.7200012 -1.7299993 -15.1899996
v 25.6399994 -1.72999954 -12.1899996
v 33.9300003 -1.7299993 -17.0300007
v 44.0299988 -1.72999907 -20.3099995
v 34.7200012 -1.7299993 -15.1899996
v 33.9300003 -1.7299993 -17.0300007
v 34.7200012 -1.7299993 -15.1899996
v 44.0299988 -1.72999907 -20.3099995
v 44.4300003 -1.7299993 -18.3500004
v 25.0600014 5.68685152e-07 -13.0099993
v 33.9300003 -1.7299993 -17.0300007
v 25.6399994 -1.72999954 -12.1899996
v 33.9300003 -1.7299993 -17.0300007
v 25.0600014 5.68685152e-07 -13.0099993
v 33.5399971 7.84619374e-07 -17.9500008
v 33.5399971 7.84619374e-07 -17.9500008
v 44.0299988 -1.72999907 -20.3099995
v 33.9300003 -1.7299993 -17.0300007
v 44.0299988 -1.72999907 -20.3099995
v 33.5399971 7.84619374e-07 -17.9500008
v 43.8300018 9.30615386e-07 -21.289999
v 54.3899994 9.66458856e-07 -22.1100006
v 44.0299988 -1.72999907 -20.3099995
v 43.8300018 9.30615386e-07 -21.289999
v 44.0299988 -1.72999907 -20.3099995
v 54.3899994 9.66458856e-07 -22.1100006
v 54.3500023 -1.72999907 -21.1100006

# 154 UV coordinates
vt 0.123099998 0.40110001 0
vt 0.203600004 0.449400008 0
vt 0.123000003 0.443899989 0
vt 0.203700006 0.395799994 0
vt 0.296299994 0.771499991 0
vt 0.403400004 0.754199982 0
vt 0.403400004 0.771499991 0
vt 0.296299994 0.754199982 0
vt 0.204400003 0.510599971 0
vt 0.168300003 0.474400014 0
vt 0.204400003 0.475400001 0
vt 0.168300003 0.511300027 0
vt 0.562099993 0.667200029 0
vt 0.493200004 0.620100021 0
vt 0.485599995 0.686200023 0
vt 0.527700007 0.776600003 0
vt 0.444900006 0.777800024 0
vt 0.446500003 0.757000029 0
vt 0.415899992 0.686600029 0
vt 0.412800014 0.731299996 0
vt 0.453999996 0.614099979 0
vt 0.431199998 0.656499982 0
vt 0.431199998 0.614099979 0
vt 0.453999996 0.656499982 0
vt 0.296499997 0.548099995 0
vt 0.229900002 0.525200009 0
vt 0.296499997 0.525200009 0
vt 0.229900002 0.548099995 0
vt 0.261700004 0.449499995 0
vt 0.261799991 0.395900011 0
vt 0.306600004 0.407099992 0
vt 0.281599998 0.442900002 0
vt 0.281399995 0.408899993 0
vt 0.306899995 0.444400012 0
vt 0.168699995 0.650099993 0
vt 0.1822 0.614400029 0
vt 0.193800002 0.627900004 0
vt 0.156800002 0.636900008 0
vt 0.156299993 0.474400014 0
vt 0.1241 0.50910002 0
vt 0.1241 0.476300001 0
vt 0.156299993 0.511300027 0
vt 0.462099999 0.640799999 0
vt 0.484899998 0.558099985 0
vt 0.484899998 0.640799999 0
vt 0.462099999 0.558099985 0
vt 0.243100002 0.4736 0
vt 0.214399993 0.510599971 0
vt 0.214399993 0.475400001 0
vt 0.243100002 0.512600005 0
vt 0.0983999968 0.401300013 0
vt 0.0592 0.441300005 0
vt 0.0592 0.403600007 0
vt 0.0983000025 0.443800002 0
vt 0.340299994 0.442900002 0
vt 0.340000004 0.408100009 0
vt 0.453999996 0.569400012 0
vt 0.431199998 0.569400012 0
vt 0.1602 0.525200009 0
vt 0.1602 0.547999978 0
vt 0.291299999 0.750400007 0
vt 0.278499991 0.761699975 0
vt 0.362399995 0.411000013 0
vt 0.421799988 0.680700004 0
vt 0.404599994 0.682200015 0
vt 0.415800005 0.406300008 0
vt 0.296400011 0.475699991 0
vt 0.257099986 0.512600005 0
vt 0.257099986 0.4736 0
vt 0.296400011 0.510900021 0
vt 0.431199998 0.677399993 0
vt 0.453999996 0.677399993 0
vt 0.305999994 0.47389999 0
vt 0.31220001 0.554400027 0
vt 0.364100009 0.474400014 0
vt 0.3037 0.592499971 0
vt 0.403600007 0.746100008 0
vt 0.264499992 0.59829998 0
vt 0.2412 0.59829998 0
vt 0.296499997 0.745100021 0
vt 0.216999993 0.61680001 0
vt 0.199399993 0.620000005 0
vt 0.287600011 0.556699991 0
vt 0.205799997 0.584999979 0
vt 0.2359 0.568700016 0
vt 0.273499995 0.57249999 0
vt 0.395599991 0.377600014 0
vt 0.38499999 0.376800001 0
vt 0.390500009 0.3741 0
vt 0.384499997 0.382999986 0
vt 0.389699996 0.386500001 0
vt 0.395200014 0.383700013 0
vt 0.486799985 0.411900014 0
vt 0.478199989 0.418300003 0
vt 0.480599999 0.412600011 0
vt 0.481900007 0.423200011 0
vt 0.487899989 0.422600001 0
vt 0.490399987 0.416900009 0
vt 0.500100017 0.425399989 0
vt 0.495099992 0.457800001 0
vt 0.493999988 0.426099986 0
vt 0.501299977 0.457599998 0
vt 0.501999974 0.489600003 0
vt 0.495799989 0.489899993 0
vt 0.489600003 0.490200013 0
vt 0.488900006 0.457899988 0
vt 0.487899989 0.427300006 0
vt 0.502699971 0.532999992 0
vt 0.496499985 0.532700002 0
vt 0.490399987 0.532100022 0
vt 0.483399987 0.490500003 0
vt 0.482600003 0.458099991 0
vt 0.481900007 0.427899987 0
vt 0.476000011 0.42750001 0
vt 0.476300001 0.458200008 0
vt 0.470200002 0.458299994 0
vt 0.469900012 0.426600009 0
vt 0.484299988 0.531899989 0
vt 0.478300005 0.532400012 0
vt 0.477100015 0.490500003 0
vt 0.470899999 0.490399987 0
vt 0.464700013 0.490500003 0
vt 0.4639 0.458400011 0
vt 0.463800013 0.426200002 0
vt 0.472200006 0.533299983 0
vt 0.466100007 0.533800006 0
vt 0.433099985 0.365200013 0
vt 0.4023 0.371600002 0
vt 0.4014 0.365500003 0
vt 0.433200002 0.371300012 0
vt 0.433200002 0.377600014 0
vt 0.402700007 0.377600014 0
vt 0.4023 0.383700013 0
vt 0.400999993 0.359400004 0
vt 0.433099985 0.358999997 0
vt 0.46540001 0.358900011 0
vt 0.46540001 0.365099996 0
vt 0.46540001 0.371399999 0
vt 0.46540001 0.377600014 0
vt 0.46540001 0.383899987 0
vt 0.433200002 0.383899987 0
vt 0.433099985 0.390100002 0
vt 0.4014 0.389800012 0
vt 0.495099992 0.359400004 0
vt 0.494700015 0.365500003 0
vt 0.493999988 0.371600002 0
vt 0.493699998 0.377600014 0
vt 0.493999988 0.383599997 0
vt 0.494700015 0.389699996 0
vt 0.46540001 0.390100002 0
vt 0.495099992 0.395799994 0
vt 0.46540001 0.396299988 0
vt 0.433099985 0.396299988 0
vt 0.400999993 0.395900011 0

# 99 vertex normals
vn -0.0857017785 4.35505569e-08 -0.996320784
vn -1 0 0
vn 0.762494087 2.82810539e-08 -0.646995068
vn 0.706606567 3.09304617e-08 -0.707606554
vn 0 1 4.37113883e-08
vn -0.0160995219 4.37057182e-08 -0.99987036
vn 0.85171324 2.29051231e-08 -0.524008155
vn 1 0 0
vn 0.944118381 1.44075543e-08 -0.329606444
vn 0.749502182 2.89370234e-08 -0.662001848
vn 0.963612318 -1.16842047e-08 0.267303437
vn 0.98188138 8.28315105e-09 -0.189496413
vn 0.492386699 3.80453642e-08 -0.870376468
vn 0 -1 -4.37113883e-08
vn -0.62817651 3.40105615e-08 -0.778070807
vn 0.256299317 4.22513153e-08 -0.966597438
vn 0.939883888 -1.49271848e-08 0.341494173
vn 0.49690333 3.79330025e-08 -0.867805839
vn 0.755339086 2.8645557e-08 -0.655333996
vn 0.827562094 2.45384477e-08 -0.561374307
vn 0.622619629 -3.42052395e-08 0.782524645
vn -0.621678293 3.42379352e-08 -0.783272684
vn 0.99522543 4.26634017e-09 -0.0976024866
vn 0.153199285 -4.31953886e-08 0.98819536
vn 0.832265615 2.42325946e-08 -0.554377079
vn -0.0668973029 0.997759819 4.36134684e-08
vn -0.0673022047 0.99773258 0.000100046876
vn -0.0672026351 0.997739196 0.000400059333
vn -0.0671031103 0.99774605 0.000200052848
vn -0.0671031028 0.99774605 -9.99609983e-05
vn -0.0671031103 0.99774605 -0.000199965623
vn -0.0669968575 0.997753203 -0.000199947011
vn -0.0668973029 0.997759819 -0.000199948321
vn -0.067600809 0.997711897 -0.000999968383
vn -0.0673021749 0.997732222 -0.000899985433
vn -0.0664990991 0.997786462 0.000100042249
vn -0.0672026202 0.997739017 -0.000799987582
vn -0.0667977557 0.997766376 0.000500026799
vn -0.0673022047 -0.99773258 9.99596596e-05
vn -0.0668973029 -0.997759819 -4.36134684e-08
vn -0.0672026351 -0.997739196 0.000399972079
vn -0.0671031103 -0.99774605 0.000199965623
vn -0.0673021749 -0.997732222 -0.000900072686
vn -0.0671031028 -0.99774605 -0.00010004823
vn -0.0671031103 -0.99774605 -0.000200052848
vn -0.0667977557 -0.997766376 0.000499939604
vn -0.0669968575 -0.997753203 -0.000200034221
vn -0.0672026202 -0.997739017 -0.000800074777
vn -0.0668973029 -0.997759819 -0.000200035545
vn -0.0664990991 -0.997786462 9.99550248e-05
vn -0.067600809 -0.997711897 -0.00100005569
vn 0.912362516 -1.78947062e-08 0.409383148
vn 0.750109136 0.583407164 -0.311403781
vn 0.309896916 0.81989181 0.481395274
vn 0.454319715 3.89397954e-08 -0.890838683
vn 0.750109076 -0.583407104 -0.311403811
vn 0.309896916 -0.81989181 0.481395185
vn 0.733302593 2.97194784e-08 -0.679902434
vn -0.391017675 0.727232814 -0.564125419
vn 0.465503663 0.772506118 -0.431903362
vn -0.569792211 3.59215271e-08 -0.821788788
vn -0.391017646 -0.727232814 -0.564125478
vn 0.465503693 -0.772506058 -0.431903452
vn 0.466213495 -0.868125141 0.17030488
vn 0.939331174 -1.49935051e-08 0.343011379
vn 0.820601344 -2.49810999e-08 0.571500957
vn 0.378985882 -0.867467642 0.322287887
vn -0.408092916 -0.867184937 -0.285395056
vn -0.46652922 -0.867954314 -0.170310706
vn 0.696579814 -3.13620099e-08 0.717479229
vn 0.348198503 -0.865996301 0.358898461
vn -0.348701119 -0.865002871 -0.36080122
vn -0.760377705 2.83897172e-08 -0.649481058
vn -0.939298987 1.49973616e-08 -0.343099654
vn -0.466529191 0.867954314 -0.170310616
vn 0.466213495 0.868125141 0.170304984
vn -0.69480145 3.1437299e-08 -0.719201565
vn -0.348701119 0.865002871 -0.36080116
vn -0.408092916 0.867184937 -0.285394996
vn 0.378985882 0.867467642 0.322287977
vn 0.348198503 0.865996301 0.358898491
vn -0.0968998 0.866998255 -0.488798976
vn 0.0969034657 0.866930962 0.48891753
vn 0.194500476 -4.28766072e-08 0.980902374
vn -0.194404274 4.28774456e-08 -0.980921566
vn -0.375593662 4.05110292e-08 -0.926784396
vn -0.262300164 0.803900421 -0.533800244
vn 0.160505712 0.90463233 0.394814104
vn 0.442005962 -3.92096453e-08 0.897012055
vn 0.160505712 -0.90463233 0.394814074
vn 0.0969034731 -0.866931081 0.4889175
vn -0.0968997926 -0.866998196 -0.488798976
vn -0.503808856 3.77585607e-08 -0.863815129
vn -0.164898068 0.944988966 -0.282496661
vn 0.331314117 0.754432142 0.566624224
vn 0.504772305 -3.77339688e-08 0.863252521
vn 0.331314147 -0.754432261 0.566624105
vn -0.164898098 -0.944989026 -0.28249675
vn -0.262300134 -0.803900361 -0.533800304

# Mesh 'PipelineFBX' with 156 faces
g PipelineFBX
usemtl DefaultMaterial
f  1/1/1 2/2/1 3/3/1
f  4/2/1 5/1/1 6/4/1
f  7/5/2 8/6/2 9/7/2
f  10/6/2 11/5/2 12/8/2
f  13/9/3 14/10/4 15/11/3
f  16/10/4 17/9/3 18/12/4
f  19/13/5 20/14/5 21/15/5
f  22/16/5 23/13/5 24/15/5
f  25/17/5 26/16/5 27/15/5
f  28/15/5 29/18/5 30/17/5
f  31/19/5 32/18/5 33/15/5
f  34/18/5 35/19/5 36/20/5
f  37/21/6 38/22/6 39/23/6
f  40/22/6 41/21/6 42/24/6
f  43/25/7 44/26/7 45/27/7
f  46/26/7 47/25/7 48/28/7
f  49/4/8 50/29/8 51/2/8
f  52/29/8 53/4/8 54/30/8
f  55/31/9 56/32/10 57/33/11
f  58/32/10 59/31/9 60/34/9
f  61/35/12 62/36/13 63/37/12
f  64/36/13 65/35/12 66/38/13
f  67/39/4 68/40/13 69/41/13
f  70/40/13 71/39/4 72/42/4
f  73/16/14 74/17/14 75/18/14
f  76/18/14 77/15/14 78/16/14
f  79/15/14 80/13/14 81/16/14
f  82/15/14 83/14/14 84/13/14
f  85/18/14 86/19/14 87/15/14
f  88/19/14 89/18/14 90/20/14
f  91/43/15 92/44/15 93/45/15
f  94/44/15 95/43/15 96/46/15
f  97/47/16 98/48/3 99/49/3
f  100/48/3 101/47/16 102/50/17
f  103/51/18 104/52/19 105/53/19
f  106/52/19 107/51/18 108/54/18
f  109/55/19 110/31/9 111/56/19
f  112/31/9 113/55/19 114/34/9
f  115/23/20 116/57/20 117/21/20
f  118/57/20 119/23/20 120/58/20
f  121/59/21 122/28/21 123/60/21
f  124/28/21 125/59/21 126/26/21
f  127/35/22 128/61/22 129/62/22
f  130/61/22 131/35/22 132/37/22
f  133/51/18 134/3/23 135/54/18
f  136/3/23 137/51/18 138/1/23
f  139/63/24 140/64/24 141/65/24
f  142/64/24 143/63/24 144/66/24
f  145/67/11 146/68/17 147/69/16
f  148/68/17 149/67/11 150/70/10
f  151/24/25 152/71/25 153/22/25
f  154/71/25 155/24/25 156/72/25
f  157/73/26 158/74/27 159/75/28
f  160/75/28 161/74/27 162/76/29
f  163/75/28 164/76/29 165/77/30
f  166/76/29 167/78/31 168/77/30
f  169/78/31 170/79/32 171/77/30
f  172/79/32 173/80/31 174/77/30
f  175/81/33 176/80/31 177/79/32
f  178/82/34 179/80/31 180/81/33
f  181/83/35 182/76/29 183/74/27
f  184/84/36 185/81/33 186/79/32
f  187/85/37 188/79/32 189/78/31
f  190/86/38 191/78/31 192/76/29
f  193/74/39 194/73/40 195/75/41
f  196/74/39 197/75/41 198/76/42
f  199/76/42 200/83/43 201/74/39
f  202/76/42 203/75/41 204/77/44
f  205/78/45 206/76/42 207/77/44
f  208/78/45 209/86/46 210/76/42
f  211/79/47 212/78/45 213/77/44
f  214/79/47 215/85/48 216/78/45
f  217/80/45 218/79/47 219/77/44
f  220/80/45 221/81/49 222/79/47
f  223/81/49 224/84/50 225/79/47
f  226/80/45 227/82/51 228/81/49
f  229/87/52 230/88/53 231/89/54
f  232/88/53 233/87/52 234/90/55
f  235/87/52 236/91/56 237/90/55
f  238/91/56 239/87/52 240/92/57
f  241/93/58 242/94/59 243/95/60
f  244/94/59 245/93/58 246/96/61
f  247/93/58 248/97/62 249/96/61
f  250/97/62 251/93/58 252/98/63
f  253/99/58 254/100/64 255/101/63
f  256/100/64 257/99/58 258/102/65
f  259/103/66 260/100/64 261/102/65
f  262/100/64 263/103/66 264/104/67
f  265/105/68 266/100/64 267/104/67
f  268/100/64 269/105/68 270/106/69
f  271/107/62 272/100/64 273/106/69
f  274/100/64 275/107/62 276/101/63
f  277/108/70 278/104/67 279/103/66
f  280/104/67 281/108/70 282/109/71
f  283/110/72 284/104/67 285/109/71
f  286/104/67 287/110/72 288/105/68
f  289/110/72 290/111/73 291/105/68
f  292/112/74 293/105/68 294/111/73
f  295/105/68 296/112/74 297/106/69
f  298/112/74 299/107/62 300/106/69
f  301/107/62 302/112/74 303/113/61
f  304/112/74 305/114/59 306/113/61
f  307/114/59 308/112/74 309/115/75
f  310/116/76 311/114/59 312/115/75
f  313/114/59 314/116/76 315/117/60
f  316/111/73 317/110/72 318/118/77
f  319/119/78 320/111/73 321/118/77
f  322/111/73 323/119/78 324/120/79
f  325/120/79 326/112/74 327/111/73
f  328/112/74 329/120/79 330/115/75
f  331/120/79 332/116/76 333/115/75
f  334/116/76 335/120/79 336/121/80
f  337/122/66 338/116/76 339/121/80
f  340/116/76 341/122/66 342/123/65
f  343/124/58 344/116/76 345/123/65
f  346/116/76 347/124/58 348/117/60
f  349/119/78 350/121/80 351/120/79
f  352/121/80 353/119/78 354/125/81
f  355/126/70 356/121/80 357/125/81
f  358/121/80 359/126/70 360/122/66
f  361/127/82 362/128/54 363/129/53
f  364/128/54 365/127/82 366/130/83
f  367/131/84 368/128/54 369/130/83
f  370/128/54 371/131/84 372/132/52
f  373/131/84 374/133/57 375/132/52
f  376/134/55 377/127/82 378/129/53
f  379/127/82 380/134/55 381/135/85
f  382/136/86 383/127/82 384/135/85
f  385/127/82 386/136/86 387/137/87
f  388/138/88 389/127/82 390/137/87
f  391/127/82 392/138/88 393/130/83
f  394/138/88 395/131/84 396/130/83
f  397/131/84 398/138/88 399/139/89
f  400/140/90 401/131/84 402/139/89
f  403/131/84 404/140/90 405/141/91
f  406/133/57 407/131/84 408/141/91
f  409/142/92 410/133/57 411/141/91
f  412/133/57 413/142/92 414/143/56
f  415/144/93 416/137/87 417/136/86
f  418/137/87 419/144/93 420/145/94
f  421/145/94 422/138/88 423/137/87
f  424/138/88 425/145/94 426/146/95
f  427/146/95 428/139/89 429/138/88
f  430/139/89 431/146/95 432/147/96
f  433/148/97 434/139/89 435/147/96
f  436/139/89 437/148/97 438/140/90
f  439/149/98 440/140/90 441/148/97
f  442/140/90 443/149/98 444/150/99
f  445/142/92 446/140/90 447/150/99
f  448/140/90 449/142/92 450/141/91
f  451/151/93 452/150/99 453/149/98
f  454/150/99 455/151/93 456/152/86
f  457/152/86 458/142/92 459/150/99
f  460/142/92 461/152/86 462/153/85
f  463/154/55 464/142/92 465/153/85
f  466/142/92 467/154/55 468/143/56

