# File produced by Open Asset Import Library (http://www.assimp.sf.net)
# (assimp v6.0.0)

mtllib spacejunk7.mtl

# 360 vertex positions
v 41.5900002 1.38000131 -29.1700001
v 41.5900002 -1.38000035 9.43000031
v 41.5900002 -1.37999868 -29.1700001
v 41.5900002 -1.38000035 9.43000031
v 41.5900002 1.38000131 -29.1700001
v 41.5900002 1.37999964 9.43000031
v 41.5900002 1.37999964 9.43000031
v 50.4700012 -1.38000095 21.6399994
v 41.5900002 -1.38000035 9.43000031
v 50.4700012 -1.38000095 21.6399994
v 41.5900002 1.37999964 9.43000031
v 50.4700012 1.37999904 21.6399994
v 50.4700012 1.37999904 21.6399994
v 50.4700012 -1.3800019 41.8199997
v 50.4700012 -1.38000095 21.6399994
v 50.4700012 -1.3800019 41.8199997
v 50.4700012 1.37999904 21.6399994
v 50.4700012 1.37999809 41.8199997
v 24.75 -1.37999845 -36.5900002
v 24.3400002 1.38000131 -30.8699989
v 24.3400002 -1.37999868 -30.8699989
v 24.3400002 1.38000131 -30.8699989
v 24.75 -1.37999845 -36.5900002
v 24.75 1.38000154 -36.5900002
v 28.9400005 -1.37999809 -41.8199997
v 24.75 1.38000154 -36.5900002
v 24.75 -1.37999845 -36.5900002
v 24.75 1.38000154 -36.5900002
v 28.9400005 -1.37999809 -41.8199997
v 28.9400005 1.3800019 -41.8199997
v -42.8499985 -1.38000143 31.2400017
v -47.8800011 1.37999856 31.6399994
v -47.8800011 -1.38000143 31.6399994
v -47.8800011 1.37999856 31.6399994
v -42.8499985 -1.38000143 31.2400017
v -42.8499985 1.37999856 31.2400017
v -40.3699989 -1.38000143 33.9799995
v -42.8499985 1.37999856 31.2400017
v -42.8499985 -1.38000143 31.2400017
v -42.8499985 1.37999856 31.2400017
v -40.3699989 -1.38000143 33.9799995
v -40.3699989 1.37999845 33.9799995
v -35.2200012 -1.38000143 31.4599991
v -40.3699989 1.37999845 33.9799995
v -40.3699989 -1.38000143 33.9799995
v -40.3699989 1.37999845 33.9799995
v -35.2200012 -1.38000143 31.4599991
v -35.2200012 1.37999856 31.4599991
v -28.8600006 -1.3799988 -28.5
v -50.4700012 1.38000119 -28.5
v -28.8600006 1.38000119 -28.5
v -50.4700012 1.38000119 -28.5
v -28.8600006 -1.3799988 -28.5
v -50.4700012 -1.3799988 -28.5
v -24.4200001 1.3800019 -41.8199997
v 24.75 1.38000154 -36.5900002
v 28.9400005 1.3800019 -41.8199997
v 24.75 1.38000154 -36.5900002
v -24.4200001 1.3800019 -41.8199997
v -24.4200001 1.38000143 -32.7400017
v 24.75 1.38000154 -36.5900002
v -24.4200001 1.38000143 -32.7400017
v 24.3400002 1.38000131 -30.8699989
v -24.4200001 1.38000143 -32.7400017
v 24.5299988 1.38000119 -28.3699989
v 24.3400002 1.38000131 -30.8699989
v 24.3400002 1.38000131 -30.8699989
v 24.5299988 1.38000119 -28.3699989
v 27.1299992 1.38000143 -31.5400009
v -24.4200001 1.38000143 -32.7400017
v 25.4500008 1.38000107 -24.7999992
v 24.5299988 1.38000119 -28.3699989
v 26.6499996 1.38000119 -26.6700001
v 24.5299988 1.38000119 -28.3699989
v 25.4500008 1.38000107 -24.7999992
v 25.4500008 1.38000107 -24.7999992
v -24.4200001 1.38000143 -32.7400017
v -28.8600006 1.38000119 -28.5
v 25.4500008 1.38000107 -24.7999992
v -28.8600006 1.38000119 -28.5
v 25.6900005 1.38000107 -23.3199997
v -40.4799995 1.37999952 10.54
v 25.6900005 1.38000107 -23.3199997
v -28.8600006 1.38000119 -28.5
v 25.6900005 1.38000107 -23.3199997
v -40.4799995 1.37999952 10.54
v 41.5900002 1.37999964 9.43000031
v 25.6900005 1.38000107 -23.3199997
v 41.5900002 1.37999964 9.43000031
v 34.6899986 1.38000107 -23.8700008
v 30.75 1.38000107 -25.5800018
v 25.6900005 1.38000107 -23.3199997
v 34.6899986 1.38000107 -23.8700008
v -50.4700012 1.38000011 -1.65999997
v -40.4799995 1.37999952 10.54
v -28.8600006 1.38000119 -28.5
v -50.4700012 1.38000119 -28.5
v -50.4700012 1.38000011 -1.65999997
v -28.8600006 1.38000119 -28.5
v 41.5900002 1.38000131 -29.1700001
v 34.6899986 1.38000107 -23.8700008
v 41.5900002 1.37999964 9.43000031
v -40.4799995 1.37999904 21.289999
v 41.5900002 1.37999964 9.43000031
v -40.4799995 1.37999952 10.54
v 41.5900002 1.37999964 9.43000031
v -40.4799995 1.37999904 21.289999
v 50.4700012 1.37999904 21.6399994
v -26.3799992 1.37999833 38.25
v 50.4700012 1.37999904 21.6399994
v -40.4799995 1.37999904 21.289999
v -26.3799992 1.37999833 38.25
v 50.4700012 1.37999809 41.8199997
v 50.4700012 1.37999904 21.6399994
v -28.8999996 1.37999809 41.8199997
v 50.4700012 1.37999809 41.8199997
v -26.3799992 1.37999833 38.25
v -40.4799995 1.37999904 21.289999
v -30.8999977 1.37999845 33.6499977
v -26.3799992 1.37999833 38.25
v -40.4799995 1.37999904 21.289999
v -35.2200012 1.37999856 31.4599991
v -30.8999977 1.37999845 33.6499977
v -34.6100006 1.37999845 33.5900002
v -30.8999977 1.37999845 33.6499977
v -35.2200012 1.37999856 31.4599991
v -42.8499985 1.37999856 31.2400017
v -35.2200012 1.37999856 31.4599991
v -40.4799995 1.37999904 21.289999
v -40.3699989 1.37999845 33.9799995
v -35.2200012 1.37999856 31.4599991
v -42.8499985 1.37999856 31.2400017
v -48.25 1.37999892 25.6599998
v -42.8499985 1.37999856 31.2400017
v -40.4799995 1.37999904 21.289999
v -48.25 1.37999868 29.1700001
v -42.8499985 1.37999856 31.2400017
v -48.25 1.37999892 25.6599998
v -47.8800011 1.37999856 31.6399994
v -42.8499985 1.37999856 31.2400017
v -48.25 1.37999868 29.1700001
v 24.5299988 1.38000119 -28.3699989
v 27.1299992 -1.37999856 -31.5400009
v 27.1299992 1.38000143 -31.5400009
v 27.1299992 -1.37999856 -31.5400009
v 24.5299988 1.38000119 -28.3699989
v 24.5299988 -1.3799988 -28.3699989
v 50.4700012 -1.3800019 41.8199997
v -28.8999996 1.37999809 41.8199997
v -28.8999996 -1.3800019 41.8199997
v -28.8999996 1.37999809 41.8199997
v 50.4700012 -1.3800019 41.8199997
v 50.4700012 1.37999809 41.8199997
v -26.3799992 1.37999833 38.25
v -28.8999996 -1.3800019 41.8199997
v -28.8999996 1.37999809 41.8199997
v -28.8999996 -1.3800019 41.8199997
v -26.3799992 1.37999833 38.25
v -26.3799992 -1.38000166 38.25
v -30.8999977 1.37999845 33.6499977
v -26.3799992 -1.38000166 38.25
v -26.3799992 1.37999833 38.25
v -26.3799992 -1.38000166 38.25
v -30.8999977 1.37999845 33.6499977
v -30.8999977 -1.38000143 33.6499977
v -34.6100006 1.37999845 33.5900002
v -30.8999977 -1.38000143 33.6499977
v -30.8999977 1.37999845 33.6499977
v -30.8999977 -1.38000143 33.6499977
v -34.6100006 1.37999845 33.5900002
v -34.6100006 -1.38000143 33.5900002
v -35.2200012 1.37999856 31.4599991
v -34.6100006 -1.38000143 33.5900002
v -34.6100006 1.37999845 33.5900002
v -34.6100006 -1.38000143 33.5900002
v -35.2200012 1.37999856 31.4599991
v -35.2200012 -1.38000143 31.4599991
v -28.8600006 1.38000119 -28.5
v -24.4200001 -1.37999856 -32.7400017
v -28.8600006 -1.3799988 -28.5
v -24.4200001 -1.37999856 -32.7400017
v -28.8600006 1.38000119 -28.5
v -24.4200001 1.38000143 -32.7400017
v -24.4200001 1.3800019 -41.8199997
v -24.4200001 -1.37999856 -32.7400017
v -24.4200001 1.38000143 -32.7400017
v -24.4200001 -1.37999856 -32.7400017
v -24.4200001 1.3800019 -41.8199997
v -24.4200001 -1.37999809 -41.8199997
v 25.4500008 -1.37999892 -24.7999992
v 25.6900005 1.38000107 -23.3199997
v 25.6900005 -1.37999892 -23.3199997
v 25.6900005 1.38000107 -23.3199997
v 25.4500008 -1.37999892 -24.7999992
v 25.4500008 1.38000107 -24.7999992
v 26.6499996 -1.3799988 -26.6700001
v 25.4500008 1.38000107 -24.7999992
v 25.4500008 -1.37999892 -24.7999992
v 25.4500008 1.38000107 -24.7999992
v 26.6499996 -1.3799988 -26.6700001
v 26.6499996 1.38000119 -26.6700001
v 26.6499996 -1.3799988 -26.6700001
v 24.5299988 1.38000119 -28.3699989
v 26.6499996 1.38000119 -26.6700001
v 24.5299988 1.38000119 -28.3699989
v 26.6499996 -1.3799988 -26.6700001
v 24.5299988 -1.3799988 -28.3699989
v 27.1299992 -1.37999856 -31.5400009
v 24.3400002 1.38000131 -30.8699989
v 27.1299992 1.38000143 -31.5400009
v 24.3400002 1.38000131 -30.8699989
v 27.1299992 -1.37999856 -31.5400009
v 24.3400002 -1.37999868 -30.8699989
v 34.6899986 -1.37999892 -23.8700008
v 41.5900002 1.38000131 -29.1700001
v 41.5900002 -1.37999868 -29.1700001
v 41.5900002 1.38000131 -29.1700001
v 34.6899986 -1.37999892 -23.8700008
v 34.6899986 1.38000107 -23.8700008
v 30.75 -1.37999892 -25.5800018
v 34.6899986 1.38000107 -23.8700008
v 34.6899986 -1.37999892 -23.8700008
v 34.6899986 1.38000107 -23.8700008
v 30.75 -1.37999892 -25.5800018
v 30.75 1.38000107 -25.5800018
v 25.6900005 -1.37999892 -23.3199997
v 30.75 1.38000107 -25.5800018
v 30.75 -1.37999892 -25.5800018
v 30.75 1.38000107 -25.5800018
v 25.6900005 -1.37999892 -23.3199997
v 25.6900005 1.38000107 -23.3199997
v -48.25 1.37999868 29.1700001
v -47.8800011 -1.38000143 31.6399994
v -47.8800011 1.37999856 31.6399994
v -47.8800011 -1.38000143 31.6399994
v -48.25 1.37999868 29.1700001
v -48.25 -1.38000131 29.1700001
v -48.25 1.37999892 25.6599998
v -48.25 -1.38000131 29.1700001
v -48.25 1.37999868 29.1700001
v -48.25 -1.38000131 29.1700001
v -48.25 1.37999892 25.6599998
v -48.25 -1.38000107 25.6599998
v -48.25 1.37999892 25.6599998
v -40.4799995 -1.38000095 21.289999
v -48.25 -1.38000107 25.6599998
v -40.4799995 -1.38000095 21.289999
v -48.25 1.37999892 25.6599998
v -40.4799995 1.37999904 21.289999
v -40.4799995 1.37999904 21.289999
v -40.4799995 -1.38000047 10.54
v -40.4799995 -1.38000095 21.289999
v -40.4799995 -1.38000047 10.54
v -40.4799995 1.37999904 21.289999
v -40.4799995 1.37999952 10.54
v -40.4799995 1.37999952 10.54
v -50.4700012 -1.37999988 -1.65999997
v -40.4799995 -1.38000047 10.54
v -50.4700012 -1.37999988 -1.65999997
v -40.4799995 1.37999952 10.54
v -50.4700012 1.38000011 -1.65999997
v -50.4700012 1.38000119 -28.5
v -50.4700012 -1.37999988 -1.65999997
v -50.4700012 1.38000011 -1.65999997
v -50.4700012 -1.37999988 -1.65999997
v -50.4700012 1.38000119 -28.5
v -50.4700012 -1.3799988 -28.5
v 24.75 -1.37999845 -36.5900002
v -24.4200001 -1.37999809 -41.8199997
v 28.9400005 -1.37999809 -41.8199997
v -24.4200001 -1.37999809 -41.8199997
v 24.75 -1.37999845 -36.5900002
v -24.4200001 -1.37999856 -32.7400017
v -24.4200001 -1.37999856 -32.7400017
v 24.75 -1.37999845 -36.5900002
v 24.3400002 -1.37999868 -30.8699989
v 24.5299988 -1.3799988 -28.3699989
v -24.4200001 -1.37999856 -32.7400017
v 24.3400002 -1.37999868 -30.8699989
v 25.4500008 -1.37999892 -24.7999992
v -24.4200001 -1.37999856 -32.7400017
v 24.5299988 -1.3799988 -28.3699989
v -24.4200001 -1.37999856 -32.7400017
v 25.4500008 -1.37999892 -24.7999992
v -28.8600006 -1.3799988 -28.5
v -28.8600006 -1.3799988 -28.5
v 25.4500008 -1.37999892 -24.7999992
v 25.6900005 -1.37999892 -23.3199997
v 25.6900005 -1.37999892 -23.3199997
v -40.4799995 -1.38000047 10.54
v -28.8600006 -1.3799988 -28.5
v -40.4799995 -1.38000047 10.54
v -50.4700012 -1.37999988 -1.65999997
v -28.8600006 -1.3799988 -28.5
v -50.4700012 -1.37999988 -1.65999997
v -50.4700012 -1.3799988 -28.5
v -28.8600006 -1.3799988 -28.5
v 24.5299988 -1.3799988 -28.3699989
v 24.3400002 -1.37999868 -30.8699989
v 27.1299992 -1.37999856 -31.5400009
v 24.5299988 -1.3799988 -28.3699989
v 26.6499996 -1.3799988 -26.6700001
v 25.4500008 -1.37999892 -24.7999992
v -24.4200001 -1.37999809 -41.8199997
v 28.9400005 1.3800019 -41.8199997
v 28.9400005 -1.37999809 -41.8199997
v 28.9400005 1.3800019 -41.8199997
v -24.4200001 -1.37999809 -41.8199997
v -24.4200001 1.3800019 -41.8199997
v 50.4700012 -1.3800019 41.8199997
v -28.8999996 -1.3800019 41.8199997
v -26.3799992 -1.38000166 38.25
v 50.4700012 -1.3800019 41.8199997
v -26.3799992 -1.38000166 38.25
v 50.4700012 -1.38000095 21.6399994
v -40.4799995 -1.38000095 21.289999
v 50.4700012 -1.38000095 21.6399994
v -26.3799992 -1.38000166 38.25
v -40.4799995 -1.38000095 21.289999
v 41.5900002 -1.38000035 9.43000031
v 50.4700012 -1.38000095 21.6399994
v 41.5900002 -1.38000035 9.43000031
v -40.4799995 -1.38000095 21.289999
v -40.4799995 -1.38000047 10.54
v -40.4799995 -1.38000047 10.54
v 25.6900005 -1.37999892 -23.3199997
v 41.5900002 -1.38000035 9.43000031
v 41.5900002 -1.38000035 9.43000031
v 25.6900005 -1.37999892 -23.3199997
v 34.6899986 -1.37999892 -23.8700008
v 34.6899986 -1.37999892 -23.8700008
v 41.5900002 -1.37999868 -29.1700001
v 41.5900002 -1.38000035 9.43000031
v -26.3799992 -1.38000166 38.25
v -30.8999977 -1.38000143 33.6499977
v -40.4799995 -1.38000095 21.289999
v -30.8999977 -1.38000143 33.6499977
v -35.2200012 -1.38000143 31.4599991
v -40.4799995 -1.38000095 21.289999
v -35.2200012 -1.38000143 31.4599991
v -42.8499985 -1.38000143 31.2400017
v -40.4799995 -1.38000095 21.289999
v -42.8499985 -1.38000143 31.2400017
v -48.25 -1.38000107 25.6599998
v -40.4799995 -1.38000095 21.289999
v -42.8499985 -1.38000143 31.2400017
v -48.25 -1.38000131 29.1700001
v -48.25 -1.38000107 25.6599998
v -42.8499985 -1.38000143 31.2400017
v -47.8800011 -1.38000143 31.6399994
v -48.25 -1.38000131 29.1700001
v -30.8999977 -1.38000143 33.6499977
v -34.6100006 -1.38000143 33.5900002
v -35.2200012 -1.38000143 31.4599991
v -35.2200012 -1.38000143 31.4599991
v -40.3699989 -1.38000143 33.9799995
v -42.8499985 -1.38000143 31.2400017
v 25.6900005 -1.37999892 -23.3199997
v 30.75 -1.37999892 -25.5800018
v 34.6899986 -1.37999892 -23.8700008

# 105 UV coordinates
vt 0.51700002 0.315299988 0
vt 0.5255 0.195800006 0
vt 0.5255 0.315299988 0
vt 0.51700002 0.195800006 0
vt 0.5255 0.149100006 0
vt 0.51700002 0.149100006 0
vt 0.5255 0.0865999982 0
vt 0.51700002 0.0865999982 0
vt 0.261299998 0.058699999 0
vt 0.279000014 0.0502000004 0
vt 0.279000014 0.0588000007 0
vt 0.261299998 0.0502000004 0
vt 0.240500003 0.058699999 0
vt 0.240500003 0.0502000004 0
vt 0.250200003 0.0296999998 0
vt 0.234500006 0.0381999984 0
vt 0.234500006 0.0296999998 0
vt 0.250200003 0.0381999984 0
vt 0.261599988 0.0296999998 0
vt 0.261599988 0.0381999984 0
vt 0.279399991 0.0296999998 0
vt 0.279399991 0.0381999984 0
vt 0.537299991 0.312599987 0
vt 0.545799971 0.245700002 0
vt 0.545799971 0.312599987 0
vt 0.537299991 0.245700002 0
vt 0.228799999 0.273499995 0
vt 0.245000005 0.121299997 0
vt 0.228799999 0.1083 0
vt 0.256900012 0.273499995 0
vt 0.262699991 0.122500002 0
vt 0.270399988 0.1219 0
vt 0.260600001 0.113899998 0
vt 0.281500012 0.119099997 0
vt 0.275700003 0.115400001 0
vt 0.270000011 0.287200004 0
vt 0.286000013 0.118299998 0
vt 0.390899986 0.323199987 0
vt 0.387400001 0.0691 0
vt 0.284399986 0.0904999971 0
vt 0.279100001 0.102700002 0
vt 0.353100002 0.354099989 0
vt 0.270000011 0.354099989 0
vt 0.268000007 0.0691 0
vt 0.424199998 0.323199987 0
vt 0.425199986 0.0417000018 0
vt 0.476599991 0.279500008 0
vt 0.487699986 0.0417000018 0
vt 0.487699986 0.287299991 0
vt 0.462399989 0.293500006 0
vt 0.455599993 0.306899995 0
vt 0.462199986 0.305000007 0
vt 0.454899997 0.330500007 0
vt 0.463400006 0.32280001 0
vt 0.437700003 0.347200006 0
vt 0.448500007 0.347200006 0
vt 0.456200004 0.346100003 0
vt 0.300599992 0.0502999984 0
vt 0.287900001 0.0588000007 0
vt 0.287900001 0.0502000004 0
vt 0.300599992 0.0588000007 0
vt 0.506699979 0.310699999 0
vt 0.498199999 0.0649999976 0
vt 0.506699979 0.0649999976 0
vt 0.498199999 0.310699999 0
vt 0.317699999 0.0381999984 0
vt 0.331200004 0.0296999998 0
vt 0.331200004 0.0381999984 0
vt 0.317699999 0.0296999998 0
vt 0.297699988 0.0381999984 0
vt 0.297699988 0.0296999998 0
vt 0.286199987 0.0381999984 0
vt 0.286199987 0.0296999998 0
vt 0.559000015 0.0284000002 0
vt 0.540000021 0.0198999997 0
vt 0.559000015 0.0197999999 0
vt 0.540000021 0.0284000002 0
vt 0.511900008 0.0284000002 0
vt 0.511900008 0.0198999997 0
vt 0.315899998 0.0588000007 0
vt 0.320499986 0.0502999984 0
vt 0.320499986 0.0588000007 0
vt 0.315899998 0.0502999984 0
vt 0.308999985 0.0588000007 0
vt 0.308999985 0.0502999984 0
vt 0.350899994 0.058699999 0
vt 0.377799988 0.0502000004 0
vt 0.377799988 0.058699999 0
vt 0.350899994 0.0502000004 0
vt 0.337599993 0.058699999 0
vt 0.337599993 0.0502000004 0
vt 0.545799971 0.0419999994 0
vt 0.537299991 0.0342999995 0
vt 0.545799971 0.0342999995 0
vt 0.537299991 0.0419999994 0
vt 0.545799971 0.0529000014 0
vt 0.537299991 0.0529000014 0
vt 0.537299991 0.0804999992 0
vt 0.545799971 0.0804999992 0
vt 0.537299991 0.113799997 0
vt 0.545799971 0.113799997 0
vt 0.537299991 0.162599996 0
vt 0.545799971 0.162599996 0
vt 0.346799999 0.0284000002 0
vt 0.346799999 0.0197999999 0

# 62 vertex normals
vn 0.384784758 0.492280573 -0.78076911
vn 0.487205535 -0.867309868 -0.102001198
vn 0.292801857 -0.749204695 -0.594103813
vn 0.454004049 0.867307723 -0.204101771
vn 0.630501091 -0.722601235 -0.283400506
vn 0.676594198 0.722593844 -0.141698763
vn 0.577350259 -0.577350259 0.577350259
vn 0.408214927 0.81652993 0.408214986
vn 0.667415082 -0.721416295 0.184704125
vn 0.400100052 0.785700142 -0.471800029
vn 0.236898094 -0.930492461 -0.279397786
vn 0.6152156 0.721418262 0.317908108
vn 0.834420919 -0.534613431 0.133903325
vn 0.417214334 0.534618497 -0.73492527
vn -0.102294669 -0.877854288 0.46787557
vn -0.331406534 0.399107844 0.854916811
vn -0.757837534 -0.399119794 0.5161255
vn -0.246388197 0.877857864 0.410680354
vn -0.391315639 -0.375115037 0.8403337
vn 0.0516022593 0.375116348 0.925540388
vn -0.0183005519 -0.887826741 0.459813833
vn -0.329201967 0.887805283 0.321601927
vn -0.120402023 -0.871814609 -0.474808007
vn -0.666677713 0.333288878 -0.666677713
vn -0.240799099 0.871796787 -0.4265984
vn -0.577350259 -0.577350259 -0.577350259
vn -0.666677773 0.666677773 -0.333288848
vn -0.31731537 0.938545406 -0.135806546
vn 0.572103858 0.818005502 -0.0597003624
vn 0.455191255 0.843483806 -0.285194486
vn 0.545304298 0.816906393 0.187901512
vn 0.818888247 0.558091938 -0.133998036
vn 0.290996641 0.928889275 -0.229097307
vn -0.51898998 0.814884245 0.258095056
vn 0.0468993224 0.751389146 -0.658190429
vn -0.141497925 0.338995039 -0.930086315
vn -0.645613015 0.728014648 0.230604678
vn -0.332911789 0.935733199 -0.116504095
vn -0.503701866 0.858403146 -0.09710031
vn -0.425119042 0.520323217 0.74063313
vn -0.351480812 0.730860114 0.585068107
vn -0.371310979 0.373611033 0.850025177
vn -0.74692142 0.501214385 -0.436912477
vn -0.82734549 0.555630505 0.0823045447
vn 0.666499376 -0.617499471 -0.417699665
vn 0.329896539 -0.943390071 -0.0343996808
vn -0.850233912 -0.520320714 -0.079803206
vn -0.481486291 -0.85837543 0.177094907
vn -0.181597665 -0.730890572 0.657891452
vn -0.724428713 -0.373614848 0.579322994
vn -0.544776201 -0.805564761 -0.232989863
vn -0.333288878 -0.666677773 -0.666677773
vn 0.57507652 -0.816866577 0.0448981263
vn 0.0318994597 -0.928884268 -0.368993759
vn 0.935378432 -0.318792671 -0.153096482
vn -0.205408186 -0.751429975 -0.627025068
vn 0.131702751 -0.33900705 -0.931519508
vn -0.83041954 -0.555612981 0.0412009433
vn -0.564005911 -0.757007897 -0.329903454
vn -0.264714599 -0.935751617 -0.2330129
vn -0.56508112 -0.814872742 0.129095644
vn -0.831788778 -0.468893677 0.297095984

# Mesh 'PipelineFBX' with 120 faces
g PipelineFBX
usemtl DefaultMaterial
f  1/1/1 2/2/2 3/3/3
f  4/2/2 5/1/1 6/4/4
f  7/4/4 8/5/5 9/2/2
f  10/5/5 11/4/4 12/6/6
f  13/6/6 14/7/7 15/5/5
f  16/7/7 17/6/6 18/8/8
f  19/9/9 20/10/10 21/11/11
f  22/10/10 23/9/9 24/12/12
f  25/13/13 26/12/12 27/9/9
f  28/12/12 29/13/13 30/14/14
f  31/15/15 32/16/16 33/17/17
f  34/16/16 35/15/15 36/18/18
f  37/19/19 38/18/18 39/15/15
f  40/18/18 41/19/19 42/20/20
f  43/21/21 44/20/20 45/19/19
f  46/20/20 47/21/21 48/22/22
f  49/23/23 50/24/24 51/25/25
f  52/24/24 53/23/23 54/26/26
f  55/27/27 56/28/12 57/29/14
f  58/28/12 59/27/27 60/30/28
f  61/28/12 62/30/28 63/31/10
f  64/30/28 65/32/29 66/31/10
f  67/31/10 68/32/29 69/33/30
f  70/30/28 71/34/31 72/32/29
f  73/35/32 74/32/29 75/34/31
f  76/34/31 77/30/28 78/36/25
f  79/34/31 80/36/25 81/37/33
f  82/38/34 83/37/33 84/36/25
f  85/37/33 86/38/34 87/39/4
f  88/37/33 89/39/4 90/40/35
f  91/41/36 92/37/33 93/40/35
f  94/42/37 95/38/34 96/36/25
f  97/43/24 98/42/37 99/36/25
f  100/44/1 101/40/35 102/39/4
f  103/45/38 104/39/4 105/38/34
f  106/39/4 107/45/38 108/46/6
f  109/47/39 110/46/6 111/45/38
f  112/47/39 113/48/8 114/46/6
f  115/49/40 116/48/8 117/47/39
f  118/45/38 119/50/41 120/47/39
f  121/45/38 122/51/22 123/50/41
f  124/52/42 125/50/41 126/51/22
f  127/53/18 128/51/22 129/45/38
f  130/54/20 131/51/22 132/53/18
f  133/55/43 134/53/18 135/45/38
f  136/56/44 137/53/18 138/55/43
f  139/57/16 140/53/18 141/56/44
f  142/58/29 143/59/45 144/60/30
f  145/59/45 146/58/29 147/61/46
f  148/62/7 149/63/40 150/64/47
f  151/63/40 152/62/7 153/65/8
f  154/66/39 155/67/47 156/68/40
f  157/67/47 158/66/39 159/69/48
f  160/70/41 161/69/48 162/66/39
f  163/69/48 164/70/41 165/71/49
f  166/72/42 167/71/49 168/70/41
f  169/71/49 170/72/42 171/73/50
f  172/22/22 173/73/50 174/72/42
f  175/73/50 176/22/22 177/21/21
f  178/74/25 179/75/51 180/76/23
f  181/75/51 182/74/25 183/77/28
f  184/78/27 185/75/51 186/77/28
f  187/75/51 188/78/27 189/79/52
f  190/80/53 191/81/33 192/82/54
f  193/81/33 194/80/53 195/83/31
f  196/84/55 197/83/31 198/80/53
f  199/83/31 200/84/55 201/85/32
f  202/84/55 203/58/29 204/85/32
f  205/58/29 206/84/55 207/61/46
f  208/59/45 209/10/10 210/60/30
f  211/10/10 212/59/45 213/11/11
f  214/86/56 215/87/1 216/88/3
f  217/87/1 218/86/56 219/89/35
f  220/90/57 221/89/35 222/86/56
f  223/89/35 224/90/57 225/91/36
f  226/82/54 227/91/36 228/90/57
f  229/91/36 230/82/54 231/81/33
f  232/92/44 233/93/17 234/94/16
f  235/93/17 236/92/44 237/95/58
f  238/96/43 239/95/58 240/92/44
f  241/95/58 242/96/43 243/97/59
f  244/96/43 245/98/60 246/97/59
f  247/98/60 248/96/43 249/99/38
f  250/99/38 251/100/61 252/98/60
f  253/100/61 254/99/38 255/101/34
f  256/101/34 257/102/62 258/100/61
f  259/102/62 260/101/34 261/103/37
f  262/24/24 263/102/62 264/103/37
f  265/102/62 266/24/24 267/26/26
f  268/28/9 269/27/52 270/29/13
f  271/27/52 272/28/9 273/30/51
f  274/30/51 275/28/9 276/31/11
f  277/32/46 278/30/51 279/31/11
f  280/34/53 281/30/51 282/32/46
f  283/30/51 284/34/53 285/36/23
f  286/36/23 287/34/53 288/37/54
f  289/37/54 290/38/61 291/36/23
f  292/38/61 293/42/62 294/36/23
f  295/42/62 296/43/26 297/36/23
f  298/32/46 299/31/11 300/33/45
f  301/32/46 302/35/55 303/34/53
f  304/79/52 305/104/14 306/105/13
f  307/104/14 308/79/52 309/78/27
f  310/48/7 311/49/47 312/47/48
f  313/48/7 314/47/48 315/46/5
f  316/45/60 317/46/5 318/47/48
f  319/45/60 320/39/2 321/46/5
f  322/39/2 323/45/60 324/38/61
f  325/38/61 326/37/54 327/39/2
f  328/39/2 329/37/54 330/40/56
f  331/40/56 332/44/3 333/39/2
f  334/47/48 335/50/49 336/45/60
f  337/50/49 338/51/21 339/45/60
f  340/51/21 341/53/15 342/45/60
f  343/53/15 344/55/59 345/45/60
f  346/53/15 347/56/58 348/55/59
f  349/53/15 350/57/17 351/56/58
f  352/50/49 353/52/50 354/51/21
f  355/51/21 356/54/19 357/53/15
f  358/37/54 359/41/57 360/40/56

