# File produced by Open Asset Import Library (http://www.assimp.sf.net)
# (assimp v6.0.0)

mtllib spacejunk11.mtl

# 582 vertex positions
v 13.5799999 7.3399992 20.0100002
v 13.5799999 12.6699982 28.7600002
v 13.5799999 7.33999825 28.7600002
v 13.5799999 12.6699982 28.7600002
v 13.5799999 7.3399992 20.0100002
v 13.5799999 12.6699982 20.0100002
v -5.20000029 1.73000133 -28.1300011
v -5.20000029 -1.72999871 -28.1300011
v -6.01000023 1.25495387e-06 -28.7099991
v -5.20000029 -1.72999871 -28.1300011
v -5.20000029 1.73000133 -28.1300011
v -3.57000017 1.73000121 -26.9800014
v -3.57000017 1.73000121 -26.9800014
v -3.57000017 -1.72999895 -26.9800014
v -5.20000029 -1.72999871 -28.1300011
v -3.57000017 -1.72999895 -26.9800014
v -3.57000017 1.73000121 -26.9800014
v -2.75 1.15398063e-06 -26.3999996
v 4.86000013 1.34150241e-06 -30.6899986
v 11.1800003 1.73000193 -42.9899979
v 10.3200006 1.90144544e-06 -43.5
v 11.1800003 1.73000193 -42.9899979
v 4.86000013 1.34150241e-06 -30.6899986
v 5.78999996 1.73000133 -30.3600006
v 5.78999996 1.73000133 -30.3600006
v 12.9099998 1.73000193 -41.9799995
v 11.1800003 1.73000193 -42.9899979
v 12.9099998 1.73000193 -41.9799995
v 5.78999996 1.73000133 -30.3600006
v 7.65999985 1.73000133 -29.6900005
v 7.65999985 1.73000133 -29.6900005
v 13.7700005 1.81271128e-06 -41.4700012
v 12.9099998 1.73000193 -41.9799995
v 13.7700005 1.81271128e-06 -41.4700012
v 7.65999985 1.73000133 -29.6900005
v 8.59000015 1.28336626e-06 -29.3599987
v 7.65999985 -1.72999871 -29.6900005
v 13.7700005 1.81271128e-06 -41.4700012
v 8.59000015 1.28336626e-06 -29.3599987
v 13.7700005 1.81271128e-06 -41.4700012
v 7.65999985 -1.72999871 -29.6900005
v 12.9099998 -1.72999823 -41.9799995
v 2.3499999 7.29105977e-07 -16.6800003
v 5.78999996 1.73000133 -30.3600006
v 4.86000013 1.34150241e-06 -30.6899986
v 5.78999996 1.73000133 -30.3600006
v 2.3499999 7.29105977e-07 -16.6800003
v 3.35000014 1.73000073 -16.5799999
v 5.33999968 1.73000073 -16.3800011
v 5.78999996 1.73000133 -30.3600006
v 3.35000014 1.73000073 -16.5799999
v 5.78999996 1.73000133 -30.3600006
v 5.33999968 1.73000073 -16.3800011
v 7.65999985 1.73000133 -29.6900005
v 5.33999968 1.73000073 -16.3800011
v 8.59000015 1.28336626e-06 -29.3599987
v 7.65999985 1.73000133 -29.6900005
v 8.59000015 1.28336626e-06 -29.3599987
v 5.33999968 1.73000073 -16.3800011
v 6.32999992 7.11621396e-07 -16.2800007
v 5.33999968 -1.7299993 -16.3800011
v 8.59000015 1.28336626e-06 -29.3599987
v 6.32999992 7.11621396e-07 -16.2800007
v 8.59000015 1.28336626e-06 -29.3599987
v 5.33999968 -1.7299993 -16.3800011
v 7.65999985 -1.72999871 -29.6900005
v 5.33999968 -1.7299993 -16.3800011
v 5.78999996 -1.72999871 -30.3600006
v 7.65999985 -1.72999871 -29.6900005
v 5.78999996 -1.72999871 -30.3600006
v 12.9099998 -1.72999823 -41.9799995
v 7.65999985 -1.72999871 -29.6900005
v 12.9099998 -1.72999823 -41.9799995
v 5.78999996 -1.72999871 -30.3600006
v 11.1800003 -1.72999823 -42.9899979
v 2.3499999 5.72619179e-08 -1.31000006
v 3.35000014 1.73000073 -16.5799999
v 2.3499999 7.29105977e-07 -16.6800003
v 3.35000014 1.73000073 -16.5799999
v 2.3499999 5.72619179e-08 -1.31000006
v 3.35000014 1.73000002 -1.39999998
v 5.33999968 1.73000002 -1.57999992
v 3.35000014 1.73000073 -16.5799999
v 3.35000014 1.73000002 -1.39999998
v 3.35000014 1.73000073 -16.5799999
v 5.33999968 1.73000002 -1.57999992
v 5.33999968 1.73000073 -16.3800011
v 5.33999968 1.73000002 -1.57999992
v 6.32999992 7.11621396e-07 -16.2800007
v 5.33999968 1.73000073 -16.3800011
v 6.32999992 7.11621396e-07 -16.2800007
v 5.33999968 1.73000002 -1.57999992
v 6.32999992 7.29980201e-08 -1.66999996
v 5.33999968 -1.73000002 -1.57999992
v 6.32999992 7.11621396e-07 -16.2800007
v 6.32999992 7.29980201e-08 -1.66999996
v 6.32999992 7.11621396e-07 -16.2800007
v 5.33999968 -1.73000002 -1.57999992
v 5.33999968 -1.7299993 -16.3800011
v 5.33999968 -1.73000002 -1.57999992
v 3.35000014 -1.7299993 -16.5799999
v 5.33999968 -1.7299993 -16.3800011
v 5.78999996 -1.72999871 -30.3600006
v 5.33999968 -1.7299993 -16.3800011
v 3.35000014 -1.7299993 -16.5799999
v 2.3499999 5.72619179e-08 -1.31000006
v 4.11999989 1.72999966 7.23000002
v 3.35000014 1.73000002 -1.39999998
v 6.0999999 1.72999966 6.92000008
v 3.35000014 1.73000002 -1.39999998
v 4.11999989 1.72999966 7.23000002
v 3.35000014 1.73000002 -1.39999998
v 6.0999999 1.72999966 6.92000008
v 5.33999968 1.73000002 -1.57999992
v 7.09000015 -2.95926071e-07 6.76999998
v 5.33999968 1.73000002 -1.57999992
v 6.0999999 1.72999966 6.92000008
v 5.33999968 1.73000002 -1.57999992
v 7.09000015 -2.95926071e-07 6.76999998
v 6.32999992 7.29980201e-08 -1.66999996
v 7.09000015 -2.95926071e-07 6.76999998
v 5.33999968 -1.73000002 -1.57999992
v 6.32999992 7.29980201e-08 -1.66999996
v 5.33999968 -1.73000002 -1.57999992
v 7.09000015 -2.95926071e-07 6.76999998
v 6.0999999 -1.73000038 6.92000008
v 6.0999999 -1.73000038 6.92000008
v 3.35000014 -1.73000002 -1.4000001
v 5.33999968 -1.73000002 -1.57999992
v 3.35000014 -1.7299993 -16.5799999
v 5.33999968 -1.73000002 -1.57999992
v 3.35000014 -1.73000002 -1.4000001
v 4.11999989 1.72999966 7.23000002
v 2.3499999 5.72619179e-08 -1.31000006
v 3.13000011 -3.2259004e-07 7.37999964
v 3.35000014 -1.73000002 -1.4000001
v 6.0999999 -1.73000038 6.92000008
v 4.11999989 -1.73000038 7.23000002
v 4.11999989 -1.73000038 7.23000002
v 2.3499999 5.72619179e-08 -1.31000006
v 3.35000014 -1.73000002 -1.4000001
v 2.3499999 5.72619179e-08 -1.31000006
v 3.35000014 -1.7299993 -16.5799999
v 3.35000014 -1.73000002 -1.4000001
v 3.35000014 -1.7299993 -16.5799999
v 2.3499999 5.72619179e-08 -1.31000006
v 2.3499999 7.29105977e-07 -16.6800003
v 2.3499999 7.29105977e-07 -16.6800003
v 5.78999996 -1.72999871 -30.3600006
v 3.35000014 -1.7299993 -16.5799999
v 5.78999996 -1.72999871 -30.3600006
v 2.3499999 7.29105977e-07 -16.6800003
v 4.86000013 1.34150241e-06 -30.6899986
v 4.86000013 1.34150241e-06 -30.6899986
v 11.1800003 -1.72999823 -42.9899979
v 5.78999996 -1.72999871 -30.3600006
v 11.1800003 -1.72999823 -42.9899979
v 4.86000013 1.34150241e-06 -30.6899986
v 10.3200006 1.90144544e-06 -43.5
v 2.3499999 5.72619179e-08 -1.31000006
v 4.11999989 -1.73000038 7.23000002
v 3.13000011 -3.2259004e-07 7.37999964
v 1.51999998 -12.670001 28.7600002
v 13.5799999 -12.670001 20.0100002
v 13.5799999 -12.670001 28.7600002
v 13.5799999 -12.670001 20.0100002
v 1.51999998 -12.670001 28.7600002
v 1.51999998 -12.670001 20.0100002
v 1.51999998 -9.54000092 20.0100002
v 13.5799999 -12.670001 20.0100002
v 1.51999998 -12.670001 20.0100002
v 13.5799999 -12.670001 20.0100002
v 1.51999998 -9.54000092 20.0100002
v 13.5799999 -7.34000063 20.0100002
v -7 -2.85000181 43.5
v 0.590000033 7.23999882 37
v -7 4.04999828 43.5
v 0.590000033 7.23999882 37
v -7 -2.85000181 43.5
v 0.590000033 -6.03000164 37
v 13.5799999 12.6699982 20.0100002
v 1.51999998 12.6699982 28.7600002
v 13.5799999 12.6699982 28.7600002
v 1.51999998 12.6699982 28.7600002
v 13.5799999 12.6699982 20.0100002
v 1.51999998 12.6699982 20.0100002
v 13.5799999 12.6699982 20.0100002
v 1.51999998 9.53999901 20.0100002
v 1.51999998 12.6699982 20.0100002
v 1.51999998 9.53999901 20.0100002
v 13.5799999 12.6699982 20.0100002
v 13.5799999 7.3399992 20.0100002
v 1.51999998 -12.670001 20.0100002
v 1.51999998 -9.54000092 28.7600002
v 1.51999998 -9.54000092 20.0100002
v 1.51999998 -9.54000092 28.7600002
v 1.51999998 -12.670001 20.0100002
v 1.51999998 -12.670001 28.7600002
v -13.9699993 -6.03000116 22.9499989
v -7 -2.85000181 43.5
v -20.2399998 -2.85000134 30.7099991
v -7 -2.85000181 43.5
v -13.9699993 -6.03000116 22.9499989
v 0.590000033 -6.03000164 37
v -7 4.04999828 43.5
v -13.9699993 7.23999977 22.9499989
v -20.2399998 4.04999828 30.7099991
v -13.9699993 7.23999977 22.9499989
v -7 4.04999828 43.5
v 0.590000033 7.23999882 37
v 1.51999998 9.53999805 28.7600002
v 13.5799999 12.6699982 28.7600002
v 1.51999998 12.6699982 28.7600002
v 13.5799999 12.6699982 28.7600002
v 1.51999998 9.53999805 28.7600002
v 13.5799999 7.33999825 28.7600002
v -17.2000008 5.80999899 22.1200008
v -11.7200003 -5.81000137 35.3600006
v -11.7200003 5.80999851 35.3600006
v -11.7200003 -5.81000137 35.3600006
v -17.2000008 5.80999899 22.1200008
v -17.2000008 -5.8100009 22.1200008
v -11.7200003 5.80999947 8.89000034
v -17.2000008 -5.8100009 22.1200008
v -17.2000008 5.80999899 22.1200008
v -17.2000008 -5.8100009 22.1200008
v -11.7200003 5.80999947 8.89000034
v -11.7200003 -5.81000042 8.89000034
v 1.51999998 5.80999994 3.40000057
v -11.7200003 -5.81000042 8.89000034
v -11.7200003 5.80999947 8.89000034
v -11.7200003 -5.81000042 8.89000034
v 1.51999998 5.80999994 3.40000057
v 1.51999998 -5.80999994 3.39999986
v 1.51999998 5.80999994 3.40000057
v 14.7599993 -5.81000042 8.89000034
v 1.51999998 -5.80999994 3.39999986
v 14.7599993 -5.81000042 8.89000034
v 1.51999998 5.80999994 3.40000057
v 14.7599993 5.80999947 8.89000034
v 14.7599993 5.80999947 8.89000034
v 20.2399998 -5.8100009 22.1200008
v 14.7599993 -5.81000042 8.89000034
v 20.2399998 -5.8100009 22.1200008
v 14.7599993 5.80999947 8.89000034
v 20.2399998 5.80999899 22.1200008
v 20.2399998 5.80999899 22.1200008
v 14.7599993 -5.81000137 35.3600006
v 20.2399998 -5.8100009 22.1200008
v 14.7599993 -5.81000137 35.3600006
v 20.2399998 5.80999899 22.1200008
v 14.7599993 5.80999851 35.3600006
v 1.51999998 5.80999804 40.8400002
v 14.7599993 -5.81000137 35.3600006
v 14.7599993 5.80999851 35.3600006
v 14.7599993 -5.81000137 35.3600006
v 1.51999998 5.80999804 40.8400002
v 1.51999998 -5.81000185 40.8400002
v -11.7200003 5.80999851 35.3600006
v 1.51999998 -5.81000185 40.8400002
v 1.51999998 5.80999804 40.8400002
v 1.51999998 -5.81000185 40.8400002
v -11.7200003 5.80999851 35.3600006
v -11.7200003 -5.81000137 35.3600006
v 13.7700005 1.81271128e-06 -41.4700012
v 11.1800003 1.73000193 -42.9899979
v 12.9099998 1.73000193 -41.9799995
v 11.1800003 1.73000193 -42.9899979
v 13.7700005 1.81271128e-06 -41.4700012
v 12.9099998 -1.72999823 -41.9799995
v 12.9099998 -1.72999823 -41.9799995
v 10.3200006 1.90144544e-06 -43.5
v 11.1800003 1.73000193 -42.9899979
v 10.3200006 1.90144544e-06 -43.5
v 12.9099998 -1.72999823 -41.9799995
v 11.1800003 -1.72999823 -42.9899979
v 13.5799999 -12.670001 28.7600002
v 13.5799999 -7.34000063 20.0100002
v 13.5799999 -7.34000111 28.7600002
v 13.5799999 -7.34000063 20.0100002
v 13.5799999 -12.670001 28.7600002
v 13.5799999 -12.670001 20.0100002
v -20.2399998 -2.85000134 30.7099991
v -7 4.04999828 43.5
v -20.2399998 4.04999828 30.7099991
v -7 4.04999828 43.5
v -20.2399998 -2.85000134 30.7099991
v -7 -2.85000181 43.5
v 1.51999998 9.53999805 28.7600002
v 1.51999998 12.6699982 20.0100002
v 1.51999998 9.53999901 20.0100002
v 1.51999998 12.6699982 20.0100002
v 1.51999998 9.53999805 28.7600002
v 1.51999998 12.6699982 28.7600002
v 13.5799999 -12.670001 28.7600002
v 1.51999998 -9.54000092 28.7600002
v 1.51999998 -12.670001 28.7600002
v 1.51999998 -9.54000092 28.7600002
v 13.5799999 -12.670001 28.7600002
v 13.5799999 -7.34000111 28.7600002
v -13.9699993 7.23999977 22.9499989
v -20.2399998 -2.85000134 30.7099991
v -20.2399998 4.04999828 30.7099991
v -20.2399998 -2.85000134 30.7099991
v -13.9699993 7.23999977 22.9499989
v -13.9699993 -6.03000116 22.9499989
v -11.7200003 5.80999947 8.89000034
v 1.51999998 10.5499992 9.53000069
v 1.51999998 5.80999994 3.40000057
v 1.51999998 10.5499992 9.53000069
v -11.7200003 5.80999947 8.89000034
v -7.37999964 10.5499992 13.2200003
v -7.37999964 10.5499992 13.2200003
v 1.51999998 10.5499983 34.7099991
v 1.51999998 10.5499992 9.53000069
v 10.4200001 10.5499983 31.0299988
v 1.51999998 10.5499992 9.53000069
v 1.51999998 10.5499983 34.7099991
v 1.51999998 10.5499992 9.53000069
v 10.4200001 10.5499983 31.0299988
v 10.4200001 10.5499992 13.2200003
v 14.7599993 5.80999947 8.89000034
v 1.51999998 10.5499992 9.53000069
v 10.4200001 10.5499992 13.2200003
v 1.51999998 10.5499992 9.53000069
v 14.7599993 5.80999947 8.89000034
v 1.51999998 5.80999994 3.40000057
v -11.7200003 5.80999947 8.89000034
v -11.0699997 10.5499992 22.1200008
v -7.37999964 10.5499992 13.2200003
v -11.0699997 10.5499992 22.1200008
v -7.37999964 10.5499983 31.0299988
v -7.37999964 10.5499992 13.2200003
v 1.51999998 10.5499983 34.7099991
v -7.37999964 10.5499992 13.2200003
v -7.37999964 10.5499983 31.0299988
v -11.7200003 5.80999851 35.3600006
v 1.51999998 10.5499983 34.7099991
v -7.37999964 10.5499983 31.0299988
v 1.51999998 10.5499983 34.7099991
v -11.7200003 5.80999851 35.3600006
v 1.51999998 5.80999804 40.8400002
v 14.7599993 5.80999851 35.3600006
v 1.51999998 10.5499983 34.7099991
v 1.51999998 5.80999804 40.8400002
v 1.51999998 10.5499983 34.7099991
v 14.7599993 5.80999851 35.3600006
v 10.4200001 10.5499983 31.0299988
v -11.0699997 10.5499992 22.1200008
v -11.7200003 5.80999947 8.89000034
v -17.2000008 5.80999899 22.1200008
v -11.7200003 5.80999851 35.3600006
v -11.0699997 10.5499992 22.1200008
v -17.2000008 5.80999899 22.1200008
v -11.0699997 10.5499992 22.1200008
v -11.7200003 5.80999851 35.3600006
v -7.37999964 10.5499983 31.0299988
v 20.2399998 5.80999899 22.1200008
v 10.4200001 10.5499983 31.0299988
v 14.7599993 5.80999851 35.3600006
v 10.4200001 10.5499983 31.0299988
v 20.2399998 5.80999899 22.1200008
v 14.1100006 10.5499992 22.1200008
v 14.1100006 10.5499992 22.1200008
v 10.4200001 10.5499992 13.2200003
v 10.4200001 10.5499983 31.0299988
v 20.2399998 5.80999899 22.1200008
v 10.4200001 10.5499992 13.2200003
v 14.1100006 10.5499992 22.1200008
v 10.4200001 10.5499992 13.2200003
v 20.2399998 5.80999899 22.1200008
v 14.7599993 5.80999947 8.89000034
v 1.51999998 -10.5500002 9.52999878
v -11.7200003 -5.81000042 8.89000034
v 1.51999998 -5.80999994 3.39999986
v -11.7200003 -5.81000042 8.89000034
v 1.51999998 -10.5500002 9.52999878
v -7.37999964 -10.5500002 13.2200003
v -11.0699997 -10.5500002 22.1200008
v -11.7200003 -5.81000042 8.89000034
v -7.37999964 -10.5500002 13.2200003
v -11.7200003 -5.81000042 8.89000034
v -11.0699997 -10.5500002 22.1200008
v -17.2000008 -5.8100009 22.1200008
v -11.0699997 -10.5500002 22.1200008
v -11.7200003 -5.81000137 35.3600006
v -17.2000008 -5.8100009 22.1200008
v 14.7599993 -5.81000042 8.89000034
v 1.51999998 -10.5500002 9.52999878
v 1.51999998 -5.80999994 3.39999986
v 1.51999998 -10.5500002 9.52999878
v 14.7599993 -5.81000042 8.89000034
v 10.4200001 -10.5500002 13.2200003
v 10.4200001 -10.5500011 31.0299988
v 1.51999998 -10.5500002 9.52999878
v 10.4200001 -10.5500002 13.2200003
v 1.51999998 -10.5500002 9.52999878
v 10.4200001 -10.5500011 31.0299988
v 1.51999998 -10.5500011 34.7099991
v -7.37999964 -10.5500011 31.0299988
v 1.51999998 -10.5500002 9.52999878
v 1.51999998 -10.5500011 34.7099991
v 1.51999998 -10.5500002 9.52999878
v -7.37999964 -10.5500011 31.0299988
v -7.37999964 -10.5500002 13.2200003
v -7.37999964 -10.5500011 31.0299988
v -11.0699997 -10.5500002 22.1200008
v -7.37999964 -10.5500002 13.2200003
v -11.7200003 -5.81000137 35.3600006
v -11.0699997 -10.5500002 22.1200008
v -7.37999964 -10.5500011 31.0299988
v 1.51999998 -10.5500011 34.7099991
v -11.7200003 -5.81000137 35.3600006
v -7.37999964 -10.5500011 31.0299988
v -11.7200003 -5.81000137 35.3600006
v 1.51999998 -10.5500011 34.7099991
v 1.51999998 -5.81000185 40.8400002
v 1.51999998 -10.5500011 34.7099991
v 14.7599993 -5.81000137 35.3600006
v 1.51999998 -5.81000185 40.8400002
v 20.2399998 -5.8100009 22.1200008
v 10.4200001 -10.5500002 13.2200003
v 14.7599993 -5.81000042 8.89000034
v 10.4200001 -10.5500002 13.2200003
v 20.2399998 -5.8100009 22.1200008
v 14.1100006 -10.5500002 22.1200008
v 10.4200001 -10.5500002 13.2200003
v 14.1100006 -10.5500002 22.1200008
v 10.4200001 -10.5500011 31.0299988
v 20.2399998 -5.8100009 22.1200008
v 10.4200001 -10.5500011 31.0299988
v 14.1100006 -10.5500002 22.1200008
v 10.4200001 -10.5500011 31.0299988
v 20.2399998 -5.8100009 22.1200008
v 14.7599993 -5.81000137 35.3600006
v 14.7599993 -5.81000137 35.3600006
v 1.51999998 -10.5500011 34.7099991
v 10.4200001 -10.5500011 31.0299988
v -7.85999966 -1.7299993 -16.9799995
v -2.75 1.15398063e-06 -26.3999996
v -6.89999962 7.31728619e-07 -16.7399998
v -2.75 1.15398063e-06 -26.3999996
v -7.85999966 -1.7299993 -16.9799995
v -3.57000017 -1.72999895 -26.9800014
v -7.85999966 -1.7299993 -16.9799995
v -5.20000029 -1.72999871 -28.1300011
v -3.57000017 -1.72999895 -26.9800014
v -5.20000029 -1.72999871 -28.1300011
v -7.85999966 -1.7299993 -16.9799995
v -9.78999996 -1.7299993 -17.4799995
v -10.7600002 7.75002889e-07 -17.7300014
v -5.20000029 -1.72999871 -28.1300011
v -9.78999996 -1.7299993 -17.4799995
v -5.20000029 -1.72999871 -28.1300011
v -10.7600002 7.75002889e-07 -17.7300014
v -6.01000023 1.25495387e-06 -28.7099991
v -10.7600002 7.75002889e-07 -17.7300014
v -5.20000029 1.73000133 -28.1300011
v -6.01000023 1.25495387e-06 -28.7099991
v -6.89999962 7.31728619e-07 -16.7399998
v -9.15999985 -1.72999966 -6.78000021
v -7.85999966 -1.7299993 -16.9799995
v -9.15999985 -1.72999966 -6.78000021
v -9.78999996 -1.7299993 -17.4799995
v -7.85999966 -1.7299993 -16.9799995
v -9.78999996 -1.7299993 -17.4799995
v -9.15999985 -1.72999966 -6.78000021
v -11.1500006 -1.72999966 -6.86999989
v -12.1399994 3.02482817e-07 -6.92000008
v -9.78999996 -1.7299993 -17.4799995
v -11.1500006 -1.72999966 -6.86999989
v -9.78999996 -1.7299993 -17.4799995
v -12.1399994 3.02482817e-07 -6.92000008
v -10.7600002 7.75002889e-07 -17.7300014
v -12.1399994 3.02482817e-07 -6.92000008
v -9.78999996 1.73000073 -17.4799995
v -10.7600002 7.75002889e-07 -17.7300014
v -5.20000029 1.73000133 -28.1300011
v -10.7600002 7.75002889e-07 -17.7300014
v -9.78999996 1.73000073 -17.4799995
v -7.85999966 1.73000073 -16.9799995
v -5.20000029 1.73000133 -28.1300011
v -9.78999996 1.73000073 -17.4799995
v -5.20000029 1.73000133 -28.1300011
v -7.85999966 1.73000073 -16.9799995
v -3.57000017 1.73000121 -26.9800014
v -7.85999966 1.73000073 -16.9799995
v -2.75 1.15398063e-06 -26.3999996
v -3.57000017 1.73000121 -26.9800014
v -9.15999985 -1.72999966 -6.78000021
v -6.89999962 7.31728619e-07 -16.7399998
v -8.15999985 2.94177624e-07 -6.73000002
v -7.94999981 -1.52989852e-08 0.350000024
v -9.15999985 -1.72999966 -6.78000021
v -8.15999985 2.94177624e-07 -6.73000002
v -9.15999985 -1.72999966 -6.78000021
v -7.94999981 -1.52989852e-08 0.350000024
v -8.92000008 -1.73000002 0.559999883
v -8.92000008 -1.73000002 0.559999883
v -11.1500006 -1.72999966 -6.86999989
v -9.15999985 -1.72999966 -6.78000021
v -11.1500006 -1.72999966 -6.86999989
v -8.92000008 -1.73000002 0.559999883
v -10.8800001 -1.73000002 0.9799999
v -10.8800001 -1.73000002 0.9799999
v -12.1399994 3.02482817e-07 -6.92000008
v -11.1500006 -1.72999966 -6.86999989
v -12.1399994 3.02482817e-07 -6.92000008
v -10.8800001 -1.73000002 0.9799999
v -11.8600006 -5.20165528e-08 1.19000006
v -10.8800001 1.73000002 0.980000079
v -12.1399994 3.02482817e-07 -6.92000008
v -11.8600006 -5.20165528e-08 1.19000006
v -12.1399994 3.02482817e-07 -6.92000008
v -10.8800001 1.73000002 0.980000079
v -11.1500006 1.73000038 -6.86999989
v -9.78999996 1.73000073 -17.4799995
v -12.1399994 3.02482817e-07 -6.92000008
v -11.1500006 1.73000038 -6.86999989
v -6.5 -3.44445738e-07 7.88000011
v -8.92000008 -1.73000002 0.559999883
v -7.94999981 -1.52989852e-08 0.350000024
v -8.92000008 -1.73000002 0.559999883
v -6.5 -3.44445738e-07 7.88000011
v -7.41000032 -1.73000038 8.29999924
v -7.41000032 -1.73000038 8.29999924
v -10.8800001 -1.73000002 0.9799999
v -8.92000008 -1.73000002 0.559999883
v -10.8800001 -1.73000002 0.9799999
v -7.41000032 -1.73000038 8.29999924
v -9.22999954 -1.73000038 9.13999939
v -9.22999954 -1.73000038 9.13999939
v -11.8600006 -5.20165528e-08 1.19000006
v -10.8800001 -1.73000002 0.9799999
v -11.8600006 -5.20165528e-08 1.19000006
v -9.22999954 -1.73000038 9.13999939
v -10.1300001 -4.17443772e-07 9.55000019
v -9.22999954 1.72999966 9.13999939
v -11.8600006 -5.20165528e-08 1.19000006
v -10.1300001 -4.17443772e-07 9.55000019
v -11.8600006 -5.20165528e-08 1.19000006
v -9.22999954 1.72999966 9.13999939
v -10.8800001 1.73000002 0.980000079
v -7.41000032 1.72999966 8.29999924
v -10.8800001 1.73000002 0.980000079
v -9.22999954 1.72999966 9.13999939
v -10.8800001 1.73000002 0.980000079
v -7.41000032 1.72999966 8.29999924
v -8.92000008 1.73000002 0.560000062
v -8.92000008 1.73000002 0.560000062
v -11.1500006 1.73000038 -6.86999989
v -10.8800001 1.73000002 0.980000079
v -11.1500006 1.73000038 -6.86999989
v -8.92000008 1.73000002 0.560000062
v -9.15999985 1.73000038 -6.78000021
v -9.15999985 1.73000038 -6.78000021
v -9.78999996 1.73000073 -17.4799995
v -11.1500006 1.73000038 -6.86999989
v -9.78999996 1.73000073 -17.4799995
v -9.15999985 1.73000038 -6.78000021
v -7.85999966 1.73000073 -16.9799995
v -9.15999985 1.73000038 -6.78000021
v -6.89999962 7.31728619e-07 -16.7399998
v -7.85999966 1.73000073 -16.9799995
v -2.75 1.15398063e-06 -26.3999996
v -7.85999966 1.73000073 -16.9799995
v -6.89999962 7.31728619e-07 -16.7399998
v -6.5 -3.44445738e-07 7.88000011
v -8.92000008 1.73000002 0.560000062
v -7.41000032 1.72999966 8.29999924
v -8.92000008 1.73000002 0.560000062
v -6.5 -3.44445738e-07 7.88000011
v -7.94999981 -1.52989852e-08 0.350000024
v -7.94999981 -1.52989852e-08 0.350000024
v -9.15999985 1.73000038 -6.78000021
v -8.92000008 1.73000002 0.560000062
v -9.15999985 1.73000038 -6.78000021
v -7.94999981 -1.52989852e-08 0.350000024
v -8.15999985 2.94177624e-07 -6.73000002
v -6.89999962 7.31728619e-07 -16.7399998
v -9.15999985 1.73000038 -6.78000021
v -8.15999985 2.94177624e-07 -6.73000002

# 156 UV coordinates
vt 0.631399989 0.881200016 0
vt 0.647899985 0.854099989 0
vt 0.631399989 0.854099989 0
vt 0.647899985 0.881200016 0
vt 0.842499971 0.918099999 0
vt 0.842499971 0.928799987 0
vt 0.839399993 0.923500001 0
vt 0.84859997 0.918099999 0
vt 0.84859997 0.928799987 0
vt 0.851700008 0.923500001 0
vt 0.875699997 0.950999975 0
vt 0.833700001 0.957300007 0
vt 0.833199978 0.951099992 0
vt 0.875899971 0.957199991 0
vt 0.834500015 0.963400006 0
vt 0.87620002 0.96329999 0
vt 0.834900022 0.969500005 0
vt 0.876399994 0.969500005 0
vt 0.87620002 0.975799978 0
vt 0.834500015 0.975600004 0
vt 0.918500006 0.950999975 0
vt 0.918500006 0.957199991 0
vt 0.918600023 0.963400006 0
vt 0.918600023 0.969600022 0
vt 0.918600023 0.975799978 0
vt 0.875800014 0.981899977 0
vt 0.833599985 0.981700003 0
vt 0.965300024 0.950999975 0
vt 0.96509999 0.957199991 0
vt 0.964699984 0.963400006 0
vt 0.964600027 0.969600022 0
vt 0.964699984 0.975799978 0
vt 0.918500006 0.981999993 0
vt 0.99180001 0.957400024 0
vt 0.991299987 0.963500023 0
vt 0.991100013 0.969600022 0
vt 0.991299987 0.975700021 0
vt 0.96509999 0.981999993 0
vt 0.991999984 0.951200008 0
vt 0.99180001 0.981899977 0
vt 0.965300024 0.988200009 0
vt 0.91839999 0.988200009 0
vt 0.87559998 0.988099992 0
vt 0.833199978 0.987900019 0
vt 0.991999984 0.988099992 0
vt 0.689999998 0.854099989 0
vt 0.65259999 0.881200016 0
vt 0.65259999 0.854099989 0
vt 0.689999998 0.881200016 0
vt 0.690400004 0.895900011 0
vt 0.653100014 0.886200011 0
vt 0.690400004 0.886200011 0
vt 0.653100014 0.902700007 0
vt 0.957700014 0.836799979 0
vt 0.988600016 0.868099988 0
vt 0.957700014 0.858200014 0
vt 0.988600016 0.827000022 0
vt 0.695800006 0.881200016 0
vt 0.705500007 0.854099989 0
vt 0.705500007 0.881200016 0
vt 0.695800006 0.854099989 0
vt 0.78609997 0.830600023 0
vt 0.845899999 0.862999976 0
vt 0.788800001 0.862999976 0
vt 0.848800004 0.830600023 0
vt 0.951900005 0.865199983 0
vt 0.892099977 0.897599995 0
vt 0.894800007 0.865199983 0
vt 0.95480001 0.897599995 0
vt 0.689999998 0.83859998 0
vt 0.65259999 0.84829998 0
vt 0.689999998 0.84829998 0
vt 0.65259999 0.831799984 0
vt 0.6523 0.779799998 0
vt 0.604099989 0.818799973 0
vt 0.604099989 0.779799998 0
vt 0.6523 0.818799973 0
vt 0.700500011 0.779799998 0
vt 0.700500011 0.818799973 0
vt 0.748700023 0.779799998 0
vt 0.748700023 0.818799973 0
vt 0.796800017 0.818799973 0
vt 0.796800017 0.779799998 0
vt 0.845000029 0.818799973 0
vt 0.845000029 0.779799998 0
vt 0.89319998 0.818799973 0
vt 0.89319998 0.779799998 0
vt 0.941399992 0.779799998 0
vt 0.941399992 0.818799973 0
vt 0.989499986 0.779799998 0
vt 0.989499986 0.818799973 0
vt 0.825100005 0.962599993 0
vt 0.818499982 0.971099973 0
vt 0.819299996 0.964999974 0
vt 0.829999983 0.966400027 0
vt 0.823499978 0.974900007 0
vt 0.829200029 0.972500026 0
vt 0.894800007 0.836799979 0
vt 0.951900005 0.858200014 0
vt 0.894800007 0.858200014 0
vt 0.951900005 0.836799979 0
vt 0.858099997 0.868099988 0
vt 0.888999999 0.836799979 0
vt 0.888999999 0.858200014 0
vt 0.858099997 0.827000022 0
vt 0.74970001 0.992900014 0
vt 0.727500021 0.956399977 0
vt 0.709900022 0.970600009 0
vt 0.752200007 0.969799995 0
vt 0.78490001 0.91049999 0
vt 0.760299981 0.897000015 0
vt 0.719699979 0.929400027 0
vt 0.697000027 0.927200019 0
vt 0.779100001 0.962100029 0
vt 0.792500019 0.9375 0
vt 0.815599978 0.940100014 0
vt 0.802600026 0.896399975 0
vt 0.763100028 0.874300003 0
vt 0.793299973 0.979799986 0
vt 0.718800008 0.886799991 0
vt 0.733399987 0.904900014 0
vt 0.890799999 0.910899997 0
vt 0.857599974 0.904500008 0
vt 0.890799999 0.904699981 0
vt 0.856899977 0.910700023 0
vt 0.855400026 0.916800022 0
vt 0.890900016 0.916999996 0
vt 0.890900016 0.923099995 0
vt 0.854700029 0.923099995 0
vt 0.855400026 0.929400027 0
vt 0.923300028 0.910700023 0
vt 0.923399985 0.916899979 0
vt 0.923399985 0.923099995 0
vt 0.890900016 0.929199994 0
vt 0.890799999 0.935199976 0
vt 0.85680002 0.935500026 0
vt 0.857599974 0.941699982 0
vt 0.923200011 0.904600024 0
vt 0.946099997 0.904600024 0
vt 0.946500003 0.91079998 0
vt 0.9472 0.916999996 0
vt 0.94749999 0.923099995 0
vt 0.9472 0.92930001 0
vt 0.923399985 0.92930001 0
vt 0.970399976 0.904500008 0
vt 0.971199989 0.910700023 0
vt 0.9727 0.916800022 0
vt 0.973500013 0.923099995 0
vt 0.9727 0.929400027 0
vt 0.971199989 0.935500026 0
vt 0.946500003 0.935400009 0
vt 0.923300028 0.935400009 0
vt 0.890799999 0.941399992 0
vt 0.970300019 0.941699982 0
vt 0.946099997 0.941600025 0
vt 0.923200011 0.941600025 0

# 112 vertex normals
vn 0.89442718 1.95483256e-08 -0.44721359
vn 0.666677773 0.333288848 0.666677773
vn 0.707106769 -3.09086161e-08 0.707106769
vn 0.333288878 0.666677773 -0.666677773
vn -0.115094729 0.784564018 -0.609272063
vn 0.0318993852 -0.689286649 -0.723786056
vn -0.56006521 3.62126364e-08 -0.828448534
vn 0.699606717 0.413103968 -0.583005607
vn 0.703297794 -0.537898302 -0.46479857
vn 0.989299297 -6.37748698e-09 0.145899877
vn -0.946735501 1.40755958e-08 -0.322012097
vn -0.0206988081 0.52027005 -0.853750885
vn -0.236295372 -0.00079994183 -0.971680999
vn -0.413524657 0.9042539 -0.106406309
vn 0.455098301 0.871496737 -0.182699248
vn 0.56559521 0.802093267 0.191698417
vn 0.996355534 -0.000499973947 -0.0852961913
vn 0.969140112 -1.07753033e-08 0.246510193
vn 0.565595269 -0.802093327 0.191698372
vn 0.567703485 -0.612003684 -0.55060333
vn -0.993084908 5.13163911e-09 -0.11739821
vn -0.497489542 0.866981685 -0.0290993489
vn 0.498032421 0.86525631 0.0574037731
vn 0.998379886 -2.48712806e-09 0.0568988509
vn 0.498032391 -0.86525625 0.0574036948
vn -0.413524657 -0.9042539 -0.106406368
vn -0.39749828 -0.725596845 -0.561697602
vn -0.99900496 -1.94953764e-09 0.0446002223
vn -0.396198332 0.917996168 0.0175999682
vn 0.569679916 0.821470976 -0.0254990645
vn 0.99899143 1.96262451e-09 -0.0448996164
vn 0.569679916 -0.821470976 -0.0254991334
vn -0.497489542 -0.866981685 -0.0290994234
vn -0.651395679 0.756495059 0.0582996495
vn 0.32600674 0.944919407 -0.0291005578
vn 0.995995879 3.90778165e-09 -0.0893996283
vn 0.32600674 -0.944919407 -0.0291006416
vn -0.396198332 -0.917996168 0.0175998863
vn -0.995995879 -3.90778165e-09 0.0893996283
vn -0.651395679 -0.756495059 0.0582995825
vn -0.408214927 -0.81652993 0.408214897
vn 0.333288878 -0.666677773 -0.666677773
vn 0.666677713 -0.333288878 0.666677713
vn -0.81652993 -0.408214897 -0.408214986
vn -0.44721359 3.90966512e-08 -0.89442718
vn 0.0556000322 -0.578900397 0.813500404
vn 0.481390268 0.420991421 0.768784463
vn -0.336794108 0.551190197 0.763386607
vn 0.306010842 -0.664023578 0.682224214
vn -0.408214927 0.81652993 0.408214986
vn -0.81652993 0.408214986 -0.408214897
vn -0.707106769 -3.09086161e-08 0.707106769
vn -0.531416178 -0.842925608 -0.0841025934
vn -0.95039928 -0.286699802 0.120599896
vn -0.690810025 0.664409518 -0.285204113
vn -0.85959816 0.485798925 0.158399671
vn -0.928681493 0.359892845 0.0895982236
vn -0.651107252 -0.511205733 0.561006248
vn -0.560901165 0.511201084 0.651201367
vn -0.928656518 -0.35988313 -0.0898958147
vn -0.651234686 0.511127293 -0.560929894
vn -0.561103463 -0.511103094 -0.651104033
vn 0 0.299800634 -0.954001844
vn 0 -0.451209188 -0.892418206
vn 0.53998214 -0.447785139 -0.712676406
vn 0.649916887 0.451011777 -0.611715913
vn 0.857087553 -0.51119256 -0.0638990924
vn 0.857103944 0.511202276 0.0636003166
vn 0.62201649 -0.387110323 0.680618048
vn 0.555610538 0.534810185 0.636612117
vn 0.0896974057 0.359889597 0.928673148
vn -0.0896974057 -0.359889627 0.928673148
vn 0 0.931365192 -0.36408636
vn -0.178890839 0.96745038 -0.178990781
vn 0 0.931317985 0.364207059
vn 0.255707771 0.947128773 0.193805933
vn 0.307187587 0.922762692 -0.232690543
vn -0.503616035 0.863927603 -9.99654221e-05
vn -0.224905163 0.94802177 0.225105211
vn 0.423903406 0.905707359 -9.99612166e-05
vn 0 -0.948021233 -0.318207145
vn -0.224910215 -0.948043108 -0.225010276
vn -0.503616035 -0.863927603 -0.000100040954
vn 0.307187587 -0.922762692 -0.232690632
vn 0.255707771 -0.947128773 0.193805858
vn 0 -0.905612648 0.424105912
vn -0.178890839 -0.96745038 0.178990781
vn 0.423903406 -0.905707359 -0.000100040386
vn 0.475904822 -0.865908802 0.154001519
vn 0.976083457 -9.50269463e-09 0.217396319
vn -0.486220241 -0.867036045 -0.108804569
vn -0.950928867 1.35247129e-08 -0.30940938
vn 0.569771826 -0.821359336 0.0269986298
vn -0.397385031 -0.917465389 -0.0184993446
vn -0.998927414 2.02389283e-09 -0.046301268
vn -0.486220181 0.867035985 -0.108804479
vn 0.475904822 0.865908802 0.154001608
vn 0.998856902 -2.08931428e-09 0.0477979369
vn 0.996465921 3.671631e-09 -0.0839971229
vn 0.49749282 -0.864687562 -0.0693990365
vn -0.498087823 -0.865978837 0.04459887
vn -0.98934263 -6.3646528e-09 0.145606294
vn -0.498087823 0.865978837 0.0445989445
vn -0.397385031 0.917465389 -0.0184992626
vn 0.981725097 8.31849079e-09 -0.19030486
vn 0.324192375 -0.943877757 -0.063198559
vn -0.645006537 -0.752707601 0.131901309
vn -0.979263127 -8.85559359e-09 0.202592373
vn -0.645006537 0.752707601 0.131901354
vn 0.324192375 0.943877757 -0.0631984696
vn 0.49749282 0.864687562 -0.069398962
vn 0.569771826 0.821359336 0.0269987006

# Mesh 'PipelineFBX' with 194 faces
g PipelineFBX
usemtl DefaultMaterial
f  1/1/1 2/2/2 3/3/3
f  4/2/2 5/1/1 6/4/4
f  7/5/5 8/6/6 9/7/7
f  10/6/6 11/5/5 12/8/8
f  13/8/8 14/9/9 15/6/6
f  16/9/9 17/8/8 18/10/10
f  19/11/11 20/12/12 21/13/13
f  22/12/12 23/11/11 24/14/14
f  25/14/14 26/15/15 27/12/12
f  28/15/15 29/14/14 30/16/16
f  31/16/16 32/17/17 33/15/15
f  34/17/17 35/16/16 36/18/18
f  37/19/19 38/17/17 39/18/18
f  40/17/17 41/19/19 42/20/20
f  43/21/21 44/14/14 45/11/11
f  46/14/14 47/21/21 48/22/22
f  49/23/23 50/14/14 51/22/22
f  52/14/14 53/23/23 54/16/16
f  55/23/23 56/18/18 57/16/16
f  58/18/18 59/23/23 60/24/24
f  61/25/25 62/18/18 63/24/24
f  64/18/18 65/25/25 66/19/19
f  67/25/25 68/26/26 69/19/19
f  70/26/26 71/20/20 72/19/19
f  73/20/20 74/26/26 75/27/27
f  76/28/28 77/22/22 78/21/21
f  79/22/22 80/28/28 81/29/29
f  82/30/30 83/22/22 84/29/29
f  85/22/22 86/30/30 87/23/23
f  88/30/30 89/24/24 90/23/23
f  91/24/24 92/30/30 93/31/31
f  94/32/32 95/24/24 96/31/31
f  97/24/24 98/32/32 99/25/25
f  100/32/32 101/33/33 102/25/25
f  103/26/26 104/25/25 105/33/33
f  106/28/28 107/34/34 108/29/29
f  109/35/35 110/29/29 111/34/34
f  112/29/29 113/35/35 114/30/30
f  115/36/36 116/30/30 117/35/35
f  118/30/30 119/36/36 120/31/31
f  121/36/36 122/32/32 123/31/31
f  124/32/32 125/36/36 126/37/37
f  127/37/37 128/38/38 129/32/32
f  130/33/33 131/32/32 132/38/38
f  133/34/34 134/28/28 135/39/39
f  136/38/38 137/37/37 138/40/40
f  139/40/40 140/41/28 141/38/38
f  142/41/28 143/33/33 144/38/38
f  145/33/33 146/41/28 147/42/21
f  148/42/21 149/26/26 150/33/33
f  151/26/26 152/42/21 153/43/11
f  154/43/11 155/27/27 156/26/26
f  157/27/27 158/43/11 159/44/13
f  160/41/28 161/40/40 162/45/39
f  163/46/41 164/47/42 165/48/43
f  166/47/42 167/46/41 168/49/44
f  169/50/45 170/51/42 171/52/44
f  172/51/42 173/50/45 174/53/1
f  175/54/46 176/55/47 177/56/48
f  178/55/47 179/54/46 180/57/49
f  181/47/4 182/46/50 183/48/2
f  184/46/50 185/47/4 186/49/51
f  187/51/4 188/50/45 189/52/51
f  190/50/45 191/51/4 192/53/1
f  193/58/44 194/59/52 195/60/45
f  196/59/52 197/58/44 198/61/41
f  199/62/53 200/63/46 201/64/54
f  202/63/46 203/62/53 204/65/49
f  205/66/48 206/67/55 207/68/56
f  208/67/55 209/66/48 210/69/47
f  211/70/52 212/71/2 213/72/50
f  214/71/2 215/70/52 216/73/3
f  217/74/57 218/75/58 219/76/59
f  220/75/58 221/74/57 222/77/60
f  223/78/61 224/77/60 225/74/57
f  226/77/60 227/78/61 228/79/62
f  229/80/63 230/79/62 231/78/61
f  232/79/62 233/80/63 234/81/64
f  235/80/63 236/82/65 237/81/64
f  238/82/65 239/80/63 240/83/66
f  241/83/66 242/84/67 243/82/65
f  244/84/67 245/83/66 246/85/68
f  247/85/68 248/86/69 249/84/67
f  250/86/69 251/85/68 252/87/70
f  253/88/71 254/86/69 255/87/70
f  256/86/69 257/88/71 258/89/72
f  259/90/59 260/89/72 261/88/71
f  262/89/72 263/90/59 264/91/58
f  265/92/17 266/93/12 267/94/15
f  268/93/12 269/92/17 270/95/20
f  271/95/20 272/96/13 273/93/12
f  274/96/13 275/95/20 276/97/27
f  277/2/43 278/1/1 279/3/3
f  280/1/1 281/2/43 282/4/42
f  283/98/54 284/99/48 285/100/56
f  286/99/48 287/98/54 288/101/46
f  289/59/52 290/58/51 291/60/45
f  292/58/51 293/59/52 294/61/50
f  295/71/43 296/70/52 297/72/41
f  298/70/52 299/71/43 300/73/3
f  301/102/55 302/103/54 303/104/56
f  304/103/54 305/102/55 306/105/53
f  307/106/61 308/107/73 309/108/63
f  310/107/73 311/106/61 312/109/74
f  313/109/74 314/110/75 315/107/73
f  316/111/76 317/107/73 318/110/75
f  319/107/73 320/111/76 321/112/77
f  322/113/66 323/107/73 324/112/77
f  325/107/73 326/113/66 327/108/63
f  328/106/61 329/114/78 330/109/74
f  331/114/78 332/115/79 333/109/74
f  334/110/75 335/109/74 336/115/79
f  337/116/59 338/110/75 339/115/79
f  340/110/75 341/116/59 342/117/71
f  343/118/70 344/110/75 345/117/71
f  346/110/75 347/118/70 348/111/76
f  349/114/78 350/106/61 351/119/57
f  352/116/59 353/114/78 354/119/57
f  355/114/78 356/116/59 357/115/79
f  358/120/68 359/111/76 360/118/70
f  361/111/76 362/120/68 363/121/80
f  364/121/80 365/112/77 366/111/76
f  367/120/68 368/112/77 369/121/80
f  370/112/77 371/120/68 372/113/66
f  373/107/81 374/106/62 375/108/64
f  376/106/62 377/107/81 378/109/82
f  379/114/83 380/106/62 381/109/82
f  382/106/62 383/114/83 384/119/60
f  385/114/83 386/116/58 387/119/60
f  388/113/65 389/107/81 390/108/64
f  391/107/81 392/113/65 393/112/84
f  394/111/85 395/107/81 396/112/84
f  397/107/81 398/111/85 399/110/86
f  400/115/87 401/107/81 402/110/86
f  403/107/81 404/115/87 405/109/82
f  406/115/87 407/114/83 408/109/82
f  409/116/58 410/114/83 411/115/87
f  412/110/86 413/116/58 414/115/87
f  415/116/58 416/110/86 417/117/72
f  418/110/86 419/118/69 420/117/72
f  421/120/67 422/112/84 423/113/65
f  424/112/84 425/120/67 426/121/88
f  427/112/84 428/121/88 429/111/85
f  430/120/67 431/111/85 432/121/88
f  433/111/85 434/120/67 435/118/69
f  436/118/69 437/110/86 438/111/85
f  439/122/89 440/123/10 441/124/90
f  442/123/10 443/122/89 444/125/9
f  445/122/89 446/126/6 447/125/9
f  448/126/6 449/122/89 450/127/91
f  451/128/92 452/126/6 453/127/91
f  454/126/6 455/128/92 456/129/7
f  457/128/92 458/130/5 459/129/7
f  460/124/90 461/131/93 462/122/89
f  463/131/93 464/127/91 465/122/89
f  466/127/91 467/131/93 468/132/94
f  469/133/95 470/127/91 471/132/94
f  472/127/91 473/133/95 474/128/92
f  475/133/95 476/134/96 477/128/92
f  478/130/5 479/128/92 480/134/96
f  481/135/97 482/130/5 483/134/96
f  484/130/5 485/135/97 486/136/8
f  487/135/97 488/137/10 489/136/8
f  490/131/93 491/124/90 492/138/98
f  493/139/99 494/131/93 495/138/98
f  496/131/93 497/139/99 498/140/100
f  499/140/100 500/132/94 501/131/93
f  502/132/94 503/140/100 504/141/101
f  505/141/101 506/133/95 507/132/94
f  508/133/95 509/141/101 510/142/102
f  511/143/103 512/133/95 513/142/102
f  514/133/95 515/143/103 516/144/104
f  517/134/96 518/133/95 519/144/104
f  520/145/105 521/140/100 522/139/99
f  523/140/100 524/145/105 525/146/106
f  526/146/106 527/141/101 528/140/100
f  529/141/101 530/146/106 531/147/107
f  532/147/107 533/142/102 534/141/101
f  535/142/102 536/147/107 537/148/108
f  538/149/109 539/142/102 540/148/108
f  541/142/102 542/149/109 543/143/103
f  544/150/110 545/143/103 546/149/109
f  547/143/103 548/150/110 549/151/111
f  550/151/111 551/144/104 552/143/103
f  553/144/104 554/151/111 555/152/112
f  556/152/112 557/134/96 558/144/104
f  559/134/96 560/152/112 561/135/97
f  562/152/112 563/153/90 564/135/97
f  565/137/10 566/135/97 567/153/90
f  568/154/105 569/151/111 570/150/110
f  571/151/111 572/154/105 573/155/99
f  574/155/99 575/152/112 576/151/111
f  577/152/112 578/155/99 579/156/98
f  580/153/90 581/152/112 582/156/98

