# File produced by Open Asset Import Library (http://www.assimp.sf.net)
# (assimp v6.0.0)

mtllib spacejunk3.mtl

# 84 vertex positions
v -7 0.599999785 4.94999981
v -7 -0.600000441 9.5
v -7 0.599999607 9.5
v -7 -0.600000441 9.5
v -7 0.599999785 4.94999981
v -7 -0.600000262 4.94999981
v -6.23999977 0.600000024 -0.579999924
v -7 -0.600000262 4.94999981
v -7 0.599999785 4.94999981
v -7 -0.600000262 4.94999981
v -6.23999977 0.600000024 -0.579999924
v -6.23999977 -0.599999964 -0.580000043
v -4.07000017 0.600000262 -5.26999998
v -6.23999977 -0.599999964 -0.580000043
v -6.23999977 0.600000024 -0.579999924
v -6.23999977 -0.599999964 -0.580000043
v -4.07000017 0.600000262 -5.26999998
v -4.07000017 -0.599999785 -5.26999998
v -0.829999983 0.600000381 -8.39999962
v -4.07000017 -0.599999785 -5.26999998
v -4.07000017 0.600000262 -5.26999998
v -4.07000017 -0.599999785 -5.26999998
v -0.829999983 0.600000381 -8.39999962
v -0.829999983 -0.599999607 -8.39999962
v 3 0.600000441 -9.5
v -0.829999983 -0.599999607 -8.39999962
v -0.829999983 0.600000381 -8.39999962
v -0.829999983 -0.599999607 -8.39999962
v 3 0.600000441 -9.5
v 3 -0.599999607 -9.5
v 7 0.600000441 -9.5
v 3 -0.599999607 -9.5
v 3 0.600000441 -9.5
v 3 -0.599999607 -9.5
v 7 0.600000441 -9.5
v 7 -0.599999607 -9.5
v -0.829999983 -0.599999607 -8.39999962
v -6.23999977 -0.599999964 -0.580000043
v -4.07000017 -0.599999785 -5.26999998
v -6.23999977 -0.599999964 -0.580000043
v -0.829999983 -0.599999607 -8.39999962
v 3 -0.599999607 -9.5
v 3 -0.599999607 -9.5
v -7 -0.600000262 4.94999981
v -6.23999977 -0.599999964 -0.580000043
v -7 -0.600000262 4.94999981
v 3 -0.599999607 -9.5
v 7 -0.599999607 -9.5
v 7 -0.599999607 -9.5
v -7 -0.600000441 9.5
v -7 -0.600000262 4.94999981
v -7 -0.600000441 9.5
v 7 -0.599999607 -9.5
v 7 -0.600000441 9.5
v -6.23999977 0.600000024 -0.579999924
v -0.829999983 0.600000381 -8.39999962
v -4.07000017 0.600000262 -5.26999998
v -0.829999983 0.600000381 -8.39999962
v -6.23999977 0.600000024 -0.579999924
v -7 0.599999785 4.94999981
v -7 0.599999785 4.94999981
v 3 0.600000441 -9.5
v -0.829999983 0.600000381 -8.39999962
v 3 0.600000441 -9.5
v -7 0.599999785 4.94999981
v -7 0.599999607 9.5
v -7 0.599999607 9.5
v 7 0.600000441 -9.5
v 3 0.600000441 -9.5
v 7 0.600000441 -9.5
v -7 0.599999607 9.5
v 7 0.599999607 9.5
v 7 -0.600000441 9.5
v 7 0.600000441 -9.5
v 7 0.599999607 9.5
v 7 0.600000441 -9.5
v 7 -0.600000441 9.5
v 7 -0.599999607 -9.5
v -7 -0.600000441 9.5
v 7 0.599999607 9.5
v -7 0.599999607 9.5
v 7 0.599999607 9.5
v -7 -0.600000441 9.5
v 7 -0.600000441 9.5

# 30 UV coordinates
vt 0.814999998 0.0861999989 0
vt 0.818700016 0.100500003 0
vt 0.814999998 0.100500003 0
vt 0.818700016 0.0861999989 0
vt 0.814999998 0.068599999 0
vt 0.818700016 0.068599999 0
vt 0.814999998 0.0524000004 0
vt 0.818700016 0.0524000004 0
vt 0.814999998 0.0381999984 0
vt 0.818700016 0.0381999984 0
vt 0.814999998 0.0256999992 0
vt 0.818700016 0.0256999992 0
vt 0.814999998 0.0131000001 0
vt 0.818700016 0.0131000001 0
vt 0.777899981 0.0304000005 0
vt 0.760900021 0.0549999997 0
vt 0.767700016 0.0403000005 0
vt 0.789900005 0.0270000007 0
vt 0.75849998 0.0724000037 0
vt 0.80250001 0.0270000007 0
vt 0.75849998 0.0866999999 0
vt 0.80250001 0.0866999999 0
vt 0.806299984 0.0866999999 0
vt 0.810100019 0.0270000007 0
vt 0.810100019 0.0866999999 0
vt 0.806299984 0.0270000007 0
vt 0.758300006 0.0904999971 0
vt 0.802299976 0.0942000002 0
vt 0.758300006 0.0942000002 0
vt 0.802299976 0.0904999971 0

# 16 vertex normals
vn -0.705641448 0.707841456 -0.0321018547
vn -0.577350259 -0.577350259 0.577350259
vn -0.301511317 0.904533982 0.301511347
vn -0.703444362 -0.707844555 -0.0642040744
vn -0.80667901 0.558485448 -0.193294942
vn -0.664567113 -0.710564852 -0.23118858
vn -0.804613829 0.320605546 -0.499808609
vn -0.736426592 -0.320611537 -0.595721483
vn -0.397787958 0.716478229 -0.573082566
vn -0.35218516 -0.564976156 -0.746168554
vn -0.13069649 0.710180938 -0.691781282
vn -0.0652984008 -0.710182488 -0.700982809
vn 0.577350259 0.577350259 -0.577350259
vn 0.301511317 -0.904533982 -0.301511347
vn 0.81652993 -0.408214986 0.408214897
vn 0.408214927 0.408214897 0.81652993

# Mesh 'PipelineFBX' with 28 faces
g PipelineFBX
usemtl DefaultMaterial
f  1/1/1 2/2/2 3/3/3
f  4/2/2 5/1/1 6/4/4
f  7/5/5 8/4/4 9/1/1
f  10/4/4 11/5/5 12/6/6
f  13/7/7 14/6/6 15/5/5
f  16/6/6 17/7/7 18/8/8
f  19/9/9 20/8/8 21/7/7
f  22/8/8 23/9/9 24/10/10
f  25/11/11 26/10/10 27/9/9
f  28/10/10 29/11/11 30/12/12
f  31/13/13 32/12/12 33/11/11
f  34/12/12 35/13/13 36/14/14
f  37/15/10 38/16/6 39/17/8
f  40/16/6 41/15/10 42/18/12
f  43/18/12 44/19/4 45/16/6
f  46/19/4 47/18/12 48/20/14
f  49/20/14 50/21/2 51/19/4
f  52/21/2 53/20/14 54/22/15
f  55/16/5 56/15/9 57/17/7
f  58/15/9 59/16/5 60/19/1
f  61/19/1 62/18/11 63/15/9
f  64/18/11 65/19/1 66/21/3
f  67/21/3 68/20/13 69/18/11
f  70/20/13 71/21/3 72/22/16
f  73/23/15 74/24/13 75/25/16
f  76/24/13 77/23/15 78/26/14
f  79/27/2 80/28/16 81/29/3
f  82/28/16 83/27/2 84/30/15

