# File produced by Open Asset Import Library (http://www.assimp.sf.net)
# (assimp v6.0.0)

mtllib Cordrazine_Station.mtl

# 936 vertex positions
v 17.3400822 -126.808365 58.1903534
v 1.65885389e-14 -135.460175 82.2394409
v 1.76977099e-14 -144.517532 75.8346329
v 1.65885389e-14 -135.460175 82.2394409
v 17.3400822 -126.808365 58.1903534
v 13.8892984 -118.690605 63.9297028
v 17.3400822 -126.808365 58.1903534
v 32.2153282 -76.5784378 8.3278389
v 13.8892984 -118.690605 63.9297028
v 32.2153282 -76.5784378 8.3278389
v 17.3400822 -126.808365 58.1903534
v 38.8128281 -79.5630417 -4.99101496
v 9.93790299e-15 -81.1518097 7.26290226
v 13.8892984 -118.690605 63.9297028
v 32.2153282 -76.5784378 8.3278389
v 13.8892984 -118.690605 63.9297028
v 9.93790299e-15 -81.1518097 7.26290226
v 1.65885389e-14 -135.460175 82.2394409
v 9.93790299e-15 -81.1518097 7.26290226
v -13.8892984 -118.690605 63.9297028
v 1.65885389e-14 -135.460175 82.2394409
v -13.8892984 -118.690605 63.9297028
v 9.93790299e-15 -81.1518097 7.26290226
v -32.2153282 -76.5784378 8.3278389
v -17.3400822 -126.808365 58.1903534
v -32.2153282 -76.5784378 8.3278389
v -38.8128281 -79.5630417 -4.99101496
v -32.2153282 -76.5784378 8.3278389
v -17.3400822 -126.808365 58.1903534
v -13.8892984 -118.690605 63.9297028
v -17.3400822 -126.808365 58.1903534
v 1.65885389e-14 -135.460175 82.2394409
v -13.8892984 -118.690605 63.9297028
v 1.65885389e-14 -135.460175 82.2394409
v -17.3400822 -126.808365 58.1903534
v 1.76977099e-14 -144.517532 75.8346329
v 1.01739363e-14 -83.0792389 -8.9866457
v 32.2153282 -76.5784378 8.3278389
v 38.8128281 -79.5630417 -4.99101496
v 32.2153282 -76.5784378 8.3278389
v 1.01739363e-14 -83.0792389 -8.9866457
v 9.93790299e-15 -81.1518097 7.26290226
v 1.01739363e-14 -83.0792389 -8.9866457
v -32.2153282 -76.5784378 8.3278389
v 9.93790299e-15 -81.1518097 7.26290226
v -32.2153282 -76.5784378 8.3278389
v 1.01739363e-14 -83.0792389 -8.9866457
v -38.8128281 -79.5630417 -4.99101496
v 1.01739363e-14 -83.0792389 -8.9866457
v -17.3400822 -126.808365 58.1903534
v -38.8128281 -79.5630417 -4.99101496
v -17.3400822 -126.808365 58.1903534
v 1.01739363e-14 -83.0792389 -8.9866457
v 1.76977099e-14 -144.517532 75.8346329
v 1.01739363e-14 -83.0792389 -8.9866457
v 17.3400822 -126.808365 58.1903534
v 1.76977099e-14 -144.517532 75.8346329
v 17.3400822 -126.808365 58.1903534
v 1.01739363e-14 -83.0792389 -8.9866457
v 38.8128281 -79.5630417 -4.99101496
v 17.3400822 3.28136301 58.1904144
v -2.57052244e-15 20.9906006 75.8346329
v -1.46135227e-15 11.9332409 82.239502
v -1.46135227e-15 11.9332409 82.239502
v 13.8892984 -4.8363328 63.9297028
v 17.3400822 3.28136301 58.1904144
v 17.3400822 3.28136301 58.1904144
v 13.8892984 -4.8363328 63.9297028
v 32.2153282 -46.948494 8.3278389
v 32.2153282 -46.948494 8.3278389
v 38.8128281 -43.9638939 -4.99101496
v 17.3400822 3.28136301 58.1904144
v 5.1892762e-15 -42.3750534 7.26290226
v 32.2153282 -46.948494 8.3278389
v 13.8892984 -4.8363328 63.9297028
v 13.8892984 -4.8363328 63.9297028
v -1.46135227e-15 11.9332409 82.239502
v 5.1892762e-15 -42.3750534 7.26290226
v 5.1892762e-15 -42.3750534 7.26290226
v -1.46135227e-15 11.9332409 82.239502
v -13.8892984 -4.8363328 63.9297028
v -13.8892984 -4.8363328 63.9297028
v -32.2153282 -46.948494 8.3278389
v 5.1892762e-15 -42.3750534 7.26290226
v -17.3400822 3.28136301 58.1904144
v -38.8128281 -43.9638939 -4.99101496
v -32.2153282 -46.948494 8.3278389
v -32.2153282 -46.948494 8.3278389
v -13.8892984 -4.8363328 63.9297028
v -17.3400822 3.28136301 58.1904144
v -17.3400822 3.28136301 58.1904144
v -13.8892984 -4.8363328 63.9297028
v -1.46135227e-15 11.9332409 82.239502
v -1.46135227e-15 11.9332409 82.239502
v -2.57052244e-15 20.9906006 75.8346329
v -17.3400822 3.28136301 58.1904144
v 4.95325089e-15 -40.4476967 -8.9866457
v 38.8128281 -43.9638939 -4.99101496
v 32.2153282 -46.948494 8.3278389
v 32.2153282 -46.948494 8.3278389
v 5.1892762e-15 -42.3750534 7.26290226
v 4.95325089e-15 -40.4476967 -8.9866457
v 4.95325089e-15 -40.4476967 -8.9866457
v 5.1892762e-15 -42.3750534 7.26290226
v -32.2153282 -46.948494 8.3278389
v -32.2153282 -46.948494 8.3278389
v -38.8128281 -43.9638939 -4.99101496
v 4.95325089e-15 -40.4476967 -8.9866457
v 4.95325089e-15 -40.4476967 -8.9866457
v -38.8128281 -43.9638939 -4.99101496
v -17.3400822 3.28136301 58.1904144
v -17.3400822 3.28136301 58.1904144
v -2.57052244e-15 20.9906006 75.8346329
v 4.95325089e-15 -40.4476967 -8.9866457
v 4.95325089e-15 -40.4476967 -8.9866457
v -2.57052244e-15 20.9906006 75.8346329
v 17.3400822 3.28136301 58.1904144
v 17.3400822 3.28136301 58.1904144
v 38.8128281 -43.9638939 -4.99101496
v 4.95325089e-15 -40.4476967 -8.9866457
v 43.526413 -37.6120224 -54.2538681
v 3.66932301e-15 -29.9632874 -124.340485
v -6.46395711e-05 -50.358429 -41.8214149
v 3.66932301e-15 -29.9632874 -124.340485
v 43.526413 -37.6120224 -54.2538681
v 44.7631607 -22.2830696 -121.849602
v 44.7631607 -22.2830696 -121.849602
v 39.2222557 7.31131744 -245.873215
v 3.66932301e-15 -29.9632874 -124.340485
v 39.2222557 7.31131744 -245.873215
v 6.46395711e-05 37.2206955 -396.075165
v 3.66932301e-15 -29.9632874 -124.340485
v 6.46395711e-05 37.2206955 -396.075165
v -39.2222557 7.31131744 -245.873291
v 3.66932301e-15 -29.9632874 -124.340485
v -39.2222557 7.31131744 -245.873291
v -44.7632256 -22.2830696 -121.84967
v 3.66932301e-15 -29.9632874 -124.340485
v -43.5264778 -37.6120224 -54.253933
v 3.66932301e-15 -29.9632874 -124.340485
v -44.7632256 -22.2830696 -121.84967
v 3.66932301e-15 -29.9632874 -124.340485
v -43.5264778 -37.6120224 -54.253933
v -6.46395711e-05 -50.358429 -41.8214149
v 43.526413 -37.6120224 -54.2538681
v 67.8884201 -8.11543369 -153.412781
v 44.7631607 -22.2830696 -121.849602
v 67.8884201 -8.11543369 -153.412781
v 43.526413 -37.6120224 -54.2538681
v 122.218498 -4.95546389 -130.230057
v 53.2302361 3.18841147 -217.560257
v 67.8884201 -8.11543369 -153.412781
v 122.218498 -4.95546389 -130.230057
v 53.2302361 3.18841147 -217.560257
v 122.218498 -4.95546389 -130.230057
v 39.2222557 7.31131744 -245.873215
v 39.2222557 7.31131744 -245.873215
v 122.218498 -4.95546389 -130.230057
v 6.46395711e-05 37.2206955 -396.075165
v -67.8884201 -8.11543369 -153.412781
v -43.5264778 -37.6120224 -54.253933
v -44.7632256 -22.2830696 -121.84967
v -43.5264778 -37.6120224 -54.253933
v -67.8884201 -8.11543369 -153.412781
v -122.218498 -4.95546389 -130.230133
v -122.218498 -4.95546389 -130.230133
v -67.8884201 -8.11543369 -153.412781
v -53.2301712 3.18841147 -217.560257
v -122.218498 -4.95546389 -130.230133
v -53.2301712 3.18841147 -217.560257
v -39.2222557 7.31131744 -245.873291
v -122.218498 -4.95546389 -130.230133
v -39.2222557 7.31131744 -245.873291
v 6.46395711e-05 37.2206955 -396.075165
v 55.914196 -23.3950653 -222.477646
v 39.2222557 7.31131744 -245.873215
v 38.9732666 -20.0382671 -250.308212
v 39.2222557 7.31131744 -245.873215
v 55.914196 -23.3950653 -222.477646
v 53.2302361 3.18841147 -217.560257
v 55.914196 -23.3950653 -222.477646
v 67.8884201 -8.11543369 -153.412781
v 53.2302361 3.18841147 -217.560257
v 67.8884201 -8.11543369 -153.412781
v 55.914196 -23.3950653 -222.477646
v 84.9469986 -35.2322502 -147.729858
v 84.9469986 -35.2322502 -147.729858
v 44.7631607 -22.2830696 -121.849602
v 67.8884201 -8.11543369 -153.412781
v 44.7631607 -22.2830696 -121.849602
v 84.9469986 -35.2322502 -147.729858
v 48.5608673 -55.1760178 -107.210747
v 38.9732666 -20.0382671 -250.308212
v 44.7631607 -22.2830696 -121.849602
v 48.5608673 -55.1760178 -107.210747
v 44.7631607 -22.2830696 -121.849602
v 38.9732666 -20.0382671 -250.308212
v 39.2222557 7.31131744 -245.873215
v 6.46395711e-05 37.2206955 -396.075165
v 125.919312 -22.0353069 -133.660217
v 6.46395711e-05 17.896822 -400
v 125.919312 -22.0353069 -133.660217
v 6.46395711e-05 37.2206955 -396.075165
v 122.218498 -4.95546389 -130.230057
v 43.526413 -37.6120224 -54.2538681
v 125.919312 -22.0353069 -133.660217
v 122.218498 -4.95546389 -130.230057
v 125.919312 -22.0353069 -133.660217
v 43.526413 -37.6120224 -54.2538681
v 52.0003395 -67.5793839 -57.4392395
v -6.46395711e-05 -50.358429 -41.8214149
v 52.0003395 -67.5793839 -57.4392395
v 43.526413 -37.6120224 -54.2538681
v 52.0003395 -67.5793839 -57.4392395
v -6.46395711e-05 -50.358429 -41.8214149
v -6.46395711e-05 -83.0073624 -43.2743835
v -125.919373 -22.0353069 -133.660355
v 6.46395711e-05 37.2206955 -396.075165
v 6.46395711e-05 17.896822 -400
v 6.46395711e-05 37.2206955 -396.075165
v -125.919373 -22.0353069 -133.660355
v -122.218498 -4.95546389 -130.230133
v -125.919373 -22.0353069 -133.660355
v -43.5264778 -37.6120224 -54.253933
v -122.218498 -4.95546389 -130.230133
v -43.5264778 -37.6120224 -54.253933
v -125.919373 -22.0353069 -133.660355
v -52.0004044 -67.5793839 -57.4393044
v -52.0004044 -67.5793839 -57.4393044
v -6.46395711e-05 -50.358429 -41.8214149
v -43.5264778 -37.6120224 -54.253933
v -6.46395711e-05 -50.358429 -41.8214149
v -52.0004044 -67.5793839 -57.4393044
v -6.46395711e-05 -83.0073624 -43.2743835
v 8.3918434e-15 -68.5268631 -98.7997742
v 52.0003395 -67.5793839 -57.4392395
v -6.46395711e-05 -83.0073624 -43.2743835
v 52.0003395 -67.5793839 -57.4392395
v 8.3918434e-15 -68.5268631 -98.7997742
v 48.5608673 -55.1760178 -107.210747
v 84.9469986 -35.2322502 -147.729858
v 52.0003395 -67.5793839 -57.4392395
v 48.5608673 -55.1760178 -107.210747
v 52.0003395 -67.5793839 -57.4392395
v 84.9469986 -35.2322502 -147.729858
v 125.919312 -22.0353069 -133.660217
v 125.919312 -22.0353069 -133.660217
v 84.9469986 -35.2322502 -147.729858
v 55.914196 -23.3950653 -222.477646
v 125.919312 -22.0353069 -133.660217
v 55.914196 -23.3950653 -222.477646
v 6.46395711e-05 17.896822 -400
v -52.0004044 -67.5793839 -57.4393044
v 8.3918434e-15 -68.5268631 -98.7997742
v -6.46395711e-05 -83.0073624 -43.2743835
v 8.3918434e-15 -68.5268631 -98.7997742
v -52.0004044 -67.5793839 -57.4393044
v -48.5609322 -55.1760178 -107.210747
v -38.9732018 -20.0382671 -250.308212
v 8.3918434e-15 -68.5268631 -98.7997742
v -48.5609322 -55.1760178 -107.210747
v 8.3918434e-15 -68.5268631 -98.7997742
v -38.9732018 -20.0382671 -250.308212
v 6.46395711e-05 -6.15640211 -338.069611
v 38.9732666 -20.0382671 -250.308212
v 8.3918434e-15 -68.5268631 -98.7997742
v 6.46395711e-05 -6.15640211 -338.069611
v 8.3918434e-15 -68.5268631 -98.7997742
v 38.9732666 -20.0382671 -250.308212
v 48.5608673 -55.1760178 -107.210747
v -52.0004044 -67.5793839 -57.4393044
v -84.9469986 -35.2322502 -147.729919
v -48.5609322 -55.1760178 -107.210747
v -84.9469986 -35.2322502 -147.729919
v -52.0004044 -67.5793839 -57.4393044
v -125.919373 -22.0353069 -133.660355
v -55.914196 -23.3950653 -222.477707
v -84.9469986 -35.2322502 -147.729919
v -125.919373 -22.0353069 -133.660355
v -55.914196 -23.3950653 -222.477707
v -125.919373 -22.0353069 -133.660355
v 6.46395711e-05 17.896822 -400
v 6.46395711e-05 17.896822 -400
v -38.9732018 -20.0382671 -250.308212
v -55.914196 -23.3950653 -222.477707
v -38.9732018 -20.0382671 -250.308212
v 6.46395711e-05 17.896822 -400
v 6.46395711e-05 -6.15640211 -338.069611
v 6.46395711e-05 17.896822 -400
v 38.9732666 -20.0382671 -250.308212
v 6.46395711e-05 -6.15640211 -338.069611
v 38.9732666 -20.0382671 -250.308212
v 6.46395711e-05 17.896822 -400
v 55.914196 -23.3950653 -222.477646
v -49.3568382 -37.966568 -48.5542068
v -116.211418 -30.3178349 -8.25970936
v -33.6924057 -50.7129784 -8.25977421
v -116.211418 -30.3178349 -8.25970936
v -49.3568382 -37.966568 -48.5542068
v -113.720528 -22.6376171 -53.0228729
v -113.720528 -22.6376171 -53.0228729
v -237.744156 6.95670509 -47.4819679
v -116.211418 -30.3178349 -8.25970936
v -237.744156 6.95670509 -47.4819679
v -387.946075 36.8661461 -8.25977421
v -116.211418 -30.3178349 -8.25970936
v -387.946075 36.8661461 -8.25977421
v -237.744156 6.95670509 30.9625492
v -116.211418 -30.3178349 -8.25970936
v -237.744156 6.95670509 30.9625492
v -113.720528 -22.6376171 36.5034523
v -116.211418 -30.3178349 -8.25970936
v -49.3568382 -37.966568 32.0347252
v -116.211418 -30.3178349 -8.25970936
v -113.720528 -22.6376171 36.5034523
v -116.211418 -30.3178349 -8.25970936
v -49.3568382 -37.966568 32.0347252
v -33.6924057 -50.7129784 -8.25977421
v -49.3568382 -37.966568 -48.5542068
v -145.283707 -8.46998215 -76.1480637
v -113.720528 -22.6376171 -53.0228729
v -145.283707 -8.46998215 -76.1480637
v -49.3568382 -37.966568 -48.5542068
v -122.101051 -5.31001139 -130.47821
v -209.431183 2.8338635 -61.4899445
v -145.283707 -8.46998215 -76.1480637
v -122.101051 -5.31001139 -130.47821
v -209.431183 2.8338635 -61.4899445
v -122.101051 -5.31001139 -130.47821
v -237.744156 6.95670509 -47.4819679
v -237.744156 6.95670509 -47.4819679
v -122.101051 -5.31001139 -130.47821
v -387.946075 36.8661461 -8.25977421
v -145.283707 -8.46998215 59.6286469
v -49.3568382 -37.966568 32.0347252
v -113.720528 -22.6376171 36.5034523
v -49.3568382 -37.966568 32.0347252
v -145.283707 -8.46998215 59.6286469
v -122.101051 -5.31001139 113.958656
v -122.101051 -5.31001139 113.958656
v -145.283707 -8.46998215 59.6286469
v -209.431183 2.8338635 44.9704628
v -122.101051 -5.31001139 113.958656
v -209.431183 2.8338635 44.9704628
v -237.744156 6.95670509 30.9625492
v -122.101051 -5.31001139 113.958656
v -237.744156 6.95670509 30.9625492
v -387.946075 36.8661461 -8.25977421
v -214.348648 -23.7496128 -64.173912
v -237.744156 6.95670509 -47.4819679
v -242.179138 -20.3928146 -47.232975
v -237.744156 6.95670509 -47.4819679
v -214.348648 -23.7496128 -64.173912
v -209.431183 2.8338635 -61.4899445
v -214.348648 -23.7496128 -64.173912
v -145.283707 -8.46998215 -76.1480637
v -209.431183 2.8338635 -61.4899445
v -145.283707 -8.46998215 -76.1480637
v -214.348648 -23.7496128 -64.173912
v -139.600861 -35.5867996 -93.2066422
v -139.600861 -35.5867996 -93.2066422
v -113.720528 -22.6376171 -53.0228729
v -145.283707 -8.46998215 -76.1480637
v -113.720528 -22.6376171 -53.0228729
v -139.600861 -35.5867996 -93.2066422
v -99.081665 -55.5305634 -56.8205757
v -242.179138 -20.3928146 -47.232975
v -113.720528 -22.6376171 -53.0228729
v -99.081665 -55.5305634 -56.8205757
v -113.720528 -22.6376171 -53.0228729
v -242.179138 -20.3928146 -47.232975
v -237.744156 6.95670509 -47.4819679
v -387.946075 36.8661461 -8.25977421
v -125.531212 -22.3898544 -134.179016
v -391.87088 17.5422745 -8.25977421
v -125.531212 -22.3898544 -134.179016
v -387.946075 36.8661461 -8.25977421
v -122.101051 -5.31001139 -130.47821
v -49.3568382 -37.966568 -48.5542068
v -125.531212 -22.3898544 -134.179016
v -122.101051 -5.31001139 -130.47821
v -125.531212 -22.3898544 -134.179016
v -49.3568382 -37.966568 -48.5542068
v -52.5422096 -67.9339218 -57.0281334
v -33.6924057 -50.7129784 -8.25977421
v -52.5422096 -67.9339218 -57.0281334
v -49.3568382 -37.966568 -48.5542068
v -52.5422096 -67.9339218 -57.0281334
v -33.6924057 -50.7129784 -8.25977421
v -35.1453743 -83.361908 -8.25977421
v -125.531212 -22.3898544 117.659668
v -387.946075 36.8661461 -8.25977421
v -391.87088 17.5422745 -8.25977421
v -387.946075 36.8661461 -8.25977421
v -125.531212 -22.3898544 117.659668
v -122.101051 -5.31001139 113.958656
v -125.531212 -22.3898544 117.659668
v -49.3568382 -37.966568 32.0347252
v -122.101051 -5.31001139 113.958656
v -49.3568382 -37.966568 32.0347252
v -125.531212 -22.3898544 117.659668
v -52.5422096 -67.9339218 40.5086517
v -52.5422096 -67.9339218 40.5086517
v -33.6924057 -50.7129784 -8.25977421
v -49.3568382 -37.966568 32.0347252
v -33.6924057 -50.7129784 -8.25977421
v -52.5422096 -67.9339218 40.5086517
v -35.1453743 -83.361908 -8.25977421
v -90.6707611 -68.8813477 -8.25970936
v -52.5422096 -67.9339218 -57.0281334
v -35.1453743 -83.361908 -8.25977421
v -52.5422096 -67.9339218 -57.0281334
v -90.6707611 -68.8813477 -8.25970936
v -99.081665 -55.5305634 -56.8205757
v -139.600861 -35.5867996 -93.2066422
v -52.5422096 -67.9339218 -57.0281334
v -99.081665 -55.5305634 -56.8205757
v -52.5422096 -67.9339218 -57.0281334
v -139.600861 -35.5867996 -93.2066422
v -125.531212 -22.3898544 -134.179016
v -125.531212 -22.3898544 -134.179016
v -139.600861 -35.5867996 -93.2066422
v -214.348648 -23.7496128 -64.173912
v -125.531212 -22.3898544 -134.179016
v -214.348648 -23.7496128 -64.173912
v -391.87088 17.5422745 -8.25977421
v -52.5422096 -67.9339218 40.5086517
v -90.6707611 -68.8813477 -8.25970936
v -35.1453743 -83.361908 -8.25977421
v -90.6707611 -68.8813477 -8.25970936
v -52.5422096 -67.9339218 40.5086517
v -99.0817337 -55.5305634 40.3011589
v -242.179138 -20.3928146 30.7134914
v -90.6707611 -68.8813477 -8.25970936
v -99.0817337 -55.5305634 40.3011589
v -90.6707611 -68.8813477 -8.25970936
v -242.179138 -20.3928146 30.7134914
v -329.940491 -6.51095009 -8.25977421
v -242.179138 -20.3928146 -47.232975
v -90.6707611 -68.8813477 -8.25970936
v -329.940491 -6.51095009 -8.25977421
v -90.6707611 -68.8813477 -8.25970936
v -242.179138 -20.3928146 -47.232975
v -99.081665 -55.5305634 -56.8205757
v -52.5422096 -67.9339218 40.5086517
v -139.600861 -35.5867996 76.6872253
v -99.0817337 -55.5305634 40.3011589
v -139.600861 -35.5867996 76.6872253
v -52.5422096 -67.9339218 40.5086517
v -125.531212 -22.3898544 117.659668
v -214.348648 -23.7496128 47.6544228
v -139.600861 -35.5867996 76.6872253
v -125.531212 -22.3898544 117.659668
v -214.348648 -23.7496128 47.6544228
v -125.531212 -22.3898544 117.659668
v -391.87088 17.5422745 -8.25977421
v -391.87088 17.5422745 -8.25977421
v -242.179138 -20.3928146 30.7134914
v -214.348648 -23.7496128 47.6544228
v -242.179138 -20.3928146 30.7134914
v -391.87088 17.5422745 -8.25977421
v -329.940491 -6.51095009 -8.25977421
v -391.87088 17.5422745 -8.25977421
v -242.179138 -20.3928146 -47.232975
v -329.940491 -6.51095009 -8.25977421
v -242.179138 -20.3928146 -47.232975
v -391.87088 17.5422745 -8.25977421
v -214.348648 -23.7496128 -64.173912
v 49.3568382 -37.966568 -48.5542068
v 33.6924057 -50.7129784 -8.25977421
v 116.211418 -30.3178349 -8.25970936
v 116.211418 -30.3178349 -8.25970936
v 113.720528 -22.6376171 -53.0228729
v 49.3568382 -37.966568 -48.5542068
v 113.720528 -22.6376171 -53.0228729
v 116.211418 -30.3178349 -8.25970936
v 237.744156 6.95670509 -47.4819679
v 237.744156 6.95670509 -47.4819679
v 116.211418 -30.3178349 -8.25970936
v 387.946075 36.8661461 -8.25977421
v 387.946075 36.8661461 -8.25977421
v 116.211418 -30.3178349 -8.25970936
v 237.744156 6.95670509 30.9625492
v 237.744156 6.95670509 30.9625492
v 116.211418 -30.3178349 -8.25970936
v 113.720528 -22.6376171 36.5034523
v 49.3568382 -37.966568 32.0347252
v 113.720528 -22.6376171 36.5034523
v 116.211418 -30.3178349 -8.25970936
v 116.211418 -30.3178349 -8.25970936
v 33.6924057 -50.7129784 -8.25977421
v 49.3568382 -37.966568 32.0347252
v 49.3568382 -37.966568 -48.5542068
v 113.720528 -22.6376171 -53.0228729
v 145.283707 -8.46998215 -76.1480637
v 145.283707 -8.46998215 -76.1480637
v 122.101051 -5.31001139 -130.47821
v 49.3568382 -37.966568 -48.5542068
v 209.431183 2.8338635 -61.4899445
v 122.101051 -5.31001139 -130.47821
v 145.283707 -8.46998215 -76.1480637
v 209.431183 2.8338635 -61.4899445
v 237.744156 6.95670509 -47.4819679
v 122.101051 -5.31001139 -130.47821
v 237.744156 6.95670509 -47.4819679
v 387.946075 36.8661461 -8.25977421
v 122.101051 -5.31001139 -130.47821
v 145.283707 -8.46998215 59.6286469
v 113.720528 -22.6376171 36.5034523
v 49.3568382 -37.966568 32.0347252
v 49.3568382 -37.966568 32.0347252
v 122.101051 -5.31001139 113.958656
v 145.283707 -8.46998215 59.6286469
v 122.101051 -5.31001139 113.958656
v 209.431183 2.8338635 44.9704628
v 145.283707 -8.46998215 59.6286469
v 122.101051 -5.31001139 113.958656
v 237.744156 6.95670509 30.9625492
v 209.431183 2.8338635 44.9704628
v 122.101051 -5.31001139 113.958656
v 387.946075 36.8661461 -8.25977421
v 237.744156 6.95670509 30.9625492
v 214.348648 -23.7496128 -64.173912
v 242.179138 -20.3928146 -47.232975
v 237.744156 6.95670509 -47.4819679
v 237.744156 6.95670509 -47.4819679
v 209.431183 2.8338635 -61.4899445
v 214.348648 -23.7496128 -64.173912
v 214.348648 -23.7496128 -64.173912
v 209.431183 2.8338635 -61.4899445
v 145.283707 -8.46998215 -76.1480637
v 145.283707 -8.46998215 -76.1480637
v 139.600861 -35.5867996 -93.2066422
v 214.348648 -23.7496128 -64.173912
v 139.600861 -35.5867996 -93.2066422
v 145.283707 -8.46998215 -76.1480637
v 113.720528 -22.6376171 -53.0228729
v 113.720528 -22.6376171 -53.0228729
v 99.081665 -55.5305634 -56.8205757
v 139.600861 -35.5867996 -93.2066422
v 242.179138 -20.3928146 -47.232975
v 99.081665 -55.5305634 -56.8205757
v 113.720528 -22.6376171 -53.0228729
v 113.720528 -22.6376171 -53.0228729
v 237.744156 6.95670509 -47.4819679
v 242.179138 -20.3928146 -47.232975
v 387.946075 36.8661461 -8.25977421
v 391.87088 17.5422745 -8.25977421
v 125.531212 -22.3898544 -134.179016
v 125.531212 -22.3898544 -134.179016
v 122.101051 -5.31001139 -130.47821
v 387.946075 36.8661461 -8.25977421
v 49.3568382 -37.966568 -48.5542068
v 122.101051 -5.31001139 -130.47821
v 125.531212 -22.3898544 -134.179016
v 125.531212 -22.3898544 -134.179016
v 52.5422096 -67.9339218 -57.0281334
v 49.3568382 -37.966568 -48.5542068
v 33.6924057 -50.7129784 -8.25977421
v 49.3568382 -37.966568 -48.5542068
v 52.5422096 -67.9339218 -57.0281334
v 52.5422096 -67.9339218 -57.0281334
v 35.1453743 -83.361908 -8.25977421
v 33.6924057 -50.7129784 -8.25977421
v 125.531212 -22.3898544 117.659668
v 391.87088 17.5422745 -8.25977421
v 387.946075 36.8661461 -8.25977421
v 387.946075 36.8661461 -8.25977421
v 122.101051 -5.31001139 113.958656
v 125.531212 -22.3898544 117.659668
v 125.531212 -22.3898544 117.659668
v 122.101051 -5.31001139 113.958656
v 49.3568382 -37.966568 32.0347252
v 49.3568382 -37.966568 32.0347252
v 52.5422096 -67.9339218 40.5086517
v 125.531212 -22.3898544 117.659668
v 52.5422096 -67.9339218 40.5086517
v 49.3568382 -37.966568 32.0347252
v 33.6924057 -50.7129784 -8.25977421
v 33.6924057 -50.7129784 -8.25977421
v 35.1453743 -83.361908 -8.25977421
v 52.5422096 -67.9339218 40.5086517
v 90.6707611 -68.8813477 -8.25970936
v 35.1453743 -83.361908 -8.25977421
v 52.5422096 -67.9339218 -57.0281334
v 52.5422096 -67.9339218 -57.0281334
v 99.081665 -55.5305634 -56.8205757
v 90.6707611 -68.8813477 -8.25970936
v 139.600861 -35.5867996 -93.2066422
v 99.081665 -55.5305634 -56.8205757
v 52.5422096 -67.9339218 -57.0281334
v 52.5422096 -67.9339218 -57.0281334
v 125.531212 -22.3898544 -134.179016
v 139.600861 -35.5867996 -93.2066422
v 125.531212 -22.3898544 -134.179016
v 214.348648 -23.7496128 -64.173912
v 139.600861 -35.5867996 -93.2066422
v 125.531212 -22.3898544 -134.179016
v 391.87088 17.5422745 -8.25977421
v 214.348648 -23.7496128 -64.173912
v 52.5422096 -67.9339218 40.5086517
v 35.1453743 -83.361908 -8.25977421
v 90.6707611 -68.8813477 -8.25970936
v 90.6707611 -68.8813477 -8.25970936
v 99.0817337 -55.5305634 40.3011589
v 52.5422096 -67.9339218 40.5086517
v 242.179138 -20.3928146 30.7134914
v 99.0817337 -55.5305634 40.3011589
v 90.6707611 -68.8813477 -8.25970936
v 90.6707611 -68.8813477 -8.25970936
v 329.940491 -6.51095009 -8.25977421
v 242.179138 -20.3928146 30.7134914
v 242.179138 -20.3928146 -47.232975
v 329.940491 -6.51095009 -8.25977421
v 90.6707611 -68.8813477 -8.25970936
v 90.6707611 -68.8813477 -8.25970936
v 99.081665 -55.5305634 -56.8205757
v 242.179138 -20.3928146 -47.232975
v 52.5422096 -67.9339218 40.5086517
v 99.0817337 -55.5305634 40.3011589
v 139.600861 -35.5867996 76.6872253
v 139.600861 -35.5867996 76.6872253
v 125.531212 -22.3898544 117.659668
v 52.5422096 -67.9339218 40.5086517
v 214.348648 -23.7496128 47.6544228
v 125.531212 -22.3898544 117.659668
v 139.600861 -35.5867996 76.6872253
v 214.348648 -23.7496128 47.6544228
v 391.87088 17.5422745 -8.25977421
v 125.531212 -22.3898544 117.659668
v 391.87088 17.5422745 -8.25977421
v 214.348648 -23.7496128 47.6544228
v 242.179138 -20.3928146 30.7134914
v 242.179138 -20.3928146 30.7134914
v 329.940491 -6.51095009 -8.25977421
v 391.87088 17.5422745 -8.25977421
v 391.87088 17.5422745 -8.25977421
v 329.940491 -6.51095009 -8.25977421
v 242.179138 -20.3928146 -47.232975
v 242.179138 -20.3928146 -47.232975
v 214.348648 -23.7496128 -64.173912
v 391.87088 17.5422745 -8.25977421
v -43.5264778 -37.6120224 38.0306931
v 3.66932301e-15 -29.9632874 108.117241
v 6.16692544e-15 -50.358429 25.598175
v 3.66932301e-15 -29.9632874 108.117241
v -43.5264778 -37.6120224 38.0306931
v -44.7631607 -22.2830696 105.626358
v -44.7631607 -22.2830696 105.626358
v -39.2222557 7.31131744 229.650055
v 3.66932301e-15 -29.9632874 108.117241
v -39.2222557 7.31131744 229.650055
v -4.55807021e-15 37.2206955 379.85199
v 3.66932301e-15 -29.9632874 108.117241
v -4.55807021e-15 37.2206955 379.85199
v 39.2222557 7.31131744 229.650055
v 3.66932301e-15 -29.9632874 108.117241
v 39.2222557 7.31131744 229.650055
v 44.7631607 -22.2830696 105.626358
v 3.66932301e-15 -29.9632874 108.117241
v 43.5264778 -37.6120224 38.0306931
v 3.66932301e-15 -29.9632874 108.117241
v 44.7631607 -22.2830696 105.626358
v 3.66932301e-15 -29.9632874 108.117241
v 43.5264778 -37.6120224 38.0306931
v 6.16692544e-15 -50.358429 25.598175
v -43.5264778 -37.6120224 38.0306931
v -67.8884201 -8.11543369 137.189606
v -44.7631607 -22.2830696 105.626358
v -67.8884201 -8.11543369 137.189606
v -43.5264778 -37.6120224 38.0306931
v -122.218498 -4.95546389 114.006882
v -53.2302361 3.18841147 201.337067
v -67.8884201 -8.11543369 137.189606
v -122.218498 -4.95546389 114.006882
v -53.2302361 3.18841147 201.337067
v -122.218498 -4.95546389 114.006882
v -39.2222557 7.31131744 229.650055
v -39.2222557 7.31131744 229.650055
v -122.218498 -4.95546389 114.006882
v -4.55807021e-15 37.2206955 379.85199
v 67.8884201 -8.11543369 137.189606
v 43.5264778 -37.6120224 38.0306931
v 44.7631607 -22.2830696 105.626358
v 43.5264778 -37.6120224 38.0306931
v 67.8884201 -8.11543369 137.189606
v 122.218498 -4.95546389 114.006882
v 122.218498 -4.95546389 114.006882
v 67.8884201 -8.11543369 137.189606
v 53.2302361 3.18841147 201.337067
v 122.218498 -4.95546389 114.006882
v 53.2302361 3.18841147 201.337067
v 39.2222557 7.31131744 229.650055
v 122.218498 -4.95546389 114.006882
v 39.2222557 7.31131744 229.650055
v -4.55807021e-15 37.2206955 379.85199
v -55.914196 -23.3951302 206.254471
v -39.2222557 7.31131744 229.650055
v -38.9732018 -20.0382671 234.084961
v -39.2222557 7.31131744 229.650055
v -55.914196 -23.3951302 206.254471
v -53.2302361 3.18841147 201.337067
v -55.914196 -23.3951302 206.254471
v -67.8884201 -8.11543369 137.189606
v -53.2302361 3.18841147 201.337067
v -67.8884201 -8.11543369 137.189606
v -55.914196 -23.3951302 206.254471
v -84.9469986 -35.2322502 131.506683
v -84.9469986 -35.2322502 131.506683
v -44.7631607 -22.2830696 105.626358
v -67.8884201 -8.11543369 137.189606
v -44.7631607 -22.2830696 105.626358
v -84.9469986 -35.2322502 131.506683
v -48.5608673 -55.1760178 90.9875031
v -38.9732018 -20.0382671 234.084961
v -44.7631607 -22.2830696 105.626358
v -48.5608673 -55.1760178 90.9875031
v -44.7631607 -22.2830696 105.626358
v -38.9732018 -20.0382671 234.084961
v -39.2222557 7.31131744 229.650055
v -4.55807021e-15 37.2206955 379.85199
v -125.919373 -22.0353069 117.437042
v -2.19165625e-15 17.896822 383.776825
v -125.919373 -22.0353069 117.437042
v -4.55807021e-15 37.2206955 379.85199
v -122.218498 -4.95546389 114.006882
v -43.5264778 -37.6120224 38.0306931
v -125.919373 -22.0353069 117.437042
v -122.218498 -4.95546389 114.006882
v -125.919373 -22.0353069 117.437042
v -43.5264778 -37.6120224 38.0306931
v -52.0004044 -67.5793839 41.2160645
v 6.16692544e-15 -50.358429 25.598175
v -52.0004044 -67.5793839 41.2160645
v -43.5264778 -37.6120224 38.0306931
v -52.0004044 -67.5793839 41.2160645
v 6.16692544e-15 -50.358429 25.598175
v 1.01651348e-14 -83.0073624 27.0511436
v 125.919373 -22.0353069 117.437042
v -4.55807021e-15 37.2206955 379.85199
v -2.19165625e-15 17.896822 383.776825
v -4.55807021e-15 37.2206955 379.85199
v 125.919373 -22.0353069 117.437042
v 122.218498 -4.95546389 114.006882
v 125.919373 -22.0353069 117.437042
v 43.5264778 -37.6120224 38.0306931
v 122.218498 -4.95546389 114.006882
v 43.5264778 -37.6120224 38.0306931
v 125.919373 -22.0353069 117.437042
v 52.0004044 -67.5793839 41.2160645
v 52.0004044 -67.5793839 41.2160645
v 6.16692544e-15 -50.358429 25.598175
v 43.5264778 -37.6120224 38.0306931
v 6.16692544e-15 -50.358429 25.598175
v 52.0004044 -67.5793839 41.2160645
v 1.01651348e-14 -83.0073624 27.0511436
v 8.3918434e-15 -68.5268631 82.5765381
v -52.0004044 -67.5793839 41.2160645
v 1.01651348e-14 -83.0073624 27.0511436
v -52.0004044 -67.5793839 41.2160645
v 8.3918434e-15 -68.5268631 82.5765381
v -48.5608673 -55.1760178 90.9875031
v -84.9469986 -35.2322502 131.506683
v -52.0004044 -67.5793839 41.2160645
v -48.5608673 -55.1760178 90.9875031
v -52.0004044 -67.5793839 41.2160645
v -84.9469986 -35.2322502 131.506683
v -125.919373 -22.0353069 117.437042
v -125.919373 -22.0353069 117.437042
v -84.9469986 -35.2322502 131.506683
v -55.914196 -23.3951302 206.254471
v -125.919373 -22.0353069 117.437042
v -55.914196 -23.3951302 206.254471
v -2.19165625e-15 17.896822 383.776825
v 52.0004044 -67.5793839 41.2160645
v 8.3918434e-15 -68.5268631 82.5765381
v 1.01651348e-14 -83.0073624 27.0511436
v 8.3918434e-15 -68.5268631 82.5765381
v 52.0004044 -67.5793839 41.2160645
v 48.5608673 -55.1760178 90.9875031
v 38.9732018 -20.0382671 234.084961
v 8.3918434e-15 -68.5268631 82.5765381
v 48.5608673 -55.1760178 90.9875031
v 8.3918434e-15 -68.5268631 82.5765381
v 38.9732018 -20.0382671 234.084961
v 7.53916921e-16 -6.15640211 321.846436
v -38.9732018 -20.0382671 234.084961
v 8.3918434e-15 -68.5268631 82.5765381
v 7.53916921e-16 -6.15640211 321.846436
v 8.3918434e-15 -68.5268631 82.5765381
v -38.9732018 -20.0382671 234.084961
v -48.5608673 -55.1760178 90.9875031
v 52.0004044 -67.5793839 41.2160645
v 84.9469986 -35.2322502 131.506683
v 48.5608673 -55.1760178 90.9875031
v 84.9469986 -35.2322502 131.506683
v 52.0004044 -67.5793839 41.2160645
v 125.919373 -22.0353069 117.437042
v 55.914196 -23.3951302 206.254471
v 84.9469986 -35.2322502 131.506683
v 125.919373 -22.0353069 117.437042
v 55.914196 -23.3951302 206.254471
v 125.919373 -22.0353069 117.437042
v -2.19165625e-15 17.896822 383.776825
v -2.19165625e-15 17.896822 383.776825
v 38.9732018 -20.0382671 234.084961
v 55.914196 -23.3951302 206.254471
v 38.9732018 -20.0382671 234.084961
v -2.19165625e-15 17.896822 383.776825
v 7.53916921e-16 -6.15640211 321.846436
v -2.19165625e-15 17.896822 383.776825
v -38.9732018 -20.0382671 234.084961
v 7.53916921e-16 -6.15640211 321.846436
v -38.9732018 -20.0382671 234.084961
v -2.19165625e-15 17.896822 383.776825
v -55.914196 -23.3951302 206.254471
v -17.3400822 -126.808365 -76.1750183
v 1.65885389e-14 -135.460175 -100.224106
v 1.76977099e-14 -144.517532 -93.8192368
v 1.65885389e-14 -135.460175 -100.224106
v -17.3400822 -126.808365 -76.1750183
v -13.8892984 -118.690605 -81.914299
v -17.3400822 -126.808365 -76.1750183
v -32.2153282 -76.5784378 -26.3125076
v -13.8892984 -118.690605 -81.914299
v -32.2153282 -76.5784378 -26.3125076
v -17.3400822 -126.808365 -76.1750183
v -38.8128281 -79.5630417 -12.9936533
v 9.93791146e-15 -81.151886 -25.2475052
v -13.8892984 -118.690605 -81.914299
v -32.2153282 -76.5784378 -26.3125076
v -13.8892984 -118.690605 -81.914299
v 9.93791146e-15 -81.151886 -25.2475052
v 1.65885389e-14 -135.460175 -100.224106
v 9.93791146e-15 -81.151886 -25.2475052
v 13.8892984 -118.690605 -81.914299
v 1.65885389e-14 -135.460175 -100.224106
v 13.8892984 -118.690605 -81.914299
v 9.93791146e-15 -81.151886 -25.2475052
v 32.2153282 -76.5784378 -26.3125076
v 17.3400822 -126.808365 -76.1750183
v 32.2153282 -76.5784378 -26.3125076
v 38.8128281 -79.5630417 -12.9936533
v 32.2153282 -76.5784378 -26.3125076
v 17.3400822 -126.808365 -76.1750183
v 13.8892984 -118.690605 -81.914299
v 17.3400822 -126.808365 -76.1750183
v 1.65885389e-14 -135.460175 -100.224106
v 13.8892984 -118.690605 -81.914299
v 1.65885389e-14 -135.460175 -100.224106
v 17.3400822 -126.808365 -76.1750183
v 1.76977099e-14 -144.517532 -93.8192368
v 1.01739363e-14 -83.0792389 -8.99802208
v -32.2153282 -76.5784378 -26.3125076
v -38.8128281 -79.5630417 -12.9936533
v -32.2153282 -76.5784378 -26.3125076
v 1.01739363e-14 -83.0792389 -8.99802208
v 9.93791146e-15 -81.151886 -25.2475052
v 1.01739363e-14 -83.0792389 -8.99802208
v 32.2153282 -76.5784378 -26.3125076
v 9.93791146e-15 -81.151886 -25.2475052
v 32.2153282 -76.5784378 -26.3125076
v 1.01739363e-14 -83.0792389 -8.99802208
v 38.8128281 -79.5630417 -12.9936533
v 1.01739363e-14 -83.0792389 -8.99802208
v 17.3400822 -126.808365 -76.1750183
v 38.8128281 -79.5630417 -12.9936533
v 17.3400822 -126.808365 -76.1750183
v 1.01739363e-14 -83.0792389 -8.99802208
v 1.76977099e-14 -144.517532 -93.8192368
v 1.01739363e-14 -83.0792389 -8.99802208
v -17.3400822 -126.808365 -76.1750183
v 1.76977099e-14 -144.517532 -93.8192368
v -17.3400822 -126.808365 -76.1750183
v 1.01739363e-14 -83.0792389 -8.99802208
v -38.8128281 -79.5630417 -12.9936533
v -17.3400822 3.28142786 -76.1750183
v -2.57052244e-15 20.9906006 -93.8192978
v -1.46135227e-15 11.9332409 -100.224106
v -1.46135227e-15 11.9332409 -100.224106
v -13.8892984 -4.8363328 -81.9143677
v -17.3400822 3.28142786 -76.1750183
v -17.3400822 3.28142786 -76.1750183
v -13.8892984 -4.8363328 -81.9143677
v -32.2153282 -46.948494 -26.3125076
v -32.2153282 -46.948494 -26.3125076
v -38.8128281 -43.9638939 -12.9936533
v -17.3400822 3.28142786 -76.1750183
v 5.1892762e-15 -42.3750534 -25.2475719
v -32.2153282 -46.948494 -26.3125076
v -13.8892984 -4.8363328 -81.9143677
v -13.8892984 -4.8363328 -81.9143677
v -1.46135227e-15 11.9332409 -100.224106
v 5.1892762e-15 -42.3750534 -25.2475719
v 5.1892762e-15 -42.3750534 -25.2475719
v -1.46135227e-15 11.9332409 -100.224106
v 13.8892984 -4.8363328 -81.9143677
v 13.8892984 -4.8363328 -81.9143677
v 32.2153282 -46.948494 -26.3125076
v 5.1892762e-15 -42.3750534 -25.2475719
v 17.3400822 3.28142786 -76.1750183
v 38.8128281 -43.9638939 -12.9936533
v 32.2153282 -46.948494 -26.3125076
v 32.2153282 -46.948494 -26.3125076
v 13.8892984 -4.8363328 -81.9143677
v 17.3400822 3.28142786 -76.1750183
v 17.3400822 3.28142786 -76.1750183
v 13.8892984 -4.8363328 -81.9143677
v -1.46135227e-15 11.9332409 -100.224106
v -1.46135227e-15 11.9332409 -100.224106
v -2.57052244e-15 20.9906006 -93.8192978
v 17.3400822 3.28142786 -76.1750183
v 4.95325089e-15 -40.4476967 -8.99802208
v -38.8128281 -43.9638939 -12.9936533
v -32.2153282 -46.948494 -26.3125076
v -32.2153282 -46.948494 -26.3125076
v 5.1892762e-15 -42.3750534 -25.2475719
v 4.95325089e-15 -40.4476967 -8.99802208
v 4.95325089e-15 -40.4476967 -8.99802208
v 5.1892762e-15 -42.3750534 -25.2475719
v 32.2153282 -46.948494 -26.3125076
v 32.2153282 -46.948494 -26.3125076
v 38.8128281 -43.9638939 -12.9936533
v 4.95325089e-15 -40.4476967 -8.99802208
v 4.95325089e-15 -40.4476967 -8.99802208
v 38.8128281 -43.9638939 -12.9936533
v 17.3400822 3.28142786 -76.1750183
v 17.3400822 3.28142786 -76.1750183
v -2.57052244e-15 20.9906006 -93.8192978
v 4.95325089e-15 -40.4476967 -8.99802208
v 4.95325089e-15 -40.4476967 -8.99802208
v -2.57052244e-15 20.9906006 -93.8192978
v -17.3400822 3.28142786 -76.1750183
v -17.3400822 3.28142786 -76.1750183
v -38.8128281 -43.9638939 -12.9936533
v 4.95325089e-15 -40.4476967 -8.99802208

# 73 UV coordinates
vt 0.897000015 0.904699981 0
vt 0.912699997 0.949000001 0
vt 0.895900011 0.950900018 0
vt 0.912999988 0.905699968 0
vt 0.913900018 0.796200037 0
vt 0.897000015 0.780499995 0
vt 0.840399981 0.754400015 0
vt 0.790499985 0.772799969 0
vt 0.827799976 0.73269999 0
vt 0.780200005 0.791999996 0
vt 0.801999986 0.791199982 0
vt 0.854399979 0.775200009 0
vt 0.858900011 0.742900014 0
vt 0.835799992 0.727800012 0
vt 0.842499971 0.718800008 0
vt 0.84829998 0.749500036 0
vt 0.862299979 0.770300031 0
vt 0.873300016 0.76819998 0
vt 0.901000023 0.597200036 0
vt 0.873899996 0.718800008 0
vt 0.841400027 0.598699987 0
vt 0.901000023 0.756399989 0
vt 0.92809999 0.718999982 0
vt 0.960699975 0.599099994 0
vt 0.326900005 0.566399992 0
vt 0.296799988 0.547699988 0
vt 0.335200012 0.547699988 0
vt 0.296999991 0.568300009 0
vt 0.239299998 0.565699995 0
vt 0.170100003 0.547699988 0
vt 0.239299998 0.529700041 0
vt 0.296999991 0.527199984 0
vt 0.326900005 0.529100001 0
vt 0.281599998 0.579100013 0
vt 0.291500002 0.603999972 0
vt 0.252200007 0.5722 0
vt 0.281599998 0.516299963 0
vt 0.291500002 0.491400003 0
vt 0.252200007 0.523200035 0
vt 0.30219999 0.664299965 0
vt 0.320499986 0.631199956 0
vt 0.329899997 0.654199958 0
vt 0.29370001 0.64139998 0
vt 0.237800002 0.662999988 0
vt 0.234899998 0.692099988 0
vt 0.200399995 0.664099991 0
vt 0.182799995 0.691500008 0
vt 0.138799995 0.566300035 0
vt 0.161500007 0.556200027 0
vt 0.0329999998 0.229600012 0
vt 0.0168999992 0.497799993 0
vt 0.0151000004 0.228900015 0
vt 0.0329999998 0.496999979 0
vt 0.0377000012 0.600399971 0
vt 0.00949999969 0.602100015 0
vt 0.0405000001 0.641000032 0
vt 0.0126 0.650900006 0
vt 0.0970999971 0.42869997 0
vt 0.0632999986 0.474600017 0
vt 0.0443000011 0.42869997 0
vt 0.107600003 0.47420001 0
vt 0.148599997 0.50880003 0
vt 0.139799997 0.549299955 0
vt 0.215900004 0.48089999 0
vt 0.380100012 0.42869997 0
vt 0.0632999986 0.382799983 0
vt 0.107600003 0.38319999 0
vt 0.240799993 0.392400026 0
vt 0.320199996 0.42869997 0
vt 0.240799993 0.464999974 0
vt 0.148599997 0.34859997 0
vt 0.139799997 0.308099985 0
vt 0.215900004 0.376399994 0

# 352 vertex normals
vn 0.882049859 -0.0312395729 0.470119298
vn 0.860148251 -0.125820115 0.49428159
vn 0.851444662 -0.187196091 0.489897579
vn 0.879348874 -0.00957847666 0.476081848
vn 0.895108581 0.0634951517 0.441303641
vn 0.899721265 0.0821212679 0.428669721
vn -9.96337327e-17 0.813597977 0.581427753
vn -0.0785602331 0.811083496 0.579630852
vn -0.100197434 0.811438799 0.575784326
vn -9.93952466e-17 0.811650574 0.584143221
vn 0.0785602331 0.811083496 0.579630852
vn 0.100197434 0.811438799 0.575784326
vn -0.882052183 -0.0312152654 0.470116526
vn -0.895110905 0.0635105595 0.441296786
vn -0.899725199 0.0821520239 0.428655595
vn -0.879348874 -0.00956175383 0.476081938
vn -0.860151827 -0.125787139 0.494283676
vn -0.851450026 -0.187163651 0.489900678
vn -1.22105729e-16 0.982918978 -0.184038743
vn -0.0433740653 0.981994033 -0.183865547
vn -0.0533065684 0.977376103 -0.204681203
vn -1.20822063e-16 0.986619592 -0.163039267
vn 0.0433740653 0.981994033 -0.183865547
vn 0.0533065684 0.977376103 -0.204681203
vn 9.63888488e-17 -0.815534055 -0.578709126
vn -0.0818634704 -0.812796712 -0.576766729
vn -0.103500158 -0.813091397 -0.572861373
vn 9.96320122e-17 -0.81358391 -0.581447423
vn 0.0818634704 -0.812796712 -0.576766729
vn 0.103500158 -0.813091397 -0.572861373
vn 0.879769504 0.0518565848 0.472563833
vn 0.839551389 0.231813669 0.491340876
vn 0.851861596 0.170623049 0.495196462
vn 0.878061533 0.0301711094 0.477595717
vn 0.894119143 -0.0675052255 0.442712039
vn 0.898504138 -0.0863451511 0.430389136
vn 9.5708946e-17 -0.809981048 0.58645612
vn -0.103205033 -0.80775404 0.580415487
vn -0.0813630819 -0.807295561 0.584511697
vn 9.89321049e-17 -0.80786854 0.589362681
vn 0.0813630819 -0.807295561 0.584511697
vn 0.103205033 -0.80775404 0.580415487
vn -0.879768968 0.0518587865 0.472564638
vn -0.898517072 -0.0863463879 0.430361897
vn -0.89412576 -0.0675058514 0.442698538
vn -0.878057361 0.0301727075 0.477603078
vn -0.851852298 0.170627967 0.495210797
vn -0.839541495 0.231820241 0.491354823
vn 1.20065676e-16 -0.980442941 -0.19680351
vn -0.0315543935 -0.97551775 -0.217645258
vn -0.0215551518 -0.980215192 -0.196757808
vn 1.19686602e-16 -0.98443085 -0.175772145
vn 0.0215551518 -0.980215192 -0.196757808
vn 0.0315543935 -0.97551775 -0.217645258
vn -1.02455815e-16 0.808190167 -0.588921607
vn -0.112015262 0.805854201 -0.58142215
vn -0.0893834457 0.804955184 -0.586564302
vn -9.86317391e-17 0.805415869 -0.592710137
vn 0.0893834457 0.804955184 -0.586564302
vn 0.112015262 0.805854201 -0.58142215
vn -0.154496774 0.961550951 0.227047727
vn -1.1379615e-16 0.971994102 0.235005379
vn -1.19034308e-16 0.972020984 0.234894425
vn -0.161811531 0.960117221 0.228017554
vn -0.11999698 0.965196311 0.23237206
vn -1.18979317e-16 0.971571803 0.236744806
vn 0.11999698 0.965196311 0.23237206
vn 0.161811531 0.960117221 0.228017554
vn 0.154496774 0.961550951 0.227047727
vn -0.1934838 0.955821395 0.221290484
vn -0.164507955 0.960383236 0.224946916
vn -0.173457965 0.959451854 0.222181201
vn 0.1934838 0.955821395 0.221290484
vn 0.164507955 0.960383236 0.224946916
vn 0.173457965 0.959451854 0.222181201
vn -0.935839891 -0.249605685 0.24879843
vn -0.899733424 -0.148602143 0.410362184
vn -0.885504901 -0.135631442 0.444393039
vn -0.932351053 -0.21623078 0.289768457
vn -0.86991781 -0.468677998 -0.153570741
vn -0.545527101 -0.607163846 -0.577712834
vn -0.254083037 -0.604608595 -0.754910707
vn 0.0636288449 -0.525250793 -0.84856528
vn 0.844109476 -0.211291835 -0.492782891
vn 0.725252807 -0.267318934 -0.634467423
vn 0.931446671 -0.147375017 -0.3326976
vn 0.982401133 0.154926285 -0.104335807
vn 0.958111525 0.133567721 0.253341287
vn 0.966997683 0.138943046 -0.213565767
vn 0.961401045 0.147892714 0.232025579
vn 0.70029068 0.0671869144 0.710689008
vn 0.498180479 0.0205161534 0.866830587
vn 0.3778705 -0.00378740672 0.925850749
vn 0.330720931 -0.0145202717 0.943616867
vn -0.958111525 0.133567721 0.253341287
vn -0.982401133 0.154926285 -0.104335807
vn -0.966997683 0.138943046 -0.213565767
vn -0.961401045 0.147892714 0.232025579
vn -0.70029068 0.0671869144 0.710689008
vn -0.498180479 0.0205161534 0.866830587
vn -0.3778705 -0.00378740672 0.925850749
vn -0.330720931 -0.0145202717 0.943616867
vn 1.21578106e-16 -0.964188159 -0.265219212
vn 0.213721752 -0.944408774 -0.249829933
vn 1.18537457e-16 -0.967963815 -0.251089722
vn 0.203489691 -0.945765853 -0.253217012
vn 0.32381016 -0.91057086 -0.256919861
vn 0.321658045 -0.903938651 -0.281835318
vn 0.290335983 -0.907068968 -0.304845631
vn 1.15779742e-16 -0.945444524 -0.325782925
vn -0.213721752 -0.944408774 -0.249829933
vn -0.203489691 -0.945765853 -0.253217012
vn -0.153349698 -0.94231236 -0.297541976
vn 1.16704305e-16 -0.952994347 -0.302987963
vn 0.153349698 -0.94231236 -0.297541976
vn -0.32381016 -0.91057086 -0.256919861
vn -0.321658045 -0.903938651 -0.281835318
vn -0.290335983 -0.907068968 -0.304845631
vn 0.22741574 0.961378098 0.155029982
vn 0.235071748 0.971978068 3.49021084e-18
vn 0.23539336 0.971900165 0
vn 0.227868304 0.959948778 0.163016722
vn 0.232495442 0.96511507 0.120411053
vn 0.237013966 0.971506238 0
vn 0.232495442 0.96511507 -0.120411053
vn 0.227868304 0.959948778 -0.163016722
vn 0.22741574 0.961378098 -0.155029982
vn 0.221857041 0.955620229 0.193828315
vn 0.225543216 0.960231066 0.164579779
vn 0.222693428 0.959315658 0.173554435
vn 0.221857041 0.955620229 -0.193828315
vn 0.225543216 0.960231066 -0.164579779
vn 0.222693428 0.959315658 -0.173554435
vn 0.24879843 -0.249605685 0.935839891
vn 0.410362184 -0.148602143 0.899733424
vn 0.444393039 -0.135631442 0.885504901
vn 0.289768457 -0.21623078 0.932351053
vn -0.153570741 -0.468677998 0.86991781
vn -0.577712834 -0.607163846 0.545527101
vn -0.754910707 -0.604608595 0.254083037
vn -0.84856528 -0.525250793 -0.0636288449
vn -0.492782891 -0.211291835 -0.844109476
vn -0.634467423 -0.267318934 -0.725252807
vn -0.3326976 -0.147375017 -0.931446671
vn -0.0943186805 0.152951822 -0.983722389
vn 0.257553786 0.132028773 -0.957201421
vn -0.20716688 0.137669116 -0.968570709
vn 0.241846472 0.145540729 -0.959337354
vn 0.699686408 0.0689561665 -0.711114585
vn 0.847113669 0.0245765597 -0.530843139
vn 0.905123115 0.00169383606 -0.425146222
vn 0.921827793 -0.0100866649 -0.387468249
vn 0.257554293 0.132010207 0.957203805
vn -0.094318606 0.152934715 0.983725011
vn -0.20716688 0.137669116 0.968570709
vn 0.241847545 0.145505428 0.95934242
vn 0.699686646 0.0689440817 0.711115539
vn 0.847113669 0.0245765597 0.530843139
vn 0.905123115 0.00169383606 0.425146222
vn 0.921827793 -0.0100866649 0.387468249
vn -0.265594155 -0.964084923 0
vn -0.249603897 -0.944666207 -0.212846771
vn -0.251333147 -0.967900634 0
vn -0.253438294 -0.945850968 -0.20281738
vn -0.25586161 -0.911022067 -0.323378593
vn -0.280720025 -0.904339671 -0.321505994
vn -0.304173291 -0.907269835 -0.290413648
vn -0.325578809 -0.945514917 0
vn -0.249603897 -0.944666207 0.212846771
vn -0.253438294 -0.945850968 0.20281738
vn -0.297718793 -0.942262053 0.153316066
vn -0.303090006 -0.952961922 0
vn -0.297718793 -0.942262053 -0.153316066
vn -0.25586161 -0.911022067 0.323378593
vn -0.280720025 -0.904339671 0.321505994
vn -0.304173291 -0.907269835 0.290413648
vn -0.221779868 0.962569058 0.155802667
vn -0.233426169 0.972374022 -0.0010691901
vn -0.233093336 0.972453773 -0.00106505246
vn -0.221578389 0.96021378 0.169977739
vn -0.235331029 0.963741243 0.125785574
vn -0.240082234 0.970752478 -0.000535879284
vn -0.235299394 0.96361059 -0.126841843
vn -0.221523091 0.9599787 -0.171372071
vn -0.221741989 0.962406933 -0.156854123
vn -0.216405526 0.956857741 0.19388631
vn -0.227664471 0.959585011 0.165425763
vn -0.226359069 0.95826441 0.174616382
vn -0.216405526 0.956857741 -0.19388631
vn -0.227664471 0.959585011 -0.165425763
vn -0.226359069 0.95826441 -0.174616382
vn -0.233306453 -0.246682629 0.940593243
vn -0.43832159 -0.133065507 0.88891381
vn -0.404650003 -0.145361871 0.902844608
vn -0.26417619 -0.211370468 0.94102782
vn 0.0835043192 -0.503331065 0.860049307
vn 0.330213547 -0.570901036 0.7516855
vn 0.455121994 -0.625235081 0.633991361
vn 0.557550967 -0.477821469 0.678839862
vn 0.117551789 -0.125965595 -0.985045254
vn 0.0824859142 0.0550787933 -0.995069087
vn 0.148608312 -0.302713662 -0.941424429
vn 0.107798077 0.12159957 -0.986708164
vn 0.219511807 0.106186606 -0.969813883
vn -0.270439833 0.10912808 -0.956531882
vn -0.260691792 0.121729739 -0.957716942
vn -0.719135642 0.0588277541 -0.692375004
vn -0.846574545 0.0235219467 -0.531750083
vn -0.899039686 0.00472548604 -0.437841624
vn -0.909131825 -0.00201387843 -0.416503608
vn -0.270422488 0.109147839 0.956534624
vn 0.219511807 0.106186606 0.969813883
vn 0.107815862 0.121616997 0.986704171
vn -0.260658473 0.121767275 0.957721174
vn -0.719128251 0.0588407852 0.69238162
vn -0.846574545 0.0235219467 0.531750083
vn -0.899039686 0.00472548604 0.437841624
vn -0.909131825 -0.00201387843 0.416503608
vn 0.259864718 -0.965641081 0.00273618987
vn 0.244165689 -0.969732702 0.00130407908
vn 0.242030144 -0.948682427 -0.203526795
vn 0.250130057 -0.948401034 -0.194860041
vn 0.247299805 -0.915711939 -0.316724569
vn 0.265227288 -0.911137104 -0.315410405
vn 0.294317812 -0.912419975 -0.284371257
vn 0.317645282 -0.948207617 0.00194239465
vn 0.241964906 -0.948425472 0.204797387
vn 0.25004378 -0.948074996 0.196550146
vn 0.295075297 -0.944148421 0.146677911
vn 0.300445497 -0.95377773 0.00638009235
vn 0.295372277 -0.945110202 -0.13972123
vn 0.247299805 -0.915711939 0.316724569
vn 0.265227288 -0.911137104 0.315410405
vn 0.294317812 -0.912419975 0.284371257
vn 0.154496774 0.961550951 -0.227047727
vn -1.24265874e-16 0.971994102 -0.235005379
vn -1.19034308e-16 0.972020984 -0.234894425
vn 0.161811531 0.960117221 -0.228017554
vn 0.11999698 0.965196311 -0.23237206
vn -1.18979317e-16 0.971571803 -0.236744806
vn -0.11999698 0.965196311 -0.23237206
vn -0.161811531 0.960117221 -0.228017554
vn -0.154496774 0.961550951 -0.227047727
vn 0.1934838 0.955821395 -0.221290484
vn 0.164507955 0.960383236 -0.224946916
vn 0.173457965 0.959451854 -0.222181201
vn -0.1934838 0.955821395 -0.221290484
vn -0.164507955 0.960383236 -0.224946916
vn -0.173457965 0.959451854 -0.222181201
vn 0.935839891 -0.249605685 -0.24879843
vn 0.899733424 -0.148602143 -0.410362184
vn 0.885504901 -0.135631442 -0.444393039
vn 0.932351053 -0.21623078 -0.289768457
vn 0.86991781 -0.468677998 0.153570741
vn 0.545527101 -0.607163846 0.577712834
vn 0.254083037 -0.604608595 0.754910707
vn -0.0636288449 -0.525250793 0.84856528
vn -0.844109476 -0.211291835 0.492782891
vn -0.725252807 -0.267318934 0.634467423
vn -0.931446671 -0.147375017 0.3326976
vn -0.982401133 0.154926285 0.104335807
vn -0.958111525 0.133567721 -0.253341287
vn -0.966997683 0.138943046 0.213565767
vn -0.961401045 0.147892714 -0.232025579
vn -0.70029068 0.0671869144 -0.710689008
vn -0.498180479 0.0205161534 -0.866830587
vn -0.3778705 -0.00378740672 -0.925850749
vn -0.330720931 -0.0145202717 -0.943616867
vn 0.958111525 0.133567721 -0.253341287
vn 0.982401133 0.154926285 0.104335807
vn 0.966997683 0.138943046 0.213565767
vn 0.961401045 0.147892714 -0.232025579
vn 0.70029068 0.0671869144 -0.710689008
vn 0.498180479 0.0205161534 -0.866830587
vn 0.3778705 -0.00378740672 -0.925850749
vn 0.330720931 -0.0145202717 -0.943616867
vn 1.14572072e-16 -0.964188159 0.265219212
vn -0.213721752 -0.944408774 0.249829933
vn 1.18537457e-16 -0.967963815 0.251089722
vn -0.203489691 -0.945765853 0.253217012
vn -0.32381016 -0.91057086 0.256919861
vn -0.321658045 -0.903938651 0.281835318
vn -0.290335983 -0.907068968 0.304845631
vn 1.15779742e-16 -0.945444524 0.325782925
vn 0.213721752 -0.944408774 0.249829933
vn 0.203489691 -0.945765853 0.253217012
vn 0.153349698 -0.94231236 0.297541976
vn 1.16704305e-16 -0.952994347 0.302987963
vn -0.153349698 -0.94231236 0.297541976
vn 0.32381016 -0.91057086 0.256919861
vn 0.321658045 -0.903938651 0.281835318
vn 0.290335983 -0.907068968 0.304845631
vn -0.882049859 -0.0312395729 -0.470119298
vn -0.860148251 -0.125820115 -0.49428159
vn -0.851444662 -0.187196091 -0.489897579
vn -0.879348874 -0.00957847666 -0.476081848
vn -0.895108581 0.0634951517 -0.441303641
vn -0.899721265 0.0821212679 -0.428669721
vn -9.96337327e-17 0.813597977 -0.581427753
vn 0.0785602331 0.811083496 -0.579630852
vn 0.100197434 0.811438799 -0.575784326
vn -9.93952466e-17 0.811650574 -0.584143221
vn -0.0785602331 0.811083496 -0.579630852
vn -0.100197434 0.811438799 -0.575784326
vn 0.882052183 -0.0312152654 -0.470116526
vn 0.895110905 0.0635105595 -0.441296786
vn 0.899725199 0.0821520239 -0.428655595
vn 0.879348874 -0.00956175383 -0.476081938
vn 0.860151827 -0.125787139 -0.494283676
vn 0.851450026 -0.187163651 -0.489900678
vn -1.18632046e-16 0.982918978 0.184038743
vn 0.0433740653 0.981994033 0.183865547
vn 0.0533065684 0.977376103 0.204681203
vn -1.20822063e-16 0.986619592 0.163039267
vn -0.0433740653 0.981994033 0.183865547
vn -0.0533065684 0.977376103 0.204681203
vn 1.0335279e-16 -0.815534055 0.578709126
vn 0.0818634704 -0.812796712 0.576766729
vn 0.103500158 -0.813091397 0.572861373
vn 9.96320122e-17 -0.81358391 0.581447423
vn -0.0818634704 -0.812796712 0.576766729
vn -0.103500158 -0.813091397 0.572861373
vn -0.879769504 0.0518565848 -0.472563833
vn -0.839551389 0.231813669 -0.491340876
vn -0.851861596 0.170623049 -0.495196462
vn -0.878061533 0.0301711094 -0.477595717
vn -0.894119143 -0.0675052255 -0.442712039
vn -0.898504138 -0.0863451511 -0.430389136
vn 1.02672635e-16 -0.809981048 -0.58645612
vn 0.103205033 -0.80775404 -0.580415487
vn 0.0813630819 -0.807295561 -0.584511697
vn 9.89321049e-17 -0.80786854 -0.589362681
vn -0.0813630819 -0.807295561 -0.584511697
vn -0.103205033 -0.80775404 -0.580415487
vn 0.879768968 0.0518587865 -0.472564638
vn 0.898517072 -0.0863463879 -0.430361897
vn 0.89412576 -0.0675058514 -0.442698538
vn 0.878057361 0.0301727075 -0.477603078
vn 0.851852298 0.170627967 -0.495210797
vn 0.839541495 0.231820241 -0.491354823
vn 1.20065676e-16 -0.980442941 0.19680351
vn 0.0315543935 -0.97551775 0.217645258
vn 0.0215551518 -0.980215192 0.196757808
vn 1.21421445e-16 -0.98443085 0.175772145
vn -0.0215551518 -0.980215192 0.196757808
vn -0.0315543935 -0.97551775 0.217645258
vn -9.54871623e-17 0.808190167 0.588921607
vn 0.112015262 0.805854201 0.58142215
vn 0.0893834457 0.804955184 0.586564302
vn -9.86317391e-17 0.805415869 0.592710137
vn -0.0893834457 0.804955184 0.586564302
vn -0.112015262 0.805854201 0.58142215

# Mesh 'Cordrazine_Station' with 312 faces
g Cordrazine_Station
usemtl DefaultMaterial
f  1/1/1 2/2/2 3/3/3
f  4/2/2 5/1/1 6/4/4
f  7/1/1 8/5/5 9/4/4
f  10/5/5 11/1/1 12/6/6
f  13/7/7 14/8/8 15/9/9
f  16/8/8 17/7/7 18/10/10
f  19/7/7 20/11/11 21/10/10
f  22/11/11 23/7/7 24/12/12
f  25/1/13 26/5/14 27/6/15
f  28/5/14 29/1/13 30/4/16
f  31/1/13 32/2/17 33/4/16
f  34/2/17 35/1/13 36/3/18
f  37/13/19 38/14/20 39/15/21
f  40/14/20 41/13/19 42/16/22
f  43/13/19 44/17/23 45/16/22
f  46/17/23 47/13/19 48/18/24
f  49/19/25 50/20/26 51/21/27
f  52/20/26 53/19/25 54/22/28
f  55/19/25 56/23/29 57/22/28
f  58/23/29 59/19/25 60/24/30
f  61/1/31 62/3/32 63/2/33
f  64/2/33 65/4/34 66/1/31
f  67/1/31 68/4/34 69/5/35
f  70/5/35 71/6/36 72/1/31
f  73/7/37 74/9/38 75/8/39
f  76/8/39 77/10/40 78/7/37
f  79/7/37 80/10/40 81/11/41
f  82/11/41 83/12/42 84/7/37
f  85/1/43 86/6/44 87/5/45
f  88/5/45 89/4/46 90/1/43
f  91/1/43 92/4/46 93/2/47
f  94/2/47 95/3/48 96/1/43
f  97/13/49 98/15/50 99/14/51
f  100/14/51 101/16/52 102/13/49
f  103/13/49 104/16/52 105/17/53
f  106/17/53 107/18/54 108/13/49
f  109/19/55 110/21/56 111/20/57
f  112/20/57 113/22/58 114/19/55
f  115/19/55 116/22/58 117/23/59
f  118/23/59 119/24/60 120/19/55
f  121/25/61 122/26/62 123/27/63
f  124/26/62 125/25/61 126/28/64
f  127/28/64 128/29/65 129/26/62
f  130/29/65 131/30/66 132/26/62
f  133/30/66 134/31/67 135/26/62
f  136/31/67 137/32/68 138/26/62
f  139/33/69 140/26/62 141/32/68
f  142/26/62 143/33/69 144/27/63
f  145/25/61 146/34/70 147/28/64
f  148/34/70 149/25/61 150/35/71
f  151/36/72 152/34/70 153/35/71
f  154/36/72 155/35/71 156/29/65
f  157/29/65 158/35/71 159/30/66
f  160/37/73 161/33/69 162/32/68
f  163/33/69 164/37/73 165/38/74
f  166/38/74 167/37/73 168/39/75
f  169/38/74 170/39/75 171/31/67
f  172/38/74 173/31/67 174/30/66
f  175/40/76 176/41/77 177/42/78
f  178/41/77 179/40/76 180/43/79
f  181/40/76 182/44/80 183/43/79
f  184/44/80 185/40/76 186/45/81
f  187/45/81 188/46/82 189/44/80
f  190/46/82 191/45/81 192/47/83
f  193/48/84 194/46/84 195/47/85
f  196/46/84 197/48/84 198/49/86
f  199/50/87 200/51/88 201/52/89
f  202/51/88 203/50/87 204/53/90
f  205/54/91 206/51/88 207/53/90
f  208/51/88 209/54/91 210/55/92
f  211/56/93 212/55/92 213/54/91
f  214/55/92 215/56/93 216/57/94
f  217/51/95 218/50/96 219/52/97
f  220/50/96 221/51/95 222/53/98
f  223/51/95 224/54/99 225/53/98
f  226/54/99 227/51/95 228/55/100
f  229/55/100 230/56/101 231/54/99
f  232/56/101 233/55/100 234/57/102
f  235/58/103 236/59/104 237/60/105
f  238/59/104 239/58/103 240/61/106
f  241/62/107 242/59/104 243/61/106
f  244/59/104 245/62/107 246/63/108
f  247/63/108 248/62/107 249/64/109
f  250/63/108 251/64/109 252/65/110
f  253/66/111 254/58/103 255/60/105
f  256/58/103 257/66/111 258/67/112
f  259/68/113 260/58/103 261/67/112
f  262/58/103 263/68/113 264/69/114
f  265/70/115 266/58/103 267/69/114
f  268/58/103 269/70/115 270/61/106
f  271/66/111 272/71/116 273/67/112
f  274/71/116 275/66/111 276/72/117
f  277/73/118 278/71/116 279/72/117
f  280/73/118 281/72/117 282/65/110
f  283/65/110 284/68/113 285/73/118
f  286/68/113 287/65/110 288/69/114
f  289/65/110 290/70/115 291/69/114
f  292/70/115 293/65/110 294/64/109
f  295/25/119 296/26/120 297/27/121
f  298/26/120 299/25/119 300/28/122
f  301/28/122 302/29/123 303/26/120
f  304/29/123 305/30/124 306/26/120
f  307/30/124 308/31/125 309/26/120
f  310/31/125 311/32/126 312/26/120
f  313/33/127 314/26/120 315/32/126
f  316/26/120 317/33/127 318/27/121
f  319/25/119 320/34/128 321/28/122
f  322/34/128 323/25/119 324/35/129
f  325/36/130 326/34/128 327/35/129
f  328/36/130 329/35/129 330/29/123
f  331/29/123 332/35/129 333/30/124
f  334/37/131 335/33/127 336/32/126
f  337/33/127 338/37/131 339/38/132
f  340/38/132 341/37/131 342/39/133
f  343/38/132 344/39/133 345/31/125
f  346/38/132 347/31/125 348/30/124
f  349/40/134 350/41/135 351/42/136
f  352/41/135 353/40/134 354/43/137
f  355/40/134 356/44/138 357/43/137
f  358/44/138 359/40/134 360/45/139
f  361/45/139 362/46/140 363/44/138
f  364/46/140 365/45/139 366/47/141
f  367/48/142 368/46/142 369/47/143
f  370/46/142 371/48/142 372/49/144
f  373/50/145 374/51/146 375/52/147
f  376/51/146 377/50/145 378/53/148
f  379/54/149 380/51/146 381/53/148
f  382/51/146 383/54/149 384/55/150
f  385/56/151 386/55/150 387/54/149
f  388/55/150 389/56/151 390/57/152
f  391/51/153 392/50/154 393/52/155
f  394/50/154 395/51/153 396/53/156
f  397/51/153 398/54/157 399/53/156
f  400/54/157 401/51/153 402/55/158
f  403/55/158 404/56/159 405/54/157
f  406/56/159 407/55/158 408/57/160
f  409/58/161 410/59/162 411/60/163
f  412/59/162 413/58/161 414/61/164
f  415/62/165 416/59/162 417/61/164
f  418/59/162 419/62/165 420/63/166
f  421/63/166 422/62/165 423/64/167
f  424/63/166 425/64/167 426/65/168
f  427/66/169 428/58/161 429/60/163
f  430/58/161 431/66/169 432/67/170
f  433/68/171 434/58/161 435/67/170
f  436/58/161 437/68/171 438/69/172
f  439/70/173 440/58/161 441/69/172
f  442/58/161 443/70/173 444/61/164
f  445/66/169 446/71/174 447/67/170
f  448/71/174 449/66/169 450/72/175
f  451/73/176 452/71/174 453/72/175
f  454/73/176 455/72/175 456/65/168
f  457/65/168 458/68/171 459/73/176
f  460/68/171 461/65/168 462/69/172
f  463/65/168 464/70/173 465/69/172
f  466/70/173 467/65/168 468/64/167
f  469/25/177 470/27/178 471/26/179
f  472/26/179 473/28/180 474/25/177
f  475/28/180 476/26/179 477/29/181
f  478/29/181 479/26/179 480/30/182
f  481/30/182 482/26/179 483/31/183
f  484/31/183 485/26/179 486/32/184
f  487/33/185 488/32/184 489/26/179
f  490/26/179 491/27/178 492/33/185
f  493/25/177 494/28/180 495/34/186
f  496/34/186 497/35/187 498/25/177
f  499/36/188 500/35/187 501/34/186
f  502/36/188 503/29/181 504/35/187
f  505/29/181 506/30/182 507/35/187
f  508/37/189 509/32/184 510/33/185
f  511/33/185 512/38/190 513/37/189
f  514/38/190 515/39/191 516/37/189
f  517/38/190 518/31/183 519/39/191
f  520/38/190 521/30/182 522/31/183
f  523/40/192 524/42/193 525/41/194
f  526/41/194 527/43/195 528/40/192
f  529/40/192 530/43/195 531/44/196
f  532/44/196 533/45/197 534/40/192
f  535/45/197 536/44/196 537/46/198
f  538/46/198 539/47/199 540/45/197
f  541/48/200 542/47/201 543/46/200
f  544/46/200 545/49/202 546/48/200
f  547/50/203 548/52/204 549/51/205
f  550/51/205 551/53/206 552/50/203
f  553/54/207 554/53/206 555/51/205
f  556/51/205 557/55/208 558/54/207
f  559/56/209 560/54/207 561/55/208
f  562/55/208 563/57/210 564/56/209
f  565/51/211 566/52/212 567/50/213
f  568/50/213 569/53/214 570/51/211
f  571/51/211 572/53/214 573/54/215
f  574/54/215 575/55/216 576/51/211
f  577/55/216 578/54/215 579/56/217
f  580/56/217 581/57/218 582/55/216
f  583/58/219 584/60/220 585/59/221
f  586/59/221 587/61/222 588/58/219
f  589/62/223 590/61/222 591/59/221
f  592/59/221 593/63/224 594/62/223
f  595/63/224 596/64/225 597/62/223
f  598/63/224 599/65/226 600/64/225
f  601/66/227 602/60/220 603/58/219
f  604/58/219 605/67/228 606/66/227
f  607/68/229 608/67/228 609/58/219
f  610/58/219 611/69/230 612/68/229
f  613/70/231 614/69/230 615/58/219
f  616/58/219 617/61/222 618/70/231
f  619/66/227 620/67/228 621/71/232
f  622/71/232 623/72/233 624/66/227
f  625/73/234 626/72/233 627/71/232
f  628/73/234 629/65/226 630/72/233
f  631/65/226 632/73/234 633/68/229
f  634/68/229 635/69/230 636/65/226
f  637/65/226 638/69/230 639/70/231
f  640/70/231 641/64/225 642/65/226
f  643/25/235 644/26/236 645/27/237
f  646/26/236 647/25/235 648/28/238
f  649/28/238 650/29/239 651/26/236
f  652/29/239 653/30/240 654/26/236
f  655/30/240 656/31/241 657/26/236
f  658/31/241 659/32/242 660/26/236
f  661/33/243 662/26/236 663/32/242
f  664/26/236 665/33/243 666/27/237
f  667/25/235 668/34/244 669/28/238
f  670/34/244 671/25/235 672/35/245
f  673/36/246 674/34/244 675/35/245
f  676/36/246 677/35/245 678/29/239
f  679/29/239 680/35/245 681/30/240
f  682/37/247 683/33/243 684/32/242
f  685/33/243 686/37/247 687/38/248
f  688/38/248 689/37/247 690/39/249
f  691/38/248 692/39/249 693/31/241
f  694/38/248 695/31/241 696/30/240
f  697/40/250 698/41/251 699/42/252
f  700/41/251 701/40/250 702/43/253
f  703/40/250 704/44/254 705/43/253
f  706/44/254 707/40/250 708/45/255
f  709/45/255 710/46/256 711/44/254
f  712/46/256 713/45/255 714/47/257
f  715/48/258 716/46/258 717/47/259
f  718/46/258 719/48/258 720/49/260
f  721/50/261 722/51/262 723/52/263
f  724/51/262 725/50/261 726/53/264
f  727/54/265 728/51/262 729/53/264
f  730/51/262 731/54/265 732/55/266
f  733/56/267 734/55/266 735/54/265
f  736/55/266 737/56/267 738/57/268
f  739/51/269 740/50/270 741/52/271
f  742/50/270 743/51/269 744/53/272
f  745/51/269 746/54/273 747/53/272
f  748/54/273 749/51/269 750/55/274
f  751/55/274 752/56/275 753/54/273
f  754/56/275 755/55/274 756/57/276
f  757/58/277 758/59/278 759/60/279
f  760/59/278 761/58/277 762/61/280
f  763/62/281 764/59/278 765/61/280
f  766/59/278 767/62/281 768/63/282
f  769/63/282 770/62/281 771/64/283
f  772/63/282 773/64/283 774/65/284
f  775/66/285 776/58/277 777/60/279
f  778/58/277 779/66/285 780/67/286
f  781/68/287 782/58/277 783/67/286
f  784/58/277 785/68/287 786/69/288
f  787/70/289 788/58/277 789/69/288
f  790/58/277 791/70/289 792/61/280
f  793/66/285 794/71/290 795/67/286
f  796/71/290 797/66/285 798/72/291
f  799/73/292 800/71/290 801/72/291
f  802/73/292 803/72/291 804/65/284
f  805/65/284 806/68/287 807/73/292
f  808/68/287 809/65/284 810/69/288
f  811/65/284 812/70/289 813/69/288
f  814/70/289 815/65/284 816/64/283
f  817/1/293 818/2/294 819/3/295
f  820/2/294 821/1/293 822/4/296
f  823/1/293 824/5/297 825/4/296
f  826/5/297 827/1/293 828/6/298
f  829/7/299 830/8/300 831/9/301
f  832/8/300 833/7/299 834/10/302
f  835/7/299 836/11/303 837/10/302
f  838/11/303 839/7/299 840/12/304
f  841/1/305 842/5/306 843/6/307
f  844/5/306 845/1/305 846/4/308
f  847/1/305 848/2/309 849/4/308
f  850/2/309 851/1/305 852/3/310
f  853/13/311 854/14/312 855/15/313
f  856/14/312 857/13/311 858/16/314
f  859/13/311 860/17/315 861/16/314
f  862/17/315 863/13/311 864/18/316
f  865/19/317 866/20/318 867/21/319
f  868/20/318 869/19/317 870/22/320
f  871/19/317 872/23/321 873/22/320
f  874/23/321 875/19/317 876/24/322
f  877/1/323 878/3/324 879/2/325
f  880/2/325 881/4/326 882/1/323
f  883/1/323 884/4/326 885/5/327
f  886/5/327 887/6/328 888/1/323
f  889/7/329 890/9/330 891/8/331
f  892/8/331 893/10/332 894/7/329
f  895/7/329 896/10/332 897/11/333
f  898/11/333 899/12/334 900/7/329
f  901/1/335 902/6/336 903/5/337
f  904/5/337 905/4/338 906/1/335
f  907/1/335 908/4/338 909/2/339
f  910/2/339 911/3/340 912/1/335
f  913/13/341 914/15/342 915/14/343
f  916/14/343 917/16/344 918/13/341
f  919/13/341 920/16/344 921/17/345
f  922/17/345 923/18/346 924/13/341
f  925/19/347 926/21/348 927/20/349
f  928/20/349 929/22/350 930/19/347
f  931/19/347 932/22/350 933/23/351
f  934/23/351 935/24/352 936/19/347

