# File produced by Open Asset Import Library (http://www.assimp.sf.net)
# (assimp v6.0.0)

mtllib ship16i.mtl

# 894 vertex positions
v 0 5.33649635 78.0844955
v 3.14599991 -0.500503361 77.1030045
v 0 -1.52100325 77.1030045
v 3.14599991 -0.500503361 77.1030045
v 0 5.33649635 78.0844955
v 3.14599991 6.48049641 78.0844955
v 3.14599991 6.48049641 78.0844955
v 18.8759995 2.35299587 90.6035004
v 3.14599991 -0.500503361 77.1030045
v 18.8759995 2.35299587 90.6035004
v 3.14599991 6.48049641 78.0844955
v 18.8759995 9.74999619 91.6434937
v 18.8759995 9.74999619 91.6434937
v 36.5754967 1.96299446 128.673996
v 18.8759995 2.35299587 90.6035004
v 36.5754967 1.96299446 128.673996
v 18.8759995 9.74999619 91.6434937
v 36.5754967 9.36649323 129.714005
v 3.14599991 -10.2700081 197.242493
v 36.5754967 1.96299446 128.673996
v 36.5754967 9.36649323 129.714005
v 36.5754967 1.96299446 128.673996
v 3.14599991 -10.2700081 197.242493
v 3.14599991 -17.2510071 196.260986
v 0 -11.2125082 197.242493
v 3.14599991 -17.2510071 196.260986
v 3.14599991 -10.2700081 197.242493
v 3.14599991 -17.2510071 196.260986
v 0 -11.2125082 197.242493
v 0 -18.2715092 196.260986
v 4.23799992 -32.8704948 -69.9725037
v 0 -24.7389965 -68.6529999
v 0 -34.248497 -69.9725037
v 0 -24.7389965 -68.6529999
v 4.23799992 -32.8704948 -69.9725037
v 4.23799992 -23.4649963 -68.6529999
v 49.2699966 -6.98749256 -161.02449
v 4.23799992 -23.4649963 -68.6529999
v 4.23799992 -32.8704948 -69.9725037
v 4.23799992 -23.4649963 -68.6529999
v 49.2699966 -6.98749256 -161.02449
v 49.2699966 2.98350668 -159.620483
v 49.2699966 -6.98749256 -161.02449
v 25.4279995 3.50350928 -210.905487
v 49.2699966 2.98350668 -159.620483
v 25.4279995 3.50350928 -210.905487
v 49.2699966 -6.98749256 -161.02449
v 25.4279995 -6.46749067 -212.309479
v 25.4279995 -6.46749067 -212.309479
v 4.23799992 -0.903489888 -229.177002
v 25.4279995 3.50350928 -210.905487
v 4.23799992 -0.903489888 -229.177002
v 25.4279995 -6.46749067 -212.309479
v 4.23799992 -10.3089895 -230.502991
v 4.23799992 -10.3089895 -230.502991
v 0 -2.43748999 -229.177002
v 4.23799992 -0.903489888 -229.177002
v 0 -2.43748999 -229.177002
v 4.23799992 -10.3089895 -230.502991
v 0 -11.6869898 -230.502991
v 0 -0.143004298 98.435997
v 32.5194969 3.89999819 37.1409988
v 0 8.00799465 98.8584976
v 32.5194969 3.89999819 37.1409988
v 0 -0.143004298 98.435997
v 31.3884964 -4.12750149 36.2700005
v 31.3884964 -4.12750149 36.2700005
v 23.8290005 4.33549881 14.2804995
v 32.5194969 3.89999819 37.1409988
v 23.8290005 4.33549881 14.2804995
v 31.3884964 -4.12750149 36.2700005
v 22.5550003 -4.69950056 13.2989998
v 22.5550003 -4.69950056 13.2989998
v 0 6.91599989 -13.6044998
v 23.8290005 4.33549881 14.2804995
v 0 6.91599989 -13.6044998
v 22.5550003 -4.69950056 13.2989998
v 0 -1.2414993 -14.0204992
v 0 4.2445097 -217.944977
v 26.0715008 -9.19099045 -186.842499
v 0 -5.19349003 -218.432495
v 26.0715008 -9.19099045 -186.842499
v 0 4.2445097 -217.944977
v 27.546999 1.25450814 -185.711487
v 27.546999 1.25450814 -185.711487
v 36.2829971 -8.52799225 -160.290009
v 26.0715008 -9.19099045 -186.842499
v 36.2829971 -8.52799225 -160.290009
v 27.546999 1.25450814 -185.711487
v 37.5960007 0.754006922 -159.282501
v 37.5960007 0.754006922 -159.282501
v 0 -3.9259963 -88.4259949
v 36.2829971 -8.52799225 -160.290009
v 0 -3.9259963 -88.4259949
v 37.5960007 0.754006922 -159.282501
v 0 5.49900389 -87.9384995
v -22.671999 -5.55749369 -140.425995
v -78.0584946 14.937006 -151.092499
v -25.258997 -5.82399035 -211.756989
v -78.0584946 14.937006 -151.092499
v -22.671999 -5.55749369 -140.425995
v -74.9839935 14.5795031 -105.241486
v -18.9799995 4.3290062 -140.595001
v -74.3664932 24.8235054 -151.26149
v -71.2919922 24.4660034 -105.410492
v -74.3664932 24.8235054 -151.26149
v -18.9799995 4.3290062 -140.595001
v -21.5670013 4.06900883 -211.92601
v -22.5550003 -5.19999504 -105.865501
v -66.3974915 22.1650009 -51.8569946
v -19.2594986 3.63350439 -106.0215
v -66.3974915 22.1650009 -51.8569946
v -22.5550003 -5.19999504 -105.865501
v -69.6929932 13.3380022 -51.7074928
v -17.9724998 3.37349367 139.873489
v -52.3379974 16.0939941 133.2565
v -19.5714989 3.21099567 95.6085052
v -52.3379974 16.0939941 133.2565
v -17.9724998 3.37349367 139.873489
v -50.4269943 15.8729925 161.706985
v -15.6779985 9.50949383 139.769501
v -50.0499954 22.2299938 133.145981
v -48.1389961 22.0089931 161.602997
v -50.0499954 22.2299938 133.145981
v -15.6779985 9.50949383 139.769501
v -17.2834969 9.34699535 95.5045013
v 0 -4.77749443 -119.801498
v -33.3904991 -7.84549713 -66.2999954
v -23.9914989 -8.45649529 -90.7334976
v -33.3904991 -7.84549713 -66.2999954
v 0 -4.77749443 -119.801498
v 0 -3.61399984 -0.169000164
v 0 -4.77749443 -119.801498
v 33.3904991 -7.84549713 -66.2999954
v 0 -3.61399984 -0.169000164
v 33.3904991 -7.84549713 -66.2999954
v 0 -4.77749443 -119.801498
v 23.9914989 -8.45649529 -90.7334976
v 0 -22.7630005 18.0309982
v -3.89999962 -30.2444992 16.8089962
v 0 -31.512001 16.8089962
v -3.89999962 -30.2444992 16.8089962
v 0 -22.7630005 18.0309982
v -3.89999962 -21.5930004 18.0309982
v -3.89999962 -21.5930004 18.0309982
v -45.3374977 -6.42849636 -66.9759979
v -3.89999962 -30.2444992 16.8089962
v -45.3374977 -6.42849636 -66.9759979
v -3.89999962 -21.5930004 18.0309982
v -45.3374977 2.74300289 -65.6889954
v -23.3999996 3.22400475 -112.879005
v -45.3374977 -6.42849636 -66.9759979
v -45.3374977 2.74300289 -65.6889954
v -45.3374977 -6.42849636 -66.9759979
v -23.3999996 3.22400475 -112.879005
v -23.3999996 -5.94749498 -114.166
v -3.89999962 -0.831994295 -129.694504
v -23.3999996 -5.94749498 -114.166
v -23.3999996 3.22400475 -112.879005
v -23.3999996 -5.94749498 -114.166
v -3.89999962 -0.831994295 -129.694504
v -3.89999962 -9.4834938 -130.909988
v 0 -2.24899435 -129.694504
v -3.89999962 -9.4834938 -130.909988
v -3.89999962 -0.831994295 -129.694504
v -3.89999962 -9.4834938 -130.909988
v 0 -2.24899435 -129.694504
v 0 -10.7509937 -130.909988
v 18.9799995 4.3290062 -140.595001
v 74.9839935 14.5795031 -105.241486
v 71.2919922 24.4660034 -105.410492
v 74.9839935 14.5795031 -105.241486
v 18.9799995 4.3290062 -140.595001
v 22.671999 -5.55749369 -140.425995
v -32.5194969 3.89999819 37.1409988
v 0 -0.143004298 98.435997
v 0 8.00799465 98.8584976
v 0 -0.143004298 98.435997
v -32.5194969 3.89999819 37.1409988
v -31.3884964 -4.12750149 36.2700005
v -23.8290005 4.33549881 14.2804995
v -31.3884964 -4.12750149 36.2700005
v -32.5194969 3.89999819 37.1409988
v -31.3884964 -4.12750149 36.2700005
v -23.8290005 4.33549881 14.2804995
v -22.5550003 -4.69950056 13.2989998
v 0 6.91599989 -13.6044998
v -22.5550003 -4.69950056 13.2989998
v -23.8290005 4.33549881 14.2804995
v -22.5550003 -4.69950056 13.2989998
v 0 6.91599989 -13.6044998
v 0 -1.2414993 -14.0204992
v 0 6.91599989 -13.6044998
v 32.5194969 3.89999819 37.1409988
v 23.8290005 4.33549881 14.2804995
v 32.5194969 3.89999819 37.1409988
v 0 6.91599989 -13.6044998
v 0 8.00799465 98.8584976
v 0 6.91599989 -13.6044998
v -32.5194969 3.89999819 37.1409988
v 0 8.00799465 98.8584976
v -32.5194969 3.89999819 37.1409988
v 0 6.91599989 -13.6044998
v -23.8290005 4.33549881 14.2804995
v 42.6139984 -2.79500151 35.6329994
v 3.66600013 -5.66799879 -24.4659996
v 21.9959984 -2.33999944 -8.72949982
v 3.66600013 -5.66799879 -24.4659996
v 42.6139984 -2.79500151 35.6329994
v 3.66600013 -25.1810036 114.393494
v 3.66600013 -25.1810036 114.393494
v 0 -6.85749865 -24.4659996
v 3.66600013 -5.66799879 -24.4659996
v 0 -6.85749865 -24.4659996
v 3.66600013 -25.1810036 114.393494
v 0 -26.3705044 114.393494
v -3.66600013 -25.1810036 114.393494
v 0 -6.85749865 -24.4659996
v 0 -26.3705044 114.393494
v 0 -6.85749865 -24.4659996
v -3.66600013 -25.1810036 114.393494
v -3.66600013 -5.66799879 -24.4659996
v -42.6139984 -2.79500151 35.6329994
v -3.66600013 -5.66799879 -24.4659996
v -3.66600013 -25.1810036 114.393494
v -3.66600013 -5.66799879 -24.4659996
v -42.6139984 -2.79500151 35.6329994
v -21.9959984 -2.33999944 -8.72949982
v 66.3974915 22.1650009 -51.8569946
v 22.5550003 -5.19999504 -105.865501
v 19.2594986 3.63350439 -106.0215
v 22.5550003 -5.19999504 -105.865501
v 66.3974915 22.1650009 -51.8569946
v 69.6929932 13.3380022 -51.7074928
v -19.3570004 0.331495225 109.505501
v 0 10.2959957 86.423996
v 0 3.29549599 86.0599976
v 0 10.2959957 86.423996
v -19.3570004 0.331495225 109.505501
v -20.4489994 8.07949543 110.350502
v -26.9360008 0.818994343 129.220001
v -20.4489994 8.07949543 110.350502
v -19.3570004 0.331495225 109.505501
v -20.4489994 8.07949543 110.350502
v -26.9360008 0.818994343 129.220001
v -27.9109993 7.70899439 129.967499
v 0 4.23799181 182.565491
v -27.9109993 7.70899439 129.967499
v -26.9360008 0.818994343 129.220001
v -27.9109993 7.70899439 129.967499
v 0 4.23799181 182.565491
v 0 11.2319918 182.929489
v -27.9109993 7.70899439 129.967499
v 0 10.2959957 86.423996
v -20.4489994 8.07949543 110.350502
v 0 10.2959957 86.423996
v -27.9109993 7.70899439 129.967499
v 0 11.2319918 182.929489
v 27.9109993 7.70899439 129.967499
v 0 10.2959957 86.423996
v 0 11.2319918 182.929489
v 0 10.2959957 86.423996
v 27.9109993 7.70899439 129.967499
v 20.4489994 8.07949543 110.350502
v -3.14599991 -0.500503361 77.1030045
v -36.5754967 1.96299446 128.673996
v -18.8759995 2.35299587 90.6035004
v -36.5754967 1.96299446 128.673996
v -3.14599991 -0.500503361 77.1030045
v -3.14599991 -17.2510071 196.260986
v 0 -1.52100325 77.1030045
v -3.14599991 -17.2510071 196.260986
v -3.14599991 -0.500503361 77.1030045
v -3.14599991 -17.2510071 196.260986
v 0 -1.52100325 77.1030045
v 0 -18.2715092 196.260986
v 0 -1.52100325 77.1030045
v 3.14599991 -17.2510071 196.260986
v 0 -18.2715092 196.260986
v 3.14599991 -17.2510071 196.260986
v 0 -1.52100325 77.1030045
v 3.14599991 -0.500503361 77.1030045
v 3.14599991 -0.500503361 77.1030045
v 36.5754967 1.96299446 128.673996
v 3.14599991 -17.2510071 196.260986
v 36.5754967 1.96299446 128.673996
v 3.14599991 -0.500503361 77.1030045
v 18.8759995 2.35299587 90.6035004
v 56.335495 17.718996 80.8274994
v 61.6784973 11.1344967 44.5444984
v 58.7664948 18.9474964 44.6159973
v 61.6784973 11.1344967 44.5444984
v 56.335495 17.718996 80.8274994
v 59.2474937 9.89949608 80.7560043
v 15.6779985 9.50949383 139.769501
v 50.4269943 15.8729925 161.706985
v 48.1389961 22.0089931 161.602997
v 50.4269943 15.8729925 161.706985
v 15.6779985 9.50949383 139.769501
v 17.9724998 3.37349367 139.873489
v -37.5960007 0.754006922 -159.282501
v 0 -3.9259963 -88.4259949
v 0 5.49900389 -87.9384995
v 0 -3.9259963 -88.4259949
v -37.5960007 0.754006922 -159.282501
v -36.2829971 -8.52799225 -160.290009
v -27.546999 1.25450814 -185.711487
v -36.2829971 -8.52799225 -160.290009
v -37.5960007 0.754006922 -159.282501
v -36.2829971 -8.52799225 -160.290009
v -27.546999 1.25450814 -185.711487
v -26.0715008 -9.19099045 -186.842499
v 0 4.2445097 -217.944977
v -26.0715008 -9.19099045 -186.842499
v -27.546999 1.25450814 -185.711487
v -26.0715008 -9.19099045 -186.842499
v 0 4.2445097 -217.944977
v 0 -5.19349003 -218.432495
v 0 4.2445097 -217.944977
v 37.5960007 0.754006922 -159.282501
v 27.546999 1.25450814 -185.711487
v 37.5960007 0.754006922 -159.282501
v 0 4.2445097 -217.944977
v 0 5.49900389 -87.9384995
v 0 4.2445097 -217.944977
v -37.5960007 0.754006922 -159.282501
v 0 5.49900389 -87.9384995
v -37.5960007 0.754006922 -159.282501
v 0 4.2445097 -217.944977
v -27.546999 1.25450814 -185.711487
v 49.2699966 -6.98749256 -161.02449
v 4.23799992 -10.3089895 -230.502991
v 25.4279995 -6.46749067 -212.309479
v 4.23799992 -10.3089895 -230.502991
v 49.2699966 -6.98749256 -161.02449
v 4.23799992 -32.8704948 -69.9725037
v 4.23799992 -32.8704948 -69.9725037
v 0 -11.6869898 -230.502991
v 4.23799992 -10.3089895 -230.502991
v 0 -11.6869898 -230.502991
v 4.23799992 -32.8704948 -69.9725037
v 0 -34.248497 -69.9725037
v -4.23799992 -32.8704948 -69.9725037
v 0 -11.6869898 -230.502991
v 0 -34.248497 -69.9725037
v 0 -11.6869898 -230.502991
v -4.23799992 -32.8704948 -69.9725037
v -4.23799992 -10.3089895 -230.502991
v -49.2699966 -6.98749256 -161.02449
v -4.23799992 -10.3089895 -230.502991
v -4.23799992 -32.8704948 -69.9725037
v -4.23799992 -10.3089895 -230.502991
v -49.2699966 -6.98749256 -161.02449
v -25.4279995 -6.46749067 -212.309479
v 3.66600013 -25.1810036 114.393494
v 0 -18.1480026 115.537498
v 0 -26.3705044 114.393494
v 0 -18.1480026 115.537498
v 3.66600013 -25.1810036 114.393494
v 3.66600013 -17.0495052 115.537498
v 42.6139984 -2.79500151 35.6329994
v 3.66600013 -17.0495052 115.537498
v 3.66600013 -25.1810036 114.393494
v 3.66600013 -17.0495052 115.537498
v 42.6139984 -2.79500151 35.6329994
v 42.6139984 5.83049822 36.8484993
v 42.6139984 -2.79500151 35.6329994
v 21.9959984 6.27900076 -7.51399899
v 42.6139984 5.83049822 36.8484993
v 21.9959984 6.27900076 -7.51399899
v 42.6139984 -2.79500151 35.6329994
v 21.9959984 -2.33999944 -8.72949982
v 21.9959984 -2.33999944 -8.72949982
v 3.66600013 2.47000074 -23.3219986
v 21.9959984 6.27900076 -7.51399899
v 3.66600013 2.47000074 -23.3219986
v 21.9959984 -2.33999944 -8.72949982
v 3.66600013 -5.66799879 -24.4659996
v 3.66600013 -5.66799879 -24.4659996
v 0 1.137501 -23.3219986
v 3.66600013 2.47000074 -23.3219986
v 0 1.137501 -23.3219986
v 3.66600013 -5.66799879 -24.4659996
v 0 -6.85749865 -24.4659996
v -15.0020008 2.54149747 52.6174965
v -58.7664948 18.9474964 44.6159973
v -56.335495 17.718996 80.8274994
v -58.7664948 18.9474964 44.6159973
v -15.0020008 2.54149747 52.6174965
v -17.0429993 3.80250001 -3.73099971
v -25.258997 -5.82399035 -211.756989
v -74.3664932 24.8235054 -151.26149
v -21.5670013 4.06900883 -211.92601
v -74.3664932 24.8235054 -151.26149
v -25.258997 -5.82399035 -211.756989
v -78.0584946 14.937006 -151.092499
v -66.9499969 13.0130005 -10.763999
v -16.9519997 3.86750174 -42.3344994
v -63.6544991 21.8465004 -10.9199982
v -16.9519997 3.86750174 -42.3344994
v -66.9499969 13.0130005 -10.763999
v -20.2474995 -4.95949793 -42.1784973
v -59.2474937 9.89949608 80.7560043
v -15.0020008 2.54149747 52.6174965
v -56.335495 17.718996 80.8274994
v -15.0020008 2.54149747 52.6174965
v -59.2474937 9.89949608 80.7560043
v -17.9139996 -5.27800226 52.5459938
v -19.5714989 3.21099567 95.6085052
v -50.0499954 22.2299938 133.145981
v -17.2834969 9.34699535 95.5045013
v -50.0499954 22.2299938 133.145981
v -19.5714989 3.21099567 95.6085052
v -52.3379974 16.0939941 133.2565
v 58.7664948 18.9474964 44.6159973
v 15.0020008 2.54149747 52.6174965
v 56.335495 17.718996 80.8274994
v 15.0020008 2.54149747 52.6174965
v 58.7664948 18.9474964 44.6159973
v 17.0429993 3.80250001 -3.73099971
v 78.0584946 14.937006 -151.092499
v 71.2919922 24.4660034 -105.410492
v 74.9839935 14.5795031 -105.241486
v 71.2919922 24.4660034 -105.410492
v 78.0584946 14.937006 -151.092499
v 74.3664932 24.8235054 -151.26149
v 0 -1.2414993 -14.0204992
v -31.3884964 -4.12750149 36.2700005
v -22.5550003 -4.69950056 13.2989998
v -31.3884964 -4.12750149 36.2700005
v 0 -1.2414993 -14.0204992
v 0 -0.143004298 98.435997
v 0 -1.2414993 -14.0204992
v 31.3884964 -4.12750149 36.2700005
v 0 -0.143004298 98.435997
v 31.3884964 -4.12750149 36.2700005
v 0 -1.2414993 -14.0204992
v 22.5550003 -4.69950056 13.2989998
v 0 -18.1480026 115.537498
v -3.66600013 -25.1810036 114.393494
v 0 -26.3705044 114.393494
v -3.66600013 -25.1810036 114.393494
v 0 -18.1480026 115.537498
v -3.66600013 -17.0495052 115.537498
v -3.66600013 -17.0495052 115.537498
v -42.6139984 -2.79500151 35.6329994
v -3.66600013 -25.1810036 114.393494
v -42.6139984 -2.79500151 35.6329994
v -3.66600013 -17.0495052 115.537498
v -42.6139984 5.83049822 36.8484993
v -21.9959984 6.27900076 -7.51399899
v -42.6139984 -2.79500151 35.6329994
v -42.6139984 5.83049822 36.8484993
v -42.6139984 -2.79500151 35.6329994
v -21.9959984 6.27900076 -7.51399899
v -21.9959984 -2.33999944 -8.72949982
v -3.66600013 2.47000074 -23.3219986
v -21.9959984 -2.33999944 -8.72949982
v -21.9959984 6.27900076 -7.51399899
v -21.9959984 -2.33999944 -8.72949982
v -3.66600013 2.47000074 -23.3219986
v -3.66600013 -5.66799879 -24.4659996
v 0 1.137501 -23.3219986
v -3.66600013 -5.66799879 -24.4659996
v -3.66600013 2.47000074 -23.3219986
v -3.66600013 -5.66799879 -24.4659996
v 0 1.137501 -23.3219986
v 0 -6.85749865 -24.4659996
v 16.9519997 3.86750174 -42.3344994
v 66.9499969 13.0130005 -10.763999
v 63.6544991 21.8465004 -10.9199982
v 66.9499969 13.0130005 -10.763999
v 16.9519997 3.86750174 -42.3344994
v 20.2474995 -4.95949793 -42.1784973
v 52.3379974 16.0939941 133.2565
v 48.1389961 22.0089931 161.602997
v 50.4269943 15.8729925 161.706985
v 48.1389961 22.0089931 161.602997
v 52.3379974 16.0939941 133.2565
v 50.0499954 22.2299938 133.145981
v 0 -5.19349003 -218.432495
v -36.2829971 -8.52799225 -160.290009
v -26.0715008 -9.19099045 -186.842499
v -36.2829971 -8.52799225 -160.290009
v 0 -5.19349003 -218.432495
v 0 -3.9259963 -88.4259949
v 0 -5.19349003 -218.432495
v 36.2829971 -8.52799225 -160.290009
v 0 -3.9259963 -88.4259949
v 36.2829971 -8.52799225 -160.290009
v 0 -5.19349003 -218.432495
v 26.0715008 -9.19099045 -186.842499
v 0 -24.7389965 -68.6529999
v -4.23799992 -32.8704948 -69.9725037
v 0 -34.248497 -69.9725037
v -4.23799992 -32.8704948 -69.9725037
v 0 -24.7389965 -68.6529999
v -4.23799992 -23.4649963 -68.6529999
v -4.23799992 -23.4649963 -68.6529999
v -49.2699966 -6.98749256 -161.02449
v -4.23799992 -32.8704948 -69.9725037
v -49.2699966 -6.98749256 -161.02449
v -4.23799992 -23.4649963 -68.6529999
v -49.2699966 2.98350668 -159.620483
v -25.4279995 3.50350928 -210.905487
v -49.2699966 -6.98749256 -161.02449
v -49.2699966 2.98350668 -159.620483
v -49.2699966 -6.98749256 -161.02449
v -25.4279995 3.50350928 -210.905487
v -25.4279995 -6.46749067 -212.309479
v -4.23799992 -0.903489888 -229.177002
v -25.4279995 -6.46749067 -212.309479
v -25.4279995 3.50350928 -210.905487
v -25.4279995 -6.46749067 -212.309479
v -4.23799992 -0.903489888 -229.177002
v -4.23799992 -10.3089895 -230.502991
v 0 -2.43748999 -229.177002
v -4.23799992 -10.3089895 -230.502991
v -4.23799992 -0.903489888 -229.177002
v -4.23799992 -10.3089895 -230.502991
v 0 -2.43748999 -229.177002
v 0 -11.6869898 -230.502991
v 3.89999962 -30.2444992 16.8089962
v 0 -22.7630005 18.0309982
v 0 -31.512001 16.8089962
v 0 -22.7630005 18.0309982
v 3.89999962 -30.2444992 16.8089962
v 3.89999962 -21.5930004 18.0309982
v 45.3374977 -6.42849636 -66.9759979
v 3.89999962 -21.5930004 18.0309982
v 3.89999962 -30.2444992 16.8089962
v 3.89999962 -21.5930004 18.0309982
v 45.3374977 -6.42849636 -66.9759979
v 45.3374977 2.74300289 -65.6889954
v 45.3374977 -6.42849636 -66.9759979
v 23.3999996 3.22400475 -112.879005
v 45.3374977 2.74300289 -65.6889954
v 23.3999996 3.22400475 -112.879005
v 45.3374977 -6.42849636 -66.9759979
v 23.3999996 -5.94749498 -114.166
v 23.3999996 -5.94749498 -114.166
v 3.89999962 -0.831994295 -129.694504
v 23.3999996 3.22400475 -112.879005
v 3.89999962 -0.831994295 -129.694504
v 23.3999996 -5.94749498 -114.166
v 3.89999962 -9.4834938 -130.909988
v 3.89999962 -9.4834938 -130.909988
v 0 -2.24899435 -129.694504
v 3.89999962 -0.831994295 -129.694504
v 0 -2.24899435 -129.694504
v 3.89999962 -9.4834938 -130.909988
v 0 -10.7509937 -130.909988
v 0 3.90000486 -119.359497
v 23.9914989 -8.45649529 -90.7334976
v 0 -4.77749443 -119.801498
v 23.9914989 -8.45649529 -90.7334976
v 0 3.90000486 -119.359497
v 25.3499985 1.15050387 -89.6934891
v 25.3499985 1.15050387 -89.6934891
v 33.3904991 -7.84549713 -66.2999954
v 23.9914989 -8.45649529 -90.7334976
v 33.3904991 -7.84549713 -66.2999954
v 25.3499985 1.15050387 -89.6934891
v 34.5994987 0.695502877 -65.370491
v 34.5994987 0.695502877 -65.370491
v 0 -3.61399984 -0.169000164
v 33.3904991 -7.84549713 -66.2999954
v 0 -3.61399984 -0.169000164
v 34.5994987 0.695502877 -65.370491
v 0 5.05699968 0.279500216
v -28.3010006 -0.981500268 5.86950016
v -58.7664948 18.9474964 44.6159973
v -17.0429993 3.80250001 -3.73099971
v -58.7664948 18.9474964 44.6159973
v -28.3010006 -0.981500268 5.86950016
v -61.6784973 11.1344967 44.5444984
v -74.9839935 14.5795031 -105.241486
v -18.9799995 4.3290062 -140.595001
v -71.2919922 24.4660034 -105.410492
v -18.9799995 4.3290062 -140.595001
v -74.9839935 14.5795031 -105.241486
v -22.671999 -5.55749369 -140.425995
v -69.6929932 13.3380022 -51.7074928
v -63.6544991 21.8465004 -10.9199982
v -66.3974915 22.1650009 -51.8569946
v -63.6544991 21.8465004 -10.9199982
v -69.6929932 13.3380022 -51.7074928
v -66.9499969 13.0130005 -10.763999
v -61.6784973 11.1344967 44.5444984
v -56.335495 17.718996 80.8274994
v -58.7664948 18.9474964 44.6159973
v -56.335495 17.718996 80.8274994
v -61.6784973 11.1344967 44.5444984
v -59.2474937 9.89949608 80.7560043
v -50.4269943 15.8729925 161.706985
v -15.6779985 9.50949383 139.769501
v -48.1389961 22.0089931 161.602997
v -15.6779985 9.50949383 139.769501
v -50.4269943 15.8729925 161.706985
v -17.9724998 3.37349367 139.873489
v 58.7664948 18.9474964 44.6159973
v 28.3010006 -0.981500268 5.86950016
v 17.0429993 3.80250001 -3.73099971
v 28.3010006 -0.981500268 5.86950016
v 58.7664948 18.9474964 44.6159973
v 61.6784973 11.1344967 44.5444984
v -23.9914989 -8.45649529 -90.7334976
v 0 3.90000486 -119.359497
v 0 -4.77749443 -119.801498
v 0 3.90000486 -119.359497
v -23.9914989 -8.45649529 -90.7334976
v -25.3499985 1.15050387 -89.6934891
v -33.3904991 -7.84549713 -66.2999954
v -25.3499985 1.15050387 -89.6934891
v -23.9914989 -8.45649529 -90.7334976
v -25.3499985 1.15050387 -89.6934891
v -33.3904991 -7.84549713 -66.2999954
v -34.5994987 0.695502877 -65.370491
v 0 -3.61399984 -0.169000164
v -34.5994987 0.695502877 -65.370491
v -33.3904991 -7.84549713 -66.2999954
v -34.5994987 0.695502877 -65.370491
v 0 -3.61399984 -0.169000164
v 0 5.05699968 0.279500216
v -34.5994987 0.695502877 -65.370491
v 0 3.90000486 -119.359497
v -25.3499985 1.15050387 -89.6934891
v 0 3.90000486 -119.359497
v -34.5994987 0.695502877 -65.370491
v 0 5.05699968 0.279500216
v 34.5994987 0.695502877 -65.370491
v 0 3.90000486 -119.359497
v 0 5.05699968 0.279500216
v 0 3.90000486 -119.359497
v 34.5994987 0.695502877 -65.370491
v 25.3499985 1.15050387 -89.6934891
v -3.89999962 -9.4834938 -130.909988
v -45.3374977 -6.42849636 -66.9759979
v -23.3999996 -5.94749498 -114.166
v -45.3374977 -6.42849636 -66.9759979
v -3.89999962 -9.4834938 -130.909988
v -3.89999962 -30.2444992 16.8089962
v 0 -10.7509937 -130.909988
v -3.89999962 -30.2444992 16.8089962
v -3.89999962 -9.4834938 -130.909988
v -3.89999962 -30.2444992 16.8089962
v 0 -10.7509937 -130.909988
v 0 -31.512001 16.8089962
v 0 -10.7509937 -130.909988
v 3.89999962 -30.2444992 16.8089962
v 0 -31.512001 16.8089962
v 3.89999962 -30.2444992 16.8089962
v 0 -10.7509937 -130.909988
v 3.89999962 -9.4834938 -130.909988
v 3.89999962 -9.4834938 -130.909988
v 45.3374977 -6.42849636 -66.9759979
v 3.89999962 -30.2444992 16.8089962
v 45.3374977 -6.42849636 -66.9759979
v 3.89999962 -9.4834938 -130.909988
v 23.3999996 -5.94749498 -114.166
v 22.671999 -5.55749369 -140.425995
v 78.0584946 14.937006 -151.092499
v 74.9839935 14.5795031 -105.241486
v 78.0584946 14.937006 -151.092499
v 22.671999 -5.55749369 -140.425995
v 25.258997 -5.82399035 -211.756989
v 18.9799995 4.3290062 -140.595001
v 74.3664932 24.8235054 -151.26149
v 21.5670013 4.06900883 -211.92601
v 74.3664932 24.8235054 -151.26149
v 18.9799995 4.3290062 -140.595001
v 71.2919922 24.4660034 -105.410492
v 63.6544991 21.8465004 -10.9199982
v 69.6929932 13.3380022 -51.7074928
v 66.3974915 22.1650009 -51.8569946
v 69.6929932 13.3380022 -51.7074928
v 63.6544991 21.8465004 -10.9199982
v 66.9499969 13.0130005 -10.763999
v 0 3.29549599 86.0599976
v -26.9360008 0.818994343 129.220001
v -19.3570004 0.331495225 109.505501
v -26.9360008 0.818994343 129.220001
v 0 3.29549599 86.0599976
v 0 4.23799181 182.565491
v 0 3.29549599 86.0599976
v 26.9360008 0.818994343 129.220001
v 0 4.23799181 182.565491
v 26.9360008 0.818994343 129.220001
v 0 3.29549599 86.0599976
v 19.3570004 0.331495225 109.505501
v 0 -11.2125082 197.242493
v -3.14599991 -17.2510071 196.260986
v 0 -18.2715092 196.260986
v -3.14599991 -17.2510071 196.260986
v 0 -11.2125082 197.242493
v -3.14599991 -10.2700081 197.242493
v -3.14599991 -10.2700081 197.242493
v -36.5754967 1.96299446 128.673996
v -3.14599991 -17.2510071 196.260986
v -36.5754967 1.96299446 128.673996
v -3.14599991 -10.2700081 197.242493
v -36.5754967 9.36649323 129.714005
v -18.8759995 9.74999619 91.6434937
v -36.5754967 1.96299446 128.673996
v -36.5754967 9.36649323 129.714005
v -36.5754967 1.96299446 128.673996
v -18.8759995 9.74999619 91.6434937
v -18.8759995 2.35299587 90.6035004
v -3.14599991 6.48049641 78.0844955
v -18.8759995 2.35299587 90.6035004
v -18.8759995 9.74999619 91.6434937
v -18.8759995 2.35299587 90.6035004
v -3.14599991 6.48049641 78.0844955
v -3.14599991 -0.500503361 77.1030045
v 0 5.33649635 78.0844955
v -3.14599991 -0.500503361 77.1030045
v -3.14599991 6.48049641 78.0844955
v -3.14599991 -0.500503361 77.1030045
v 0 5.33649635 78.0844955
v 0 -1.52100325 77.1030045
v 17.9724998 3.37349367 139.873489
v 52.3379974 16.0939941 133.2565
v 50.4269943 15.8729925 161.706985
v 52.3379974 16.0939941 133.2565
v 17.9724998 3.37349367 139.873489
v 19.5714989 3.21099567 95.6085052
v 15.6779985 9.50949383 139.769501
v 50.0499954 22.2299938 133.145981
v 17.2834969 9.34699535 95.5045013
v 50.0499954 22.2299938 133.145981
v 15.6779985 9.50949383 139.769501
v 48.1389961 22.0089931 161.602997
v -61.6784973 11.1344967 44.5444984
v -17.9139996 -5.27800226 52.5459938
v -59.2474937 9.89949608 80.7560043
v -17.9139996 -5.27800226 52.5459938
v -61.6784973 11.1344967 44.5444984
v -28.3010006 -0.981500268 5.86950016
v -71.2919922 24.4660034 -105.410492
v -78.0584946 14.937006 -151.092499
v -74.9839935 14.5795031 -105.241486
v -78.0584946 14.937006 -151.092499
v -71.2919922 24.4660034 -105.410492
v -74.3664932 24.8235054 -151.26149
v -20.2474995 -4.95949793 -42.1784973
v -69.6929932 13.3380022 -51.7074928
v -22.5550003 -5.19999504 -105.865501
v -69.6929932 13.3380022 -51.7074928
v -20.2474995 -4.95949793 -42.1784973
v -66.9499969 13.0130005 -10.763999
v -16.9519997 3.86750174 -42.3344994
v -66.3974915 22.1650009 -51.8569946
v -63.6544991 21.8465004 -10.9199982
v -66.3974915 22.1650009 -51.8569946
v -16.9519997 3.86750174 -42.3344994
v -19.2594986 3.63350439 -106.0215
v -48.1389961 22.0089931 161.602997
v -52.3379974 16.0939941 133.2565
v -50.4269943 15.8729925 161.706985
v -52.3379974 16.0939941 133.2565
v -48.1389961 22.0089931 161.602997
v -50.0499954 22.2299938 133.145981
v 61.6784973 11.1344967 44.5444984
v 17.9139996 -5.27800226 52.5459938
v 28.3010006 -0.981500268 5.86950016
v 17.9139996 -5.27800226 52.5459938
v 61.6784973 11.1344967 44.5444984
v 59.2474937 9.89949608 80.7560043
v 74.3664932 24.8235054 -151.26149
v 25.258997 -5.82399035 -211.756989
v 21.5670013 4.06900883 -211.92601
v 25.258997 -5.82399035 -211.756989
v 74.3664932 24.8235054 -151.26149
v 78.0584946 14.937006 -151.092499
v 20.2474995 -4.95949793 -42.1784973
v 69.6929932 13.3380022 -51.7074928
v 66.9499969 13.0130005 -10.763999
v 69.6929932 13.3380022 -51.7074928
v 20.2474995 -4.95949793 -42.1784973
v 22.5550003 -5.19999504 -105.865501
v 16.9519997 3.86750174 -42.3344994
v 66.3974915 22.1650009 -51.8569946
v 19.2594986 3.63350439 -106.0215
v 66.3974915 22.1650009 -51.8569946
v 16.9519997 3.86750174 -42.3344994
v 63.6544991 21.8465004 -10.9199982
v 15.0020008 2.54149747 52.6174965
v 59.2474937 9.89949608 80.7560043
v 56.335495 17.718996 80.8274994
v 59.2474937 9.89949608 80.7560043
v 15.0020008 2.54149747 52.6174965
v 17.9139996 -5.27800226 52.5459938
v 50.0499954 22.2299938 133.145981
v 19.5714989 3.21099567 95.6085052
v 17.2834969 9.34699535 95.5045013
v 19.5714989 3.21099567 95.6085052
v 50.0499954 22.2299938 133.145981
v 52.3379974 16.0939941 133.2565
v -45.3374977 2.74300289 -65.6889954
v -3.89999962 -21.5930004 18.0309982
v -23.3999996 3.22400475 -112.879005
v -3.89999962 -21.5930004 18.0309982
v -3.89999962 -0.831994295 -129.694504
v -23.3999996 3.22400475 -112.879005
v -3.89999962 -21.5930004 18.0309982
v 0 -2.24899435 -129.694504
v -3.89999962 -0.831994295 -129.694504
v 0 -2.24899435 -129.694504
v -3.89999962 -21.5930004 18.0309982
v 0 -22.7630005 18.0309982
v 3.89999962 -21.5930004 18.0309982
v 0 -2.24899435 -129.694504
v 0 -22.7630005 18.0309982
v 0 -2.24899435 -129.694504
v 3.89999962 -21.5930004 18.0309982
v 3.89999962 -0.831994295 -129.694504
v 3.89999962 -0.831994295 -129.694504
v 3.89999962 -21.5930004 18.0309982
v 23.3999996 3.22400475 -112.879005
v 3.89999962 -21.5930004 18.0309982
v 45.3374977 2.74300289 -65.6889954
v 23.3999996 3.22400475 -112.879005
v -42.6139984 5.83049822 36.8484993
v -3.66600013 -17.0495052 115.537498
v -21.9959984 6.27900076 -7.51399899
v -3.66600013 -17.0495052 115.537498
v -3.66600013 2.47000074 -23.3219986
v -21.9959984 6.27900076 -7.51399899
v -3.66600013 -17.0495052 115.537498
v 0 1.137501 -23.3219986
v -3.66600013 2.47000074 -23.3219986
v 0 1.137501 -23.3219986
v -3.66600013 -17.0495052 115.537498
v 0 -18.1480026 115.537498
v 3.66600013 -17.0495052 115.537498
v 0 1.137501 -23.3219986
v 0 -18.1480026 115.537498
v 0 1.137501 -23.3219986
v 3.66600013 -17.0495052 115.537498
v 3.66600013 2.47000074 -23.3219986
v 3.66600013 2.47000074 -23.3219986
v 3.66600013 -17.0495052 115.537498
v 21.9959984 6.27900076 -7.51399899
v 3.66600013 -17.0495052 115.537498
v 42.6139984 5.83049822 36.8484993
v 21.9959984 6.27900076 -7.51399899
v -36.5754967 9.36649323 129.714005
v -3.14599991 -10.2700081 197.242493
v -18.8759995 9.74999619 91.6434937
v -3.14599991 -10.2700081 197.242493
v -3.14599991 6.48049641 78.0844955
v -18.8759995 9.74999619 91.6434937
v -3.14599991 -10.2700081 197.242493
v 0 5.33649635 78.0844955
v -3.14599991 6.48049641 78.0844955
v 0 5.33649635 78.0844955
v -3.14599991 -10.2700081 197.242493
v 0 -11.2125082 197.242493
v 3.14599991 -10.2700081 197.242493
v 0 5.33649635 78.0844955
v 0 -11.2125082 197.242493
v 0 5.33649635 78.0844955
v 3.14599991 -10.2700081 197.242493
v 3.14599991 6.48049641 78.0844955
v 3.14599991 6.48049641 78.0844955
v 3.14599991 -10.2700081 197.242493
v 18.8759995 9.74999619 91.6434937
v 3.14599991 -10.2700081 197.242493
v 36.5754967 9.36649323 129.714005
v 18.8759995 9.74999619 91.6434937
v -49.2699966 2.98350668 -159.620483
v -4.23799992 -23.4649963 -68.6529999
v -25.4279995 3.50350928 -210.905487
v -4.23799992 -23.4649963 -68.6529999
v -4.23799992 -0.903489888 -229.177002
v -25.4279995 3.50350928 -210.905487
v -4.23799992 -23.4649963 -68.6529999
v 0 -2.43748999 -229.177002
v -4.23799992 -0.903489888 -229.177002
v 0 -2.43748999 -229.177002
v -4.23799992 -23.4649963 -68.6529999
v 0 -24.7389965 -68.6529999
v 4.23799992 -23.4649963 -68.6529999
v 0 -2.43748999 -229.177002
v 0 -24.7389965 -68.6529999
v 0 -2.43748999 -229.177002
v 4.23799992 -23.4649963 -68.6529999
v 4.23799992 -0.903489888 -229.177002
v 4.23799992 -0.903489888 -229.177002
v 4.23799992 -23.4649963 -68.6529999
v 25.4279995 3.50350928 -210.905487
v 4.23799992 -23.4649963 -68.6529999
v 49.2699966 2.98350668 -159.620483
v 25.4279995 3.50350928 -210.905487

# 74 UV coordinates
vt 0.642099977 0.504499972 0
vt 0.652499974 0.516600013 0
vt 0.645699978 0.520600021 0
vt 0.648800015 0.500199974 0
vt 0.69749999 0.495000005 0
vt 0.693700016 0.477699995 0
vt 0.791999996 0.462099999 0
vt 0.788100004 0.444700003 0
vt 0.9727 0.428600013 0
vt 0.976300001 0.444999993 0
vt 0.980499983 0.429199994 0
vt 0.984099984 0.445800006 0
vt 0.505200028 0.729099989 0
vt 0.565900028 0.766300023 0
vt 0.500899971 0.736299992 0
vt 0.569999993 0.759000003 0
vt 0.588999987 0.77579999 0
vt 0.593699992 0.767700016 0
vt 0.623399973 0.791199982 0
vt 0.626600027 0.783399999 0
vt 0.820500016 0.898800015 0
vt 0.763400018 0.846599996 0
vt 0.866900027 0.819100022 0
vt 0.735300004 0.898800015 0
vt 0.871900022 0.893400013 0
vt 0.850000024 0.861500025 0
vt 0.877799988 0.851199985 0
vt 0.829299986 0.91079998 0
vt 0.866900027 0.813300014 0
vt 0.75999999 0.827499986 0
vt 0.863399982 0.800100029 0
vt 0.763400018 0.840699971 0
vt 0.544799984 0.827300012 0
vt 0.596400023 0.859499991 0
vt 0.572700024 0.850700021 0
vt 0.660000026 0.826900005 0
vt 0.596199989 0.794799984 0
vt 0.572600007 0.80369997 0
vt 0.820500016 0.920599997 0
vt 0.735300004 0.906899989 0
vt 0.735300004 0.920599997 0
vt 0.820500016 0.906899989 0
vt 0.719600022 0.867999971 0
vt 0.667699993 0.834500015 0
vt 0.691100001 0.843400002 0
vt 0.604399979 0.867999971 0
vt 0.667599976 0.901499987 0
vt 0.691100001 0.8926 0
vt 0.802600026 0.215299994 0
vt 0.885200024 0.335900009 0
vt 0.846199989 0.305099994 0
vt 0.885299981 0.0498000011 0
vt 0.893100023 0.335599989 0
vt 0.89319998 0.0494000018 0
vt 0.901000023 0.0498000011 0
vt 0.901000023 0.335900009 0
vt 0.983699977 0.215299994 0
vt 0.939999998 0.305099994 0
vt 0.718599975 0.891099989 0
vt 0.75880003 0.845399976 0
vt 0.746800005 0.83890003 0
vt 0.730599999 0.897599995 0
vt 0.846199989 0.818799973 0
vt 0.846199989 0.824599981 0
vt 0.814199984 0.328799993 0
vt 0.897400022 0.370599985 0
vt 0.76910001 0.350800008 0
vt 0.753600001 0.370499998 0
vt 0.753799975 0.374500006 0
vt 0.897599995 0.374500006 0
vt 0.897400022 0.378500015 0
vt 0.753600001 0.378500015 0
vt 0.76910001 0.398299992 0
vt 0.814199984 0.42019999 0

# 307 vertex normals
vn -0.0482016727 0.140304938 -0.988934338
vn 0.191309825 0.137507111 -0.971849978
vn -0.0458987951 0.141496345 -0.988874137
vn 0.433287948 0.125496566 -0.892475247
vn 0.742037416 0.0933047384 -0.663833439
vn 0.833792925 0.076899372 -0.546695352
vn 0.999989152 -0.000699992583 0.00459995028
vn 0.703183055 -0.09899766 0.704083145
vn 0.376405627 -0.12840198 0.917513847
vn 0.0432020314 -0.138306558 0.9894467
vn 0.0445992649 -0.137597784 0.989483654
vn 0.37642014 -0.128106892 0.917549133
vn 0.0431989618 -0.138096735 0.989476264
vn 0.0446010903 -0.137303427 0.989524364
vn 0.703189969 -0.0988986343 0.704090118
vn 0.999989152 -0.000599993742 0.00459995028
vn 0.833786428 0.0769987777 -0.54669112
vn 0.742117643 0.0935022682 -0.663715839
vn 0.433391482 0.12579757 -0.892382622
vn 0.191301927 0.137801439 -0.971809864
vn -0.0482994132 0.140598327 -0.988887906
vn -0.0461009629 0.141803026 -0.988820791
vn 0.881759942 -0.0985955521 0.461279064
vn 0.973283768 -0.104598269 0.204396605
vn 0.883774519 -0.0241993256 0.467286587
vn 0.987265527 -0.128995508 -0.0930967554
vn 0.884674191 -0.0746978074 -0.460186601
vn 0.831607938 -0.0326002911 -0.554405391
vn 0.76592803 -0.00190004159 -0.642923534
vn 0.772723973 0.0323010348 -0.633919716
vn 0.765969396 -0.00189989631 -0.64287436
vn 0.831682205 -0.0326992758 -0.554288208
vn 0.772892416 0.0326997116 -0.633693933
vn 0.884619355 -0.075201638 -0.460210115
vn 0.987189889 -0.129498675 -0.0931990519
vn 0.973237574 -0.105004057 0.204407901
vn 0.881720185 -0.0988022983 0.461310595
vn -0.349707067 -0.936718941 0.0162002873
vn -0.349707633 -0.93672049 0.0161003117
vn 0.349707633 0.93672049 -0.0161003117
vn -0.688248038 0.245017186 -0.682847798
vn -0.688387036 0.244795457 -0.68278724
vn -0.688097835 0.24529928 -0.682897866
vn -0.349795401 -0.936687768 0.0160997491
vn -0.349794835 -0.936686218 0.016199721
vn 0.349794835 0.936686218 -0.016199721
vn 0.349795401 0.936687768 -0.0160997491
vn 0 -0.996713996 0.081001088
vn 0.216091976 -0.973163903 0.0790970176
vn 0.321713597 -0.93533957 0.147106186
vn 0 -0.999952912 0.00969949923
vn -0.216091976 -0.973163903 0.0790970176
vn -0.321713597 -0.93533957 0.147106186
vn -0.0434017554 -0.139005661 0.989340007
vn -0.376582772 -0.128994152 0.91735816
vn -0.0448993817 -0.138198152 0.98938638
vn -0.70326221 -0.0992946997 0.703962207
vn -0.999988973 -0.000799991481 0.00459994981
vn -0.999989152 -0.000599993742 0.00459995028
vn -0.83380568 0.0767005458 -0.546703696
vn -0.742183268 0.0931979269 -0.663685143
vn -0.433418751 0.125305474 -0.89243865
vn -0.191408798 0.137406364 -0.971844733
vn 0.0481975749 0.140193 -0.988950312
vn 0.0458994471 0.14139834 -0.988888144
vn -0.502822399 -0.173307732 0.846837759
vn -0.973283768 -0.104598269 0.204396605
vn -0.881759942 -0.0985955521 0.461279064
vn -0.883774519 -0.0241993256 0.467286587
vn -0.987265527 -0.128995508 -0.0930967554
vn -0.884674191 -0.0746978074 -0.460186601
vn -0.831607938 -0.0326002911 -0.554405391
vn -0.76592803 -0.00190004159 -0.642923534
vn -0.772723973 0.0323010348 -0.633919716
vn 0 0.999694884 -0.0246998314
vn 0.130198061 0.991185308 -0.0244995952
vn 0.153006688 0.987443268 -0.0393016785
vn 0 0.999952912 -0.00969949923
vn -0.130198061 0.991185308 -0.0244995952
vn -0.153006688 0.987443268 -0.0393016785
vn 0.287599921 -0.947299838 -0.141100019
vn 0.293715179 -0.945848942 -0.138207182
vn 0.298587143 -0.942759395 -0.148493648
vn 0.296209693 -0.945831001 -0.132904395
vn 0 -0.990264952 -0.139195114
vn -0.296209693 -0.945831001 -0.132904395
vn -0.293715179 -0.945848942 -0.138207182
vn -0.287599921 -0.947299838 -0.141100019
vn -0.298587143 -0.942759395 -0.148493648
vn 0.688248038 0.245017186 -0.682847798
vn 0.688387036 0.244795457 -0.68278724
vn 0.688097835 0.24529928 -0.682897866
vn -0.831695676 -0.0321998149 -0.554297209
vn -0.765928626 -0.00140002428 -0.642924011
vn -0.772795618 0.0329998434 -0.633796453
vn -0.987215459 -0.12930204 -0.0932014808
vn -0.973227322 -0.105102956 0.204405725
vn -0.881711543 -0.0989013165 0.461306065
vn -0.883750618 -0.0243014153 0.46732682
vn -0.130394012 0.991154492 -0.0246988237
vn 0 0.999689877 -0.0248997062
vn -0.153507084 0.987345517 -0.039801795
vn 0.130394012 0.991154492 -0.0246988237
vn 0.153507084 0.987345517 -0.039801795
vn -0.293595999 -0.945887208 -0.138198167
vn -0.28750819 -0.947327077 -0.141104087
vn -0.298409373 -0.942829609 -0.148404703
vn -0.29608649 -0.945856988 -0.132993996
vn 0.29608649 -0.945856988 -0.132993996
vn 0.293595999 -0.945887208 -0.138198167
vn 0.28750819 -0.947327077 -0.141104087
vn 0.298409373 -0.942829609 -0.148404703
vn 0.934706807 0.34750253 0.0746005699
vn 0.934636056 0.34771347 0.0745029077
vn 0.934739232 0.347414613 0.0746031553
vn -0.502813578 -0.173404723 0.846823037
vn -0.502905786 -0.173202038 0.846809804
vn -0.502787411 -0.173695713 0.846778929
vn -0.973237574 -0.105004057 0.204407901
vn -0.881720185 -0.0988022983 0.461310595
vn -0.987189889 -0.129498675 -0.0931990519
vn -0.884619355 -0.075201638 -0.460210115
vn -0.831682205 -0.0326992758 -0.554288208
vn -0.765969396 -0.00189989631 -0.64287436
vn -0.772892416 0.0326997116 -0.633693933
vn 0.130505234 0.99113977 -0.024700949
vn 0.153605372 0.98733443 -0.0397013463
vn 0 0.999953926 -0.00959951337
vn -0.130505234 0.99113977 -0.024700949
vn -0.153605372 0.98733443 -0.0397013463
vn 0.287393272 -0.94737792 -0.140996754
vn 0.293810606 -0.94583416 -0.13810502
vn 0.298207909 -0.942925036 -0.148203984
vn 0.296511352 -0.945736408 -0.132905155
vn -0.296511352 -0.945736408 -0.132905155
vn -0.293810606 -0.94583416 -0.13810502
vn -0.287393272 -0.94737792 -0.140996754
vn -0.298207909 -0.942925036 -0.148203984
vn 0.376486659 -0.128495514 0.917467535
vn 0.0432014354 -0.138404667 0.98943305
vn 0.0446984358 -0.137695253 0.989465535
vn 0.703225553 -0.0991036519 0.704025686
vn 0.999988735 -0.000599993509 0.00469994731
vn 0.833825588 0.0771023929 -0.546616793
vn 0.433402359 0.125600725 -0.892404974
vn 0.191406146 0.137504473 -0.971831322
vn 0.34970817 0.936821938 0.00830023549
vn -0.688167334 0.245188415 -0.682867646
vn -0.688214302 0.245205164 -0.6828143
vn 0.503089964 -0.172796622 0.846783221
vn 0.503098667 -0.172699586 0.846797824
vn 0.503081203 -0.172893599 0.846768558
vn 0.503000498 -0.195000231 0.842000782
vn -0.688304365 0.244701594 -0.682904243
vn -0.688201129 0.245000452 -0.682901144
vn -0.68850708 0.244402543 -0.682806969
vn -0.34970817 0.936821938 0.00830023549
vn 0.934423149 0.350108743 0.0654016435
vn 0 -0.996721983 0.0809017345
vn 0.215998322 -0.973192573 0.0789993554
vn 0.321304232 -0.935512364 0.146901906
vn 0 -0.999952018 0.00979948603
vn -0.215998322 -0.973192573 0.0789993554
vn -0.321304232 -0.935512364 0.146901906
vn -0.0432014354 -0.138404667 0.98943305
vn -0.376486659 -0.128495514 0.917467535
vn -0.0446984358 -0.137695253 0.989465535
vn -0.703225553 -0.0991036519 0.704025686
vn -0.999988735 -0.000599993509 0.00469994731
vn -0.999989152 -0.000699992583 0.00459995028
vn -0.833825588 0.0771023929 -0.546616793
vn -0.742117643 0.0935022682 -0.663715839
vn -0.433402359 0.125600725 -0.892404974
vn -0.191406146 0.137504473 -0.971831322
vn 0.0482016727 0.140304938 -0.988934338
vn 0.0458987951 0.141496345 -0.988874137
vn -0.503089964 -0.172796622 0.846783221
vn -0.503098667 -0.172699586 0.846797824
vn -0.503081203 -0.172893599 0.846768558
vn 0.934605777 0.349602193 0.0655004233
vn 0.934573114 0.349689931 0.065498136
vn 0.216093674 -0.973171532 0.0789976493
vn 0.32159853 -0.935395956 0.146999314
vn -0.216093674 -0.973171532 0.0789976493
vn -0.32159853 -0.935395956 0.146999314
vn -0.0431989618 -0.138096735 0.989476264
vn -0.37642014 -0.128106892 0.917549133
vn -0.0446010903 -0.137303427 0.989524364
vn -0.703189969 -0.0988986343 0.704090118
vn -0.833786428 0.0769987777 -0.54669112
vn -0.433391482 0.12579757 -0.892382622
vn -0.191301927 0.137801439 -0.971809864
vn 0.0482994132 0.140598327 -0.988887906
vn 0.0461009629 0.141803026 -0.988820791
vn 0.376582772 -0.128994152 0.91735816
vn 0.0434017554 -0.139005661 0.989340007
vn 0.0448993817 -0.138198152 0.98938638
vn 0.70326221 -0.0992946997 0.703962207
vn 0.999988973 -0.000799991481 0.00459994981
vn 0.83380568 0.0767005458 -0.546703696
vn 0.742183268 0.0931979269 -0.663685143
vn 0.433418751 0.125305474 -0.89243865
vn 0.191408798 0.137406364 -0.971844733
vn -0.0481975749 0.140193 -0.988950312
vn -0.0458994471 0.14139834 -0.988888144
vn 0.765927494 -0.00220005098 -0.642923117
vn 0.831645966 -0.0329018012 -0.554330647
vn 0.772813261 0.0323005803 -0.633810818
vn 0.987177074 -0.129596993 -0.0931978524
vn 0.973227322 -0.105102956 0.204405725
vn 0.881711543 -0.0989013165 0.461306065
vn 0.883711457 -0.0242003333 0.467406064
vn -0.688248396 0.262680352 -0.676249385
vn -0.688313007 0.262605071 -0.676212788
vn -0.688195705 0.262698412 -0.676295877
vn 0.502822399 -0.173307732 0.846837759
vn -0.934501171 0.349900454 0.0654001012
vn -0.934474528 0.349990457 0.0652982444
vn -0.934533894 0.349812716 0.065402396
vn -0.934706807 0.34750253 0.0746005699
vn -0.934636056 0.34771347 0.0745029077
vn -0.934739232 0.347414613 0.0746031553
vn 0.502813578 -0.173404723 0.846823037
vn 0.502905786 -0.173202038 0.846809804
vn 0.502787411 -0.173695713 0.846778929
vn 0.688248396 0.262680352 -0.676249385
vn 0.688313007 0.262605071 -0.676212788
vn 0.688195705 0.262698412 -0.676295877
vn -0.831645966 -0.0329018012 -0.554330647
vn -0.765927494 -0.00220005098 -0.642923117
vn -0.772813261 0.0323005803 -0.633810818
vn -0.987177074 -0.129596993 -0.0931978524
vn -0.883711457 -0.0242003333 0.467406064
vn -0.130602896 0.991122067 -0.024900509
vn 0 0.999684989 -0.0250995792
vn -0.153993413 0.987257779 -0.0400982425
vn 0.130602896 0.991122067 -0.024900509
vn 0.153993413 0.987257779 -0.0400982425
vn -0.293806523 -0.945821166 -0.138203129
vn -0.298294574 -0.942882895 -0.148297355
vn -0.296392143 -0.945774913 -0.132896513
vn 0.296392143 -0.945774913 -0.132896513
vn 0.293806523 -0.945821166 -0.138203129
vn 0.298294574 -0.942882895 -0.148297355
vn 0.349707067 -0.936718941 0.0162002873
vn 0.349707633 -0.93672049 0.0161003117
vn -0.349707633 0.93672049 -0.0161003117
vn 0.934501171 0.349900454 0.0654001012
vn 0.934474528 0.349990457 0.0652982444
vn 0.934533894 0.349812716 0.065402396
vn 0 -0.996746182 0.0806036815
vn 0.215601057 -0.973304868 0.0787003487
vn 0.320609748 -0.935828507 0.146404415
vn -0.215601057 -0.973304868 0.0787003487
vn -0.320609748 -0.935828507 0.146404415
vn -0.0432020314 -0.138306558 0.9894467
vn -0.376405627 -0.12840198 0.917513847
vn -0.0445992649 -0.137597784 0.989483654
vn -0.703183055 -0.09899766 0.704083145
vn -0.833792925 0.076899372 -0.546695352
vn -0.742037416 0.0933047384 -0.663833439
vn -0.433287948 0.125496566 -0.892475247
vn -0.191309825 0.137507111 -0.971849978
vn 0.349795401 -0.936687768 0.0160997491
vn 0.349794835 -0.936686218 0.016199721
vn -0.349794835 0.936686218 -0.016199721
vn -0.349795401 0.936687768 -0.0160997491
vn -0.34979558 -0.936788321 -0.00839993544
vn -0.349795341 -0.936787605 -0.00849992968
vn -0.934423149 0.350108743 0.0654016435
vn -0.3497082 -0.936721981 0.016000336
vn -0.934605777 0.349602193 0.0655004233
vn -0.934573114 0.349689931 0.065498136
vn 0.34979558 -0.936788321 -0.00839993544
vn 0.349795341 -0.936787605 -0.00849992968
vn 0.688167334 0.245188415 -0.682867646
vn 0.688214302 0.245205164 -0.6828143
vn 0.3497082 -0.936721981 0.016000336
vn -0.503000498 -0.195000231 0.842000782
vn 0.688304365 0.244701594 -0.682904243
vn 0.688201129 0.245000452 -0.682901144
vn 0.68850708 0.244402543 -0.682806969
vn 0.277789026 0.950562656 0.138794586
vn 0.302907288 0.943622768 0.133503258
vn 0.29389134 0.946172059 0.135596052
vn 0.324286461 0.936761022 0.131594568
vn 0 0.99037689 0.138396829
vn 0 0.990501642 0.137500271
vn -0.302907288 0.943622768 0.133503258
vn -0.324286461 0.936761022 0.131594568
vn -0.29389134 0.946172059 0.135596052
vn -0.277789026 0.950562656 0.138794586
vn 0.278000027 0.950500071 0.138800055
vn 0.302816451 0.943651378 0.133507311
vn 0.324282169 0.936748624 0.131692812
vn 0 0.990488112 0.137598395
vn -0.302816451 0.943651378 0.133507311
vn -0.324282169 0.936748624 0.131692812
vn -0.278000027 0.950500071 0.138800055
vn 0.324312568 0.936736465 0.131705165
vn -0.324312568 0.936736465 0.131705165
vn 0.277907759 0.950526536 0.138803929
vn 0.302693069 0.943678379 0.133596987
vn 0.323684484 0.936955154 0.131693736
vn -0.302693069 0.943678379 0.133596987
vn -0.323684484 0.936955154 0.131693736
vn -0.277907759 0.950526536 0.138803929

# Mesh 'PipelineFBX' with 298 faces
g PipelineFBX
usemtl DefaultMaterial
f  1/1/1 2/2/2 3/3/3
f  4/2/2 5/1/1 6/4/4
f  7/4/4 8/5/5 9/2/2
f  10/5/5 11/4/4 12/6/6
f  13/6/6 14/7/7 15/5/5
f  16/7/7 17/6/6 18/8/7
f  19/9/8 20/7/7 21/8/7
f  22/7/7 23/9/8 24/10/9
f  25/11/10 26/10/9 27/9/8
f  28/10/9 29/11/10 30/12/11
f  31/10/12 32/11/13 33/12/14
f  34/11/13 35/10/12 36/9/15
f  37/7/16 38/9/15 39/10/12
f  40/9/15 41/7/16 42/8/7
f  43/7/16 44/6/17 45/8/7
f  46/6/17 47/7/16 48/5/18
f  49/5/18 50/4/19 51/6/17
f  52/4/19 53/5/18 54/2/20
f  55/2/20 56/1/21 57/4/19
f  58/1/21 59/2/20 60/3/22
f  61/13/23 62/14/24 63/15/25
f  64/14/24 65/13/23 66/16/26
f  67/16/26 68/17/27 69/14/24
f  70/17/27 71/16/26 72/18/28
f  73/18/28 74/19/29 75/17/27
f  76/19/29 77/18/28 78/20/30
f  79/19/31 80/18/32 81/20/33
f  82/18/32 83/19/31 84/17/34
f  85/17/34 86/16/35 87/18/32
f  88/16/35 89/17/34 90/14/36
f  91/14/36 92/13/37 93/16/35
f  94/13/37 95/14/36 96/15/25
f  97/21/38 98/22/38 99/23/38
f  100/22/38 101/21/38 102/24/39
f  103/25/40 104/26/40 105/27/40
f  106/26/40 107/25/40 108/28/40
f  109/29/41 110/30/41 111/31/42
f  112/30/41 113/29/41 114/32/43
f  115/21/44 116/22/44 117/23/44
f  118/22/44 119/21/44 120/24/45
f  121/25/46 122/26/46 123/27/46
f  124/26/46 125/25/46 126/28/47
f  127/33/48 128/34/49 129/35/50
f  130/34/49 131/33/48 132/36/51
f  133/33/48 134/37/52 135/36/51
f  136/37/52 137/33/48 138/38/53
f  139/11/54 140/10/55 141/12/56
f  142/10/55 143/11/54 144/9/57
f  145/9/57 146/7/58 147/10/55
f  148/7/58 149/9/57 150/8/59
f  151/6/60 152/7/58 153/8/59
f  154/7/58 155/6/60 156/5/61
f  157/4/62 158/5/61 159/6/60
f  160/5/61 161/4/62 162/2/63
f  163/1/64 164/2/63 165/4/62
f  166/2/63 167/1/64 168/3/65
f  169/39/66 170/40/66 171/41/66
f  172/40/66 173/39/66 174/42/66
f  175/14/67 176/13/68 177/15/69
f  178/13/68 179/14/67 180/16/70
f  181/17/71 182/16/70 183/14/67
f  184/16/70 185/17/71 186/18/72
f  187/19/73 188/18/72 189/17/71
f  190/18/72 191/19/73 192/20/74
f  193/43/75 194/44/76 195/45/77
f  196/44/76 197/43/75 198/46/78
f  199/43/75 200/47/79 201/46/78
f  202/47/79 203/43/75 204/48/80
f  205/49/81 206/50/82 207/51/83
f  208/50/82 209/49/81 210/52/84
f  211/52/84 212/53/85 213/50/82
f  214/53/85 215/52/84 216/54/85
f  217/55/86 218/53/85 219/54/85
f  220/53/85 221/55/86 222/56/87
f  223/57/88 224/56/87 225/55/86
f  226/56/87 227/57/88 228/58/89
f  229/30/90 230/29/90 231/31/91
f  232/29/90 233/30/90 234/32/92
f  235/18/93 236/19/94 237/20/95
f  238/19/94 239/18/93 240/17/71
f  241/16/96 242/17/71 243/18/93
f  244/17/71 245/16/96 246/14/97
f  247/13/98 248/14/97 249/16/96
f  250/14/97 251/13/98 252/15/99
f  253/47/100 254/43/101 255/48/102
f  256/43/101 257/47/100 258/46/78
f  259/44/103 260/43/101 261/46/78
f  262/43/101 263/44/103 264/45/104
f  265/56/105 266/57/106 267/58/107
f  268/57/106 269/56/105 270/55/108
f  271/53/85 272/55/108 273/56/105
f  274/55/108 275/53/85 276/54/85
f  277/53/85 278/52/109 279/54/85
f  280/52/109 281/53/85 282/50/110
f  283/50/110 284/49/111 285/52/109
f  286/49/111 287/50/110 288/51/112
f  289/59/113 290/60/113 291/61/114
f  292/60/113 293/59/113 294/62/115
f  295/39/116 296/40/116 297/41/117
f  298/40/116 299/39/116 300/42/118
f  301/14/119 302/13/120 303/15/69
f  304/13/120 305/14/119 306/16/121
f  307/17/122 308/16/121 309/14/119
f  310/16/121 311/17/122 312/18/123
f  313/19/124 314/18/123 315/17/122
f  316/18/123 317/19/124 318/20/125
f  319/43/101 320/44/126 321/45/127
f  322/44/126 323/43/101 324/46/128
f  325/43/101 326/47/129 327/46/128
f  328/47/129 329/43/101 330/48/130
f  331/49/131 332/50/132 333/51/133
f  334/50/132 335/49/131 336/52/134
f  337/52/134 338/53/85 339/50/132
f  340/53/85 341/52/134 342/54/85
f  343/55/135 344/53/85 345/54/85
f  346/53/85 347/55/135 348/56/136
f  349/57/137 350/56/136 351/55/135
f  352/56/136 353/57/137 354/58/138
f  355/10/139 356/11/140 357/12/141
f  358/11/140 359/10/139 360/9/142
f  361/7/143 362/9/142 363/10/139
f  364/9/142 365/7/143 366/8/7
f  367/7/143 368/6/144 369/8/7
f  370/6/144 371/7/143 372/5/18
f  373/5/18 374/4/145 375/6/144
f  376/4/145 377/5/18 378/2/146
f  379/2/146 380/1/1 381/4/145
f  382/1/1 383/2/146 384/3/3
f  385/25/147 386/26/147 387/27/147
f  388/26/147 389/25/147 390/28/147
f  391/29/148 392/30/148 393/31/149
f  394/30/148 395/29/148 396/32/43
f  397/40/150 398/39/150 399/41/151
f  400/39/150 401/40/150 402/42/152
f  403/40/153 404/39/153 405/41/153
f  406/39/153 407/40/153 408/42/153
f  409/29/154 410/30/154 411/31/155
f  412/30/154 413/29/154 414/32/156
f  415/26/157 416/25/157 417/27/157
f  418/25/157 419/26/157 420/28/157
f  421/60/158 422/59/158 423/62/158
f  424/59/158 425/60/158 426/61/158
f  427/33/159 428/34/160 429/35/161
f  430/34/160 431/33/159 432/36/162
f  433/33/159 434/37/163 435/36/162
f  436/37/163 437/33/159 438/38/164
f  439/11/165 440/10/166 441/12/167
f  442/10/166 443/11/165 444/9/168
f  445/9/168 446/7/169 447/10/166
f  448/7/169 449/9/168 450/8/170
f  451/6/171 452/7/169 453/8/170
f  454/7/169 455/6/171 456/5/172
f  457/4/173 458/5/172 459/6/171
f  460/5/172 461/4/173 462/2/174
f  463/1/175 464/2/174 465/4/173
f  466/2/174 467/1/175 468/3/176
f  469/39/177 470/40/177 471/41/178
f  472/40/177 473/39/177 474/42/179
f  475/60/180 476/59/180 477/62/180
f  478/59/180 479/60/180 480/61/181
f  481/33/48 482/34/182 483/35/183
f  484/34/182 485/33/48 486/36/51
f  487/33/48 488/37/184 489/36/51
f  490/37/184 491/33/48 492/38/185
f  493/11/186 494/10/187 495/12/188
f  496/10/187 497/11/186 498/9/189
f  499/9/189 500/7/59 501/10/187
f  502/7/59 503/9/189 504/8/170
f  505/6/190 506/7/59 507/8/170
f  508/7/59 509/6/190 510/5/172
f  511/4/191 512/5/172 513/6/190
f  514/5/172 515/4/191 516/2/192
f  517/1/193 518/2/192 519/4/191
f  520/2/192 521/1/193 522/3/194
f  523/10/195 524/11/196 525/12/197
f  526/11/196 527/10/195 528/9/198
f  529/7/199 530/9/198 531/10/195
f  532/9/198 533/7/199 534/8/16
f  535/7/199 536/6/200 537/8/16
f  538/6/200 539/7/199 540/5/201
f  541/5/201 542/4/202 543/6/200
f  544/4/202 545/5/201 546/2/203
f  547/2/203 548/1/204 549/4/202
f  550/1/204 551/2/203 552/3/205
f  553/19/206 554/18/207 555/20/208
f  556/18/207 557/19/206 558/17/34
f  559/17/34 560/16/209 561/18/207
f  562/16/209 563/17/34 564/14/210
f  565/14/210 566/13/211 567/16/209
f  568/13/211 569/14/210 570/15/212
f  571/63/213 572/30/213 573/31/214
f  574/30/213 575/63/213 576/32/215
f  577/40/216 578/39/216 579/41/216
f  580/39/216 581/40/216 582/42/216
f  583/60/217 584/59/217 585/61/218
f  586/59/217 587/60/217 588/62/219
f  589/60/220 590/59/220 591/61/221
f  592/59/220 593/60/220 594/62/222
f  595/40/223 596/39/223 597/41/224
f  598/39/223 599/40/223 600/42/225
f  601/30/226 602/63/226 603/31/227
f  604/63/226 605/30/226 606/32/228
f  607/18/229 608/19/230 609/20/231
f  610/19/230 611/18/229 612/17/122
f  613/16/232 614/17/122 615/18/229
f  616/17/122 617/16/232 618/14/97
f  619/13/98 620/14/97 621/16/232
f  622/14/97 623/13/98 624/15/233
f  625/47/234 626/43/235 627/48/236
f  628/43/235 629/47/234 630/46/78
f  631/44/237 632/43/235 633/46/78
f  634/43/235 635/44/237 636/45/238
f  637/56/239 638/57/137 639/58/240
f  640/57/137 641/56/239 642/55/241
f  643/53/85 644/55/241 645/56/239
f  646/55/241 647/53/85 648/54/85
f  649/53/85 650/52/242 651/54/85
f  652/52/242 653/53/85 654/50/243
f  655/50/243 656/49/131 657/52/242
f  658/49/131 659/50/243 660/51/244
f  661/21/245 662/22/245 663/24/246
f  664/22/245 665/21/245 666/23/245
f  667/25/247 668/26/247 669/28/247
f  670/26/247 671/25/247 672/27/247
f  673/59/248 674/60/248 675/61/249
f  676/60/248 677/59/248 678/62/250
f  679/33/251 680/34/252 681/35/253
f  682/34/252 683/33/251 684/36/162
f  685/33/251 686/37/254 687/36/162
f  688/37/254 689/33/251 690/38/255
f  691/11/256 692/10/257 693/12/258
f  694/10/257 695/11/256 696/9/259
f  697/9/259 698/7/170 699/10/257
f  700/7/170 701/9/259 702/8/170
f  703/6/260 704/7/170 705/8/170
f  706/7/170 707/6/260 708/5/261
f  709/4/262 710/5/261 711/6/260
f  712/5/261 713/4/262 714/2/263
f  715/1/175 716/2/263 717/4/262
f  718/2/263 719/1/175 720/3/176
f  721/21/264 722/22/264 723/24/265
f  724/22/264 725/21/264 726/23/264
f  727/25/266 728/26/266 729/28/267
f  730/26/266 731/25/266 732/27/266
f  733/22/268 734/21/268 735/24/269
f  736/21/268 737/22/268 738/64/268
f  739/59/270 740/60/270 741/62/270
f  742/60/270 743/59/270 744/61/270
f  745/21/39 746/22/39 747/23/45
f  748/22/39 749/21/39 750/24/271
f  751/25/40 752/26/40 753/27/40
f  754/26/40 755/25/40 756/28/40
f  757/59/272 758/60/272 759/62/272
f  760/60/272 761/59/272 762/61/273
f  763/22/274 764/21/274 765/64/274
f  766/21/274 767/22/274 768/24/275
f  769/30/276 770/29/276 771/31/277
f  772/29/276 773/30/276 774/32/92
f  775/21/246 776/22/246 777/24/278
f  778/22/246 779/21/246 780/23/265
f  781/25/247 782/26/247 783/28/247
f  784/26/247 785/25/247 786/27/247
f  787/39/279 788/40/279 789/41/279
f  790/40/279 791/39/279 792/42/279
f  793/30/280 794/29/280 795/31/281
f  796/29/280 797/30/280 798/32/282
f  799/65/283 800/66/284 801/67/285
f  802/66/284 803/68/286 804/67/285
f  805/66/284 806/69/287 807/68/286
f  808/69/287 809/66/284 810/70/288
f  811/71/289 812/69/287 813/70/288
f  814/69/287 815/71/289 816/72/290
f  817/72/290 818/71/289 819/73/291
f  820/71/289 821/74/292 822/73/291
f  823/65/293 824/66/294 825/67/285
f  826/66/294 827/68/295 828/67/285
f  829/66/294 830/69/287 831/68/295
f  832/69/287 833/66/294 834/70/296
f  835/71/297 836/69/287 837/70/296
f  838/69/287 839/71/297 840/72/298
f  841/72/298 842/71/297 843/73/291
f  844/71/297 845/74/299 846/73/291
f  847/65/293 848/66/284 849/67/285
f  850/66/284 851/68/300 852/67/285
f  853/66/284 854/69/287 855/68/300
f  856/69/287 857/66/284 858/70/296
f  859/71/289 860/69/287 861/70/296
f  862/69/287 863/71/289 864/72/301
f  865/72/301 866/71/289 867/73/291
f  868/71/289 869/74/299 870/73/291
f  871/65/302 872/66/303 873/67/285
f  874/66/303 875/68/304 876/67/285
f  877/66/303 878/69/287 879/68/304
f  880/69/287 881/66/303 882/70/296
f  883/71/305 884/69/287 885/70/296
f  886/69/287 887/71/305 888/72/306
f  889/72/306 890/71/305 891/73/291
f  892/71/305 893/74/307 894/73/291

