# File produced by Open Asset Import Library (http://www.assimp.sf.net)
# (assimp v6.0.0)

mtllib ship16f.mtl

# 1452 vertex positions
v -84.2100067 3.15000391 -84.9599991
v -132.225006 -9.58499432 -170.14502
v -84.2100067 -17.4749966 -82.9200058
v -132.225006 -9.58499432 -170.14502
v -84.2100067 3.15000391 -84.9599991
v -132.225006 9.9000082 -172.125015
v -31.8000011 -23.8349838 -366.825012
v -132.225006 -9.58499432 -170.14502
v -132.225006 9.9000082 -172.125015
v -132.225006 -9.58499432 -170.14502
v -31.8000011 -23.8349838 -366.825012
v -31.8000011 -42.6899872 -364.845032
v 0 -31.6049862 -370.695038
v -31.8000011 -42.6899872 -364.845032
v -31.8000011 -23.8349838 -366.825012
v -31.8000011 -42.6899872 -364.845032
v 0 -31.6049862 -370.695038
v 0 -50.8049889 -368.565002
v -182.025024 -16.800005 50.3250046
v 0 -59.3099861 -336.255035
v 0 -87.5699921 -332.52002
v 0 -59.3099861 -336.255035
v -182.025024 -16.800005 50.3250046
v -176.685013 8.15999889 46.9650078
v -182.025024 -16.800005 50.3250046
v -58.2450066 -2.23500729 161.775024
v -176.685013 8.15999889 46.9650078
v -58.2450066 -2.23500729 161.775024
v -182.025024 -16.800005 50.3250046
v -70.5 -44.7000122 171.525009
v -70.5 -44.7000122 171.525009
v 0 -12.2850094 189.180008
v -58.2450066 -2.23500729 161.775024
v 0 -12.2850094 189.180008
v -70.5 -44.7000122 171.525009
v 0 -57.6000137 202.560013
v 0 -18.4650059 111.435005
v -42.2100029 -29.6250153 306.225037
v -94.4850006 -6.21000576 115.620003
v -42.2100029 -29.6250153 306.225037
v 0 -18.4650059 111.435005
v 0 -45.7050171 364.920013
v 0 -18.4650059 111.435005
v 42.2100029 -29.6250153 306.225037
v 0 -45.7050171 364.920013
v 42.2100029 -29.6250153 306.225037
v 0 -18.4650059 111.435005
v 94.4850006 -6.21000576 115.620003
v 0 -59.3099861 -336.255035
v 182.025024 -16.800005 50.3250046
v 0 -87.5699921 -332.52002
v 182.025024 -16.800005 50.3250046
v 0 -59.3099861 -336.255035
v 176.685013 8.15999889 46.9650078
v 58.2450066 -2.23500729 161.775024
v 182.025024 -16.800005 50.3250046
v 176.685013 8.15999889 46.9650078
v 182.025024 -16.800005 50.3250046
v 58.2450066 -2.23500729 161.775024
v 70.5 -44.7000122 171.525009
v 0 -12.2850094 189.180008
v 70.5 -44.7000122 171.525009
v 58.2450066 -2.23500729 161.775024
v 70.5 -44.7000122 171.525009
v 0 -12.2850094 189.180008
v 0 -57.6000137 202.560013
v -68.5500031 17.0249901 282.930023
v -19.1250019 -19.995018 331.575012
v -15.6150007 -15.8550158 337.905029
v -19.1250019 -19.995018 331.575012
v -68.5500031 17.0249901 282.930023
v -71.5500031 13.3199883 279.090027
v -71.5500031 13.3199883 279.090027
v -21.0600033 -22.3200169 314.055023
v -19.1250019 -19.995018 331.575012
v -21.0600033 -22.3200169 314.055023
v -71.5500031 13.3199883 279.090027
v -75.9600067 11.9099903 259.080017
v -75.9600067 11.9099903 259.080017
v -22.1850033 -23.6700153 291.000031
v -21.0600033 -22.3200169 314.055023
v -22.1850033 -23.6700153 291.000031
v -75.9600067 11.9099903 259.080017
v -73.9200058 7.99498987 239.025009
v -73.9200058 7.99498987 239.025009
v -23.2200012 -24.8850136 268.110016
v -22.1850033 -23.6700153 291.000031
v -75.0750122 20.5949898 278.775024
v -71.5500031 13.3199883 279.090027
v -68.5500031 17.0249901 282.930023
v -71.5500031 13.3199883 279.090027
v -75.0750122 20.5949898 278.775024
v -76.4250107 16.4249897 274.215027
v -75.9600067 11.9099903 259.080017
v -71.5500031 13.3199883 279.090027
v -76.4250107 16.4249897 274.215027
v -75.9600067 11.9099903 259.080017
v -76.4250107 16.4249897 274.215027
v -81.8850021 17.9249878 273.825012
v -81.8850021 17.9249878 273.825012
v -140.040009 17.7599888 271.590027
v -75.9600067 11.9099903 259.080017
v -144.465012 15.3899908 260.235016
v -75.9600067 11.9099903 259.080017
v -140.040009 17.7599888 271.590027
v -75.9600067 11.9099903 259.080017
v -144.465012 15.3899908 260.235016
v -73.9200058 7.99498987 239.025009
v -148.875015 13.7099905 248.805023
v -73.9200058 7.99498987 239.025009
v -144.465012 15.3899908 260.235016
v -73.9200058 7.99498987 239.025009
v -148.875015 13.7099905 248.805023
v -69.3300095 5.20499039 218.730011
v -23.2200012 -24.8850136 268.110016
v -73.9200058 7.99498987 239.025009
v -69.3300095 5.20499039 218.730011
v -69.3300095 5.20499039 218.730011
v -22.3200016 -23.8950119 250.75502
v -23.2200012 -24.8850136 268.110016
v -81.2850037 21.689991 277.560028
v -76.4250107 16.4249897 274.215027
v -75.0750122 20.5949898 278.775024
v -76.4250107 16.4249897 274.215027
v -81.2850037 21.689991 277.560028
v -81.8850021 17.9249878 273.825012
v -135.615021 21.8549881 282.750031
v -81.8850021 17.9249878 273.825012
v -81.2850037 21.689991 277.560028
v -81.8850021 17.9249878 273.825012
v -135.615021 21.8549881 282.750031
v -136.725006 20.144989 280.035004
v -140.040009 17.7599888 271.590027
v -81.8850021 17.9249878 273.825012
v -136.725006 20.144989 280.035004
v -40.0200005 -5.27998304 -396.210052
v -35.4750023 -24.8399868 -337.875031
v -44.3550072 -24.884985 -395.535034
v -35.4750023 -24.8399868 -337.875031
v -40.0200005 -5.27998304 -396.210052
v -31.1400013 -5.24998569 -338.550018
v -31.1400013 -5.24998569 -338.550018
v -27.8550014 -21.7499886 -292.935028
v -35.4750023 -24.8399868 -337.875031
v -27.8550014 -21.7499886 -292.935028
v -31.1400013 -5.24998569 -338.550018
v -24.885004 -8.27998829 -293.400024
v -27.8550014 -21.7499886 -292.935028
v -24.885004 -8.27998829 -293.400024
v -24.8100014 -14.9999886 -283.080017
v -276.600037 90.9300079 -171.930008
v -258.195007 97.9350128 -133.650009
v -274.455017 101.040016 -172.470001
v -258.195007 97.9350128 -133.650009
v -276.600037 90.9300079 -171.930008
v -260.340027 87.8250122 -133.110001
v -260.340027 87.8250122 -133.110001
v -245.820023 93.9300156 -103.230011
v -258.195007 97.9350128 -133.650009
v -245.820023 93.9300156 -103.230011
v -260.340027 87.8250122 -133.110001
v -247.305023 86.9850159 -102.87001
v -245.820023 93.9300156 -103.230011
v -247.305023 86.9850159 -102.87001
v -243.720032 89.9100037 -96.2550049
v -160.755005 15.7650023 -23.2800026
v -99.2550125 -24.9299984 -70.0200043
v -103.185005 -32.954998 -82.3950119
v -99.2550125 -24.9299984 -70.0200043
v -160.755005 15.7650023 -23.2800026
v -156.13501 19.6950016 -15.1800003
v -156.13501 19.6950016 -15.1800003
v -106.38002 -12.5700006 -17.1600018
v -99.2550125 -24.9299984 -70.0200043
v -106.38002 -12.5700006 -17.1600018
v -156.13501 19.6950016 -15.1800003
v -151.380005 17.625 22.1250019
v -151.380005 17.625 22.1250019
v -105.180008 -12.9150009 25.9800014
v -106.38002 -12.5700006 -17.1600018
v -151.380005 17.625 22.1250019
v -147.180008 8.8799963 87.8850098
v -105.180008 -12.9150009 25.9800014
v -147.180008 8.8799963 87.8850098
v -94.215004 -25.260006 75.765007
v -105.180008 -12.9150009 25.9800014
v -216.675018 90.0600052 52.0200043
v -156.13501 19.6950016 -15.1800003
v -160.755005 15.7650023 -23.2800026
v -156.13501 19.6950016 -15.1800003
v -216.675018 90.0600052 52.0200043
v -214.200012 91.1850128 55.8900032
v -214.200012 91.1850128 55.8900032
v -151.380005 17.625 22.1250019
v -156.13501 19.6950016 -15.1800003
v -151.380005 17.625 22.1250019
v -214.200012 91.1850128 55.8900032
v -209.685013 87.7350006 74.0250092
v -209.685013 87.7350006 74.0250092
v -147.180008 8.8799963 87.8850098
v -151.380005 17.625 22.1250019
v -147.180008 8.8799963 87.8850098
v -209.685013 87.7350006 74.0250092
v -203.01001 78.9450073 108.180008
v -203.085007 76.9050064 112.095016
v -147.180008 8.8799963 87.8850098
v -203.01001 78.9450073 108.180008
v -147.180008 8.8799963 87.8850098
v -203.085007 76.9050064 112.095016
v -148.920013 5.23499584 95.1150131
v -148.920013 5.23499584 95.1150131
v -94.215004 -25.260006 75.765007
v -147.180008 8.8799963 87.8850098
v -94.215004 -25.260006 75.765007
v -148.920013 5.23499584 95.1150131
v -95.4300156 -31.7550087 85.3199997
v 0 -18.4650059 111.435005
v 78.4200134 16.199995 140.14502
v 94.4850006 -6.21000576 115.620003
v 78.4200134 16.199995 140.14502
v 0 -18.4650059 111.435005
v 0 5.24999428 143.430023
v 0 -18.4650059 111.435005
v -78.4200134 16.199995 140.14502
v 0 5.24999428 143.430023
v -78.4200134 16.199995 140.14502
v 0 -18.4650059 111.435005
v -94.4850006 -6.21000576 115.620003
v 56.3400078 -68.9700012 -110.055016
v 64.7099991 -11.5800037 66.5850067
v 70.2000046 -49.6500092 102.074997
v 64.7099991 -11.5800037 66.5850067
v 56.3400078 -68.9700012 -110.055016
v 56.7000008 -29.5049992 -116.865013
v 76.7550049 10.7849922 205.425018
v 152.190018 20.0099907 239.355042
v 153.300018 16.5599918 236.850021
v 152.190018 20.0099907 239.355042
v 76.7550049 10.7849922 205.425018
v 74.5800095 16.7249928 207.435028
v 70.9199982 20.6999912 218.625015
v 152.190018 20.0099907 239.355042
v 74.5800095 16.7249928 207.435028
v 152.190018 20.0099907 239.355042
v 70.9199982 20.6999912 218.625015
v 148.875015 22.0499897 247.845032
v 70.9199982 20.6999912 218.625015
v 144.465012 23.024992 259.365021
v 148.875015 22.0499897 247.845032
v 144.465012 23.024992 259.365021
v 70.9199982 20.6999912 218.625015
v 62.5500031 21.7199917 236.070007
v 66.8550034 23.1299915 256.935028
v 144.465012 23.024992 259.365021
v 62.5500031 21.7199917 236.070007
v 144.465012 23.024992 259.365021
v 66.8550034 23.1299915 256.935028
v 140.040009 23.3099899 270.960022
v 60.885006 9.80999184 202.125015
v 74.5800095 16.7249928 207.435028
v 76.7550049 10.7849922 205.425018
v 74.5800095 16.7249928 207.435028
v 60.885006 9.80999184 202.125015
v 58.3350029 14.0249929 203.205002
v 58.7850037 18.7799931 215.50502
v 74.5800095 16.7249928 207.435028
v 58.3350029 14.0249929 203.205002
v 74.5800095 16.7249928 207.435028
v 58.7850037 18.7799931 215.50502
v 70.9199982 20.6999912 218.625015
v 70.9199982 20.6999912 218.625015
v 58.7850037 18.7799931 215.50502
v 62.5500031 21.7199917 236.070007
v 58.7850037 18.7799931 215.50502
v 53.8500061 17.2649918 219.990005
v 62.5500031 21.7199917 236.070007
v 53.8500061 17.2649918 219.990005
v 57.6300087 19.9349918 241.560028
v 62.5500031 21.7199917 236.070007
v 57.6300087 19.9349918 241.560028
v 66.8550034 23.1299915 256.935028
v 62.5500031 21.7199917 236.070007
v 55.2450027 5.29499149 206.805023
v 58.3350029 14.0249929 203.205002
v 60.885006 9.80999184 202.125015
v 58.3350029 14.0249929 203.205002
v 55.2450027 5.29499149 206.805023
v 50.8200073 11.2049913 208.560028
v 50.8200073 11.2049913 208.560028
v 58.7850037 18.7799931 215.50502
v 58.3350029 14.0249929 203.205002
v 58.7850037 18.7799931 215.50502
v 50.8200073 11.2049913 208.560028
v 53.8500061 17.2649918 219.990005
v 12.6750002 -13.065011 249.840012
v 53.8500061 17.2649918 219.990005
v 50.8200073 11.2049913 208.560028
v 53.8500061 17.2649918 219.990005
v 12.6750002 -13.065011 249.840012
v 11.1900015 -10.9500122 268.305023
v 11.1900015 -10.9500122 268.305023
v 57.6300087 19.9349918 241.560028
v 53.8500061 17.2649918 219.990005
v 57.6300087 19.9349918 241.560028
v 11.1900015 -10.9500122 268.305023
v 11.3550005 -10.7100134 292.710022
v 11.3550005 -10.7100134 292.710022
v 61.6800003 21.0749893 262.440033
v 57.6300087 19.9349918 241.560028
v 66.8550034 23.1299915 256.935028
v 57.6300087 19.9349918 241.560028
v 61.6800003 21.0749893 262.440033
v 17.5800018 -18.6600113 244.320023
v 50.8200073 11.2049913 208.560028
v 55.2450027 5.29499149 206.805023
v 50.8200073 11.2049913 208.560028
v 17.5800018 -18.6600113 244.320023
v 12.6750002 -13.065011 249.840012
v 61.6800003 21.0749893 262.440033
v 11.3550005 -10.7100134 292.710022
v 11.3700008 -10.695015 315.960022
v 11.3700008 -10.695015 315.960022
v 64.8450089 19.4549904 278.100006
v 61.6800003 21.0749893 262.440033
v 70.6650085 22.9499893 272.025024
v 61.6800003 21.0749893 262.440033
v 64.8450089 19.4549904 278.100006
v 61.6800003 21.0749893 262.440033
v 70.6650085 22.9499893 272.025024
v 66.8550034 23.1299915 256.935028
v 66.8550034 23.1299915 256.935028
v 70.6650085 22.9499893 272.025024
v 80.1300125 23.72999 273.375031
v 80.1300125 23.72999 273.375031
v 140.040009 23.3099899 270.960022
v 66.8550034 23.1299915 256.935028
v 140.040009 23.3099899 270.960022
v 80.1300125 23.72999 273.375031
v 136.725006 22.9049911 279.720032
v 81.2850037 21.689991 277.560028
v 136.725006 22.9049911 279.720032
v 80.1300125 23.72999 273.375031
v 136.725006 22.9049911 279.720032
v 81.2850037 21.689991 277.560028
v 135.615021 21.8549881 282.750031
v 64.8450089 19.4549904 278.100006
v 11.3700008 -10.695015 315.960022
v 12.420001 -12.0300159 332.774994
v 12.420001 -12.0300159 332.774994
v 68.5500031 17.0249901 282.930023
v 64.8450089 19.4549904 278.100006
v 75.0750122 20.5949898 278.775024
v 64.8450089 19.4549904 278.100006
v 68.5500031 17.0249901 282.930023
v 64.8450089 19.4549904 278.100006
v 75.0750122 20.5949898 278.775024
v 70.6650085 22.9499893 272.025024
v 75.0750122 20.5949898 278.775024
v 80.1300125 23.72999 273.375031
v 70.6650085 22.9499893 272.025024
v 80.1300125 23.72999 273.375031
v 75.0750122 20.5949898 278.775024
v 81.2850037 21.689991 277.560028
v 68.5500031 17.0249901 282.930023
v 12.420001 -12.0300159 332.774994
v 15.6150007 -15.8550158 337.905029
v 94.3350067 -8.51998425 -368.715057
v 35.4750023 -24.8399868 -337.875031
v 44.3550072 -24.884985 -395.535034
v 35.4750023 -24.8399868 -337.875031
v 94.3350067 -8.51998425 -368.715057
v 86.3550034 -5.75998974 -259.365021
v 86.3550034 -5.75998974 -259.365021
v 27.8550014 -21.7499886 -292.935028
v 35.4750023 -24.8399868 -337.875031
v 27.8550014 -21.7499886 -292.935028
v 86.3550034 -5.75998974 -259.365021
v 79.1850052 -0.629992425 -174.060028
v 79.1850052 -0.629992425 -174.060028
v 24.8100014 -14.9999886 -283.080017
v 27.8550014 -21.7499886 -292.935028
v 24.8100014 -14.9999886 -283.080017
v 79.1850052 -0.629992425 -174.060028
v 75.6900024 6.40500736 -155.190018
v 175.785019 60.5250092 -132.165009
v 75.6900024 6.40500736 -155.190018
v 79.1850052 -0.629992425 -174.060028
v 75.6900024 6.40500736 -155.190018
v 175.785019 60.5250092 -132.165009
v 175.095016 68.0100098 -121.695
v 161.940018 47.9850159 -240.060013
v 86.3550034 -5.75998974 -259.365021
v 94.3350067 -8.51998425 -368.715057
v 86.3550034 -5.75998974 -259.365021
v 161.940018 47.9850159 -240.060013
v 170.265015 53.355011 -179.460022
v 170.265015 53.355011 -179.460022
v 79.1850052 -0.629992425 -174.060028
v 86.3550034 -5.75998974 -259.365021
v 79.1850052 -0.629992425 -174.060028
v 170.265015 53.355011 -179.460022
v 175.785019 60.5250092 -132.165009
v 260.340027 87.8250122 -133.110001
v 175.785019 60.5250092 -132.165009
v 170.265015 53.355011 -179.460022
v 175.785019 60.5250092 -132.165009
v 260.340027 87.8250122 -133.110001
v 247.305023 86.9850159 -102.87001
v 247.305023 86.9850159 -102.87001
v 175.095016 68.0100098 -121.695
v 175.785019 60.5250092 -132.165009
v 175.095016 68.0100098 -121.695
v 247.305023 86.9850159 -102.87001
v 243.720032 89.9100037 -96.2550049
v 276.600037 90.9300079 -171.930008
v 170.265015 53.355011 -179.460022
v 161.940018 47.9850159 -240.060013
v 170.265015 53.355011 -179.460022
v 276.600037 90.9300079 -171.930008
v 260.340027 87.8250122 -133.110001
v 40.0200005 -5.27998304 -396.210052
v 94.3350067 -8.51998425 -368.715057
v 44.3550072 -24.884985 -395.535034
v 94.3350067 -8.51998425 -368.715057
v 40.0200005 -5.27998304 -396.210052
v 87.75 10.3950176 -369.540009
v 87.75 10.3950176 -369.540009
v 161.940018 47.9850159 -240.060013
v 94.3350067 -8.51998425 -368.715057
v 161.940018 47.9850159 -240.060013
v 87.75 10.3950176 -369.540009
v 154.380005 66.6150131 -240.210022
v 274.455017 101.040016 -172.470001
v 161.940018 47.9850159 -240.060013
v 154.380005 66.6150131 -240.210022
v 161.940018 47.9850159 -240.060013
v 274.455017 101.040016 -172.470001
v 276.600037 90.9300079 -171.930008
v 245.820023 93.9300156 -103.230011
v 175.095016 68.0100098 -121.695
v 243.720032 89.9100037 -96.2550049
v 175.095016 68.0100098 -121.695
v 245.820023 93.9300156 -103.230011
v 171.375031 73.5750122 -132.404999
v 171.375031 73.5750122 -132.404999
v 75.6900024 6.40500736 -155.190018
v 175.095016 68.0100098 -121.695
v 75.6900024 6.40500736 -155.190018
v 171.375031 73.5750122 -132.404999
v 74.9400101 12.4500084 -174.615021
v 74.9400101 12.4500084 -174.615021
v 24.8100014 -14.9999886 -283.080017
v 75.6900024 6.40500736 -155.190018
v 24.8100014 -14.9999886 -283.080017
v 74.9400101 12.4500084 -174.615021
v 24.885004 -8.27998829 -293.400024
v 80.0250092 13.2150126 -260.175018
v 24.885004 -8.27998829 -293.400024
v 74.9400101 12.4500084 -174.615021
v 24.885004 -8.27998829 -293.400024
v 80.0250092 13.2150126 -260.175018
v 31.1400013 -5.24998569 -338.550018
v 258.195007 97.9350128 -133.650009
v 171.375031 73.5750122 -132.404999
v 245.820023 93.9300156 -103.230011
v 171.375031 73.5750122 -132.404999
v 258.195007 97.9350128 -133.650009
v 163.38002 72.1950073 -179.714996
v 163.38002 72.1950073 -179.714996
v 74.9400101 12.4500084 -174.615021
v 171.375031 73.5750122 -132.404999
v 74.9400101 12.4500084 -174.615021
v 163.38002 72.1950073 -179.714996
v 80.0250092 13.2150126 -260.175018
v 154.380005 66.6150131 -240.210022
v 80.0250092 13.2150126 -260.175018
v 163.38002 72.1950073 -179.714996
v 80.0250092 13.2150126 -260.175018
v 154.380005 66.6150131 -240.210022
v 87.75 10.3950176 -369.540009
v 87.75 10.3950176 -369.540009
v 31.1400013 -5.24998569 -338.550018
v 80.0250092 13.2150126 -260.175018
v 31.1400013 -5.24998569 -338.550018
v 87.75 10.3950176 -369.540009
v 40.0200005 -5.27998304 -396.210052
v 274.455017 101.040016 -172.470001
v 163.38002 72.1950073 -179.714996
v 258.195007 97.9350128 -133.650009
v 163.38002 72.1950073 -179.714996
v 274.455017 101.040016 -172.470001
v 154.380005 66.6150131 -240.210022
v 104.235001 -33.1950073 72.6750031
v 148.920013 5.23499584 95.1150131
v 95.4300156 -31.7550087 85.3199997
v 148.920013 5.23499584 95.1150131
v 104.235001 -33.1950073 72.6750031
v 152.175003 2.93999648 87.1350098
v 204.960022 76.6049957 108.060013
v 148.920013 5.23499584 95.1150131
v 152.175003 2.93999648 87.1350098
v 148.920013 5.23499584 95.1150131
v 204.960022 76.6049957 108.060013
v 203.085007 76.9050064 112.095016
v 152.175003 2.93999648 87.1350098
v 104.235001 -33.1950073 72.6750031
v 122.790009 -26.7900047 17.5650005
v 161.340012 6.01499987 19.5150013
v 152.175003 2.93999648 87.1350098
v 122.790009 -26.7900047 17.5650005
v 213.810028 82.8300095 73.6650085
v 152.175003 2.93999648 87.1350098
v 161.340012 6.01499987 19.5150013
v 152.175003 2.93999648 87.1350098
v 213.810028 82.8300095 73.6650085
v 204.960022 76.6049957 108.060013
v 161.340012 6.01499987 19.5150013
v 122.790009 -26.7900047 17.5650005
v 125.595009 -27.7350006 -25.8600025
v 125.595009 -27.7350006 -25.8600025
v 163.845032 10.4550018 -16.0349998
v 161.340012 6.01499987 19.5150013
v 217.455017 87.2700043 55.7100105
v 161.340012 6.01499987 19.5150013
v 163.845032 10.4550018 -16.0349998
v 161.340012 6.01499987 19.5150013
v 217.455017 87.2700043 55.7100105
v 213.810028 82.8300095 73.6650085
v 163.845032 10.4550018 -16.0349998
v 125.595009 -27.7350006 -25.8600025
v 112.710007 -35.625 -73.6950073
v 112.710007 -35.625 -73.6950073
v 160.755005 15.7650023 -23.2800026
v 163.845032 10.4550018 -16.0349998
v 216.675018 90.0600052 52.0200043
v 163.845032 10.4550018 -16.0349998
v 160.755005 15.7650023 -23.2800026
v 163.845032 10.4550018 -16.0349998
v 216.675018 90.0600052 52.0200043
v 217.455017 87.2700043 55.7100105
v 160.755005 15.7650023 -23.2800026
v 112.710007 -35.625 -73.6950073
v 103.185005 -32.954998 -82.3950119
v -42.2100029 -29.6250153 306.225037
v -78.4200134 16.199995 140.14502
v -94.4850006 -6.21000576 115.620003
v -78.4200134 16.199995 140.14502
v -42.2100029 -29.6250153 306.225037
v -33.8100052 -5.53501368 308.535034
v -42.2100029 -29.6250153 306.225037
v 0 -18.825016 367.500031
v -33.8100052 -5.53501368 308.535034
v 0 -18.825016 367.500031
v -42.2100029 -29.6250153 306.225037
v 0 -45.7050171 364.920013
v 0 5.24999428 143.430023
v 33.8100052 -5.53501368 308.535034
v 78.4200134 16.199995 140.14502
v 33.8100052 -5.53501368 308.535034
v 0 5.24999428 143.430023
v 0 -18.825016 367.500031
v 0 5.24999428 143.430023
v -33.8100052 -5.53501368 308.535034
v 0 -18.825016 367.500031
v -33.8100052 -5.53501368 308.535034
v 0 5.24999428 143.430023
v -78.4200134 16.199995 140.14502
v -12.420001 -12.0300159 332.774994
v -68.5500031 17.0249901 282.930023
v -15.6150007 -15.8550158 337.905029
v -68.5500031 17.0249901 282.930023
v -12.420001 -12.0300159 332.774994
v -64.8450089 19.4549904 278.100006
v -64.8450089 19.4549904 278.100006
v -75.0750122 20.5949898 278.775024
v -68.5500031 17.0249901 282.930023
v -75.0750122 20.5949898 278.775024
v -64.8450089 19.4549904 278.100006
v -70.6650085 22.9499893 272.025024
v -80.1300125 23.72999 273.375031
v -75.0750122 20.5949898 278.775024
v -70.6650085 22.9499893 272.025024
v -75.0750122 20.5949898 278.775024
v -80.1300125 23.72999 273.375031
v -81.2850037 21.689991 277.560028
v -136.725006 22.9049911 279.720032
v -81.2850037 21.689991 277.560028
v -80.1300125 23.72999 273.375031
v -81.2850037 21.689991 277.560028
v -136.725006 22.9049911 279.720032
v -135.615021 21.8549881 282.750031
v -11.3700008 -10.695015 315.960022
v -64.8450089 19.4549904 278.100006
v -12.420001 -12.0300159 332.774994
v -64.8450089 19.4549904 278.100006
v -11.3700008 -10.695015 315.960022
v -61.6800003 21.0749893 262.440033
v -61.6800003 21.0749893 262.440033
v -70.6650085 22.9499893 272.025024
v -64.8450089 19.4549904 278.100006
v -70.6650085 22.9499893 272.025024
v -61.6800003 21.0749893 262.440033
v -66.8550034 23.1299915 256.935028
v -70.6650085 22.9499893 272.025024
v -66.8550034 23.1299915 256.935028
v -80.1300125 23.72999 273.375031
v -140.040009 23.3099899 270.960022
v -80.1300125 23.72999 273.375031
v -66.8550034 23.1299915 256.935028
v -80.1300125 23.72999 273.375031
v -140.040009 23.3099899 270.960022
v -136.725006 22.9049911 279.720032
v -11.3550005 -10.7100134 292.710022
v -61.6800003 21.0749893 262.440033
v -11.3700008 -10.695015 315.960022
v -61.6800003 21.0749893 262.440033
v -11.3550005 -10.7100134 292.710022
v -57.6300087 19.9349918 241.560028
v -57.6300087 19.9349918 241.560028
v -66.8550034 23.1299915 256.935028
v -61.6800003 21.0749893 262.440033
v -66.8550034 23.1299915 256.935028
v -57.6300087 19.9349918 241.560028
v -62.5500031 21.7199917 236.070007
v -144.465012 23.024992 259.365021
v -66.8550034 23.1299915 256.935028
v -62.5500031 21.7199917 236.070007
v -66.8550034 23.1299915 256.935028
v -144.465012 23.024992 259.365021
v -140.040009 23.3099899 270.960022
v -11.1900015 -10.9500122 268.305023
v -57.6300087 19.9349918 241.560028
v -11.3550005 -10.7100134 292.710022
v -57.6300087 19.9349918 241.560028
v -11.1900015 -10.9500122 268.305023
v -53.8500061 17.2649918 219.990005
v -57.6300087 19.9349918 241.560028
v -53.8500061 17.2649918 219.990005
v -62.5500031 21.7199917 236.070007
v -53.8500061 17.2649918 219.990005
v -58.7850037 18.7799931 215.50502
v -62.5500031 21.7199917 236.070007
v -58.7850037 18.7799931 215.50502
v -70.9199982 20.6999912 218.625015
v -62.5500031 21.7199917 236.070007
v -70.9199982 20.6999912 218.625015
v -144.465012 23.024992 259.365021
v -62.5500031 21.7199917 236.070007
v -144.465012 23.024992 259.365021
v -70.9199982 20.6999912 218.625015
v -148.875015 22.0499897 247.845032
v -70.9199982 20.6999912 218.625015
v -152.190018 20.0099907 239.355042
v -148.875015 22.0499897 247.845032
v -12.6750002 -13.065011 249.840012
v -53.8500061 17.2649918 219.990005
v -11.1900015 -10.9500122 268.305023
v -53.8500061 17.2649918 219.990005
v -12.6750002 -13.065011 249.840012
v -50.8200073 11.2049913 208.560028
v -50.8200073 11.2049913 208.560028
v -58.7850037 18.7799931 215.50502
v -53.8500061 17.2649918 219.990005
v -58.7850037 18.7799931 215.50502
v -50.8200073 11.2049913 208.560028
v -58.3350029 14.0249929 203.205002
v -74.5800095 16.7249928 207.435028
v -58.7850037 18.7799931 215.50502
v -58.3350029 14.0249929 203.205002
v -58.7850037 18.7799931 215.50502
v -74.5800095 16.7249928 207.435028
v -70.9199982 20.6999912 218.625015
v -152.190018 20.0099907 239.355042
v -70.9199982 20.6999912 218.625015
v -74.5800095 16.7249928 207.435028
v -76.7550049 10.7849922 205.425018
v -152.190018 20.0099907 239.355042
v -74.5800095 16.7249928 207.435028
v -152.190018 20.0099907 239.355042
v -76.7550049 10.7849922 205.425018
v -153.300018 16.5599918 236.850021
v -17.5800018 -18.6600113 244.320023
v -50.8200073 11.2049913 208.560028
v -12.6750002 -13.065011 249.840012
v -50.8200073 11.2049913 208.560028
v -17.5800018 -18.6600113 244.320023
v -55.2450027 5.29499149 206.805023
v -55.2450027 5.29499149 206.805023
v -58.3350029 14.0249929 203.205002
v -50.8200073 11.2049913 208.560028
v -58.3350029 14.0249929 203.205002
v -55.2450027 5.29499149 206.805023
v -60.885006 9.80999184 202.125015
v -60.885006 9.80999184 202.125015
v -74.5800095 16.7249928 207.435028
v -58.3350029 14.0249929 203.205002
v -74.5800095 16.7249928 207.435028
v -60.885006 9.80999184 202.125015
v -76.7550049 10.7849922 205.425018
v -87.75 10.3950176 -369.540009
v -31.1400013 -5.24998569 -338.550018
v -40.0200005 -5.27998304 -396.210052
v -31.1400013 -5.24998569 -338.550018
v -87.75 10.3950176 -369.540009
v -80.0250092 13.2150126 -260.175018
v -80.0250092 13.2150126 -260.175018
v -24.885004 -8.27998829 -293.400024
v -31.1400013 -5.24998569 -338.550018
v -24.885004 -8.27998829 -293.400024
v -80.0250092 13.2150126 -260.175018
v -74.9400101 12.4500084 -174.615021
v -74.9400101 12.4500084 -174.615021
v -24.8100014 -14.9999886 -283.080017
v -24.885004 -8.27998829 -293.400024
v -24.8100014 -14.9999886 -283.080017
v -74.9400101 12.4500084 -174.615021
v -75.6900024 6.40500736 -155.190018
v -171.375031 73.5750122 -132.404999
v -75.6900024 6.40500736 -155.190018
v -74.9400101 12.4500084 -174.615021
v -75.6900024 6.40500736 -155.190018
v -171.375031 73.5750122 -132.404999
v -175.095016 68.0100098 -121.695
v -154.380005 66.6150131 -240.210022
v -80.0250092 13.2150126 -260.175018
v -87.75 10.3950176 -369.540009
v -80.0250092 13.2150126 -260.175018
v -154.380005 66.6150131 -240.210022
v -163.38002 72.1950073 -179.714996
v -163.38002 72.1950073 -179.714996
v -74.9400101 12.4500084 -174.615021
v -80.0250092 13.2150126 -260.175018
v -74.9400101 12.4500084 -174.615021
v -163.38002 72.1950073 -179.714996
v -171.375031 73.5750122 -132.404999
v -258.195007 97.9350128 -133.650009
v -171.375031 73.5750122 -132.404999
v -163.38002 72.1950073 -179.714996
v -171.375031 73.5750122 -132.404999
v -258.195007 97.9350128 -133.650009
v -245.820023 93.9300156 -103.230011
v -245.820023 93.9300156 -103.230011
v -175.095016 68.0100098 -121.695
v -171.375031 73.5750122 -132.404999
v -175.095016 68.0100098 -121.695
v -245.820023 93.9300156 -103.230011
v -243.720032 89.9100037 -96.2550049
v -274.455017 101.040016 -172.470001
v -163.38002 72.1950073 -179.714996
v -154.380005 66.6150131 -240.210022
v -163.38002 72.1950073 -179.714996
v -274.455017 101.040016 -172.470001
v -258.195007 97.9350128 -133.650009
v -112.710007 -35.625 -73.6950073
v -160.755005 15.7650023 -23.2800026
v -103.185005 -32.954998 -82.3950119
v -160.755005 15.7650023 -23.2800026
v -112.710007 -35.625 -73.6950073
v -163.845032 10.4550018 -16.0349998
v -163.845032 10.4550018 -16.0349998
v -216.675018 90.0600052 52.0200043
v -160.755005 15.7650023 -23.2800026
v -216.675018 90.0600052 52.0200043
v -163.845032 10.4550018 -16.0349998
v -217.455017 87.2700043 55.7100105
v -161.340012 6.01499987 19.5150013
v -217.455017 87.2700043 55.7100105
v -163.845032 10.4550018 -16.0349998
v -217.455017 87.2700043 55.7100105
v -161.340012 6.01499987 19.5150013
v -213.810028 82.8300095 73.6650085
v -152.175003 2.93999648 87.1350098
v -213.810028 82.8300095 73.6650085
v -161.340012 6.01499987 19.5150013
v -213.810028 82.8300095 73.6650085
v -152.175003 2.93999648 87.1350098
v -204.960022 76.6049957 108.060013
v -125.595009 -27.7350006 -25.8600025
v -163.845032 10.4550018 -16.0349998
v -112.710007 -35.625 -73.6950073
v -163.845032 10.4550018 -16.0349998
v -125.595009 -27.7350006 -25.8600025
v -161.340012 6.01499987 19.5150013
v -122.790009 -26.7900047 17.5650005
v -161.340012 6.01499987 19.5150013
v -125.595009 -27.7350006 -25.8600025
v -152.175003 2.93999648 87.1350098
v -161.340012 6.01499987 19.5150013
v -122.790009 -26.7900047 17.5650005
v -104.235001 -33.1950073 72.6750031
v -152.175003 2.93999648 87.1350098
v -122.790009 -26.7900047 17.5650005
v -104.235001 -33.1950073 72.6750031
v -148.920013 5.23499584 95.1150131
v -152.175003 2.93999648 87.1350098
v -148.920013 5.23499584 95.1150131
v -204.960022 76.6049957 108.060013
v -152.175003 2.93999648 87.1350098
v -204.960022 76.6049957 108.060013
v -148.920013 5.23499584 95.1150131
v -203.085007 76.9050064 112.095016
v -148.920013 5.23499584 95.1150131
v -104.235001 -33.1950073 72.6750031
v -95.4300156 -31.7550087 85.3199997
v 132.225006 -9.58499432 -170.14502
v 84.2100067 3.15000391 -84.9599991
v 84.2100067 -17.4749966 -82.9200058
v 84.2100067 3.15000391 -84.9599991
v 132.225006 -9.58499432 -170.14502
v 132.225006 9.9000082 -172.125015
v 132.225006 -9.58499432 -170.14502
v 31.8000011 -23.8349838 -366.825012
v 132.225006 9.9000082 -172.125015
v 31.8000011 -23.8349838 -366.825012
v 132.225006 -9.58499432 -170.14502
v 31.8000011 -42.6899872 -364.845032
v 31.8000011 -42.6899872 -364.845032
v 0 -31.6049862 -370.695038
v 31.8000011 -23.8349838 -366.825012
v 0 -31.6049862 -370.695038
v 31.8000011 -42.6899872 -364.845032
v 0 -50.8049889 -368.565002
v 80.8350067 -60.4650002 -70.4400024
v 56.7000008 -29.5049992 -116.865013
v 56.3400078 -68.9700012 -110.055016
v 56.7000008 -29.5049992 -116.865013
v 80.8350067 -60.4650002 -70.4400024
v 76.9500046 -21.8099976 -76.230011
v 80.8350067 -60.4650002 -70.4400024
v 98.1450043 -7.06500101 16.7700005
v 76.9500046 -21.8099976 -76.230011
v 98.1450043 -7.06500101 16.7700005
v 80.8350067 -60.4650002 -70.4400024
v 122.805008 -41.4600029 37.3050003
v 122.805008 -41.4600029 37.3050003
v 64.7099991 -11.5800037 66.5850067
v 98.1450043 -7.06500101 16.7700005
v 64.7099991 -11.5800037 66.5850067
v 122.805008 -41.4600029 37.3050003
v 70.2000046 -49.6500092 102.074997
v 148.920013 5.23499584 95.1150131
v 94.215004 -25.260006 75.765007
v 95.4300156 -31.7550087 85.3199997
v 94.215004 -25.260006 75.765007
v 148.920013 5.23499584 95.1150131
v 147.180008 8.8799963 87.8850098
v 94.215004 -25.260006 75.765007
v 147.180008 8.8799963 87.8850098
v 105.180008 -12.9150009 25.9800014
v 147.180008 8.8799963 87.8850098
v 151.380005 17.625 22.1250019
v 105.180008 -12.9150009 25.9800014
v 105.180008 -12.9150009 25.9800014
v 151.380005 17.625 22.1250019
v 106.38002 -12.5700006 -17.1600018
v 156.13501 19.6950016 -15.1800003
v 106.38002 -12.5700006 -17.1600018
v 151.380005 17.625 22.1250019
v 106.38002 -12.5700006 -17.1600018
v 156.13501 19.6950016 -15.1800003
v 99.2550125 -24.9299984 -70.0200043
v 203.085007 76.9050064 112.095016
v 147.180008 8.8799963 87.8850098
v 148.920013 5.23499584 95.1150131
v 147.180008 8.8799963 87.8850098
v 203.085007 76.9050064 112.095016
v 203.01001 78.9450073 108.180008
v 209.685013 87.7350006 74.0250092
v 147.180008 8.8799963 87.8850098
v 203.01001 78.9450073 108.180008
v 147.180008 8.8799963 87.8850098
v 209.685013 87.7350006 74.0250092
v 151.380005 17.625 22.1250019
v 214.200012 91.1850128 55.8900032
v 151.380005 17.625 22.1250019
v 209.685013 87.7350006 74.0250092
v 151.380005 17.625 22.1250019
v 214.200012 91.1850128 55.8900032
v 156.13501 19.6950016 -15.1800003
v 216.675018 90.0600052 52.0200043
v 156.13501 19.6950016 -15.1800003
v 214.200012 91.1850128 55.8900032
v 156.13501 19.6950016 -15.1800003
v 216.675018 90.0600052 52.0200043
v 160.755005 15.7650023 -23.2800026
v 160.755005 15.7650023 -23.2800026
v 99.2550125 -24.9299984 -70.0200043
v 156.13501 19.6950016 -15.1800003
v 99.2550125 -24.9299984 -70.0200043
v 160.755005 15.7650023 -23.2800026
v 103.185005 -32.954998 -82.3950119
v 42.2100029 -29.6250153 306.225037
v 0 -18.825016 367.500031
v 0 -45.7050171 364.920013
v 0 -18.825016 367.500031
v 42.2100029 -29.6250153 306.225037
v 33.8100052 -5.53501368 308.535034
v 42.2100029 -29.6250153 306.225037
v 78.4200134 16.199995 140.14502
v 33.8100052 -5.53501368 308.535034
v 78.4200134 16.199995 140.14502
v 42.2100029 -29.6250153 306.225037
v 94.4850006 -6.21000576 115.620003
v -35.4750023 -24.8399868 -337.875031
v -94.3350067 -8.51998425 -368.715057
v -44.3550072 -24.884985 -395.535034
v -94.3350067 -8.51998425 -368.715057
v -35.4750023 -24.8399868 -337.875031
v -86.3550034 -5.75998974 -259.365021
v -86.3550034 -5.75998974 -259.365021
v -161.940018 47.9850159 -240.060013
v -94.3350067 -8.51998425 -368.715057
v -161.940018 47.9850159 -240.060013
v -86.3550034 -5.75998974 -259.365021
v -170.265015 53.355011 -179.460022
v -170.265015 53.355011 -179.460022
v -276.600037 90.9300079 -171.930008
v -161.940018 47.9850159 -240.060013
v -276.600037 90.9300079 -171.930008
v -170.265015 53.355011 -179.460022
v -260.340027 87.8250122 -133.110001
v -175.785019 60.5250092 -132.165009
v -260.340027 87.8250122 -133.110001
v -170.265015 53.355011 -179.460022
v -260.340027 87.8250122 -133.110001
v -175.785019 60.5250092 -132.165009
v -247.305023 86.9850159 -102.87001
v -27.8550014 -21.7499886 -292.935028
v -86.3550034 -5.75998974 -259.365021
v -35.4750023 -24.8399868 -337.875031
v -86.3550034 -5.75998974 -259.365021
v -27.8550014 -21.7499886 -292.935028
v -79.1850052 -0.629992425 -174.060028
v -79.1850052 -0.629992425 -174.060028
v -170.265015 53.355011 -179.460022
v -86.3550034 -5.75998974 -259.365021
v -170.265015 53.355011 -179.460022
v -79.1850052 -0.629992425 -174.060028
v -175.785019 60.5250092 -132.165009
v -75.6900024 6.40500736 -155.190018
v -175.785019 60.5250092 -132.165009
v -79.1850052 -0.629992425 -174.060028
v -175.785019 60.5250092 -132.165009
v -75.6900024 6.40500736 -155.190018
v -175.095016 68.0100098 -121.695
v -175.095016 68.0100098 -121.695
v -247.305023 86.9850159 -102.87001
v -175.785019 60.5250092 -132.165009
v -247.305023 86.9850159 -102.87001
v -175.095016 68.0100098 -121.695
v -243.720032 89.9100037 -96.2550049
v -24.8100014 -14.9999886 -283.080017
v -79.1850052 -0.629992425 -174.060028
v -27.8550014 -21.7499886 -292.935028
v -79.1850052 -0.629992425 -174.060028
v -24.8100014 -14.9999886 -283.080017
v -75.6900024 6.40500736 -155.190018
v -94.3350067 -8.51998425 -368.715057
v -40.0200005 -5.27998304 -396.210052
v -44.3550072 -24.884985 -395.535034
v -40.0200005 -5.27998304 -396.210052
v -94.3350067 -8.51998425 -368.715057
v -87.75 10.3950176 -369.540009
v -161.940018 47.9850159 -240.060013
v -87.75 10.3950176 -369.540009
v -94.3350067 -8.51998425 -368.715057
v -87.75 10.3950176 -369.540009
v -161.940018 47.9850159 -240.060013
v -154.380005 66.6150131 -240.210022
v -161.940018 47.9850159 -240.060013
v -274.455017 101.040016 -172.470001
v -154.380005 66.6150131 -240.210022
v -274.455017 101.040016 -172.470001
v -161.940018 47.9850159 -240.060013
v -276.600037 90.9300079 -171.930008
v 19.1250019 -19.995018 331.575012
v 68.5500031 17.0249901 282.930023
v 15.6150007 -15.8550158 337.905029
v 68.5500031 17.0249901 282.930023
v 19.1250019 -19.995018 331.575012
v 71.5500031 13.3199883 279.090027
v 71.5500031 13.3199883 279.090027
v 75.0750122 20.5949898 278.775024
v 68.5500031 17.0249901 282.930023
v 75.0750122 20.5949898 278.775024
v 71.5500031 13.3199883 279.090027
v 76.4250107 16.4249897 274.215027
v 76.4250107 16.4249897 274.215027
v 81.2850037 21.689991 277.560028
v 75.0750122 20.5949898 278.775024
v 81.2850037 21.689991 277.560028
v 76.4250107 16.4249897 274.215027
v 81.8850021 17.9249878 273.825012
v 81.8850021 17.9249878 273.825012
v 135.615021 21.8549881 282.750031
v 81.2850037 21.689991 277.560028
v 135.615021 21.8549881 282.750031
v 81.8850021 17.9249878 273.825012
v 136.725006 20.144989 280.035004
v 21.0600033 -22.3200169 314.055023
v 71.5500031 13.3199883 279.090027
v 19.1250019 -19.995018 331.575012
v 71.5500031 13.3199883 279.090027
v 21.0600033 -22.3200169 314.055023
v 75.9600067 11.9099903 259.080017
v 71.5500031 13.3199883 279.090027
v 75.9600067 11.9099903 259.080017
v 76.4250107 16.4249897 274.215027
v 76.4250107 16.4249897 274.215027
v 75.9600067 11.9099903 259.080017
v 81.8850021 17.9249878 273.825012
v 140.040009 17.7599888 271.590027
v 81.8850021 17.9249878 273.825012
v 75.9600067 11.9099903 259.080017
v 81.8850021 17.9249878 273.825012
v 140.040009 17.7599888 271.590027
v 136.725006 20.144989 280.035004
v 22.1850033 -23.6700153 291.000031
v 75.9600067 11.9099903 259.080017
v 21.0600033 -22.3200169 314.055023
v 75.9600067 11.9099903 259.080017
v 22.1850033 -23.6700153 291.000031
v 73.9200058 7.99498987 239.025009
v 144.465012 15.3899908 260.235016
v 75.9600067 11.9099903 259.080017
v 73.9200058 7.99498987 239.025009
v 75.9600067 11.9099903 259.080017
v 144.465012 15.3899908 260.235016
v 140.040009 17.7599888 271.590027
v 23.2200012 -24.8850136 268.110016
v 73.9200058 7.99498987 239.025009
v 22.1850033 -23.6700153 291.000031
v 73.9200058 7.99498987 239.025009
v 23.2200012 -24.8850136 268.110016
v 69.3300095 5.20499039 218.730011
v 148.875015 13.7099905 248.805023
v 73.9200058 7.99498987 239.025009
v 69.3300095 5.20499039 218.730011
v 73.9200058 7.99498987 239.025009
v 148.875015 13.7099905 248.805023
v 144.465012 15.3899908 260.235016
v 22.3200016 -23.8950119 250.75502
v 69.3300095 5.20499039 218.730011
v 23.2200012 -24.8850136 268.110016
v 69.3300095 5.20499039 218.730011
v 22.3200016 -23.8950119 250.75502
v 60.9600067 4.06499147 209.400024
v 69.3300095 5.20499039 218.730011
v 60.9600067 4.06499147 209.400024
v 64.5450058 6.65999126 205.545029
v 76.3200073 7.88999128 209.610031
v 69.3300095 5.20499039 218.730011
v 64.5450058 6.65999126 205.545029
v 76.3200073 7.88999128 209.610031
v 148.875015 13.7099905 248.805023
v 69.3300095 5.20499039 218.730011
v 148.875015 13.7099905 248.805023
v 76.3200073 7.88999128 209.610031
v 152.190018 13.7549906 240.075012
v 76.3200073 7.88999128 209.610031
v 153.300018 16.5599918 236.850021
v 152.190018 13.7549906 240.075012
v 153.300018 16.5599918 236.850021
v 76.3200073 7.88999128 209.610031
v 76.7550049 10.7849922 205.425018
v 17.5800018 -18.6600113 244.320023
v 60.9600067 4.06499147 209.400024
v 22.3200016 -23.8950119 250.75502
v 60.9600067 4.06499147 209.400024
v 17.5800018 -18.6600113 244.320023
v 55.2450027 5.29499149 206.805023
v 60.885006 9.80999184 202.125015
v 60.9600067 4.06499147 209.400024
v 55.2450027 5.29499149 206.805023
v 60.9600067 4.06499147 209.400024
v 60.885006 9.80999184 202.125015
v 64.5450058 6.65999126 205.545029
v 76.7550049 10.7849922 205.425018
v 64.5450058 6.65999126 205.545029
v 60.885006 9.80999184 202.125015
v 64.5450058 6.65999126 205.545029
v 76.7550049 10.7849922 205.425018
v 76.3200073 7.88999128 209.610031
v 35.4750023 -24.8399868 -337.875031
v 40.0200005 -5.27998304 -396.210052
v 44.3550072 -24.884985 -395.535034
v 40.0200005 -5.27998304 -396.210052
v 35.4750023 -24.8399868 -337.875031
v 31.1400013 -5.24998569 -338.550018
v 27.8550014 -21.7499886 -292.935028
v 31.1400013 -5.24998569 -338.550018
v 35.4750023 -24.8399868 -337.875031
v 31.1400013 -5.24998569 -338.550018
v 27.8550014 -21.7499886 -292.935028
v 24.885004 -8.27998829 -293.400024
v 24.885004 -8.27998829 -293.400024
v 27.8550014 -21.7499886 -292.935028
v 24.8100014 -14.9999886 -283.080017
v 258.195007 97.9350128 -133.650009
v 276.600037 90.9300079 -171.930008
v 274.455017 101.040016 -172.470001
v 276.600037 90.9300079 -171.930008
v 258.195007 97.9350128 -133.650009
v 260.340027 87.8250122 -133.110001
v 245.820023 93.9300156 -103.230011
v 260.340027 87.8250122 -133.110001
v 258.195007 97.9350128 -133.650009
v 260.340027 87.8250122 -133.110001
v 245.820023 93.9300156 -103.230011
v 247.305023 86.9850159 -102.87001
v 247.305023 86.9850159 -102.87001
v 245.820023 93.9300156 -103.230011
v 243.720032 89.9100037 -96.2550049
v -84.2100067 3.15000391 -84.9599991
v -84.2100067 -17.4749966 -82.9200058
v -53.6700058 -34.5449982 -84.3450165
v -53.6700058 -34.5449982 -84.3450165
v 0 -4.82999659 -91.9050064
v -84.2100067 3.15000391 -84.9599991
v -53.6700058 -34.5449982 -84.3450165
v 0 -44.2200012 -88.3050079
v 0 -4.82999659 -91.9050064
v 0 -4.82999659 -91.9050064
v 0 -44.2200012 -88.3050079
v 53.6700058 -34.5449982 -84.3450165
v 0 -4.82999659 -91.9050064
v 53.6700058 -34.5449982 -84.3450165
v 84.2100067 3.15000391 -84.9599991
v 53.6700058 -34.5449982 -84.3450165
v 84.2100067 -17.4749966 -82.9200058
v 84.2100067 3.15000391 -84.9599991
v -132.225006 9.9000082 -172.125015
v -84.2100067 3.15000391 -84.9599991
v -31.8000011 -23.8349838 -366.825012
v 0 -4.82999659 -91.9050064
v -31.8000011 -23.8349838 -366.825012
v -84.2100067 3.15000391 -84.9599991
v -31.8000011 -23.8349838 -366.825012
v 0 -4.82999659 -91.9050064
v 0 -31.6049862 -370.695038
v 0 -4.82999659 -91.9050064
v 31.8000011 -23.8349838 -366.825012
v 0 -31.6049862 -370.695038
v 31.8000011 -23.8349838 -366.825012
v 0 -4.82999659 -91.9050064
v 84.2100067 3.15000391 -84.9599991
v 84.2100067 3.15000391 -84.9599991
v 132.225006 9.9000082 -172.125015
v 31.8000011 -23.8349838 -366.825012
v -136.725006 20.144989 280.035004
v -135.615021 21.8549881 282.750031
v -136.725006 22.9049911 279.720032
v -136.725006 22.9049911 279.720032
v -140.040009 17.7599888 271.590027
v -136.725006 20.144989 280.035004
v -140.040009 17.7599888 271.590027
v -136.725006 22.9049911 279.720032
v -140.040009 23.3099899 270.960022
v -140.040009 23.3099899 270.960022
v -144.465012 15.3899908 260.235016
v -140.040009 17.7599888 271.590027
v -144.465012 15.3899908 260.235016
v -140.040009 23.3099899 270.960022
v -144.465012 23.024992 259.365021
v -144.465012 23.024992 259.365021
v -148.875015 13.7099905 248.805023
v -144.465012 15.3899908 260.235016
v -148.875015 13.7099905 248.805023
v -144.465012 23.024992 259.365021
v -148.875015 22.0499897 247.845032
v -152.190018 20.0099907 239.355042
v -148.875015 13.7099905 248.805023
v -148.875015 22.0499897 247.845032
v -148.875015 13.7099905 248.805023
v -152.190018 20.0099907 239.355042
v -152.190018 13.7549906 240.075012
v -152.190018 20.0099907 239.355042
v -153.300018 16.5599918 236.850021
v -152.190018 13.7549906 240.075012
v -204.960022 76.6049957 108.060013
v -203.085007 76.9050064 112.095016
v -203.01001 78.9450073 108.180008
v -209.685013 87.7350006 74.0250092
v -204.960022 76.6049957 108.060013
v -203.01001 78.9450073 108.180008
v -204.960022 76.6049957 108.060013
v -209.685013 87.7350006 74.0250092
v -213.810028 82.8300095 73.6650085
v -214.200012 91.1850128 55.8900032
v -213.810028 82.8300095 73.6650085
v -209.685013 87.7350006 74.0250092
v -213.810028 82.8300095 73.6650085
v -214.200012 91.1850128 55.8900032
v -217.455017 87.2700043 55.7100105
v -214.200012 91.1850128 55.8900032
v -216.675018 90.0600052 52.0200043
v -217.455017 87.2700043 55.7100105
v 135.615021 21.8549881 282.750031
v 136.725006 20.144989 280.035004
v 136.725006 22.9049911 279.720032
v 140.040009 17.7599888 271.590027
v 136.725006 22.9049911 279.720032
v 136.725006 20.144989 280.035004
v 136.725006 22.9049911 279.720032
v 140.040009 17.7599888 271.590027
v 140.040009 23.3099899 270.960022
v 144.465012 15.3899908 260.235016
v 140.040009 23.3099899 270.960022
v 140.040009 17.7599888 271.590027
v 140.040009 23.3099899 270.960022
v 144.465012 15.3899908 260.235016
v 144.465012 23.024992 259.365021
v 148.875015 13.7099905 248.805023
v 144.465012 23.024992 259.365021
v 144.465012 15.3899908 260.235016
v 144.465012 23.024992 259.365021
v 148.875015 13.7099905 248.805023
v 148.875015 22.0499897 247.845032
v 148.875015 13.7099905 248.805023
v 152.190018 20.0099907 239.355042
v 148.875015 22.0499897 247.845032
v 152.190018 20.0099907 239.355042
v 148.875015 13.7099905 248.805023
v 152.190018 13.7549906 240.075012
v 153.300018 16.5599918 236.850021
v 152.190018 20.0099907 239.355042
v 152.190018 13.7549906 240.075012
v 203.085007 76.9050064 112.095016
v 204.960022 76.6049957 108.060013
v 203.01001 78.9450073 108.180008
v 204.960022 76.6049957 108.060013
v 209.685013 87.7350006 74.0250092
v 203.01001 78.9450073 108.180008
v 209.685013 87.7350006 74.0250092
v 204.960022 76.6049957 108.060013
v 213.810028 82.8300095 73.6650085
v 213.810028 82.8300095 73.6650085
v 214.200012 91.1850128 55.8900032
v 209.685013 87.7350006 74.0250092
v 214.200012 91.1850128 55.8900032
v 213.810028 82.8300095 73.6650085
v 217.455017 87.2700043 55.7100105
v 216.675018 90.0600052 52.0200043
v 214.200012 91.1850128 55.8900032
v 217.455017 87.2700043 55.7100105
v -22.3200016 -23.8950119 250.75502
v -69.3300095 5.20499039 218.730011
v -60.9600067 4.06499147 209.400024
v -60.9600067 4.06499147 209.400024
v -69.3300095 5.20499039 218.730011
v -64.5450058 6.65999126 205.545029
v -60.885006 9.80999184 202.125015
v -60.9600067 4.06499147 209.400024
v -64.5450058 6.65999126 205.545029
v -60.9600067 4.06499147 209.400024
v -60.885006 9.80999184 202.125015
v -55.2450027 5.29499149 206.805023
v -17.5800018 -18.6600113 244.320023
v -60.9600067 4.06499147 209.400024
v -55.2450027 5.29499149 206.805023
v -60.9600067 4.06499147 209.400024
v -17.5800018 -18.6600113 244.320023
v -22.3200016 -23.8950119 250.75502
v -69.3300095 5.20499039 218.730011
v -76.3200073 7.88999128 209.610031
v -64.5450058 6.65999126 205.545029
v -76.7550049 10.7849922 205.425018
v -64.5450058 6.65999126 205.545029
v -76.3200073 7.88999128 209.610031
v -64.5450058 6.65999126 205.545029
v -76.7550049 10.7849922 205.425018
v -60.885006 9.80999184 202.125015
v -148.875015 13.7099905 248.805023
v -76.3200073 7.88999128 209.610031
v -69.3300095 5.20499039 218.730011
v -76.3200073 7.88999128 209.610031
v -148.875015 13.7099905 248.805023
v -152.190018 13.7549906 240.075012
v -153.300018 16.5599918 236.850021
v -76.3200073 7.88999128 209.610031
v -152.190018 13.7549906 240.075012
v -76.3200073 7.88999128 209.610031
v -153.300018 16.5599918 236.850021
v -76.7550049 10.7849922 205.425018
v -84.2100067 -17.4749966 -82.9200058
v -97.5300064 -27.4049931 -171.090012
v -53.6700058 -34.5449982 -84.3450165
v -97.5300064 -27.4049931 -171.090012
v -84.2100067 -17.4749966 -82.9200058
v -132.225006 -9.58499432 -170.14502
v -132.225006 -9.58499432 -170.14502
v -16.6049995 -56.2949867 -327.090027
v -97.5300064 -27.4049931 -171.090012
v -53.6700058 -34.5449982 -84.3450165
v -97.5300064 -27.4049931 -171.090012
v -16.6049995 -56.2949867 -327.090027
v -16.6049995 -56.2949867 -327.090027
v 0 -44.2200012 -88.3050079
v -53.6700058 -34.5449982 -84.3450165
v 0 -44.2200012 -88.3050079
v -16.6049995 -56.2949867 -327.090027
v 0 -61.394989 -326.910034
v 16.6049995 -56.2949867 -327.090027
v 0 -44.2200012 -88.3050079
v 0 -61.394989 -326.910034
v 0 -44.2200012 -88.3050079
v 16.6049995 -56.2949867 -327.090027
v 53.6700058 -34.5449982 -84.3450165
v 97.5300064 -27.4049931 -171.090012
v 53.6700058 -34.5449982 -84.3450165
v 16.6049995 -56.2949867 -327.090027
v 97.5300064 -27.4049931 -171.090012
v 84.2100067 -17.4749966 -82.9200058
v 53.6700058 -34.5449982 -84.3450165
v -16.6049995 -56.2949867 -327.090027
v -132.225006 -9.58499432 -170.14502
v -31.8000011 -42.6899872 -364.845032
v -31.8000011 -42.6899872 -364.845032
v 0 -61.394989 -326.910034
v -16.6049995 -56.2949867 -327.090027
v 0 -61.394989 -326.910034
v -31.8000011 -42.6899872 -364.845032
v 0 -50.8049889 -368.565002
v 31.8000011 -42.6899872 -364.845032
v 0 -61.394989 -326.910034
v 0 -50.8049889 -368.565002
v 0 -61.394989 -326.910034
v 31.8000011 -42.6899872 -364.845032
v 16.6049995 -56.2949867 -327.090027
v 132.225006 -9.58499432 -170.14502
v 16.6049995 -56.2949867 -327.090027
v 31.8000011 -42.6899872 -364.845032
v 16.6049995 -56.2949867 -327.090027
v 132.225006 -9.58499432 -170.14502
v 97.5300064 -27.4049931 -171.090012
v 84.2100067 -17.4749966 -82.9200058
v 97.5300064 -27.4049931 -171.090012
v 132.225006 -9.58499432 -170.14502
v 58.2450066 -2.23500729 161.775024
v 0 -23.2500057 66.7950058
v 0 -12.2850094 189.180008
v 0 -23.2500057 66.7950058
v 58.2450066 -2.23500729 161.775024
v 64.7099991 -11.5800037 66.5850067
v 64.7099991 -11.5800037 66.5850067
v 56.7000008 -29.5049992 -116.865013
v 0 -23.2500057 66.7950058
v 56.7000008 -29.5049992 -116.865013
v 0 -59.3099861 -336.255035
v 0 -23.2500057 66.7950058
v 0 -59.3099861 -336.255035
v -56.7000008 -29.5049992 -116.865013
v 0 -23.2500057 66.7950058
v -56.7000008 -29.5049992 -116.865013
v -64.7099991 -11.5800037 66.5850067
v 0 -23.2500057 66.7950058
v -58.2450066 -2.23500729 161.775024
v 0 -23.2500057 66.7950058
v -64.7099991 -11.5800037 66.5850067
v 0 -23.2500057 66.7950058
v -58.2450066 -2.23500729 161.775024
v 0 -12.2850094 189.180008
v 58.2450066 -2.23500729 161.775024
v 98.1450043 -7.06500101 16.7700005
v 64.7099991 -11.5800037 66.5850067
v 98.1450043 -7.06500101 16.7700005
v 58.2450066 -2.23500729 161.775024
v 176.685013 8.15999889 46.9650078
v 76.9500046 -21.8099976 -76.230011
v 98.1450043 -7.06500101 16.7700005
v 176.685013 8.15999889 46.9650078
v 76.9500046 -21.8099976 -76.230011
v 176.685013 8.15999889 46.9650078
v 56.7000008 -29.5049992 -116.865013
v 56.7000008 -29.5049992 -116.865013
v 176.685013 8.15999889 46.9650078
v 0 -59.3099861 -336.255035
v -98.1450043 -7.06500101 16.7700005
v -58.2450066 -2.23500729 161.775024
v -64.7099991 -11.5800037 66.5850067
v -58.2450066 -2.23500729 161.775024
v -98.1450043 -7.06500101 16.7700005
v -176.685013 8.15999889 46.9650078
v -176.685013 8.15999889 46.9650078
v -98.1450043 -7.06500101 16.7700005
v -76.9500046 -21.8099976 -76.230011
v -176.685013 8.15999889 46.9650078
v -76.9500046 -21.8099976 -76.230011
v -56.7000008 -29.5049992 -116.865013
v -176.685013 8.15999889 46.9650078
v -56.7000008 -29.5049992 -116.865013
v 0 -59.3099861 -336.255035
v 0 -63.9450073 119.850014
v 70.5 -44.7000122 171.525009
v 0 -57.6000137 202.560013
v 70.5 -44.7000122 171.525009
v 0 -63.9450073 119.850014
v 70.2000046 -49.6500092 102.074997
v 122.805008 -41.4600029 37.3050003
v 70.5 -44.7000122 171.525009
v 70.2000046 -49.6500092 102.074997
v 70.5 -44.7000122 171.525009
v 122.805008 -41.4600029 37.3050003
v 182.025024 -16.800005 50.3250046
v 182.025024 -16.800005 50.3250046
v 122.805008 -41.4600029 37.3050003
v 80.8350067 -60.4650002 -70.4400024
v 182.025024 -16.800005 50.3250046
v 80.8350067 -60.4650002 -70.4400024
v 0 -87.5699921 -332.52002
v -70.5 -44.7000122 171.525009
v 0 -63.9450073 119.850014
v 0 -57.6000137 202.560013
v 0 -63.9450073 119.850014
v -70.5 -44.7000122 171.525009
v -70.2000046 -49.6500092 102.074997
v -56.3400078 -68.9700012 -110.055016
v 0 -63.9450073 119.850014
v -70.2000046 -49.6500092 102.074997
v 0 -63.9450073 119.850014
v -56.3400078 -68.9700012 -110.055016
v 0 -91.3049927 -236.550018
v 56.3400078 -68.9700012 -110.055016
v 0 -63.9450073 119.850014
v 0 -91.3049927 -236.550018
v 0 -63.9450073 119.850014
v 56.3400078 -68.9700012 -110.055016
v 70.2000046 -49.6500092 102.074997
v -70.5 -44.7000122 171.525009
v -122.805008 -41.4600029 37.3050003
v -70.2000046 -49.6500092 102.074997
v -122.805008 -41.4600029 37.3050003
v -70.5 -44.7000122 171.525009
v -182.025024 -16.800005 50.3250046
v -80.8350067 -60.4650002 -70.4400024
v -122.805008 -41.4600029 37.3050003
v -182.025024 -16.800005 50.3250046
v -80.8350067 -60.4650002 -70.4400024
v -182.025024 -16.800005 50.3250046
v 0 -87.5699921 -332.52002
v 0 -87.5699921 -332.52002
v -56.3400078 -68.9700012 -110.055016
v -80.8350067 -60.4650002 -70.4400024
v -56.3400078 -68.9700012 -110.055016
v 0 -87.5699921 -332.52002
v 0 -91.3049927 -236.550018
v 0 -87.5699921 -332.52002
v 56.3400078 -68.9700012 -110.055016
v 0 -91.3049927 -236.550018
v 56.3400078 -68.9700012 -110.055016
v 0 -87.5699921 -332.52002
v 80.8350067 -60.4650002 -70.4400024

# 280 UV coordinates
vt 0.61650002 0.485100001 0
vt 0.551299989 0.5176 0
vt 0.622699976 0.4991 0
vt 0.545400023 0.504400015 0
vt 0.400599986 0.580600023 0
vt 0.406399995 0.593299985 0
vt 0.381300002 0.595300019 0
vt 0.387199998 0.608299971 0
vt 0.0168999992 0.497799993 0
vt 0.0329999998 0.229599997 0
vt 0.0151000004 0.2289 0
vt 0.0329999998 0.497000009 0
vt 0.0377000012 0.600399971 0
vt 0.00949999969 0.602100015 0
vt 0.0405000001 0.640999973 0
vt 0.0126 0.650900006 0
vt 0.901000023 0.597199976 0
vt 0.873899996 0.718800008 0
vt 0.841400027 0.598699987 0
vt 0.901000023 0.756399989 0
vt 0.92809999 0.718999982 0
vt 0.960699975 0.599099994 0
vt 0.326599985 0.322699994 0
vt 0.281599998 0.360399991 0
vt 0.27579999 0.3583 0
vt 0.33070001 0.324600011 0
vt 0.29460001 0.363400012 0
vt 0.346199989 0.325899988 0
vt 0.311399996 0.367300004 0
vt 0.360300004 0.332399994 0
vt 0.328099996 0.371100008 0
vt 0.33070001 0.319200009 0
vt 0.335200012 0.321200013 0
vt 0.336699992 0.317200005 0
vt 0.352699995 0.277099997 0
vt 0.361900002 0.276899993 0
vt 0.371100008 0.276600003 0
vt 0.373800009 0.340299994 0
vt 0.340600014 0.374500006 0
vt 0.332899988 0.316100001 0
vt 0.343199998 0.277200013 0
vt 0.345699996 0.277200013 0
vt 0.431199998 0.0465999991 0
vt 0.464700013 0.0667999983 0
vt 0.428499997 0.0590999983 0
vt 0.467400014 0.0544000007 0
vt 0.493400007 0.0709000006 0
vt 0.495299995 0.0623999983 0
vt 0.500699997 0.0680000037 0
vt 0.504199982 0.273499995 0
vt 0.530900002 0.278400004 0
vt 0.504299998 0.280000001 0
vt 0.530700028 0.271899998 0
vt 0.551599979 0.27610001 0
vt 0.551500022 0.271600008 0
vt 0.556200027 0.273600012 0
vt 0.0513999984 0.692099988 0
vt 0.069600001 0.677999973 0
vt 0.0732999966 0.679499984 0
vt 0.0491999984 0.690599978 0
vt 0.0553000011 0.676199973 0
vt 0.0403000005 0.685699999 0
vt 0.0449000001 0.671800017 0
vt 0.0249000005 0.676900029 0
vt 0.0342999995 0.662899971 0
vt 0.0233999994 0.707000017 0
vt 0.0223999992 0.706200004 0
vt 0.0185000002 0.703100026 0
vt 0.0110999998 0.697000027 0
vt 0.0103000002 0.696200013 0
vt 0.023 0.675800025 0
vt 0.0318999998 0.661000013 0
vt 0.858900011 0.742900014 0
vt 0.835799992 0.727800012 0
vt 0.842499971 0.718800008 0
vt 0.84829998 0.749499977 0
vt 0.862299979 0.770299971 0
vt 0.873300016 0.76819998 0
vt 0.138799995 0.566299975 0
vt 0.200399995 0.664099991 0
vt 0.182799995 0.691500008 0
vt 0.161500007 0.556200027 0
vt 0.389999986 0.406199992 0
vt 0.358900011 0.403699994 0
vt 0.358900011 0.405400008 0
vt 0.390199989 0.403800011 0
vt 0.389699996 0.399199992 0
vt 0.358799994 0.400200009 0
vt 0.358700007 0.395599991 0
vt 0.389999986 0.39199999 0
vt 0.385699987 0.385399997 0
vt 0.358599991 0.391000003 0
vt 0.396899998 0.404500008 0
vt 0.396699995 0.40259999 0
vt 0.394199997 0.398499995 0
vt 0.395399988 0.396400005 0
vt 0.391099989 0.389499992 0
vt 0.40079999 0.401899993 0
vt 0.398799986 0.399800003 0
vt 0.409500003 0.379599988 0
vt 0.407099992 0.373100013 0
vt 0.403699994 0.364600003 0
vt 0.386900008 0.382800013 0
vt 0.41139999 0.382499993 0
vt 0.400700003 0.3565 0
vt 0.384000003 0.377600014 0
vt 0.382400006 0.380699992 0
vt 0.378899992 0.381599993 0
vt 0.358500004 0.387499988 0
vt 0.377900004 0.380100012 0
vt 0.358399987 0.386200011 0
vt 0.398400009 0.350699991 0
vt 0.382200003 0.375999987 0
vt 0.380100012 0.378699988 0
vt 0.396800011 0.3486 0
vt 0.429699987 0.102300003 0
vt 0.461400002 0.0728999972 0
vt 0.425399989 0.0653999969 0
vt 0.495799989 0.122000001 0
vt 0.489600003 0.0788000003 0
vt 0.547100008 0.137799993 0
vt 0.497399986 0.0789000019 0
vt 0.559599996 0.140799999 0
vt 0.549799979 0.213799998 0
vt 0.556999981 0.217600003 0
vt 0.488700002 0.181299999 0
vt 0.522899985 0.199599996 0
vt 0.530399978 0.266499996 0
vt 0.550999999 0.265500009 0
vt 0.556100011 0.265500009 0
vt 0.503899992 0.268099993 0
vt 0.370400012 0.100100003 0
vt 0.396400005 0.1285 0
vt 0.381700009 0.0943000019 0
vt 0.384600013 0.133100003 0
vt 0.416299999 0.224800006 0
vt 0.404500008 0.229399994 0
vt 0.444999993 0.309399992 0
vt 0.450700015 0.306199998 0
vt 0.431400001 0.137099996 0
vt 0.450500011 0.151999995 0
vt 0.433299989 0.135399997 0
vt 0.448900014 0.155599996 0
vt 0.479099989 0.176899999 0
vt 0.475600004 0.1822 0
vt 0.478599995 0.220200002 0
vt 0.475699991 0.222800002 0
vt 0.463200003 0.205799997 0
vt 0.468100011 0.234699994 0
vt 0.423599988 0.143900007 0
vt 0.444900006 0.1699 0
vt 0.439900011 0.188299999 0
vt 0.44749999 0.236100003 0
vt 0.458400011 0.25 0
vt 0.413700014 0.152600005 0
vt 0.109999999 0.739499986 0
vt 0.0776000023 0.745299995 0
vt 0.111900002 0.747399986 0
vt 0.0780000016 0.740700006 0
vt 0.0302000009 0.743399978 0
vt 0.0303000007 0.745700002 0
vt 0.105899997 0.709200025 0
vt 0.0798999965 0.705500007 0
vt 0.0280000009 0.724799991 0
vt 0.108900003 0.686600029 0
vt 0.0804999992 0.686999977 0
vt 0.0266999993 0.71509999 0
vt 0.120200001 0.663100004 0
vt 0.0795999989 0.682200015 0
vt 0.0259000007 0.712800026 0
vt 0.122199997 0.656599998 0
vt 0.897000015 0.904699981 0
vt 0.913900018 0.796199977 0
vt 0.897000015 0.780499995 0
vt 0.912999988 0.905700028 0
vt 0.912699997 0.949000001 0
vt 0.895900011 0.950900018 0
vt 0.840399981 0.754400015 0
vt 0.790499985 0.772800028 0
vt 0.827799976 0.73269999 0
vt 0.780200005 0.791999996 0
vt 0.801999986 0.791199982 0
vt 0.854399979 0.775200009 0
vt 0.30219999 0.664300025 0
vt 0.320499986 0.631200016 0
vt 0.329899997 0.654200017 0
vt 0.29370001 0.64139998 0
vt 0.237800002 0.662999988 0
vt 0.234899998 0.692099988 0
vt 0.379200011 0.348100007 0
vt 0.3829 0.345999986 0
vt 0.382099986 0.337099999 0
vt 0.377999991 0.276300013 0
vt 0.381300002 0.275999993 0
vt 0.385899991 0.337500006 0
vt 0.346500009 0.378399998 0
vt 0.381099999 0.352600008 0
vt 0.386099994 0.349000007 0
vt 0.483599991 0.500100017 0
vt 0.483700007 0.515299976 0
vt 0.461100012 0.527800024 0
vt 0.421499997 0.505599976 0
vt 0.421499997 0.534699976 0
vt 0.381900012 0.527899981 0
vt 0.359299988 0.50029999 0
vt 0.359299988 0.515500009 0
vt 0.391299993 0.770099998 0
vt 0.359400004 0.751800001 0
vt 0.463999987 0.732599974 0
vt 0.362300009 0.720499992 0
vt 0.465700001 0.720499992 0
vt 0.463999987 0.708500028 0
vt 0.359400004 0.689300001 0
vt 0.391299993 0.671000004 0
vt 0.345999986 0.272300005 0
vt 0.343600005 0.271400005 0
vt 0.345899999 0.270200014 0
vt 0.352899998 0.272899985 0
vt 0.352699995 0.268700004 0
vt 0.362199992 0.273000002 0
vt 0.361799985 0.26730001 0
vt 0.371399999 0.272700012 0
vt 0.370900005 0.266400009 0
vt 0.377900004 0.266799986 0
vt 0.378199995 0.271400005 0
vt 0.380299985 0.268900007 0
vt 0.0252999999 0.744000018 0
vt 0.0247000009 0.746200025 0
vt 0.0237000007 0.744199991 0
vt 0.0209999997 0.725700021 0
vt 0.0242999997 0.725300014 0
vt 0.0203000009 0.715900004 0
vt 0.0229000002 0.715600014 0
vt 0.0214000009 0.713699996 0
vt 0.634199977 0.702099979 0
vt 0.568799973 0.709900022 0
vt 0.632099986 0.676400006 0
vt 0.569999993 0.738699973 0
vt 0.453399986 0.648899972 0
vt 0.628700018 0.636300027 0
vt 0.453299999 0.636300027 0
vt 0.453399986 0.623700023 0
vt 0.632099986 0.596199989 0
vt 0.568799973 0.562600017 0
vt 0.634199977 0.570500016 0
vt 0.425099999 0.662899971 0
vt 0.422699988 0.636300027 0
vt 0.425099999 0.609700024 0
vt 0.569999993 0.533900023 0
vt 0.326900005 0.566399992 0
vt 0.296799988 0.547699988 0
vt 0.335200012 0.547699988 0
vt 0.296999991 0.568300009 0
vt 0.239299998 0.565699995 0
vt 0.170100003 0.547699988 0
vt 0.239299998 0.529699981 0
vt 0.296999991 0.527199984 0
vt 0.326900005 0.529100001 0
vt 0.281599998 0.579100013 0
vt 0.291500002 0.603999972 0
vt 0.252200007 0.5722 0
vt 0.281599998 0.516300023 0
vt 0.291500002 0.491400003 0
vt 0.252200007 0.523199975 0
vt 0.0970999971 0.4287 0
vt 0.0632999986 0.474599987 0
vt 0.0443000011 0.4287 0
vt 0.107600003 0.47420001 0
vt 0.148599997 0.50880003 0
vt 0.139799997 0.549300015 0
vt 0.215900004 0.48089999 0
vt 0.380100012 0.4287 0
vt 0.0632999986 0.382800013 0
vt 0.107600003 0.38319999 0
vt 0.240799993 0.392399997 0
vt 0.320199996 0.4287 0
vt 0.240799993 0.465000004 0
vt 0.148599997 0.3486 0
vt 0.139799997 0.308099985 0
vt 0.215900004 0.376399994 0

# 466 vertex normals
vn -0.873213887 0.0486007482 0.484907717
vn -0.999820769 0.001100022 0.0189003907
vn -0.873196781 0.0479997993 0.484998196
vn -0.999821424 0.0019000402 0.0188004039
vn -0.712596834 -0.0726996511 -0.697796941
vn -0.436000347 -0.0961000398 -0.894800782
vn -0.143994689 -0.106196046 -0.983863711
vn -0.14290081 -0.109100565 -0.983705401
vn -0.965058267 0.203891158 0.164592892
vn -0.902429402 0.0385012738 -0.429113954
vn -0.905683756 -0.055598978 -0.420292437
vn -0.958978176 0.227894798 0.168596148
vn -0.567481458 0.300290138 0.766674936
vn -0.460189342 0.309892803 0.831980824
vn -0.354503632 0.286102861 0.890209198
vn -0.347285926 0.265589178 0.899363518
vn 0 -0.995352745 -0.0962954685
vn -0.17829977 -0.979398847 -0.0947999358
vn -0.131899297 -0.987594783 -0.0851995945
vn 0 -0.994280756 -0.106797956
vn 0.17829977 -0.979398847 -0.0947999358
vn 0.131899297 -0.987594783 -0.0851995945
vn 0.902429402 0.0385012738 -0.429113954
vn 0.965058267 0.203891158 0.164592892
vn 0.905683756 -0.055598978 -0.420292437
vn 0.958978176 0.227894798 0.168596148
vn 0.567481458 0.300290138 0.766674936
vn 0.460189342 0.309892803 0.831980824
vn 0.354503632 0.286102861 0.890209198
vn 0.347285926 0.265589178 0.899363518
vn -0.711602986 -0.207300931 0.671302855
vn -0.765983462 -0.390991628 0.510289013
vn -0.767881215 -0.250493914 0.589585662
vn -0.726400435 -0.520500362 0.448800266
vn -0.62740922 -0.764611185 0.147402152
vn -0.375009686 -0.902523398 0.211705446
vn -0.580122411 -0.810531378 0.080603078
vn -0.322696239 -0.940089107 0.109998681
vn -0.534481108 -0.845170021 -0.00419988809
vn -0.569884479 -0.448887855 0.688281298
vn -0.468789518 -0.716284037 0.51688838
vn -0.075099349 -0.86769253 0.491395712
vn -0.0218005553 -0.956624329 0.290507376
vn -0.0487020165 -0.98034054 0.191207886
vn -0.0873971432 -0.995467484 0.0374987349
vn -0.320096284 -0.940788984 -0.111598738
vn -0.285805404 -0.902317047 -0.322706103
vn -0.142603442 -0.690416694 0.709217131
vn 0.0453990065 -0.784482956 0.618486464
vn 0.00869969651 -0.91476804 0.403885782
vn 0.964487851 -0.218497276 -0.148398146
vn 0.964508951 -0.218402013 -0.14840138
vn 0.964529991 -0.21830681 -0.148404613
vn 0.964564681 -0.218092009 -0.148494571
vn 0.964613557 -0.217803031 -0.148602098
vn 0.964584768 -0.217796549 -0.148797661
vn -0.895506799 0.210901603 0.391902983
vn -0.895471752 0.210893333 0.391987681
vn -0.895430326 0.211207137 0.391913295
vn -0.89540869 0.21150203 0.391803771
vn -0.895386875 0.211796865 0.391694218
vn -0.895421982 0.21180515 0.391609609
vn 0.194707766 0.817032516 -0.54272157
vn 0.284090996 0.864672601 -0.414286792
vn 0.111205071 0.817337334 -0.565325737
vn 0.468590677 0.829683542 -0.30339393
vn 0.54460597 0.837109268 -0.0515005328
vn 0.659487486 0.751685679 -0.00669983961
vn 0.550690949 0.833186269 0.0503992029
vn 0.703009486 0.68050921 0.206602842
vn 0.563509345 0.739912152 0.36740607
vn 0.343378127 0.786150038 -0.513867319
vn 0.649680793 0.73187834 -0.205593884
vn 0.770503879 0.63740319 -0.00640000449
vn 0.793984532 0.588188529 0.153696999
vn 0.779205203 0.511303425 0.362502426
vn 0.628723204 0.613122582 0.478317618
vn 0.549012721 0.657115161 0.516511977
vn 0 0.76198864 -0.64759028
vn -0.0993010402 0.758207917 -0.644406736
vn -0.0621011518 0.716213286 -0.695112884
vn 0 0.803371191 -0.595478535
vn 0.0993010402 0.758207917 -0.644406736
vn 0.0621011518 0.716213286 -0.695112884
vn 0.997923255 0.0300006997 -0.0570013262
vn 0.45019713 -0.659395754 -0.60209614
vn 0.451427758 -0.57273519 -0.68424207
vn 0.998982966 -0.016399717 -0.0419992879
vn 0.254993558 0.471888065 -0.843978643
vn 0.199310198 0.797440886 -0.569529116
vn 0.257302046 0.620604992 -0.740705848
vn 0.119203962 0.723624051 -0.679822564
vn -0.00360011333 0.981930852 -0.189205915
vn 0.0372994244 0.988684595 -0.145297706
vn 0.00470018853 0.998340011 -0.0574022569
vn -0.201798677 0.977593601 -0.0598995611
vn -0.152598083 0.988287568 0.00120002811
vn 0.00549984816 0.999972343 -0.00499981828
vn -0.0798969269 0.213991806 -0.973562539
vn -0.375609249 0.452111155 -0.809019864
vn -0.277898312 0.926394403 -0.254098415
vn -0.529313385 0.838821292 -0.127303198
vn -0.452124774 0.891948998 0.00320021482
vn -0.571213365 -0.17320402 -0.802318871
vn -0.702586055 0.384792358 -0.598588049
vn -0.754813313 0.5412094 -0.370606452
vn -0.589479208 0.806271672 -0.0493982323
vn -0.533711016 0.845517397 0.0159003679
vn -0.410607785 0.908017218 0.0831016153
vn -0.68137747 -0.108296394 -0.723876119
vn -0.454714 0.886027277 0.0905028209
vn -0.254596114 0.914686024 0.313895255
vn -0.205192789 0.953166544 0.222192243
vn -0.0530008934 0.971816361 0.229703888
vn -0.0206995718 0.961280107 0.27479437
vn -0.0462020636 0.912740767 0.405918151
vn -0.0331015103 0.948043346 0.316414475
vn -0.138294682 0.907565057 0.396484792
vn -0.0297990721 0.852373481 0.522083759
vn -0.114300601 0.888104737 0.44520238
vn 0.0763966069 0.821563601 0.564974964
vn 0.385987759 -0.921070814 0.0513983294
vn 0.262007594 -0.962927878 0.0642018169
vn 0.288897693 -0.956292391 0.0451995991
vn 0.402801275 -0.913102865 0.0632001534
vn -0.0351983421 -0.979953825 0.196090713
vn 0.142103136 -0.961721241 0.234305128
vn -0.426405698 -0.84451133 0.324004292
vn 0.118698075 -0.892185628 0.435792923
vn 0.318110645 -0.894329786 0.314610451
vn 0.154697716 -0.827787817 0.539292037
vn 0.49738276 -0.866969943 0.0311988797
vn 0.431793749 -0.899886966 0.0612990707
vn 0.31398958 -0.944968462 0.0918968916
vn 0.165204108 -0.905222535 0.391509652
vn 0.11430043 -0.884203315 0.452901632
vn 0.329595387 -0.942786753 0.0501992553
vn 0.454101443 0.094700329 -0.885902762
vn 0.589018762 0.153404936 -0.793425262
vn 0.453905851 0.0698009282 -0.888311446
vn 0.701144934 0.236815199 -0.672543108
vn 0.652667761 0.207189828 -0.728764057
vn 0.633770585 0.251288414 -0.731566072
vn 0.47057879 0.116294801 -0.874660552
vn 0.493686825 0.0583984777 -0.867676735
vn -0.371889949 0.87427634 0.311991632
vn -0.465109974 0.7456159 0.477210224
vn -0.402691871 0.840283036 0.362992704
vn -0.464506686 0.850512147 0.24670358
vn -0.659791708 0.670891583 0.338495791
vn -0.63951838 0.756721735 0.135603935
vn -0.819668412 0.516280055 0.248190433
vn -0.561768293 0.821253657 0.0997943953
vn -0.459674478 0.887850761 -0.0204988234
vn -0.315998375 0.948395133 -0.0262998194
vn -0.263209701 0.964735389 0.00250013382
vn -0.418100148 0.908400297 -0.000999960816
vn -0.475517899 0.879033089 -0.0344012566
vn -0.387313038 0.920530975 -0.0511016771
vn -0.288900256 0.956301033 -0.0450000092
vn -0.248691976 0.967768669 -0.0396986753
vn 0.509511709 -0.801318347 0.31350711
vn 0.578613281 -0.702416122 0.414509505
vn 0.465507001 -0.782611847 0.413306177
vn 0.674310327 -0.70991081 0.203303084
vn 0.72829622 -0.612496853 0.307298362
vn 0.697086096 -0.61438781 0.369592577
vn 0.62400496 -0.778206229 0.0708005354
vn 0.745512784 -0.665911317 0.0278004427
vn 0.803593576 -0.591395319 0.0669994429
vn 0.69192034 -0.721721113 -0.0191005915
vn 0.845886588 -0.461492598 -0.267395765
vn 0.867799222 -0.480199516 -0.127799913
vn 0.812398136 -0.318399251 -0.488498896
vn 0.800366879 -0.111895338 -0.588975549
vn 0.875815868 -0.209703758 -0.43470782
vn 0.683696389 0.0730996504 -0.726096213
vn -0.881699562 0.205099866 0.424899787
vn -0.907034755 0.311211884 0.283610851
vn -0.899116695 0.330306143 0.287205368
vn -0.874705434 0.266201645 0.405002505
vn -0.827496707 0.0912996083 0.553997755
vn -0.817705214 -0.0550003685 0.57300365
vn 0 0.99501735 0.0997017846
vn -0.167201668 0.98100996 0.0983010307
vn -0.133903235 0.98672384 0.0919022635
vn 0 0.994280756 0.106797956
vn 0.167201668 0.98100996 0.0983010307
vn 0.133903235 0.98672384 0.0919022635
vn 0.138294682 0.907565057 0.396484792
vn 0.0297990721 0.852373481 0.522083759
vn -0.0763966069 0.821563601 0.564974964
vn 0.254596114 0.914686024 0.313895255
vn 0.114300601 0.888104737 0.44520238
vn 0.205192789 0.953166544 0.222192243
vn 0.0530008934 0.971816361 0.229703888
vn 0.0462020636 0.912740767 0.405918151
vn 0.0206995718 0.961280107 0.27479437
vn 0.0331015103 0.948043346 0.316414475
vn 0.454714 0.886027277 0.0905028209
vn 0.410607785 0.908017218 0.0831016153
vn 0.152598083 0.988287568 0.00120002811
vn -0.00549984816 0.999972343 -0.00499981828
vn 0.533711016 0.845517397 0.0159003679
vn 0.452124774 0.891948998 0.00320021482
vn 0.201798677 0.977593601 -0.0598995611
vn -0.00470018853 0.998340011 -0.0574022569
vn 0.589479208 0.806271672 -0.0493982323
vn 0.529313385 0.838821292 -0.127303198
vn 0.277898312 0.926394403 -0.254098415
vn 0.00360011333 0.981930852 -0.189205915
vn -0.0372994244 0.988684595 -0.145297706
vn -0.199310198 0.797440886 -0.569529116
vn 0.754813313 0.5412094 -0.370606452
vn 0.702586055 0.384792358 -0.598588049
vn 0.375609249 0.452111155 -0.809019864
vn -0.119203962 0.723624051 -0.679822564
vn -0.254993558 0.471888065 -0.843978643
vn -0.257302046 0.620604992 -0.740705848
vn 0.68137747 -0.108296394 -0.723876119
vn 0.571213365 -0.17320402 -0.802318871
vn 0.0798969269 0.213991806 -0.973562539
vn 0.387313038 0.920530975 -0.0511016771
vn 0.315998375 0.948395133 -0.0262998194
vn 0.288900256 0.956301033 -0.0450000092
vn 0.459674478 0.887850761 -0.0204988234
vn 0.561768293 0.821253657 0.0997943953
vn 0.63951838 0.756721735 0.135603935
vn 0.819668412 0.516280055 0.248190433
vn 0.659791708 0.670891583 0.338495791
vn 0.464506686 0.850512147 0.24670358
vn 0.465109974 0.7456159 0.477210224
vn 0.475517899 0.879033089 -0.0344012566
vn 0.418100148 0.908400297 -0.000999960816
vn 0.263209701 0.964735389 0.00250013382
vn 0.371889949 0.87427634 0.311991632
vn 0.402691871 0.840283036 0.362992704
vn 0.248691976 0.967768669 -0.0396986753
vn -0.812398136 -0.318399251 -0.488498896
vn -0.800366879 -0.111895338 -0.588975549
vn -0.683696389 0.0730996504 -0.726096213
vn -0.845886588 -0.461492598 -0.267395765
vn -0.875815868 -0.209703758 -0.43470782
vn -0.867799222 -0.480199516 -0.127799913
vn -0.745512784 -0.665911317 0.0278004427
vn -0.803593576 -0.591395319 0.0669994429
vn -0.674310327 -0.70991081 0.203303084
vn -0.72829622 -0.612496853 0.307298362
vn -0.69192034 -0.721721113 -0.0191005915
vn -0.62400496 -0.778206229 0.0708005354
vn -0.509511709 -0.801318347 0.31350711
vn -0.578613281 -0.702416122 0.414509505
vn -0.697086096 -0.61438781 0.369592577
vn -0.465507001 -0.782611847 0.413306177
vn 0.999820769 0.001100022 0.0189003907
vn 0.873213887 0.0486007482 0.484907717
vn 0.873196781 0.0479997993 0.484998196
vn 0.999821424 0.0019000402 0.0188004039
vn 0.712596834 -0.0726996511 -0.697796941
vn 0.436000347 -0.0961000398 -0.894800782
vn 0.143994689 -0.106196046 -0.983863711
vn 0.14290081 -0.109100565 -0.983705401
vn -0.910014749 -0.0917015076 0.404306561
vn -0.876461565 0.0365983695 0.480078906
vn -0.855684638 0.0955982581 0.508590877
vn -0.938464999 -0.0429984182 0.342687249
vn -0.904401124 -0.421500564 0.0663000718
vn -0.752071142 -0.618576348 -0.227491334
vn -0.628723204 0.613122582 0.478317618
vn -0.563509345 0.739912152 0.36740607
vn -0.549012721 0.657115161 0.516511977
vn -0.703009486 0.68050921 0.206602842
vn -0.550690949 0.833186269 0.0503992029
vn -0.659487486 0.751685679 -0.00669983961
vn -0.54460597 0.837109268 -0.0515005328
vn -0.468590677 0.829683542 -0.30339393
vn -0.284090996 0.864672601 -0.414286792
vn -0.779205203 0.511303425 0.362502426
vn -0.793984532 0.588188529 0.153696999
vn -0.770503879 0.63740319 -0.00640000449
vn -0.649680793 0.73187834 -0.205593884
vn -0.343378127 0.786150038 -0.513867319
vn -0.194707766 0.817032516 -0.54272157
vn -0.111205071 0.817337334 -0.565325737
vn 0.881699562 0.205099866 0.424899787
vn 0.827496707 0.0912996083 0.553997755
vn 0.817705214 -0.0550003685 0.57300365
vn 0.874705434 0.266201645 0.405002505
vn 0.907034755 0.311211884 0.283610851
vn 0.899116695 0.330306143 0.287205368
vn -0.262007594 -0.962927878 0.0642018169
vn -0.385987759 -0.921070814 0.0513983294
vn -0.288897693 -0.956292391 0.0451995991
vn -0.402801275 -0.913102865 0.0632001534
vn -0.49738276 -0.866969943 0.0311988797
vn -0.431793749 -0.899886966 0.0612990707
vn -0.329595387 -0.942786753 0.0501992553
vn -0.31398958 -0.944968462 0.0918968916
vn -0.318110645 -0.894329786 0.314610451
vn -0.165204108 -0.905222535 0.391509652
vn 0.0351983421 -0.979953825 0.196090713
vn -0.142103136 -0.961721241 0.234305128
vn -0.118698075 -0.892185628 0.435792923
vn -0.154697716 -0.827787817 0.539292037
vn -0.11430043 -0.884203315 0.452901632
vn 0.426405698 -0.84451133 0.324004292
vn -0.589018762 0.153404936 -0.793425262
vn -0.454101443 0.094700329 -0.885902762
vn -0.453905851 0.0698009282 -0.888311446
vn -0.701144934 0.236815199 -0.672543108
vn -0.652667761 0.207189828 -0.728764057
vn -0.633770585 0.251288414 -0.731566072
vn -0.47057879 0.116294801 -0.874660552
vn -0.493686825 0.0583984777 -0.867676735
vn 0.765983462 -0.390991628 0.510289013
vn 0.711602986 -0.207300931 0.671302855
vn 0.767881215 -0.250493914 0.589585662
vn 0.726400435 -0.520500362 0.448800266
vn 0.569884479 -0.448887855 0.688281298
vn 0.468789518 -0.716284037 0.51688838
vn 0.142603442 -0.690416694 0.709217131
vn 0.075099349 -0.86769253 0.491395712
vn -0.0453990065 -0.784482956 0.618486464
vn -0.00869969651 -0.91476804 0.403885782
vn 0.62740922 -0.764611185 0.147402152
vn 0.375009686 -0.902523398 0.211705446
vn 0.0218005553 -0.956624329 0.290507376
vn 0.580122411 -0.810531378 0.080603078
vn 0.322696239 -0.940089107 0.109998681
vn 0.0487020165 -0.98034054 0.191207886
vn 0.534481108 -0.845170021 -0.00419988809
vn 0.320096284 -0.940788984 -0.111598738
vn 0.0873971432 -0.995467484 0.0374987349
vn 0.285805404 -0.902317047 -0.322706103
vn 0.132901534 -0.863509953 -0.486505657
vn 0.191900358 -0.852001607 -0.487100989
vn 0.211307406 -0.918832123 -0.333311737
vn 0.18948999 -0.937650502 -0.291384667
vn 0.282807857 -0.786721885 -0.548715234
vn 0.250001103 -0.747103274 -0.615902662
vn -0.0106998356 -0.831987202 -0.554691553
vn 0.078497231 -0.82287097 -0.562780142
vn 0.0718976334 -0.732575774 -0.676877737
vn -0.964487851 -0.218497276 -0.148398146
vn -0.964508951 -0.218402013 -0.14840138
vn -0.964529991 -0.21830681 -0.148404613
vn -0.964564681 -0.218092009 -0.148494571
vn -0.964613557 -0.217803031 -0.148602098
vn -0.964584768 -0.217796549 -0.148797661
vn 0.895471752 0.210893333 0.391987681
vn 0.895506799 0.210901603 0.391902983
vn 0.895430326 0.211207137 0.391913295
vn 0.89540869 0.21150203 0.391803771
vn 0.895386875 0.211796865 0.391694218
vn 0.895421982 0.21180515 0.391609609
vn 0.0956008881 0.0936008245 0.991009176
vn 0.100896806 0.0978968516 0.990068674
vn 0.0935994685 0.0925994366 0.991294384
vn 0 0.0903012753 0.995914519
vn 0 0.0910045728 0.995850503
vn -0.0935994685 0.0925994366 0.991294384
vn -0.0956008881 0.0936008245 0.991009176
vn -0.100896806 0.0978968516 0.990068674
vn 0.228506207 0.972226441 -0.0506013334
vn 0.158503681 0.985222995 -0.0649014786
vn 0.180995107 0.980673492 -0.0742979497
vn 0 0.996182144 -0.0872983932
vn 0 0.995419681 -0.0956018418
vn -0.180995107 0.980673492 -0.0742979497
vn -0.158503681 0.985222995 -0.0649014786
vn -0.228506207 0.972226441 -0.0506013334
vn -0.933748841 0.0406021066 0.355618596
vn -0.933569849 0.0405986756 0.356088519
vn -0.933798552 0.0404999256 0.355499506
vn -0.933881521 0.0403991826 0.355293006
vn -0.933835566 0.0404015258 0.355413556
vn -0.933947861 0.0404020548 0.355118215
vn -0.934098482 0.0405999236 0.354699433
vn -0.934127748 0.0407011956 0.354610592
vn -0.934157073 0.0408024788 0.354521662
vn -0.933750212 0.0408978015 0.355581015
vn -0.933621109 0.0410009101 0.355908036
vn -0.933233082 0.0411014408 0.356912613
vn -0.740625501 0.601520717 0.299410373
vn -0.740491271 0.601692915 0.299396485
vn -0.740469098 0.601674914 0.299487531
vn -0.740782559 0.601385891 0.299292982
vn -0.740804732 0.601403832 0.299201936
vn -0.740692377 0.601693749 0.298896968
vn -0.740512908 0.601910532 0.298905283
vn -0.740579903 0.601983607 0.298591942
vn 0.933569849 0.0405986756 0.356088519
vn 0.933748841 0.0406021066 0.355618596
vn 0.933798552 0.0404999256 0.355499506
vn 0.933881521 0.0403991826 0.355293006
vn 0.933835566 0.0404015258 0.355413556
vn 0.933947861 0.0404020548 0.355118215
vn 0.934098482 0.0405999236 0.354699433
vn 0.934127748 0.0407011956 0.354610592
vn 0.934157073 0.0408024788 0.354521662
vn 0.933750212 0.0408978015 0.355581015
vn 0.933621109 0.0410009101 0.355908036
vn 0.933233082 0.0411014408 0.356912613
vn 0.740491271 0.601692915 0.299396485
vn 0.740625501 0.601520717 0.299410373
vn 0.740469098 0.601674914 0.299487531
vn 0.740782559 0.601385891 0.299292982
vn 0.740804732 0.601403832 0.299201936
vn 0.740692377 0.601693749 0.298896968
vn 0.740512908 0.601910532 0.298905283
vn 0.740579903 0.601983607 0.298591942
vn -0.132901534 -0.863509953 -0.486505657
vn -0.191900358 -0.852001607 -0.487100989
vn -0.0718976334 -0.732575774 -0.676877737
vn -0.078497231 -0.82287097 -0.562780142
vn 0.0106998356 -0.831987202 -0.554691553
vn -0.211307406 -0.918832123 -0.333311737
vn -0.250001103 -0.747103274 -0.615902662
vn -0.18948999 -0.937650502 -0.291384667
vn -0.282807857 -0.786721885 -0.548715234
vn -0.460917652 -0.871433318 0.167806357
vn -0.4119187 -0.907841206 0.0784035176
vn -0.303313613 -0.948242605 0.094004184
vn -0.470809191 -0.882217228 -0.00560014788
vn -0.330597997 -0.942994237 -0.0382998064
vn 0 -0.997739375 0.0672026053
vn 0 -0.990542591 -0.137205943
vn 0.330597997 -0.942994237 -0.0382998064
vn 0.303313613 -0.948242605 0.094004184
vn 0.4119187 -0.907841206 0.0784035176
vn 0.460917652 -0.871433318 0.167806357
vn -0.351893842 -0.916284025 -0.191296682
vn 0 -0.969170034 -0.246392429
vn 0.351893842 -0.916284025 -0.191296682
vn 0.470809191 -0.882217228 -0.00560014788
vn -0.211307406 0.972634017 -0.096603334
vn 0 0.995534003 -0.0944031775
vn 0 0.996013582 -0.0892011747
vn -0.217304945 0.970622063 -0.103302307
vn -0.179199368 0.979696691 -0.0898996443
vn 0 0.996234179 -0.0867029279
vn 0.179199368 0.979696691 -0.0898996443
vn 0.217304945 0.970622063 -0.103302307
vn 0.211307406 0.972634017 -0.096603334
vn -0.200802043 0.974009871 -0.104801022
vn -0.166995406 0.981273174 -0.0959973335
vn -0.156401798 0.981311262 -0.112101234
vn 0.200802043 0.974009871 -0.104801022
vn 0.166995406 0.981273174 -0.0959973335
vn 0.156401798 0.981311262 -0.112101234
vn 0 -0.997191131 0.074899286
vn 0.255894214 -0.963178158 0.0824980959
vn 0 -0.997069716 0.0764976293
vn 0.222497299 -0.972388208 0.0703991055
vn 0.326385945 -0.942859232 0.0669970661
vn 0.394090772 -0.918578565 0.0300992504
vn 0.386300117 -0.92230016 -0.0116000436
vn 0 -0.999528646 -0.0307009257
vn -0.255894214 -0.963178158 0.0824980959
vn -0.222497299 -0.972388208 0.0703991055
vn -0.303815335 -0.952348232 0.0270013232
vn 0 -0.999775171 0.0211994313
vn 0.303815335 -0.952348232 0.0270013232
vn -0.326385945 -0.942859232 0.0669970661
vn -0.394090772 -0.918578565 0.0300992504
vn -0.386300117 -0.92230016 -0.0116000436

# Mesh 'PipelineFBX' with 484 faces
g PipelineFBX
usemtl DefaultMaterial
f  1/1/1 2/2/2 3/3/3
f  4/2/2 5/1/1 6/4/4
f  7/5/5 8/2/2 9/4/4
f  10/2/2 11/5/5 12/6/6
f  13/7/7 14/6/6 15/5/5
f  16/6/6 17/7/7 18/8/8
f  19/9/9 20/10/10 21/11/11
f  22/10/10 23/9/9 24/12/12
f  25/9/9 26/13/13 27/12/12
f  28/13/13 29/9/9 30/14/14
f  31/14/14 32/15/15 33/13/13
f  34/15/15 35/14/14 36/16/16
f  37/17/17 38/18/18 39/19/19
f  40/18/18 41/17/17 42/20/20
f  43/17/17 44/21/21 45/20/20
f  46/21/21 47/17/17 48/22/22
f  49/10/23 50/9/24 51/11/25
f  52/9/24 53/10/23 54/12/26
f  55/13/27 56/9/24 57/12/26
f  58/9/24 59/13/27 60/14/28
f  61/15/29 62/14/28 63/13/27
f  64/14/28 65/15/29 66/16/30
f  67/23/31 68/24/32 69/25/33
f  70/24/32 71/23/31 72/26/34
f  73/26/34 74/27/35 75/24/32
f  76/27/35 77/26/34 78/28/36
f  79/28/36 80/29/37 81/27/35
f  82/29/37 83/28/36 84/30/38
f  85/30/38 86/31/39 87/29/37
f  88/32/40 89/26/34 90/23/31
f  91/26/34 92/32/40 93/33/41
f  94/28/36 95/26/34 96/33/41
f  97/28/36 98/33/41 99/34/42
f  100/34/42 101/35/43 102/28/36
f  103/36/44 104/28/36 105/35/43
f  106/28/36 107/36/44 108/30/38
f  109/37/45 110/30/38 111/36/44
f  112/30/38 113/37/45 114/38/46
f  115/31/39 116/30/38 117/38/46
f  118/38/46 119/39/47 120/31/39
f  121/40/48 122/33/41 123/32/40
f  124/33/41 125/40/48 126/34/42
f  127/41/49 128/34/42 129/40/48
f  130/34/42 131/41/49 132/42/50
f  133/35/43 134/34/42 135/42/50
f  136/43/51 137/44/51 138/45/52
f  139/44/51 140/43/51 141/46/53
f  142/46/53 143/47/54 144/44/51
f  145/47/54 146/46/53 147/48/55
f  148/47/54 149/48/55 150/49/56
f  151/50/57 152/51/58 153/52/57
f  154/51/58 155/50/57 156/53/59
f  157/53/59 158/54/60 159/51/58
f  160/54/60 161/53/59 162/55/61
f  163/54/60 164/55/61 165/56/62
f  166/57/63 167/58/64 168/59/65
f  169/58/64 170/57/63 171/60/66
f  172/60/66 173/61/67 174/58/64
f  175/61/67 176/60/66 177/62/68
f  178/62/68 179/63/69 180/61/67
f  181/62/68 182/64/70 183/63/69
f  184/64/70 185/65/71 186/63/69
f  187/66/72 188/60/66 189/57/63
f  190/60/66 191/66/72 192/67/73
f  193/67/73 194/62/68 195/60/66
f  196/62/68 197/67/73 198/68/74
f  199/68/74 200/64/70 201/62/68
f  202/64/70 203/68/74 204/69/75
f  205/70/76 206/64/70 207/69/75
f  208/64/70 209/70/76 210/71/77
f  211/71/77 212/65/71 213/64/70
f  214/65/71 215/71/77 216/72/78
f  217/73/79 218/74/80 219/75/81
f  220/74/80 221/73/79 222/76/82
f  223/73/79 224/77/83 225/76/82
f  226/77/83 227/73/79 228/78/84
f  229/79/85 230/80/86 231/81/87
f  232/80/86 233/79/85 234/82/88
f  235/83/89 236/84/90 237/85/91
f  238/84/90 239/83/89 240/86/92
f  241/87/93 242/84/90 243/86/92
f  244/84/90 245/87/93 246/88/94
f  247/87/93 248/89/95 249/88/94
f  250/89/95 251/87/93 252/90/96
f  253/91/97 254/89/95 255/90/96
f  256/89/95 257/91/97 258/92/98
f  259/93/99 260/86/92 261/83/89
f  262/86/92 263/93/99 264/94/100
f  265/95/101 266/86/92 267/94/100
f  268/86/92 269/95/101 270/87/93
f  271/87/93 272/95/101 273/90/96
f  274/95/101 275/96/102 276/90/96
f  277/96/102 278/97/103 279/90/96
f  280/97/103 281/91/97 282/90/96
f  283/98/104 284/94/100 285/93/99
f  286/94/100 287/98/104 288/99/105
f  289/99/105 290/95/101 291/94/100
f  292/95/101 293/99/105 294/96/102
f  295/100/106 296/96/102 297/99/105
f  298/96/102 299/100/106 300/101/107
f  301/101/107 302/97/103 303/96/102
f  304/97/103 305/101/107 306/102/108
f  307/102/108 308/103/109 309/97/103
f  310/91/97 311/97/103 312/103/109
f  313/104/110 314/99/105 315/98/104
f  316/99/105 317/104/110 318/100/106
f  319/103/109 320/102/108 321/105/111
f  322/105/111 323/106/112 324/103/109
f  325/107/113 326/103/109 327/106/112
f  328/103/109 329/107/113 330/91/97
f  331/91/97 332/107/113 333/108/114
f  334/108/114 335/92/98 336/91/97
f  337/92/98 338/108/114 339/109/115
f  340/110/116 341/109/115 342/108/114
f  343/109/115 344/110/116 345/111/117
f  346/106/112 347/105/111 348/112/118
f  349/112/118 350/113/119 351/106/112
f  352/114/120 353/106/112 354/113/119
f  355/106/112 356/114/120 357/107/113
f  358/114/120 359/108/114 360/107/113
f  361/108/114 362/114/120 363/110/116
f  364/113/119 365/112/118 366/115/121
f  367/116/122 368/117/123 369/118/124
f  370/117/123 371/116/122 372/119/125
f  373/119/125 374/120/126 375/117/123
f  376/120/126 377/119/125 378/121/127
f  379/121/127 380/122/128 381/120/126
f  382/122/128 383/121/127 384/123/129
f  385/124/130 386/123/129 387/121/127
f  388/123/129 389/124/130 390/125/131
f  391/126/132 392/119/125 393/116/122
f  394/119/125 395/126/132 396/127/133
f  397/127/133 398/121/127 399/119/125
f  400/121/127 401/127/133 402/124/130
f  403/128/134 404/124/130 405/127/133
f  406/124/130 407/128/134 408/129/135
f  409/129/135 410/125/131 411/124/130
f  412/125/131 413/129/135 414/130/136
f  415/131/137 416/127/133 417/126/132
f  418/127/133 419/131/137 420/128/134
f  421/132/138 422/133/139 423/134/140
f  424/133/139 425/132/138 426/135/141
f  427/135/141 428/136/142 429/133/139
f  430/136/142 431/135/141 432/137/143
f  433/138/144 434/136/142 435/137/143
f  436/136/142 437/138/144 438/139/145
f  439/140/146 440/141/147 441/142/148
f  442/141/147 443/140/146 444/143/149
f  445/143/149 446/144/150 447/141/147
f  448/144/150 449/143/149 450/145/151
f  451/145/151 452/146/152 453/144/150
f  454/146/152 455/145/151 456/147/153
f  457/148/154 458/147/153 459/145/151
f  460/147/153 461/148/154 462/149/155
f  463/150/156 464/143/149 465/140/146
f  466/143/149 467/150/156 468/151/157
f  469/151/157 470/145/151 471/143/149
f  472/145/151 473/151/157 474/148/154
f  475/152/158 476/148/154 477/151/157
f  478/148/154 479/152/158 480/153/159
f  481/153/159 482/149/155 483/148/154
f  484/149/155 485/153/159 486/154/160
f  487/155/161 488/151/157 489/150/156
f  490/151/157 491/155/161 492/152/158
f  493/156/162 494/157/163 495/158/164
f  496/157/163 497/156/162 498/159/165
f  499/160/166 500/157/163 501/159/165
f  502/157/163 503/160/166 504/161/167
f  505/159/165 506/156/162 507/162/168
f  508/163/169 509/159/165 510/162/168
f  511/164/170 512/159/165 513/163/169
f  514/159/165 515/164/170 516/160/166
f  517/163/169 518/162/168 519/165/171
f  520/165/171 521/166/172 522/163/169
f  523/167/173 524/163/169 525/166/172
f  526/163/169 527/167/173 528/164/170
f  529/166/172 530/165/171 531/168/174
f  532/168/174 533/169/175 534/166/172
f  535/170/176 536/166/172 537/169/175
f  538/166/172 539/170/176 540/167/173
f  541/169/175 542/168/174 543/171/177
f  544/172/178 545/173/179 546/174/180
f  547/173/179 548/172/178 549/175/181
f  550/172/178 551/176/182 552/175/181
f  553/176/182 554/172/178 555/177/183
f  556/178/184 557/179/185 558/180/186
f  559/179/185 560/178/184 561/181/187
f  562/178/184 563/182/188 564/181/187
f  565/182/188 566/178/184 567/183/189
f  568/112/190 569/113/191 570/115/192
f  571/113/191 572/112/190 573/106/193
f  574/106/193 575/114/194 576/113/191
f  577/114/194 578/106/193 579/107/195
f  580/108/196 581/114/194 582/107/195
f  583/114/194 584/108/196 585/110/197
f  586/109/198 587/110/197 588/108/196
f  589/110/197 590/109/198 591/111/199
f  592/105/200 593/106/193 594/112/190
f  595/106/193 596/105/200 597/103/201
f  598/103/201 599/107/195 600/106/193
f  601/107/195 602/103/201 603/91/202
f  604/107/195 605/91/202 606/108/196
f  607/92/203 608/108/196 609/91/202
f  610/108/196 611/92/203 612/109/198
f  613/102/204 614/103/201 615/105/200
f  616/103/201 617/102/204 618/97/205
f  619/97/205 620/91/202 621/103/201
f  622/91/202 623/97/205 624/90/206
f  625/89/207 626/91/202 627/90/206
f  628/91/202 629/89/207 630/92/203
f  631/101/208 632/97/205 633/102/204
f  634/97/205 635/101/208 636/96/209
f  637/97/205 638/96/209 639/90/206
f  640/96/209 641/95/210 642/90/206
f  643/95/210 644/87/211 645/90/206
f  646/87/211 647/89/207 648/90/206
f  649/89/207 650/87/211 651/88/212
f  652/87/211 653/84/213 654/88/212
f  655/100/214 656/96/209 657/101/208
f  658/96/209 659/100/214 660/99/215
f  661/99/215 662/95/210 663/96/209
f  664/95/210 665/99/215 666/94/216
f  667/86/217 668/95/210 669/94/216
f  670/95/210 671/86/217 672/87/211
f  673/84/213 674/87/211 675/86/217
f  676/83/218 677/84/213 678/86/217
f  679/84/213 680/83/218 681/85/219
f  682/104/220 683/99/215 684/100/214
f  685/99/215 686/104/220 687/98/221
f  688/98/221 689/94/216 690/99/215
f  691/94/216 692/98/221 693/93/222
f  694/93/222 695/86/217 696/94/216
f  697/86/217 698/93/222 699/83/218
f  700/153/223 701/149/224 702/154/225
f  703/149/224 704/153/223 705/148/226
f  706/148/226 707/147/227 708/149/224
f  709/147/227 710/148/226 711/145/228
f  712/145/228 713/146/229 714/147/227
f  715/146/229 716/145/228 717/144/230
f  718/143/231 719/144/230 720/145/228
f  721/144/230 722/143/231 723/141/232
f  724/152/233 725/148/226 726/153/223
f  727/148/226 728/152/233 729/151/234
f  730/151/234 731/145/228 732/148/226
f  733/145/228 734/151/234 735/143/231
f  736/150/235 737/143/231 738/151/234
f  739/143/231 740/150/235 741/140/236
f  742/140/236 743/141/232 744/143/231
f  745/141/232 746/140/236 747/142/237
f  748/155/238 749/151/234 750/152/233
f  751/151/234 752/155/238 753/150/235
f  754/168/239 755/169/240 756/171/241
f  757/169/240 758/168/239 759/166/242
f  760/166/242 761/170/243 762/169/240
f  763/170/243 764/166/242 765/167/244
f  766/163/245 767/167/244 768/166/242
f  769/167/244 770/163/245 771/164/246
f  772/159/247 773/164/246 774/163/245
f  775/164/246 776/159/247 777/160/248
f  778/165/249 779/166/242 780/168/239
f  781/166/242 782/165/249 783/163/245
f  784/162/250 785/163/245 786/165/249
f  787/159/247 788/163/245 789/162/250
f  790/156/251 791/159/247 792/162/250
f  793/156/251 794/157/252 795/159/247
f  796/157/252 797/160/248 798/159/247
f  799/160/248 800/157/252 801/161/253
f  802/157/252 803/156/251 804/158/254
f  805/2/255 806/1/256 807/3/257
f  808/1/256 809/2/255 810/4/258
f  811/2/255 812/5/259 813/4/258
f  814/5/259 815/2/255 816/6/260
f  817/6/260 818/7/261 819/5/259
f  820/7/261 821/6/260 822/8/262
f  823/184/263 824/185/264 825/186/265
f  826/185/264 827/184/263 828/187/266
f  829/184/263 830/188/267 831/187/266
f  832/188/267 833/184/263 834/189/268
f  835/189/268 836/80/86 837/188/267
f  838/80/86 839/189/268 840/81/87
f  841/71/269 842/65/270 843/72/271
f  844/65/270 845/71/269 846/64/272
f  847/65/270 848/64/272 849/63/273
f  850/64/272 851/62/274 852/63/273
f  853/63/273 854/62/274 855/61/275
f  856/60/276 857/61/275 858/62/274
f  859/61/275 860/60/276 861/58/277
f  862/70/278 863/64/272 864/71/269
f  865/64/272 866/70/278 867/69/279
f  868/68/280 869/64/272 870/69/279
f  871/64/272 872/68/280 873/62/274
f  874/67/281 875/62/274 876/68/280
f  877/62/274 878/67/281 879/60/276
f  880/66/282 881/60/276 882/67/281
f  883/60/276 884/66/282 885/57/283
f  886/57/283 887/58/277 888/60/276
f  889/58/277 890/57/283 891/59/284
f  892/172/285 893/176/286 894/177/287
f  895/176/286 896/172/285 897/175/288
f  898/172/285 899/173/289 900/175/288
f  901/173/289 902/172/285 903/174/290
f  904/117/291 905/116/292 906/118/293
f  907/116/292 908/117/291 909/119/294
f  910/119/294 911/126/295 912/116/292
f  913/126/295 914/119/294 915/127/296
f  916/127/296 917/131/297 918/126/295
f  919/131/297 920/127/296 921/128/298
f  922/124/299 923/128/298 924/127/296
f  925/128/298 926/124/299 927/129/300
f  928/120/301 929/119/294 930/117/291
f  931/119/294 932/120/301 933/121/302
f  934/121/302 935/127/296 936/119/294
f  937/127/296 938/121/302 939/124/299
f  940/123/303 941/124/299 942/121/302
f  943/124/299 944/123/303 945/125/304
f  946/125/304 947/129/300 948/124/299
f  949/129/300 950/125/304 951/130/305
f  952/122/306 953/121/302 954/120/301
f  955/121/302 956/122/306 957/123/303
f  958/133/307 959/132/308 960/134/309
f  961/132/308 962/133/307 963/135/310
f  964/136/311 965/135/310 966/133/307
f  967/135/310 968/136/311 969/137/312
f  970/136/311 971/138/313 972/137/312
f  973/138/313 974/136/311 975/139/314
f  976/24/315 977/23/316 978/25/317
f  979/23/316 980/24/315 981/26/318
f  982/26/318 983/32/319 984/23/316
f  985/32/319 986/26/318 987/33/320
f  988/33/320 989/40/321 990/32/319
f  991/40/321 992/33/320 993/34/322
f  994/34/322 995/41/323 996/40/321
f  997/41/323 998/34/322 999/42/324
f  1000/27/325 1001/26/318 1002/24/315
f  1003/26/318 1004/27/325 1005/28/326
f  1006/26/318 1007/28/326 1008/33/320
f  1009/33/320 1010/28/326 1011/34/322
f  1012/35/327 1013/34/322 1014/28/326
f  1015/34/322 1016/35/327 1017/42/324
f  1018/29/328 1019/28/326 1020/27/325
f  1021/28/326 1022/29/328 1023/30/329
f  1024/36/330 1025/28/326 1026/30/329
f  1027/28/326 1028/36/330 1029/35/327
f  1030/31/331 1031/30/329 1032/29/328
f  1033/30/329 1034/31/331 1035/38/332
f  1036/37/333 1037/30/329 1038/38/332
f  1039/30/329 1040/37/333 1041/36/330
f  1042/39/334 1043/38/332 1044/31/331
f  1045/38/332 1046/39/334 1047/190/335
f  1048/38/332 1049/190/335 1050/191/336
f  1051/192/337 1052/38/332 1053/191/336
f  1054/192/337 1055/37/333 1056/38/332
f  1057/37/333 1058/192/337 1059/193/338
f  1060/192/337 1061/194/339 1062/193/338
f  1063/194/339 1064/192/337 1065/195/340
f  1066/196/341 1067/190/335 1068/39/334
f  1069/190/335 1070/196/341 1071/197/342
f  1072/198/343 1073/190/335 1074/197/342
f  1075/190/335 1076/198/343 1077/191/336
f  1078/195/340 1079/191/336 1080/198/343
f  1081/191/336 1082/195/340 1083/192/337
f  1084/44/344 1085/43/344 1086/45/345
f  1087/43/344 1088/44/344 1089/46/346
f  1090/47/347 1091/46/346 1092/44/344
f  1093/46/346 1094/47/347 1095/48/348
f  1096/48/348 1097/47/347 1098/49/349
f  1099/51/350 1100/50/351 1101/52/351
f  1102/50/351 1103/51/350 1104/53/352
f  1105/54/353 1106/53/352 1107/51/350
f  1108/53/352 1109/54/353 1110/55/354
f  1111/55/354 1112/54/353 1113/56/355
f  1114/199/356 1115/200/357 1116/201/358
f  1117/201/358 1118/202/359 1119/199/356
f  1120/201/358 1121/203/360 1122/202/359
f  1123/202/359 1124/203/360 1125/204/361
f  1126/202/359 1127/204/361 1128/205/362
f  1129/204/361 1130/206/363 1131/205/362
f  1132/207/364 1133/208/365 1134/209/366
f  1135/210/367 1136/209/366 1137/208/365
f  1138/209/366 1139/210/367 1140/211/368
f  1141/210/367 1142/212/369 1143/211/368
f  1144/212/369 1145/210/367 1146/213/370
f  1147/213/370 1148/214/371 1149/212/369
f  1150/215/372 1151/216/373 1152/217/374
f  1153/217/374 1154/218/375 1155/215/372
f  1156/218/375 1157/217/374 1158/219/376
f  1159/219/376 1160/220/377 1161/218/375
f  1162/220/377 1163/219/376 1164/221/378
f  1165/221/378 1166/222/379 1167/220/377
f  1168/222/379 1169/221/378 1170/223/380
f  1171/224/381 1172/222/379 1173/223/380
f  1174/222/379 1175/224/381 1176/225/382
f  1177/224/381 1178/226/383 1179/225/382
f  1180/227/384 1181/228/385 1182/229/386
f  1183/230/387 1184/227/384 1185/229/386
f  1186/227/384 1187/230/387 1188/231/388
f  1189/232/389 1190/231/388 1191/230/387
f  1192/231/388 1193/232/389 1194/233/390
f  1195/232/389 1196/234/391 1197/233/390
f  1198/216/392 1199/215/393 1200/217/394
f  1201/218/395 1202/217/394 1203/215/393
f  1204/217/394 1205/218/395 1206/219/396
f  1207/220/397 1208/219/396 1209/218/395
f  1210/219/396 1211/220/397 1212/221/398
f  1213/222/399 1214/221/398 1215/220/397
f  1216/221/398 1217/222/399 1218/223/400
f  1219/222/399 1220/224/401 1221/223/400
f  1222/224/401 1223/222/399 1224/225/402
f  1225/226/403 1226/224/401 1227/225/402
f  1228/228/404 1229/227/405 1230/229/406
f  1231/227/405 1232/230/407 1233/229/406
f  1234/230/407 1235/227/405 1236/231/408
f  1237/231/408 1238/232/409 1239/230/407
f  1240/232/409 1241/231/408 1242/233/410
f  1243/234/411 1244/232/409 1245/233/410
f  1246/39/47 1247/38/46 1248/190/412
f  1249/190/412 1250/38/46 1251/191/413
f  1252/198/414 1253/190/412 1254/191/413
f  1255/190/412 1256/198/414 1257/197/415
f  1258/196/416 1259/190/412 1260/197/415
f  1261/190/412 1262/196/416 1263/39/47
f  1264/38/46 1265/192/417 1266/191/413
f  1267/195/418 1268/191/413 1269/192/417
f  1270/191/413 1271/195/418 1272/198/414
f  1273/37/45 1274/192/417 1275/38/46
f  1276/192/417 1277/37/45 1278/193/419
f  1279/194/420 1280/192/417 1281/193/419
f  1282/192/417 1283/194/420 1284/195/418
f  1285/235/421 1286/236/422 1287/237/423
f  1288/236/422 1289/235/421 1290/238/424
f  1291/238/424 1292/239/425 1293/236/422
f  1294/237/423 1295/236/422 1296/239/425
f  1297/239/425 1298/240/426 1299/237/423
f  1300/240/426 1301/239/425 1302/241/427
f  1303/242/428 1304/240/426 1305/241/427
f  1306/240/426 1307/242/428 1308/243/429
f  1309/244/430 1310/243/429 1311/242/428
f  1312/244/430 1313/245/431 1314/243/429
f  1315/239/425 1316/238/424 1317/246/432
f  1318/246/432 1319/241/427 1320/239/425
f  1321/241/427 1322/246/432 1323/247/433
f  1324/248/434 1325/241/427 1326/247/433
f  1327/241/427 1328/248/434 1329/242/428
f  1330/249/435 1331/242/428 1332/248/434
f  1333/242/428 1334/249/435 1335/244/430
f  1336/245/431 1337/244/430 1338/249/435
f  1339/250/436 1340/251/437 1341/252/438
f  1342/251/437 1343/250/436 1344/253/439
f  1345/253/439 1346/254/440 1347/251/437
f  1348/254/440 1349/255/441 1350/251/437
f  1351/255/441 1352/256/442 1353/251/437
f  1354/256/442 1355/257/443 1356/251/437
f  1357/258/444 1358/251/437 1359/257/443
f  1360/251/437 1361/258/444 1362/252/438
f  1363/250/436 1364/259/445 1365/253/439
f  1366/259/445 1367/250/436 1368/260/446
f  1369/261/447 1370/259/445 1371/260/446
f  1372/261/447 1373/260/446 1374/254/440
f  1375/254/440 1376/260/446 1377/255/441
f  1378/262/448 1379/258/444 1380/257/443
f  1381/258/444 1382/262/448 1383/263/449
f  1384/263/449 1385/262/448 1386/264/450
f  1387/263/449 1388/264/450 1389/256/442
f  1390/263/449 1391/256/442 1392/255/441
f  1393/265/451 1394/266/452 1395/267/453
f  1396/266/452 1397/265/451 1398/268/454
f  1399/269/455 1400/266/452 1401/268/454
f  1402/266/452 1403/269/455 1404/270/456
f  1405/270/456 1406/269/455 1407/271/457
f  1408/270/456 1409/271/457 1410/272/458
f  1411/273/459 1412/265/451 1413/267/453
f  1414/265/451 1415/273/459 1416/274/460
f  1417/275/461 1418/265/451 1419/274/460
f  1420/265/451 1421/275/461 1422/276/462
f  1423/277/463 1424/265/451 1425/276/462
f  1426/265/451 1427/277/463 1428/268/454
f  1429/273/459 1430/278/464 1431/274/460
f  1432/278/464 1433/273/459 1434/279/465
f  1435/280/466 1436/278/464 1437/279/465
f  1438/280/466 1439/279/465 1440/272/458
f  1441/272/458 1442/275/461 1443/280/466
f  1444/275/461 1445/272/458 1446/276/462
f  1447/272/458 1448/277/463 1449/276/462
f  1450/277/463 1451/272/458 1452/271/457

