# File produced by Open Asset Import Library (http://www.assimp.sf.net)
# (assimp v6.0.0)

mtllib ship16b.mtl

# 1539 vertex positions
v -27.6783009 0.553800702 -14.8590012
v 0 -2.88990188 37.3074036
v 0 4.04819822 37.6623001
v 0 -2.88990188 37.3074036
v -27.6783009 0.553800702 -14.8590012
v -26.7150002 -6.27899981 -15.6000013
v -20.2800007 0.920401573 -34.3161011
v -26.7150002 -6.27899981 -15.6000013
v -27.6783009 0.553800702 -14.8590012
v -26.7150002 -6.27899981 -15.6000013
v -20.2800007 0.920401573 -34.3161011
v -19.1958008 -6.76259899 -35.146801
v 0 3.12390256 -58.0436974
v -19.1958008 -6.76259899 -35.146801
v -20.2800007 0.920401573 -34.3161011
v -19.1958008 -6.76259899 -35.146801
v 0 3.12390256 -58.0436974
v 0 -3.82199764 -58.4025002
v -3.33840013 -18.8760014 14.1530991
v -1.75500023 -31.9800014 37.0499992
v -3.04200029 -23.7900028 50.2086029
v -1.75500023 -31.9800014 37.0499992
v -3.33840013 -18.8760014 14.1530991
v -1.75500023 -34.3200035 15.2099981
v -3.33840013 -18.8760014 14.1530991
v -1.75500023 -22.8150005 -9.26250172
v -1.75500023 -34.3200035 15.2099981
v -1.75500023 -22.8150005 -9.26250172
v -3.33840013 -18.8760014 14.1530991
v -3.51000047 -15.9900007 -7.02000093
v -3.51000047 -15.9900007 -7.02000093
v -1.75500023 -18.294899 -39.9633064
v -1.75500023 -22.8150005 -9.26250172
v -1.75500023 -18.294899 -39.9633064
v -3.51000047 -15.9900007 -7.02000093
v -3.51000047 -7.37099695 -66.6900024
v -1.18950009 -17.655302 50.5517998
v -20.9820004 -6.95370197 39.8541031
v -1.88760006 -19.0125027 52.1585999
v -20.9820004 -6.95370197 39.8541031
v -1.18950009 -17.655302 50.5517998
v -20.1240005 -6.03330183 38.2590027
v -20.1240005 -6.03330183 38.2590027
v -23.1855011 -5.70180178 39.113102
v -20.9820004 -6.95370197 39.8541031
v -23.1855011 -5.70180178 39.113102
v -20.1240005 -6.03330183 38.2590027
v -22.226099 -4.7424016 36.894001
v -25.0184994 -4.55130196 37.8924026
v -23.1855011 -5.70180178 39.113102
v -22.226099 -4.7424016 36.894001
v -23.1855011 -5.70180178 39.113102
v -25.0184994 -4.55130196 37.8924026
v -25.1393986 -5.32740211 39.1559982
v -41.8431053 -5.03100204 43.1378975
v -25.1393986 -5.32740211 39.1559982
v -25.0184994 -4.55130196 37.8924026
v -25.1393986 -5.32740211 39.1559982
v -41.8431053 -5.03100204 43.1378975
v -41.3361053 -5.46000242 43.9491005
v -1.85640001 -16.6452026 45.4622993
v -20.1240005 -6.03330183 38.2590027
v -1.18950009 -17.655302 50.5517998
v -20.1240005 -6.03330183 38.2590027
v -1.85640001 -16.6452026 45.4622993
v -20.0772018 -4.97640133 33.4035034
v -20.0772018 -4.97640133 33.4035034
v -22.226099 -4.7424016 36.894001
v -20.1240005 -6.03330183 38.2590027
v -22.226099 -4.7424016 36.894001
v -20.0772018 -4.97640133 33.4035034
v -21.9570007 -4.14960146 32.1203995
v -22.226099 -4.7424016 36.894001
v -21.9570007 -4.14960146 32.1203995
v -25.0184994 -4.55130196 37.8924026
v -43.3641014 -4.59810209 40.7004013
v -25.0184994 -4.55130196 37.8924026
v -21.9570007 -4.14960146 32.1203995
v -25.0184994 -4.55130196 37.8924026
v -43.3641014 -4.59810209 40.7004013
v -41.8431053 -5.03100204 43.1378975
v -3.21750021 -15.8262024 38.4423027
v -20.0772018 -4.97640133 33.4035034
v -1.85640001 -16.6452026 45.4622993
v -20.0772018 -4.97640133 33.4035034
v -3.21750021 -15.8262024 38.4423027
v -20.0849991 -4.58250141 26.8241997
v -20.0849991 -4.58250141 26.8241997
v -21.9570007 -4.14960146 32.1203995
v -20.0772018 -4.97640133 33.4035034
v -21.9570007 -4.14960146 32.1203995
v -20.0849991 -4.58250141 26.8241997
v -21.8946018 -3.841501 25.5215988
v -45.3921013 -4.27050161 37.4556007
v -21.9570007 -4.14960146 32.1203995
v -21.8946018 -3.841501 25.5215988
v -21.9570007 -4.14960146 32.1203995
v -45.3921013 -4.27050161 37.4556007
v -43.3641014 -4.59810209 40.7004013
v -4.60980034 -15.0306015 31.0635033
v -20.0849991 -4.58250141 26.8241997
v -3.21750021 -15.8262024 38.4423027
v -20.0849991 -4.58250141 26.8241997
v -4.60980034 -15.0306015 31.0635033
v -20.2215004 -4.64100122 19.9992008
v -20.0849991 -4.58250141 26.8241997
v -20.2215004 -4.64100122 19.9992008
v -21.8946018 -3.841501 25.5215988
v -20.2215004 -4.64100122 19.9992008
v -21.9765015 -4.0131011 18.9891014
v -21.8946018 -3.841501 25.5215988
v -21.9765015 -4.0131011 18.9891014
v -25.467001 -3.53340077 20.7207012
v -21.8946018 -3.841501 25.5215988
v -25.467001 -3.53340077 20.7207012
v -45.3921013 -4.27050161 37.4556007
v -21.8946018 -3.841501 25.5215988
v -45.3921013 -4.27050161 37.4556007
v -25.467001 -3.53340077 20.7207012
v -47.4201012 -4.16130209 34.2068977
v -25.467001 -3.53340077 20.7207012
v -48.9411011 -4.48500156 31.7733021
v -47.4201012 -4.16130209 34.2068977
v -6.16200066 -15.0228024 25.5021019
v -20.2215004 -4.64100122 19.9992008
v -4.60980034 -15.0306015 31.0635033
v -20.2215004 -4.64100122 19.9992008
v -6.16200066 -15.0228024 25.5021019
v -20.0226002 -6.09180117 16.1576996
v -20.0226002 -6.09180117 16.1576996
v -21.9765015 -4.0131011 18.9891014
v -20.2215004 -4.64100122 19.9992008
v -21.9765015 -4.0131011 18.9891014
v -20.0226002 -6.09180117 16.1576996
v -22.5966015 -5.03880072 15.0852003
v -27.2687988 -4.35630083 17.4213009
v -21.9765015 -4.0131011 18.9891014
v -22.5966015 -5.03880072 15.0852003
v -21.9765015 -4.0131011 18.9891014
v -27.2687988 -4.35630083 17.4213009
v -25.467001 -3.53340077 20.7207012
v -48.9411011 -4.48500156 31.7733021
v -25.467001 -3.53340077 20.7207012
v -27.2687988 -4.35630083 17.4213009
v -28.0839024 -6.11130095 16.7349014
v -48.9411011 -4.48500156 31.7733021
v -27.2687988 -4.35630083 17.4213009
v -48.9411011 -4.48500156 31.7733021
v -28.0839024 -6.11130095 16.7349014
v -49.448101 -5.46000147 30.9620991
v -8.01840019 -16.5477009 23.9342995
v -20.0226002 -6.09180117 16.1576996
v -6.16200066 -15.0228024 25.5021019
v -20.0226002 -6.09180117 16.1576996
v -8.01840019 -16.5477009 23.9342995
v -21.5046005 -7.8468008 15.6858006
v -21.5046005 -7.8468008 15.6858006
v -22.5966015 -5.03880072 15.0852003
v -20.0226002 -6.09180117 16.1576996
v -22.5966015 -5.03880072 15.0852003
v -21.5046005 -7.8468008 15.6858006
v -23.4624004 -6.29460096 14.7654009
v -23.4624004 -6.29460096 14.7654009
v -27.2687988 -4.35630083 17.4213009
v -22.5966015 -5.03880072 15.0852003
v -27.2687988 -4.35630083 17.4213009
v -23.4624004 -6.29460096 14.7654009
v -28.0839024 -6.11130095 16.7349014
v 20.9820004 -6.95370197 39.8541031
v 1.18950009 -17.655302 50.5517998
v 1.88760006 -19.0125027 52.1585999
v 1.18950009 -17.655302 50.5517998
v 20.9820004 -6.95370197 39.8541031
v 20.1240005 -6.03330183 38.2590027
v 20.1240005 -6.03330183 38.2590027
v 1.85640001 -16.6452026 45.4622993
v 1.18950009 -17.655302 50.5517998
v 1.85640001 -16.6452026 45.4622993
v 20.1240005 -6.03330183 38.2590027
v 20.0772018 -4.97640133 33.4035034
v 20.0772018 -4.97640133 33.4035034
v 3.21750021 -15.8262024 38.4423027
v 1.85640001 -16.6452026 45.4622993
v 3.21750021 -15.8262024 38.4423027
v 20.0772018 -4.97640133 33.4035034
v 20.0849991 -4.58250141 26.8241997
v 20.0849991 -4.58250141 26.8241997
v 4.60980034 -15.0306015 31.0635033
v 3.21750021 -15.8262024 38.4423027
v 23.1855011 -5.70180178 39.113102
v 20.1240005 -6.03330183 38.2590027
v 20.9820004 -6.95370197 39.8541031
v 20.1240005 -6.03330183 38.2590027
v 23.1855011 -5.70180178 39.113102
v 22.226099 -4.7424016 36.894001
v 22.226099 -4.7424016 36.894001
v 20.0772018 -4.97640133 33.4035034
v 20.1240005 -6.03330183 38.2590027
v 20.0772018 -4.97640133 33.4035034
v 22.226099 -4.7424016 36.894001
v 21.9570007 -4.14960146 32.1203995
v 21.9570007 -4.14960146 32.1203995
v 20.0849991 -4.58250141 26.8241997
v 20.0772018 -4.97640133 33.4035034
v 20.0849991 -4.58250141 26.8241997
v 21.9570007 -4.14960146 32.1203995
v 21.8946018 -3.841501 25.5215988
v 20.2215004 -4.64100122 19.9992008
v 20.0849991 -4.58250141 26.8241997
v 21.8946018 -3.841501 25.5215988
v 4.60980034 -15.0306015 31.0635033
v 20.0849991 -4.58250141 26.8241997
v 20.2215004 -4.64100122 19.9992008
v 20.2215004 -4.64100122 19.9992008
v 6.16200066 -15.0228024 25.5021019
v 4.60980034 -15.0306015 31.0635033
v 6.16200066 -15.0228024 25.5021019
v 20.2215004 -4.64100122 19.9992008
v 20.0226002 -6.09180117 16.1576996
v 20.0226002 -6.09180117 16.1576996
v 8.01840019 -16.5477009 23.9342995
v 6.16200066 -15.0228024 25.5021019
v 23.1855011 -5.70180178 39.113102
v 25.0184994 -4.55130196 37.8924026
v 22.226099 -4.7424016 36.894001
v 21.9570007 -4.14960146 32.1203995
v 22.226099 -4.7424016 36.894001
v 25.0184994 -4.55130196 37.8924026
v 25.0184994 -4.55130196 37.8924026
v 43.3641014 -4.59810209 40.7004013
v 21.9570007 -4.14960146 32.1203995
v 45.3921013 -4.27050161 37.4556007
v 21.9570007 -4.14960146 32.1203995
v 43.3641014 -4.59810209 40.7004013
v 21.9570007 -4.14960146 32.1203995
v 45.3921013 -4.27050161 37.4556007
v 21.8946018 -3.841501 25.5215988
v 45.3921013 -4.27050161 37.4556007
v 25.467001 -3.53340077 20.7207012
v 21.8946018 -3.841501 25.5215988
v 25.467001 -3.53340077 20.7207012
v 21.9765015 -4.0131011 18.9891014
v 21.8946018 -3.841501 25.5215988
v 21.9765015 -4.0131011 18.9891014
v 20.2215004 -4.64100122 19.9992008
v 21.8946018 -3.841501 25.5215988
v 21.9765015 -4.0131011 18.9891014
v 20.0226002 -6.09180117 16.1576996
v 20.2215004 -4.64100122 19.9992008
v 25.0184994 -4.55130196 37.8924026
v 23.1855011 -5.70180178 39.113102
v 25.1393986 -5.32740211 39.1559982
v 25.1393986 -5.32740211 39.1559982
v 41.8431053 -5.03100204 43.1378975
v 25.0184994 -4.55130196 37.8924026
v 43.3641014 -4.59810209 40.7004013
v 25.0184994 -4.55130196 37.8924026
v 41.8431053 -5.03100204 43.1378975
v 41.8431053 -5.03100204 43.1378975
v 25.1393986 -5.32740211 39.1559982
v 41.3361053 -5.46000242 43.9491005
v 25.467001 -3.53340077 20.7207012
v 45.3921013 -4.27050161 37.4556007
v 47.4201012 -4.16130209 34.2068977
v 48.9411011 -4.48500156 31.7733021
v 25.467001 -3.53340077 20.7207012
v 47.4201012 -4.16130209 34.2068977
v 25.467001 -3.53340077 20.7207012
v 48.9411011 -4.48500156 31.7733021
v 27.2687988 -4.35630083 17.4213009
v 27.2687988 -4.35630083 17.4213009
v 21.9765015 -4.0131011 18.9891014
v 25.467001 -3.53340077 20.7207012
v 21.9765015 -4.0131011 18.9891014
v 27.2687988 -4.35630083 17.4213009
v 22.5966015 -5.03880072 15.0852003
v 20.0226002 -6.09180117 16.1576996
v 21.9765015 -4.0131011 18.9891014
v 22.5966015 -5.03880072 15.0852003
v 22.5966015 -5.03880072 15.0852003
v 21.5046005 -7.8468008 15.6858006
v 20.0226002 -6.09180117 16.1576996
v 8.01840019 -16.5477009 23.9342995
v 20.0226002 -6.09180117 16.1576996
v 21.5046005 -7.8468008 15.6858006
v 48.9411011 -4.48500156 31.7733021
v 28.0839024 -6.11130095 16.7349014
v 27.2687988 -4.35630083 17.4213009
v 23.4624004 -6.29460096 14.7654009
v 27.2687988 -4.35630083 17.4213009
v 28.0839024 -6.11130095 16.7349014
v 27.2687988 -4.35630083 17.4213009
v 23.4624004 -6.29460096 14.7654009
v 22.5966015 -5.03880072 15.0852003
v 21.5046005 -7.8468008 15.6858006
v 22.5966015 -5.03880072 15.0852003
v 23.4624004 -6.29460096 14.7654009
v 28.0839024 -6.11130095 16.7349014
v 48.9411011 -4.48500156 31.7733021
v 49.448101 -5.46000147 30.9620991
v -27.6783009 0.553800702 -14.8590012
v 0 3.12390256 -58.0436974
v -20.2800007 0.920401573 -34.3161011
v 0 3.12390256 -58.0436974
v -27.6783009 0.553800702 -14.8590012
v 0 4.04819822 37.6623001
v 27.6783009 0.553800702 -14.8590012
v 0 3.12390256 -58.0436974
v 0 4.04819822 37.6623001
v 0 3.12390256 -58.0436974
v 27.6783009 0.553800702 -14.8590012
v 20.2800007 0.920401573 -34.3161011
v 3.11999989 -24.1956024 50.8911057
v 0 -18.2091026 51.8622017
v 0 -25.2096024 50.8911057
v 0 -18.2091026 51.8622017
v 3.11999989 -24.1956024 50.8911057
v 3.11999989 -17.2731018 51.8622017
v 36.2700005 -5.14409971 -16.1420994
v 3.11999989 -17.2731018 51.8622017
v 3.11999989 -24.1956024 50.8911057
v 3.11999989 -17.2731018 51.8622017
v 36.2700005 -5.14409971 -16.1420994
v 36.2700005 2.19570088 -15.1085997
v 36.2700005 -5.14409971 -16.1420994
v 18.7200012 2.57790232 -52.864502
v 36.2700005 2.19570088 -15.1085997
v 18.7200012 2.57790232 -52.864502
v 36.2700005 -5.14409971 -16.1420994
v 18.7200012 -4.75799799 -53.8941002
v 18.7200012 -4.75799799 -53.8941002
v 3.11999989 -0.666897118 -66.3156052
v 18.7200012 2.57790232 -52.864502
v 3.11999989 -0.666897118 -66.3156052
v 18.7200012 -4.75799799 -53.8941002
v 3.11999989 -7.58939743 -67.2906036
v 3.11999989 -7.58939743 -67.2906036
v 0 -1.79789734 -66.3156052
v 3.11999989 -0.666897118 -66.3156052
v 0 -1.79789734 -66.3156052
v 3.11999989 -7.58939743 -67.2906036
v 0 -8.60339737 -67.2906036
v 3.51000047 -15.9900007 -7.02000093
v 1.75500023 -18.294899 -39.9633064
v 3.51000047 -7.37099695 -66.6900024
v 1.75500023 -18.294899 -39.9633064
v 3.51000047 -15.9900007 -7.02000093
v 1.75500023 -22.8150005 -9.26250172
v 3.33840013 -18.8760014 14.1530991
v 1.75500023 -22.8150005 -9.26250172
v 3.51000047 -15.9900007 -7.02000093
v 1.75500023 -22.8150005 -9.26250172
v 3.33840013 -18.8760014 14.1530991
v 1.75500023 -34.3200035 15.2099981
v 3.33840013 -18.8760014 14.1530991
v 1.75500023 -31.9800014 37.0499992
v 1.75500023 -34.3200035 15.2099981
v 1.75500023 -31.9800014 37.0499992
v 3.33840013 -18.8760014 14.1530991
v 3.04200029 -23.7900028 50.2086029
v -3.11999989 -7.58939743 -67.2906036
v 0 -1.79789734 -66.3156052
v 0 -8.60339737 -67.2906036
v 0 -1.79789734 -66.3156052
v -3.11999989 -7.58939743 -67.2906036
v -3.11999989 -0.666897118 -66.3156052
v -18.7200012 -4.75799799 -53.8941002
v -3.11999989 -0.666897118 -66.3156052
v -3.11999989 -7.58939743 -67.2906036
v -3.11999989 -0.666897118 -66.3156052
v -18.7200012 -4.75799799 -53.8941002
v -18.7200012 2.57790232 -52.864502
v -36.2700005 -5.14409971 -16.1420994
v -18.7200012 2.57790232 -52.864502
v -18.7200012 -4.75799799 -53.8941002
v -18.7200012 2.57790232 -52.864502
v -36.2700005 -5.14409971 -16.1420994
v -36.2700005 2.19570088 -15.1085997
v -36.2700005 -5.14409971 -16.1420994
v -3.11999989 -17.2731018 51.8622017
v -36.2700005 2.19570088 -15.1085997
v -3.11999989 -17.2731018 51.8622017
v -36.2700005 -5.14409971 -16.1420994
v -3.11999989 -24.1956024 50.8911057
v -3.11999989 -24.1956024 50.8911057
v 0 -18.2091026 51.8622017
v -3.11999989 -17.2731018 51.8622017
v 0 -18.2091026 51.8622017
v -3.11999989 -24.1956024 50.8911057
v 0 -25.2096024 50.8911057
v -39.479702 8.45520306 -59.3579979
v -84.2361069 9.2820015 -26.0988026
v -84.2868042 9.8163023 -26.1027031
v -84.2868042 9.8163023 -26.1027031
v -38.8829994 9.24690247 -59.459404
v -39.479702 8.45520306 -59.3579979
v -34.971302 9.24300289 -61.4874001
v -39.479702 8.45520306 -59.3579979
v -38.8829994 9.24690247 -59.459404
v -39.479702 8.45520306 -59.3579979
v -34.971302 9.24300289 -61.4874001
v -34.6944008 8.0262022 -62.0841026
v -34.6944008 8.0262022 -62.0841026
v -34.971302 9.24300289 -61.4874001
v -32.6118011 8.45520306 -62.2206001
v -34.971302 9.24300289 -61.4874001
v -32.6001015 9.52380276 -60.3446999
v -32.6118011 8.45520306 -62.2206001
v -32.6001015 9.52380276 -60.3446999
v -29.6010017 7.08240318 -60.8907013
v -32.6118011 8.45520306 -62.2206001
v -84.2868042 9.8163023 -26.1027031
v -39.8306999 10.3311024 -56.8073959
v -38.8829994 9.24690247 -59.459404
v -34.971302 9.24300289 -61.4874001
v -38.8829994 9.24690247 -59.459404
v -39.8306999 10.3311024 -56.8073959
v -39.8306999 10.3311024 -56.8073959
v -36.8433037 10.6899033 -56.7372017
v -34.971302 9.24300289 -61.4874001
v -32.6001015 9.52380276 -60.3446999
v -34.971302 9.24300289 -61.4874001
v -36.8433037 10.6899033 -56.7372017
v -32.1789017 9.80850315 -56.8893013
v -32.6001015 9.52380276 -60.3446999
v -36.8433037 10.6899033 -56.7372017
v -29.7765007 8.12760258 -59.5530014
v -32.6001015 9.52380276 -60.3446999
v -32.1789017 9.80850315 -56.8893013
v -29.6010017 7.08240318 -60.8907013
v -32.6001015 9.52380276 -60.3446999
v -29.7765007 8.12760258 -59.5530014
v -29.7765007 8.12760258 -59.5530014
v -12.5346003 -3.61529803 -45.708004
v -29.6010017 7.08240318 -60.8907013
v -12.5346003 -3.61529803 -45.708004
v -29.7765007 8.12760258 -59.5530014
v -11.9301004 -2.34779811 -42.4631996
v -39.8306999 10.3311024 -56.8073959
v -84.2868042 9.8163023 -26.1027031
v -83.7252045 10.3545017 -25.1588993
v -82.3172989 10.6821012 -22.7720985
v -39.8306999 10.3311024 -56.8073959
v -83.7252045 10.3545017 -25.1588993
v -39.8306999 10.3311024 -56.8073959
v -82.3172989 10.6821012 -22.7720985
v -36.8433037 10.6899033 -56.7372017
v -36.8433037 10.6899033 -56.7372017
v -82.3172989 10.6821012 -22.7720985
v -56.9400063 11.0370016 -37.0227013
v -56.9400063 11.0370016 -37.0227013
v -44.1207008 11.2281027 -45.9068985
v -36.8433037 10.6899033 -56.7372017
v -37.1280022 10.5261021 -47.1977997
v -36.8433037 10.6899033 -56.7372017
v -44.1207008 11.2281027 -45.9068985
v -32.1789017 9.80850315 -56.8893013
v -36.8433037 10.6899033 -56.7372017
v -37.1280022 10.5261021 -47.1977997
v -37.1280022 10.5261021 -47.1977997
v -31.9527016 8.34990311 -45.770401
v -32.1789017 9.80850315 -56.8893013
v -31.9527016 8.34990311 -45.770401
v -12.9830999 -2.50769877 -31.4496002
v -32.1789017 9.80850315 -56.8893013
v -11.9301004 -2.34779811 -42.4631996
v -32.1789017 9.80850315 -56.8893013
v -12.9830999 -2.50769877 -31.4496002
v -32.1789017 9.80850315 -56.8893013
v -11.9301004 -2.34779811 -42.4631996
v -29.7765007 8.12760258 -59.5530014
v -72.7584 10.8810024 -24.9093018
v -56.9400063 11.0370016 -37.0227013
v -82.3172989 10.6821012 -22.7720985
v -75.2661057 10.3935013 -11.5518007
v -72.7584 10.8810024 -24.9093018
v -82.3172989 10.6821012 -22.7720985
v -72.7584 10.8810024 -24.9093018
v -75.2661057 10.3935013 -11.5518007
v -67.8678055 10.518301 -15.6273003
v -67.8678055 10.518301 -15.6273003
v -75.2661057 10.3935013 -11.5518007
v -72.7584 9.96060085 -7.28130007
v -72.7584 9.96060085 -7.28130007
v -53.1804008 10.8693008 -24.4491024
v -67.8678055 10.518301 -15.6273003
v -53.8902016 10.151701 -16.6842003
v -53.1804008 10.8693008 -24.4491024
v -72.7584 9.96060085 -7.28130007
v -46.1838036 10.0269012 -24.7182007
v -53.1804008 10.8693008 -24.4491024
v -53.8902016 10.151701 -16.6842003
v -46.1838036 10.0269012 -24.7182007
v -37.1280022 10.5261021 -47.1977997
v -53.1804008 10.8693008 -24.4491024
v -37.1280022 10.5261021 -47.1977997
v -44.1207008 11.2281027 -45.9068985
v -53.1804008 10.8693008 -24.4491024
v -56.6709023 9.17670155 -13.0572004
v -53.8902016 10.151701 -16.6842003
v -72.7584 9.96060085 -7.28130007
v -53.8902016 10.151701 -16.6842003
v -56.6709023 9.17670155 -13.0572004
v -51.2967033 9.30540085 -15.0189009
v -53.8902016 10.151701 -16.6842003
v -51.2967033 9.30540085 -15.0189009
v -47.9309998 9.17670155 -17.4251995
v -47.9309998 9.17670155 -17.4251995
v -46.1838036 10.0269012 -24.7182007
v -53.8902016 10.151701 -16.6842003
v -39.5148048 7.44900179 -24.1956005
v -46.1838036 10.0269012 -24.7182007
v -47.9309998 9.17670155 -17.4251995
v -39.5148048 7.44900179 -24.1956005
v -37.1280022 10.5261021 -47.1977997
v -46.1838036 10.0269012 -24.7182007
v -37.1280022 10.5261021 -47.1977997
v -39.5148048 7.44900179 -24.1956005
v -31.9527016 8.34990311 -45.770401
v -39.5148048 7.44900179 -24.1956005
v -12.9830999 -2.50769877 -31.4496002
v -31.9527016 8.34990311 -45.770401
v -56.6709023 9.17670155 -13.0572004
v -72.7584 9.96060085 -7.28130007
v -72.2982025 9.60960102 -6.7001996
v -12.9830999 -2.50769877 -31.4496002
v -39.5148048 7.44900179 -24.1956005
v -17.6201992 -5.76029968 -4.43040037
v -39.5148048 7.44900179 -24.1956005
v -47.9309998 9.17670155 -17.4251995
v -17.6201992 -5.76029968 -4.43040037
v -17.6201992 -5.76029968 -4.43040037
v -47.9309998 9.17670155 -17.4251995
v -20.3072987 -7.76490116 6.73139954
v -51.2967033 9.30540085 -15.0189009
v -20.3072987 -7.76490116 6.73139954
v -47.9309998 9.17670155 -17.4251995
v -20.3072987 -7.76490116 6.73139954
v -51.2967033 9.30540085 -15.0189009
v -22.3860016 -9.42240143 9.10650063
v -51.2967033 9.30540085 -15.0189009
v -48.5783997 6.87180042 -11.9534998
v -22.3860016 -9.42240143 9.10650063
v -48.5783997 6.87180042 -11.9534998
v -51.2967033 9.30540085 -15.0189009
v -52.3458061 8.47470093 -13.6383009
v -52.3458061 8.47470093 -13.6383009
v -51.2967033 9.30540085 -15.0189009
v -56.6709023 9.17670155 -13.0572004
v -13.3380003 -4.73849821 -45.9420013
v -29.6010017 7.08240318 -60.8907013
v -12.5346003 -3.61529803 -45.708004
v -29.6010017 7.08240318 -60.8907013
v -13.3380003 -4.73849821 -45.9420013
v -31.3325996 6.99270248 -61.783802
v -31.3325996 6.99270248 -61.783802
v -32.6118011 8.45520306 -62.2206001
v -29.6010017 7.08240318 -60.8907013
v -32.6118011 8.45520306 -62.2206001
v -31.3325996 6.99270248 -61.783802
v -34.6944008 8.0262022 -62.0841026
v -31.8708019 6.08790302 -60.516304
v -34.6944008 8.0262022 -62.0841026
v -31.3325996 6.99270248 -61.783802
v -34.6944008 8.0262022 -62.0841026
v -31.8708019 6.08790302 -60.516304
v -37.1357994 7.40220308 -59.826004
v -37.1357994 7.40220308 -59.826004
v -39.479702 8.45520306 -59.3579979
v -34.6944008 8.0262022 -62.0841026
v -39.479702 8.45520306 -59.3579979
v -37.1357994 7.40220308 -59.826004
v -84.2361069 9.2820015 -26.0988026
v -13.3380003 -4.73849821 -45.9420013
v -31.8708019 6.08790302 -60.516304
v -31.3325996 6.99270248 -61.783802
v -31.8708019 6.08790302 -60.516304
v -13.3380003 -4.73849821 -45.9420013
v -14.4846001 -6.00209808 -44.1675034
v -34.7490005 6.4350028 -59.2565994
v -31.8708019 6.08790302 -60.516304
v -14.4846001 -6.00209808 -44.1675034
v -34.7490005 6.4350028 -59.2565994
v -37.1357994 7.40220308 -59.826004
v -31.8708019 6.08790302 -60.516304
v -40.2129021 6.94590282 -53.8902016
v -37.1357994 7.40220308 -59.826004
v -34.7490005 6.4350028 -59.2565994
v -40.2129021 6.94590282 -53.8902016
v -83.8461075 8.75550175 -25.2564011
v -37.1357994 7.40220308 -59.826004
v -83.8461075 8.75550175 -25.2564011
v -84.2361069 9.2820015 -26.0988026
v -37.1357994 7.40220308 -59.826004
v -34.7490005 6.4350028 -59.2565994
v -14.4846001 -6.00209808 -44.1675034
v -16.3995018 -7.56599903 -37.6467018
v -16.3995018 -7.56599903 -37.6467018
v -36.1529999 4.35240221 -47.8256989
v -34.7490005 6.4350028 -59.2565994
v -39.7098045 6.18930244 -49.5339012
v -34.7490005 6.4350028 -59.2565994
v -36.1529999 4.35240221 -47.8256989
v -39.7098045 6.18930244 -49.5339012
v -40.2129021 6.94590282 -53.8902016
v -34.7490005 6.4350028 -59.2565994
v -40.2129021 6.94590282 -53.8902016
v -39.7098045 6.18930244 -49.5339012
v -43.1690979 6.89910269 -48.7890053
v -40.2129021 6.94590282 -53.8902016
v -43.1690979 6.89910269 -48.7890053
v -65.7813034 7.72980213 -33.1500015
v -83.8461075 8.75550175 -25.2564011
v -40.2129021 6.94590282 -53.8902016
v -65.7813034 7.72980213 -33.1500015
v -83.8461075 8.75550175 -25.2564011
v -65.7813034 7.72980213 -33.1500015
v -77.2746048 8.21340179 -24.3789005
v -77.2746048 8.21340179 -24.3789005
v -81.5802078 8.38500214 -21.7229996
v -83.8461075 8.75550175 -25.2564011
v -36.1529999 4.35240221 -47.8256989
v -16.3995018 -7.56599903 -37.6467018
v -21.3290997 -9.87479973 -10.9278011
v -21.3290997 -9.87479973 -10.9278011
v -45.7470016 5.45610142 -26.3289032
v -36.1529999 4.35240221 -47.8256989
v -36.1529999 4.35240221 -47.8256989
v -45.7470016 5.45610142 -26.3289032
v -39.7098045 6.18930244 -49.5339012
v -39.7098045 6.18930244 -49.5339012
v -45.7470016 5.45610142 -26.3289032
v -49.0854034 6.8679018 -27.7797012
v -49.0854034 6.8679018 -27.7797012
v -43.1690979 6.89910269 -48.7890053
v -39.7098045 6.18930244 -49.5339012
v -43.1690979 6.89910269 -48.7890053
v -49.0854034 6.8679018 -27.7797012
v -52.9190979 7.4997015 -24.1410027
v -53.145298 7.55040121 -17.5500011
v -52.9190979 7.4997015 -24.1410027
v -49.0854034 6.8679018 -27.7797012
v -53.145298 7.55040121 -17.5500011
v -60.2861977 8.38500118 -13.7045994
v -52.9190979 7.4997015 -24.1410027
v -71.2842026 8.50980091 -13.3926001
v -52.9190979 7.4997015 -24.1410027
v -60.2861977 8.38500118 -13.7045994
v -45.7470016 5.45610142 -26.3289032
v -21.3290997 -9.87479973 -10.9278011
v -48.3483009 5.76030111 -17.5695019
v -48.3483009 5.76030111 -17.5695019
v -49.0854034 6.8679018 -27.7797012
v -45.7470016 5.45610142 -26.3289032
v -49.0854034 6.8679018 -27.7797012
v -48.3483009 5.76030111 -17.5695019
v -53.145298 7.55040121 -17.5500011
v -53.145298 7.55040121 -17.5500011
v -48.3483009 5.76030111 -17.5695019
v -51.5424004 7.32810116 -15.3348007
v -54.1203003 8.38500118 -14.1297007
v -53.145298 7.55040121 -17.5500011
v -51.5424004 7.32810116 -15.3348007
v -54.1203003 8.38500118 -14.1297007
v -60.2861977 8.38500118 -13.7045994
v -53.145298 7.55040121 -17.5500011
v -60.2861977 8.38500118 -13.7045994
v -54.1203003 8.38500118 -14.1297007
v -56.6709023 9.17670155 -13.0572004
v -56.6709023 9.17670155 -13.0572004
v -72.4893036 9.33270073 -6.84060001
v -60.2861977 8.38500118 -13.7045994
v -72.4893036 9.33270073 -6.84060001
v -73.8621063 8.87639999 -9.08699989
v -60.2861977 8.38500118 -13.7045994
v -73.8621063 8.87639999 -9.08699989
v -71.2842026 8.50980091 -13.3926001
v -60.2861977 8.38500118 -13.7045994
v -48.3483009 5.76030111 -17.5695019
v -21.3290997 -9.87479973 -10.9278011
v -23.3025017 -10.4754 3.36569977
v -23.3025017 -10.4754 3.36569977
v -48.4341011 6.03720093 -12.3552008
v -48.3483009 5.76030111 -17.5695019
v -51.5424004 7.32810116 -15.3348007
v -48.3483009 5.76030111 -17.5695019
v -48.4341011 6.03720093 -12.3552008
v -48.4341011 6.03720093 -12.3552008
v -52.3458061 8.47470093 -13.6383009
v -51.5424004 7.32810116 -15.3348007
v -52.3458061 8.47470093 -13.6383009
v -54.1203003 8.38500118 -14.1297007
v -51.5424004 7.32810116 -15.3348007
v -54.1203003 8.38500118 -14.1297007
v -52.3458061 8.47470093 -13.6383009
v -56.6709023 9.17670155 -13.0572004
v -48.4341011 6.03720093 -12.3552008
v -23.3025017 -10.4754 3.36569977
v -22.3860016 -9.42240143 9.10650063
v -48.5783997 6.87180042 -11.9534998
v -48.4341011 6.03720093 -12.3552008
v -22.3860016 -9.42240143 9.10650063
v -52.3458061 8.47470093 -13.6383009
v -48.4341011 6.03720093 -12.3552008
v -48.5783997 6.87180042 -11.9534998
v -72.2982025 9.60960102 -6.7001996
v -72.4893036 9.33270073 -6.84060001
v -56.6709023 9.17670155 -13.0572004
v -81.5802078 8.38500214 -21.7229996
v -71.2842026 8.50980091 -13.3926001
v -73.8621063 8.87639999 -9.08699989
v -71.2842026 8.50980091 -13.3926001
v -81.5802078 8.38500214 -21.7229996
v -77.2746048 8.21340179 -24.3789005
v 0 -3.82199764 -58.4025002
v -26.7150002 -6.27899981 -15.6000013
v -19.1958008 -6.76259899 -35.146801
v -26.7150002 -6.27899981 -15.6000013
v 0 -3.82199764 -58.4025002
v 0 -2.88990188 37.3074036
v 0 -3.82199764 -58.4025002
v 26.7150002 -6.27899981 -15.6000013
v 0 -2.88990188 37.3074036
v 26.7150002 -6.27899981 -15.6000013
v 0 -3.82199764 -58.4025002
v 19.1958008 -6.76259899 -35.146801
v 0 3.12390256 -58.0436974
v 19.1958008 -6.76259899 -35.146801
v 0 -3.82199764 -58.4025002
v 19.1958008 -6.76259899 -35.146801
v 0 3.12390256 -58.0436974
v 20.2800007 0.920401573 -34.3161011
v 20.2800007 0.920401573 -34.3161011
v 26.7150002 -6.27899981 -15.6000013
v 19.1958008 -6.76259899 -35.146801
v 26.7150002 -6.27899981 -15.6000013
v 20.2800007 0.920401573 -34.3161011
v 27.6783009 0.553800702 -14.8590012
v 27.6783009 0.553800702 -14.8590012
v 0 -2.88990188 37.3074036
v 26.7150002 -6.27899981 -15.6000013
v 0 -2.88990188 37.3074036
v 27.6783009 0.553800702 -14.8590012
v 0 4.04819822 37.6623001
v -1.75500023 -31.9800014 37.0499992
v 3.04200029 -23.7900028 50.2086029
v -3.04200029 -23.7900028 50.2086029
v 3.04200029 -23.7900028 50.2086029
v -1.75500023 -31.9800014 37.0499992
v 1.75500023 -31.9800014 37.0499992
v -1.75500023 -34.3200035 15.2099981
v 1.75500023 -31.9800014 37.0499992
v -1.75500023 -31.9800014 37.0499992
v 1.75500023 -31.9800014 37.0499992
v -1.75500023 -34.3200035 15.2099981
v 1.75500023 -34.3200035 15.2099981
v -1.75500023 -34.3200035 15.2099981
v 1.75500023 -22.8150005 -9.26250172
v 1.75500023 -34.3200035 15.2099981
v 1.75500023 -22.8150005 -9.26250172
v -1.75500023 -34.3200035 15.2099981
v -1.75500023 -22.8150005 -9.26250172
v -1.75500023 -18.294899 -39.9633064
v 1.75500023 -22.8150005 -9.26250172
v -1.75500023 -22.8150005 -9.26250172
v 1.75500023 -22.8150005 -9.26250172
v -1.75500023 -18.294899 -39.9633064
v 1.75500023 -18.294899 -39.9633064
v 0 -8.22899723 -66.6900024
v 1.75500023 -18.294899 -39.9633064
v -1.75500023 -18.294899 -39.9633064
v 1.75500023 -18.294899 -39.9633064
v 0 -8.22899723 -66.6900024
v 3.51000047 -7.37099695 -66.6900024
v -3.51000047 -7.37099695 -66.6900024
v 0 -8.22899723 -66.6900024
v -1.75500023 -18.294899 -39.9633064
v 84.2868042 9.8163023 -26.1027031
v 84.2361069 9.2820015 -26.0988026
v 39.479702 8.45520306 -59.3579979
v 39.479702 8.45520306 -59.3579979
v 38.8829994 9.24690247 -59.459404
v 84.2868042 9.8163023 -26.1027031
v 39.8306999 10.3311024 -56.8073959
v 84.2868042 9.8163023 -26.1027031
v 38.8829994 9.24690247 -59.459404
v 84.2868042 9.8163023 -26.1027031
v 39.8306999 10.3311024 -56.8073959
v 83.7252045 10.3545017 -25.1588993
v 39.8306999 10.3311024 -56.8073959
v 82.3172989 10.6821012 -22.7720985
v 83.7252045 10.3545017 -25.1588993
v 39.479702 8.45520306 -59.3579979
v 34.971302 9.24300289 -61.4874001
v 38.8829994 9.24690247 -59.459404
v 38.8829994 9.24690247 -59.459404
v 34.971302 9.24300289 -61.4874001
v 39.8306999 10.3311024 -56.8073959
v 36.8433037 10.6899033 -56.7372017
v 39.8306999 10.3311024 -56.8073959
v 34.971302 9.24300289 -61.4874001
v 82.3172989 10.6821012 -22.7720985
v 39.8306999 10.3311024 -56.8073959
v 36.8433037 10.6899033 -56.7372017
v 82.3172989 10.6821012 -22.7720985
v 36.8433037 10.6899033 -56.7372017
v 56.9400063 11.0370016 -37.0227013
v 56.9400063 11.0370016 -37.0227013
v 72.7584 10.8810024 -24.9093018
v 82.3172989 10.6821012 -22.7720985
v 72.7584 10.8810024 -24.9093018
v 75.2661057 10.3935013 -11.5518007
v 82.3172989 10.6821012 -22.7720985
v 75.2661057 10.3935013 -11.5518007
v 72.7584 10.8810024 -24.9093018
v 67.8678055 10.518301 -15.6273003
v 75.2661057 10.3935013 -11.5518007
v 67.8678055 10.518301 -15.6273003
v 72.7584 9.96060085 -7.28130007
v 34.971302 9.24300289 -61.4874001
v 39.479702 8.45520306 -59.3579979
v 34.6944008 8.0262022 -62.0841026
v 34.971302 9.24300289 -61.4874001
v 34.6944008 8.0262022 -62.0841026
v 32.6118011 8.45520306 -62.2206001
v 32.6001015 9.52380276 -60.3446999
v 34.971302 9.24300289 -61.4874001
v 32.6118011 8.45520306 -62.2206001
v 34.971302 9.24300289 -61.4874001
v 32.6001015 9.52380276 -60.3446999
v 36.8433037 10.6899033 -56.7372017
v 32.6001015 9.52380276 -60.3446999
v 32.1789017 9.80850315 -56.8893013
v 36.8433037 10.6899033 -56.7372017
v 36.8433037 10.6899033 -56.7372017
v 32.1789017 9.80850315 -56.8893013
v 37.1280022 10.5261021 -47.1977997
v 36.8433037 10.6899033 -56.7372017
v 37.1280022 10.5261021 -47.1977997
v 44.1207008 11.2281027 -45.9068985
v 44.1207008 11.2281027 -45.9068985
v 56.9400063 11.0370016 -37.0227013
v 36.8433037 10.6899033 -56.7372017
v 29.6010017 7.08240318 -60.8907013
v 32.6001015 9.52380276 -60.3446999
v 32.6118011 8.45520306 -62.2206001
v 32.6001015 9.52380276 -60.3446999
v 29.6010017 7.08240318 -60.8907013
v 29.7765007 8.12760258 -59.5530014
v 32.6001015 9.52380276 -60.3446999
v 29.7765007 8.12760258 -59.5530014
v 32.1789017 9.80850315 -56.8893013
v 11.9301004 -2.34779811 -42.4631996
v 32.1789017 9.80850315 -56.8893013
v 29.7765007 8.12760258 -59.5530014
v 32.1789017 9.80850315 -56.8893013
v 11.9301004 -2.34779811 -42.4631996
v 12.9830999 -2.50769877 -31.4496002
v 12.9830999 -2.50769877 -31.4496002
v 31.9527016 8.34990311 -45.770401
v 32.1789017 9.80850315 -56.8893013
v 31.9527016 8.34990311 -45.770401
v 37.1280022 10.5261021 -47.1977997
v 32.1789017 9.80850315 -56.8893013
v 12.5346003 -3.61529803 -45.708004
v 29.7765007 8.12760258 -59.5530014
v 29.6010017 7.08240318 -60.8907013
v 29.7765007 8.12760258 -59.5530014
v 12.5346003 -3.61529803 -45.708004
v 11.9301004 -2.34779811 -42.4631996
v 44.1207008 11.2281027 -45.9068985
v 37.1280022 10.5261021 -47.1977997
v 53.1804008 10.8693008 -24.4491024
v 37.1280022 10.5261021 -47.1977997
v 46.1838036 10.0269012 -24.7182007
v 53.1804008 10.8693008 -24.4491024
v 53.1804008 10.8693008 -24.4491024
v 46.1838036 10.0269012 -24.7182007
v 53.8902016 10.151701 -16.6842003
v 53.1804008 10.8693008 -24.4491024
v 53.8902016 10.151701 -16.6842003
v 72.7584 9.96060085 -7.28130007
v 53.1804008 10.8693008 -24.4491024
v 72.7584 9.96060085 -7.28130007
v 67.8678055 10.518301 -15.6273003
v 37.1280022 10.5261021 -47.1977997
v 39.5148048 7.44900179 -24.1956005
v 46.1838036 10.0269012 -24.7182007
v 46.1838036 10.0269012 -24.7182007
v 39.5148048 7.44900179 -24.1956005
v 47.9309998 9.17670155 -17.4251995
v 46.1838036 10.0269012 -24.7182007
v 47.9309998 9.17670155 -17.4251995
v 53.8902016 10.151701 -16.6842003
v 51.2967033 9.30540085 -15.0189009
v 53.8902016 10.151701 -16.6842003
v 47.9309998 9.17670155 -17.4251995
v 56.6709023 9.17670155 -13.0572004
v 53.8902016 10.151701 -16.6842003
v 51.2967033 9.30540085 -15.0189009
v 53.8902016 10.151701 -16.6842003
v 56.6709023 9.17670155 -13.0572004
v 72.7584 9.96060085 -7.28130007
v 72.7584 9.96060085 -7.28130007
v 56.6709023 9.17670155 -13.0572004
v 72.2982025 9.60960102 -6.7001996
v 39.5148048 7.44900179 -24.1956005
v 37.1280022 10.5261021 -47.1977997
v 31.9527016 8.34990311 -45.770401
v 12.9830999 -2.50769877 -31.4496002
v 39.5148048 7.44900179 -24.1956005
v 31.9527016 8.34990311 -45.770401
v 39.5148048 7.44900179 -24.1956005
v 12.9830999 -2.50769877 -31.4496002
v 17.6201992 -5.76029968 -4.43040037
v 47.9309998 9.17670155 -17.4251995
v 39.5148048 7.44900179 -24.1956005
v 17.6201992 -5.76029968 -4.43040037
v 47.9309998 9.17670155 -17.4251995
v 17.6201992 -5.76029968 -4.43040037
v 20.3072987 -7.76490116 6.73139954
v 20.3072987 -7.76490116 6.73139954
v 51.2967033 9.30540085 -15.0189009
v 47.9309998 9.17670155 -17.4251995
v 51.2967033 9.30540085 -15.0189009
v 20.3072987 -7.76490116 6.73139954
v 22.3860016 -9.42240143 9.10650063
v 48.5783997 6.87180042 -11.9534998
v 51.2967033 9.30540085 -15.0189009
v 22.3860016 -9.42240143 9.10650063
v 51.2967033 9.30540085 -15.0189009
v 48.5783997 6.87180042 -11.9534998
v 52.3458061 8.47470093 -13.6383009
v 51.2967033 9.30540085 -15.0189009
v 52.3458061 8.47470093 -13.6383009
v 56.6709023 9.17670155 -13.0572004
v 29.6010017 7.08240318 -60.8907013
v 13.3380003 -4.73849821 -45.9420013
v 12.5346003 -3.61529803 -45.708004
v 13.3380003 -4.73849821 -45.9420013
v 29.6010017 7.08240318 -60.8907013
v 31.3325996 6.99270248 -61.783802
v 31.8708019 6.08790302 -60.516304
v 13.3380003 -4.73849821 -45.9420013
v 31.3325996 6.99270248 -61.783802
v 13.3380003 -4.73849821 -45.9420013
v 31.8708019 6.08790302 -60.516304
v 14.4846001 -6.00209808 -44.1675034
v 31.8708019 6.08790302 -60.516304
v 34.7490005 6.4350028 -59.2565994
v 14.4846001 -6.00209808 -44.1675034
v 14.4846001 -6.00209808 -44.1675034
v 34.7490005 6.4350028 -59.2565994
v 16.3995018 -7.56599903 -37.6467018
v 36.1529999 4.35240221 -47.8256989
v 16.3995018 -7.56599903 -37.6467018
v 34.7490005 6.4350028 -59.2565994
v 16.3995018 -7.56599903 -37.6467018
v 36.1529999 4.35240221 -47.8256989
v 21.3290997 -9.87479973 -10.9278011
v 32.6118011 8.45520306 -62.2206001
v 31.3325996 6.99270248 -61.783802
v 29.6010017 7.08240318 -60.8907013
v 31.3325996 6.99270248 -61.783802
v 32.6118011 8.45520306 -62.2206001
v 34.6944008 8.0262022 -62.0841026
v 34.6944008 8.0262022 -62.0841026
v 31.8708019 6.08790302 -60.516304
v 31.3325996 6.99270248 -61.783802
v 31.8708019 6.08790302 -60.516304
v 34.6944008 8.0262022 -62.0841026
v 37.1357994 7.40220308 -59.826004
v 37.1357994 7.40220308 -59.826004
v 34.7490005 6.4350028 -59.2565994
v 31.8708019 6.08790302 -60.516304
v 37.1357994 7.40220308 -59.826004
v 40.2129021 6.94590282 -53.8902016
v 34.7490005 6.4350028 -59.2565994
v 40.2129021 6.94590282 -53.8902016
v 39.7098045 6.18930244 -49.5339012
v 34.7490005 6.4350028 -59.2565994
v 34.7490005 6.4350028 -59.2565994
v 39.7098045 6.18930244 -49.5339012
v 36.1529999 4.35240221 -47.8256989
v 45.7470016 5.45610142 -26.3289032
v 36.1529999 4.35240221 -47.8256989
v 39.7098045 6.18930244 -49.5339012
v 45.7470016 5.45610142 -26.3289032
v 21.3290997 -9.87479973 -10.9278011
v 36.1529999 4.35240221 -47.8256989
v 21.3290997 -9.87479973 -10.9278011
v 45.7470016 5.45610142 -26.3289032
v 48.3483009 5.76030111 -17.5695019
v 21.3290997 -9.87479973 -10.9278011
v 48.3483009 5.76030111 -17.5695019
v 23.3025017 -10.4754 3.36569977
v 39.479702 8.45520306 -59.3579979
v 37.1357994 7.40220308 -59.826004
v 34.6944008 8.0262022 -62.0841026
v 37.1357994 7.40220308 -59.826004
v 39.479702 8.45520306 -59.3579979
v 84.2361069 9.2820015 -26.0988026
v 84.2361069 9.2820015 -26.0988026
v 83.8461075 8.75550175 -25.2564011
v 37.1357994 7.40220308 -59.826004
v 83.8461075 8.75550175 -25.2564011
v 40.2129021 6.94590282 -53.8902016
v 37.1357994 7.40220308 -59.826004
v 40.2129021 6.94590282 -53.8902016
v 83.8461075 8.75550175 -25.2564011
v 65.7813034 7.72980213 -33.1500015
v 43.1690979 6.89910269 -48.7890053
v 40.2129021 6.94590282 -53.8902016
v 65.7813034 7.72980213 -33.1500015
v 39.7098045 6.18930244 -49.5339012
v 40.2129021 6.94590282 -53.8902016
v 43.1690979 6.89910269 -48.7890053
v 43.1690979 6.89910269 -48.7890053
v 49.0854034 6.8679018 -27.7797012
v 39.7098045 6.18930244 -49.5339012
v 45.7470016 5.45610142 -26.3289032
v 39.7098045 6.18930244 -49.5339012
v 49.0854034 6.8679018 -27.7797012
v 49.0854034 6.8679018 -27.7797012
v 48.3483009 5.76030111 -17.5695019
v 45.7470016 5.45610142 -26.3289032
v 48.3483009 5.76030111 -17.5695019
v 49.0854034 6.8679018 -27.7797012
v 53.145298 7.55040121 -17.5500011
v 48.3483009 5.76030111 -17.5695019
v 53.145298 7.55040121 -17.5500011
v 51.5424004 7.32810116 -15.3348007
v 48.3483009 5.76030111 -17.5695019
v 51.5424004 7.32810116 -15.3348007
v 48.4341011 6.03720093 -12.3552008
v 48.4341011 6.03720093 -12.3552008
v 23.3025017 -10.4754 3.36569977
v 48.3483009 5.76030111 -17.5695019
v 23.3025017 -10.4754 3.36569977
v 48.4341011 6.03720093 -12.3552008
v 22.3860016 -9.42240143 9.10650063
v 65.7813034 7.72980213 -33.1500015
v 83.8461075 8.75550175 -25.2564011
v 77.2746048 8.21340179 -24.3789005
v 81.5802078 8.38500214 -21.7229996
v 77.2746048 8.21340179 -24.3789005
v 83.8461075 8.75550175 -25.2564011
v 81.5802078 8.38500214 -21.7229996
v 71.2842026 8.50980091 -13.3926001
v 77.2746048 8.21340179 -24.3789005
v 71.2842026 8.50980091 -13.3926001
v 81.5802078 8.38500214 -21.7229996
v 73.8621063 8.87639999 -9.08699989
v 71.2842026 8.50980091 -13.3926001
v 73.8621063 8.87639999 -9.08699989
v 60.2861977 8.38500118 -13.7045994
v 52.9190979 7.4997015 -24.1410027
v 71.2842026 8.50980091 -13.3926001
v 60.2861977 8.38500118 -13.7045994
v 60.2861977 8.38500118 -13.7045994
v 53.145298 7.55040121 -17.5500011
v 52.9190979 7.4997015 -24.1410027
v 52.9190979 7.4997015 -24.1410027
v 53.145298 7.55040121 -17.5500011
v 49.0854034 6.8679018 -27.7797012
v 49.0854034 6.8679018 -27.7797012
v 43.1690979 6.89910269 -48.7890053
v 52.9190979 7.4997015 -24.1410027
v 73.8621063 8.87639999 -9.08699989
v 72.4893036 9.33270073 -6.84060001
v 60.2861977 8.38500118 -13.7045994
v 72.4893036 9.33270073 -6.84060001
v 56.6709023 9.17670155 -13.0572004
v 60.2861977 8.38500118 -13.7045994
v 54.1203003 8.38500118 -14.1297007
v 60.2861977 8.38500118 -13.7045994
v 56.6709023 9.17670155 -13.0572004
v 60.2861977 8.38500118 -13.7045994
v 54.1203003 8.38500118 -14.1297007
v 53.145298 7.55040121 -17.5500011
v 53.145298 7.55040121 -17.5500011
v 54.1203003 8.38500118 -14.1297007
v 51.5424004 7.32810116 -15.3348007
v 54.1203003 8.38500118 -14.1297007
v 52.3458061 8.47470093 -13.6383009
v 51.5424004 7.32810116 -15.3348007
v 52.3458061 8.47470093 -13.6383009
v 48.4341011 6.03720093 -12.3552008
v 51.5424004 7.32810116 -15.3348007
v 72.4893036 9.33270073 -6.84060001
v 72.2982025 9.60960102 -6.7001996
v 56.6709023 9.17670155 -13.0572004
v 52.3458061 8.47470093 -13.6383009
v 54.1203003 8.38500118 -14.1297007
v 56.6709023 9.17670155 -13.0572004
v 48.4341011 6.03720093 -12.3552008
v 52.3458061 8.47470093 -13.6383009
v 48.5783997 6.87180042 -11.9534998
v 48.4341011 6.03720093 -12.3552008
v 48.5783997 6.87180042 -11.9534998
v 22.3860016 -9.42240143 9.10650063
v -20.9820004 -6.95370197 39.8541031
v -3.35010028 -20.0616035 50.3100014
v -1.88760006 -19.0125027 52.1585999
v -3.35010028 -20.0616035 50.3100014
v -20.9820004 -6.95370197 39.8541031
v -22.1481018 -7.95210218 38.7464981
v -22.1481018 -7.95210218 38.7464981
v -4.98810053 -20.155201 45.0567017
v -3.35010028 -20.0616035 50.3100014
v -4.98810053 -20.155201 45.0567017
v -22.1481018 -7.95210218 38.7464981
v -24.671402 -7.67520142 32.9199028
v -24.671402 -7.67520142 32.9199028
v -6.69630003 -19.7496033 38.1185989
v -4.98810053 -20.155201 45.0567017
v -6.69630003 -19.7496033 38.1185989
v -24.671402 -7.67520142 32.9199028
v -25.2642021 -8.16660118 26.6096992
v -25.2642021 -8.16660118 26.6096992
v -8.36940002 -19.3050022 31.2311993
v -6.69630003 -19.7496033 38.1185989
v -23.1855011 -5.70180178 39.113102
v -22.1481018 -7.95210218 38.7464981
v -20.9820004 -6.95370197 39.8541031
v -22.1481018 -7.95210218 38.7464981
v -23.1855011 -5.70180178 39.113102
v -23.8952999 -6.82500219 37.6701012
v -24.671402 -7.67520142 32.9199028
v -22.1481018 -7.95210218 38.7464981
v -23.8952999 -6.82500219 37.6701012
v -24.671402 -7.67520142 32.9199028
v -23.8952999 -6.82500219 37.6701012
v -25.5644989 -6.35310173 37.9275017
v -25.5644989 -6.35310173 37.9275017
v -43.3641014 -6.32190228 40.7004013
v -24.671402 -7.67520142 32.9199028
v -45.3921013 -6.64950132 37.4556007
v -24.671402 -7.67520142 32.9199028
v -43.3641014 -6.32190228 40.7004013
v -24.671402 -7.67520142 32.9199028
v -45.3921013 -6.64950132 37.4556007
v -25.2642021 -8.16660118 26.6096992
v -47.4201012 -6.7587018 34.2068977
v -25.2642021 -8.16660118 26.6096992
v -45.3921013 -6.64950132 37.4556007
v -25.2642021 -8.16660118 26.6096992
v -47.4201012 -6.7587018 34.2068977
v -25.0848007 -8.30310154 20.1123009
v -8.36940002 -19.3050022 31.2311993
v -25.2642021 -8.16660118 26.6096992
v -25.0848007 -8.30310154 20.1123009
v -25.0848007 -8.30310154 20.1123009
v -9.11040115 -18.3885021 25.9740009
v -8.36940002 -19.3050022 31.2311993
v -25.1393986 -5.32740211 39.1559982
v -23.8952999 -6.82500219 37.6701012
v -23.1855011 -5.70180178 39.113102
v -23.8952999 -6.82500219 37.6701012
v -25.1393986 -5.32740211 39.1559982
v -25.5644989 -6.35310173 37.9275017
v -41.3361053 -5.46000242 43.9491005
v -25.5644989 -6.35310173 37.9275017
v -25.1393986 -5.32740211 39.1559982
v -25.5644989 -6.35310173 37.9275017
v -41.3361053 -5.46000242 43.9491005
v -41.8431053 -5.88900185 43.1378975
v -43.3641014 -6.32190228 40.7004013
v -25.5644989 -6.35310173 37.9275017
v -41.8431053 -5.88900185 43.1378975
v 3.35010028 -20.0616035 50.3100014
v 20.9820004 -6.95370197 39.8541031
v 1.88760006 -19.0125027 52.1585999
v 20.9820004 -6.95370197 39.8541031
v 3.35010028 -20.0616035 50.3100014
v 22.1481018 -7.95210218 38.7464981
v 22.1481018 -7.95210218 38.7464981
v 23.1855011 -5.70180178 39.113102
v 20.9820004 -6.95370197 39.8541031
v 23.1855011 -5.70180178 39.113102
v 22.1481018 -7.95210218 38.7464981
v 23.8952999 -6.82500219 37.6701012
v 23.8952999 -6.82500219 37.6701012
v 25.1393986 -5.32740211 39.1559982
v 23.1855011 -5.70180178 39.113102
v 25.1393986 -5.32740211 39.1559982
v 23.8952999 -6.82500219 37.6701012
v 25.5644989 -6.35310173 37.9275017
v 25.5644989 -6.35310173 37.9275017
v 41.3361053 -5.46000242 43.9491005
v 25.1393986 -5.32740211 39.1559982
v 41.3361053 -5.46000242 43.9491005
v 25.5644989 -6.35310173 37.9275017
v 41.8431053 -5.88900185 43.1378975
v 4.98810053 -20.155201 45.0567017
v 22.1481018 -7.95210218 38.7464981
v 3.35010028 -20.0616035 50.3100014
v 22.1481018 -7.95210218 38.7464981
v 4.98810053 -20.155201 45.0567017
v 24.671402 -7.67520142 32.9199028
v 22.1481018 -7.95210218 38.7464981
v 24.671402 -7.67520142 32.9199028
v 23.8952999 -6.82500219 37.6701012
v 23.8952999 -6.82500219 37.6701012
v 24.671402 -7.67520142 32.9199028
v 25.5644989 -6.35310173 37.9275017
v 43.3641014 -6.32190228 40.7004013
v 25.5644989 -6.35310173 37.9275017
v 24.671402 -7.67520142 32.9199028
v 25.5644989 -6.35310173 37.9275017
v 43.3641014 -6.32190228 40.7004013
v 41.8431053 -5.88900185 43.1378975
v 6.69630003 -19.7496033 38.1185989
v 24.671402 -7.67520142 32.9199028
v 4.98810053 -20.155201 45.0567017
v 24.671402 -7.67520142 32.9199028
v 6.69630003 -19.7496033 38.1185989
v 25.2642021 -8.16660118 26.6096992
v 45.3921013 -6.64950132 37.4556007
v 24.671402 -7.67520142 32.9199028
v 25.2642021 -8.16660118 26.6096992
v 24.671402 -7.67520142 32.9199028
v 45.3921013 -6.64950132 37.4556007
v 43.3641014 -6.32190228 40.7004013
v 8.36940002 -19.3050022 31.2311993
v 25.2642021 -8.16660118 26.6096992
v 6.69630003 -19.7496033 38.1185989
v 25.2642021 -8.16660118 26.6096992
v 8.36940002 -19.3050022 31.2311993
v 25.0848007 -8.30310154 20.1123009
v 47.4201012 -6.7587018 34.2068977
v 25.2642021 -8.16660118 26.6096992
v 25.0848007 -8.30310154 20.1123009
v 25.2642021 -8.16660118 26.6096992
v 47.4201012 -6.7587018 34.2068977
v 45.3921013 -6.64950132 37.4556007
v 9.11040115 -18.3885021 25.9740009
v 25.0848007 -8.30310154 20.1123009
v 8.36940002 -19.3050022 31.2311993
v 25.0848007 -8.30310154 20.1123009
v 9.11040115 -18.3885021 25.9740009
v 23.0997009 -8.31870174 16.7621994
v 25.0848007 -8.30310154 20.1123009
v 23.0997009 -8.31870174 16.7621994
v 24.3983994 -7.38270092 15.9041996
v 27.7251034 -7.15260124 17.8698006
v 25.0848007 -8.30310154 20.1123009
v 24.3983994 -7.38270092 15.9041996
v 27.7251034 -7.15260124 17.8698006
v 47.4201012 -6.7587018 34.2068977
v 25.0848007 -8.30310154 20.1123009
v 47.4201012 -6.7587018 34.2068977
v 27.7251034 -7.15260124 17.8698006
v 48.9411011 -6.43500233 31.7733021
v 27.7251034 -7.15260124 17.8698006
v 49.448101 -5.46000147 30.9620991
v 48.9411011 -6.43500233 31.7733021
v 49.448101 -5.46000147 30.9620991
v 27.7251034 -7.15260124 17.8698006
v 28.0839024 -6.11130095 16.7349014
v 8.01840019 -16.5477009 23.9342995
v 23.0997009 -8.31870174 16.7621994
v 9.11040115 -18.3885021 25.9740009
v 23.0997009 -8.31870174 16.7621994
v 8.01840019 -16.5477009 23.9342995
v 21.5046005 -7.8468008 15.6858006
v 23.4624004 -6.29460096 14.7654009
v 23.0997009 -8.31870174 16.7621994
v 21.5046005 -7.8468008 15.6858006
v 23.0997009 -8.31870174 16.7621994
v 23.4624004 -6.29460096 14.7654009
v 24.3983994 -7.38270092 15.9041996
v 28.0839024 -6.11130095 16.7349014
v 24.3983994 -7.38270092 15.9041996
v 23.4624004 -6.29460096 14.7654009
v 24.3983994 -7.38270092 15.9041996
v 28.0839024 -6.11130095 16.7349014
v 27.7251034 -7.15260124 17.8698006
v -3.11999989 -7.58939743 -67.2906036
v -36.2700005 -5.14409971 -16.1420994
v -18.7200012 -4.75799799 -53.8941002
v -36.2700005 -5.14409971 -16.1420994
v -3.11999989 -7.58939743 -67.2906036
v -3.11999989 -24.1956024 50.8911057
v 0 -8.60339737 -67.2906036
v -3.11999989 -24.1956024 50.8911057
v -3.11999989 -7.58939743 -67.2906036
v -3.11999989 -24.1956024 50.8911057
v 0 -8.60339737 -67.2906036
v 0 -25.2096024 50.8911057
v 0 -8.60339737 -67.2906036
v 3.11999989 -24.1956024 50.8911057
v 0 -25.2096024 50.8911057
v 3.11999989 -24.1956024 50.8911057
v 0 -8.60339737 -67.2906036
v 3.11999989 -7.58939743 -67.2906036
v 3.11999989 -7.58939743 -67.2906036
v 36.2700005 -5.14409971 -16.1420994
v 3.11999989 -24.1956024 50.8911057
v 36.2700005 -5.14409971 -16.1420994
v 3.11999989 -7.58939743 -67.2906036
v 18.7200012 -4.75799799 -53.8941002
v -41.8431053 -5.88900185 43.1378975
v -41.3361053 -5.46000242 43.9491005
v -41.8431053 -5.03100204 43.1378975
v -41.8431053 -5.03100204 43.1378975
v -43.3641014 -6.32190228 40.7004013
v -41.8431053 -5.88900185 43.1378975
v -43.3641014 -6.32190228 40.7004013
v -41.8431053 -5.03100204 43.1378975
v -43.3641014 -4.59810209 40.7004013
v -43.3641014 -4.59810209 40.7004013
v -45.3921013 -6.64950132 37.4556007
v -43.3641014 -6.32190228 40.7004013
v -45.3921013 -6.64950132 37.4556007
v -43.3641014 -4.59810209 40.7004013
v -45.3921013 -4.27050161 37.4556007
v -45.3921013 -4.27050161 37.4556007
v -47.4201012 -6.7587018 34.2068977
v -45.3921013 -6.64950132 37.4556007
v -47.4201012 -6.7587018 34.2068977
v -45.3921013 -4.27050161 37.4556007
v -47.4201012 -4.16130209 34.2068977
v -48.9411011 -4.48500156 31.7733021
v -47.4201012 -6.7587018 34.2068977
v -47.4201012 -4.16130209 34.2068977
v -47.4201012 -6.7587018 34.2068977
v -48.9411011 -4.48500156 31.7733021
v -48.9411011 -6.43500233 31.7733021
v -48.9411011 -4.48500156 31.7733021
v -49.448101 -5.46000147 30.9620991
v -48.9411011 -6.43500233 31.7733021
v -72.7584 10.8810024 -24.9093018
v -71.2842026 8.50980091 -13.3926001
v -77.2746048 8.21340179 -24.3789005
v -67.8678055 10.518301 -15.6273003
v -71.2842026 8.50980091 -13.3926001
v -72.7584 10.8810024 -24.9093018
v -71.2842026 8.50980091 -13.3926001
v -67.8678055 10.518301 -15.6273003
v -53.1804008 10.8693008 -24.4491024
v -52.9190979 7.4997015 -24.1410027
v -71.2842026 8.50980091 -13.3926001
v -53.1804008 10.8693008 -24.4491024
v -52.9190979 7.4997015 -24.1410027
v -53.1804008 10.8693008 -24.4491024
v -43.1690979 6.89910269 -48.7890053
v -53.1804008 10.8693008 -24.4491024
v -44.1207008 11.2281027 -45.9068985
v -43.1690979 6.89910269 -48.7890053
v -77.2746048 8.21340179 -24.3789005
v -65.7813034 7.72980213 -33.1500015
v -72.7584 10.8810024 -24.9093018
v -72.7584 10.8810024 -24.9093018
v -65.7813034 7.72980213 -33.1500015
v -56.9400063 11.0370016 -37.0227013
v -43.1690979 6.89910269 -48.7890053
v -56.9400063 11.0370016 -37.0227013
v -65.7813034 7.72980213 -33.1500015
v -44.1207008 11.2281027 -45.9068985
v -56.9400063 11.0370016 -37.0227013
v -43.1690979 6.89910269 -48.7890053
v -84.2868042 9.8163023 -26.1027031
v -84.2361069 9.2820015 -26.0988026
v -83.8461075 8.75550175 -25.2564011
v -84.2868042 9.8163023 -26.1027031
v -83.8461075 8.75550175 -25.2564011
v -83.7252045 10.3545017 -25.1588993
v -83.7252045 10.3545017 -25.1588993
v -83.8461075 8.75550175 -25.2564011
v -82.3172989 10.6821012 -22.7720985
v -83.8461075 8.75550175 -25.2564011
v -81.5802078 8.38500214 -21.7229996
v -82.3172989 10.6821012 -22.7720985
v -81.5802078 8.38500214 -21.7229996
v -75.2661057 10.3935013 -11.5518007
v -82.3172989 10.6821012 -22.7720985
v -75.2661057 10.3935013 -11.5518007
v -81.5802078 8.38500214 -21.7229996
v -73.8621063 8.87639999 -9.08699989
v -73.8621063 8.87639999 -9.08699989
v -72.7584 9.96060085 -7.28130007
v -75.2661057 10.3935013 -11.5518007
v -73.8621063 8.87639999 -9.08699989
v -72.4893036 9.33270073 -6.84060001
v -72.7584 9.96060085 -7.28130007
v -72.7584 9.96060085 -7.28130007
v -72.4893036 9.33270073 -6.84060001
v -72.2982025 9.60960102 -6.7001996
v 41.3361053 -5.46000242 43.9491005
v 41.8431053 -5.88900185 43.1378975
v 41.8431053 -5.03100204 43.1378975
v 43.3641014 -6.32190228 40.7004013
v 41.8431053 -5.03100204 43.1378975
v 41.8431053 -5.88900185 43.1378975
v 41.8431053 -5.03100204 43.1378975
v 43.3641014 -6.32190228 40.7004013
v 43.3641014 -4.59810209 40.7004013
v 45.3921013 -6.64950132 37.4556007
v 43.3641014 -4.59810209 40.7004013
v 43.3641014 -6.32190228 40.7004013
v 43.3641014 -4.59810209 40.7004013
v 45.3921013 -6.64950132 37.4556007
v 45.3921013 -4.27050161 37.4556007
v 47.4201012 -6.7587018 34.2068977
v 45.3921013 -4.27050161 37.4556007
v 45.3921013 -6.64950132 37.4556007
v 45.3921013 -4.27050161 37.4556007
v 47.4201012 -6.7587018 34.2068977
v 47.4201012 -4.16130209 34.2068977
v 47.4201012 -6.7587018 34.2068977
v 48.9411011 -4.48500156 31.7733021
v 47.4201012 -4.16130209 34.2068977
v 48.9411011 -4.48500156 31.7733021
v 47.4201012 -6.7587018 34.2068977
v 48.9411011 -6.43500233 31.7733021
v 49.448101 -5.46000147 30.9620991
v 48.9411011 -4.48500156 31.7733021
v 48.9411011 -6.43500233 31.7733021
v -36.2700005 2.19570088 -15.1085997
v -3.11999989 -17.2731018 51.8622017
v -18.7200012 2.57790232 -52.864502
v -3.11999989 -17.2731018 51.8622017
v -3.11999989 -0.666897118 -66.3156052
v -18.7200012 2.57790232 -52.864502
v -3.11999989 -17.2731018 51.8622017
v 0 -1.79789734 -66.3156052
v -3.11999989 -0.666897118 -66.3156052
v 0 -1.79789734 -66.3156052
v -3.11999989 -17.2731018 51.8622017
v 0 -18.2091026 51.8622017
v 3.11999989 -17.2731018 51.8622017
v 0 -1.79789734 -66.3156052
v 0 -18.2091026 51.8622017
v 0 -1.79789734 -66.3156052
v 3.11999989 -17.2731018 51.8622017
v 3.11999989 -0.666897118 -66.3156052
v 3.11999989 -0.666897118 -66.3156052
v 3.11999989 -17.2731018 51.8622017
v 18.7200012 2.57790232 -52.864502
v 3.11999989 -17.2731018 51.8622017
v 36.2700005 2.19570088 -15.1085997
v 18.7200012 2.57790232 -52.864502
v 71.2842026 8.50980091 -13.3926001
v 72.7584 10.8810024 -24.9093018
v 77.2746048 8.21340179 -24.3789005
v 71.2842026 8.50980091 -13.3926001
v 67.8678055 10.518301 -15.6273003
v 72.7584 10.8810024 -24.9093018
v 67.8678055 10.518301 -15.6273003
v 71.2842026 8.50980091 -13.3926001
v 53.1804008 10.8693008 -24.4491024
v 71.2842026 8.50980091 -13.3926001
v 52.9190979 7.4997015 -24.1410027
v 53.1804008 10.8693008 -24.4491024
v 53.1804008 10.8693008 -24.4491024
v 52.9190979 7.4997015 -24.1410027
v 43.1690979 6.89910269 -48.7890053
v 44.1207008 11.2281027 -45.9068985
v 53.1804008 10.8693008 -24.4491024
v 43.1690979 6.89910269 -48.7890053
v 65.7813034 7.72980213 -33.1500015
v 77.2746048 8.21340179 -24.3789005
v 72.7584 10.8810024 -24.9093018
v 65.7813034 7.72980213 -33.1500015
v 72.7584 10.8810024 -24.9093018
v 56.9400063 11.0370016 -37.0227013
v 56.9400063 11.0370016 -37.0227013
v 43.1690979 6.89910269 -48.7890053
v 65.7813034 7.72980213 -33.1500015
v 56.9400063 11.0370016 -37.0227013
v 44.1207008 11.2281027 -45.9068985
v 43.1690979 6.89910269 -48.7890053
v 84.2361069 9.2820015 -26.0988026
v 84.2868042 9.8163023 -26.1027031
v 83.8461075 8.75550175 -25.2564011
v 83.8461075 8.75550175 -25.2564011
v 84.2868042 9.8163023 -26.1027031
v 83.7252045 10.3545017 -25.1588993
v 83.8461075 8.75550175 -25.2564011
v 83.7252045 10.3545017 -25.1588993
v 82.3172989 10.6821012 -22.7720985
v 81.5802078 8.38500214 -21.7229996
v 83.8461075 8.75550175 -25.2564011
v 82.3172989 10.6821012 -22.7720985
v 75.2661057 10.3935013 -11.5518007
v 81.5802078 8.38500214 -21.7229996
v 82.3172989 10.6821012 -22.7720985
v 81.5802078 8.38500214 -21.7229996
v 75.2661057 10.3935013 -11.5518007
v 73.8621063 8.87639999 -9.08699989
v 72.7584 9.96060085 -7.28130007
v 73.8621063 8.87639999 -9.08699989
v 75.2661057 10.3935013 -11.5518007
v 72.4893036 9.33270073 -6.84060001
v 73.8621063 8.87639999 -9.08699989
v 72.7584 9.96060085 -7.28130007
v 72.4893036 9.33270073 -6.84060001
v 72.7584 9.96060085 -7.28130007
v 72.2982025 9.60960102 -6.7001996
v -9.11040115 -18.3885021 25.9740009
v -25.0848007 -8.30310154 20.1123009
v -23.0997009 -8.31870174 16.7621994
v -23.0997009 -8.31870174 16.7621994
v -25.0848007 -8.30310154 20.1123009
v -24.3983994 -7.38270092 15.9041996
v -23.4624004 -6.29460096 14.7654009
v -23.0997009 -8.31870174 16.7621994
v -24.3983994 -7.38270092 15.9041996
v -23.0997009 -8.31870174 16.7621994
v -23.4624004 -6.29460096 14.7654009
v -21.5046005 -7.8468008 15.6858006
v -8.01840019 -16.5477009 23.9342995
v -23.0997009 -8.31870174 16.7621994
v -21.5046005 -7.8468008 15.6858006
v -23.0997009 -8.31870174 16.7621994
v -8.01840019 -16.5477009 23.9342995
v -9.11040115 -18.3885021 25.9740009
v -25.0848007 -8.30310154 20.1123009
v -27.7251034 -7.15260124 17.8698006
v -24.3983994 -7.38270092 15.9041996
v -28.0839024 -6.11130095 16.7349014
v -24.3983994 -7.38270092 15.9041996
v -27.7251034 -7.15260124 17.8698006
v -24.3983994 -7.38270092 15.9041996
v -28.0839024 -6.11130095 16.7349014
v -23.4624004 -6.29460096 14.7654009
v -47.4201012 -6.7587018 34.2068977
v -27.7251034 -7.15260124 17.8698006
v -25.0848007 -8.30310154 20.1123009
v -27.7251034 -7.15260124 17.8698006
v -47.4201012 -6.7587018 34.2068977
v -48.9411011 -6.43500233 31.7733021
v -49.448101 -5.46000147 30.9620991
v -27.7251034 -7.15260124 17.8698006
v -48.9411011 -6.43500233 31.7733021
v -27.7251034 -7.15260124 17.8698006
v -49.448101 -5.46000147 30.9620991
v -28.0839024 -6.11130095 16.7349014

# 251 UV coordinates
vt 0.565900028 0.766300023 0
vt 0.505200028 0.729099989 0
vt 0.500899971 0.736299992 0
vt 0.569999993 0.759000003 0
vt 0.588999987 0.77579999 0
vt 0.593699992 0.767700016 0
vt 0.623399973 0.791199982 0
vt 0.626600027 0.783399999 0
vt 0.119999997 0.0746999979 0
vt 0.060800001 0.0513000004 0
vt 0.0324000008 0.0756999999 0
vt 0.112000003 0.0381000005 0
vt 0.174400002 0.0568000004 0
vt 0.171399996 0.0744000003 0
vt 0.2491 0.0568999983 0
vt 0.316599995 0.0741999969 0
vt 0.398400009 0.350699991 0
vt 0.382200003 0.375999987 0
vt 0.396800011 0.3486 0
vt 0.384000003 0.377600014 0
vt 0.380100012 0.378699988 0
vt 0.382400006 0.380699992 0
vt 0.378899992 0.381599993 0
vt 0.377900004 0.380100012 0
vt 0.358500004 0.387499988 0
vt 0.358399987 0.386200011 0
vt 0.400700003 0.3565 0
vt 0.386900008 0.382800013 0
vt 0.385699987 0.385399997 0
vt 0.358599991 0.391000003 0
vt 0.403699994 0.364600003 0
vt 0.391099989 0.389499992 0
vt 0.389999986 0.39199999 0
vt 0.358700007 0.395599991 0
vt 0.407099992 0.373100013 0
vt 0.395399988 0.396400005 0
vt 0.394199997 0.398499995 0
vt 0.389699996 0.399199992 0
vt 0.358799994 0.400200009 0
vt 0.358900011 0.403699994 0
vt 0.409500003 0.379599988 0
vt 0.398799986 0.399800003 0
vt 0.396699995 0.40259999 0
vt 0.390199989 0.403800011 0
vt 0.389999986 0.406199992 0
vt 0.358900011 0.405400008 0
vt 0.41139999 0.382499993 0
vt 0.40079999 0.401899993 0
vt 0.396899998 0.404500008 0
vt 0.667599976 0.901499987 0
vt 0.719600022 0.867999971 0
vt 0.691100001 0.8926 0
vt 0.604399979 0.867999971 0
vt 0.667699993 0.834500015 0
vt 0.691100001 0.843400002 0
vt 0.976300001 0.444999993 0
vt 0.980499983 0.429199994 0
vt 0.984099984 0.445800006 0
vt 0.9727 0.428600013 0
vt 0.791999996 0.462099999 0
vt 0.788100004 0.444700003 0
vt 0.693700016 0.477699995 0
vt 0.69749999 0.495000005 0
vt 0.648800015 0.500199974 0
vt 0.652499974 0.516600013 0
vt 0.642099977 0.504499972 0
vt 0.645699978 0.520600021 0
vt 0.777800024 0.643700004 0
vt 0.736000001 0.591300011 0
vt 0.736500025 0.590799987 0
vt 0.778999984 0.64349997 0
vt 0.783299983 0.647000015 0
vt 0.782999992 0.648699999 0
vt 0.78609997 0.648800015 0
vt 0.78640002 0.646200001 0
vt 0.791000009 0.648199975 0
vt 0.778900027 0.639900029 0
vt 0.782400012 0.640699983 0
vt 0.787800014 0.64230001 0
vt 0.790499985 0.646200001 0
vt 0.818799973 0.635599971 0
vt 0.819400012 0.631399989 0
vt 0.737600029 0.5898 0
vt 0.739899993 0.587400019 0
vt 0.765100002 0.611699998 0
vt 0.7773 0.625899971 0
vt 0.785000026 0.629499972 0
vt 0.791899979 0.629400015 0
vt 0.82130003 0.618200004 0
vt 0.750400007 0.592800021 0
vt 0.75150001 0.576300025 0
vt 0.758899987 0.583299994 0
vt 0.755800009 0.572099984 0
vt 0.773400009 0.598100007 0
vt 0.774999976 0.58890003 0
vt 0.781499982 0.600600004 0
vt 0.773000002 0.583599985 0
vt 0.778800011 0.587700009 0
vt 0.781799972 0.591600001 0
vt 0.790000021 0.601999998 0
vt 0.756600022 0.571500003 0
vt 0.824899971 0.584999979 0
vt 0.825900018 0.57099998 0
vt 0.824899971 0.566900015 0
vt 0.783599973 0.584500015 0
vt 0.778199971 0.585399985 0
vt 0.653800011 0.763300002 0
vt 0.700699985 0.800800025 0
vt 0.651499987 0.765699983 0
vt 0.70539999 0.801100016 0
vt 0.708800018 0.804400027 0
vt 0.713699996 0.801699996 0
vt 0.70599997 0.797200024 0
vt 0.718699992 0.795000017 0
vt 0.725000024 0.794399977 0
vt 0.828999996 0.709100008 0
vt 0.655499995 0.757600009 0
vt 0.712700009 0.793600023 0
vt 0.725399971 0.780300021 0
vt 0.827799976 0.706799984 0
vt 0.658100009 0.740999997 0
vt 0.713699996 0.765600026 0
vt 0.723399997 0.769699991 0
vt 0.731899977 0.767700016 0
vt 0.78490001 0.727699995 0
vt 0.811800003 0.70539999 0
vt 0.822099984 0.698700011 0
vt 0.665700018 0.675800025 0
vt 0.735300004 0.712899983 0
vt 0.744099975 0.716199994 0
vt 0.753300011 0.707099974 0
vt 0.753400028 0.691200018 0
vt 0.770500004 0.681200027 0
vt 0.796999991 0.679700017 0
vt 0.74089998 0.691500008 0
vt 0.749300003 0.685899973 0
vt 0.755900025 0.682699978 0
vt 0.761699975 0.67930001 0
vt 0.799399972 0.663800001 0
vt 0.802900016 0.669200003 0
vt 0.668900013 0.641200006 0
vt 0.741299987 0.678900003 0
vt 0.751900017 0.681400001 0
vt 0.668600023 0.626900017 0
vt 0.742999971 0.677399993 0
vt 0.798799992 0.663100004 0
vt 0.544799984 0.827300012 0
vt 0.596400023 0.859499991 0
vt 0.572700024 0.850700021 0
vt 0.660000026 0.826900005 0
vt 0.596199989 0.794799984 0
vt 0.572600007 0.80369997 0
vt 0.056400001 0.0189999994 0
vt 0.0190999992 0.0305000003 0
vt 0.0190999992 0.0157999992 0
vt 0.056400001 0.0274 0
vt 0.109300002 0.0190999992 0
vt 0.109300002 0.0274999999 0
vt 0.174400002 0.0275999997 0
vt 0.174400002 0.0192000009 0
vt 0.2491 0.0193000007 0
vt 0.2491 0.0276999995 0
vt 0.317900002 0.0236000009 0
vt 0.318599999 0.0322000012 0
vt 0.318599999 0.0148999998 0
vt 0.326599985 0.322699994 0
vt 0.281599998 0.360399991 0
vt 0.27579999 0.3583 0
vt 0.33070001 0.324600011 0
vt 0.29460001 0.363400012 0
vt 0.346199989 0.325899988 0
vt 0.311399996 0.367300004 0
vt 0.360300004 0.332399994 0
vt 0.328099996 0.371100008 0
vt 0.33070001 0.319200009 0
vt 0.335200012 0.321200013 0
vt 0.336699992 0.317200005 0
vt 0.352699995 0.277099997 0
vt 0.361900002 0.276899993 0
vt 0.371100008 0.276600003 0
vt 0.373800009 0.340299994 0
vt 0.340600014 0.374500006 0
vt 0.332899988 0.316100001 0
vt 0.343199998 0.277200013 0
vt 0.345699996 0.277200013 0
vt 0.379200011 0.348100007 0
vt 0.3829 0.345999986 0
vt 0.382099986 0.337099999 0
vt 0.377999991 0.276300013 0
vt 0.381300002 0.275999993 0
vt 0.385899991 0.337500006 0
vt 0.346500009 0.378399998 0
vt 0.381099999 0.352600008 0
vt 0.386099994 0.349000007 0
vt 0.901000023 0.335900009 0
vt 0.983699977 0.215299994 0
vt 0.939999998 0.305099994 0
vt 0.901000023 0.0498000011 0
vt 0.893100023 0.335599989 0
vt 0.89319998 0.0494000018 0
vt 0.885299981 0.0498000011 0
vt 0.885200024 0.335900009 0
vt 0.802600026 0.215299994 0
vt 0.846199989 0.305099994 0
vt 0.345999986 0.272300005 0
vt 0.343600005 0.271400005 0
vt 0.345899999 0.270200014 0
vt 0.352899998 0.272899985 0
vt 0.352699995 0.268700004 0
vt 0.362199992 0.273000002 0
vt 0.361799985 0.26730001 0
vt 0.371399999 0.272700012 0
vt 0.370900005 0.266400009 0
vt 0.377900004 0.266799986 0
vt 0.378199995 0.271400005 0
vt 0.380299985 0.268900007 0
vt 0.687699974 0.576399982 0
vt 0.6699 0.598699987 0
vt 0.676999986 0.569500029 0
vt 0.680700004 0.600600004 0
vt 0.71450001 0.624300003 0
vt 0.709699988 0.630999982 0
vt 0.763000011 0.666000009 0
vt 0.762499988 0.653299987 0
vt 0.680999994 0.566999972 0
vt 0.715399981 0.560699999 0
vt 0.691699982 0.573899984 0
vt 0.739300013 0.566699982 0
vt 0.781000018 0.550300002 0
vt 0.776600003 0.56220001 0
vt 0.837100029 0.702700019 0
vt 0.836000025 0.703400016 0
vt 0.833700001 0.702199996 0
vt 0.836700022 0.699800014 0
vt 0.833599985 0.693799973 0
vt 0.827300012 0.694400012 0
vt 0.815299988 0.66839999 0
vt 0.808499992 0.665000021 0
vt 0.807699978 0.659500003 0
vt 0.805800021 0.659300029 0
vt 0.806100011 0.658500016 0
vt 0.814199984 0.328799993 0
vt 0.897400022 0.370599985 0
vt 0.76910001 0.350800008 0
vt 0.753600001 0.370499998 0
vt 0.753799975 0.374500006 0
vt 0.897599995 0.374500006 0
vt 0.897400022 0.378500015 0
vt 0.753600001 0.378500015 0
vt 0.76910001 0.398299992 0
vt 0.814199984 0.42019999 0

# 435 vertex normals
vn -0.973283708 -0.104598261 0.204396605
vn -0.881755054 -0.0984061584 0.461328745
vn -0.883780956 -0.0238995068 0.467289954
vn -0.987228274 -0.129203722 -0.0932026878
vn -0.884632647 -0.0750027448 -0.460217029
vn -0.831605196 -0.0327001847 -0.554403603
vn -0.76592797 -0.00190004148 -0.642923534
vn -0.772803187 0.0327001624 -0.633802712
vn -0.988991499 -0.14679876 -0.0185998492
vn -0.992786169 -0.119898334 9.99933618e-05
vn -0.990318179 -0.138402566 -0.0107002044
vn -0.994463384 -0.103296198 -0.0192992967
vn -0.980061948 -0.195292428 -0.0365985893
vn -0.970231771 -0.240107864 -0.0316010453
vn -0.970270634 -0.239492774 -0.0348989554
vn -0.969900846 -0.24100022 -0.0348000452
vn 0.231286749 0.856150925 0.462073624
vn 0.148296237 0.786680102 0.599284947
vn 0.0511995219 0.751893044 0.657293916
vn 0.33031255 0.872433126 0.360213727
vn 0.216790155 0.831562281 0.511376798
vn 0.264800757 0.921502769 0.28410089
vn 0.116602845 0.939323008 0.322607964
vn 0.142103821 0.8606233 0.489013225
vn 0.0934959427 0.923759878 0.371383965
vn 0.113402218 0.905817926 0.408208072
vn 0.482871115 0.869848073 0.100994013
vn 0.438696057 0.892491937 0.104899108
vn 0.171391264 0.981650054 0.08359579
vn 0.0155006573 0.993942201 0.108804658
vn 0.545414507 0.838122308 0.00860026572
vn 0.463395089 0.88599056 0.0168998595
vn 0.20770067 0.978103399 0.0132000875
vn 0.0064000478 0.998307645 0.0578004867
vn 0.586796105 0.806694746 -0.0700995103
vn 0.513607323 0.848012149 -0.130701825
vn 0.245005086 0.949419737 -0.19640404
vn -0.0107999155 0.997192323 -0.0740993917
vn -0.0426013581 0.998831928 -0.0228006858
vn -0.286803693 0.857411027 -0.42730552
vn 0.682067335 0.5801723 -0.445178717
vn 0.584213018 0.450910062 -0.674815059
vn 0.2247089 0.541621506 -0.810032189
vn -0.230411887 0.796841204 -0.558528841
vn -0.400800973 0.565001428 -0.721201777
vn -0.38071385 0.700325549 -0.603821993
vn 0.528299212 -0.0246999301 -0.848698854
vn 0.40422076 -0.0801040828 -0.911146939
vn -0.102202289 0.323707342 -0.940621257
vn -0.148296237 0.786680102 0.599284947
vn -0.231286749 0.856150925 0.462073624
vn -0.0511995219 0.751893044 0.657293916
vn -0.33031255 0.872433126 0.360213727
vn -0.482871115 0.869848073 0.100994013
vn -0.438696057 0.892491937 0.104899108
vn -0.545414507 0.838122308 0.00860026572
vn -0.463395089 0.88599056 0.0168998595
vn -0.586796105 0.806694746 -0.0700995103
vn -0.216790155 0.831562281 0.511376798
vn -0.264800757 0.921502769 0.28410089
vn -0.171391264 0.981650054 0.08359579
vn -0.20770067 0.978103399 0.0132000875
vn -0.513607323 0.848012149 -0.130701825
vn -0.682067335 0.5801723 -0.445178717
vn -0.584213018 0.450910062 -0.674815059
vn -0.528299212 -0.0246999301 -0.848698854
vn -0.116602845 0.939323008 0.322607964
vn -0.0155006573 0.993942201 0.108804658
vn -0.0064000478 0.998307645 0.0578004867
vn 0.0107999155 0.997192323 -0.0740993917
vn -0.245005086 0.949419737 -0.19640404
vn -0.142103821 0.8606233 0.489013225
vn -0.0934959427 0.923759878 0.371383965
vn -0.113402218 0.905817926 0.408208072
vn 0.0426013581 0.998831928 -0.0228006858
vn 0.286803693 0.857411027 -0.42730552
vn 0.230411887 0.796841204 -0.558528841
vn -0.2247089 0.541621506 -0.810032189
vn -0.40422076 -0.0801040828 -0.911146939
vn 0.400800973 0.565001428 -0.721201777
vn 0.102202289 0.323707342 -0.940621257
vn 0.38071385 0.700325549 -0.603821993
vn -0.130701512 0.991111517 -0.0248002429
vn 0 0.999687433 -0.0249996446
vn -0.153994039 0.987261832 -0.0399984084
vn 0 0.999952972 -0.00969949923
vn 0.130701512 0.991111517 -0.0248002429
vn 0.153994039 0.987261832 -0.0399984084
vn 0.376385629 -0.12809515 0.917564988
vn 0.0430997424 -0.137999237 0.989494145
vn 0.0446010903 -0.137303427 0.989524364
vn 0.703189969 -0.0988986269 0.704090118
vn 0.999989212 -0.000599993742 0.00459995074
vn 0.999989212 -0.000699992699 0.00459995074
vn 0.833799243 0.0767999664 -0.546699584
vn 0.742131472 0.0933039933 -0.663728178
vn 0.433402389 0.12560074 -0.892404974
vn 0.191400886 0.137700692 -0.971804619
vn -0.04830008 0.140500292 -0.988901794
vn -0.0460018292 0.141705692 -0.988839388
vn 0.970231771 -0.240107864 -0.0316010453
vn 0.970270634 -0.239492774 -0.0348989554
vn 0.969900846 -0.24100022 -0.0348000452
vn 0.980061948 -0.195292428 -0.0365985893
vn 0.988991499 -0.14679876 -0.0185998492
vn 0.994463384 -0.103296198 -0.0192992967
vn 0.992786169 -0.119898334 9.99933618e-05
vn 0.990318179 -0.138402566 -0.0107002044
vn -0.191400886 0.137700692 -0.971804619
vn 0.04830008 0.140500292 -0.988901794
vn 0.0460018292 0.141705692 -0.988839388
vn -0.433402389 0.12560074 -0.892404974
vn -0.742131472 0.0933039933 -0.663728178
vn -0.833799243 0.0767999664 -0.546699584
vn -0.999989212 -0.000599993742 0.00459995074
vn -0.999989212 -0.000699992699 0.00459995074
vn -0.703189969 -0.0988986269 0.704090118
vn -0.376385629 -0.12809515 0.917564988
vn -0.0430997424 -0.137999237 0.989494145
vn -0.0446010903 -0.137303427 0.989524364
vn -0.520709753 0.20190385 -0.829515576
vn -0.596026778 -0.0624027662 -0.800536036
vn -0.488594413 0.559393764 -0.66959244
vn -0.418102294 0.6049034 -0.677703679
vn -0.193099305 0.727297485 -0.658597648
vn -0.300690621 0.363888711 -0.881572545
vn 0.187002197 0.728608668 -0.658907771
vn 0.316093534 0.888181865 -0.333493143
vn 0.579479218 0.689575255 -0.434384406
vn -0.185306191 0.932831228 -0.309010327
vn 0.0161992703 0.991655469 -0.127894208
vn 0.383390754 0.923577905 0.00389994658
vn 0.598696589 0.74659586 -0.290098369
vn 0.707582593 0.601285338 -0.371190906
vn 0.592793345 0.796091139 -0.121798597
vn -0.16560024 0.958901525 -0.230400309
vn -0.0555017553 0.996531546 -0.0620019175
vn -0.057499975 0.995999575 -0.0683999285
vn 0.0414000861 0.999102116 -0.00899997447
vn 0.226296365 0.970084429 0.0878986344
vn 0.380600959 0.914202392 0.139200419
vn 0.422895998 0.896891773 0.129398853
vn -0.0115998611 0.999788165 0.0169998445
vn 0.00660026772 0.998640716 0.0517021455
vn 0.019300757 0.997539163 0.0674026906
vn 0.093204923 0.973051488 0.210911214
vn 0.0838030428 0.993036091 0.0828030556
vn 0.134299994 0.96780014 0.212900057
vn 0.223309681 0.965141952 0.136505976
vn 0.169204861 0.884825408 0.434112549
vn 0.122295596 0.869868755 0.477882832
vn 0.279709011 0.933730125 0.223407239
vn 0.360693544 0.915483594 0.178296849
vn 0.18599318 0.899267018 0.395885527
vn 0.362494916 0.907787204 0.210997075
vn 0.218389124 0.891955614 0.395880401
vn -0.00630015461 0.786219299 0.617915332
vn 0.0262997877 0.794193685 0.607095242
vn 0.15120016 0.79200089 0.5915007
vn 0.260901779 -0.612704217 -0.746005237
vn 0.495100856 -0.178500295 -0.850301564
vn 0.559784532 -0.234793484 -0.794678032
vn 0.154103294 -0.481810331 -0.862618625
vn 0.234587982 -0.0840956569 -0.968450487
vn -0.228700176 -0.659900606 -0.715700686
vn -0.171607777 -0.839638293 -0.51532352
vn -0.315887809 -0.851667225 -0.418183923
vn -0.424800515 -0.680100918 -0.597500801
vn -0.376085669 -0.791969836 -0.480981737
vn -0.20420377 -0.87991643 -0.429008067
vn -0.315203905 -0.911011398 -0.265903354
vn -0.1789933 -0.975063682 -0.131195143
vn -0.140001312 -0.979609251 -0.144101396
vn -0.398382306 -0.888560534 -0.227489963
vn -0.419187456 -0.89097333 -0.174494818
vn -0.298388511 -0.944863796 -0.134894878
vn -0.184002519 -0.9797135 -0.079401128
vn -0.0782014877 -0.995419204 -0.0550010987
vn -0.0560993887 -0.99818927 -0.0216998123
vn -0.0433982462 -0.99895972 0.0139993913
vn -0.464501858 -0.875603557 -0.132500559
vn -0.408019811 -0.905144095 -0.119305842
vn -0.275606453 -0.959022641 -0.065701589
vn -0.126703501 -0.991927445 0.00510009751
vn -0.215408638 -0.97333914 0.078803122
vn 0.0136002218 -0.971315801 0.237403825
vn -0.0183996353 -0.997780263 0.0639986992
vn -0.430697292 -0.902294397 -0.0190999229
vn -0.360709906 -0.904024959 0.229406297
vn -0.0911055654 -0.904455364 0.416725457
vn 0.10070578 -0.809346616 0.578633249
vn 0.159498781 -0.873793364 0.459396452
vn -0.00679981848 -0.994073451 0.108497061
vn -0.566021442 -0.822431266 0.0568021238
vn -0.603790581 -0.724488795 0.332494855
vn -0.336915046 -0.78303504 0.522823453
vn -0.693193257 -0.586594403 0.418796003
vn -0.619381249 -0.42488718 0.660179973
vn 0.291599721 -0.584999502 0.756799281
vn 0 -0.996738195 0.0807030499
vn 0.215790063 -0.973255277 0.0787963271
vn 0.320989192 -0.935668588 0.146595016
vn 0 -0.999952972 0.00969949923
vn -0.215790063 -0.973255277 0.0787963271
vn -0.320989192 -0.935668588 0.146595016
vn 0.76592797 -0.00190004148 -0.642923534
vn 0.831605196 -0.0327001847 -0.554403603
vn 0.772803187 0.0327001624 -0.633802712
vn 0.884632647 -0.0750027448 -0.460217029
vn 0.987228274 -0.129203722 -0.0932026878
vn 0.973283708 -0.104598261 0.204396605
vn 0.881755054 -0.0984061584 0.461328745
vn 0.883780956 -0.0238995068 0.467289954
vn 0 -0.917956531 0.39668113
vn 0 -0.848996818 0.528397977
vn 0 -0.967517376 0.252804488
vn 0 -0.98619312 -0.165598914
vn 0 -0.957417965 -0.288705498
vn -0.0560994893 -0.965891302 -0.252797753
vn 0.0748003274 -0.954704165 -0.288001299
vn 0 -0.932523549 -0.361109078
vn 0.22190015 -0.907600701 -0.356400371
vn -0.22190015 -0.907600701 -0.356400371
vn 0.488594413 0.559393764 -0.66959244
vn 0.596026778 -0.0624027662 -0.800536036
vn 0.520709753 0.20190385 -0.829515576
vn 0.418102294 0.6049034 -0.677703679
vn 0.185306191 0.932831228 -0.309010327
vn 0.16560024 0.958901525 -0.230400309
vn 0.0555017553 0.996531546 -0.0620019175
vn 0.193099305 0.727297485 -0.658597648
vn -0.0161992703 0.991655469 -0.127894208
vn 0.057499975 0.995999575 -0.0683999285
vn 0.0115998611 0.999788165 0.0169998445
vn -0.00660026772 0.998640716 0.0517021455
vn -0.019300757 0.997539163 0.0674026906
vn -0.093204923 0.973051488 0.210911214
vn 0.300690621 0.363888711 -0.881572545
vn -0.187002197 0.728608668 -0.658907771
vn -0.316093534 0.888181865 -0.333493143
vn -0.383390754 0.923577905 0.00389994658
vn -0.226296365 0.970084429 0.0878986344
vn -0.0414000861 0.999102116 -0.00899997447
vn -0.579479218 0.689575255 -0.434384406
vn -0.598696589 0.74659586 -0.290098369
vn -0.592793345 0.796091139 -0.121798597
vn -0.422895998 0.896891773 0.129398853
vn -0.380600959 0.914202392 0.139200419
vn -0.707582593 0.601285338 -0.371190906
vn -0.0838030428 0.993036091 0.0828030556
vn -0.223309681 0.965141952 0.136505976
vn -0.134299994 0.96780014 0.212900057
vn -0.360693544 0.915483594 0.178296849
vn -0.279709011 0.933730125 0.223407239
vn -0.122295596 0.869868755 0.477882832
vn -0.169204861 0.884825408 0.434112549
vn -0.18599318 0.899267018 0.395885527
vn -0.362494916 0.907787204 0.210997075
vn -0.218389124 0.891955614 0.395880401
vn 0.00630015461 0.786219299 0.617915332
vn -0.0262997877 0.794193685 0.607095242
vn -0.15120016 0.79200089 0.5915007
vn -0.495100856 -0.178500295 -0.850301564
vn -0.260901779 -0.612704217 -0.746005237
vn -0.559784532 -0.234793484 -0.794678032
vn -0.154103294 -0.481810331 -0.862618625
vn 0.171607777 -0.839638293 -0.51532352
vn 0.20420377 -0.87991643 -0.429008067
vn 0.315203905 -0.911011398 -0.265903354
vn 0.398382306 -0.888560534 -0.227489963
vn 0.419187456 -0.89097333 -0.174494818
vn 0.464501858 -0.875603557 -0.132500559
vn -0.234587982 -0.0840956569 -0.968450487
vn 0.228700176 -0.659900606 -0.715700686
vn 0.315887809 -0.851667225 -0.418183923
vn 0.1789933 -0.975063682 -0.131195143
vn 0.298388511 -0.944863796 -0.134894878
vn 0.408019811 -0.905144095 -0.119305842
vn 0.430697292 -0.902294397 -0.0190999229
vn 0.566021442 -0.822431266 0.0568021238
vn 0.424800515 -0.680100918 -0.597500801
vn 0.376085669 -0.791969836 -0.480981737
vn 0.140001312 -0.979609251 -0.144101396
vn 0.0782014877 -0.995419204 -0.0550010987
vn 0.184002519 -0.9797135 -0.079401128
vn 0.275606453 -0.959022641 -0.065701589
vn 0.215408638 -0.97333914 0.078803122
vn 0.360709906 -0.904024959 0.229406297
vn 0.603790581 -0.724488795 0.332494855
vn 0.693193257 -0.586594403 0.418796003
vn 0.0560993887 -0.99818927 -0.0216998123
vn 0.0433982462 -0.99895972 0.0139993913
vn 0.0183996353 -0.997780263 0.0639986992
vn 0.00679981848 -0.994073451 0.108497061
vn -0.0136002218 -0.971315801 0.237403825
vn 0.126703501 -0.991927445 0.00510009751
vn -0.159498781 -0.873793364 0.459396452
vn -0.10070578 -0.809346616 0.578633249
vn 0.0911055654 -0.904455364 0.416725457
vn 0.336915046 -0.78303504 0.522823453
vn -0.291599721 -0.584999502 0.756799281
vn 0.619381249 -0.42488718 0.660179973
vn -0.575093448 -0.282696873 0.767691314
vn -0.663113177 -0.447108954 0.600311995
vn -0.647273481 -0.318186998 0.692671657
vn -0.638995349 -0.568195939 0.518496215
vn -0.604404628 -0.776606143 0.177701354
vn -0.347392201 -0.92097944 0.176396012
vn -0.571724534 -0.814534962 0.0983042046
vn -0.316317439 -0.946552336 0.0631034449
vn -0.543804109 -0.839206457 0.00309998705
vn -0.437398165 -0.524597943 0.730397046
vn -0.376599282 -0.771498621 0.512799025
vn 0.000900031009 -0.918631792 0.395113587
vn 0.0127994502 -0.983657897 0.179592267
vn -0.0328004956 -0.995815098 0.0853012428
vn -0.100498617 -0.993186295 -0.0589992255
vn -0.3560085 -0.921721995 -0.153903708
vn -0.361603975 -0.859309435 -0.361704022
vn -0.0191005468 -0.768122137 0.640018344
vn 0.144901618 -0.850509524 0.505605638
vn 0.0654019937 -0.95502919 0.28920877
vn 0.663113177 -0.447108954 0.600311995
vn 0.575093448 -0.282696873 0.767691314
vn 0.647273481 -0.318186998 0.692671657
vn 0.638995349 -0.568195939 0.518496215
vn 0.437398165 -0.524597943 0.730397046
vn 0.376599282 -0.771498621 0.512799025
vn 0.0191005468 -0.768122137 0.640018344
vn -0.000900031009 -0.918631792 0.395113587
vn -0.144901618 -0.850509524 0.505605638
vn -0.0654019937 -0.95502919 0.28920877
vn 0.604404628 -0.776606143 0.177701354
vn 0.347392201 -0.92097944 0.176396012
vn -0.0127994502 -0.983657897 0.179592267
vn 0.571724534 -0.814534962 0.0983042046
vn 0.316317439 -0.946552336 0.0631034449
vn 0.0328004956 -0.995815098 0.0853012428
vn 0.543804109 -0.839206457 0.00309998705
vn 0.3560085 -0.921721995 -0.153903708
vn 0.100498617 -0.993186295 -0.0589992255
vn 0.361603975 -0.859309435 -0.361704022
vn 0.24170953 -0.801531732 -0.54692167
vn 0.299899966 -0.789899945 -0.53490001
vn 0.290986657 -0.874260008 -0.388582289
vn 0.261704147 -0.898314238 -0.352905691
vn 0.399190545 -0.71848309 -0.569586575
vn 0.378998697 -0.670597732 -0.637697875
vn 0.112696819 -0.762178481 -0.637482047
vn 0.200991184 -0.752167046 -0.627572536
vn 0.21540384 -0.649611592 -0.729113102
vn -0.293897867 -0.945793271 -0.138199061
vn -0.287599921 -0.947299838 -0.141100034
vn -0.298587143 -0.942759454 -0.148493648
vn -0.296392113 -0.945774913 -0.132896498
vn 0 -0.99027878 -0.139097065
vn 0.296392113 -0.945774913 -0.132896498
vn 0.293897867 -0.945793271 -0.138199061
vn 0.287599921 -0.947299838 -0.141100034
vn 0.298587143 -0.942759454 -0.148493648
vn -0.848189294 -2.31536283e-08 0.529693246
vn -0.847998261 -2.31669866e-08 0.529998958
vn -0.848262131 -2.31485195e-08 0.52957648
vn -0.848116219 -2.31587389e-08 0.529810131
vn 0.425088495 -0.8742764 -0.234393746
vn -0.0578993447 -0.664892495 -0.74469161
vn 0.473677039 -0.848659039 -0.235388696
vn -0.0929009616 -0.665706933 -0.740407705
vn -0.756870389 -0.0654974207 -0.650274634
vn -0.756476521 -0.117496334 -0.643380046
vn -0.925970197 -0.0246991925 -0.376787901
vn -0.920146823 0.0557967983 -0.387577623
vn 0.450099081 -0.637798786 0.624998808
vn 0.483404756 -0.560405672 0.67250669
vn 0.474898368 -0.609197974 0.635097861
vn 0.509926021 -0.476424456 0.716236711
vn 0.512385249 -0.421887964 0.747978508
vn 0.529223025 -0.386516869 0.755332768
vn -0.899113536 -0.0249003973 0.437006593
vn -0.923376441 -0.0848978609 0.374390483
vn -0.877273917 -0.00999972317 0.479885727
vn -0.865204692 0.0349001661 0.500202775
vn -0.851200998 -0.00640003197 0.524800777
vn -0.854025781 0.0181005262 0.51991576
vn -0.855897129 0.0277998876 0.516398311
vn -0.818609595 0.0637007281 0.570806801
vn -0.795303404 0.0808003247 0.6008026
vn -0.724511325 0.160102502 0.670410633
vn 0.847998261 -2.31669866e-08 0.529998958
vn 0.848189294 -2.31536283e-08 0.529693246
vn 0.848262131 -2.31485195e-08 0.52957648
vn 0.848116219 -2.31587389e-08 0.529810131
vn 0.277907729 0.950526536 0.138803929
vn 0.302697062 0.943690836 0.133498743
vn 0.293891311 0.946172059 0.135596052
vn 0.323898137 0.936894655 0.131599292
vn 0 0.990390539 0.13829872
vn 0 0.990501761 0.137500286
vn -0.302697062 0.943690836 0.133498743
vn -0.323898137 0.936894655 0.131599292
vn -0.293891311 0.946172059 0.135596052
vn -0.277907729 0.950526536 0.138803929
vn 0.0578993447 -0.664892495 -0.74469161
vn -0.425088495 -0.8742764 -0.234393746
vn -0.473677039 -0.848659039 -0.235388696
vn 0.0929009616 -0.665706933 -0.740407705
vn 0.756870389 -0.0654974207 -0.650274634
vn 0.756476521 -0.117496334 -0.643380046
vn 0.925970197 -0.0246991925 -0.376787901
vn 0.920146823 0.0557967983 -0.387577623
vn -0.483404756 -0.560405672 0.67250669
vn -0.450099081 -0.637798786 0.624998808
vn -0.474898368 -0.609197974 0.635097861
vn -0.509926021 -0.476424456 0.716236711
vn -0.512385249 -0.421887964 0.747978508
vn -0.529223025 -0.386516869 0.755332768
vn 0.923376441 -0.0848978609 0.374390483
vn 0.899113536 -0.0249003973 0.437006593
vn 0.877273917 -0.00999972317 0.479885727
vn 0.865204692 0.0349001661 0.500202775
vn 0.851200998 -0.00640003197 0.524800777
vn 0.854025781 0.0181005262 0.51991576
vn 0.855897129 0.0277998876 0.516398311
vn 0.818609595 0.0637007281 0.570806801
vn 0.795303404 0.0808003247 0.6008026
vn 0.724511325 0.160102502 0.670410633
vn -0.24170953 -0.801531732 -0.54692167
vn -0.299899966 -0.789899945 -0.53490001
vn -0.21540384 -0.649611592 -0.729113102
vn -0.200991184 -0.752167046 -0.627572536
vn -0.112696819 -0.762178481 -0.637482047
vn -0.290986657 -0.874260008 -0.388582289
vn -0.378998697 -0.670597732 -0.637697875
vn -0.261704147 -0.898314238 -0.352905691
vn -0.399190545 -0.71848309 -0.569586575

# Mesh 'PipelineFBX' with 513 faces
g PipelineFBX
usemtl DefaultMaterial
f  1/1/1 2/2/2 3/3/3
f  4/2/2 5/1/1 6/4/4
f  7/5/5 8/4/4 9/1/1
f  10/4/4 11/5/5 12/6/6
f  13/7/7 14/6/6 15/5/5
f  16/6/6 17/7/7 18/8/8
f  19/9/9 20/10/10 21/11/11
f  22/10/10 23/9/9 24/12/12
f  25/9/9 26/13/13 27/12/12
f  28/13/13 29/9/9 30/14/14
f  31/14/14 32/15/15 33/13/13
f  34/15/15 35/14/14 36/16/16
f  37/17/17 38/18/18 39/19/19
f  40/18/18 41/17/17 42/20/20
f  43/20/20 44/21/21 45/18/18
f  46/21/21 47/20/20 48/22/22
f  49/23/23 50/21/21 51/22/22
f  52/21/21 53/23/23 54/24/24
f  55/25/25 56/24/24 57/23/23
f  58/24/24 59/25/25 60/26/26
f  61/27/27 62/20/20 63/17/17
f  64/20/20 65/27/27 66/28/28
f  67/28/28 68/22/22 69/20/20
f  70/22/22 71/28/28 72/29/29
f  73/22/22 74/29/29 75/23/23
f  76/30/30 77/23/23 78/29/29
f  79/23/23 80/30/30 81/25/25
f  82/31/31 83/28/28 84/27/27
f  85/28/28 86/31/31 87/32/32
f  88/32/32 89/29/29 90/28/28
f  91/29/29 92/32/32 93/33/33
f  94/34/34 95/29/29 96/33/33
f  97/29/29 98/34/34 99/30/30
f  100/35/35 101/32/32 102/31/31
f  103/32/32 104/35/35 105/36/36
f  106/32/32 107/36/36 108/33/33
f  109/36/36 110/37/37 111/33/33
f  112/37/37 113/38/38 114/33/33
f  115/38/38 116/34/34 117/33/33
f  118/34/34 119/38/38 120/39/39
f  121/38/38 122/40/40 123/39/39
f  124/41/41 125/36/36 126/35/35
f  127/36/36 128/41/41 129/42/42
f  130/42/42 131/37/37 132/36/36
f  133/37/37 134/42/42 135/43/43
f  136/44/44 137/37/37 138/43/43
f  139/37/37 140/44/44 141/38/38
f  142/40/40 143/38/38 144/44/44
f  145/45/45 146/40/40 147/44/44
f  148/40/40 149/45/45 150/46/46
f  151/47/47 152/42/42 153/41/41
f  154/42/42 155/47/47 156/48/48
f  157/48/48 158/43/43 159/42/42
f  160/43/43 161/48/48 162/49/49
f  163/49/49 164/44/44 165/43/43
f  166/44/44 167/49/49 168/45/45
f  169/18/50 170/17/51 171/19/52
f  172/17/51 173/18/50 174/20/53
f  175/20/53 176/27/54 177/17/51
f  178/27/54 179/20/53 180/28/55
f  181/28/55 182/31/56 183/27/54
f  184/31/56 185/28/55 186/32/57
f  187/32/57 188/35/58 189/31/56
f  190/21/59 191/20/53 192/18/50
f  193/20/53 194/21/59 195/22/60
f  196/22/60 197/28/55 198/20/53
f  199/28/55 200/22/60 201/29/61
f  202/29/61 203/32/57 204/28/55
f  205/32/57 206/29/61 207/33/62
f  208/36/63 209/32/57 210/33/62
f  211/35/58 212/32/57 213/36/63
f  214/36/63 215/41/64 216/35/58
f  217/41/64 218/36/63 219/42/65
f  220/42/65 221/47/66 222/41/64
f  223/21/59 224/23/67 225/22/60
f  226/29/61 227/22/60 228/23/67
f  229/23/67 230/30/68 231/29/61
f  232/34/69 233/29/61 234/30/68
f  235/29/61 236/34/69 237/33/62
f  238/34/69 239/38/70 240/33/62
f  241/38/70 242/37/71 243/33/62
f  244/37/71 245/36/63 246/33/62
f  247/37/71 248/42/65 249/36/63
f  250/23/67 251/21/59 252/24/72
f  253/24/72 254/25/73 255/23/67
f  256/30/68 257/23/67 258/25/73
f  259/25/73 260/24/72 261/26/74
f  262/38/70 263/34/69 264/39/75
f  265/40/76 266/38/70 267/39/75
f  268/38/70 269/40/76 270/44/77
f  271/44/77 272/37/71 273/38/70
f  274/37/71 275/44/77 276/43/78
f  277/42/65 278/37/71 279/43/78
f  280/43/78 281/48/79 282/42/65
f  283/47/66 284/42/65 285/48/79
f  286/40/76 287/45/80 288/44/77
f  289/49/81 290/44/77 291/45/80
f  292/44/77 293/49/81 294/43/78
f  295/48/79 296/43/78 297/49/81
f  298/45/80 299/40/76 300/46/82
f  301/50/83 302/51/84 303/52/85
f  304/51/84 305/50/83 306/53/86
f  307/54/87 308/51/84 309/53/86
f  310/51/84 311/54/87 312/55/88
f  313/56/89 314/57/90 315/58/91
f  316/57/90 317/56/89 318/59/92
f  319/60/93 320/59/92 321/56/89
f  322/59/92 323/60/93 324/61/94
f  325/60/93 326/62/95 327/61/94
f  328/62/95 329/60/93 330/63/96
f  331/63/96 332/64/97 333/62/95
f  334/64/97 335/63/96 336/65/98
f  337/65/98 338/66/99 339/64/97
f  340/66/99 341/65/98 342/67/100
f  343/14/101 344/15/102 345/16/103
f  346/15/102 347/14/101 348/13/104
f  349/9/105 350/13/104 351/14/101
f  352/13/104 353/9/105 354/12/106
f  355/9/105 356/10/107 357/12/106
f  358/10/107 359/9/105 360/11/108
f  361/65/109 362/66/110 363/67/111
f  364/66/110 365/65/109 366/64/112
f  367/63/113 368/64/112 369/65/109
f  370/64/112 371/63/113 372/62/114
f  373/60/115 374/62/114 375/63/113
f  376/62/114 377/60/115 378/61/116
f  379/60/115 380/59/117 381/61/116
f  382/59/117 383/60/115 384/56/118
f  385/56/118 386/57/119 387/59/117
f  388/57/119 389/56/118 390/58/120
f  391/68/121 392/69/122 393/70/123
f  394/70/123 395/71/124 396/68/121
f  397/72/125 398/68/121 399/71/124
f  400/68/121 401/72/125 402/73/126
f  403/73/126 404/72/125 405/74/127
f  406/72/125 407/75/128 408/74/127
f  409/75/128 410/76/129 411/74/127
f  412/70/123 413/77/130 414/71/124
f  415/72/125 416/71/124 417/77/130
f  418/77/130 419/78/131 420/72/125
f  421/75/128 422/72/125 423/78/131
f  424/79/132 425/75/128 426/78/131
f  427/80/133 428/75/128 429/79/132
f  430/76/129 431/75/128 432/80/133
f  433/80/133 434/81/134 435/76/129
f  436/81/134 437/80/133 438/82/135
f  439/77/130 440/70/123 441/83/136
f  442/84/137 443/77/130 444/83/136
f  445/77/130 446/84/137 447/78/131
f  448/78/131 449/84/137 450/85/138
f  451/85/138 452/86/139 453/78/131
f  454/87/140 455/78/131 456/86/139
f  457/79/132 458/78/131 459/87/140
f  460/87/140 461/88/141 462/79/132
f  463/88/141 464/89/142 465/79/132
f  466/82/135 467/79/132 468/89/142
f  469/79/132 470/82/135 471/80/133
f  472/90/143 473/85/138 474/84/137
f  475/91/144 476/90/143 477/84/137
f  478/90/143 479/91/144 480/92/145
f  481/92/145 482/91/144 483/93/146
f  484/93/146 485/94/147 486/92/145
f  487/95/148 488/94/147 489/93/146
f  490/96/149 491/94/147 492/95/148
f  493/96/149 494/87/140 495/94/147
f  496/87/140 497/86/139 498/94/147
f  499/97/150 500/95/148 501/93/146
f  502/95/148 503/97/150 504/98/151
f  505/95/148 506/98/151 507/99/152
f  508/99/152 509/96/149 510/95/148
f  511/100/153 512/96/149 513/99/152
f  514/100/153 515/87/140 516/96/149
f  517/87/140 518/100/153 519/88/141
f  520/100/153 521/89/142 522/88/141
f  523/97/150 524/93/146 525/101/154
f  526/89/142 527/100/153 528/102/155
f  529/100/153 530/99/152 531/102/155
f  532/102/155 533/99/152 534/103/156
f  535/98/151 536/103/156 537/99/152
f  538/103/156 539/98/151 540/104/157
f  541/98/151 542/105/158 543/104/157
f  544/105/158 545/98/151 546/106/159
f  547/106/159 548/98/151 549/97/150
f  550/107/160 551/108/161 552/109/162
f  553/108/161 554/107/160 555/110/163
f  556/110/163 557/111/164 558/108/161
f  559/111/164 560/110/163 561/112/165
f  562/113/166 563/112/165 564/110/163
f  565/112/165 566/113/166 567/114/167
f  568/114/167 569/115/168 570/112/165
f  571/115/168 572/114/167 573/116/169
f  574/107/160 575/113/166 576/110/163
f  577/113/166 578/107/160 579/117/170
f  580/118/171 581/113/166 582/117/170
f  583/118/171 584/114/167 585/113/166
f  586/119/172 587/114/167 588/118/171
f  589/119/172 590/120/173 591/114/167
f  592/120/173 593/116/169 594/114/167
f  595/118/171 596/117/170 597/121/174
f  598/121/174 599/122/175 600/118/171
f  601/123/176 602/118/171 603/122/175
f  604/123/176 605/119/172 606/118/171
f  607/119/172 608/123/176 609/124/177
f  610/119/172 611/124/177 612/125/178
f  613/120/173 614/119/172 615/125/178
f  616/120/173 617/125/178 618/126/179
f  619/126/179 620/127/180 621/120/173
f  622/122/175 623/121/174 624/128/181
f  625/128/181 626/129/182 627/122/175
f  628/122/175 629/129/182 630/123/176
f  631/123/176 632/129/182 633/130/183
f  634/130/183 635/124/177 636/123/176
f  637/124/177 638/130/183 639/131/184
f  640/132/185 641/131/184 642/130/183
f  643/132/185 644/133/186 645/131/184
f  646/134/187 647/131/184 648/133/186
f  649/129/182 650/128/181 651/135/188
f  652/135/188 653/130/183 654/129/182
f  655/130/183 656/135/188 657/132/185
f  658/132/185 659/135/188 660/136/189
f  661/137/190 662/132/185 663/136/189
f  664/137/190 665/133/186 666/132/185
f  667/133/186 668/137/190 669/138/191
f  670/138/191 671/139/192 672/133/186
f  673/139/192 674/140/193 675/133/186
f  676/140/193 677/134/187 678/133/186
f  679/135/188 680/128/181 681/141/194
f  682/141/194 683/142/195 684/135/188
f  685/136/189 686/135/188 687/142/195
f  688/142/195 689/143/196 690/136/189
f  691/143/196 692/137/190 693/136/189
f  694/137/190 695/143/196 696/138/191
f  697/142/195 698/141/194 699/144/197
f  700/145/198 701/142/195 702/144/197
f  703/143/196 704/142/195 705/145/198
f  706/146/199 707/139/192 708/138/191
f  709/127/180 710/134/187 711/140/193
f  712/134/187 713/127/180 714/126/179
f  715/147/200 716/148/201 717/149/202
f  718/148/201 719/147/200 720/150/203
f  721/147/200 722/151/204 723/150/203
f  724/151/204 725/147/200 726/152/205
f  727/7/206 728/6/207 729/8/208
f  730/6/207 731/7/206 732/5/209
f  733/5/209 734/4/210 735/6/207
f  736/4/210 737/5/209 738/1/211
f  739/1/211 740/2/212 741/4/210
f  742/2/212 743/1/211 744/3/213
f  745/153/214 746/154/215 747/155/215
f  748/154/215 749/153/214 750/156/216
f  751/157/217 752/156/216 753/153/214
f  754/156/216 755/157/217 756/158/217
f  757/157/217 758/159/218 759/158/217
f  760/159/218 761/157/217 762/160/218
f  763/161/219 764/159/218 765/160/218
f  766/159/218 767/161/219 768/162/220
f  769/163/221 770/162/220 771/161/219
f  772/162/220 773/163/221 774/164/222
f  775/165/223 776/163/221 777/161/219
f  778/70/224 779/69/225 780/68/226
f  781/68/226 782/71/227 783/70/224
f  784/77/228 785/70/224 786/71/227
f  787/70/224 788/77/228 789/83/229
f  790/77/228 791/84/230 792/83/229
f  793/68/226 794/72/231 795/71/227
f  796/71/227 797/72/231 798/77/228
f  799/78/232 800/77/228 801/72/231
f  802/84/230 803/77/228 804/78/232
f  805/84/230 806/78/232 807/85/233
f  808/85/233 809/90/234 810/84/230
f  811/90/234 812/91/235 813/84/230
f  814/91/235 815/90/234 816/92/236
f  817/91/235 818/92/236 819/93/237
f  820/72/231 821/68/226 822/73/238
f  823/72/231 824/73/238 825/74/239
f  826/75/240 827/72/231 828/74/239
f  829/72/231 830/75/240 831/78/232
f  832/75/240 833/79/241 834/78/232
f  835/78/232 836/79/241 837/87/242
f  838/78/232 839/87/242 840/86/243
f  841/86/243 842/85/233 843/78/232
f  844/76/244 845/75/240 846/74/239
f  847/75/240 848/76/244 849/80/245
f  850/75/240 851/80/245 852/79/241
f  853/82/246 854/79/241 855/80/245
f  856/79/241 857/82/246 858/89/247
f  859/89/247 860/88/248 861/79/241
f  862/88/248 863/87/242 864/79/241
f  865/81/249 866/80/245 867/76/244
f  868/80/245 869/81/249 870/82/246
f  871/86/243 872/87/242 873/94/250
f  874/87/242 875/96/251 876/94/250
f  877/94/250 878/96/251 879/95/252
f  880/94/250 881/95/252 882/93/237
f  883/94/250 884/93/237 885/92/236
f  886/87/242 887/100/253 888/96/251
f  889/96/251 890/100/253 891/99/254
f  892/96/251 893/99/254 894/95/252
f  895/98/255 896/95/252 897/99/254
f  898/97/256 899/95/252 900/98/255
f  901/95/252 902/97/256 903/93/237
f  904/93/237 905/97/256 906/101/257
f  907/100/253 908/87/242 909/88/248
f  910/89/247 911/100/253 912/88/248
f  913/100/253 914/89/247 915/102/258
f  916/99/254 917/100/253 918/102/258
f  919/99/254 920/102/258 921/103/259
f  922/103/259 923/98/255 924/99/254
f  925/98/255 926/103/259 927/104/260
f  928/105/261 929/98/255 930/104/260
f  931/98/255 932/105/261 933/106/262
f  934/98/255 935/106/262 936/97/256
f  937/108/263 938/107/264 939/109/265
f  940/107/264 941/108/263 942/110/266
f  943/113/267 944/107/264 945/110/266
f  946/107/264 947/113/267 948/117/268
f  949/113/267 950/118/269 951/117/268
f  952/117/268 953/118/269 954/121/270
f  955/122/271 956/121/270 957/118/269
f  958/121/270 959/122/271 960/128/272
f  961/111/273 962/110/266 963/108/263
f  964/110/266 965/111/273 966/112/274
f  967/112/274 968/113/267 969/110/266
f  970/113/267 971/112/274 972/114/275
f  973/114/275 974/118/269 975/113/267
f  976/114/275 977/119/276 978/118/269
f  979/119/276 980/123/277 981/118/269
f  982/118/269 983/123/277 984/122/271
f  985/129/278 986/122/271 987/123/277
f  988/129/278 989/128/272 990/122/271
f  991/128/272 992/129/278 993/135/279
f  994/128/272 995/135/279 996/141/280
f  997/115/281 998/114/275 999/112/274
f  1000/114/275 1001/115/281 1002/116/282
f  1003/116/282 1004/120/283 1005/114/275
f  1006/120/283 1007/119/276 1008/114/275
f  1009/119/276 1010/120/283 1011/125/284
f  1012/124/285 1013/119/276 1014/125/284
f  1015/123/277 1016/119/276 1017/124/285
f  1018/124/285 1019/130/286 1020/123/277
f  1021/129/278 1022/123/277 1023/130/286
f  1024/130/286 1025/135/279 1026/129/278
f  1027/135/279 1028/130/286 1029/132/287
f  1030/135/279 1031/132/287 1032/136/288
f  1033/135/279 1034/136/288 1035/142/289
f  1036/142/289 1037/141/280 1038/135/279
f  1039/141/280 1040/142/289 1041/144/290
f  1042/125/284 1043/120/283 1044/126/291
f  1045/127/292 1046/126/291 1047/120/283
f  1048/127/292 1049/134/293 1050/126/291
f  1051/134/293 1052/127/292 1053/140/294
f  1054/134/293 1055/140/294 1056/133/295
f  1057/131/296 1058/134/293 1059/133/295
f  1060/133/295 1061/132/287 1062/131/296
f  1063/131/296 1064/132/287 1065/130/286
f  1066/130/286 1067/124/285 1068/131/296
f  1069/140/294 1070/139/297 1071/133/295
f  1072/139/297 1073/138/298 1074/133/295
f  1075/137/299 1076/133/295 1077/138/298
f  1078/133/295 1079/137/299 1080/132/287
f  1081/132/287 1082/137/299 1083/136/288
f  1084/137/299 1085/143/300 1086/136/288
f  1087/143/300 1088/142/289 1089/136/288
f  1090/139/297 1091/146/301 1092/138/298
f  1093/143/300 1094/137/299 1095/138/298
f  1096/142/289 1097/143/300 1098/145/302
f  1099/142/289 1100/145/302 1101/144/290
f  1102/166/303 1103/167/304 1104/168/305
f  1105/167/304 1106/166/303 1107/169/306
f  1108/169/306 1109/170/307 1110/167/304
f  1111/170/307 1112/169/306 1113/171/308
f  1114/171/308 1115/172/309 1116/170/307
f  1117/172/309 1118/171/308 1119/173/310
f  1120/173/310 1121/174/311 1122/172/309
f  1123/175/312 1124/169/306 1125/166/303
f  1126/169/306 1127/175/312 1128/176/313
f  1129/171/308 1130/169/306 1131/176/313
f  1132/171/308 1133/176/313 1134/177/314
f  1135/177/314 1136/178/315 1137/171/308
f  1138/179/316 1139/171/308 1140/178/315
f  1141/171/308 1142/179/316 1143/173/310
f  1144/180/317 1145/173/310 1146/179/316
f  1147/173/310 1148/180/317 1149/181/318
f  1150/174/311 1151/173/310 1152/181/318
f  1153/181/318 1154/182/319 1155/174/311
f  1156/183/320 1157/176/313 1158/175/312
f  1159/176/313 1160/183/320 1161/177/314
f  1162/184/321 1163/177/314 1164/183/320
f  1165/177/314 1166/184/321 1167/185/322
f  1168/178/315 1169/177/314 1170/185/322
f  1171/167/323 1172/166/324 1173/168/325
f  1174/166/324 1175/167/323 1176/169/326
f  1177/169/326 1178/175/327 1179/166/324
f  1180/175/327 1181/169/326 1182/176/328
f  1183/176/328 1184/183/329 1185/175/327
f  1186/183/329 1187/176/328 1188/177/330
f  1189/177/330 1190/184/331 1191/183/329
f  1192/184/331 1193/177/330 1194/185/332
f  1195/170/333 1196/169/326 1197/167/323
f  1198/169/326 1199/170/333 1200/171/334
f  1201/169/326 1202/171/334 1203/176/328
f  1204/176/328 1205/171/334 1206/177/330
f  1207/178/335 1208/177/330 1209/171/334
f  1210/177/330 1211/178/335 1212/185/332
f  1213/172/336 1214/171/334 1215/170/333
f  1216/171/334 1217/172/336 1218/173/337
f  1219/179/338 1220/171/334 1221/173/337
f  1222/171/334 1223/179/338 1224/178/335
f  1225/174/339 1226/173/337 1227/172/336
f  1228/173/337 1229/174/339 1230/181/340
f  1231/180/341 1232/173/337 1233/181/340
f  1234/173/337 1235/180/341 1236/179/338
f  1237/182/342 1238/181/340 1239/174/339
f  1240/181/340 1241/182/342 1242/186/343
f  1243/181/340 1244/186/343 1245/187/344
f  1246/188/345 1247/181/340 1248/187/344
f  1249/188/345 1250/180/341 1251/181/340
f  1252/180/341 1253/188/345 1254/189/346
f  1255/188/345 1256/190/347 1257/189/346
f  1258/190/347 1259/188/345 1260/191/348
f  1261/192/349 1262/186/343 1263/182/342
f  1264/186/343 1265/192/349 1266/193/350
f  1267/194/351 1268/186/343 1269/193/350
f  1270/186/343 1271/194/351 1272/187/344
f  1273/191/348 1274/187/344 1275/194/351
f  1276/187/344 1277/191/348 1278/188/345
f  1279/195/352 1280/196/353 1281/197/354
f  1282/196/353 1283/195/352 1284/198/355
f  1285/199/356 1286/198/355 1287/195/352
f  1288/198/355 1289/199/356 1290/200/356
f  1291/199/356 1292/201/357 1293/200/356
f  1294/201/357 1295/199/356 1296/202/358
f  1297/202/358 1298/203/359 1299/201/357
f  1300/203/359 1301/202/358 1302/204/360
f  1303/205/361 1304/206/362 1305/207/363
f  1306/207/363 1307/208/363 1308/205/361
f  1309/208/363 1310/207/363 1311/209/364
f  1312/209/364 1313/210/364 1314/208/363
f  1315/210/364 1316/209/364 1317/211/361
f  1318/211/361 1319/212/364 1320/210/364
f  1321/212/364 1322/211/361 1323/213/364
f  1324/214/362 1325/212/364 1326/213/364
f  1327/212/364 1328/214/362 1329/215/362
f  1330/214/362 1331/216/362 1332/215/362
f  1333/217/365 1334/218/366 1335/219/367
f  1336/220/368 1337/218/366 1338/217/365
f  1339/218/366 1340/220/368 1341/221/369
f  1342/222/370 1343/218/366 1344/221/369
f  1345/222/370 1346/221/369 1347/223/371
f  1348/221/369 1349/224/372 1350/223/371
f  1351/225/373 1352/226/374 1353/227/375
f  1354/227/375 1355/226/374 1356/228/376
f  1357/229/377 1358/228/376 1359/226/374
f  1360/230/378 1361/228/376 1362/229/377
f  1363/231/379 1364/232/380 1365/233/381
f  1366/231/379 1367/233/381 1368/234/382
f  1369/234/382 1370/233/381 1371/235/383
f  1372/233/381 1373/236/364 1374/235/383
f  1375/236/364 1376/237/384 1377/235/383
f  1378/237/384 1379/236/364 1380/238/385
f  1381/238/385 1382/239/386 1383/237/384
f  1384/238/385 1385/240/387 1386/239/386
f  1387/239/386 1388/240/387 1389/241/388
f  1390/206/389 1391/205/390 1392/207/391
f  1393/208/391 1394/207/391 1395/205/390
f  1396/207/391 1397/208/391 1398/209/392
f  1399/210/392 1400/209/392 1401/208/391
f  1402/209/392 1403/210/392 1404/211/390
f  1405/212/392 1406/211/390 1407/210/392
f  1408/211/390 1409/212/392 1410/213/392
f  1411/212/392 1412/214/389 1413/213/392
f  1414/214/389 1415/212/392 1416/215/389
f  1417/216/389 1418/214/389 1419/215/389
f  1420/242/393 1421/243/394 1422/244/395
f  1423/243/394 1424/245/396 1425/244/395
f  1426/243/394 1427/246/397 1428/245/396
f  1429/246/397 1430/243/394 1431/247/398
f  1432/248/399 1433/246/397 1434/247/398
f  1435/246/397 1436/248/399 1437/249/400
f  1438/249/400 1439/248/399 1440/250/401
f  1441/248/399 1442/251/402 1443/250/401
f  1444/218/403 1445/217/404 1446/219/405
f  1447/218/403 1448/220/406 1449/217/404
f  1450/220/406 1451/218/403 1452/221/407
f  1453/218/403 1454/222/408 1455/221/407
f  1456/221/407 1457/222/408 1458/223/409
f  1459/224/410 1460/221/407 1461/223/409
f  1462/226/411 1463/225/412 1464/227/413
f  1465/226/411 1466/227/413 1467/228/414
f  1468/228/414 1469/229/415 1470/226/411
f  1471/228/414 1472/230/416 1473/229/415
f  1474/232/417 1475/231/418 1476/233/419
f  1477/233/419 1478/231/418 1479/234/420
f  1480/233/419 1481/234/420 1482/235/421
f  1483/236/392 1484/233/419 1485/235/421
f  1486/237/422 1487/236/392 1488/235/421
f  1489/236/392 1490/237/422 1491/238/423
f  1492/239/424 1493/238/423 1494/237/422
f  1495/240/425 1496/238/423 1497/239/424
f  1498/240/425 1499/239/424 1500/241/426
f  1501/182/319 1502/181/318 1503/186/427
f  1504/186/427 1505/181/318 1506/187/428
f  1507/194/429 1508/186/427 1509/187/428
f  1510/186/427 1511/194/429 1512/193/430
f  1513/192/431 1514/186/427 1515/193/430
f  1516/186/427 1517/192/431 1518/182/319
f  1519/181/318 1520/188/432 1521/187/428
f  1522/191/433 1523/187/428 1524/188/432
f  1525/187/428 1526/191/433 1527/194/429
f  1528/180/317 1529/188/432 1530/181/318
f  1531/188/432 1532/180/317 1533/189/434
f  1534/190/435 1535/188/432 1536/189/434
f  1537/188/432 1538/190/435 1539/191/433

