# File produced by Open Asset Import Library (http://www.assimp.sf.net)
# (assimp v6.0.0)

mtllib ship16h.mtl

# 678 vertex positions
v -19.322998 5.33699799 49.4774971
v 0 2.9339962 85.8914948
v 0 7.77599573 86.1434937
v 0 2.9339962 85.8914948
v -19.322998 5.33699799 49.4774971
v -18.6480007 0.566997826 48.9599991
v -14.1569986 5.59349823 35.8964996
v -18.6480007 0.566997826 48.9599991
v -19.322998 5.33699799 49.4774971
v -18.6480007 0.566997826 48.9599991
v -14.1569986 5.59349823 35.8964996
v -13.401 0.229498461 35.3115005
v 0 7.12799883 19.3319988
v -13.401 0.229498461 35.3115005
v -14.1569986 5.59349823 35.8964996
v -13.401 0.229498461 35.3115005
v 0 7.12799883 19.3319988
v 0 2.28149915 19.0799999
v -15.6149998 -3.25349855 -31.2929993
v 0 4.78800201 -49.918499
v 0 -0.859497786 -50.206501
v 0 4.78800201 -49.918499
v -15.6149998 -3.25349855 -31.2929993
v -16.4969997 3.00150108 -30.6135006
v -21.7304993 -2.85749936 -15.3899994
v -16.4969997 3.00150108 -30.6135006
v -15.6149998 -3.25349855 -31.2929993
v -16.4969997 3.00150108 -30.6135006
v -21.7304993 -2.85749936 -15.3899994
v -22.5134983 2.70000052 -14.7869987
v 0 -0.0990012065 27.6480026
v -22.5134983 2.70000052 -14.7869987
v -21.7304993 -2.85749936 -15.3899994
v -22.5134983 2.70000052 -14.7869987
v 0 -0.0990012065 27.6480026
v 0 5.54399872 27.9405003
v 0 -7.76250362 96.0524979
v -2.17799997 -11.9430037 95.3730011
v 0 -12.6495037 95.3730011
v -2.17799997 -11.9430037 95.3730011
v 0 -7.76250362 96.0524979
v -2.17799997 -7.11000395 96.0524979
v -2.17799997 -7.11000395 96.0524979
v -25.3214989 1.35899794 48.5819969
v -2.17799997 -11.9430037 95.3730011
v -25.3214989 1.35899794 48.5819969
v -2.17799997 -7.11000395 96.0524979
v -25.3214989 6.48449755 49.3019981
v -13.0679998 6.74999857 22.9454975
v -25.3214989 1.35899794 48.5819969
v -25.3214989 6.48449755 49.3019981
v -25.3214989 1.35899794 48.5819969
v -13.0679998 6.74999857 22.9454975
v -13.0679998 1.62899899 22.2254982
v -2.17799997 4.48649883 13.5584993
v -13.0679998 1.62899899 22.2254982
v -13.0679998 6.74999857 22.9454975
v -13.0679998 1.62899899 22.2254982
v -2.17799997 4.48649883 13.5584993
v -2.17799997 -0.346500546 12.8789988
v 0 3.69449925 13.5584993
v -2.17799997 -0.346500546 12.8789988
v -2.17799997 4.48649883 13.5584993
v -2.17799997 -0.346500546 12.8789988
v 0 3.69449925 13.5584993
v 0 -1.05300057 12.8789988
v -2.53800011 -3.9239974 -57.4379997
v 0 0.787502408 -56.6459999
v 0 -4.74749708 -57.4379997
v 0 0.787502408 -56.6459999
v -2.53800011 -3.9239974 -57.4379997
v -2.53800011 1.7100023 -56.6459999
v -15.2280006 -1.61999786 -46.5434952
v -2.53800011 1.7100023 -56.6459999
v -2.53800011 -3.9239974 -57.4379997
v -2.53800011 1.7100023 -56.6459999
v -15.2280006 -1.61999786 -46.5434952
v -15.2280006 4.34700203 -45.7019997
v -29.5019989 -1.93499947 -15.8309994
v -15.2280006 4.34700203 -45.7019997
v -15.2280006 -1.61999786 -46.5434952
v -15.2280006 4.34700203 -45.7019997
v -29.5019989 -1.93499947 -15.8309994
v -29.5019989 4.03650045 -14.9895
v -29.5019989 -1.93499947 -15.8309994
v -2.53800011 -11.8035021 39.4874992
v -29.5019989 4.03650045 -14.9895
v -2.53800011 -11.8035021 39.4874992
v -29.5019989 -1.93499947 -15.8309994
v -2.53800011 -17.4330006 38.6954994
v -2.53800011 -17.4330006 38.6954994
v 0 -12.5640001 39.4874992
v -2.53800011 -11.8035021 39.4874992
v 0 -12.5640001 39.4874992
v -2.53800011 -17.4330006 38.6954994
v 0 -18.2565022 38.6954994
v -13.5494995 2.22299886 25.6905022
v -34.6499977 15.3899984 51.6779976
v -11.9654989 6.47099924 25.6184998
v -34.6499977 15.3899984 51.6779976
v -13.5494995 2.22299886 25.6905022
v -36.2339973 11.1419973 51.7544975
v -41.017498 7.91549921 15.4215012
v -10.3859997 2.81700015 -4.05899954
v -39.0014992 13.3244991 15.4710007
v -10.3859997 2.81700015 -4.05899954
v -41.017498 7.91549921 15.4215012
v -12.4019985 -2.59199953 -4.1085
v -48.2489967 9.23400307 -76.2975006
v -44.0685005 15.1245031 -48.0599976
v -45.9674988 15.3450031 -76.401001
v -44.0685005 15.1245031 -48.0599976
v -48.2489967 9.23400307 -76.2975006
v -46.3499947 9.00900173 -47.9519997
v 23.1164989 -5.43149614 -86.3999939
v 0 -3.30749464 -123.439491
v 16.6095009 -5.85449505 -103.315498
v 0 -3.30749464 -123.439491
v 23.1164989 -5.43149614 -86.3999939
v 0 -2.50199819 -40.6169968
v -23.1164989 -5.43149614 -86.3999939
v 0 -3.30749464 -123.439491
v 0 -2.50199819 -40.6169968
v 0 -3.30749464 -123.439491
v -23.1164989 -5.43149614 -86.3999939
v -16.6095009 -5.85449505 -103.315498
v 0 -2.50199819 -40.6169968
v 23.9534988 0.481503725 -85.7565002
v 0 3.50100183 -40.3064957
v 23.9534988 0.481503725 -85.7565002
v 0 -2.50199819 -40.6169968
v 23.1164989 -5.43149614 -86.3999939
v 23.1164989 -5.43149614 -86.3999939
v 17.5499992 0.796504438 -102.595497
v 23.9534988 0.481503725 -85.7565002
v 17.5499992 0.796504438 -102.595497
v 23.1164989 -5.43149614 -86.3999939
v 16.6095009 -5.85449505 -103.315498
v 34.6499977 15.3899984 51.6779976
v 13.5494995 2.22299886 25.6905022
v 11.9654989 6.47099924 25.6184998
v 13.5494995 2.22299886 25.6905022
v 34.6499977 15.3899984 51.6779976
v 36.2339973 11.1419973 51.7544975
v 0 7.12799883 19.3319988
v 19.322998 5.33699799 49.4774971
v 14.1569986 5.59349823 35.8964996
v 19.322998 5.33699799 49.4774971
v 0 7.12799883 19.3319988
v 0 7.77599573 86.1434937
v 0 7.12799883 19.3319988
v -19.322998 5.33699799 49.4774971
v 0 7.77599573 86.1434937
v -19.322998 5.33699799 49.4774971
v 0 7.12799883 19.3319988
v -14.1569986 5.59349823 35.8964996
v 0 3.69449925 13.5584993
v -2.17799997 -0.346500546 12.8789988
v -2.17799997 4.48649883 13.5584993
v -2.17799997 -0.346500546 12.8789988
v 0 3.69449925 13.5584993
v 0 -1.05300057 12.8789988
v 40.6845016 14.1795006 -9.5984993
v 13.819499 -1.71449816 -43.1189995
v 11.7989998 3.6945014 -43.0694962
v 13.819499 -1.71449816 -43.1189995
v 40.6845016 14.1795006 -9.5984993
v 42.7005005 8.76600075 -9.64799881
v 0 4.78800201 -49.918499
v 22.5134983 2.70000052 -14.7869987
v 16.4969997 3.00150108 -30.6135006
v 22.5134983 2.70000052 -14.7869987
v 0 4.78800201 -49.918499
v 0 5.54399872 27.9405003
v 0 4.78800201 -49.918499
v -22.5134983 2.70000052 -14.7869987
v 0 5.54399872 27.9405003
v -22.5134983 2.70000052 -14.7869987
v 0 4.78800201 -49.918499
v -16.4969997 3.00150108 -30.6135006
v 0 0.787502408 -56.6459999
v 2.53800011 -3.9239974 -57.4379997
v 0 -4.74749708 -57.4379997
v 2.53800011 -3.9239974 -57.4379997
v 0 0.787502408 -56.6459999
v 2.53800011 1.7100023 -56.6459999
v 2.53800011 1.7100023 -56.6459999
v 15.2280006 -1.61999786 -46.5434952
v 2.53800011 -3.9239974 -57.4379997
v 15.2280006 -1.61999786 -46.5434952
v 2.53800011 1.7100023 -56.6459999
v 15.2280006 4.34700203 -45.7019997
v 15.2280006 4.34700203 -45.7019997
v 29.5019989 -1.93499947 -15.8309994
v 15.2280006 -1.61999786 -46.5434952
v 29.5019989 -1.93499947 -15.8309994
v 15.2280006 4.34700203 -45.7019997
v 29.5019989 4.03650045 -14.9895
v 2.53800011 -11.8035021 39.4874992
v 29.5019989 -1.93499947 -15.8309994
v 29.5019989 4.03650045 -14.9895
v 29.5019989 -1.93499947 -15.8309994
v 2.53800011 -11.8035021 39.4874992
v 2.53800011 -17.4330006 38.6954994
v 0 -12.5640001 39.4874992
v 2.53800011 -17.4330006 38.6954994
v 2.53800011 -11.8035021 39.4874992
v 2.53800011 -17.4330006 38.6954994
v 0 -12.5640001 39.4874992
v 0 -18.2565022 38.6954994
v -2.53800011 -3.9239974 -57.4379997
v -29.5019989 -1.93499947 -15.8309994
v -15.2280006 -1.61999786 -46.5434952
v -29.5019989 -1.93499947 -15.8309994
v -2.53800011 -3.9239974 -57.4379997
v -2.53800011 -17.4330006 38.6954994
v 0 -4.74749708 -57.4379997
v -2.53800011 -17.4330006 38.6954994
v -2.53800011 -3.9239974 -57.4379997
v -2.53800011 -17.4330006 38.6954994
v 0 -4.74749708 -57.4379997
v 0 -18.2565022 38.6954994
v 0 -4.74749708 -57.4379997
v 2.53800011 -17.4330006 38.6954994
v 0 -18.2565022 38.6954994
v 2.53800011 -17.4330006 38.6954994
v 0 -4.74749708 -57.4379997
v 2.53800011 -3.9239974 -57.4379997
v 2.53800011 -3.9239974 -57.4379997
v 29.5019989 -1.93499947 -15.8309994
v 2.53800011 -17.4330006 38.6954994
v 29.5019989 -1.93499947 -15.8309994
v 2.53800011 -3.9239974 -57.4379997
v 15.2280006 -1.61999786 -46.5434952
v 14.0174999 -3.43349695 -69.7005005
v 48.2489967 9.23400307 -76.2975006
v 46.3499947 9.00900173 -47.9519997
v 48.2489967 9.23400307 -76.2975006
v 14.0174999 -3.43349695 -69.7005005
v 15.6149998 -3.5999949 -113.791504
v 11.7360001 2.67750311 -69.8085022
v 45.9674988 15.3450031 -76.401001
v 13.3334999 2.51550484 -113.89949
v 45.9674988 15.3450031 -76.401001
v 11.7360001 2.67750311 -69.8085022
v 44.0685005 15.1245031 -48.0599976
v -23.1164989 -5.43149614 -86.3999939
v -17.5499992 0.796504438 -102.595497
v -16.6095009 -5.85449505 -103.315498
v -17.5499992 0.796504438 -102.595497
v -23.1164989 -5.43149614 -86.3999939
v -23.9534988 0.481503725 -85.7565002
v 0 -2.50199819 -40.6169968
v -23.9534988 0.481503725 -85.7565002
v -23.1164989 -5.43149614 -86.3999939
v -23.9534988 0.481503725 -85.7565002
v 0 -2.50199819 -40.6169968
v 0 3.50100183 -40.3064957
v 0 -15.7589989 -28.0170002
v -2.69999981 -20.9384975 -28.8629971
v 0 -21.8159981 -28.8629971
v -2.69999981 -20.9384975 -28.8629971
v 0 -15.7589989 -28.0170002
v -2.69999981 -14.9489985 -28.0170002
v -2.69999981 -14.9489985 -28.0170002
v -31.3874989 -4.45049572 -86.8679962
v -2.69999981 -20.9384975 -28.8629971
v -31.3874989 -4.45049572 -86.8679962
v -2.69999981 -14.9489985 -28.0170002
v -31.3874989 1.89900362 -85.9769974
v -16.2000008 2.23200536 -118.647003
v -31.3874989 -4.45049572 -86.8679962
v -31.3874989 1.89900362 -85.9769974
v -31.3874989 -4.45049572 -86.8679962
v -16.2000008 2.23200536 -118.647003
v -16.2000008 -4.11749458 -119.537994
v -2.69999981 -0.575994253 -130.288498
v -16.2000008 -4.11749458 -119.537994
v -16.2000008 2.23200536 -118.647003
v -16.2000008 -4.11749458 -119.537994
v -2.69999981 -0.575994253 -130.288498
v -2.69999981 -6.56549406 -131.130005
v 0 -1.55699432 -130.288498
v -2.69999981 -6.56549406 -131.130005
v -2.69999981 -0.575994253 -130.288498
v -2.69999981 -6.56549406 -131.130005
v 0 -1.55699432 -130.288498
v 0 -7.44299364 -131.130005
v -34.9109993 10.9889965 71.451004
v -10.8540001 6.58349752 56.2635002
v -33.3269997 15.2369976 71.3789978
v -10.8540001 6.58349752 56.2635002
v -34.9109993 10.9889965 71.451004
v -12.4424992 2.33549738 56.335495
v -42.7005005 8.76600075 -9.64799881
v -39.0014992 13.3244991 15.4710007
v -40.6845016 14.1795006 -9.5984993
v -39.0014992 13.3244991 15.4710007
v -42.7005005 8.76600075 -9.64799881
v -41.017498 7.91549921 15.4215012
v -14.0174999 -3.43349695 -69.7005005
v -48.2489967 9.23400307 -76.2975006
v -15.6149998 -3.5999949 -113.791504
v -48.2489967 9.23400307 -76.2975006
v -14.0174999 -3.43349695 -69.7005005
v -46.3499947 9.00900173 -47.9519997
v -11.7360001 2.67750311 -69.8085022
v -45.9674988 15.3450031 -76.401001
v -44.0685005 15.1245031 -48.0599976
v -45.9674988 15.3450031 -76.401001
v -11.7360001 2.67750311 -69.8085022
v -13.3334999 2.51550484 -113.89949
v -23.9534988 0.481503725 -85.7565002
v 0 2.70000529 -123.133492
v -17.5499992 0.796504438 -102.595497
v 0 2.70000529 -123.133492
v -23.9534988 0.481503725 -85.7565002
v 0 3.50100183 -40.3064957
v 23.9534988 0.481503725 -85.7565002
v 0 2.70000529 -123.133492
v 0 3.50100183 -40.3064957
v 0 2.70000529 -123.133492
v 23.9534988 0.481503725 -85.7565002
v 17.5499992 0.796504438 -102.595497
v 10.8540001 6.58349752 56.2635002
v 34.9109993 10.9889965 71.451004
v 33.3269997 15.2369976 71.3789978
v 34.9109993 10.9889965 71.451004
v 10.8540001 6.58349752 56.2635002
v 12.4424992 2.33549738 56.335495
v 0 2.28149915 19.0799999
v -18.6480007 0.566997826 48.9599991
v -13.401 0.229498461 35.3115005
v -18.6480007 0.566997826 48.9599991
v 0 2.28149915 19.0799999
v 0 2.9339962 85.8914948
v 0 2.28149915 19.0799999
v 18.6480007 0.566997826 48.9599991
v 0 2.9339962 85.8914948
v 18.6480007 0.566997826 48.9599991
v 0 2.28149915 19.0799999
v 13.401 0.229498461 35.3115005
v 0 7.12799883 19.3319988
v 13.401 0.229498461 35.3115005
v 0 2.28149915 19.0799999
v 13.401 0.229498461 35.3115005
v 0 7.12799883 19.3319988
v 14.1569986 5.59349823 35.8964996
v 14.1569986 5.59349823 35.8964996
v 18.6480007 0.566997826 48.9599991
v 13.401 0.229498461 35.3115005
v 18.6480007 0.566997826 48.9599991
v 14.1569986 5.59349823 35.8964996
v 19.322998 5.33699799 49.4774971
v 19.322998 5.33699799 49.4774971
v 0 2.9339962 85.8914948
v 18.6480007 0.566997826 48.9599991
v 0 2.9339962 85.8914948
v 19.322998 5.33699799 49.4774971
v 0 7.77599573 86.1434937
v 10.3859997 2.81700015 -4.05899954
v 41.017498 7.91549921 15.4215012
v 39.0014992 13.3244991 15.4710007
v 41.017498 7.91549921 15.4215012
v 10.3859997 2.81700015 -4.05899954
v 12.4019985 -2.59199953 -4.1085
v 0 -0.859497786 -50.206501
v -21.7304993 -2.85749936 -15.3899994
v -15.6149998 -3.25349855 -31.2929993
v -21.7304993 -2.85749936 -15.3899994
v 0 -0.859497786 -50.206501
v 0 -0.0990012065 27.6480026
v 0 -0.859497786 -50.206501
v 21.7304993 -2.85749936 -15.3899994
v 0 -0.0990012065 27.6480026
v 21.7304993 -2.85749936 -15.3899994
v 0 -0.859497786 -50.206501
v 15.6149998 -3.25349855 -31.2929993
v 0 4.78800201 -49.918499
v 15.6149998 -3.25349855 -31.2929993
v 0 -0.859497786 -50.206501
v 15.6149998 -3.25349855 -31.2929993
v 0 4.78800201 -49.918499
v 16.4969997 3.00150108 -30.6135006
v 16.4969997 3.00150108 -30.6135006
v 21.7304993 -2.85749936 -15.3899994
v 15.6149998 -3.25349855 -31.2929993
v 21.7304993 -2.85749936 -15.3899994
v 16.4969997 3.00150108 -30.6135006
v 22.5134983 2.70000052 -14.7869987
v 22.5134983 2.70000052 -14.7869987
v 0 -0.0990012065 27.6480026
v 21.7304993 -2.85749936 -15.3899994
v 0 -0.0990012065 27.6480026
v 22.5134983 2.70000052 -14.7869987
v 0 5.54399872 27.9405003
v 45.9674988 15.3450031 -76.401001
v 15.6149998 -3.5999949 -113.791504
v 13.3334999 2.51550484 -113.89949
v 15.6149998 -3.5999949 -113.791504
v 45.9674988 15.3450031 -76.401001
v 48.2489967 9.23400307 -76.2975006
v -34.6499977 15.3899984 51.6779976
v -34.9109993 10.9889965 71.451004
v -33.3269997 15.2369976 71.3789978
v -34.9109993 10.9889965 71.451004
v -34.6499977 15.3899984 51.6779976
v -36.2339973 11.1419973 51.7544975
v -12.4019985 -2.59199953 -4.1085
v -42.7005005 8.76600075 -9.64799881
v -13.819499 -1.71449816 -43.1189995
v -42.7005005 8.76600075 -9.64799881
v -12.4019985 -2.59199953 -4.1085
v -41.017498 7.91549921 15.4215012
v -10.3859997 2.81700015 -4.05899954
v -40.6845016 14.1795006 -9.5984993
v -39.0014992 13.3244991 15.4710007
v -40.6845016 14.1795006 -9.5984993
v -10.3859997 2.81700015 -4.05899954
v -11.7989998 3.6945014 -43.0694962
v -15.6149998 -3.5999949 -113.791504
v -45.9674988 15.3450031 -76.401001
v -13.3334999 2.51550484 -113.89949
v -45.9674988 15.3450031 -76.401001
v -15.6149998 -3.5999949 -113.791504
v -48.2489967 9.23400307 -76.2975006
v 2.69999981 -20.9384975 -28.8629971
v 0 -15.7589989 -28.0170002
v 0 -21.8159981 -28.8629971
v 0 -15.7589989 -28.0170002
v 2.69999981 -20.9384975 -28.8629971
v 2.69999981 -14.9489985 -28.0170002
v 31.3874989 -4.45049572 -86.8679962
v 2.69999981 -14.9489985 -28.0170002
v 2.69999981 -20.9384975 -28.8629971
v 2.69999981 -14.9489985 -28.0170002
v 31.3874989 -4.45049572 -86.8679962
v 31.3874989 1.89900362 -85.9769974
v 31.3874989 -4.45049572 -86.8679962
v 16.2000008 2.23200536 -118.647003
v 31.3874989 1.89900362 -85.9769974
v 16.2000008 2.23200536 -118.647003
v 31.3874989 -4.45049572 -86.8679962
v 16.2000008 -4.11749458 -119.537994
v 16.2000008 -4.11749458 -119.537994
v 2.69999981 -0.575994253 -130.288498
v 16.2000008 2.23200536 -118.647003
v 2.69999981 -0.575994253 -130.288498
v 16.2000008 -4.11749458 -119.537994
v 2.69999981 -6.56549406 -131.130005
v 2.69999981 -6.56549406 -131.130005
v 0 -1.55699432 -130.288498
v 2.69999981 -0.575994253 -130.288498
v 0 -1.55699432 -130.288498
v 2.69999981 -6.56549406 -131.130005
v 0 -7.44299364 -131.130005
v 36.2339973 11.1419973 51.7544975
v 33.3269997 15.2369976 71.3789978
v 34.9109993 10.9889965 71.451004
v 33.3269997 15.2369976 71.3789978
v 36.2339973 11.1419973 51.7544975
v 34.6499977 15.3899984 51.6779976
v 2.17799997 -11.9430037 95.3730011
v 0 -7.76250362 96.0524979
v 0 -12.6495037 95.3730011
v 0 -7.76250362 96.0524979
v 2.17799997 -11.9430037 95.3730011
v 2.17799997 -7.11000395 96.0524979
v 25.3214989 1.35899794 48.5819969
v 2.17799997 -7.11000395 96.0524979
v 2.17799997 -11.9430037 95.3730011
v 2.17799997 -7.11000395 96.0524979
v 25.3214989 1.35899794 48.5819969
v 25.3214989 6.48449755 49.3019981
v 25.3214989 1.35899794 48.5819969
v 13.0679998 6.74999857 22.9454975
v 25.3214989 6.48449755 49.3019981
v 13.0679998 6.74999857 22.9454975
v 25.3214989 1.35899794 48.5819969
v 13.0679998 1.62899899 22.2254982
v 13.0679998 1.62899899 22.2254982
v 2.17799997 4.48649883 13.5584993
v 13.0679998 6.74999857 22.9454975
v 2.17799997 4.48649883 13.5584993
v 13.0679998 1.62899899 22.2254982
v 2.17799997 -0.346500546 12.8789988
v 2.17799997 -0.346500546 12.8789988
v 0 3.69449925 13.5584993
v 2.17799997 4.48649883 13.5584993
v 0 3.69449925 13.5584993
v 2.17799997 -0.346500546 12.8789988
v 0 -1.05300057 12.8789988
v 39.0014992 13.3244991 15.4710007
v 42.7005005 8.76600075 -9.64799881
v 40.6845016 14.1795006 -9.5984993
v 42.7005005 8.76600075 -9.64799881
v 39.0014992 13.3244991 15.4710007
v 41.017498 7.91549921 15.4215012
v 11.7360001 2.67750311 -69.8085022
v 46.3499947 9.00900173 -47.9519997
v 44.0685005 15.1245031 -48.0599976
v 46.3499947 9.00900173 -47.9519997
v 11.7360001 2.67750311 -69.8085022
v 14.0174999 -3.43349695 -69.7005005
v -12.4424992 2.33549738 56.335495
v -36.2339973 11.1419973 51.7544975
v -13.5494995 2.22299886 25.6905022
v -36.2339973 11.1419973 51.7544975
v -12.4424992 2.33549738 56.335495
v -34.9109993 10.9889965 71.451004
v -10.8540001 6.58349752 56.2635002
v -34.6499977 15.3899984 51.6779976
v -33.3269997 15.2369976 71.3789978
v -34.6499977 15.3899984 51.6779976
v -10.8540001 6.58349752 56.2635002
v -11.9654989 6.47099924 25.6184998
v -13.819499 -1.71449816 -43.1189995
v -40.6845016 14.1795006 -9.5984993
v -11.7989998 3.6945014 -43.0694962
v -40.6845016 14.1795006 -9.5984993
v -13.819499 -1.71449816 -43.1189995
v -42.7005005 8.76600075 -9.64799881
v -46.3499947 9.00900173 -47.9519997
v -11.7360001 2.67750311 -69.8085022
v -44.0685005 15.1245031 -48.0599976
v -11.7360001 2.67750311 -69.8085022
v -46.3499947 9.00900173 -47.9519997
v -14.0174999 -3.43349695 -69.7005005
v -2.69999981 -6.56549406 -131.130005
v -31.3874989 -4.45049572 -86.8679962
v -16.2000008 -4.11749458 -119.537994
v -31.3874989 -4.45049572 -86.8679962
v -2.69999981 -6.56549406 -131.130005
v -2.69999981 -20.9384975 -28.8629971
v 0 -7.44299364 -131.130005
v -2.69999981 -20.9384975 -28.8629971
v -2.69999981 -6.56549406 -131.130005
v -2.69999981 -20.9384975 -28.8629971
v 0 -7.44299364 -131.130005
v 0 -21.8159981 -28.8629971
v 0 -7.44299364 -131.130005
v 2.69999981 -20.9384975 -28.8629971
v 0 -21.8159981 -28.8629971
v 2.69999981 -20.9384975 -28.8629971
v 0 -7.44299364 -131.130005
v 2.69999981 -6.56549406 -131.130005
v 2.69999981 -6.56549406 -131.130005
v 31.3874989 -4.45049572 -86.8679962
v 2.69999981 -20.9384975 -28.8629971
v 31.3874989 -4.45049572 -86.8679962
v 2.69999981 -6.56549406 -131.130005
v 16.2000008 -4.11749458 -119.537994
v 12.4424992 2.33549738 56.335495
v 36.2339973 11.1419973 51.7544975
v 34.9109993 10.9889965 71.451004
v 36.2339973 11.1419973 51.7544975
v 12.4424992 2.33549738 56.335495
v 13.5494995 2.22299886 25.6905022
v 10.8540001 6.58349752 56.2635002
v 34.6499977 15.3899984 51.6779976
v 11.9654989 6.47099924 25.6184998
v 34.6499977 15.3899984 51.6779976
v 10.8540001 6.58349752 56.2635002
v 33.3269997 15.2369976 71.3789978
v -2.17799997 -0.346500546 12.8789988
v -25.3214989 1.35899794 48.5819969
v -13.0679998 1.62899899 22.2254982
v -25.3214989 1.35899794 48.5819969
v -2.17799997 -0.346500546 12.8789988
v -2.17799997 -11.9430037 95.3730011
v 0 -1.05300057 12.8789988
v -2.17799997 -11.9430037 95.3730011
v -2.17799997 -0.346500546 12.8789988
v -2.17799997 -11.9430037 95.3730011
v 0 -1.05300057 12.8789988
v 0 -12.6495037 95.3730011
v 0 -1.05300057 12.8789988
v 2.17799997 -11.9430037 95.3730011
v 0 -12.6495037 95.3730011
v 2.17799997 -11.9430037 95.3730011
v 0 -1.05300057 12.8789988
v 2.17799997 -0.346500546 12.8789988
v 2.17799997 -0.346500546 12.8789988
v 25.3214989 1.35899794 48.5819969
v 2.17799997 -11.9430037 95.3730011
v 25.3214989 1.35899794 48.5819969
v 2.17799997 -0.346500546 12.8789988
v 13.0679998 1.62899899 22.2254982
v 12.4019985 -2.59199953 -4.1085
v 42.7005005 8.76600075 -9.64799881
v 41.017498 7.91549921 15.4215012
v 42.7005005 8.76600075 -9.64799881
v 12.4019985 -2.59199953 -4.1085
v 13.819499 -1.71449816 -43.1189995
v 10.3859997 2.81700015 -4.05899954
v 40.6845016 14.1795006 -9.5984993
v 11.7989998 3.6945014 -43.0694962
v 40.6845016 14.1795006 -9.5984993
v 10.3859997 2.81700015 -4.05899954
v 39.0014992 13.3244991 15.4710007
v 44.0685005 15.1245031 -48.0599976
v 48.2489967 9.23400307 -76.2975006
v 45.9674988 15.3450031 -76.401001
v 48.2489967 9.23400307 -76.2975006
v 44.0685005 15.1245031 -48.0599976
v 46.3499947 9.00900173 -47.9519997
v -31.3874989 1.89900362 -85.9769974
v -2.69999981 -14.9489985 -28.0170002
v -16.2000008 2.23200536 -118.647003
v -2.69999981 -14.9489985 -28.0170002
v -2.69999981 -0.575994253 -130.288498
v -16.2000008 2.23200536 -118.647003
v -2.69999981 -14.9489985 -28.0170002
v 0 -1.55699432 -130.288498
v -2.69999981 -0.575994253 -130.288498
v 0 -1.55699432 -130.288498
v -2.69999981 -14.9489985 -28.0170002
v 0 -15.7589989 -28.0170002
v 2.69999981 -14.9489985 -28.0170002
v 0 -1.55699432 -130.288498
v 0 -15.7589989 -28.0170002
v 0 -1.55699432 -130.288498
v 2.69999981 -14.9489985 -28.0170002
v 2.69999981 -0.575994253 -130.288498
v 2.69999981 -0.575994253 -130.288498
v 2.69999981 -14.9489985 -28.0170002
v 16.2000008 2.23200536 -118.647003
v 2.69999981 -14.9489985 -28.0170002
v 31.3874989 1.89900362 -85.9769974
v 16.2000008 2.23200536 -118.647003
v -25.3214989 6.48449755 49.3019981
v -2.17799997 -7.11000395 96.0524979
v -13.0679998 6.74999857 22.9454975
v -2.17799997 -7.11000395 96.0524979
v -2.17799997 4.48649883 13.5584993
v -13.0679998 6.74999857 22.9454975
v -2.17799997 -7.11000395 96.0524979
v 0 3.69449925 13.5584993
v -2.17799997 4.48649883 13.5584993
v 0 3.69449925 13.5584993
v -2.17799997 -7.11000395 96.0524979
v 0 -7.76250362 96.0524979
v 2.17799997 -7.11000395 96.0524979
v 0 3.69449925 13.5584993
v 0 -7.76250362 96.0524979
v 0 3.69449925 13.5584993
v 2.17799997 -7.11000395 96.0524979
v 2.17799997 4.48649883 13.5584993
v 2.17799997 4.48649883 13.5584993
v 2.17799997 -7.11000395 96.0524979
v 13.0679998 6.74999857 22.9454975
v 2.17799997 -7.11000395 96.0524979
v 25.3214989 6.48449755 49.3019981
v 13.0679998 6.74999857 22.9454975
v -29.5019989 4.03650045 -14.9895
v -2.53800011 -11.8035021 39.4874992
v -15.2280006 4.34700203 -45.7019997
v -2.53800011 -11.8035021 39.4874992
v -2.53800011 1.7100023 -56.6459999
v -15.2280006 4.34700203 -45.7019997
v -2.53800011 -11.8035021 39.4874992
v 0 0.787502408 -56.6459999
v -2.53800011 1.7100023 -56.6459999
v 0 0.787502408 -56.6459999
v -2.53800011 -11.8035021 39.4874992
v 0 -12.5640001 39.4874992
v 2.53800011 -11.8035021 39.4874992
v 0 0.787502408 -56.6459999
v 0 -12.5640001 39.4874992
v 0 0.787502408 -56.6459999
v 2.53800011 -11.8035021 39.4874992
v 2.53800011 1.7100023 -56.6459999
v 2.53800011 1.7100023 -56.6459999
v 2.53800011 -11.8035021 39.4874992
v 15.2280006 4.34700203 -45.7019997
v 2.53800011 -11.8035021 39.4874992
v 29.5019989 4.03650045 -14.9895
v 15.2280006 4.34700203 -45.7019997

# 72 UV coordinates
vt 0.565900028 0.766300023 0
vt 0.505200028 0.729099989 0
vt 0.500899971 0.736299992 0
vt 0.569999993 0.759000003 0
vt 0.588999987 0.77579999 0
vt 0.593699992 0.767700016 0
vt 0.623399973 0.791199982 0
vt 0.626600027 0.783399999 0
vt 0.980499983 0.429199994 0
vt 0.976300001 0.444999993 0
vt 0.984099984 0.445800006 0
vt 0.9727 0.428600013 0
vt 0.791999996 0.462099999 0
vt 0.788100004 0.444700003 0
vt 0.693700016 0.477699995 0
vt 0.69749999 0.495000005 0
vt 0.648800015 0.500199974 0
vt 0.652499974 0.516600013 0
vt 0.642099977 0.504499972 0
vt 0.645699978 0.520600021 0
vt 0.866900027 0.813300014 0
vt 0.75999999 0.827499986 0
vt 0.863399982 0.800100029 0
vt 0.763400018 0.840699971 0
vt 0.735300004 0.906899989 0
vt 0.820500016 0.920599997 0
vt 0.735300004 0.920599997 0
vt 0.820500016 0.906899989 0
vt 0.75880003 0.845399976 0
vt 0.718599975 0.891099989 0
vt 0.746800005 0.83890003 0
vt 0.730599999 0.897599995 0
vt 0.596199989 0.794799984 0
vt 0.544799984 0.827300012 0
vt 0.572600007 0.80369997 0
vt 0.660000026 0.826900005 0
vt 0.596400023 0.859499991 0
vt 0.572700024 0.850700021 0
vt 0.719600022 0.867999971 0
vt 0.667699993 0.834500015 0
vt 0.691100001 0.843400002 0
vt 0.604399979 0.867999971 0
vt 0.667599976 0.901499987 0
vt 0.691100001 0.8926 0
vt 0.901000023 0.335900009 0
vt 0.983699977 0.215299994 0
vt 0.939999998 0.305099994 0
vt 0.901000023 0.0498000011 0
vt 0.893100023 0.335599989 0
vt 0.89319998 0.0494000018 0
vt 0.885299981 0.0498000011 0
vt 0.885200024 0.335900009 0
vt 0.802600026 0.215299994 0
vt 0.846199989 0.305099994 0
vt 0.820500016 0.898800015 0
vt 0.763400018 0.846599996 0
vt 0.735300004 0.898800015 0
vt 0.866900027 0.819100022 0
vt 0.871900022 0.893400013 0
vt 0.850000024 0.861500025 0
vt 0.829299986 0.91079998 0
vt 0.877799988 0.851199985 0
vt 0.814199984 0.328799993 0
vt 0.897400022 0.370599985 0
vt 0.76910001 0.350800008 0
vt 0.753600001 0.370499998 0
vt 0.753799975 0.374500006 0
vt 0.897599995 0.374500006 0
vt 0.897400022 0.378500015 0
vt 0.753600001 0.378500015 0
vt 0.76910001 0.398299992 0
vt 0.814199984 0.42019999 0

# 248 vertex normals
vn -0.973227441 -0.105102956 0.20440574
vn -0.881711543 -0.0989013091 0.461305976
vn -0.883750618 -0.0243014116 0.46732676
vn -0.987215459 -0.129302025 -0.0932014659
vn -0.884674191 -0.0746978074 -0.460186601
vn -0.831695795 -0.0321998149 -0.554297209
vn -0.765928626 -0.00140002428 -0.642924011
vn -0.772795677 0.0329998434 -0.633796453
vn -0.831607938 -0.0326002873 -0.554405332
vn -0.76592803 -0.00190004136 -0.642923474
vn -0.772723973 0.0323010311 -0.633919716
vn -0.987265408 -0.128995478 -0.0930967405
vn -0.973283768 -0.104598261 0.204396591
vn -0.881759942 -0.0985955298 0.461278975
vn -0.883774638 -0.0241993256 0.467286557
vn -0.0432020463 -0.138306573 0.989446759
vn -0.376405627 -0.128401965 0.917513788
vn -0.0445992611 -0.137597784 0.989483654
vn -0.703183115 -0.09899766 0.704083145
vn -0.999989152 -0.000699992524 0.00459995028
vn -0.833792925 0.076899372 -0.546695352
vn -0.742037416 0.0933047235 -0.663833439
vn -0.433287948 0.125496551 -0.892475247
vn -0.191309825 0.137507111 -0.971849978
vn 0.0482016727 0.140304923 -0.988934278
vn 0.0458987989 0.141496345 -0.988874137
vn -0.19140619 0.137504488 -0.971831322
vn -0.433402389 0.12560074 -0.892404974
vn -0.742117643 0.0935022682 -0.66371578
vn -0.833825588 0.0771023929 -0.546616793
vn -0.999988794 -0.000599993509 0.00469994731
vn -0.703225672 -0.0991036594 0.704025686
vn -0.376486689 -0.128495499 0.917467535
vn -0.0432014391 -0.138404667 0.98943305
vn -0.0446984433 -0.137695238 0.989465535
vn -0.688304365 0.244701564 -0.682904243
vn -0.688201129 0.245000452 -0.682901144
vn -0.68850708 0.244402543 -0.682806969
vn 0.502980828 -0.195192605 0.841967881
vn -0.934501231 0.349900424 0.0654000938
vn -0.934474528 0.349990457 0.0652982369
vn -0.934533894 0.349812657 0.0654023811
vn -0.216091976 -0.973163903 0.0790970176
vn 0 -0.996713996 0.081001088
vn -0.321713597 -0.93533957 0.147106186
vn 0 -0.999952912 0.00969949923
vn 0.216091976 -0.973163903 0.0790970176
vn 0.321713597 -0.93533957 0.147106186
vn 0.881711543 -0.0989013091 0.461305976
vn 0.973227441 -0.105102956 0.20440574
vn 0.883711398 -0.0242003314 0.467406034
vn 0.987177074 -0.129596978 -0.09319783
vn 0.930079401 -0.0929979235 -0.355392098
vn 0.688304365 0.244701564 -0.682904243
vn 0.688201129 0.245000452 -0.682901144
vn 0.68850708 0.244402543 -0.682806969
vn 0 0.999689937 -0.0248997062
vn 0.130394012 0.991154492 -0.0246988218
vn 0.153507099 0.987345517 -0.039801795
vn 0 0.999952912 -0.00969949923
vn -0.130394012 0.991154492 -0.0246988218
vn -0.153507099 0.987345517 -0.039801795
vn 0.0505999364 0.138999864 -0.988998771
vn 0.688206077 0.262902379 -0.676205993
vn 0.688099205 0.263199717 -0.676199138
vn 0.688383758 0.262493849 -0.676184058
vn 0 0.999694884 -0.0246998277
vn 0.130198061 0.991185188 -0.0244995896
vn 0.153006718 0.987443328 -0.039301686
vn -0.130198061 0.991185188 -0.0244995896
vn -0.153006718 0.987443328 -0.039301686
vn -0.0482016727 0.140304923 -0.988934278
vn 0.19140619 0.137504488 -0.971831322
vn -0.0458987989 0.141496345 -0.988874137
vn 0.433402389 0.12560074 -0.892404974
vn 0.742117643 0.0935022682 -0.66371578
vn 0.833825588 0.0771023929 -0.546616793
vn 0.999988794 -0.000599993509 0.00469994731
vn 0.999989152 -0.000699992524 0.00459995028
vn 0.703225672 -0.0991036594 0.704025686
vn 0.376486689 -0.128495499 0.917467535
vn 0.0432014391 -0.138404667 0.98943305
vn 0.0446984433 -0.137695238 0.989465535
vn -0.293715239 -0.945848942 -0.138207182
vn -0.287600011 -0.947299898 -0.141100019
vn -0.298587143 -0.942759395 -0.148493648
vn -0.296209693 -0.945830882 -0.132904395
vn 0 -0.990264952 -0.139195114
vn 0.296209693 -0.945830882 -0.132904395
vn 0.293715239 -0.945848942 -0.138207182
vn 0.287600011 -0.947299898 -0.141100019
vn 0.298587143 -0.942759395 -0.148493648
vn 0.349707663 -0.93672049 0.0161003117
vn 0.349708229 -0.93672204 0.0160003379
vn 0.349794835 -0.936686218 0.016199721
vn -0.349707663 0.93672049 -0.0161003117
vn -0.987177074 -0.129596978 -0.09319783
vn -0.930079401 -0.0929979235 -0.355392098
vn -0.883711398 -0.0242003314 0.467406034
vn -0.0434017554 -0.139005661 0.989340007
vn -0.376582801 -0.128994137 0.917358041
vn -0.0448993817 -0.138198152 0.98938638
vn -0.70326221 -0.0992946997 0.703962207
vn -0.999989092 -0.000799991481 0.00459994981
vn -0.999989152 -0.000599993742 0.00459995028
vn -0.83380568 0.0767005384 -0.546703696
vn -0.742183447 0.0931979418 -0.663685143
vn -0.433418751 0.125305474 -0.89243865
vn -0.191408843 0.137406379 -0.971844792
vn 0.0481975861 0.14019303 -0.988950431
vn 0.0458994471 0.141398355 -0.988888144
vn 0.502813697 -0.173404738 0.846823037
vn 0.502905846 -0.173202038 0.846809745
vn 0.502787471 -0.173695713 0.846778929
vn -0.934706807 0.3475025 0.0746005625
vn -0.934739292 0.347414613 0.0746031553
vn -0.934636116 0.347713411 0.0745029002
vn -0.349707663 -0.93672049 0.0161003117
vn -0.349794835 -0.936686218 0.016199721
vn -0.349708229 -0.93672204 0.0160003379
vn 0.349707663 0.93672049 -0.0161003117
vn -0.130602926 0.991122067 -0.0249005128
vn 0 0.999684989 -0.0250995792
vn -0.153993428 0.987257779 -0.0400982425
vn 0.130602926 0.991122067 -0.0249005128
vn 0.153993428 0.987257779 -0.0400982425
vn -0.502813697 -0.173404738 0.846823037
vn -0.502905846 -0.173202038 0.846809745
vn -0.502787471 -0.173695713 0.846778929
vn 0 -0.996746182 0.0806036815
vn 0.215601072 -0.973304868 0.0787003562
vn 0.320609778 -0.935828507 0.14640443
vn 0 -0.999952018 0.00979948603
vn -0.215601072 -0.973304868 0.0787003562
vn -0.320609778 -0.935828507 0.14640443
vn 0.765928626 -0.00140002428 -0.642924011
vn 0.831695795 -0.0321998149 -0.554297209
vn 0.772795677 0.0329998434 -0.633796453
vn 0.884674191 -0.0746978074 -0.460186601
vn 0.987215459 -0.129302025 -0.0932014659
vn 0.883750618 -0.0243014116 0.46732676
vn -0.502980828 -0.195192605 0.841967881
vn 0 -0.996722102 0.080901742
vn 0.215998352 -0.973192573 0.0789993629
vn 0.321304232 -0.935512364 0.146901891
vn -0.215998352 -0.973192573 0.0789993629
vn -0.321304232 -0.935512364 0.146901891
vn 0.76592803 -0.00190004136 -0.642923474
vn 0.831607938 -0.0326002873 -0.554405332
vn 0.772723973 0.0323010311 -0.633919716
vn 0.987265408 -0.128995478 -0.0930967405
vn 0.973283768 -0.104598261 0.204396591
vn 0.881759942 -0.0985955298 0.461278975
vn 0.883774638 -0.0241993256 0.467286557
vn 0.688248098 0.245017201 -0.682847798
vn 0.688387036 0.244795457 -0.68278724
vn 0.688097835 0.24529925 -0.682897866
vn -0.934605777 0.349602133 0.0655004159
vn -0.934573114 0.349689901 0.0654981285
vn -0.3497082 -0.936821878 -0.00830023549
vn -0.349707872 -0.936821043 -0.00840022881
vn 0.349795669 0.93678838 0.00839993637
vn 0.349795401 0.936787546 0.00849992968
vn -0.688248098 0.245017201 -0.682847798
vn -0.688387036 0.244795457 -0.68278724
vn -0.688097835 0.24529925 -0.682897866
vn 0.376582801 -0.128994137 0.917358041
vn 0.0434017554 -0.139005661 0.989340007
vn 0.0448993817 -0.138198152 0.98938638
vn 0.70326221 -0.0992946997 0.703962207
vn 0.999989092 -0.000799991481 0.00459994981
vn 0.999989152 -0.000599993742 0.00459995028
vn 0.83380568 0.0767005384 -0.546703696
vn 0.742183447 0.0931979418 -0.663685143
vn 0.433418751 0.125305474 -0.89243865
vn 0.191408843 0.137406379 -0.971844792
vn -0.0481975861 0.14019303 -0.988950431
vn -0.0458994471 0.141398355 -0.988888144
vn 0.934605777 0.349602133 0.0655004159
vn 0.934573114 0.349689901 0.0654981285
vn 0.376405627 -0.128401965 0.917513788
vn 0.0432020463 -0.138306573 0.989446759
vn 0.0445992611 -0.137597784 0.989483654
vn 0.703183115 -0.09899766 0.704083145
vn 0.833792925 0.076899372 -0.546695352
vn 0.742037416 0.0933047235 -0.663833439
vn 0.433287948 0.125496551 -0.892475247
vn 0.191309825 0.137507111 -0.971849978
vn 0.934706807 0.3475025 0.0746005625
vn 0.934739292 0.347414613 0.0746031553
vn 0.934636116 0.347713411 0.0745029002
vn -0.503089964 -0.172796607 0.846783102
vn -0.503098667 -0.1726996 0.846797764
vn -0.503081322 -0.172893614 0.846768558
vn -0.349795431 -0.936687768 0.0160997491
vn 0.349794835 0.936686218 -0.016199721
vn 0.349795431 0.936687768 -0.0160997491
vn -0.688206077 0.262902379 -0.676205993
vn -0.688099205 0.263199717 -0.676199138
vn -0.688383758 0.262493849 -0.676184058
vn 0.503089964 -0.172796607 0.846783102
vn 0.503098667 -0.1726996 0.846797764
vn 0.503081322 -0.172893614 0.846768558
vn -0.293806583 -0.945821106 -0.138203129
vn -0.287393302 -0.94737792 -0.140996769
vn -0.298294634 -0.942882895 -0.148297384
vn -0.296392173 -0.945774913 -0.132896528
vn 0.296392173 -0.945774913 -0.132896528
vn 0.293806583 -0.945821106 -0.138203129
vn 0.287393302 -0.94737792 -0.140996769
vn 0.298294634 -0.942882895 -0.148297384
vn 0.349795431 -0.936687768 0.0160997491
vn -0.349794835 0.936686218 -0.016199721
vn -0.349795431 0.936687768 -0.0160997491
vn -0.293595999 -0.945887208 -0.138198152
vn -0.287508249 -0.947327137 -0.141104102
vn -0.298409373 -0.942829609 -0.148404703
vn -0.29608649 -0.945856988 -0.132993981
vn 0.29608649 -0.945856988 -0.132993981
vn 0.293595999 -0.945887208 -0.138198152
vn 0.287508249 -0.947327137 -0.141104102
vn 0.298409373 -0.942829609 -0.148404703
vn 0.3497082 -0.936821878 -0.00830023549
vn 0.349707872 -0.936821043 -0.00840022881
vn -0.349795669 0.93678838 0.00839993637
vn -0.349795401 0.936787546 0.00849992968
vn 0.934501231 0.349900424 0.0654000938
vn 0.934474528 0.349990457 0.0652982369
vn 0.934533894 0.349812657 0.0654023811
vn 0.277789086 0.950562656 0.138794586
vn 0.302907348 0.943622828 0.133503258
vn 0.29389134 0.946172059 0.135596037
vn 0.324286491 0.936760902 0.131594568
vn 0 0.99037677 0.1383968
vn 0 0.990501642 0.137500286
vn -0.302907348 0.943622828 0.133503258
vn -0.324286491 0.936760902 0.131594568
vn -0.29389134 0.946172059 0.135596037
vn -0.277789086 0.950562656 0.138794586
vn 0.278000027 0.950500071 0.13880004
vn 0.324312627 0.936736465 0.131705165
vn 0 0.990488112 0.137598395
vn -0.324312627 0.936736465 0.131705165
vn -0.278000027 0.950500071 0.13880004
vn 0.30281648 0.943651319 0.133507296
vn 0.324282229 0.936748624 0.131692812
vn -0.30281648 0.943651319 0.133507296
vn -0.324282229 0.936748624 0.131692812

# Mesh 'PipelineFBX' with 226 faces
g PipelineFBX
usemtl DefaultMaterial
f  1/1/1 2/2/2 3/3/3
f  4/2/2 5/1/1 6/4/4
f  7/5/5 8/4/4 9/1/1
f  10/4/4 11/5/5 12/6/6
f  13/7/7 14/6/6 15/5/5
f  16/6/6 17/7/7 18/8/8
f  19/6/9 20/7/10 21/8/11
f  22/7/10 23/6/9 24/5/5
f  25/4/12 26/5/5 27/6/9
f  28/5/5 29/4/12 30/1/13
f  31/2/14 32/1/13 33/4/12
f  34/1/13 35/2/14 36/3/15
f  37/9/16 38/10/17 39/11/18
f  40/10/17 41/9/16 42/12/19
f  43/12/19 44/13/20 45/10/17
f  46/13/20 47/12/19 48/14/20
f  49/15/21 50/13/20 51/14/20
f  52/13/20 53/15/21 54/16/22
f  55/17/23 56/16/22 57/15/21
f  58/16/22 59/17/23 60/18/24
f  61/19/25 62/18/24 63/17/23
f  64/18/24 65/19/25 66/20/26
f  67/18/27 68/19/25 69/20/26
f  70/19/25 71/18/27 72/17/28
f  73/16/29 74/17/28 75/18/27
f  76/17/28 77/16/29 78/15/30
f  79/13/31 80/15/30 81/16/29
f  82/15/30 83/13/31 84/14/20
f  85/13/31 86/12/32 87/14/20
f  88/12/32 89/13/31 90/10/33
f  91/10/33 92/9/34 93/12/32
f  94/9/34 95/10/33 96/11/35
f  97/21/36 98/22/36 99/23/37
f  100/22/36 101/21/36 102/24/38
f  103/25/39 104/26/39 105/27/39
f  106/26/39 107/25/39 108/28/39
f  109/29/40 110/30/40 111/31/41
f  112/30/40 113/29/40 114/32/42
f  115/33/43 116/34/44 117/35/45
f  118/34/44 119/33/43 120/36/46
f  121/37/47 122/34/44 123/36/46
f  124/34/44 125/37/47 126/38/48
f  127/2/49 128/1/50 129/3/51
f  130/1/50 131/2/49 132/4/52
f  133/4/52 134/5/53 135/1/50
f  136/5/53 137/4/52 138/6/53
f  139/22/54 140/21/54 141/23/55
f  142/21/54 143/22/54 144/24/56
f  145/39/57 146/40/58 147/41/59
f  148/40/58 149/39/57 150/42/60
f  151/39/57 152/43/61 153/42/60
f  154/43/61 155/39/57 156/44/62
f  157/19/25 158/18/25 159/17/63
f  160/18/25 161/19/25 162/20/26
f  163/22/64 164/21/64 165/23/65
f  166/21/64 167/22/64 168/24/66
f  169/39/67 170/40/68 171/41/69
f  172/40/68 173/39/67 174/42/60
f  175/39/67 176/43/70 177/42/60
f  178/43/70 179/39/67 180/44/71
f  181/19/72 182/18/73 183/20/74
f  184/18/73 185/19/72 186/17/75
f  187/17/75 188/16/76 189/18/73
f  190/16/76 191/17/75 192/15/77
f  193/15/77 194/13/78 195/16/76
f  196/13/78 197/15/77 198/14/79
f  199/12/80 200/13/78 201/14/79
f  202/13/78 203/12/80 204/10/81
f  205/9/82 206/10/81 207/12/80
f  208/10/81 209/9/82 210/11/83
f  211/45/84 212/46/85 213/47/86
f  214/46/85 215/45/84 216/48/87
f  217/49/88 218/48/87 219/45/84
f  220/48/87 221/49/88 222/50/88
f  223/49/88 224/51/89 225/50/88
f  226/51/89 227/49/88 228/52/90
f  229/52/90 230/53/91 231/51/89
f  232/53/91 233/52/90 234/54/92
f  235/55/93 236/56/93 237/57/94
f  238/56/93 239/55/93 240/58/95
f  241/59/96 242/60/96 243/61/96
f  244/60/96 245/59/96 246/62/96
f  247/4/97 248/5/98 249/6/98
f  250/5/98 251/4/97 252/1/1
f  253/2/2 254/1/1 255/4/97
f  256/1/1 257/2/2 258/3/99
f  259/9/100 260/10/101 261/11/102
f  262/10/101 263/9/100 264/12/103
f  265/12/103 266/13/104 267/10/101
f  268/13/104 269/12/103 270/14/105
f  271/15/106 272/13/104 273/14/105
f  274/13/104 275/15/106 276/16/107
f  277/17/108 278/16/107 279/15/106
f  280/16/107 281/17/108 282/18/109
f  283/19/110 284/18/109 285/17/108
f  286/18/109 287/19/110 288/20/111
f  289/25/112 290/26/112 291/27/113
f  292/26/112 293/25/112 294/28/114
f  295/29/115 296/30/115 297/31/116
f  298/30/115 299/29/115 300/32/117
f  301/55/118 302/56/118 303/58/119
f  304/56/118 305/55/118 306/57/120
f  307/59/121 308/60/121 309/62/121
f  310/60/121 311/59/121 312/61/121
f  313/43/122 314/39/123 315/44/124
f  316/39/123 317/43/122 318/42/60
f  319/40/125 320/39/123 321/42/60
f  322/39/123 323/40/125 324/41/126
f  325/26/127 326/25/127 327/27/128
f  328/25/127 329/26/127 330/28/129
f  331/34/130 332/37/131 333/38/132
f  334/37/131 335/34/130 336/36/133
f  337/34/130 338/33/134 339/36/133
f  340/33/134 341/34/130 342/35/135
f  343/7/136 344/6/137 345/8/138
f  346/6/137 347/7/136 348/5/139
f  349/5/139 350/4/140 351/6/137
f  352/4/140 353/5/139 354/1/50
f  355/1/50 356/2/49 357/4/140
f  358/2/49 359/1/50 360/3/141
f  361/26/142 362/25/142 363/27/142
f  364/25/142 365/26/142 366/28/142
f  367/34/143 368/37/144 369/38/145
f  370/37/144 371/34/143 372/36/133
f  373/34/143 374/33/146 375/36/133
f  376/33/146 377/34/143 378/35/147
f  379/7/148 380/6/149 381/8/150
f  382/6/149 383/7/148 384/5/139
f  385/5/139 386/4/151 387/6/149
f  388/4/151 389/5/139 390/1/152
f  391/1/152 392/2/153 393/4/151
f  394/2/153 395/1/152 396/3/154
f  397/22/155 398/21/155 399/23/156
f  400/21/155 401/22/155 402/24/157
f  403/31/158 404/32/158 405/30/158
f  406/32/158 407/31/158 408/29/159
f  409/55/160 410/56/160 411/58/161
f  412/56/160 413/55/160 414/57/160
f  415/59/162 416/60/162 417/62/163
f  418/60/162 419/59/162 420/61/162
f  421/21/164 422/22/164 423/23/165
f  424/22/164 425/21/164 426/24/166
f  427/10/167 428/9/168 429/11/169
f  430/9/168 431/10/167 432/12/170
f  433/13/171 434/12/170 435/10/167
f  436/12/170 437/13/171 438/14/172
f  439/13/171 440/15/173 441/14/172
f  442/15/173 443/13/171 444/16/174
f  445/16/174 446/17/175 447/15/173
f  448/17/175 449/16/174 450/18/176
f  451/18/176 452/19/177 453/17/175
f  454/19/177 455/18/176 456/20/178
f  457/29/179 458/30/179 459/32/179
f  460/30/179 461/29/179 462/31/180
f  463/10/181 464/9/182 465/11/183
f  466/9/182 467/10/181 468/12/184
f  469/13/79 470/12/184 471/10/181
f  472/12/184 473/13/79 474/14/79
f  475/13/79 476/15/185 477/14/79
f  478/15/185 479/13/79 480/16/186
f  481/16/186 482/17/187 483/15/185
f  484/17/187 485/16/186 486/18/188
f  487/18/188 488/19/72 489/17/187
f  490/19/72 491/18/188 492/20/74
f  493/30/189 494/29/189 495/31/190
f  496/29/189 497/30/189 498/32/191
f  499/26/192 500/25/192 501/27/193
f  502/25/192 503/26/192 504/28/194
f  505/55/195 506/56/195 507/58/195
f  508/56/195 509/55/195 510/57/119
f  511/59/196 512/60/196 513/62/196
f  514/60/196 515/59/196 516/61/197
f  517/21/198 518/22/198 519/23/199
f  520/22/198 521/21/198 522/24/200
f  523/25/201 524/26/201 525/27/202
f  526/26/201 527/25/201 528/28/203
f  529/45/204 530/46/205 531/47/206
f  532/46/205 533/45/204 534/48/207
f  535/49/88 536/48/207 537/45/204
f  538/48/207 539/49/88 540/50/88
f  541/49/88 542/51/208 543/50/88
f  544/51/208 545/49/88 546/52/209
f  547/52/209 548/53/210 549/51/208
f  550/53/210 551/52/209 552/54/211
f  553/55/212 554/56/212 555/57/95
f  556/56/212 557/55/212 558/58/212
f  559/59/213 560/60/213 561/61/214
f  562/60/213 563/59/213 564/62/213
f  565/45/215 566/46/216 567/47/217
f  568/46/216 569/45/215 570/48/218
f  571/49/88 572/48/218 573/45/215
f  574/48/218 575/49/88 576/50/88
f  577/49/88 578/51/219 579/50/88
f  580/51/219 581/49/88 582/52/220
f  583/52/220 584/53/221 585/51/219
f  586/53/221 587/52/220 588/54/222
f  589/55/223 590/56/223 591/57/223
f  592/56/223 593/55/223 594/58/224
f  595/59/225 596/60/225 597/61/225
f  598/60/225 599/59/225 600/62/226
f  601/30/227 602/29/227 603/31/228
f  604/29/227 605/30/227 606/32/229
f  607/63/230 608/64/231 609/65/232
f  610/64/231 611/66/233 612/65/232
f  613/64/231 614/67/234 615/66/233
f  616/67/234 617/64/231 618/68/235
f  619/69/236 620/67/234 621/68/235
f  622/67/234 623/69/236 624/70/237
f  625/70/237 626/69/236 627/71/238
f  628/69/236 629/72/239 630/71/238
f  631/63/240 632/64/231 633/65/232
f  634/64/231 635/66/241 636/65/232
f  637/64/231 638/67/234 639/66/241
f  640/67/234 641/64/231 642/68/242
f  643/69/236 644/67/234 645/68/242
f  646/67/234 647/69/236 648/70/243
f  649/70/243 650/69/236 651/71/238
f  652/69/236 653/72/244 654/71/238
f  655/63/240 656/64/245 657/65/232
f  658/64/245 659/66/246 660/65/232
f  661/64/245 662/67/234 663/66/246
f  664/67/234 665/64/245 666/68/242
f  667/69/247 668/67/234 669/68/242
f  670/67/234 671/69/247 672/70/248
f  673/70/248 674/69/247 675/71/238
f  676/69/247 677/72/244 678/71/238

