# File produced by Open Asset Import Library (http://www.assimp.sf.net)
# (assimp v6.0.0)

mtllib ship16e.mtl

# 1266 vertex positions
v 0 145.037979 -9.41850567
v -54.0500031 131.502487 -34.2700043
v 0 155.295975 -44.1600037
v -54.0500031 131.502487 -34.2700043
v 0 145.037979 -9.41850567
v -44.6545029 124.027496 -1.71350527
v -44.6545029 124.027496 -1.71350527
v -139.552505 38.5824966 -12.8800011
v -54.0500031 131.502487 -34.2700043
v -139.552505 38.5824966 -12.8800011
v -44.6545029 124.027496 -1.71350527
v -135.458496 36.0065002 6.25599813
v 0 -257.795471 -45.4709816
v -139.552505 38.5824966 -12.8800011
v -135.458496 36.0065002 6.25599813
v -139.552505 38.5824966 -12.8800011
v 0 -257.795471 -45.4709816
v 0 -254.931976 -67.1369858
v -43.4700012 -89.596489 -22.6204948
v -61.9735031 -54.0039978 -46.3564949
v -43.1940041 -84.3754959 -52.8769913
v -61.9735031 -54.0039978 -46.3564949
v -43.4700012 -89.596489 -22.6204948
v -58.9950066 -58.4429932 -16.7209949
v -75.2445068 12.8569984 -5.41650009
v -61.9735031 -54.0039978 -46.3564949
v -58.9950066 -58.4429932 -16.7209949
v -61.9735031 -54.0039978 -46.3564949
v -75.2445068 12.8569984 -5.41650009
v -94.1505051 28.6004944 -31.7859974
v -49.6110039 51.0484962 -8.87800121
v -94.1505051 28.6004944 -31.7859974
v -75.2445068 12.8569984 -5.41650009
v -94.1505051 28.6004944 -31.7859974
v -49.6110039 51.0484962 -8.87800121
v -53.8199997 78.2574921 -38.0649986
v 0 -257.795471 -45.4709816
v 139.552505 38.5824966 -12.8800011
v 0 -254.931976 -67.1369858
v 139.552505 38.5824966 -12.8800011
v 0 -257.795471 -45.4709816
v 135.458496 36.0065002 6.25599813
v 44.6545029 124.027496 -1.71350527
v 139.552505 38.5824966 -12.8800011
v 135.458496 36.0065002 6.25599813
v 139.552505 38.5824966 -12.8800011
v 44.6545029 124.027496 -1.71350527
v 54.0500031 131.502487 -34.2700043
v 0 145.037979 -9.41850567
v 54.0500031 131.502487 -34.2700043
v 44.6545029 124.027496 -1.71350527
v 54.0500031 131.502487 -34.2700043
v 0 145.037979 -9.41850567
v 0 155.295975 -44.1600037
v 0 235.841995 -13.5470085
v -57.3390045 105.328491 11.4654942
v -27.0480022 236.485992 -9.00450993
v -57.3390045 105.328491 11.4654942
v 0 235.841995 -13.5470085
v 0 80.9484863 -3.76050305
v 0 235.841995 -13.5470085
v 57.3390045 105.328491 11.4654942
v 0 80.9484863 -3.76050305
v 57.3390045 105.328491 11.4654942
v 0 235.841995 -13.5470085
v 27.0480022 236.485992 -9.00450993
v -16.8705006 -207.816483 -53.1414871
v -38.0765038 -237.026489 -48.150486
v -5.39350033 -244.696976 -58.2934875
v -38.0765038 -237.026489 -48.150486
v -16.8705006 -207.816483 -53.1414871
v -50.3699989 -203.009491 -42.7339897
v -50.3699989 -203.009491 -42.7339897
v -127.397011 -177.352982 2.42650747
v -38.0765038 -237.026489 -48.150486
v -127.397011 -177.352982 2.42650747
v -50.3699989 -203.009491 -42.7339897
v -125.7985 -164.530472 1.90900695
v -69.0690002 -148.545486 -31.6364899
v -125.7985 -164.530472 1.90900695
v -50.3699989 -203.009491 -42.7339897
v -125.7985 -164.530472 1.90900695
v -69.0690002 -148.545486 -31.6364899
v -122.291016 -144.083496 2.95550585
v -70.7365112 -141.990479 -27.0134907
v -122.291016 -144.083496 2.95550585
v -69.0690002 -148.545486 -31.6364899
v -122.291016 -144.083496 2.95550585
v -70.7365112 -141.990479 -27.0134907
v -120.63501 -140.78299 5.00250578
v -34.074501 -148.591476 -41.4114876
v -50.3699989 -203.009491 -42.7339897
v -16.8705006 -207.816483 -53.1414871
v -50.3699989 -203.009491 -42.7339897
v -34.074501 -148.591476 -41.4114876
v -69.0690002 -148.545486 -31.6364899
v -34.8565025 -141.829483 -36.075489
v -69.0690002 -148.545486 -31.6364899
v -34.074501 -148.591476 -41.4114876
v -69.0690002 -148.545486 -31.6364899
v -34.8565025 -141.829483 -36.075489
v -70.7365112 -141.990479 -27.0134907
v -5.39350033 -244.696976 -58.2934875
v -32.5680008 -238.233978 -34.936985
v 0.690000057 -245.202972 -40.0199814
v -32.5680008 -238.233978 -34.936985
v -5.39350033 -244.696976 -58.2934875
v -38.0765038 -237.026489 -48.150486
v -127.397011 -177.352982 2.42650747
v -32.5680008 -238.233978 -34.936985
v -38.0765038 -237.026489 -48.150486
v -32.5680008 -238.233978 -34.936985
v -127.397011 -177.352982 2.42650747
v -122.475014 -178.088974 12.2590075
v -70.7365112 -141.990479 -27.0134907
v -119.738014 -143.93399 7.47500515
v -120.63501 -140.78299 5.00250578
v -119.738014 -143.93399 7.47500515
v -70.7365112 -141.990479 -27.0134907
v -66.228508 -148.809998 -24.9664898
v -66.228508 -148.809998 -24.9664898
v -121.037506 -165.001984 11.1320066
v -119.738014 -143.93399 7.47500515
v -121.037506 -165.001984 11.1320066
v -66.228508 -148.809998 -24.9664898
v -45.057003 -203.986984 -30.1874847
v -45.057003 -203.986984 -30.1874847
v -122.475014 -178.088974 12.2590075
v -121.037506 -165.001984 11.1320066
v -122.475014 -178.088974 12.2590075
v -45.057003 -203.986984 -30.1874847
v -32.5680008 -238.233978 -34.936985
v -11.1090012 -208.138504 -35.8224907
v -32.5680008 -238.233978 -34.936985
v -45.057003 -203.986984 -30.1874847
v -32.5680008 -238.233978 -34.936985
v -11.1090012 -208.138504 -35.8224907
v 0.690000057 -245.202972 -40.0199814
v -34.8565025 -141.829483 -36.075489
v -66.228508 -148.809998 -24.9664898
v -70.7365112 -141.990479 -27.0134907
v -66.228508 -148.809998 -24.9664898
v -34.8565025 -141.829483 -36.075489
v -31.3375015 -148.729492 -32.5219917
v -31.3375015 -148.729492 -32.5219917
v -45.057003 -203.986984 -30.1874847
v -66.228508 -148.809998 -24.9664898
v -45.057003 -203.986984 -30.1874847
v -31.3375015 -148.729492 -32.5219917
v -11.1090012 -208.138504 -35.8224907
v -124.797997 172.879486 14.7314892
v -71.0470047 145.405991 12.6269922
v -125.695015 170.636993 12.6384907
v -71.0470047 145.405991 12.6269922
v -124.797997 172.879486 14.7314892
v -69.3680038 147.625488 16.5484924
v -69.3680038 147.625488 16.5484924
v -59.6389999 142.50798 12.316493
v -71.0470047 145.405991 12.6269922
v -59.6389999 142.50798 12.316493
v -69.3680038 147.625488 16.5484924
v -57.7185097 143.795975 15.1454916
v -57.7185097 143.795975 15.1454916
v -55.4760017 145.037979 8.41799355
v -59.6389999 142.50798 12.316493
v -55.4760017 145.037979 8.41799355
v -57.7185097 143.795975 15.1454916
v -52.1755028 147.004486 12.3509922
v -52.1755028 147.004486 12.3509922
v -27.4620018 167.301987 -14.1680069
v -55.4760017 145.037979 8.41799355
v -27.4620018 167.301987 -14.1680069
v -52.1755028 147.004486 12.3509922
v -23.7015018 171.878998 -10.9825068
v -124.797997 172.879486 14.7314892
v -66.3895035 156.054993 17.7674904
v -69.3680038 147.625488 16.5484924
v -57.6840096 153.225983 16.7899914
v -69.3680038 147.625488 16.5484924
v -66.3895035 156.054993 17.7674904
v -69.3680038 147.625488 16.5484924
v -57.6840096 153.225983 16.7899914
v -57.7185097 143.795975 15.1454916
v -57.6840096 153.225983 16.7899914
v -52.1755028 147.004486 12.3509922
v -57.7185097 143.795975 15.1454916
v -52.1755028 147.004486 12.3509922
v -57.6840096 153.225983 16.7899914
v -54.0040016 156.077988 15.0419912
v -54.0040016 156.077988 15.0419912
v -23.7015018 171.878998 -10.9825068
v -52.1755028 147.004486 12.3509922
v -23.7015018 171.878998 -10.9825068
v -54.0040016 156.077988 15.0419912
v -22.1375008 185.276489 -12.121007
v -56.1775017 171.890488 13.8919907
v -22.1375008 185.276489 -12.121007
v -54.0040016 156.077988 15.0419912
v -22.1375008 185.276489 -12.121007
v -56.1775017 171.890488 13.8919907
v -21.6315002 202.652985 -15.4215088
v -66.3895035 156.054993 17.7674904
v -124.797997 172.879486 14.7314892
v -122.153008 179.112488 14.9614906
v -118.645508 187.323486 13.9954901
v -66.3895035 156.054993 17.7674904
v -122.153008 179.112488 14.9614906
v -66.3895035 156.054993 17.7674904
v -118.645508 187.323486 13.9954901
v -59.8690071 168.37149 15.9619904
v -57.6840096 153.225983 16.7899914
v -66.3895035 156.054993 17.7674904
v -59.8690071 168.37149 15.9619904
v -54.0040016 156.077988 15.0419912
v -57.6840096 153.225983 16.7899914
v -59.8690071 168.37149 15.9619904
v -56.1775017 171.890488 13.8919907
v -54.0040016 156.077988 15.0419912
v -59.8690071 168.37149 15.9619904
v -62.4335022 183.516983 14.0299902
v -56.1775017 171.890488 13.8919907
v -59.8690071 168.37149 15.9619904
v -56.1775017 171.890488 13.8919907
v -62.4335022 183.516983 14.0299902
v -58.5695 187.00148 11.7529917
v -58.5695 187.00148 11.7529917
v -21.6315002 202.652985 -15.4215088
v -56.1775017 171.890488 13.8919907
v -21.6315002 202.652985 -15.4215088
v -58.5695 187.00148 11.7529917
v -21.0565014 219.189987 -18.7220078
v -60.4785004 197.995483 8.38349056
v -21.0565014 219.189987 -18.7220078
v -58.5695 187.00148 11.7529917
v -21.0565014 219.189987 -18.7220078
v -60.4785004 197.995483 8.38349056
v -21.4015026 231.000458 -22.0570068
v -118.645508 187.323486 13.9954901
v -62.4335022 183.516983 14.0299902
v -59.8690071 168.37149 15.9619904
v -62.4335022 183.516983 14.0299902
v -118.645508 187.323486 13.9954901
v -115.149506 195.48848 12.5234909
v -115.149506 195.48848 12.5234909
v -71.6450119 195.64949 12.1784897
v -62.4335022 183.516983 14.0299902
v -64.8255005 194.326981 11.7644901
v -62.4335022 183.516983 14.0299902
v -71.6450119 195.64949 12.1784897
v -64.8255005 194.326981 11.7644901
v -58.5695 187.00148 11.7529917
v -62.4335022 183.516983 14.0299902
v -58.5695 187.00148 11.7529917
v -64.8255005 194.326981 11.7644901
v -60.4785004 197.995483 8.38349056
v -67.8730087 198.915482 9.15399075
v -60.4785004 197.995483 8.38349056
v -64.8255005 194.326981 11.7644901
v -60.4785004 197.995483 8.38349056
v -67.8730087 198.915482 9.15399075
v -63.0660057 201.19249 5.97999096
v -63.0660057 201.19249 5.97999096
v -21.4015026 231.000458 -22.0570068
v -60.4785004 197.995483 8.38349056
v -21.4015026 231.000458 -22.0570068
v -63.0660057 201.19249 5.97999096
v -23.6325016 234.185989 -25.4840088
v -71.6450119 195.64949 12.1784897
v -115.149506 195.48848 12.5234909
v -112.527512 201.571976 10.9709902
v -112.527512 201.571976 10.9709902
v -72.4039993 198.374985 10.1314898
v -71.6450119 195.64949 12.1784897
v -67.8730087 198.915482 9.15399075
v -71.6450119 195.64949 12.1784897
v -72.4039993 198.374985 10.1314898
v -71.6450119 195.64949 12.1784897
v -67.8730087 198.915482 9.15399075
v -64.8255005 194.326981 11.7644901
v -72.4039993 198.374985 10.1314898
v -112.527512 201.571976 10.9709902
v -111.653503 203.549988 9.78649044
v -83.8580093 80.8564987 -7.8890028
v -120.520004 99.5669937 0.712995589
v -82.3975067 86.8249893 -12.1095028
v -120.520004 99.5669937 0.712995589
v -83.8580093 80.8564987 -7.8890028
v -120.888016 94.9324875 3.27749562
v -120.888016 94.9324875 3.27749562
v -164.611008 118.012993 34.7184906
v -120.520004 99.5669937 0.712995589
v -164.611008 118.012993 34.7184906
v -120.888016 94.9324875 3.27749562
v -165.358505 115.586487 35.98349
v -120.888016 94.9324875 3.27749562
v -174.593002 94.92099 40.1809921
v -165.358505 115.586487 35.98349
v -174.593002 94.92099 40.1809921
v -120.888016 94.9324875 3.27749562
v -131.962509 54.0154953 7.94649649
v -131.962509 54.0154953 7.94649649
v -179.883011 84.0074921 41.491993
v -174.593002 94.92099 40.1809921
v -120.888016 94.9324875 3.27749562
v -83.8580093 80.8564987 -7.8890028
v -97.9915085 50.8414955 -2.27700186
v -131.962509 54.0154953 7.94649649
v -120.888016 94.9324875 3.27749562
v -97.9915085 50.8414955 -2.27700186
v -131.962509 54.0154953 7.94649649
v -97.9915085 50.8414955 -2.27700186
v -103.327507 23.6784973 -2.24250102
v -103.327507 23.6784973 -2.24250102
v -139.150009 30.9464989 8.38349724
v -131.962509 54.0154953 7.94649649
v -179.883011 84.0074921 41.491993
v -131.962509 54.0154953 7.94649649
v -139.150009 30.9464989 8.38349724
v -139.150009 30.9464989 8.38349724
v -181.585007 81.7649994 40.3419952
v -179.883011 84.0074921 41.491993
v -181.585007 81.7649994 40.3419952
v -139.150009 30.9464989 8.38349724
v -142.094009 26.1624966 5.1174984
v -102.327011 -10.8789997 -8.46399879
v -142.094009 26.1624966 5.1174984
v -139.150009 30.9464989 8.38349724
v -142.094009 26.1624966 5.1174984
v -102.327011 -10.8789997 -8.46399879
v -104.558014 -18.5724983 -14.1104975
v -139.150009 30.9464989 8.38349724
v -103.327507 23.6784973 -2.24250102
v -102.327011 -10.8789997 -8.46399879
v 121.037506 -165.001984 11.1320066
v 127.397011 -177.352982 2.42650747
v 122.475014 -178.088974 12.2590075
v 127.397011 -177.352982 2.42650747
v 121.037506 -165.001984 11.1320066
v 125.7985 -164.530472 1.90900695
v 119.738014 -143.93399 7.47500515
v 125.7985 -164.530472 1.90900695
v 121.037506 -165.001984 11.1320066
v 125.7985 -164.530472 1.90900695
v 119.738014 -143.93399 7.47500515
v 122.291016 -144.083496 2.95550585
v 120.63501 -140.78299 5.00250578
v 122.291016 -144.083496 2.95550585
v 119.738014 -143.93399 7.47500515
v 70.7365112 -141.990479 -27.0134907
v 122.291016 -144.083496 2.95550585
v 120.63501 -140.78299 5.00250578
v 122.291016 -144.083496 2.95550585
v 70.7365112 -141.990479 -27.0134907
v 69.0690002 -148.545486 -31.6364899
v 69.0690002 -148.545486 -31.6364899
v 125.7985 -164.530472 1.90900695
v 122.291016 -144.083496 2.95550585
v 125.7985 -164.530472 1.90900695
v 69.0690002 -148.545486 -31.6364899
v 50.3699989 -203.009491 -42.7339897
v 50.3699989 -203.009491 -42.7339897
v 127.397011 -177.352982 2.42650747
v 125.7985 -164.530472 1.90900695
v 127.397011 -177.352982 2.42650747
v 50.3699989 -203.009491 -42.7339897
v 38.0765038 -237.026489 -48.150486
v 16.8705006 -207.816483 -53.1414871
v 38.0765038 -237.026489 -48.150486
v 50.3699989 -203.009491 -42.7339897
v 38.0765038 -237.026489 -48.150486
v 16.8705006 -207.816483 -53.1414871
v 5.39350033 -244.696976 -58.2934875
v 34.8565025 -141.829483 -36.075489
v 69.0690002 -148.545486 -31.6364899
v 70.7365112 -141.990479 -27.0134907
v 69.0690002 -148.545486 -31.6364899
v 34.8565025 -141.829483 -36.075489
v 34.074501 -148.591476 -41.4114876
v 34.074501 -148.591476 -41.4114876
v 50.3699989 -203.009491 -42.7339897
v 69.0690002 -148.545486 -31.6364899
v 50.3699989 -203.009491 -42.7339897
v 34.074501 -148.591476 -41.4114876
v 16.8705006 -207.816483 -53.1414871
v 26.3810005 229.194977 -27.5195065
v 63.0660057 201.19249 5.97999096
v 23.6325016 234.185989 -25.4840088
v 63.0660057 201.19249 5.97999096
v 26.3810005 229.194977 -27.5195065
v 65.3890076 198.006973 3.92149091
v 65.3890076 198.006973 3.92149091
v 67.8730087 198.915482 9.15399075
v 63.0660057 201.19249 5.97999096
v 67.8730087 198.915482 9.15399075
v 65.3890076 198.006973 3.92149091
v 69.0115051 195.120468 6.84249115
v 69.0115051 195.120468 6.84249115
v 72.4039993 198.374985 10.1314898
v 67.8730087 198.915482 9.15399075
v 72.4039993 198.374985 10.1314898
v 69.0115051 195.120468 6.84249115
v 72.9560089 195.200974 7.99249029
v 72.9560089 195.200974 7.99249029
v 111.653503 203.549988 9.78649044
v 72.4039993 198.374985 10.1314898
v 111.653503 203.549988 9.78649044
v 72.9560089 195.200974 7.99249029
v 112.550507 201.410965 8.95849037
v 28.2555008 216.452988 -26.680006
v 65.3890076 198.006973 3.92149091
v 26.3810005 229.194977 -27.5195065
v 65.3890076 198.006973 3.92149091
v 28.2555008 216.452988 -26.680006
v 69.1035004 183.700974 5.77299118
v 65.3890076 198.006973 3.92149091
v 69.1035004 183.700974 5.77299118
v 69.0115051 195.120468 6.84249115
v 69.0115051 195.120468 6.84249115
v 69.1035004 183.700974 5.77299118
v 72.9560089 195.200974 7.99249029
v 115.184006 195.154984 8.48699093
v 72.9560089 195.200974 7.99249029
v 69.1035004 183.700974 5.77299118
v 72.9560089 195.200974 7.99249029
v 115.184006 195.154984 8.48699093
v 112.550507 201.410965 8.95849037
v 29.6585007 199.90448 -24.3455086
v 69.1035004 183.700974 5.77299118
v 28.2555008 216.452988 -26.680006
v 69.1035004 183.700974 5.77299118
v 29.6585007 199.90448 -24.3455086
v 68.1720047 168.831482 5.8304925
v 118.703003 186.86348 8.44099045
v 69.1035004 183.700974 5.77299118
v 68.1720047 168.831482 5.8304925
v 69.1035004 183.700974 5.77299118
v 118.703003 186.86348 8.44099045
v 115.184006 195.154984 8.48699093
v 31.0040016 183.482483 -21.9420052
v 68.1720047 168.831482 5.8304925
v 29.6585007 199.90448 -24.3455086
v 68.1720047 168.831482 5.8304925
v 31.0040016 183.482483 -21.9420052
v 65.3890076 153.86998 6.71599293
v 122.222015 178.617981 8.88949108
v 68.1720047 168.831482 5.8304925
v 65.3890076 153.86998 6.71599293
v 68.1720047 168.831482 5.8304925
v 122.222015 178.617981 8.88949108
v 118.703003 186.86348 8.44099045
v 30.7854996 171.25798 -18.7795048
v 65.3890076 153.86998 6.71599293
v 31.0040016 183.482483 -21.9420052
v 65.3890076 153.86998 6.71599293
v 30.7854996 171.25798 -18.7795048
v 59.5699997 146.85498 7.19899321
v 65.3890076 153.86998 6.71599293
v 59.5699997 146.85498 7.19899321
v 62.237999 144.589478 9.61399269
v 70.6560059 147.97049 9.958992
v 65.3890076 153.86998 6.71599293
v 62.237999 144.589478 9.61399269
v 70.6560059 147.97049 9.958992
v 122.222015 178.617981 8.88949108
v 65.3890076 153.86998 6.71599293
v 122.222015 178.617981 8.88949108
v 70.6560059 147.97049 9.958992
v 124.844009 172.511475 10.1889915
v 70.6560059 147.97049 9.958992
v 125.695015 170.636993 12.6384907
v 124.844009 172.511475 10.1889915
v 125.695015 170.636993 12.6384907
v 70.6560059 147.97049 9.958992
v 71.0470047 145.405991 12.6269922
v 27.4620018 167.301987 -14.1680069
v 59.5699997 146.85498 7.19899321
v 30.7854996 171.25798 -18.7795048
v 59.5699997 146.85498 7.19899321
v 27.4620018 167.301987 -14.1680069
v 55.4760017 145.037979 8.41799355
v 59.6389999 142.50798 12.316493
v 59.5699997 146.85498 7.19899321
v 55.4760017 145.037979 8.41799355
v 59.5699997 146.85498 7.19899321
v 59.6389999 142.50798 12.316493
v 62.237999 144.589478 9.61399269
v 71.0470047 145.405991 12.6269922
v 62.237999 144.589478 9.61399269
v 59.6389999 142.50798 12.316493
v 62.237999 144.589478 9.61399269
v 71.0470047 145.405991 12.6269922
v 70.6560059 147.97049 9.958992
v 142.094009 26.1624966 5.1174984
v 108.928009 -12.1899996 -17.5144978
v 104.558014 -18.5724983 -14.1104975
v 108.928009 -12.1899996 -17.5144978
v 142.094009 26.1624966 5.1174984
v 142.231995 30.8889961 1.27649844
v 142.231995 30.8889961 1.27649844
v 113.125504 19.630497 -15.1110001
v 108.928009 -12.1899996 -17.5144978
v 113.125504 19.630497 -15.1110001
v 142.231995 30.8889961 1.27649844
v 136.160019 52.991993 -1.02350223
v 136.160019 52.991993 -1.02350223
v 107.019005 46.8509979 -14.041502
v 113.125504 19.630497 -15.1110001
v 136.160019 52.991993 -1.02350223
v 122.912003 94.771492 -1.29950404
v 107.019005 46.8509979 -14.041502
v 122.912003 94.771492 -1.29950404
v 88.803009 79.6719894 -14.6165028
v 107.019005 46.8509979 -14.041502
v 181.585007 81.7649994 40.3419952
v 142.231995 30.8889961 1.27649844
v 142.094009 26.1624966 5.1174984
v 142.231995 30.8889961 1.27649844
v 181.585007 81.7649994 40.3419952
v 181.14801 84.0994949 38.4904938
v 181.14801 84.0994949 38.4904938
v 136.160019 52.991993 -1.02350223
v 142.231995 30.8889961 1.27649844
v 136.160019 52.991993 -1.02350223
v 181.14801 84.0994949 38.4904938
v 176.237518 94.9554901 36.408989
v 176.237518 94.9554901 36.408989
v 122.912003 94.771492 -1.29950404
v 136.160019 52.991993 -1.02350223
v 122.912003 94.771492 -1.29950404
v 176.237518 94.9554901 36.408989
v 166.117508 115.632492 34.1894913
v 166.117508 115.632492 34.1894913
v 120.520004 99.5669937 0.712995589
v 122.912003 94.771492 -1.29950404
v 120.520004 99.5669937 0.712995589
v 88.803009 79.6719894 -14.6165028
v 122.912003 94.771492 -1.29950404
v 88.803009 79.6719894 -14.6165028
v 120.520004 99.5669937 0.712995589
v 82.3975067 86.8249893 -12.1095028
v 120.520004 99.5669937 0.712995589
v 166.117508 115.632492 34.1894913
v 164.611008 118.012993 34.7184906
v 0 232.702469 -35.9835052
v 71.9785004 69.7934952 -6.35950232
v 31.2340012 233.530487 -30.0610104
v 71.9785004 69.7934952 -6.35950232
v 0 232.702469 -35.9835052
v 0 44.2749939 -23.368
v 0 232.702469 -35.9835052
v -71.9785004 69.7934952 -6.35950232
v 0 44.2749939 -23.368
v -71.9785004 69.7934952 -6.35950232
v 0 232.702469 -35.9835052
v -31.2340012 233.530487 -30.0610104
v 71.9785004 69.7934952 -6.35950232
v 0 80.9484863 -3.76050305
v 57.3390045 105.328491 11.4654942
v 0 80.9484863 -3.76050305
v 71.9785004 69.7934952 -6.35950232
v 0 44.2749939 -23.368
v -71.9785004 69.7934952 -6.35950232
v 0 80.9484863 -3.76050305
v 0 44.2749939 -23.368
v 0 80.9484863 -3.76050305
v -71.9785004 69.7934952 -6.35950232
v -57.3390045 105.328491 11.4654942
v -11.1090012 -208.138504 -35.8224907
v -5.39350033 -244.696976 -58.2934875
v 0.690000057 -245.202972 -40.0199814
v -5.39350033 -244.696976 -58.2934875
v -11.1090012 -208.138504 -35.8224907
v -16.8705006 -207.816483 -53.1414871
v -11.1090012 -208.138504 -35.8224907
v -34.074501 -148.591476 -41.4114876
v -16.8705006 -207.816483 -53.1414871
v -34.074501 -148.591476 -41.4114876
v -11.1090012 -208.138504 -35.8224907
v -31.3375015 -148.729492 -32.5219917
v -31.3375015 -148.729492 -32.5219917
v -34.8565025 -141.829483 -36.075489
v -34.074501 -148.591476 -41.4114876
v 49.6110039 51.0484962 -8.87800121
v 94.1505051 28.6004944 -31.7859974
v 53.8199997 78.2574921 -38.0649986
v 94.1505051 28.6004944 -31.7859974
v 49.6110039 51.0484962 -8.87800121
v 75.2445068 12.8569984 -5.41650009
v 75.2445068 12.8569984 -5.41650009
v 61.9735031 -54.0039978 -46.3564949
v 94.1505051 28.6004944 -31.7859974
v 61.9735031 -54.0039978 -46.3564949
v 75.2445068 12.8569984 -5.41650009
v 58.9950066 -58.4429932 -16.7209949
v 43.4700012 -89.596489 -22.6204948
v 61.9735031 -54.0039978 -46.3564949
v 58.9950066 -58.4429932 -16.7209949
v 61.9735031 -54.0039978 -46.3564949
v 43.4700012 -89.596489 -22.6204948
v 43.1940041 -84.3754959 -52.8769913
v 11.1090012 -208.138504 -35.8224907
v 32.5680008 -238.233978 -34.936985
v -0.690000057 -245.202972 -40.0199814
v 32.5680008 -238.233978 -34.936985
v 11.1090012 -208.138504 -35.8224907
v 45.057003 -203.986984 -30.1874847
v 45.057003 -203.986984 -30.1874847
v 122.475014 -178.088974 12.2590075
v 32.5680008 -238.233978 -34.936985
v 122.475014 -178.088974 12.2590075
v 45.057003 -203.986984 -30.1874847
v 121.037506 -165.001984 11.1320066
v 66.228508 -148.809998 -24.9664898
v 121.037506 -165.001984 11.1320066
v 45.057003 -203.986984 -30.1874847
v 121.037506 -165.001984 11.1320066
v 66.228508 -148.809998 -24.9664898
v 119.738014 -143.93399 7.47500515
v 70.7365112 -141.990479 -27.0134907
v 119.738014 -143.93399 7.47500515
v 66.228508 -148.809998 -24.9664898
v 119.738014 -143.93399 7.47500515
v 70.7365112 -141.990479 -27.0134907
v 120.63501 -140.78299 5.00250578
v 31.3375015 -148.729492 -32.5219917
v 45.057003 -203.986984 -30.1874847
v 11.1090012 -208.138504 -35.8224907
v 45.057003 -203.986984 -30.1874847
v 31.3375015 -148.729492 -32.5219917
v 66.228508 -148.809998 -24.9664898
v 34.8565025 -141.829483 -36.075489
v 66.228508 -148.809998 -24.9664898
v 31.3375015 -148.729492 -32.5219917
v 66.228508 -148.809998 -24.9664898
v 34.8565025 -141.829483 -36.075489
v 70.7365112 -141.990479 -27.0134907
v 127.397011 -177.352982 2.42650747
v 32.5680008 -238.233978 -34.936985
v 122.475014 -178.088974 12.2590075
v 32.5680008 -238.233978 -34.936985
v 127.397011 -177.352982 2.42650747
v 38.0765038 -237.026489 -48.150486
v 5.39350033 -244.696976 -58.2934875
v 32.5680008 -238.233978 -34.936985
v 38.0765038 -237.026489 -48.150486
v 32.5680008 -238.233978 -34.936985
v 5.39350033 -244.696976 -58.2934875
v -0.690000057 -245.202972 -40.0199814
v 63.0660057 201.19249 5.97999096
v 21.4015026 231.000458 -22.0570068
v 23.6325016 234.185989 -25.4840088
v 21.4015026 231.000458 -22.0570068
v 63.0660057 201.19249 5.97999096
v 60.4785004 197.995483 8.38349056
v 60.4785004 197.995483 8.38349056
v 21.0565014 219.189987 -18.7220078
v 21.4015026 231.000458 -22.0570068
v 21.0565014 219.189987 -18.7220078
v 60.4785004 197.995483 8.38349056
v 58.5695 187.00148 11.7529917
v 58.5695 187.00148 11.7529917
v 21.6315002 202.652985 -15.4215088
v 21.0565014 219.189987 -18.7220078
v 21.6315002 202.652985 -15.4215088
v 58.5695 187.00148 11.7529917
v 56.1775017 171.890488 13.8919907
v 56.1775017 171.890488 13.8919907
v 22.1375008 185.276489 -12.121007
v 21.6315002 202.652985 -15.4215088
v 67.8730087 198.915482 9.15399075
v 60.4785004 197.995483 8.38349056
v 63.0660057 201.19249 5.97999096
v 60.4785004 197.995483 8.38349056
v 67.8730087 198.915482 9.15399075
v 64.8255005 194.326981 11.7644901
v 64.8255005 194.326981 11.7644901
v 58.5695 187.00148 11.7529917
v 60.4785004 197.995483 8.38349056
v 58.5695 187.00148 11.7529917
v 64.8255005 194.326981 11.7644901
v 62.4335022 183.516983 14.0299902
v 62.4335022 183.516983 14.0299902
v 56.1775017 171.890488 13.8919907
v 58.5695 187.00148 11.7529917
v 56.1775017 171.890488 13.8919907
v 62.4335022 183.516983 14.0299902
v 59.8690071 168.37149 15.9619904
v 54.0040016 156.077988 15.0419912
v 56.1775017 171.890488 13.8919907
v 59.8690071 168.37149 15.9619904
v 22.1375008 185.276489 -12.121007
v 56.1775017 171.890488 13.8919907
v 54.0040016 156.077988 15.0419912
v 54.0040016 156.077988 15.0419912
v 23.7015018 171.878998 -10.9825068
v 22.1375008 185.276489 -12.121007
v 23.7015018 171.878998 -10.9825068
v 54.0040016 156.077988 15.0419912
v 52.1755028 147.004486 12.3509922
v 52.1755028 147.004486 12.3509922
v 27.4620018 167.301987 -14.1680069
v 23.7015018 171.878998 -10.9825068
v 67.8730087 198.915482 9.15399075
v 71.6450119 195.64949 12.1784897
v 64.8255005 194.326981 11.7644901
v 62.4335022 183.516983 14.0299902
v 64.8255005 194.326981 11.7644901
v 71.6450119 195.64949 12.1784897
v 71.6450119 195.64949 12.1784897
v 115.149506 195.48848 12.5234909
v 62.4335022 183.516983 14.0299902
v 118.645508 187.323486 13.9954901
v 62.4335022 183.516983 14.0299902
v 115.149506 195.48848 12.5234909
v 62.4335022 183.516983 14.0299902
v 118.645508 187.323486 13.9954901
v 59.8690071 168.37149 15.9619904
v 118.645508 187.323486 13.9954901
v 66.3895035 156.054993 17.7674904
v 59.8690071 168.37149 15.9619904
v 66.3895035 156.054993 17.7674904
v 57.6840096 153.225983 16.7899914
v 59.8690071 168.37149 15.9619904
v 57.6840096 153.225983 16.7899914
v 54.0040016 156.077988 15.0419912
v 59.8690071 168.37149 15.9619904
v 57.6840096 153.225983 16.7899914
v 52.1755028 147.004486 12.3509922
v 54.0040016 156.077988 15.0419912
v 71.6450119 195.64949 12.1784897
v 67.8730087 198.915482 9.15399075
v 72.4039993 198.374985 10.1314898
v 72.4039993 198.374985 10.1314898
v 112.527512 201.571976 10.9709902
v 71.6450119 195.64949 12.1784897
v 115.149506 195.48848 12.5234909
v 71.6450119 195.64949 12.1784897
v 112.527512 201.571976 10.9709902
v 112.527512 201.571976 10.9709902
v 72.4039993 198.374985 10.1314898
v 111.653503 203.549988 9.78649044
v 66.3895035 156.054993 17.7674904
v 118.645508 187.323486 13.9954901
v 122.153008 179.112488 14.9614906
v 124.797997 172.879486 14.7314892
v 66.3895035 156.054993 17.7674904
v 122.153008 179.112488 14.9614906
v 66.3895035 156.054993 17.7674904
v 124.797997 172.879486 14.7314892
v 69.3680038 147.625488 16.5484924
v 69.3680038 147.625488 16.5484924
v 57.6840096 153.225983 16.7899914
v 66.3895035 156.054993 17.7674904
v 57.6840096 153.225983 16.7899914
v 69.3680038 147.625488 16.5484924
v 57.7185097 143.795975 15.1454916
v 52.1755028 147.004486 12.3509922
v 57.6840096 153.225983 16.7899914
v 57.7185097 143.795975 15.1454916
v 57.7185097 143.795975 15.1454916
v 55.4760017 145.037979 8.41799355
v 52.1755028 147.004486 12.3509922
v 27.4620018 167.301987 -14.1680069
v 52.1755028 147.004486 12.3509922
v 55.4760017 145.037979 8.41799355
v 124.797997 172.879486 14.7314892
v 71.0470047 145.405991 12.6269922
v 69.3680038 147.625488 16.5484924
v 59.6389999 142.50798 12.316493
v 69.3680038 147.625488 16.5484924
v 71.0470047 145.405991 12.6269922
v 69.3680038 147.625488 16.5484924
v 59.6389999 142.50798 12.316493
v 57.7185097 143.795975 15.1454916
v 55.4760017 145.037979 8.41799355
v 57.7185097 143.795975 15.1454916
v 59.6389999 142.50798 12.316493
v 71.0470047 145.405991 12.6269922
v 124.797997 172.879486 14.7314892
v 125.695015 170.636993 12.6384907
v 0 235.841995 -13.5470085
v 31.2340012 233.530487 -30.0610104
v 27.0480022 236.485992 -9.00450993
v 31.2340012 233.530487 -30.0610104
v 0 235.841995 -13.5470085
v 0 232.702469 -35.9835052
v 0 235.841995 -13.5470085
v -31.2340012 233.530487 -30.0610104
v 0 232.702469 -35.9835052
v -31.2340012 233.530487 -30.0610104
v 0 235.841995 -13.5470085
v -27.0480022 236.485992 -9.00450993
v -31.2340012 233.530487 -30.0610104
v -57.3390045 105.328491 11.4654942
v -71.9785004 69.7934952 -6.35950232
v -57.3390045 105.328491 11.4654942
v -31.2340012 233.530487 -30.0610104
v -27.0480022 236.485992 -9.00450993
v -127.397011 -177.352982 2.42650747
v -121.037506 -165.001984 11.1320066
v -122.475014 -178.088974 12.2590075
v -121.037506 -165.001984 11.1320066
v -127.397011 -177.352982 2.42650747
v -125.7985 -164.530472 1.90900695
v -125.7985 -164.530472 1.90900695
v -119.738014 -143.93399 7.47500515
v -121.037506 -165.001984 11.1320066
v -119.738014 -143.93399 7.47500515
v -125.7985 -164.530472 1.90900695
v -122.291016 -144.083496 2.95550585
v -122.291016 -144.083496 2.95550585
v -120.63501 -140.78299 5.00250578
v -119.738014 -143.93399 7.47500515
v -63.0660057 201.19249 5.97999096
v -26.3810005 229.194977 -27.5195065
v -23.6325016 234.185989 -25.4840088
v -26.3810005 229.194977 -27.5195065
v -63.0660057 201.19249 5.97999096
v -65.3890076 198.006973 3.92149091
v -65.3890076 198.006973 3.92149091
v -28.2555008 216.452988 -26.680006
v -26.3810005 229.194977 -27.5195065
v -28.2555008 216.452988 -26.680006
v -65.3890076 198.006973 3.92149091
v -69.1035004 183.700974 5.77299118
v -69.1035004 183.700974 5.77299118
v -29.6585007 199.90448 -24.3455086
v -28.2555008 216.452988 -26.680006
v -29.6585007 199.90448 -24.3455086
v -69.1035004 183.700974 5.77299118
v -68.1720047 168.831482 5.8304925
v -68.1720047 168.831482 5.8304925
v -31.0040016 183.482483 -21.9420052
v -29.6585007 199.90448 -24.3455086
v -67.8730087 198.915482 9.15399075
v -65.3890076 198.006973 3.92149091
v -63.0660057 201.19249 5.97999096
v -65.3890076 198.006973 3.92149091
v -67.8730087 198.915482 9.15399075
v -69.0115051 195.120468 6.84249115
v -69.1035004 183.700974 5.77299118
v -65.3890076 198.006973 3.92149091
v -69.0115051 195.120468 6.84249115
v -69.1035004 183.700974 5.77299118
v -69.0115051 195.120468 6.84249115
v -72.9560089 195.200974 7.99249029
v -72.9560089 195.200974 7.99249029
v -115.184006 195.154984 8.48699093
v -69.1035004 183.700974 5.77299118
v -118.703003 186.86348 8.44099045
v -69.1035004 183.700974 5.77299118
v -115.184006 195.154984 8.48699093
v -69.1035004 183.700974 5.77299118
v -118.703003 186.86348 8.44099045
v -68.1720047 168.831482 5.8304925
v -122.222015 178.617981 8.88949108
v -68.1720047 168.831482 5.8304925
v -118.703003 186.86348 8.44099045
v -68.1720047 168.831482 5.8304925
v -122.222015 178.617981 8.88949108
v -65.3890076 153.86998 6.71599293
v -31.0040016 183.482483 -21.9420052
v -68.1720047 168.831482 5.8304925
v -65.3890076 153.86998 6.71599293
v -65.3890076 153.86998 6.71599293
v -30.7854996 171.25798 -18.7795048
v -31.0040016 183.482483 -21.9420052
v -72.4039993 198.374985 10.1314898
v -69.0115051 195.120468 6.84249115
v -67.8730087 198.915482 9.15399075
v -69.0115051 195.120468 6.84249115
v -72.4039993 198.374985 10.1314898
v -72.9560089 195.200974 7.99249029
v -111.653503 203.549988 9.78649044
v -72.9560089 195.200974 7.99249029
v -72.4039993 198.374985 10.1314898
v -72.9560089 195.200974 7.99249029
v -111.653503 203.549988 9.78649044
v -112.550507 201.410965 8.95849037
v -115.184006 195.154984 8.48699093
v -72.9560089 195.200974 7.99249029
v -112.550507 201.410965 8.95849037
v -108.928009 -12.1899996 -17.5144978
v -142.094009 26.1624966 5.1174984
v -104.558014 -18.5724983 -14.1104975
v -142.094009 26.1624966 5.1174984
v -108.928009 -12.1899996 -17.5144978
v -142.231995 30.8889961 1.27649844
v -142.231995 30.8889961 1.27649844
v -181.585007 81.7649994 40.3419952
v -142.094009 26.1624966 5.1174984
v -181.585007 81.7649994 40.3419952
v -142.231995 30.8889961 1.27649844
v -181.14801 84.0994949 38.4904938
v -136.160019 52.991993 -1.02350223
v -181.14801 84.0994949 38.4904938
v -142.231995 30.8889961 1.27649844
v -181.14801 84.0994949 38.4904938
v -136.160019 52.991993 -1.02350223
v -176.237518 94.9554901 36.408989
v -122.912003 94.771492 -1.29950404
v -176.237518 94.9554901 36.408989
v -136.160019 52.991993 -1.02350223
v -176.237518 94.9554901 36.408989
v -122.912003 94.771492 -1.29950404
v -166.117508 115.632492 34.1894913
v -113.125504 19.630497 -15.1110001
v -142.231995 30.8889961 1.27649844
v -108.928009 -12.1899996 -17.5144978
v -142.231995 30.8889961 1.27649844
v -113.125504 19.630497 -15.1110001
v -136.160019 52.991993 -1.02350223
v -107.019005 46.8509979 -14.041502
v -136.160019 52.991993 -1.02350223
v -113.125504 19.630497 -15.1110001
v -122.912003 94.771492 -1.29950404
v -136.160019 52.991993 -1.02350223
v -107.019005 46.8509979 -14.041502
v -88.803009 79.6719894 -14.6165028
v -122.912003 94.771492 -1.29950404
v -107.019005 46.8509979 -14.041502
v -88.803009 79.6719894 -14.6165028
v -120.520004 99.5669937 0.712995589
v -122.912003 94.771492 -1.29950404
v -120.520004 99.5669937 0.712995589
v -166.117508 115.632492 34.1894913
v -122.912003 94.771492 -1.29950404
v -166.117508 115.632492 34.1894913
v -120.520004 99.5669937 0.712995589
v -164.611008 118.012993 34.7184906
v -120.520004 99.5669937 0.712995589
v -88.803009 79.6719894 -14.6165028
v -82.3975067 86.8249893 -12.1095028
v 43.1940041 -84.3754959 -52.8769913
v 49.6110039 51.0484962 -8.87800121
v 53.8199997 78.2574921 -38.0649986
v 49.6110039 51.0484962 -8.87800121
v 43.1940041 -84.3754959 -52.8769913
v 43.4700012 -89.596489 -22.6204948
v 120.520004 99.5669937 0.712995589
v 83.8580093 80.8564987 -7.8890028
v 82.3975067 86.8249893 -12.1095028
v 83.8580093 80.8564987 -7.8890028
v 120.520004 99.5669937 0.712995589
v 120.888016 94.9324875 3.27749562
v 83.8580093 80.8564987 -7.8890028
v 120.888016 94.9324875 3.27749562
v 97.9915085 50.8414955 -2.27700186
v 120.888016 94.9324875 3.27749562
v 131.962509 54.0154953 7.94649649
v 97.9915085 50.8414955 -2.27700186
v 97.9915085 50.8414955 -2.27700186
v 131.962509 54.0154953 7.94649649
v 103.327507 23.6784973 -2.24250102
v 139.150009 30.9464989 8.38349724
v 103.327507 23.6784973 -2.24250102
v 131.962509 54.0154953 7.94649649
v 103.327507 23.6784973 -2.24250102
v 139.150009 30.9464989 8.38349724
v 102.327011 -10.8789997 -8.46399879
v 164.611008 118.012993 34.7184906
v 120.888016 94.9324875 3.27749562
v 120.520004 99.5669937 0.712995589
v 120.888016 94.9324875 3.27749562
v 164.611008 118.012993 34.7184906
v 165.358505 115.586487 35.98349
v 174.593002 94.92099 40.1809921
v 120.888016 94.9324875 3.27749562
v 165.358505 115.586487 35.98349
v 120.888016 94.9324875 3.27749562
v 174.593002 94.92099 40.1809921
v 131.962509 54.0154953 7.94649649
v 179.883011 84.0074921 41.491993
v 131.962509 54.0154953 7.94649649
v 174.593002 94.92099 40.1809921
v 131.962509 54.0154953 7.94649649
v 179.883011 84.0074921 41.491993
v 139.150009 30.9464989 8.38349724
v 181.585007 81.7649994 40.3419952
v 139.150009 30.9464989 8.38349724
v 179.883011 84.0074921 41.491993
v 139.150009 30.9464989 8.38349724
v 181.585007 81.7649994 40.3419952
v 142.094009 26.1624966 5.1174984
v 142.094009 26.1624966 5.1174984
v 102.327011 -10.8789997 -8.46399879
v 139.150009 30.9464989 8.38349724
v 102.327011 -10.8789997 -8.46399879
v 142.094009 26.1624966 5.1174984
v 104.558014 -18.5724983 -14.1104975
v 57.3390045 105.328491 11.4654942
v 31.2340012 233.530487 -30.0610104
v 71.9785004 69.7934952 -6.35950232
v 31.2340012 233.530487 -30.0610104
v 57.3390045 105.328491 11.4654942
v 27.0480022 236.485992 -9.00450993
v -49.6110039 51.0484962 -8.87800121
v -43.1940041 -84.3754959 -52.8769913
v -53.8199997 78.2574921 -38.0649986
v -43.1940041 -84.3754959 -52.8769913
v -49.6110039 51.0484962 -8.87800121
v -43.4700012 -89.596489 -22.6204948
v 5.39350033 -244.696976 -58.2934875
v 11.1090012 -208.138504 -35.8224907
v -0.690000057 -245.202972 -40.0199814
v 11.1090012 -208.138504 -35.8224907
v 5.39350033 -244.696976 -58.2934875
v 16.8705006 -207.816483 -53.1414871
v 34.074501 -148.591476 -41.4114876
v 11.1090012 -208.138504 -35.8224907
v 16.8705006 -207.816483 -53.1414871
v 11.1090012 -208.138504 -35.8224907
v 34.074501 -148.591476 -41.4114876
v 31.3375015 -148.729492 -32.5219917
v 34.8565025 -141.829483 -36.075489
v 31.3375015 -148.729492 -32.5219917
v 34.074501 -148.591476 -41.4114876
v -112.550507 201.410965 8.95849037
v -111.653503 203.549988 9.78649044
v -112.527512 201.571976 10.9709902
v -115.149506 195.48848 12.5234909
v -112.550507 201.410965 8.95849037
v -112.527512 201.571976 10.9709902
v -112.550507 201.410965 8.95849037
v -115.149506 195.48848 12.5234909
v -115.184006 195.154984 8.48699093
v -118.645508 187.323486 13.9954901
v -115.184006 195.154984 8.48699093
v -115.149506 195.48848 12.5234909
v -115.184006 195.154984 8.48699093
v -118.645508 187.323486 13.9954901
v -118.703003 186.86348 8.44099045
v -122.153008 179.112488 14.9614906
v -118.703003 186.86348 8.44099045
v -118.645508 187.323486 13.9954901
v -118.703003 186.86348 8.44099045
v -122.153008 179.112488 14.9614906
v -122.222015 178.617981 8.88949108
v -124.797997 172.879486 14.7314892
v -122.222015 178.617981 8.88949108
v -122.153008 179.112488 14.9614906
v -122.222015 178.617981 8.88949108
v -124.797997 172.879486 14.7314892
v -124.844009 172.511475 10.1889915
v -124.797997 172.879486 14.7314892
v -125.695015 170.636993 12.6384907
v -124.844009 172.511475 10.1889915
v -166.117508 115.632492 34.1894913
v -164.611008 118.012993 34.7184906
v -165.358505 115.586487 35.98349
v -174.593002 94.92099 40.1809921
v -166.117508 115.632492 34.1894913
v -165.358505 115.586487 35.98349
v -166.117508 115.632492 34.1894913
v -174.593002 94.92099 40.1809921
v -176.237518 94.9554901 36.408989
v -179.883011 84.0074921 41.491993
v -176.237518 94.9554901 36.408989
v -174.593002 94.92099 40.1809921
v -176.237518 94.9554901 36.408989
v -179.883011 84.0074921 41.491993
v -181.14801 84.0994949 38.4904938
v -179.883011 84.0074921 41.491993
v -181.585007 81.7649994 40.3419952
v -181.14801 84.0994949 38.4904938
v 111.653503 203.549988 9.78649044
v 112.550507 201.410965 8.95849037
v 112.527512 201.571976 10.9709902
v 112.550507 201.410965 8.95849037
v 115.149506 195.48848 12.5234909
v 112.527512 201.571976 10.9709902
v 115.149506 195.48848 12.5234909
v 112.550507 201.410965 8.95849037
v 115.184006 195.154984 8.48699093
v 115.184006 195.154984 8.48699093
v 118.645508 187.323486 13.9954901
v 115.149506 195.48848 12.5234909
v 118.645508 187.323486 13.9954901
v 115.184006 195.154984 8.48699093
v 118.703003 186.86348 8.44099045
v 118.703003 186.86348 8.44099045
v 122.153008 179.112488 14.9614906
v 118.645508 187.323486 13.9954901
v 122.153008 179.112488 14.9614906
v 118.703003 186.86348 8.44099045
v 122.222015 178.617981 8.88949108
v 122.222015 178.617981 8.88949108
v 124.797997 172.879486 14.7314892
v 122.153008 179.112488 14.9614906
v 124.797997 172.879486 14.7314892
v 122.222015 178.617981 8.88949108
v 124.844009 172.511475 10.1889915
v 125.695015 170.636993 12.6384907
v 124.797997 172.879486 14.7314892
v 124.844009 172.511475 10.1889915
v 164.611008 118.012993 34.7184906
v 166.117508 115.632492 34.1894913
v 165.358505 115.586487 35.98349
v 166.117508 115.632492 34.1894913
v 174.593002 94.92099 40.1809921
v 165.358505 115.586487 35.98349
v 174.593002 94.92099 40.1809921
v 166.117508 115.632492 34.1894913
v 176.237518 94.9554901 36.408989
v 176.237518 94.9554901 36.408989
v 179.883011 84.0074921 41.491993
v 174.593002 94.92099 40.1809921
v 179.883011 84.0074921 41.491993
v 176.237518 94.9554901 36.408989
v 181.14801 84.0994949 38.4904938
v 181.585007 81.7649994 40.3419952
v 179.883011 84.0074921 41.491993
v 181.14801 84.0994949 38.4904938
v -30.7854996 171.25798 -18.7795048
v -65.3890076 153.86998 6.71599293
v -59.5699997 146.85498 7.19899321
v -59.5699997 146.85498 7.19899321
v -65.3890076 153.86998 6.71599293
v -62.237999 144.589478 9.61399269
v -59.6389999 142.50798 12.316493
v -59.5699997 146.85498 7.19899321
v -62.237999 144.589478 9.61399269
v -59.5699997 146.85498 7.19899321
v -59.6389999 142.50798 12.316493
v -55.4760017 145.037979 8.41799355
v -27.4620018 167.301987 -14.1680069
v -59.5699997 146.85498 7.19899321
v -55.4760017 145.037979 8.41799355
v -59.5699997 146.85498 7.19899321
v -27.4620018 167.301987 -14.1680069
v -30.7854996 171.25798 -18.7795048
v -65.3890076 153.86998 6.71599293
v -70.6560059 147.97049 9.958992
v -62.237999 144.589478 9.61399269
v -71.0470047 145.405991 12.6269922
v -62.237999 144.589478 9.61399269
v -70.6560059 147.97049 9.958992
v -62.237999 144.589478 9.61399269
v -71.0470047 145.405991 12.6269922
v -59.6389999 142.50798 12.316493
v -122.222015 178.617981 8.88949108
v -70.6560059 147.97049 9.958992
v -65.3890076 153.86998 6.71599293
v -70.6560059 147.97049 9.958992
v -122.222015 178.617981 8.88949108
v -124.844009 172.511475 10.1889915
v -125.695015 170.636993 12.6384907
v -70.6560059 147.97049 9.958992
v -124.844009 172.511475 10.1889915
v -70.6560059 147.97049 9.958992
v -125.695015 170.636993 12.6384907
v -71.0470047 145.405991 12.6269922
v 0 51.2094917 -17.8250008
v -44.6545029 124.027496 -1.71350527
v 0 145.037979 -9.41850567
v -44.6545029 124.027496 -1.71350527
v 0 51.2094917 -17.8250008
v -49.6110039 51.0484962 -8.87800121
v -75.2445068 12.8569984 -5.41650009
v -44.6545029 124.027496 -1.71350527
v -49.6110039 51.0484962 -8.87800121
v -44.6545029 124.027496 -1.71350527
v -75.2445068 12.8569984 -5.41650009
v -135.458496 36.0065002 6.25599813
v -135.458496 36.0065002 6.25599813
v -75.2445068 12.8569984 -5.41650009
v -58.9950066 -58.4429932 -16.7209949
v -135.458496 36.0065002 6.25599813
v -58.9950066 -58.4429932 -16.7209949
v -43.4700012 -89.596489 -22.6204948
v -135.458496 36.0065002 6.25599813
v -43.4700012 -89.596489 -22.6204948
v 0 -257.795471 -45.4709816
v 44.6545029 124.027496 -1.71350527
v 0 51.2094917 -17.8250008
v 0 145.037979 -9.41850567
v 0 51.2094917 -17.8250008
v 44.6545029 124.027496 -1.71350527
v 49.6110039 51.0484962 -8.87800121
v 49.6110039 51.0484962 -8.87800121
v 43.4700012 -89.596489 -22.6204948
v 0 51.2094917 -17.8250008
v 43.4700012 -89.596489 -22.6204948
v 0 -257.795471 -45.4709816
v 0 51.2094917 -17.8250008
v 0 -257.795471 -45.4709816
v -43.4700012 -89.596489 -22.6204948
v 0 51.2094917 -17.8250008
v -43.4700012 -89.596489 -22.6204948
v -49.6110039 51.0484962 -8.87800121
v 0 51.2094917 -17.8250008
v 44.6545029 124.027496 -1.71350527
v 75.2445068 12.8569984 -5.41650009
v 49.6110039 51.0484962 -8.87800121
v 75.2445068 12.8569984 -5.41650009
v 44.6545029 124.027496 -1.71350527
v 135.458496 36.0065002 6.25599813
v 58.9950066 -58.4429932 -16.7209949
v 75.2445068 12.8569984 -5.41650009
v 135.458496 36.0065002 6.25599813
v 58.9950066 -58.4429932 -16.7209949
v 135.458496 36.0065002 6.25599813
v 43.4700012 -89.596489 -22.6204948
v 43.4700012 -89.596489 -22.6204948
v 135.458496 36.0065002 6.25599813
v 0 -257.795471 -45.4709816
v -43.1940041 -84.3754959 -52.8769913
v 0 91.8849945 -49.024498
v -53.8199997 78.2574921 -38.0649986
v 0 91.8849945 -49.024498
v -43.1940041 -84.3754959 -52.8769913
v 0 -181.35498 -70.0004807
v 43.1940041 -84.3754959 -52.8769913
v 0 91.8849945 -49.024498
v 0 -181.35498 -70.0004807
v 0 91.8849945 -49.024498
v 43.1940041 -84.3754959 -52.8769913
v 53.8199997 78.2574921 -38.0649986
v 54.0500031 131.502487 -34.2700043
v 0 91.8849945 -49.024498
v 53.8199997 78.2574921 -38.0649986
v 0 91.8849945 -49.024498
v 54.0500031 131.502487 -34.2700043
v 0 155.295975 -44.1600037
v -54.0500031 131.502487 -34.2700043
v 0 91.8849945 -49.024498
v 0 155.295975 -44.1600037
v 0 91.8849945 -49.024498
v -54.0500031 131.502487 -34.2700043
v -53.8199997 78.2574921 -38.0649986
v -54.0500031 131.502487 -34.2700043
v -94.1505051 28.6004944 -31.7859974
v -53.8199997 78.2574921 -38.0649986
v -43.1940041 -84.3754959 -52.8769913
v 0 -254.931976 -67.1369858
v 0 -181.35498 -70.0004807
v 0 -254.931976 -67.1369858
v 43.1940041 -84.3754959 -52.8769913
v 0 -181.35498 -70.0004807
v 43.1940041 -84.3754959 -52.8769913
v 0 -254.931976 -67.1369858
v 61.9735031 -54.0039978 -46.3564949
v 139.552505 38.5824966 -12.8800011
v 61.9735031 -54.0039978 -46.3564949
v 0 -254.931976 -67.1369858
v 139.552505 38.5824966 -12.8800011
v 94.1505051 28.6004944 -31.7859974
v 61.9735031 -54.0039978 -46.3564949
v 54.0500031 131.502487 -34.2700043
v 94.1505051 28.6004944 -31.7859974
v 139.552505 38.5824966 -12.8800011
v 94.1505051 28.6004944 -31.7859974
v 54.0500031 131.502487 -34.2700043
v 53.8199997 78.2574921 -38.0649986
v 0 -254.931976 -67.1369858
v -43.1940041 -84.3754959 -52.8769913
v -61.9735031 -54.0039978 -46.3564949
v -61.9735031 -54.0039978 -46.3564949
v -139.552505 38.5824966 -12.8800011
v 0 -254.931976 -67.1369858
v -61.9735031 -54.0039978 -46.3564949
v -94.1505051 28.6004944 -31.7859974
v -139.552505 38.5824966 -12.8800011
v -94.1505051 28.6004944 -31.7859974
v -54.0500031 131.502487 -34.2700043
v -139.552505 38.5824966 -12.8800011

# 235 UV coordinates
vt 0.0405000001 0.359000027 0
vt 0.00949999969 0.397899985 0
vt 0.0126 0.349099994 0
vt 0.0377000012 0.399600029 0
vt 0.0168999992 0.502200007 0
vt 0.0329999998 0.502999991 0
vt 0.0329999998 0.770400003 0
vt 0.0151000004 0.7711 0
vt 0.320499986 0.368799984 0
vt 0.30219999 0.335699975 0
vt 0.329899997 0.345799983 0
vt 0.29370001 0.35860002 0
vt 0.237800002 0.337000012 0
vt 0.234899998 0.307900012 0
vt 0.200399995 0.335900009 0
vt 0.182799995 0.308499992 0
vt 0.0538000017 0.762400001 0
vt 0.0888999999 0.715000004 0
vt 0.0482000001 0.752700001 0
vt 0.109099999 0.731599987 0
vt 0.112599999 0.757499993 0
vt 0.0590999983 0.772300005 0
vt 0.501100004 0.546299994 0
vt 0.523699999 0.571200013 0
vt 0.536899984 0.541700006 0
vt 0.49059999 0.576999992 0
vt 0.451000005 0.652099997 0
vt 0.439799994 0.648299992 0
vt 0.43779999 0.586400002 0
vt 0.421700001 0.642199993 0
vt 0.430500001 0.58829999 0
vt 0.417899996 0.641099989 0
vt 0.443800002 0.553799987 0
vt 0.435799986 0.554399997 0
vt 0.546899974 0.562700003 0
vt 0.549000025 0.596100003 0
vt 0.563899994 0.568199992 0
vt 0.53609997 0.593100011 0
vt 0.517400026 0.700899988 0
vt 0.527400017 0.702699989 0
vt 0.49970001 0.666099995 0
vt 0.472799987 0.673900008 0
vt 0.4736 0.675599992 0
vt 0.499900013 0.662099987 0
vt 0.468100011 0.664900005 0
vt 0.500400007 0.634000003 0
vt 0.465299994 0.659399986 0
vt 0.500699997 0.616699994 0
vt 0.514900029 0.626599997 0
vt 0.514400005 0.608399987 0
vt 0.515799999 0.659999996 0
vt 0.515600026 0.656100005 0
vt 0.358900011 0.596300006 0
vt 0.389999986 0.593800008 0
vt 0.358900011 0.594599992 0
vt 0.390199989 0.596199989 0
vt 0.396899998 0.595499992 0
vt 0.396699995 0.59740001 0
vt 0.40079999 0.598100007 0
vt 0.398799986 0.600199997 0
vt 0.41139999 0.617500007 0
vt 0.409500003 0.620400012 0
vt 0.389699996 0.600800008 0
vt 0.394199997 0.601500005 0
vt 0.395399988 0.603599995 0
vt 0.407099992 0.626899987 0
vt 0.391099989 0.610500008 0
vt 0.403699994 0.635399997 0
vt 0.358799994 0.599799991 0
vt 0.358700007 0.604400009 0
vt 0.389999986 0.60800001 0
vt 0.385699987 0.614600003 0
vt 0.386900008 0.617199987 0
vt 0.400700003 0.6435 0
vt 0.384000003 0.622399986 0
vt 0.398400009 0.649300009 0
vt 0.358599991 0.608999997 0
vt 0.378899992 0.618400007 0
vt 0.382400006 0.619300008 0
vt 0.380100012 0.621300012 0
vt 0.382200003 0.624000013 0
vt 0.396800011 0.6514 0
vt 0.358500004 0.612500012 0
vt 0.377900004 0.619899988 0
vt 0.358399987 0.613799989 0
vt 0.0342999995 0.337100029 0
vt 0.023 0.324199975 0
vt 0.0318999998 0.338999987 0
vt 0.0249000005 0.323099971 0
vt 0.0103000002 0.303799987 0
vt 0.0110999998 0.302999973 0
vt 0.0185000002 0.296899974 0
vt 0.0403000005 0.314300001 0
vt 0.0223999992 0.293799996 0
vt 0.0449000001 0.328199983 0
vt 0.0553000011 0.323800027 0
vt 0.0491999984 0.309400022 0
vt 0.0233999994 0.292999983 0
vt 0.0513999984 0.307900012 0
vt 0.069600001 0.322000027 0
vt 0.0732999966 0.320500016 0
vt 0.43810001 0.662600011 0
vt 0.452199996 0.657400012 0
vt 0.449299991 0.667100012 0
vt 0.440899998 0.653499991 0
vt 0.420599997 0.653600007 0
vt 0.422399998 0.649199992 0
vt 0.41870001 0.650400013 0
vt 0.281599998 0.639600009 0
vt 0.326599985 0.677300006 0
vt 0.27579999 0.6417 0
vt 0.33070001 0.675399989 0
vt 0.33070001 0.680799991 0
vt 0.335200012 0.678799987 0
vt 0.332899988 0.683899999 0
vt 0.336699992 0.682799995 0
vt 0.343199998 0.722799987 0
vt 0.345699996 0.722799987 0
vt 0.29460001 0.636599988 0
vt 0.346199989 0.674100012 0
vt 0.352699995 0.722900003 0
vt 0.311399996 0.632699996 0
vt 0.360300004 0.667600006 0
vt 0.361900002 0.723100007 0
vt 0.328099996 0.628899992 0
vt 0.373800009 0.659700006 0
vt 0.371100008 0.723399997 0
vt 0.340600014 0.625499994 0
vt 0.379200011 0.651899993 0
vt 0.3829 0.654000014 0
vt 0.382099986 0.662900001 0
vt 0.377999991 0.723699987 0
vt 0.381300002 0.724000007 0
vt 0.385899991 0.662499994 0
vt 0.346500009 0.621600002 0
vt 0.381099999 0.647399992 0
vt 0.386099994 0.650999993 0
vt 0.0795999989 0.317799985 0
vt 0.120200001 0.336899996 0
vt 0.122199997 0.343400002 0
vt 0.0804999992 0.313000023 0
vt 0.108900003 0.313399971 0
vt 0.0798999965 0.294499993 0
vt 0.105899997 0.290799975 0
vt 0.0780000016 0.259299994 0
vt 0.109999999 0.260500014 0
vt 0.0259000007 0.287199974 0
vt 0.0266999993 0.28490001 0
vt 0.0280000009 0.275200009 0
vt 0.0302000009 0.256600022 0
vt 0.0776000023 0.254700005 0
vt 0.111900002 0.252600014 0
vt 0.0303000007 0.254299998 0
vt 0.0397000015 0.847800002 0
vt 0.173600003 0.787100002 0
vt 0.0392999984 0.821899995 0
vt 0.193499997 0.847599998 0
vt 0.173700005 0.908200003 0
vt 0.0392999984 0.873699993 0
vt 0.180399999 0.735900015 0
vt 0.151199996 0.727600008 0
vt 0.167899996 0.748299986 0
vt 0.158399999 0.711899996 0
vt 0.126000002 0.710900009 0
vt 0.124600001 0.728500009 0
vt 0.496399999 0.521499991 0
vt 0.534500003 0.533600003 0
vt 0.532199979 0.516000003 0
vt 0.498800009 0.538100004 0
vt 0.440899998 0.542100012 0
vt 0.439599991 0.533699989 0
vt 0.433600008 0.538800001 0
vt 0.0162000004 0.846399993 0
vt 0.0320999995 0.822600007 0
vt 0.0146000003 0.824300006 0
vt 0.0344000012 0.848199993 0
vt 0.0271000005 0.872899994 0
vt 0.0103000002 0.867899999 0
vt 0.0375000015 0.811900005 0
vt 0.139200002 0.765599996 0
vt 0.171800002 0.776999995 0
vt 0.0322999991 0.795000002 0
vt 0.138799995 0.433700025 0
vt 0.161500007 0.443799973 0
vt 0.345999986 0.727699995 0
vt 0.343600005 0.728599995 0
vt 0.345899999 0.729799986 0
vt 0.352699995 0.731299996 0
vt 0.352899998 0.727100015 0
vt 0.361799985 0.73269999 0
vt 0.362199992 0.726999998 0
vt 0.370900005 0.733599991 0
vt 0.371399999 0.727299988 0
vt 0.377900004 0.733200014 0
vt 0.378199995 0.728599995 0
vt 0.380299985 0.731099993 0
vt 0.0252999999 0.255999982 0
vt 0.0247000009 0.253799975 0
vt 0.0237000007 0.255800009 0
vt 0.0209999997 0.274299979 0
vt 0.0242999997 0.274699986 0
vt 0.0203000009 0.284099996 0
vt 0.0229000002 0.284399986 0
vt 0.0214000009 0.286300004 0
vt 0.296799988 0.452300012 0
vt 0.326900005 0.470899999 0
vt 0.335200012 0.452300012 0
vt 0.296999991 0.472800016 0
vt 0.281599998 0.483699977 0
vt 0.291500002 0.508599997 0
vt 0.252200007 0.476800025 0
vt 0.239299998 0.470300019 0
vt 0.170100003 0.452300012 0
vt 0.326900005 0.433600008 0
vt 0.296999991 0.431699991 0
vt 0.239299998 0.434300005 0
vt 0.281599998 0.420899987 0
vt 0.291500002 0.396000028 0
vt 0.252200007 0.4278 0
vt 0.240799993 0.607600003 0
vt 0.0970999971 0.5713 0
vt 0.107600003 0.61680001 0
vt 0.320199996 0.5713 0
vt 0.240799993 0.534999996 0
vt 0.107600003 0.52579999 0
vt 0.0632999986 0.525400013 0
vt 0.0443000011 0.5713 0
vt 0.0632999986 0.617199987 0
vt 0.148599997 0.6514 0
vt 0.380100012 0.5713 0
vt 0.215900004 0.51910001 0
vt 0.139799997 0.450699985 0
vt 0.148599997 0.49119997 0
vt 0.215900004 0.623600006 0
vt 0.139799997 0.691900015 0

# 411 vertex normals
vn -0.354503691 0.890209079 0.286102861
vn -0.460189521 0.831980884 0.309892803
vn -0.347286016 0.899363518 0.265589207
vn -0.567481577 0.766674936 0.300290138
vn -0.965058267 0.164592862 0.203891113
vn -0.958978176 0.168596134 0.227894753
vn -0.902429402 -0.429113865 0.0385012627
vn -0.905683756 -0.420292348 -0.0555989668
vn 0.876461565 0.480078876 0.0365983658
vn 0.910014868 0.404306471 -0.0917014852
vn 0.855684638 0.508590817 0.0955982357
vn 0.938465118 0.342687219 -0.0429984108
vn 0.904401243 0.0663000494 -0.421500474
vn 0.752071261 -0.227491274 -0.618576229
vn -0.45019722 -0.60209614 -0.659395695
vn -0.451427877 -0.68424207 -0.57273519
vn 0.902429402 -0.429113865 0.0385012627
vn 0.965058267 0.164592862 0.203891113
vn 0.905683756 -0.420292348 -0.0555989668
vn 0.958978176 0.168596134 0.227894753
vn 0.567481577 0.766674936 0.300290138
vn 0.460189521 0.831980884 0.309892803
vn 0.354503691 0.890209079 0.286102861
vn 0.347286016 0.899363518 0.265589207
vn 0 0.0897964612 0.995960176
vn 0.224104628 0.087601833 0.970619857
vn 0.167197853 0.114198558 0.979287267
vn 0 0.0631004944 0.998007178
vn -0.224104628 0.087601833 0.970619857
vn -0.167197853 0.114198558 0.979287267
vn -0.286007255 0.0664016157 -0.955923975
vn -0.367801428 0.0137000093 -0.929803371
vn -0.286604524 0.044500649 -0.957014918
vn -0.397723734 0.0395023078 -0.916654527
vn -0.508682668 -0.0119996257 -0.860870481
vn -0.514301062 0.0541000627 -0.855901599
vn -0.381596982 0.308597475 -0.871292949
vn -0.482297093 0.403597474 -0.777495086
vn -0.367710412 0.53101486 -0.763421476
vn -0.412792474 0.620588422 -0.666687667
vn -0.262993634 0.274993211 -0.924777269
vn -0.213593513 0.558582902 -0.801475525
vn -0.213094547 -0.976774752 0.0223994628
vn -0.356602818 -0.93000716 0.0890007168
vn -0.199195072 -0.979175568 0.0391990691
vn -0.367706299 -0.927415609 0.0685011968
vn -0.490403622 -0.857906163 0.153301135
vn -0.481511861 -0.858420908 0.176804364
vn 0.381504625 0.530606329 0.756908953
vn 0.49050495 0.436204344 0.754407465
vn 0.430185646 0.629878879 0.646678329
vn 0.369508266 0.291506469 0.88231945
vn 0.510624886 0.0855041966 0.855541527
vn 0.344586939 0.0188993178 0.938564122
vn 0.490919679 0.0411016718 0.870234668
vn 0.266491801 -0.0299990326 0.963370204
vn 0.151503339 -0.0494010299 0.98722142
vn 0.136706546 -0.0684032142 0.988247037
vn 0.200902805 0.467406511 0.860911846
vn 0.191505402 0.176304981 0.965526938
vn -0.208000258 -0.394600332 0.895000815
vn -0.277293026 -0.724981666 0.630484045
vn -0.274596334 -0.595091879 0.755289733
vn -0.132708117 -0.520231664 0.843651354
vn 0.048499696 -0.915494084 0.399397463
vn 0.353102475 -0.719104707 0.598504066
vn 0.54023242 -0.841350138 -0.0167009588
vn 0.686798215 -0.537398458 0.489398599
vn 0.653774619 -0.756070375 0.030598836
vn 0.748893559 -0.285797477 0.597894788
vn 0.0106002223 0.00680018496 0.999920666
vn 0.281891435 -0.0779975653 0.956270695
vn 0.536177099 0.0201991685 0.843863785
vn 0.598498642 0.0877998322 0.796298027
vn 0.464323789 0.160808206 0.870944381
vn 0.545704544 0.16130136 0.822306752
vn -0.0286007784 0.0522014499 0.998226941
vn 0.00740016671 0.139303163 0.990222156
vn 0.212999538 0.125199735 0.968997538
vn 0.166697651 0.189197332 0.967686057
vn 0.426097929 0.244198799 0.871095538
vn 0.470099509 0.245099753 0.847898901
vn 0.27840063 0.476901025 0.83370167
vn 0.16500175 0.560705781 0.811408281
vn 0.00839996524 0.1912992 0.981495798
vn 0.0745992362 0.413395673 0.907490432
vn 0.226398259 0.396696895 0.889592826
vn 0.142299712 0.605398774 0.78309834
vn 0.0603010729 0.67721194 0.733312786
vn -0.0448010042 0.717016041 0.695615411
vn 0.0437997505 0.456597298 0.888594627
vn 0.072898902 0.574591219 0.815187514
vn 0.0575000905 0.49410063 0.86750114
vn 0.382511467 0.309909225 0.87042594
vn 0.498396724 0.402797282 0.767694652
vn 0.416684538 0.454683006 0.78717047
vn 0.504709065 0.12620227 0.854015112
vn 0.650199652 0.258599788 0.714399397
vn 0.607773662 0.0540976748 0.792265475
vn 0.545799017 -0.0959997848 0.832398534
vn 0.408386409 -0.0731975213 0.909869611
vn 0.372000158 -0.268999994 0.888400197
vn 0.291911274 0.00410019886 0.956436634
vn 0.268397987 -0.0951992273 0.958592534
vn 0.15699698 -0.332393467 0.929982007
vn 0.0161003601 -0.522611499 0.8524189
vn -0.137602001 -0.52610743 0.839211941
vn -0.0452985242 -0.41108644 0.910470188
vn -0.219697535 -0.534993947 0.815790713
vn 0.879418075 0.132602707 0.457209259
vn 0.880242586 0.13190636 0.455821902
vn 0.881819665 0.135803014 0.451609939
vn 0.874105573 0.128600806 0.468402863
vn 0.869492471 0.130498856 0.476395756
vn 0.865279317 0.128696933 0.484488279
vn 0.864753544 0.133692801 0.484073877
vn 0.367710412 0.53101486 -0.763421476
vn 0.482297093 0.403597474 -0.777495086
vn 0.412792474 0.620588422 -0.666687667
vn 0.381596982 0.308597475 -0.871292949
vn 0.514301062 0.0541000627 -0.855901599
vn 0.397723734 0.0395023078 -0.916654527
vn 0.508682668 -0.0119996257 -0.860870481
vn 0.367801428 0.0137000093 -0.929803371
vn 0.286007255 0.0664016157 -0.955923975
vn 0.286604524 0.044500649 -0.957014918
vn 0.213593513 0.558582902 -0.801475525
vn 0.262993634 0.274993211 -0.924777269
vn 0.753089607 0.452293664 -0.477793336
vn 0.690702558 0.643502235 -0.329901189
vn 0.750100672 0.557900369 -0.355100274
vn 0.717487097 0.364993304 -0.593289196
vn 0.551309764 0.607810676 -0.571510077
vn 0.460206985 0.383705705 -0.800611913
vn 0.127197281 0.564487696 -0.815582335
vn 0.0702989474 0.314395189 -0.946685612
vn -0.0561003685 0.451302826 -0.890605688
vn -0.0101998532 0.216696799 -0.976185679
vn 0.632631779 0.0182008781 -0.774238765
vn 0.380084246 0.0448980927 -0.923861504
vn 0.0251991842 0.0979967639 -0.994867623
vn 0.587907493 -0.0585007668 -0.806810081
vn 0.331788391 -0.0641977862 -0.941166878
vn 0.055901859 -0.00260012969 -0.998432934
vn 0.545893967 -0.149598375 -0.824390769
vn 0.336995751 -0.282296449 -0.898188472
vn 0.100297861 -0.155196697 -0.982778847
vn 0.30938676 -0.48227936 -0.819564819
vn 0.161894977 -0.641580105 -0.749776661
vn 0.220803276 -0.637409329 -0.738210797
vn 0.235493943 -0.498687118 -0.834178448
vn 0.212505177 -0.461111128 -0.861520827
vn 0.312405676 -0.680112302 -0.663211882
vn 0.281295508 -0.740388155 -0.610490084
vn 0.0197991114 -0.707268119 -0.706668079
vn 0.108399697 -0.710597992 -0.69519788
vn 0.105896816 -0.804175675 -0.584882259
vn 0.820994258 -0.460796714 -0.337097555
vn 0.757233739 -0.370016426 -0.538223863
vn 0.785938144 -0.605329275 -0.126006052
vn 0.711573541 -0.152894288 -0.685774267
vn 0.451818913 0.0546022356 -0.890437067
vn 0.510682225 0.111796044 -0.8524701
vn 0.356695443 0.129598275 -0.925187886
vn 0.401894331 0.271896064 -0.874387503
vn 0.201900631 0.350600988 -0.91450268
vn 0.838691294 -0.299596846 -0.454795182
vn 0.703596711 -0.0120999701 -0.710496485
vn 0.580301702 0.163100436 -0.797902286
vn 0.463570774 0.387675434 -0.796749532
vn 0.278792262 0.465886861 -0.839776337
vn 0.149098173 0.443294436 -0.883889019
vn 0.423599601 0.443599492 -0.789799154
vn 0 -0.0817958713 -0.996649146
vn 0.219699666 -0.0797999054 -0.972298324
vn 0.187900513 -0.0948002711 -0.977602363
vn 0 -0.0667978004 -0.997766554
vn -0.219699666 -0.0797999054 -0.972298324
vn -0.187900513 -0.0948002711 -0.977602363
vn -0.0402988158 -0.465986162 0.88387382
vn 0 -0.466389149 0.884579599
vn -0.039400883 -0.461010158 0.88651967
vn 0 -0.471485853 0.881873608
vn 0.0402988158 -0.465986162 0.88387382
vn 0.039400883 -0.461010158 0.88651967
vn 0.902120113 0.321207047 -0.288106352
vn 0.900962591 0.320586562 -0.292387784
vn 0.901519001 0.320006639 -0.291306078
vn 0.90059936 0.320499629 -0.293599725
vn 0.904382765 0.321493834 -0.280594617
vn 0.90608418 0.322394311 -0.273995191
vn 0.906509817 0.321103394 -0.274102956
vn 0.45019722 -0.60209614 -0.659395695
vn -0.752071261 -0.227491274 -0.618576229
vn 0.451427877 -0.68424207 -0.57273519
vn -0.904401243 0.0663000494 -0.421500474
vn -0.910014868 0.404306471 -0.0917014852
vn -0.938465118 0.342687219 -0.0429984108
vn -0.876461565 0.480078876 0.0365983658
vn -0.855684638 0.508590817 0.0955982357
vn -0.151503339 -0.0494010299 0.98722142
vn -0.266491801 -0.0299990326 0.963370204
vn -0.136706546 -0.0684032142 0.988247037
vn -0.344586939 0.0188993178 0.938564122
vn -0.490919679 0.0411016718 0.870234668
vn -0.510624886 0.0855041966 0.855541527
vn -0.369508266 0.291506469 0.88231945
vn -0.49050495 0.436204344 0.754407465
vn -0.381504625 0.530606329 0.756908953
vn -0.430185646 0.629878879 0.646678329
vn -0.191505402 0.176304981 0.965526938
vn -0.200902805 0.467406511 0.860911846
vn 0.490403622 -0.857906163 0.153301135
vn 0.356602818 -0.93000716 0.0890007168
vn 0.481511861 -0.858420908 0.176804364
vn 0.367706299 -0.927415609 0.0685011968
vn 0.213094547 -0.976774752 0.0223994628
vn 0.199195072 -0.979175568 0.0391990691
vn -0.0603010729 0.67721194 0.733312786
vn -0.16500175 0.560705781 0.811408281
vn 0.0448010042 0.717016041 0.695615411
vn -0.27840063 0.476901025 0.83370167
vn -0.470099509 0.245099753 0.847898901
vn -0.426097929 0.244198799 0.871095538
vn -0.545704544 0.16130136 0.822306752
vn -0.464323789 0.160808206 0.870944381
vn -0.598498642 0.0877998322 0.796298027
vn -0.142299712 0.605398774 0.78309834
vn -0.226398259 0.396696895 0.889592826
vn -0.166697651 0.189197332 0.967686057
vn -0.212999538 0.125199735 0.968997538
vn -0.536177099 0.0201991685 0.843863785
vn -0.748893559 -0.285797477 0.597894788
vn -0.686798215 -0.537398458 0.489398599
vn -0.653774619 -0.756070375 0.030598836
vn -0.0745992362 0.413395673 0.907490432
vn -0.00839996524 0.1912992 0.981495798
vn -0.00740016671 0.139303163 0.990222156
vn -0.0106002223 0.00680018496 0.999920666
vn -0.281891435 -0.0779975653 0.956270695
vn -0.072898902 0.574591219 0.815187514
vn -0.0437997505 0.456597298 0.888594627
vn -0.0575000905 0.49410063 0.86750114
vn 0.0286007784 0.0522014499 0.998226941
vn 0.208000258 -0.394600332 0.895000815
vn 0.132708117 -0.520231664 0.843651354
vn -0.353102475 -0.719104707 0.598504066
vn -0.54023242 -0.841350138 -0.0167009588
vn 0.277293026 -0.724981666 0.630484045
vn -0.048499696 -0.915494084 0.399397463
vn 0.274596334 -0.595091879 0.755289733
vn 0 0.990320027 -0.138802841
vn -0.000100002035 0.990320027 -0.138802841
vn -0.000199998525 0.99029249 -0.138998985
vn 0 0.990349412 -0.138592958
vn 0.000100002035 0.990320027 -0.138802841
vn 0.000199998525 0.99029249 -0.138998985
vn -0.946539402 0.256210595 0.196008086
vn -0.934490263 0.266697198 0.235797495
vn -0.956842124 0.245310754 0.15580681
vn -0.880242586 0.13190636 0.455821902
vn -0.879418075 0.132602707 0.457209259
vn -0.881819665 0.135803014 0.451609939
vn -0.874105573 0.128600806 0.468402863
vn -0.869492471 0.130498856 0.476395756
vn -0.865279317 0.128696933 0.484488279
vn -0.864753544 0.133692801 0.484073877
vn -0.690702558 0.643502235 -0.329901189
vn -0.753089607 0.452293664 -0.477793336
vn -0.750100672 0.557900369 -0.355100274
vn -0.717487097 0.364993304 -0.593289196
vn -0.632631779 0.0182008781 -0.774238765
vn -0.380084246 0.0448980927 -0.923861504
vn -0.587907493 -0.0585007668 -0.806810081
vn -0.331788391 -0.0641977862 -0.941166878
vn -0.545893967 -0.149598375 -0.824390769
vn -0.551309764 0.607810676 -0.571510077
vn -0.460206985 0.383705705 -0.800611913
vn -0.0702989474 0.314395189 -0.946685612
vn -0.0251991842 0.0979967639 -0.994867623
vn -0.055901859 -0.00260012969 -0.998432934
vn -0.100297861 -0.155196697 -0.982778847
vn -0.336995751 -0.282296449 -0.898188472
vn -0.30938676 -0.48227936 -0.819564819
vn -0.127197281 0.564487696 -0.815582335
vn 0.0561003685 0.451302826 -0.890605688
vn 0.0101998532 0.216696799 -0.976185679
vn -0.757233739 -0.370016426 -0.538223863
vn -0.820994258 -0.460796714 -0.337097555
vn -0.785938144 -0.605329275 -0.126006052
vn -0.711573541 -0.152894288 -0.685774267
vn -0.838691294 -0.299596846 -0.454795182
vn -0.703596711 -0.0120999701 -0.710496485
vn -0.510682225 0.111796044 -0.8524701
vn -0.580301702 0.163100436 -0.797902286
vn -0.401894331 0.271896064 -0.874387503
vn -0.463570774 0.387675434 -0.796749532
vn -0.451818913 0.0546022356 -0.890437067
vn -0.356695443 0.129598275 -0.925187886
vn -0.201900631 0.350600988 -0.91450268
vn -0.278792262 0.465886861 -0.839776337
vn -0.423599601 0.443599492 -0.789799154
vn -0.149098173 0.443294436 -0.883889019
vn 0.997923255 -0.0570013113 0.030000696
vn 0.998982966 -0.041999273 -0.0163997151
vn -0.498396724 0.402797282 0.767694652
vn -0.382511467 0.309909225 0.87042594
vn -0.416684538 0.454683006 0.78717047
vn -0.504709065 0.12620227 0.854015112
vn -0.291911274 0.00410019886 0.956436634
vn -0.408386409 -0.0731975213 0.909869611
vn -0.268397987 -0.0951992273 0.958592534
vn -0.15699698 -0.332393467 0.929982007
vn 0.0452985242 -0.41108644 0.910470188
vn -0.650199652 0.258599788 0.714399397
vn -0.607773662 0.0540976748 0.792265475
vn -0.545799017 -0.0959997848 0.832398534
vn -0.372000158 -0.268999994 0.888400197
vn -0.0161003601 -0.522611499 0.8524189
vn 0.137602001 -0.52610743 0.839211941
vn 0.219697535 -0.534993947 0.815790713
vn 0.946539402 0.256210595 0.196008086
vn 0.934490263 0.266697198 0.235797495
vn 0.956842124 0.245310754 0.15580681
vn -0.997923255 -0.0570013113 0.030000696
vn -0.998982966 -0.041999273 -0.0163997151
vn -0.900962591 0.320586562 -0.292387784
vn -0.902120113 0.321207047 -0.288106352
vn -0.901519001 0.320006639 -0.291306078
vn -0.90059936 0.320499629 -0.293599725
vn -0.904382765 0.321493834 -0.280594617
vn -0.90608418 0.322394311 -0.273995191
vn -0.906509817 0.321103394 -0.274102956
vn -0.919964194 0.391384661 -0.0219991542
vn -0.919087112 0.393494397 -0.0209997147
vn -0.91956377 0.39238444 -0.0208991878
vn -0.920485258 0.390093684 -0.0230996441
vn -0.920506179 0.390002549 -0.0238001738
vn -0.920393944 0.390297383 -0.0232998598
vn -0.920166612 0.390885681 -0.0223991983
vn -0.920125484 0.391010731 -0.0219006184
vn -0.920129538 0.39101249 -0.0217007101
vn -0.920456946 0.390224069 -0.0220013745
vn -0.920624971 0.389810503 -0.0223006178
vn -0.92092371 0.38910991 -0.0222005844
vn -0.822181404 0.440689951 0.360291779
vn -0.822606742 0.440703541 0.359302819
vn -0.821673274 0.44098556 0.361088097
vn -0.821483076 0.441090852 0.361392468
vn -0.821997941 0.440698802 0.360698998
vn -0.822482586 0.4402906 0.360092282
vn -0.822734892 0.439718544 0.360215098
vn 0.919087112 0.393494397 -0.0209997147
vn 0.919964194 0.391384661 -0.0219991542
vn 0.91956377 0.39238444 -0.0208991878
vn 0.920485258 0.390093684 -0.0230996441
vn 0.920506179 0.390002549 -0.0238001738
vn 0.920393944 0.390297383 -0.0232998598
vn 0.920166612 0.390885681 -0.0223991983
vn 0.920125484 0.391010731 -0.0219006184
vn 0.920129538 0.39101249 -0.0217007101
vn 0.920456946 0.390224069 -0.0220013745
vn 0.920624971 0.389810503 -0.0223006178
vn 0.92092371 0.38910991 -0.0222005844
vn 0.822606742 0.440703541 0.359302819
vn 0.822181404 0.440689951 0.360291779
vn 0.821673274 0.44098556 0.361088097
vn 0.821483076 0.441090852 0.361392468
vn 0.821997941 0.440698802 0.360698998
vn 0.822482586 0.4402906 0.360092282
vn 0.822734892 0.439718544 0.360215098
vn -0.161894977 -0.641580105 -0.749776661
vn -0.220803276 -0.637409329 -0.738210797
vn -0.105896816 -0.804175675 -0.584882259
vn -0.108399697 -0.710597992 -0.69519788
vn -0.0197991114 -0.707268119 -0.706668079
vn -0.235493943 -0.498687118 -0.834178448
vn -0.281295508 -0.740388155 -0.610490084
vn -0.212505177 -0.461111128 -0.861520827
vn -0.312405676 -0.680112302 -0.663211882
vn 0 -0.094403185 0.995534062
vn 0.211307451 -0.0966033414 0.972634017
vn 0 -0.0892011821 0.996013641
vn 0.217304975 -0.103302293 0.970622122
vn 0.200802118 -0.104801036 0.974009931
vn 0.166995466 -0.0959973335 0.981273174
vn 0.156401813 -0.112101242 0.981311262
vn 0.179199427 -0.0898996517 0.979696631
vn 0 -0.0867029279 0.996234179
vn -0.211307451 -0.0966033414 0.972634017
vn -0.217304975 -0.103302293 0.970622122
vn -0.179199427 -0.0898996517 0.979696631
vn -0.200802118 -0.104801036 0.974009931
vn -0.166995466 -0.0959973335 0.981273174
vn -0.156401813 -0.112101242 0.981311262
vn -0.303815424 0.0270013232 -0.952348173
vn 0 0.0748992935 -0.997191131
vn -0.222497344 0.0703990981 -0.972388208
vn 0 0.0211994313 -0.999775231
vn 0.303815424 0.0270013232 -0.952348173
vn 0.222497344 0.0703990981 -0.972388208
vn 0.255894244 0.0824980885 -0.963178158
vn 0 0.0764976367 -0.997069776
vn -0.255894244 0.0824980885 -0.963178158
vn -0.326385975 0.0669970661 -0.942859232
vn 0 -0.0307009239 -0.999528587
vn 0.386300147 -0.0116000408 -0.92230016
vn 0.394090921 0.030099256 -0.918578506
vn 0.326385975 0.0669970661 -0.942859232
vn -0.386300147 -0.0116000408 -0.92230016
vn -0.394090921 0.030099256 -0.918578506

# Mesh 'PipelineFBX' with 422 faces
g PipelineFBX
usemtl DefaultMaterial
f  1/1/1 2/2/2 3/3/3
f  4/2/2 5/1/1 6/4/4
f  7/4/4 8/5/5 9/2/2
f  10/5/5 11/4/4 12/6/6
f  13/7/7 14/5/5 15/6/6
f  16/5/5 17/7/7 18/8/8
f  19/9/9 20/10/10 21/11/11
f  22/10/10 23/9/9 24/12/12
f  25/13/13 26/10/10 27/12/12
f  28/10/10 29/13/13 30/14/14
f  31/15/15 32/14/14 33/13/13
f  34/14/14 35/15/15 36/16/16
f  37/7/17 38/5/18 39/8/19
f  40/5/18 41/7/17 42/6/20
f  43/4/21 44/5/18 45/6/20
f  46/5/18 47/4/21 48/2/22
f  49/1/23 50/2/22 51/4/21
f  52/2/22 53/1/23 54/3/24
f  55/17/25 56/18/26 57/19/27
f  58/18/26 59/17/25 60/20/28
f  61/17/25 62/21/29 63/20/28
f  64/21/29 65/17/25 66/22/30
f  67/23/31 68/24/32 69/25/33
f  70/24/32 71/23/31 72/26/34
f  73/26/34 74/27/35 75/24/32
f  76/27/35 77/26/34 78/28/36
f  79/29/37 80/28/36 81/26/34
f  82/28/36 83/29/37 84/30/38
f  85/31/39 86/30/38 87/29/37
f  88/30/38 89/31/39 90/32/40
f  91/33/41 92/26/34 93/23/31
f  94/26/34 95/33/41 96/29/37
f  97/34/42 98/29/37 99/33/41
f  100/29/37 101/34/42 102/31/39
f  103/35/43 104/36/44 105/37/45
f  106/36/44 107/35/43 108/38/46
f  109/39/47 110/36/44 111/38/46
f  112/36/44 113/39/47 114/40/48
f  115/41/49 116/42/50 117/43/51
f  118/42/50 119/41/49 120/44/52
f  121/44/52 122/45/53 123/42/50
f  124/45/53 125/44/52 126/46/54
f  127/46/54 128/47/55 129/45/53
f  130/47/55 131/46/54 132/48/56
f  133/49/57 134/48/56 135/46/54
f  136/48/56 137/49/57 138/50/58
f  139/51/59 140/44/52 141/41/49
f  142/44/52 143/51/59 144/52/60
f  145/52/60 146/46/54 147/44/52
f  148/46/54 149/52/60 150/49/57
f  151/53/61 152/54/62 153/55/63
f  154/54/62 155/53/61 156/56/64
f  157/56/64 158/57/65 159/54/62
f  160/57/65 161/56/64 162/58/66
f  163/58/66 164/59/67 165/57/65
f  166/59/67 167/58/66 168/60/68
f  169/60/68 170/61/69 171/59/67
f  172/61/69 173/60/68 174/62/70
f  175/53/61 176/63/71 177/56/64
f  178/64/72 179/56/64 180/63/71
f  181/56/64 182/64/72 183/58/66
f  184/64/72 185/60/68 186/58/66
f  187/60/68 188/64/72 189/65/73
f  190/65/73 191/62/70 192/60/68
f  193/62/70 194/65/73 195/66/74
f  196/67/75 197/66/74 198/65/73
f  199/66/74 200/67/75 201/68/76
f  202/63/71 203/53/61 204/69/77
f  205/70/78 206/63/71 207/69/77
f  208/63/71 209/70/78 210/71/79
f  211/64/72 212/63/71 213/71/79
f  214/65/73 215/64/72 216/71/79
f  217/67/75 218/65/73 219/71/79
f  220/72/80 221/67/75 222/71/79
f  223/67/75 224/72/80 225/73/81
f  226/73/81 227/68/76 228/67/75
f  229/68/76 230/73/81 231/74/82
f  232/75/83 233/74/82 234/73/81
f  235/74/82 236/75/83 237/76/84
f  238/70/78 239/72/80 240/71/79
f  241/72/80 242/70/78 243/77/85
f  244/77/85 245/78/86 246/72/80
f  247/79/87 248/72/80 249/78/86
f  250/79/87 251/73/81 252/72/80
f  253/73/81 254/79/87 255/75/83
f  256/80/88 257/75/83 258/79/87
f  259/75/83 260/80/88 261/81/89
f  262/81/89 263/76/84 264/75/83
f  265/76/84 266/81/89 267/82/90
f  268/78/86 269/77/85 270/83/91
f  271/83/91 272/84/92 273/78/86
f  274/80/88 275/78/86 276/84/92
f  277/78/86 278/80/88 279/79/87
f  280/84/92 281/83/91 282/85/93
f  283/86/94 284/87/95 285/88/96
f  286/87/95 287/86/94 288/89/97
f  289/89/97 290/90/98 291/87/95
f  292/90/98 293/89/97 294/91/99
f  295/89/97 296/92/100 297/91/99
f  298/92/100 299/89/97 300/93/101
f  301/93/101 302/94/102 303/92/100
f  304/89/97 305/86/94 306/95/103
f  307/93/101 308/89/97 309/95/103
f  310/93/101 311/95/103 312/96/104
f  313/96/104 314/97/105 315/93/101
f  316/94/102 317/93/101 318/97/105
f  319/97/105 320/98/106 321/94/102
f  322/98/106 323/97/105 324/99/107
f  325/100/108 326/99/107 327/97/105
f  328/99/107 329/100/108 330/101/109
f  331/97/105 332/96/104 333/100/108
f  334/102/110 335/103/111 336/104/112
f  337/103/111 338/102/110 339/105/113
f  340/106/114 341/105/113 342/102/110
f  343/105/113 344/106/114 345/107/115
f  346/108/116 347/107/115 348/106/114
f  349/31/117 350/30/118 351/32/119
f  352/30/118 353/31/117 354/29/120
f  355/29/120 356/28/121 357/30/118
f  358/28/121 359/29/120 360/26/122
f  361/26/122 362/27/123 363/28/121
f  364/27/123 365/26/122 366/24/124
f  367/23/125 368/24/124 369/26/122
f  370/24/124 371/23/125 372/25/126
f  373/34/127 374/29/120 375/31/117
f  376/29/120 377/34/127 378/33/128
f  379/33/128 380/26/122 381/29/120
f  382/26/122 383/33/128 384/23/125
f  385/109/129 386/110/130 387/111/131
f  388/110/130 389/109/129 390/112/132
f  391/112/132 392/113/133 393/110/130
f  394/113/133 395/112/132 396/114/134
f  397/114/134 398/115/135 399/113/133
f  400/115/135 401/114/134 402/116/136
f  403/116/136 404/117/137 405/115/135
f  406/117/137 407/116/136 408/118/138
f  409/119/139 410/112/132 411/109/129
f  412/112/132 413/119/139 414/120/140
f  415/112/132 416/120/140 417/114/134
f  418/114/134 419/120/140 420/116/136
f  421/121/141 422/116/136 423/120/140
f  424/116/136 425/121/141 426/118/138
f  427/122/142 428/120/140 429/119/139
f  430/120/140 431/122/142 432/123/143
f  433/124/144 434/120/140 435/123/143
f  436/120/140 437/124/144 438/121/141
f  439/125/145 440/123/143 441/122/142
f  442/123/143 443/125/145 444/126/146
f  445/127/147 446/123/143 447/126/146
f  448/123/143 449/127/147 450/124/144
f  451/128/148 452/126/146 453/125/145
f  454/126/146 455/128/148 456/129/149
f  457/126/146 458/129/149 459/130/150
f  460/131/151 461/126/146 462/130/150
f  463/131/151 464/127/147 465/126/146
f  466/127/147 467/131/151 468/132/152
f  469/131/151 470/133/153 471/132/152
f  472/133/153 473/131/151 474/134/154
f  475/135/155 476/129/149 477/128/148
f  478/129/149 479/135/155 480/136/156
f  481/137/157 482/129/149 483/136/156
f  484/129/149 485/137/157 486/130/150
f  487/134/154 488/130/150 489/137/157
f  490/130/150 491/134/154 492/131/151
f  493/138/158 494/139/159 495/140/160
f  496/139/159 497/138/158 498/141/161
f  499/141/161 500/142/162 501/139/159
f  502/142/162 503/141/161 504/143/163
f  505/143/163 506/144/164 507/142/162
f  508/143/163 509/145/165 510/144/164
f  511/145/165 512/146/166 513/144/164
f  514/147/167 515/141/161 516/138/158
f  517/141/161 518/147/167 519/148/168
f  520/148/168 521/143/163 522/141/161
f  523/143/163 524/148/168 525/149/169
f  526/149/169 527/145/165 528/143/163
f  529/145/165 530/149/169 531/150/170
f  532/150/170 533/151/171 534/145/165
f  535/151/171 536/146/166 537/145/165
f  538/146/166 539/151/171 540/152/172
f  541/151/171 542/150/170 543/153/173
f  544/154/174 545/155/175 546/156/176
f  547/155/175 548/154/174 549/157/177
f  550/154/174 551/158/178 552/157/177
f  553/158/178 554/154/174 555/159/179
f  556/160/180 557/161/181 558/162/182
f  559/161/181 560/160/180 561/163/183
f  562/164/184 563/161/181 564/163/183
f  565/161/181 566/164/184 567/165/185
f  568/166/186 569/167/187 570/168/188
f  571/167/187 572/166/186 573/169/189
f  574/166/186 575/170/190 576/169/189
f  577/170/190 578/166/186 579/171/191
f  580/171/191 581/172/192 582/170/190
f  583/15/193 584/14/194 585/16/195
f  586/14/194 587/15/193 588/13/196
f  589/13/196 590/10/197 591/14/194
f  592/10/197 593/13/196 594/12/198
f  595/9/199 596/10/197 597/12/198
f  598/10/197 599/9/199 600/11/200
f  601/49/201 602/48/202 603/50/203
f  604/48/202 605/49/201 606/46/204
f  607/46/204 608/47/205 609/48/202
f  610/47/205 611/46/204 612/45/206
f  613/44/207 614/45/206 615/46/204
f  616/45/206 617/44/207 618/42/208
f  619/41/209 620/42/208 621/44/207
f  622/42/208 623/41/209 624/43/210
f  625/52/211 626/46/204 627/49/201
f  628/46/204 629/52/211 630/44/207
f  631/51/212 632/44/207 633/52/211
f  634/44/207 635/51/212 636/41/209
f  637/39/213 638/36/214 639/40/215
f  640/36/214 641/39/213 642/38/216
f  643/35/217 644/36/214 645/38/216
f  646/36/214 647/35/217 648/37/218
f  649/81/219 650/76/220 651/82/221
f  652/76/220 653/81/219 654/75/222
f  655/75/222 656/74/223 657/76/220
f  658/74/223 659/75/222 660/73/224
f  661/73/224 662/68/225 663/74/223
f  664/68/225 665/73/224 666/67/226
f  667/67/226 668/66/227 669/68/225
f  670/80/228 671/75/222 672/81/219
f  673/75/222 674/80/228 675/79/229
f  676/79/229 677/73/224 678/75/222
f  679/73/224 680/79/229 681/72/230
f  682/72/230 683/67/226 684/73/224
f  685/67/226 686/72/230 687/71/231
f  688/65/232 689/67/226 690/71/231
f  691/66/227 692/67/226 693/65/232
f  694/65/232 695/62/233 696/66/227
f  697/62/233 698/65/232 699/60/234
f  700/60/234 701/61/235 702/62/233
f  703/80/228 704/78/236 705/79/229
f  706/72/230 707/79/229 708/78/236
f  709/78/236 710/77/237 711/72/230
f  712/70/238 713/72/230 714/77/237
f  715/72/230 716/70/238 717/71/231
f  718/70/238 719/63/239 720/71/231
f  721/63/239 722/64/240 723/71/231
f  724/64/240 725/65/232 726/71/231
f  727/64/240 728/60/234 729/65/232
f  730/78/236 731/80/228 732/84/241
f  733/84/241 734/83/242 735/78/236
f  736/77/237 737/78/236 738/83/242
f  739/83/242 740/84/241 741/85/243
f  742/63/239 743/70/238 744/69/244
f  745/53/245 746/63/239 747/69/244
f  748/63/239 749/53/245 750/56/246
f  751/56/246 752/64/240 753/63/239
f  754/64/240 755/56/246 756/58/247
f  757/60/234 758/64/240 759/58/247
f  760/58/247 761/59/248 762/60/234
f  763/61/235 764/60/234 765/59/248
f  766/53/245 767/54/249 768/56/246
f  769/57/250 770/56/246 771/54/249
f  772/56/246 773/57/250 774/58/247
f  775/59/248 776/58/247 777/57/250
f  778/54/249 779/53/245 780/55/251
f  781/173/252 782/174/253 783/175/254
f  784/174/253 785/173/252 786/176/255
f  787/173/252 788/177/256 789/176/255
f  790/177/256 791/173/252 792/178/257
f  793/179/258 794/180/258 795/181/259
f  796/180/258 797/179/258 798/182/260
f  799/103/261 800/102/262 801/104/263
f  802/102/262 803/103/261 804/105/264
f  805/105/264 806/106/265 807/102/262
f  808/106/265 809/105/264 810/107/266
f  811/107/266 812/108/267 813/106/265
f  814/110/268 815/109/269 816/111/270
f  817/109/269 818/110/268 819/112/271
f  820/112/271 821/119/272 822/109/269
f  823/119/272 824/112/271 825/120/273
f  826/120/273 827/122/274 828/119/272
f  829/122/274 830/120/273 831/123/275
f  832/123/275 833/125/276 834/122/274
f  835/113/277 836/112/271 837/110/268
f  838/112/271 839/113/277 840/114/278
f  841/120/273 842/112/271 843/114/278
f  844/120/273 845/114/278 846/116/279
f  847/116/279 848/121/280 849/120/273
f  850/124/281 851/120/273 852/121/280
f  853/120/273 854/124/281 855/123/275
f  856/127/282 857/123/275 858/124/281
f  859/123/275 860/127/282 861/126/283
f  862/125/276 863/123/275 864/126/283
f  865/126/283 866/128/284 867/125/276
f  868/115/285 869/114/278 870/113/277
f  871/114/278 872/115/285 873/116/279
f  874/117/286 875/116/279 876/115/285
f  877/116/279 878/117/286 879/118/287
f  880/121/280 881/116/279 882/118/287
f  883/139/288 884/138/289 885/140/290
f  886/138/289 887/139/288 888/141/291
f  889/141/291 890/147/292 891/138/289
f  892/147/292 893/141/291 894/148/293
f  895/143/294 896/148/293 897/141/291
f  898/148/293 899/143/294 900/149/295
f  901/145/296 902/149/295 903/143/294
f  904/149/295 905/145/296 906/150/297
f  907/142/298 908/141/291 909/139/288
f  910/141/291 911/142/298 912/143/294
f  913/144/299 914/143/294 915/142/298
f  916/145/296 917/143/294 918/144/299
f  919/146/300 920/145/296 921/144/299
f  922/146/300 923/151/301 924/145/296
f  925/151/301 926/150/297 927/145/296
f  928/150/297 929/151/301 930/153/302
f  931/151/301 932/146/300 933/152/303
f  934/183/304 935/15/193 936/16/195
f  937/15/193 938/183/304 939/184/305
f  940/87/306 941/86/307 942/88/308
f  943/86/307 944/87/306 945/89/309
f  946/86/307 947/89/309 948/95/310
f  949/89/309 950/93/311 951/95/310
f  952/95/310 953/93/311 954/96/312
f  955/97/313 956/96/312 957/93/311
f  958/96/312 959/97/313 960/100/314
f  961/90/315 962/89/309 963/87/306
f  964/89/309 965/90/315 966/91/316
f  967/92/317 968/89/309 969/91/316
f  970/89/309 971/92/317 972/93/311
f  973/94/318 974/93/311 975/92/317
f  976/93/311 977/94/318 978/97/313
f  979/98/319 980/97/313 981/94/318
f  982/97/313 983/98/319 984/99/320
f  985/99/320 986/100/314 987/97/313
f  988/100/314 989/99/320 990/101/321
f  991/180/322 992/179/322 993/181/323
f  994/179/322 995/180/322 996/182/324
f  997/15/15 998/183/325 999/16/16
f  1000/183/325 1001/15/15 1002/184/326
f  1003/167/327 1004/166/328 1005/168/329
f  1006/166/328 1007/167/327 1008/169/330
f  1009/170/331 1010/166/328 1011/169/330
f  1012/166/328 1013/170/331 1014/171/332
f  1015/172/333 1016/171/332 1017/170/331
f  1018/185/334 1019/186/335 1020/187/336
f  1021/188/337 1022/185/334 1023/187/336
f  1024/185/334 1025/188/337 1026/189/338
f  1027/190/339 1028/189/338 1029/188/337
f  1030/189/338 1031/190/339 1032/191/340
f  1033/192/341 1034/191/340 1035/190/339
f  1036/191/340 1037/192/341 1038/193/342
f  1039/194/343 1040/193/342 1041/192/341
f  1042/193/342 1043/194/343 1044/195/344
f  1045/194/343 1046/196/345 1047/195/344
f  1048/197/346 1049/198/347 1050/199/347
f  1051/200/348 1052/197/346 1053/199/347
f  1054/197/346 1055/200/348 1056/201/349
f  1057/202/350 1058/201/349 1059/200/348
f  1060/201/349 1061/202/350 1062/203/351
f  1063/202/350 1064/204/352 1065/203/351
f  1066/186/353 1067/185/354 1068/187/355
f  1069/185/354 1070/188/356 1071/187/355
f  1072/188/356 1073/185/354 1074/189/357
f  1075/189/357 1076/190/358 1077/188/356
f  1078/190/358 1079/189/357 1080/191/359
f  1081/191/359 1082/192/360 1083/190/358
f  1084/192/360 1085/191/359 1086/193/361
f  1087/193/361 1088/194/362 1089/192/360
f  1090/194/362 1091/193/361 1092/195/363
f  1093/196/364 1094/194/362 1095/195/363
f  1096/198/365 1097/197/366 1098/199/365
f  1099/197/366 1100/200/367 1101/199/365
f  1102/200/367 1103/197/366 1104/201/368
f  1105/201/368 1106/202/369 1107/200/367
f  1108/202/369 1109/201/368 1110/203/370
f  1111/204/371 1112/202/369 1113/203/370
f  1114/128/284 1115/126/283 1116/129/372
f  1117/129/372 1118/126/283 1119/130/373
f  1120/137/374 1121/129/372 1122/130/373
f  1123/129/372 1124/137/374 1125/136/375
f  1126/135/376 1127/129/372 1128/136/375
f  1129/129/372 1130/135/376 1131/128/284
f  1132/126/283 1133/131/377 1134/130/373
f  1135/134/378 1136/130/373 1137/131/377
f  1138/130/373 1139/134/378 1140/137/374
f  1141/127/282 1142/131/377 1143/126/283
f  1144/131/377 1145/127/282 1146/132/379
f  1147/133/380 1148/131/377 1149/132/379
f  1150/131/377 1151/133/380 1152/134/378
f  1153/205/381 1154/206/382 1155/207/383
f  1156/206/382 1157/205/381 1158/208/384
f  1159/209/385 1160/206/382 1161/208/384
f  1162/206/382 1163/209/385 1164/210/386
f  1165/210/386 1166/209/385 1167/211/387
f  1168/210/386 1169/211/387 1170/212/388
f  1171/210/386 1172/212/388 1173/213/389
f  1174/214/390 1175/205/381 1176/207/383
f  1177/205/381 1178/214/390 1179/215/391
f  1180/215/391 1181/216/392 1182/205/381
f  1183/216/392 1184/213/389 1185/205/381
f  1186/213/389 1187/212/388 1188/205/381
f  1189/212/388 1190/208/384 1191/205/381
f  1192/214/390 1193/217/393 1194/215/391
f  1195/217/393 1196/214/390 1197/218/394
f  1198/219/395 1199/217/393 1200/218/394
f  1201/219/395 1202/218/394 1203/216/392
f  1204/216/392 1205/218/394 1206/213/389
f  1207/220/396 1208/221/397 1209/222/398
f  1210/221/397 1211/220/396 1212/223/399
f  1213/224/400 1214/221/397 1215/223/399
f  1216/221/397 1217/224/400 1218/225/401
f  1219/226/402 1220/221/397 1221/225/401
f  1222/221/397 1223/226/402 1224/227/403
f  1225/228/404 1226/221/397 1227/227/403
f  1228/221/397 1229/228/404 1230/222/398
f  1231/228/404 1232/229/405 1233/222/398
f  1234/220/396 1235/230/406 1236/223/399
f  1237/230/406 1238/224/400 1239/223/399
f  1240/224/400 1241/230/406 1242/231/407
f  1243/232/408 1244/231/407 1245/230/406
f  1246/232/408 1247/233/409 1248/231/407
f  1249/226/402 1250/233/409 1251/232/408
f  1252/233/409 1253/226/402 1254/225/401
f  1255/230/406 1256/220/396 1257/234/410
f  1258/234/410 1259/235/411 1260/230/406
f  1261/234/410 1262/229/405 1263/235/411
f  1264/229/405 1265/228/404 1266/235/411

