# File produced by Open Asset Import Library (http://www.assimp.sf.net)
# (assimp v6.0.0)

mtllib ship16c.mtl

# 1482 vertex positions
v -19.0794983 15.5485048 -87.6590042
v -52.1565018 16.4340038 -69.1294937
v -45.8370018 28.5065022 -67.6279984
v -52.1565018 16.4340038 -69.1294937
v -19.0794983 15.5485048 -87.6590042
v -24.0020008 1.68300378 -86.8339996
v -4.95000029 -38.9345055 80.1460037
v -2.20000005 -74.1950073 33.7754974
v -2.75000024 -53.8560028 88.786499
v -2.20000005 -74.1950073 33.7754974
v -4.95000029 -38.9345055 80.1460037
v -4.95000029 -25.894001 12.9909992
v -4.95000029 -25.894001 12.9909992
v -2.75000024 -37.2899971 -24.7005024
v -2.20000005 -74.1950073 33.7754974
v -2.75000024 -37.2899971 -24.7005024
v -4.95000029 -25.894001 12.9909992
v -4.95000029 -17.6934986 -38.2415009
v -4.95000029 -17.6934986 -38.2415009
v -2.75000024 -17.5999947 -94.7595062
v -2.75000024 -37.2899971 -24.7005024
v -2.75000024 -17.5999947 -94.7595062
v -4.95000029 -17.6934986 -38.2415009
v -4.95000029 -4.79599476 -115.180992
v -9.31150055 -19.5635014 62.364502
v -31.8834991 -4.63650227 52.7670021
v -5.70900011 -25.5530033 66.659996
v -31.8834991 -4.63650227 52.7670021
v -9.31150055 -19.5635014 62.364502
v -30.5965004 -2.92050242 50.8750038
v -30.5965004 -2.92050242 50.8750038
v -34.9360008 -2.62900233 52.0574989
v -31.8834991 -4.63650227 52.7670021
v -34.9360008 -2.62900233 52.0574989
v -30.5965004 -2.92050242 50.8750038
v -33.4785004 -0.665502131 49.3185005
v -37.449501 -0.616002202 50.6660004
v -34.9360008 -2.62900233 52.0574989
v -33.4785004 -0.665502131 49.3185005
v -34.9360008 -2.62900233 52.0574989
v -37.449501 -0.616002202 50.6660004
v -37.6805 -2.05700231 52.1620026
v -61.3634987 -2.3320024 57.2164993
v -37.6805 -2.05700231 52.1620026
v -37.449501 -0.616002202 50.6660004
v -37.6805 -2.05700231 52.1620026
v -61.3634987 -2.3320024 57.2164993
v -60.6925011 -3.1845026 58.2175026
v -9.72949982 -16.725502 55.7700043
v -30.5965004 -2.92050242 50.8750038
v -9.31150055 -19.5635014 62.364502
v -30.5965004 -2.92050242 50.8750038
v -9.72949982 -16.725502 55.7700043
v -30.3214989 -1.94565951e-06 44.5115013
v -30.3214989 -1.94565951e-06 44.5115013
v -33.4785004 -0.665502131 49.3185005
v -30.5965004 -2.92050242 50.8750038
v -33.4785004 -0.665502131 49.3185005
v -30.3214989 -1.94565951e-06 44.5115013
v -32.906498 1.58949816 42.9330025
v -33.4785004 -0.665502131 49.3185005
v -32.906498 1.58949816 42.9330025
v -37.449501 -0.616002202 50.6660004
v -63.4095001 -0.957002401 53.9439964
v -37.449501 -0.616002202 50.6660004
v -32.906498 1.58949816 42.9330025
v -37.449501 -0.616002202 50.6660004
v -63.4095001 -0.957002401 53.9439964
v -61.3634987 -2.3320024 57.2164993
v -12.078001 -12.6885023 45.8094978
v -30.3214989 -1.94565951e-06 44.5115013
v -9.72949982 -16.725502 55.7700043
v -30.3214989 -1.94565951e-06 44.5115013
v -12.078001 -12.6885023 45.8094978
v -30.0794983 2.52999854 35.5685043
v -30.0794983 2.52999854 35.5685043
v -32.906498 1.58949816 42.9330025
v -30.3214989 -1.94565951e-06 44.5115013
v -32.906498 1.58949816 42.9330025
v -30.0794983 2.52999854 35.5685043
v -32.5600014 3.99849868 33.9404984
v -66.1374969 0.53349787 49.5055008
v -32.906498 1.58949816 42.9330025
v -32.5600014 3.99849868 33.9404984
v -32.906498 1.58949816 42.9330025
v -66.1374969 0.53349787 49.5055008
v -63.4095001 -0.957002401 53.9439964
v -27.9895 2.79399872 27.3405018
v -30.0794983 2.52999854 35.5685043
v -12.078001 -12.6885023 45.8094978
v -30.0794983 2.52999854 35.5685043
v -27.9895 2.79399872 27.3405018
v -30.019001 4.51549911 26.1470013
v -30.0794983 2.52999854 35.5685043
v -30.019001 4.51549911 26.1470013
v -32.5600014 3.99849868 33.9404984
v -30.019001 4.51549911 26.1470013
v -32.4389992 5.73649883 24.8930016
v -32.5600014 3.99849868 33.9404984
v -32.4389992 5.73649883 24.8930016
v -37.4109993 5.98399878 27.3129997
v -32.5600014 3.99849868 33.9404984
v -37.4109993 5.98399878 27.3129997
v -66.1374969 0.53349787 49.5055008
v -32.5600014 3.99849868 33.9404984
v -66.1374969 0.53349787 49.5055008
v -37.4109993 5.98399878 27.3129997
v -68.876503 1.72699797 45.0065002
v -37.4109993 5.98399878 27.3129997
v -70.9335022 2.06249833 41.508503
v -68.876503 1.72699797 45.0065002
v -29.9145012 4.28449869 24.6014996
v -30.019001 4.51549911 26.1470013
v -27.9895 2.79399872 27.3405018
v -29.9145012 4.28449869 24.6014996
v -32.4389992 5.73649883 24.8930016
v -30.019001 4.51549911 26.1470013
v -32.4389992 5.73649883 24.8930016
v -29.9145012 4.28449869 24.6014996
v -33.0439987 5.56599903 20.328001
v -32.4389992 5.73649883 24.8930016
v -33.0439987 5.56599903 20.328001
v -34.0890007 5.57699966 19.6295013
v -34.0890007 5.57699966 19.6295013
v -37.4109993 5.98399878 27.3129997
v -32.4389992 5.73649883 24.8930016
v -37.4109993 5.98399878 27.3129997
v -34.0890007 5.57699966 19.6295013
v -39.8475037 5.90149927 22.4619999
v -70.9335022 2.06249833 41.508503
v -37.4109993 5.98399878 27.3129997
v -39.8475037 5.90149927 22.4619999
v -41.0135002 3.71799922 20.9605007
v -70.9335022 2.06249833 41.508503
v -39.8475037 5.90149927 22.4619999
v -70.9335022 2.06249833 41.508503
v -41.0135002 3.71799922 20.9605007
v -71.6429977 0.984498203 40.0784988
v -35.7170029 3.87749934 18.8485012
v -39.8475037 5.90149927 22.4619999
v -34.0890007 5.57699966 19.6295013
v -39.8475037 5.90149927 22.4619999
v -35.7170029 3.87749934 18.8485012
v -41.0135002 3.71799922 20.9605007
v -35.0955009 11.4620028 -73.0620041
v -70.9830017 29.3095016 -51.7549973
v -33.3134995 15.2350035 -78.4465027
v -70.9830017 29.3095016 -51.7549973
v -35.0955009 11.4620028 -73.0620041
v -70.9830017 26.0150013 -49.9235001
v -70.9830017 26.0150013 -49.9235001
v -76.6535034 30.9099998 -47.5474968
v -70.9830017 29.3095016 -51.7549973
v -76.6535034 30.9099998 -47.5474968
v -70.9830017 26.0150013 -49.9235001
v -76.7800064 27.8740025 -46.0844994
v -76.7800064 27.8740025 -46.0844994
v -82.7420044 30.7230034 -43.4830017
v -76.6535034 30.9099998 -47.5474968
v -82.7420044 30.7230034 -43.4830017
v -76.7800064 27.8740025 -46.0844994
v -82.7089996 28.0390015 -41.9979973
v -82.7089996 28.0390015 -41.9979973
v -112.161507 27.1205006 -23.7269993
v -82.7420044 30.7230034 -43.4830017
v -112.161507 27.1205006 -23.7269993
v -82.7089996 28.0390015 -41.9979973
v -111.000999 25.9710007 -22.0659981
v -35.6235046 9.75150299 -65.9780045
v -70.9830017 26.0150013 -49.9235001
v -35.0955009 11.4620028 -73.0620041
v -70.9830017 26.0150013 -49.9235001
v -35.6235046 9.75150299 -65.9780045
v -70.2625046 24.6125031 -46.8764992
v -70.2625046 24.6125031 -46.8764992
v -76.7800064 27.8740025 -46.0844994
v -70.9830017 26.0150013 -49.9235001
v -76.7800064 27.8740025 -46.0844994
v -70.2625046 24.6125031 -46.8764992
v -76.1640015 26.6585026 -43.5270004
v -76.1640015 26.6585026 -43.5270004
v -82.7089996 28.0390015 -41.9979973
v -76.7800064 27.8740025 -46.0844994
v -82.7089996 28.0390015 -41.9979973
v -76.1640015 26.6585026 -43.5270004
v -82.0545044 26.9555035 -39.5229988
v -82.0545044 26.9555035 -39.5229988
v -111.000999 25.9710007 -22.0659981
v -82.7089996 28.0390015 -41.9979973
v -111.000999 25.9710007 -22.0659981
v -82.0545044 26.9555035 -39.5229988
v -109.559998 25.4265003 -19.838501
v -78.7160034 24.8820019 -27.5990009
v -109.559998 25.4265003 -19.838501
v -82.0545044 26.9555035 -39.5229988
v -109.559998 25.4265003 -19.838501
v -78.7160034 24.8820019 -27.5990009
v -103.630997 23.9689999 -9.72399902
v -36.0084991 5.14250183 -34.1604996
v -70.2625046 24.6125031 -46.8764992
v -35.6235046 9.75150299 -65.9780045
v -70.2625046 24.6125031 -46.8764992
v -36.0084991 5.14250183 -34.1604996
v -66.7920074 21.7635021 -32.1419983
v -66.7920074 21.7635021 -32.1419983
v -76.1640015 26.6585026 -43.5270004
v -70.2625046 24.6125031 -46.8764992
v -76.1640015 26.6585026 -43.5270004
v -66.7920074 21.7635021 -32.1419983
v -72.8365097 24.3760014 -31.036499
v -72.8365097 24.3760014 -31.036499
v -82.0545044 26.9555035 -39.5229988
v -76.1640015 26.6585026 -43.5270004
v -82.0545044 26.9555035 -39.5229988
v -72.8365097 24.3760014 -31.036499
v -78.7160034 24.8820019 -27.5990009
v -69.8499985 23.7105007 -17.286499
v -78.7160034 24.8820019 -27.5990009
v -72.8365097 24.3760014 -31.036499
v -78.7160034 24.8820019 -27.5990009
v -69.8499985 23.7105007 -17.286499
v -75.6634979 24.1395016 -14.6025
v -75.6634979 24.1395016 -14.6025
v -103.630997 23.9689999 -9.72399902
v -78.7160034 24.8820019 -27.5990009
v -103.630997 23.9689999 -9.72399902
v -75.6634979 24.1395016 -14.6025
v -98.664505 22.7425003 0.753500998
v -74.9705048 24.2605019 -11.5334997
v -98.664505 22.7425003 0.753500998
v -75.6634979 24.1395016 -14.6025
v -98.664505 22.7425003 0.753500998
v -74.9705048 24.2605019 -11.5334997
v -97.625 22.5720005 3.18450117
v -36.0084991 5.14250183 -34.1604996
v -64.2950058 20.8010006 -16.0160007
v -66.7920074 21.7635021 -32.1419983
v -69.8499985 23.7105007 -17.286499
v -66.7920074 21.7635021 -32.1419983
v -64.2950058 20.8010006 -16.0160007
v -66.7920074 21.7635021 -32.1419983
v -69.8499985 23.7105007 -17.286499
v -72.8365097 24.3760014 -31.036499
v -64.2950058 20.8010006 -16.0160007
v -36.0084991 5.14250183 -34.1604996
v -35.4475021 0.841500044 -1.42999995
v -35.4475021 0.841500044 -1.42999995
v -63.7779999 20.9660015 -12.1934996
v -64.2950058 20.8010006 -16.0160007
v -69.1735001 23.897501 -14.0249996
v -64.2950058 20.8010006 -16.0160007
v -63.7779999 20.9660015 -12.1934996
v -64.2950058 20.8010006 -16.0160007
v -69.1735001 23.897501 -14.0249996
v -69.8499985 23.7105007 -17.286499
v -69.1735001 23.897501 -14.0249996
v -75.6634979 24.1395016 -14.6025
v -69.8499985 23.7105007 -17.286499
v -75.6634979 24.1395016 -14.6025
v -69.1735001 23.897501 -14.0249996
v -74.9705048 24.2605019 -11.5334997
v -68.4639969 24.9535007 -11.2804995
v -74.9705048 24.2605019 -11.5334997
v -69.1735001 23.897501 -14.0249996
v -74.9705048 24.2605019 -11.5334997
v -68.4639969 24.9535007 -11.2804995
v -74.2665024 25.1625004 -8.97599888
v -74.2665024 25.1625004 -8.97599888
v -97.625 22.5720005 3.18450117
v -74.9705048 24.2605019 -11.5334997
v -97.625 22.5720005 3.18450117
v -74.2665024 25.1625004 -8.97599888
v -96.7944946 22.8139992 5.19200134
v -63.7779999 20.9660015 -12.1934996
v -35.4475021 0.841500044 -1.42999995
v -35.0019989 0.13749972 6.28100014
v -35.0019989 0.13749972 6.28100014
v -63.151001 22.0935001 -8.97049999
v -63.7779999 20.9660015 -12.1934996
v -68.4639969 24.9535007 -11.2804995
v -63.7779999 20.9660015 -12.1934996
v -63.151001 22.0935001 -8.97049999
v -63.7779999 20.9660015 -12.1934996
v -68.4639969 24.9535007 -11.2804995
v -69.1735001 23.897501 -14.0249996
v -63.151001 22.0935001 -8.97049999
v -35.0019989 0.13749972 6.28100014
v -33.6599998 0.725999415 13.1395016
v -70.9830017 29.3095016 -51.7549973
v -31.5095005 17.5230045 -72.1600037
v -33.3134995 15.2350035 -78.4465027
v -31.5095005 17.5230045 -72.1600037
v -70.9830017 29.3095016 -51.7549973
v -69.5639954 31.5920029 -48.4220009
v -69.5639954 31.5920029 -48.4220009
v -30.965004 17.380003 -64.6634979
v -31.5095005 17.5230045 -72.1600037
v -30.965004 17.380003 -64.6634979
v -69.5639954 31.5920029 -48.4220009
v -68.5190048 31.7295017 -45.0229988
v -68.5190048 31.7295017 -45.0229988
v -30.640501 12.8535013 -31.9440002
v -30.965004 17.380003 -64.6634979
v -30.640501 12.8535013 -31.9440002
v -68.5190048 31.7295017 -45.0229988
v -65.2080078 29.2159996 -30.4754982
v -63.3710022 25.3000031 -15.1524992
v -30.640501 12.8535013 -31.9440002
v -65.2080078 29.2159996 -30.4754982
v -30.640501 12.8535013 -31.9440002
v -63.3710022 25.3000031 -15.1524992
v -31.6305008 5.69250011 0.781000257
v -76.6535034 30.9099998 -47.5474968
v -69.5639954 31.5920029 -48.4220009
v -70.9830017 29.3095016 -51.7549973
v -69.5639954 31.5920029 -48.4220009
v -76.6535034 30.9099998 -47.5474968
v -75.3005066 33.1595039 -44.6655006
v -75.3005066 33.1595039 -44.6655006
v -68.5190048 31.7295017 -45.0229988
v -69.5639954 31.5920029 -48.4220009
v -68.5190048 31.7295017 -45.0229988
v -75.3005066 33.1595039 -44.6655006
v -74.3874969 33.3905029 -41.7890015
v -74.3874969 33.3905029 -41.7890015
v -65.2080078 29.2159996 -30.4754982
v -68.5190048 31.7295017 -45.0229988
v -65.2080078 29.2159996 -30.4754982
v -74.3874969 33.3905029 -41.7890015
v -71.401001 31.3830013 -29.5405006
v -69.0855026 27.8795033 -16.5550003
v -65.2080078 29.2159996 -30.4754982
v -71.401001 31.3830013 -29.5405006
v -65.2080078 29.2159996 -30.4754982
v -69.0855026 27.8795033 -16.5550003
v -63.3710022 25.3000031 -15.1524992
v -68.651001 26.7630005 -13.552
v -63.3710022 25.3000031 -15.1524992
v -69.0855026 27.8795033 -16.5550003
v -63.3710022 25.3000031 -15.1524992
v -68.651001 26.7630005 -13.552
v -63.1290016 24.0735016 -11.6269989
v -63.1290016 24.0735016 -11.6269989
v -31.6305008 5.69250011 0.781000257
v -63.3710022 25.3000031 -15.1524992
v -31.6305008 5.69250011 0.781000257
v -63.1290016 24.0735016 -11.6269989
v -32.2080002 3.56949973 8.03000069
v -82.7420044 30.7230034 -43.4830017
v -75.3005066 33.1595039 -44.6655006
v -76.6535034 30.9099998 -47.5474968
v -75.3005066 33.1595039 -44.6655006
v -82.7420044 30.7230034 -43.4830017
v -81.5265045 32.6920013 -40.8045006
v -81.5265045 32.6920013 -40.8045006
v -74.3874969 33.3905029 -41.7890015
v -75.3005066 33.1595039 -44.6655006
v -74.3874969 33.3905029 -41.7890015
v -81.5265045 32.6920013 -40.8045006
v -80.6135025 32.8735008 -38.0764999
v -80.6135025 32.8735008 -38.0764999
v -71.401001 31.3830013 -29.5405006
v -74.3874969 33.3905029 -41.7890015
v -71.401001 31.3830013 -29.5405006
v -80.6135025 32.8735008 -38.0764999
v -77.4674988 30.9925022 -26.3834991
v -77.4674988 30.9925022 -26.3834991
v -69.0855026 27.8795033 -16.5550003
v -71.401001 31.3830013 -29.5405006
v -69.0855026 27.8795033 -16.5550003
v -77.4674988 30.9925022 -26.3834991
v -74.9759979 27.7915001 -14.0194998
v -74.9759979 27.7915001 -14.0194998
v -68.651001 26.7630005 -13.552
v -69.0855026 27.8795033 -16.5550003
v -68.651001 26.7630005 -13.552
v -74.9759979 27.7915001 -14.0194998
v -74.4975052 26.7740021 -11.1595001
v -74.4975052 26.7740021 -11.1595001
v -68.4639969 24.9535007 -11.2804995
v -68.651001 26.7630005 -13.552
v -68.4639969 24.9535007 -11.2804995
v -63.1290016 24.0735016 -11.6269989
v -68.651001 26.7630005 -13.552
v -112.161507 27.1205006 -23.7269993
v -81.5265045 32.6920013 -40.8045006
v -82.7420044 30.7230034 -43.4830017
v -81.5265045 32.6920013 -40.8045006
v -112.161507 27.1205006 -23.7269993
v -111.012009 27.7145004 -21.7634983
v -111.012009 27.7145004 -21.7634983
v -80.6135025 32.8735008 -38.0764999
v -81.5265045 32.6920013 -40.8045006
v -80.6135025 32.8735008 -38.0764999
v -111.012009 27.7145004 -21.7634983
v -109.5765 27.5660038 -19.4589996
v -109.5765 27.5660038 -19.4589996
v -77.4674988 30.9925022 -26.3834991
v -80.6135025 32.8735008 -38.0764999
v -77.4674988 30.9925022 -26.3834991
v -109.5765 27.5660038 -19.4589996
v -103.636505 25.9654999 -9.37199879
v -103.636505 25.9654999 -9.37199879
v -74.9759979 27.7915001 -14.0194998
v -77.4674988 30.9925022 -26.3834991
v -74.9759979 27.7915001 -14.0194998
v -103.636505 25.9654999 -9.37199879
v -98.664505 24.1340008 1.00100112
v -98.664505 24.1340008 1.00100112
v -74.4975052 26.7740021 -11.1595001
v -74.9759979 27.7915001 -14.0194998
v -74.4975052 26.7740021 -11.1595001
v -98.664505 24.1340008 1.00100112
v -97.625 23.6115017 3.36600089
v -97.625 23.6115017 3.36600089
v -74.2665024 25.1625004 -8.97599888
v -74.4975052 26.7740021 -11.1595001
v -68.4639969 24.9535007 -11.2804995
v -74.4975052 26.7740021 -11.1595001
v -74.2665024 25.1625004 -8.97599888
v -74.2665024 25.1625004 -8.97599888
v -97.625 23.6115017 3.36600089
v -96.7944946 22.8139992 5.19200134
v -63.1290016 24.0735016 -11.6269989
v -68.4639969 24.9535007 -11.2804995
v -63.151001 22.0935001 -8.97049999
v -63.151001 22.0935001 -8.97049999
v -32.2080002 3.56949973 8.03000069
v -63.1290016 24.0735016 -11.6269989
v -32.2080002 3.56949973 8.03000069
v -63.151001 22.0935001 -8.97049999
v -33.6599998 0.725999415 13.1395016
v 41.0135002 3.71799922 20.9605007
v 35.7224998 2.10099912 19.4974995
v 35.7170029 3.87749934 18.8485012
v 35.7224998 2.10099912 19.4974995
v 41.0135002 3.71799922 20.9605007
v 40.5734978 1.93049932 22.2200012
v 35.7224998 2.10099912 19.4974995
v 40.5734978 1.93049932 22.2200012
v 36.9599991 -0.412501127 25.0470009
v 36.9599991 -0.412501127 25.0470009
v 34.0395012 0.511499107 20.4875011
v 35.7224998 2.10099912 19.4974995
v 36.9599991 -0.412501127 25.0470009
v 14.9049997 -16.5660019 30.5690022
v 34.0395012 0.511499107 20.4875011
v 14.9049997 -16.5660019 30.5690022
v 36.9599991 -0.412501127 25.0470009
v 14.0800018 -19.442503 37.553997
v 37.4550018 -2.18350172 34.0230026
v 14.0800018 -19.442503 37.553997
v 36.9599991 -0.412501127 25.0470009
v 14.0800018 -19.442503 37.553997
v 37.4550018 -2.18350172 34.0230026
v 11.9844999 -22.1815014 46.9589996
v 71.6429977 0.984498203 40.0784988
v 40.5734978 1.93049932 22.2200012
v 41.0135002 3.71799922 20.9605007
v 40.5734978 1.93049932 22.2200012
v 71.6429977 0.984498203 40.0784988
v 70.9830017 -0.616001785 40.920002
v 68.9369965 -1.84800196 44.2200012
v 40.5734978 1.93049932 22.2200012
v 70.9830017 -0.616001785 40.920002
v 40.5734978 1.93049932 22.2200012
v 68.9369965 -1.84800196 44.2200012
v 36.9599991 -0.412501127 25.0470009
v 68.9369965 -1.84800196 44.2200012
v 37.4550018 -2.18350172 34.0230026
v 36.9599991 -0.412501127 25.0470009
v 37.4550018 -2.18350172 34.0230026
v 68.9369965 -1.84800196 44.2200012
v 66.1925049 -2.73900223 48.7905006
v 66.1925049 -2.73900223 48.7905006
v 36.8445015 -3.42650199 42.8834991
v 37.4550018 -2.18350172 34.0230026
v 36.8445015 -3.42650199 42.8834991
v 11.9844999 -22.1815014 46.9589996
v 37.4550018 -2.18350172 34.0230026
v 11.9844999 -22.1815014 46.9589996
v 36.8445015 -3.42650199 42.8834991
v 9.85050011 -24.8875027 56.4410019
v 33.5115013 -5.64300251 50.9024963
v 9.85050011 -24.8875027 56.4410019
v 36.8445015 -3.42650199 42.8834991
v 9.85050011 -24.8875027 56.4410019
v 33.5115013 -5.64300251 50.9024963
v 7.73300028 -26.3945045 63.7559967
v 31.8834991 -4.63650227 52.7670021
v 7.73300028 -26.3945045 63.7559967
v 33.5115013 -5.64300251 50.9024963
v 7.73300028 -26.3945045 63.7559967
v 31.8834991 -4.63650227 52.7670021
v 5.70900011 -25.5530033 66.659996
v 36.8445015 -3.42650199 42.8834991
v 66.1925049 -2.73900223 48.7905006
v 63.447998 -3.33300233 53.421505
v 63.447998 -3.33300233 53.421505
v 38.2579994 -3.08550215 50.1545029
v 36.8445015 -3.42650199 42.8834991
v 35.9040031 -3.71250248 49.7089996
v 36.8445015 -3.42650199 42.8834991
v 38.2579994 -3.08550215 50.1545029
v 33.5115013 -5.64300251 50.9024963
v 36.8445015 -3.42650199 42.8834991
v 35.9040031 -3.71250248 49.7089996
v 34.9360008 -2.62900233 52.0574989
v 33.5115013 -5.64300251 50.9024963
v 35.9040031 -3.71250248 49.7089996
v 33.5115013 -5.64300251 50.9024963
v 34.9360008 -2.62900233 52.0574989
v 31.8834991 -4.63650227 52.7670021
v 38.2579994 -3.08550215 50.1545029
v 63.447998 -3.33300233 53.421505
v 61.3855019 -3.5200026 56.952507
v 60.6925011 -3.1845026 58.2175026
v 38.2579994 -3.08550215 50.1545029
v 61.3855019 -3.5200026 56.952507
v 38.2579994 -3.08550215 50.1545029
v 60.6925011 -3.1845026 58.2175026
v 37.6805 -2.05700231 52.1620026
v 37.6805 -2.05700231 52.1620026
v 35.9040031 -3.71250248 49.7089996
v 38.2579994 -3.08550215 50.1545029
v 35.9040031 -3.71250248 49.7089996
v 37.6805 -2.05700231 52.1620026
v 34.9360008 -2.62900233 52.0574989
v -17.0445004 0.264004678 -106.958496
v -11.2915001 -2.07899523 -113.861
v -5.19200039 -5.05999517 -117.040001
v -5.19200039 -5.05999517 -117.040001
v -24.0020008 1.68300378 -86.8339996
v -17.0445004 0.264004678 -106.958496
v -24.0020008 1.68300378 -86.8339996
v -5.19200039 -5.05999517 -117.040001
v -5.23600006 -12.9469976 -70.5924988
v -5.23600006 -12.9469976 -70.5924988
v -52.1565018 16.4340038 -69.1294937
v -24.0020008 1.68300378 -86.8339996
v -5.23600006 -12.9469976 -70.5924988
v -44.0000038 1.8259995 13.717
v -52.1565018 16.4340038 -69.1294937
v -44.0000038 1.8259995 13.717
v -5.23600006 -12.9469976 -70.5924988
v -4.85100031 -28.0555 16.6429996
v -4.85100031 -28.0555 16.6429996
v -16.9619999 -21.505003 39.0830002
v -44.0000038 1.8259995 13.717
v -16.9619999 -21.505003 39.0830002
v -4.85100031 -28.0555 16.6429996
v -0.918500006 -52.8715057 141.806488
v -5.19200039 -5.05999517 -117.040001
v 5.23600006 -12.9469976 -70.5924988
v -5.23600006 -12.9469976 -70.5924988
v 5.23600006 -12.9469976 -70.5924988
v -4.85100031 -28.0555 16.6429996
v -5.23600006 -12.9469976 -70.5924988
v -4.85100031 -28.0555 16.6429996
v 5.23600006 -12.9469976 -70.5924988
v 4.85100031 -28.0555 16.6429996
v 4.85100031 -28.0555 16.6429996
v -0.918500006 -52.8715057 141.806488
v -4.85100031 -28.0555 16.6429996
v -0.918500006 -52.8715057 141.806488
v 4.85100031 -28.0555 16.6429996
v 0.918500006 -52.8715057 141.806488
v 4.85100031 -28.0555 16.6429996
v 16.9619999 -21.505003 39.0830002
v 0.918500006 -52.8715057 141.806488
v 44.0000038 1.8259995 13.717
v 16.9619999 -21.505003 39.0830002
v 4.85100031 -28.0555 16.6429996
v 5.23600006 -12.9469976 -70.5924988
v 44.0000038 1.8259995 13.717
v 4.85100031 -28.0555 16.6429996
v 44.0000038 1.8259995 13.717
v 5.23600006 -12.9469976 -70.5924988
v 52.1565018 16.4340038 -69.1294937
v 5.23600006 -12.9469976 -70.5924988
v 24.0020008 1.68300378 -86.8339996
v 52.1565018 16.4340038 -69.1294937
v 5.23600006 -12.9469976 -70.5924988
v -5.19200039 -5.05999517 -117.040001
v 5.19200039 -5.05999517 -117.040001
v 5.19200039 -5.05999517 -117.040001
v 24.0020008 1.68300378 -86.8339996
v 5.23600006 -12.9469976 -70.5924988
v 24.0020008 1.68300378 -86.8339996
v 5.19200039 -5.05999517 -117.040001
v 11.2915001 -2.07899523 -113.861
v 11.2915001 -2.07899523 -113.861
v 17.0445004 0.264004678 -106.958496
v 24.0020008 1.68300378 -86.8339996
v 0.918500006 -44.9460106 143.203491
v -0.918500006 -52.8715057 141.806488
v 0.918500006 -52.8715057 141.806488
v -0.918500006 -52.8715057 141.806488
v 0.918500006 -44.9460106 143.203491
v -0.918500006 -44.9460106 143.203491
v 52.1565018 16.4340038 -69.1294937
v 19.0794983 15.5485048 -87.6590042
v 45.8370018 28.5065022 -67.6279984
v 19.0794983 15.5485048 -87.6590042
v 52.1565018 16.4340038 -69.1294937
v 24.0020008 1.68300378 -86.8339996
v 97.625 23.6115017 3.36600089
v 74.2665024 25.1625004 -8.97599888
v 96.7944946 22.8139992 5.19200134
v 74.2665024 25.1625004 -8.97599888
v 97.625 23.6115017 3.36600089
v 74.4975052 26.7740021 -11.1595001
v 74.4975052 26.7740021 -11.1595001
v 68.4639969 24.9535007 -11.2804995
v 74.2665024 25.1625004 -8.97599888
v 68.4639969 24.9535007 -11.2804995
v 74.4975052 26.7740021 -11.1595001
v 68.651001 26.7630005 -13.552
v 63.1290016 24.0735016 -11.6269989
v 68.4639969 24.9535007 -11.2804995
v 68.651001 26.7630005 -13.552
v 68.4639969 24.9535007 -11.2804995
v 63.1290016 24.0735016 -11.6269989
v 63.151001 22.0935001 -8.97049999
v 32.2080002 3.56949973 8.03000069
v 63.151001 22.0935001 -8.97049999
v 63.1290016 24.0735016 -11.6269989
v 63.151001 22.0935001 -8.97049999
v 32.2080002 3.56949973 8.03000069
v 33.6599998 0.725999415 13.1395016
v 98.664505 24.1340008 1.00100112
v 74.4975052 26.7740021 -11.1595001
v 97.625 23.6115017 3.36600089
v 74.4975052 26.7740021 -11.1595001
v 98.664505 24.1340008 1.00100112
v 74.9759979 27.7915001 -14.0194998
v 74.9759979 27.7915001 -14.0194998
v 68.651001 26.7630005 -13.552
v 74.4975052 26.7740021 -11.1595001
v 68.651001 26.7630005 -13.552
v 74.9759979 27.7915001 -14.0194998
v 69.0855026 27.8795033 -16.5550003
v 63.3710022 25.3000031 -15.1524992
v 68.651001 26.7630005 -13.552
v 69.0855026 27.8795033 -16.5550003
v 68.651001 26.7630005 -13.552
v 63.3710022 25.3000031 -15.1524992
v 63.1290016 24.0735016 -11.6269989
v 31.6305008 5.69250011 0.781000257
v 63.1290016 24.0735016 -11.6269989
v 63.3710022 25.3000031 -15.1524992
v 63.1290016 24.0735016 -11.6269989
v 31.6305008 5.69250011 0.781000257
v 32.2080002 3.56949973 8.03000069
v 103.636505 25.9654999 -9.37199879
v 74.9759979 27.7915001 -14.0194998
v 98.664505 24.1340008 1.00100112
v 74.9759979 27.7915001 -14.0194998
v 103.636505 25.9654999 -9.37199879
v 77.4674988 30.9925022 -26.3834991
v 77.4674988 30.9925022 -26.3834991
v 69.0855026 27.8795033 -16.5550003
v 74.9759979 27.7915001 -14.0194998
v 69.0855026 27.8795033 -16.5550003
v 77.4674988 30.9925022 -26.3834991
v 71.401001 31.3830013 -29.5405006
v 65.2080078 29.2159996 -30.4754982
v 69.0855026 27.8795033 -16.5550003
v 71.401001 31.3830013 -29.5405006
v 69.0855026 27.8795033 -16.5550003
v 65.2080078 29.2159996 -30.4754982
v 63.3710022 25.3000031 -15.1524992
v 30.640501 12.8535013 -31.9440002
v 63.3710022 25.3000031 -15.1524992
v 65.2080078 29.2159996 -30.4754982
v 63.3710022 25.3000031 -15.1524992
v 30.640501 12.8535013 -31.9440002
v 31.6305008 5.69250011 0.781000257
v 109.5765 27.5660038 -19.4589996
v 77.4674988 30.9925022 -26.3834991
v 103.636505 25.9654999 -9.37199879
v 77.4674988 30.9925022 -26.3834991
v 109.5765 27.5660038 -19.4589996
v 80.6135025 32.8735008 -38.0764999
v 80.6135025 32.8735008 -38.0764999
v 71.401001 31.3830013 -29.5405006
v 77.4674988 30.9925022 -26.3834991
v 71.401001 31.3830013 -29.5405006
v 80.6135025 32.8735008 -38.0764999
v 74.3874969 33.3905029 -41.7890015
v 74.3874969 33.3905029 -41.7890015
v 65.2080078 29.2159996 -30.4754982
v 71.401001 31.3830013 -29.5405006
v 65.2080078 29.2159996 -30.4754982
v 74.3874969 33.3905029 -41.7890015
v 68.5190048 31.7295017 -45.0229988
v 68.5190048 31.7295017 -45.0229988
v 30.640501 12.8535013 -31.9440002
v 65.2080078 29.2159996 -30.4754982
v 30.640501 12.8535013 -31.9440002
v 68.5190048 31.7295017 -45.0229988
v 30.965004 17.380003 -64.6634979
v 69.5639954 31.5920029 -48.4220009
v 30.965004 17.380003 -64.6634979
v 68.5190048 31.7295017 -45.0229988
v 30.965004 17.380003 -64.6634979
v 69.5639954 31.5920029 -48.4220009
v 31.5095005 17.5230045 -72.1600037
v 111.012009 27.7145004 -21.7634983
v 80.6135025 32.8735008 -38.0764999
v 109.5765 27.5660038 -19.4589996
v 80.6135025 32.8735008 -38.0764999
v 111.012009 27.7145004 -21.7634983
v 81.5265045 32.6920013 -40.8045006
v 81.5265045 32.6920013 -40.8045006
v 74.3874969 33.3905029 -41.7890015
v 80.6135025 32.8735008 -38.0764999
v 74.3874969 33.3905029 -41.7890015
v 81.5265045 32.6920013 -40.8045006
v 75.3005066 33.1595039 -44.6655006
v 75.3005066 33.1595039 -44.6655006
v 68.5190048 31.7295017 -45.0229988
v 74.3874969 33.3905029 -41.7890015
v 68.5190048 31.7295017 -45.0229988
v 75.3005066 33.1595039 -44.6655006
v 69.5639954 31.5920029 -48.4220009
v 76.6535034 30.9099998 -47.5474968
v 69.5639954 31.5920029 -48.4220009
v 75.3005066 33.1595039 -44.6655006
v 69.5639954 31.5920029 -48.4220009
v 76.6535034 30.9099998 -47.5474968
v 70.9830017 29.3095016 -51.7549973
v 70.9830017 29.3095016 -51.7549973
v 31.5095005 17.5230045 -72.1600037
v 69.5639954 31.5920029 -48.4220009
v 31.5095005 17.5230045 -72.1600037
v 70.9830017 29.3095016 -51.7549973
v 33.3134995 15.2350035 -78.4465027
v 112.161507 27.1205006 -23.7269993
v 81.5265045 32.6920013 -40.8045006
v 111.012009 27.7145004 -21.7634983
v 81.5265045 32.6920013 -40.8045006
v 112.161507 27.1205006 -23.7269993
v 82.7420044 30.7230034 -43.4830017
v 82.7420044 30.7230034 -43.4830017
v 75.3005066 33.1595039 -44.6655006
v 81.5265045 32.6920013 -40.8045006
v 75.3005066 33.1595039 -44.6655006
v 82.7420044 30.7230034 -43.4830017
v 76.6535034 30.9099998 -47.5474968
v -11.6325006 -11.8635025 48.5320015
v -0.918500006 -52.8715057 141.806488
v -0.918500006 -44.9460106 143.203491
v -0.918500006 -52.8715057 141.806488
v -11.6325006 -11.8635025 48.5320015
v -16.9619999 -21.505003 39.0830002
v -31.8834991 -4.63650227 52.7670021
v -7.73300028 -26.3945045 63.7559967
v -5.70900011 -25.5530033 66.659996
v -7.73300028 -26.3945045 63.7559967
v -31.8834991 -4.63650227 52.7670021
v -33.5115013 -5.64300251 50.9024963
v -33.5115013 -5.64300251 50.9024963
v -9.85050011 -24.8875027 56.4410019
v -7.73300028 -26.3945045 63.7559967
v -9.85050011 -24.8875027 56.4410019
v -33.5115013 -5.64300251 50.9024963
v -36.8445015 -3.42650199 42.8834991
v -36.8445015 -3.42650199 42.8834991
v -11.9844999 -22.1815014 46.9589996
v -9.85050011 -24.8875027 56.4410019
v -11.9844999 -22.1815014 46.9589996
v -36.8445015 -3.42650199 42.8834991
v -37.4550018 -2.18350172 34.0230026
v -37.4550018 -2.18350172 34.0230026
v -14.0800018 -19.442503 37.553997
v -11.9844999 -22.1815014 46.9589996
v -34.9360008 -2.62900233 52.0574989
v -33.5115013 -5.64300251 50.9024963
v -31.8834991 -4.63650227 52.7670021
v -33.5115013 -5.64300251 50.9024963
v -34.9360008 -2.62900233 52.0574989
v -35.9040031 -3.71250248 49.7089996
v -36.8445015 -3.42650199 42.8834991
v -33.5115013 -5.64300251 50.9024963
v -35.9040031 -3.71250248 49.7089996
v -36.8445015 -3.42650199 42.8834991
v -35.9040031 -3.71250248 49.7089996
v -38.2579994 -3.08550215 50.1545029
v -38.2579994 -3.08550215 50.1545029
v -63.447998 -3.33300233 53.421505
v -36.8445015 -3.42650199 42.8834991
v -66.1925049 -2.73900223 48.7905006
v -36.8445015 -3.42650199 42.8834991
v -63.447998 -3.33300233 53.421505
v -36.8445015 -3.42650199 42.8834991
v -66.1925049 -2.73900223 48.7905006
v -37.4550018 -2.18350172 34.0230026
v -68.9369965 -1.84800196 44.2200012
v -37.4550018 -2.18350172 34.0230026
v -66.1925049 -2.73900223 48.7905006
v -37.4550018 -2.18350172 34.0230026
v -68.9369965 -1.84800196 44.2200012
v -36.9599991 -0.412501127 25.0470009
v -14.0800018 -19.442503 37.553997
v -37.4550018 -2.18350172 34.0230026
v -36.9599991 -0.412501127 25.0470009
v -36.9599991 -0.412501127 25.0470009
v -14.9049997 -16.5660019 30.5690022
v -14.0800018 -19.442503 37.553997
v -37.6805 -2.05700231 52.1620026
v -35.9040031 -3.71250248 49.7089996
v -34.9360008 -2.62900233 52.0574989
v -35.9040031 -3.71250248 49.7089996
v -37.6805 -2.05700231 52.1620026
v -38.2579994 -3.08550215 50.1545029
v -60.6925011 -3.1845026 58.2175026
v -38.2579994 -3.08550215 50.1545029
v -37.6805 -2.05700231 52.1620026
v -38.2579994 -3.08550215 50.1545029
v -60.6925011 -3.1845026 58.2175026
v -61.3855019 -3.5200026 56.952507
v -63.447998 -3.33300233 53.421505
v -38.2579994 -3.08550215 50.1545029
v -61.3855019 -3.5200026 56.952507
v -14.9049997 -16.5660019 30.5690022
v -36.9599991 -0.412501127 25.0470009
v -34.0395012 0.511499107 20.4875011
v -34.0395012 0.511499107 20.4875011
v -36.9599991 -0.412501127 25.0470009
v -35.7224998 2.10099912 19.4974995
v -40.5734978 1.93049932 22.2200012
v -35.7224998 2.10099912 19.4974995
v -36.9599991 -0.412501127 25.0470009
v -41.0135002 3.71799922 20.9605007
v -35.7224998 2.10099912 19.4974995
v -40.5734978 1.93049932 22.2200012
v -35.7224998 2.10099912 19.4974995
v -41.0135002 3.71799922 20.9605007
v -35.7170029 3.87749934 18.8485012
v -68.9369965 -1.84800196 44.2200012
v -40.5734978 1.93049932 22.2200012
v -36.9599991 -0.412501127 25.0470009
v -40.5734978 1.93049932 22.2200012
v -68.9369965 -1.84800196 44.2200012
v -70.9830017 -0.616001785 40.920002
v -71.6429977 0.984498203 40.0784988
v -40.5734978 1.93049932 22.2200012
v -70.9830017 -0.616001785 40.920002
v -40.5734978 1.93049932 22.2200012
v -71.6429977 0.984498203 40.0784988
v -41.0135002 3.71799922 20.9605007
v 61.3634987 -2.3320024 57.2164993
v 37.6805 -2.05700231 52.1620026
v 60.6925011 -3.1845026 58.2175026
v 37.6805 -2.05700231 52.1620026
v 61.3634987 -2.3320024 57.2164993
v 37.449501 -0.616002202 50.6660004
v 37.449501 -0.616002202 50.6660004
v 34.9360008 -2.62900233 52.0574989
v 37.6805 -2.05700231 52.1620026
v 34.9360008 -2.62900233 52.0574989
v 37.449501 -0.616002202 50.6660004
v 33.4785004 -0.665502131 49.3185005
v 30.5965004 -2.92050242 50.8750038
v 34.9360008 -2.62900233 52.0574989
v 33.4785004 -0.665502131 49.3185005
v 34.9360008 -2.62900233 52.0574989
v 30.5965004 -2.92050242 50.8750038
v 31.8834991 -4.63650227 52.7670021
v 9.31150055 -19.5635014 62.364502
v 31.8834991 -4.63650227 52.7670021
v 30.5965004 -2.92050242 50.8750038
v 31.8834991 -4.63650227 52.7670021
v 9.31150055 -19.5635014 62.364502
v 5.70900011 -25.5530033 66.659996
v 63.4095001 -0.957002401 53.9439964
v 37.449501 -0.616002202 50.6660004
v 61.3634987 -2.3320024 57.2164993
v 37.449501 -0.616002202 50.6660004
v 63.4095001 -0.957002401 53.9439964
v 32.906498 1.58949816 42.9330025
v 32.906498 1.58949816 42.9330025
v 33.4785004 -0.665502131 49.3185005
v 37.449501 -0.616002202 50.6660004
v 30.3214989 -1.94565951e-06 44.5115013
v 33.4785004 -0.665502131 49.3185005
v 32.906498 1.58949816 42.9330025
v 33.4785004 -0.665502131 49.3185005
v 30.3214989 -1.94565951e-06 44.5115013
v 30.5965004 -2.92050242 50.8750038
v 9.72949982 -16.725502 55.7700043
v 30.5965004 -2.92050242 50.8750038
v 30.3214989 -1.94565951e-06 44.5115013
v 30.5965004 -2.92050242 50.8750038
v 9.72949982 -16.725502 55.7700043
v 9.31150055 -19.5635014 62.364502
v 66.1374969 0.53349787 49.5055008
v 32.906498 1.58949816 42.9330025
v 63.4095001 -0.957002401 53.9439964
v 32.906498 1.58949816 42.9330025
v 66.1374969 0.53349787 49.5055008
v 32.5600014 3.99849868 33.9404984
v 30.0794983 2.52999854 35.5685043
v 32.906498 1.58949816 42.9330025
v 32.5600014 3.99849868 33.9404984
v 32.906498 1.58949816 42.9330025
v 30.0794983 2.52999854 35.5685043
v 30.3214989 -1.94565951e-06 44.5115013
v 12.078001 -12.6885023 45.8094978
v 30.3214989 -1.94565951e-06 44.5115013
v 30.0794983 2.52999854 35.5685043
v 30.3214989 -1.94565951e-06 44.5115013
v 12.078001 -12.6885023 45.8094978
v 9.72949982 -16.725502 55.7700043
v 66.1374969 0.53349787 49.5055008
v 37.4109993 5.98399878 27.3129997
v 32.5600014 3.99849868 33.9404984
v 37.4109993 5.98399878 27.3129997
v 32.4389992 5.73649883 24.8930016
v 32.5600014 3.99849868 33.9404984
v 32.4389992 5.73649883 24.8930016
v 30.019001 4.51549911 26.1470013
v 32.5600014 3.99849868 33.9404984
v 30.019001 4.51549911 26.1470013
v 30.0794983 2.52999854 35.5685043
v 32.5600014 3.99849868 33.9404984
v 27.9895 2.79399872 27.3405018
v 30.0794983 2.52999854 35.5685043
v 30.019001 4.51549911 26.1470013
v 30.0794983 2.52999854 35.5685043
v 27.9895 2.79399872 27.3405018
v 12.078001 -12.6885023 45.8094978
v 37.4109993 5.98399878 27.3129997
v 66.1374969 0.53349787 49.5055008
v 68.876503 1.72699797 45.0065002
v 70.9335022 2.06249833 41.508503
v 37.4109993 5.98399878 27.3129997
v 68.876503 1.72699797 45.0065002
v 37.4109993 5.98399878 27.3129997
v 70.9335022 2.06249833 41.508503
v 39.8475037 5.90149927 22.4619999
v 34.0890007 5.57699966 19.6295013
v 37.4109993 5.98399878 27.3129997
v 39.8475037 5.90149927 22.4619999
v 37.4109993 5.98399878 27.3129997
v 34.0890007 5.57699966 19.6295013
v 33.0439987 5.56599903 20.328001
v 33.0439987 5.56599903 20.328001
v 32.4389992 5.73649883 24.8930016
v 37.4109993 5.98399878 27.3129997
v 29.9145012 4.28449869 24.6014996
v 32.4389992 5.73649883 24.8930016
v 33.0439987 5.56599903 20.328001
v 32.4389992 5.73649883 24.8930016
v 29.9145012 4.28449869 24.6014996
v 30.019001 4.51549911 26.1470013
v 30.019001 4.51549911 26.1470013
v 29.9145012 4.28449869 24.6014996
v 27.9895 2.79399872 27.3405018
v 70.9335022 2.06249833 41.508503
v 41.0135002 3.71799922 20.9605007
v 39.8475037 5.90149927 22.4619999
v 35.7170029 3.87749934 18.8485012
v 39.8475037 5.90149927 22.4619999
v 41.0135002 3.71799922 20.9605007
v 39.8475037 5.90149927 22.4619999
v 35.7170029 3.87749934 18.8485012
v 34.0890007 5.57699966 19.6295013
v 41.0135002 3.71799922 20.9605007
v 70.9335022 2.06249833 41.508503
v 71.6429977 0.984498203 40.0784988
v -19.0794983 15.5485048 -87.6590042
v -17.0445004 0.264004678 -106.958496
v -24.0020008 1.68300378 -86.8339996
v -17.0445004 0.264004678 -106.958496
v -19.0794983 15.5485048 -87.6590042
v -11.9184999 14.1955051 -107.514
v -11.9184999 14.1955051 -107.514
v -11.2915001 -2.07899523 -113.861
v -17.0445004 0.264004678 -106.958496
v -11.2915001 -2.07899523 -113.861
v -11.9184999 14.1955051 -107.514
v -5.19200039 11.1925049 -114.174507
v -5.19200039 -5.05999517 -117.040001
v -11.2915001 -2.07899523 -113.861
v -5.19200039 11.1925049 -114.174507
v 5.19200039 11.1925049 -114.174507
v -5.19200039 -5.05999517 -117.040001
v -5.19200039 11.1925049 -114.174507
v -5.19200039 -5.05999517 -117.040001
v 5.19200039 11.1925049 -114.174507
v 5.19200039 -5.05999517 -117.040001
v 5.19200039 11.1925049 -114.174507
v 11.2915001 -2.07899523 -113.861
v 5.19200039 -5.05999517 -117.040001
v 11.9184999 14.1955051 -107.514
v 11.2915001 -2.07899523 -113.861
v 5.19200039 11.1925049 -114.174507
v 11.2915001 -2.07899523 -113.861
v 11.9184999 14.1955051 -107.514
v 17.0445004 0.264004678 -106.958496
v 19.0794983 15.5485048 -87.6590042
v 17.0445004 0.264004678 -106.958496
v 11.9184999 14.1955051 -107.514
v 17.0445004 0.264004678 -106.958496
v 19.0794983 15.5485048 -87.6590042
v 24.0020008 1.68300378 -86.8339996
v 37.6750031 13.8984995 15.2240009
v 52.1565018 16.4340038 -69.1294937
v 45.8370018 28.5065022 -67.6279984
v 52.1565018 16.4340038 -69.1294937
v 37.6750031 13.8984995 15.2240009
v 44.0000038 1.8259995 13.717
v 37.6750031 13.8984995 15.2240009
v 16.9619999 -21.505003 39.0830002
v 44.0000038 1.8259995 13.717
v 16.9619999 -21.505003 39.0830002
v 37.6750031 13.8984995 15.2240009
v 11.6325006 -11.8635025 48.5320015
v 4.95000029 -38.9345055 80.1460037
v -2.75000024 -53.8560028 88.786499
v 2.75000024 -53.8560028 88.786499
v -2.75000024 -53.8560028 88.786499
v 4.95000029 -38.9345055 80.1460037
v -4.95000029 -38.9345055 80.1460037
v 4.95000029 -17.6934986 -38.2415009
v 2.75000024 -17.5999947 -94.7595062
v 4.95000029 -4.79599476 -115.180992
v 2.75000024 -17.5999947 -94.7595062
v 4.95000029 -17.6934986 -38.2415009
v 2.75000024 -37.2899971 -24.7005024
v 4.95000029 -25.894001 12.9909992
v 2.75000024 -37.2899971 -24.7005024
v 4.95000029 -17.6934986 -38.2415009
v 2.75000024 -37.2899971 -24.7005024
v 4.95000029 -25.894001 12.9909992
v 2.20000005 -74.1950073 33.7754974
v 4.95000029 -38.9345055 80.1460037
v 2.20000005 -74.1950073 33.7754974
v 4.95000029 -25.894001 12.9909992
v 2.20000005 -74.1950073 33.7754974
v 4.95000029 -38.9345055 80.1460037
v 2.75000024 -53.8560028 88.786499
v 70.9830017 29.3095016 -51.7549973
v 35.0955009 11.4620028 -73.0620041
v 33.3134995 15.2350035 -78.4465027
v 35.0955009 11.4620028 -73.0620041
v 70.9830017 29.3095016 -51.7549973
v 70.9830017 26.0150013 -49.9235001
v 70.9830017 26.0150013 -49.9235001
v 35.6235046 9.75150299 -65.9780045
v 35.0955009 11.4620028 -73.0620041
v 35.6235046 9.75150299 -65.9780045
v 70.9830017 26.0150013 -49.9235001
v 70.2625046 24.6125031 -46.8764992
v 70.2625046 24.6125031 -46.8764992
v 36.0084991 5.14250183 -34.1604996
v 35.6235046 9.75150299 -65.9780045
v 36.0084991 5.14250183 -34.1604996
v 70.2625046 24.6125031 -46.8764992
v 66.7920074 21.7635021 -32.1419983
v 64.2950058 20.8010006 -16.0160007
v 36.0084991 5.14250183 -34.1604996
v 66.7920074 21.7635021 -32.1419983
v 36.0084991 5.14250183 -34.1604996
v 64.2950058 20.8010006 -16.0160007
v 35.4475021 0.841500044 -1.42999995
v 76.6535034 30.9099998 -47.5474968
v 70.9830017 26.0150013 -49.9235001
v 70.9830017 29.3095016 -51.7549973
v 70.9830017 26.0150013 -49.9235001
v 76.6535034 30.9099998 -47.5474968
v 76.7800064 27.8740025 -46.0844994
v 76.7800064 27.8740025 -46.0844994
v 70.2625046 24.6125031 -46.8764992
v 70.9830017 26.0150013 -49.9235001
v 70.2625046 24.6125031 -46.8764992
v 76.7800064 27.8740025 -46.0844994
v 76.1640015 26.6585026 -43.5270004
v 76.1640015 26.6585026 -43.5270004
v 66.7920074 21.7635021 -32.1419983
v 70.2625046 24.6125031 -46.8764992
v 66.7920074 21.7635021 -32.1419983
v 76.1640015 26.6585026 -43.5270004
v 72.8365097 24.3760014 -31.036499
v 69.8499985 23.7105007 -17.286499
v 66.7920074 21.7635021 -32.1419983
v 72.8365097 24.3760014 -31.036499
v 66.7920074 21.7635021 -32.1419983
v 69.8499985 23.7105007 -17.286499
v 64.2950058 20.8010006 -16.0160007
v 69.1735001 23.897501 -14.0249996
v 64.2950058 20.8010006 -16.0160007
v 69.8499985 23.7105007 -17.286499
v 64.2950058 20.8010006 -16.0160007
v 69.1735001 23.897501 -14.0249996
v 63.7779999 20.9660015 -12.1934996
v 63.7779999 20.9660015 -12.1934996
v 35.4475021 0.841500044 -1.42999995
v 64.2950058 20.8010006 -16.0160007
v 35.4475021 0.841500044 -1.42999995
v 63.7779999 20.9660015 -12.1934996
v 35.0019989 0.13749972 6.28100014
v 82.7420044 30.7230034 -43.4830017
v 76.7800064 27.8740025 -46.0844994
v 76.6535034 30.9099998 -47.5474968
v 76.7800064 27.8740025 -46.0844994
v 82.7420044 30.7230034 -43.4830017
v 82.7089996 28.0390015 -41.9979973
v 82.7089996 28.0390015 -41.9979973
v 76.1640015 26.6585026 -43.5270004
v 76.7800064 27.8740025 -46.0844994
v 76.1640015 26.6585026 -43.5270004
v 82.7089996 28.0390015 -41.9979973
v 82.0545044 26.9555035 -39.5229988
v 82.0545044 26.9555035 -39.5229988
v 72.8365097 24.3760014 -31.036499
v 76.1640015 26.6585026 -43.5270004
v 72.8365097 24.3760014 -31.036499
v 82.0545044 26.9555035 -39.5229988
v 78.7160034 24.8820019 -27.5990009
v 78.7160034 24.8820019 -27.5990009
v 69.8499985 23.7105007 -17.286499
v 72.8365097 24.3760014 -31.036499
v 69.8499985 23.7105007 -17.286499
v 78.7160034 24.8820019 -27.5990009
v 75.6634979 24.1395016 -14.6025
v 75.6634979 24.1395016 -14.6025
v 69.1735001 23.897501 -14.0249996
v 69.8499985 23.7105007 -17.286499
v 69.1735001 23.897501 -14.0249996
v 75.6634979 24.1395016 -14.6025
v 74.9705048 24.2605019 -11.5334997
v 74.9705048 24.2605019 -11.5334997
v 68.4639969 24.9535007 -11.2804995
v 69.1735001 23.897501 -14.0249996
v 68.4639969 24.9535007 -11.2804995
v 63.7779999 20.9660015 -12.1934996
v 69.1735001 23.897501 -14.0249996
v 112.161507 27.1205006 -23.7269993
v 82.7089996 28.0390015 -41.9979973
v 82.7420044 30.7230034 -43.4830017
v 82.7089996 28.0390015 -41.9979973
v 112.161507 27.1205006 -23.7269993
v 111.000999 25.9710007 -22.0659981
v 111.000999 25.9710007 -22.0659981
v 82.0545044 26.9555035 -39.5229988
v 82.7089996 28.0390015 -41.9979973
v 82.0545044 26.9555035 -39.5229988
v 111.000999 25.9710007 -22.0659981
v 109.559998 25.4265003 -19.838501
v 109.559998 25.4265003 -19.838501
v 78.7160034 24.8820019 -27.5990009
v 82.0545044 26.9555035 -39.5229988
v 78.7160034 24.8820019 -27.5990009
v 109.559998 25.4265003 -19.838501
v 103.630997 23.9689999 -9.72399902
v 103.630997 23.9689999 -9.72399902
v 75.6634979 24.1395016 -14.6025
v 78.7160034 24.8820019 -27.5990009
v 75.6634979 24.1395016 -14.6025
v 103.630997 23.9689999 -9.72399902
v 98.664505 22.7425003 0.753500998
v 98.664505 22.7425003 0.753500998
v 74.9705048 24.2605019 -11.5334997
v 75.6634979 24.1395016 -14.6025
v 74.9705048 24.2605019 -11.5334997
v 98.664505 22.7425003 0.753500998
v 97.625 22.5720005 3.18450117
v 97.625 22.5720005 3.18450117
v 74.2665024 25.1625004 -8.97599888
v 74.9705048 24.2605019 -11.5334997
v 68.4639969 24.9535007 -11.2804995
v 74.9705048 24.2605019 -11.5334997
v 74.2665024 25.1625004 -8.97599888
v 74.2665024 25.1625004 -8.97599888
v 97.625 22.5720005 3.18450117
v 96.7944946 22.8139992 5.19200134
v 63.7779999 20.9660015 -12.1934996
v 68.4639969 24.9535007 -11.2804995
v 63.151001 22.0935001 -8.97049999
v 63.151001 22.0935001 -8.97049999
v 35.0019989 0.13749972 6.28100014
v 63.7779999 20.9660015 -12.1934996
v 35.0019989 0.13749972 6.28100014
v 63.151001 22.0935001 -8.97049999
v 33.6599998 0.725999415 13.1395016
v -52.1565018 16.4340038 -69.1294937
v -37.6750031 13.8984995 15.2240009
v -45.8370018 28.5065022 -67.6279984
v -37.6750031 13.8984995 15.2240009
v -52.1565018 16.4340038 -69.1294937
v -44.0000038 1.8259995 13.717
v -16.9619999 -21.505003 39.0830002
v -37.6750031 13.8984995 15.2240009
v -44.0000038 1.8259995 13.717
v -37.6750031 13.8984995 15.2240009
v -16.9619999 -21.505003 39.0830002
v -11.6325006 -11.8635025 48.5320015
v 0.918500006 -52.8715057 141.806488
v 11.6325006 -11.8635025 48.5320015
v 0.918500006 -44.9460106 143.203491
v 11.6325006 -11.8635025 48.5320015
v 0.918500006 -52.8715057 141.806488
v 16.9619999 -21.505003 39.0830002
v -2.75000024 -53.8560028 88.786499
v 2.20000005 -74.1950073 33.7754974
v 2.75000024 -53.8560028 88.786499
v 2.20000005 -74.1950073 33.7754974
v -2.75000024 -53.8560028 88.786499
v -2.20000005 -74.1950073 33.7754974
v -2.20000005 -74.1950073 33.7754974
v 2.75000024 -37.2899971 -24.7005024
v 2.20000005 -74.1950073 33.7754974
v 2.75000024 -37.2899971 -24.7005024
v -2.20000005 -74.1950073 33.7754974
v -2.75000024 -37.2899971 -24.7005024
v -2.75000024 -37.2899971 -24.7005024
v 2.75000024 -17.5999947 -94.7595062
v 2.75000024 -37.2899971 -24.7005024
v 2.75000024 -17.5999947 -94.7595062
v -2.75000024 -37.2899971 -24.7005024
v -2.75000024 -17.5999947 -94.7595062
v -4.95000029 -4.79599476 -115.180992
v 2.75000024 -17.5999947 -94.7595062
v -2.75000024 -17.5999947 -94.7595062
v 2.75000024 -17.5999947 -94.7595062
v -4.95000029 -4.79599476 -115.180992
v 4.95000029 -4.79599476 -115.180992
v -61.3855019 -3.5200026 56.952507
v -60.6925011 -3.1845026 58.2175026
v -61.3634987 -2.3320024 57.2164993
v -63.4095001 -0.957002401 53.9439964
v -61.3855019 -3.5200026 56.952507
v -61.3634987 -2.3320024 57.2164993
v -61.3855019 -3.5200026 56.952507
v -63.4095001 -0.957002401 53.9439964
v -63.447998 -3.33300233 53.421505
v -63.4095001 -0.957002401 53.9439964
v -66.1925049 -2.73900223 48.7905006
v -63.447998 -3.33300233 53.421505
v -66.1925049 -2.73900223 48.7905006
v -63.4095001 -0.957002401 53.9439964
v -66.1374969 0.53349787 49.5055008
v -66.1374969 0.53349787 49.5055008
v -68.9369965 -1.84800196 44.2200012
v -66.1925049 -2.73900223 48.7905006
v -68.9369965 -1.84800196 44.2200012
v -66.1374969 0.53349787 49.5055008
v -68.876503 1.72699797 45.0065002
v -70.9335022 2.06249833 41.508503
v -68.9369965 -1.84800196 44.2200012
v -68.876503 1.72699797 45.0065002
v -68.9369965 -1.84800196 44.2200012
v -70.9335022 2.06249833 41.508503
v -70.9830017 -0.616001785 40.920002
v -70.9335022 2.06249833 41.508503
v -71.6429977 0.984498203 40.0784988
v -70.9830017 -0.616001785 40.920002
v -32.2080002 3.56949973 8.03000069
v -33.6599998 0.725999415 13.1395016
v -35.0019989 0.13749972 6.28100014
v -35.0019989 0.13749972 6.28100014
v -31.6305008 5.69250011 0.781000257
v -32.2080002 3.56949973 8.03000069
v -31.6305008 5.69250011 0.781000257
v -35.0019989 0.13749972 6.28100014
v -35.4475021 0.841500044 -1.42999995
v -35.4475021 0.841500044 -1.42999995
v -30.640501 12.8535013 -31.9440002
v -31.6305008 5.69250011 0.781000257
v -30.640501 12.8535013 -31.9440002
v -35.4475021 0.841500044 -1.42999995
v -36.0084991 5.14250183 -34.1604996
v -36.0084991 5.14250183 -34.1604996
v -30.965004 17.380003 -64.6634979
v -30.640501 12.8535013 -31.9440002
v -30.965004 17.380003 -64.6634979
v -36.0084991 5.14250183 -34.1604996
v -35.6235046 9.75150299 -65.9780045
v -35.6235046 9.75150299 -65.9780045
v -31.5095005 17.5230045 -72.1600037
v -30.965004 17.380003 -64.6634979
v -31.5095005 17.5230045 -72.1600037
v -35.6235046 9.75150299 -65.9780045
v -35.0955009 11.4620028 -73.0620041
v -35.0955009 11.4620028 -73.0620041
v -33.3134995 15.2350035 -78.4465027
v -31.5095005 17.5230045 -72.1600037
v -97.625 23.6115017 3.36600089
v -97.625 22.5720005 3.18450117
v -96.7944946 22.8139992 5.19200134
v -98.664505 24.1340008 1.00100112
v -97.625 22.5720005 3.18450117
v -97.625 23.6115017 3.36600089
v -97.625 22.5720005 3.18450117
v -98.664505 24.1340008 1.00100112
v -98.664505 22.7425003 0.753500998
v -103.636505 25.9654999 -9.37199879
v -98.664505 22.7425003 0.753500998
v -98.664505 24.1340008 1.00100112
v -98.664505 22.7425003 0.753500998
v -103.636505 25.9654999 -9.37199879
v -103.630997 23.9689999 -9.72399902
v -109.5765 27.5660038 -19.4589996
v -103.630997 23.9689999 -9.72399902
v -103.636505 25.9654999 -9.37199879
v -103.630997 23.9689999 -9.72399902
v -109.5765 27.5660038 -19.4589996
v -109.559998 25.4265003 -19.838501
v -111.012009 27.7145004 -21.7634983
v -109.559998 25.4265003 -19.838501
v -109.5765 27.5660038 -19.4589996
v -109.559998 25.4265003 -19.838501
v -111.012009 27.7145004 -21.7634983
v -111.000999 25.9710007 -22.0659981
v -111.000999 25.9710007 -22.0659981
v -111.012009 27.7145004 -21.7634983
v -112.161507 27.1205006 -23.7269993
v 60.6925011 -3.1845026 58.2175026
v 61.3855019 -3.5200026 56.952507
v 61.3634987 -2.3320024 57.2164993
v 61.3855019 -3.5200026 56.952507
v 63.4095001 -0.957002401 53.9439964
v 61.3634987 -2.3320024 57.2164993
v 63.4095001 -0.957002401 53.9439964
v 61.3855019 -3.5200026 56.952507
v 63.447998 -3.33300233 53.421505
v 66.1925049 -2.73900223 48.7905006
v 63.4095001 -0.957002401 53.9439964
v 63.447998 -3.33300233 53.421505
v 63.4095001 -0.957002401 53.9439964
v 66.1925049 -2.73900223 48.7905006
v 66.1374969 0.53349787 49.5055008
v 68.9369965 -1.84800196 44.2200012
v 66.1374969 0.53349787 49.5055008
v 66.1925049 -2.73900223 48.7905006
v 66.1374969 0.53349787 49.5055008
v 68.9369965 -1.84800196 44.2200012
v 68.876503 1.72699797 45.0065002
v 68.9369965 -1.84800196 44.2200012
v 70.9335022 2.06249833 41.508503
v 68.876503 1.72699797 45.0065002
v 70.9335022 2.06249833 41.508503
v 68.9369965 -1.84800196 44.2200012
v 70.9830017 -0.616001785 40.920002
v 71.6429977 0.984498203 40.0784988
v 70.9335022 2.06249833 41.508503
v 70.9830017 -0.616001785 40.920002
v 33.6599998 0.725999415 13.1395016
v 32.2080002 3.56949973 8.03000069
v 35.0019989 0.13749972 6.28100014
v 31.6305008 5.69250011 0.781000257
v 35.0019989 0.13749972 6.28100014
v 32.2080002 3.56949973 8.03000069
v 35.0019989 0.13749972 6.28100014
v 31.6305008 5.69250011 0.781000257
v 35.4475021 0.841500044 -1.42999995
v 30.640501 12.8535013 -31.9440002
v 35.4475021 0.841500044 -1.42999995
v 31.6305008 5.69250011 0.781000257
v 35.4475021 0.841500044 -1.42999995
v 30.640501 12.8535013 -31.9440002
v 36.0084991 5.14250183 -34.1604996
v 30.965004 17.380003 -64.6634979
v 36.0084991 5.14250183 -34.1604996
v 30.640501 12.8535013 -31.9440002
v 36.0084991 5.14250183 -34.1604996
v 30.965004 17.380003 -64.6634979
v 35.6235046 9.75150299 -65.9780045
v 31.5095005 17.5230045 -72.1600037
v 35.6235046 9.75150299 -65.9780045
v 30.965004 17.380003 -64.6634979
v 35.6235046 9.75150299 -65.9780045
v 31.5095005 17.5230045 -72.1600037
v 35.0955009 11.4620028 -73.0620041
v 33.3134995 15.2350035 -78.4465027
v 35.0955009 11.4620028 -73.0620041
v 31.5095005 17.5230045 -72.1600037
v 97.625 22.5720005 3.18450117
v 97.625 23.6115017 3.36600089
v 96.7944946 22.8139992 5.19200134
v 97.625 22.5720005 3.18450117
v 98.664505 24.1340008 1.00100112
v 97.625 23.6115017 3.36600089
v 98.664505 24.1340008 1.00100112
v 97.625 22.5720005 3.18450117
v 98.664505 22.7425003 0.753500998
v 98.664505 22.7425003 0.753500998
v 103.636505 25.9654999 -9.37199879
v 98.664505 24.1340008 1.00100112
v 103.636505 25.9654999 -9.37199879
v 98.664505 22.7425003 0.753500998
v 103.630997 23.9689999 -9.72399902
v 103.630997 23.9689999 -9.72399902
v 109.5765 27.5660038 -19.4589996
v 103.636505 25.9654999 -9.37199879
v 109.5765 27.5660038 -19.4589996
v 103.630997 23.9689999 -9.72399902
v 109.559998 25.4265003 -19.838501
v 111.000999 25.9710007 -22.0659981
v 109.5765 27.5660038 -19.4589996
v 109.559998 25.4265003 -19.838501
v 109.5765 27.5660038 -19.4589996
v 111.000999 25.9710007 -22.0659981
v 111.012009 27.7145004 -21.7634983
v 111.012009 27.7145004 -21.7634983
v 111.000999 25.9710007 -22.0659981
v 112.161507 27.1205006 -23.7269993
v 37.6750031 13.8984995 15.2240009
v 3.64650011 -20.0200024 46.0514984
v 11.6325006 -11.8635025 48.5320015
v 3.64650011 -20.0200024 46.0514984
v 37.6750031 13.8984995 15.2240009
v 5.02699995 -4.2514987 -23.9360008
v -5.02699995 -4.2514987 -23.9360008
v 3.64650011 -20.0200024 46.0514984
v 5.02699995 -4.2514987 -23.9360008
v 3.64650011 -20.0200024 46.0514984
v -5.02699995 -4.2514987 -23.9360008
v -3.64650011 -20.0200024 46.0514984
v -3.64650011 -20.0200024 46.0514984
v 0.918500006 -44.9460106 143.203491
v 3.64650011 -20.0200024 46.0514984
v 11.6325006 -11.8635025 48.5320015
v 3.64650011 -20.0200024 46.0514984
v 0.918500006 -44.9460106 143.203491
v 5.02699995 -4.2514987 -23.9360008
v 37.6750031 13.8984995 15.2240009
v 45.8370018 28.5065022 -67.6279984
v 19.0794983 15.5485048 -87.6590042
v 5.02699995 -4.2514987 -23.9360008
v 45.8370018 28.5065022 -67.6279984
v 5.02699995 -4.2514987 -23.9360008
v 19.0794983 15.5485048 -87.6590042
v 5.38999987 7.03450441 -88.4894943
v 5.38999987 7.03450441 -88.4894943
v -5.02699995 -4.2514987 -23.9360008
v 5.02699995 -4.2514987 -23.9360008
v -5.02699995 -4.2514987 -23.9360008
v 5.38999987 7.03450441 -88.4894943
v -5.38999987 7.03450441 -88.4894943
v -19.0794983 15.5485048 -87.6590042
v -5.02699995 -4.2514987 -23.9360008
v -5.38999987 7.03450441 -88.4894943
v -5.02699995 -4.2514987 -23.9360008
v -19.0794983 15.5485048 -87.6590042
v -45.8370018 28.5065022 -67.6279984
v -5.02699995 -4.2514987 -23.9360008
v -45.8370018 28.5065022 -67.6279984
v -37.6750031 13.8984995 15.2240009
v -37.6750031 13.8984995 15.2240009
v -3.64650011 -20.0200024 46.0514984
v -5.02699995 -4.2514987 -23.9360008
v 11.9184999 14.1955051 -107.514
v 5.38999987 7.03450441 -88.4894943
v 19.0794983 15.5485048 -87.6590042
v 5.38999987 7.03450441 -88.4894943
v 11.9184999 14.1955051 -107.514
v 5.19200039 11.1925049 -114.174507
v -5.19200039 11.1925049 -114.174507
v 5.38999987 7.03450441 -88.4894943
v 5.19200039 11.1925049 -114.174507
v 5.38999987 7.03450441 -88.4894943
v -5.19200039 11.1925049 -114.174507
v -5.38999987 7.03450441 -88.4894943
v -11.9184999 14.1955051 -107.514
v -5.38999987 7.03450441 -88.4894943
v -5.19200039 11.1925049 -114.174507
v -5.38999987 7.03450441 -88.4894943
v -11.9184999 14.1955051 -107.514
v -19.0794983 15.5485048 -87.6590042
v -3.64650011 -20.0200024 46.0514984
v -37.6750031 13.8984995 15.2240009
v -11.6325006 -11.8635025 48.5320015
v -3.64650011 -20.0200024 46.0514984
v -11.6325006 -11.8635025 48.5320015
v -0.918500006 -44.9460106 143.203491
v 0.918500006 -44.9460106 143.203491
v -3.64650011 -20.0200024 46.0514984
v -0.918500006 -44.9460106 143.203491

# 256 UV coordinates
vt 0.474799991 0.866900027 0
vt 0.539300025 0.859300017 0
vt 0.528999984 0.838199973 0
vt 0.485100001 0.889900029 0
vt 0.531599998 0.966499984 0
vt 0.600099981 0.894500017 0
vt 0.512799978 0.943499982 0
vt 0.648500025 0.970300019 0
vt 0.708999991 0.940699995 0
vt 0.737200022 0.970300019 0
vt 0.832700014 0.95480001 0
vt 0.870700002 0.971400023 0
vt 0.395799994 0.355500013 0
vt 0.382200003 0.375999987 0
vt 0.396800011 0.3486 0
vt 0.384000003 0.377600014 0
vt 0.380100012 0.378699988 0
vt 0.382400006 0.380699992 0
vt 0.378899992 0.381599993 0
vt 0.377900004 0.380100012 0
vt 0.358500004 0.387499988 0
vt 0.358399987 0.386200011 0
vt 0.398299992 0.361099988 0
vt 0.386900008 0.382800013 0
vt 0.385699987 0.385399997 0
vt 0.358599991 0.391000003 0
vt 0.400999993 0.370099992 0
vt 0.391099989 0.389499992 0
vt 0.389999986 0.39199999 0
vt 0.358700007 0.395599991 0
vt 0.396499991 0.394199997 0
vt 0.395399988 0.396400005 0
vt 0.394199997 0.398499995 0
vt 0.389699996 0.399199992 0
vt 0.358799994 0.400200009 0
vt 0.358900011 0.403699994 0
vt 0.396299988 0.397300005 0
vt 0.396200001 0.401800007 0
vt 0.395799994 0.402799994 0
vt 0.390199989 0.403800011 0
vt 0.389999986 0.406199992 0
vt 0.358900011 0.405400008 0
vt 0.395500004 0.404799998 0
vt 0.332399994 0.125400007 0
vt 0.260600001 0.154200003 0
vt 0.332199991 0.113700002 0
vt 0.263599992 0.159899995 0
vt 0.250699997 0.160300002 0
vt 0.252900004 0.165600002 0
vt 0.241300002 0.167099997 0
vt 0.242599994 0.172099993 0
vt 0.190799996 0.200299993 0
vt 0.1928 0.203700006 0
vt 0.331999987 0.137799993 0
vt 0.265300006 0.1655 0
vt 0.254200011 0.170399994 0
vt 0.243699998 0.176699996 0
vt 0.195099995 0.207699999 0
vt 0.248500004 0.197600007 0
vt 0.2042 0.225600004 0
vt 0.330599993 0.192599997 0
vt 0.270599991 0.191300005 0
vt 0.25909999 0.192399994 0
vt 0.262600005 0.216299996 0
vt 0.252200007 0.220100001 0
vt 0.211500004 0.244000003 0
vt 0.252999991 0.225400001 0
vt 0.213 0.248300001 0
vt 0.273200005 0.2192 0
vt 0.330900013 0.248899996 0
vt 0.273400009 0.225799993 0
vt 0.263200015 0.222000003 0
vt 0.263399988 0.2271 0
vt 0.254099995 0.230100006 0
vt 0.214200005 0.251800001 0
vt 0.331200004 0.262100011 0
vt 0.272500008 0.231700003 0
vt 0.331400007 0.273999989 0
vt 0.220799997 0.289200008 0
vt 0.206699997 0.325899988 0
vt 0.200800002 0.325300008 0
vt 0.224399999 0.289900005 0
vt 0.213200003 0.325899988 0
vt 0.227400005 0.290499985 0
vt 0.241400003 0.325599998 0
vt 0.239999995 0.293000013 0
vt 0.253500015 0.29460001 0
vt 0.270000011 0.325100005 0
vt 0.224199995 0.283499986 0
vt 0.227300003 0.28459999 0
vt 0.229800001 0.2852 0
vt 0.240400001 0.287400007 0
vt 0.251800001 0.289400011 0
vt 0.254500002 0.289799988 0
vt 0.256599993 0.294999987 0
vt 0.276499987 0.324900001 0
vt 0.227799997 0.277700007 0
vt 0.230399996 0.279100001 0
vt 0.232800007 0.279900014 0
vt 0.243000001 0.282299995 0
vt 0.253899992 0.284299999 0
vt 0.256500006 0.284700006 0
vt 0.256999999 0.290199995 0
vt 0.245000005 0.252499998 0
vt 0.246700004 0.253600001 0
vt 0.248699993 0.254799992 0
vt 0.257600009 0.2597 0
vt 0.2667 0.263799995 0
vt 0.268700004 0.264600009 0
vt 0.2588 0.284999996 0
vt 0.270500004 0.265300006 0
vt 0.25940001 0.295399994 0
vt 0.281599998 0.324299991 0
vt 0.385899991 0.337500006 0
vt 0.3829 0.345999986 0
vt 0.386099994 0.346700013 0
vt 0.382099986 0.337099999 0
vt 0.373800009 0.340299994 0
vt 0.379200011 0.348100007 0
vt 0.340600014 0.374500006 0
vt 0.328099996 0.371100008 0
vt 0.360300004 0.332399994 0
vt 0.311399996 0.367300004 0
vt 0.381300002 0.275999993 0
vt 0.377999991 0.276300013 0
vt 0.371100008 0.276600003 0
vt 0.361900002 0.276899993 0
vt 0.346199989 0.325899988 0
vt 0.29460001 0.363400012 0
vt 0.33070001 0.324600011 0
vt 0.281599998 0.360399991 0
vt 0.326599985 0.322699994 0
vt 0.27579999 0.3583 0
vt 0.352699995 0.277099997 0
vt 0.336699992 0.317200005 0
vt 0.335200012 0.321200013 0
vt 0.33070001 0.319200009 0
vt 0.345699996 0.277200013 0
vt 0.343199998 0.277200013 0
vt 0.332899988 0.316100001 0
vt 0.0891000032 0.845499992 0
vt 0.0781999975 0.833899975 0
vt 0.0737000033 0.82190001 0
vt 0.122699998 0.859899998 0
vt 0.154400006 0.822099984 0
vt 0.148100004 0.916700006 0
vt 0.292400002 0.904900014 0
vt 0.306199998 0.821399987 0
vt 0.342000008 0.84890002 0
vt 0.524999976 0.814599991 0
vt 0.154400006 0.804099977 0
vt 0.306199998 0.804799974 0
vt 0.524999976 0.811399996 0
vt 0.342000008 0.7773 0
vt 0.292400002 0.721300006 0
vt 0.148200005 0.709500015 0
vt 0.122699998 0.766300023 0
vt 0.0737000033 0.804199994 0
vt 0.0781999975 0.792200029 0
vt 0.0891999975 0.780700028 0
vt 0.337500006 0.971599996 0
vt 0.342400014 0.984700024 0
vt 0.339300007 0.985099971 0
vt 0.340700001 0.971199989 0
vt 0.162699997 0.966099977 0
vt 0.337000012 0.985700011 0
vt 0.335200012 0.972000003 0
vt 0.151099995 0.988099992 0
vt 0.346899986 0.870599985 0
vt 0.370499998 0.905700028 0
vt 0.336100012 0.893400013 0
vt 0.381000012 0.882499993 0
vt 0.38499999 0.912199974 0
vt 0.396299988 0.889900029 0
vt 0.396299988 0.918099999 0
vt 0.414099991 0.889900029 0
vt 0.414099991 0.918099999 0
vt 0.425500005 0.912199974 0
vt 0.429399997 0.882499993 0
vt 0.439999998 0.905700028 0
vt 0.46360001 0.870599985 0
vt 0.474299997 0.893400013 0
vt 0.402799994 0.9296 0
vt 0.258300006 0.953999996 0
vt 0.258100003 0.930499971 0
vt 0.40290001 0.953100026 0
vt 0.477400005 0.961700022 0
vt 0.486999989 0.938799977 0
vt 0.496199995 0.990499973 0
vt 0.525600016 0.977500021 0
vt 0.525600016 0.986899972 0
vt 0.496199995 0.97359997 0
vt 0.625699997 0.986400008 0
vt 0.625699997 0.978900015 0
vt 0.743700027 0.987900019 0
vt 0.743700027 0.978500009 0
vt 0.867900014 0.988499999 0
vt 0.867900014 0.979099989 0
vt 0.908999979 0.975499988 0
vt 0.908999979 0.992399991 0
vt 0.345999986 0.272300005 0
vt 0.343600005 0.271400005 0
vt 0.345899999 0.270200014 0
vt 0.352699995 0.268700004 0
vt 0.352899998 0.272899985 0
vt 0.362199992 0.273000002 0
vt 0.361799985 0.26730001 0
vt 0.371399999 0.272700012 0
vt 0.370900005 0.266400009 0
vt 0.377900004 0.266799986 0
vt 0.378199995 0.271400005 0
vt 0.380299985 0.268900007 0
vt 0.345999986 0.110399999 0
vt 0.349700004 0.1008 0
vt 0.354000002 0.112000003 0
vt 0.344799995 0.123300001 0
vt 0.35589999 0.125100002 0
vt 0.344399989 0.180600002 0
vt 0.360900015 0.181400001 0
vt 0.348800004 0.237000003 0
vt 0.364300013 0.236300007 0
vt 0.351500005 0.249599993 0
vt 0.363700002 0.248799995 0
vt 0.358399987 0.259200007 0
vt 0.1884 0.207100004 0
vt 0.186700001 0.207800001 0
vt 0.186199993 0.204099998 0
vt 0.190300003 0.211099997 0
vt 0.188199997 0.212099999 0
vt 0.198400006 0.229000002 0
vt 0.195299998 0.230399996 0
vt 0.206400007 0.247400001 0
vt 0.203099996 0.248899996 0
vt 0.207900003 0.251700014 0
vt 0.205200002 0.252999991 0
vt 0.208000004 0.255699992 0
vt 0.1153 0.988499999 0
vt 0.147300005 0.951600015 0
vt 0.1479 0.961600006 0
vt 0.0854000002 0.952899992 0
vt 0.0854000002 0.944199979 0
vt 0.147300005 0.9454 0
vt 0.233199999 0.949199975 0
vt 0.0432000011 0.993600011 0
vt 0.0284000002 0.966899991 0
vt 0.0289999992 0.953100026 0
vt 0.0289999992 0.943899989 0
vt 0.0284000002 0.930199981 0
vt 0.0432000011 0.903400004 0
vt 0.1153 0.908500016 0
vt 0.0120000001 0.959599972 0
vt 0.00680000009 0.952899992 0
vt 0.00680000009 0.944100022 0
vt 0.0120000001 0.937399983 0
vt 0.147799999 0.935400009 0
vt 0.233199999 0.947600007 0

# 430 vertex normals
vn -0.470813662 0.231106728 -0.851424754
vn -0.452817321 0.339513034 -0.824431539
vn -0.482799023 0.119799793 -0.867498219
vn -0.995534837 -0.0936032757 0.0122004217
vn -0.996234894 -0.0866030306 -0.00400014408
vn -0.991476476 -0.125097036 0.0363991335
vn -0.995982349 -0.0865984634 -0.0227995981
vn -0.993213594 -0.111901537 -0.0317004398
vn -0.985943496 -0.16390723 -0.0324014388
vn -0.982320666 -0.183203861 -0.0385008231
vn -0.972866416 -0.228192136 -0.0381986946
vn 0.235714749 0.733645916 0.63733995
vn 0.15170373 0.641915619 0.751618505
vn 0.0645028874 0.606927097 0.792135537
vn 0.333383441 0.767261863 0.547872901
vn 0.217193216 0.698378146 0.681978762
vn 0.272713095 0.833039939 0.481323153
vn 0.124003381 0.845723033 0.51901418
vn 0.143899485 0.732397318 0.665497601
vn 0.0992975235 0.820479512 0.562986076
vn 0.118102461 0.79371655 0.59671247
vn 0.488923609 0.817039371 0.305614799
vn 0.44938159 0.839265585 0.306087464
vn 0.185801998 0.936910093 0.296103239
vn 0.0292010009 0.947132468 0.319511026
vn 0.556710541 0.805115283 0.20460391
vn 0.477690876 0.851383746 0.21669589
vn 0.223490342 0.947859049 0.227190226
vn 0.0213996321 0.962483466 0.270495385
vn 0.611667812 0.785558701 0.0935951099
vn 0.509104848 0.857208133 0.0775007755
vn 0.266289502 0.963761985 0.0158994142
vn 0.0118997945 0.993282855 0.115098044
vn -0.0253011063 0.981242836 0.191108391
vn -0.260710478 0.935337663 -0.239109561
vn 0.550795674 0.830093443 -0.0869992599
vn 0.270906717 0.959923923 -0.0718017444
vn -0.0555975325 0.973256826 -0.222890064
vn -0.247994497 0.861080945 -0.443890095
vn -0.37179926 0.715798557 -0.591098785
vn -0.35181427 0.823033333 -0.445918024
vn -0.307318211 0.636237741 -0.7076419
vn -0.592898548 -0.610698521 -0.524898767
vn -0.614086866 -0.437490642 -0.656885982
vn -0.611832201 -0.538228333 -0.579630494
vn -0.57650423 -0.636704624 -0.512103736
vn -0.574999332 -0.356499612 -0.736399233
vn -0.500006855 -0.654508948 -0.567107737
vn -0.50058794 -0.402390242 -0.766481519
vn -0.342901826 -0.779304206 -0.524502873
vn -0.370188832 -0.681779444 -0.630980968
vn -0.16920206 -0.929611325 -0.327404022
vn -0.482383341 -0.849970579 -0.211792693
vn -0.454793155 -0.870786965 -0.186797217
vn -0.323912114 -0.921634376 -0.213708013
vn -0.149205327 -0.964834452 -0.216407776
vn -0.0611012131 -0.986319482 -0.153103083
vn -0.0760981813 -0.993376136 -0.0860979706
vn -0.021200981 -0.99534595 -0.0940043777
vn -0.484598577 -0.872097373 -0.0678998381
vn -0.432010382 -0.901621699 -0.0211005472
vn -0.242594942 -0.968079865 -0.0629987344
vn -0.268589646 -0.962562919 0.0364985541
vn -0.0193990786 -0.999752402 -0.0108995242
vn 0.0284009129 -0.998032212 -0.0559018441
vn 0.0800979882 -0.984975338 0.152996123
vn 0.13680549 -0.987139463 0.0827032626
vn -0.51319927 -0.856698811 0.0518998951
vn -0.570406199 -0.82130897 -0.0094001377
vn -0.587788582 -0.777184904 0.224695593
vn -0.267210871 -0.943138361 0.197708011
vn -0.245284036 -0.891242027 0.38147518
vn 0.158197209 -0.964182973 0.212896183
vn 0.141202599 -0.988118052 0.0607010648
vn -0.651927412 -0.73863107 0.171507165
vn -0.641408086 -0.70300889 0.307203889
vn -0.666190743 -0.720590115 0.192197338
vn -0.0314002298 0.875606418 -0.48200351
vn 0.136900127 0.937200904 -0.320800245
vn 0.0891975686 0.927474737 -0.363090038
vn 0.0891043544 0.940145969 -0.328916043
vn 0.351020604 0.936354876 -0.00490024593
vn 0.311107934 0.950224221 -0.0169003885
vn 0.426489055 0.893577099 0.140096456
vn 0.372195274 0.91918838 0.128698409
vn 0.384519428 0.892144978 0.237112001
vn 0.411915153 0.874432027 0.25630942
vn -0.21229282 0.82687211 -0.520782411
vn -0.0942000523 0.945400536 -0.312000155
vn 0.112598844 0.993489921 0.0172998682
vn 0.159198508 0.973190844 0.165998489
vn 0.223991528 0.942564309 0.247790635
vn 0.227104753 0.883818567 0.409008592
vn 0.275097013 0.850290656 0.448695183
vn 0.255298883 0.843096375 0.473297983
vn -0.356502712 0.818506241 -0.450503409
vn -0.232404605 0.954018891 -0.189303696
vn -0.0687980801 0.992972076 0.0962973461
vn 0.00330003188 0.977609396 0.210402086
vn 0.05890055 0.959608912 0.275102586
vn 0.157897606 0.8861866 0.435593456
vn 0.207694411 0.782578945 0.586884201
vn -0.324393839 0.900982857 -0.288094461
vn -0.176203787 0.984321117 -0.00800012797
vn -0.0766023621 0.98333019 0.164905131
vn -0.0385004133 0.976510406 0.212002292
vn 0.01009998 0.969798207 0.24369961
vn 0.124795854 0.915869594 0.381587356
vn 0.207110986 0.844944775 0.493126184
vn 0.123093031 0.928747356 0.349680245
vn 0.175994426 0.804074526 0.567882061
vn 0.209706411 0.827825248 0.520315945
vn 0.373703152 -0.508704305 -0.775606692
vn 0.365204841 -0.666808844 -0.649608672
vn 0.342380792 -0.321481884 -0.882850409
vn 0.295209944 -0.764525831 -0.573019385
vn 0.368215472 -0.858836114 -0.356114984
vn 0.456228316 -0.768847644 -0.448027819
vn 0.490776062 -0.79326123 -0.360382408
vn 0.557582378 -0.808274448 -0.189194039
vn 0.333707809 -0.930921733 -0.148403525
vn 0.587705195 -0.803907096 -0.0913008377
vn 0.395608932 -0.571912885 -0.718616247
vn 0.267112225 -0.796236336 -0.542824864
vn 0.11570029 -0.955002367 -0.273100704
vn 0.0517023839 -0.990045607 -0.130906075
vn 0.367393464 -0.929483473 -0.032899458
vn 0.62188524 -0.783081353 -0.00649987999
vn 0.661724865 -0.652024508 0.37011382
vn 0.686077535 -0.549782038 0.476484418
vn 0.599123776 -0.42741698 0.677026868
vn 0.670102715 -0.443101883 0.595502436
vn 0.00820032414 -0.999339521 -0.0354014412
vn 0.0247997604 -0.981490552 0.189898103
vn 0.403989136 -0.854476988 0.326591104
vn 0.466009229 -0.659513175 0.589811683
vn -0.0423983335 -0.995860815 0.0803968012
vn -0.117900364 -0.941203058 0.316600978
vn 0.0501995981 -0.886292994 0.46039626
vn -0.480199993 -0.870899916 -0.104600035
vn -0.48012808 -0.870950937 -0.104506157
vn -0.307893455 -0.940779924 -0.141897008
vn -0.512790263 -0.848583877 -0.130197555
vn -0.377793789 -0.913984954 -0.147997618
vn -0.529575586 -0.839761257 -0.119794518
vn -0.575609982 -0.81061393 -0.107601888
vn -0.324394912 -0.932785273 -0.157097593
vn -0.623276114 -0.77417028 -0.110395789
vn -0.227599964 -0.956499815 -0.18250002
vn 0.284701109 -0.945903599 -0.155600637
vn 0.324509412 -0.932027042 -0.161304712
vn 0.343894213 -0.923084497 -0.172197148
vn 0.623276114 -0.77417028 -0.110395789
vn 0.575609982 -0.81061393 -0.107601888
vn 0.529575586 -0.839761257 -0.119794518
vn 0.504687905 -0.854379475 -0.123797074
vn 0.347190499 -0.926874578 -0.142696127
vn 0.480199993 -0.870899916 -0.104600035
vn 0 -0.173602805 0.984815657
vn 0.470813662 0.231106728 -0.851424754
vn 0.452817321 0.339513034 -0.824431539
vn 0.482799023 0.119799793 -0.867498219
vn -0.124795854 0.915869594 0.381587356
vn -0.207110986 0.844944775 0.493126184
vn -0.123093031 0.928747356 0.349680245
vn -0.157897606 0.8861866 0.435593456
vn -0.207694411 0.782578945 0.586884201
vn -0.227104753 0.883818567 0.409008592
vn -0.275097013 0.850290656 0.448695183
vn -0.175994426 0.804074526 0.567882061
vn -0.255298883 0.843096375 0.473297983
vn -0.209706411 0.827825248 0.520315945
vn -0.01009998 0.969798207 0.24369961
vn -0.05890055 0.959608912 0.275102586
vn -0.223991528 0.942564309 0.247790635
vn -0.384519428 0.892144978 0.237112001
vn -0.411915153 0.874432027 0.25630942
vn 0.0385004133 0.976510406 0.212002292
vn -0.00330003188 0.977609396 0.210402086
vn -0.159198508 0.973190844 0.165998489
vn -0.372195274 0.91918838 0.128698409
vn -0.426489055 0.893577099 0.140096456
vn 0.0766023621 0.98333019 0.164905131
vn 0.0687980801 0.992972076 0.0962973461
vn -0.112598844 0.993489921 0.0172998682
vn -0.311107934 0.950224221 -0.0169003885
vn -0.351020604 0.936354876 -0.00490024593
vn -0.0891043544 0.940145969 -0.328916043
vn -0.136900127 0.937200904 -0.320800245
vn 0.176203787 0.984321117 -0.00800012797
vn 0.232404605 0.954018891 -0.189303696
vn 0.0942000523 0.945400536 -0.312000155
vn 0.21229282 0.82687211 -0.520782411
vn 0.0314002298 0.875606418 -0.48200351
vn -0.0891975686 0.927474737 -0.363090038
vn 0.324393839 0.900982857 -0.288094461
vn 0.356502712 0.818506241 -0.450503409
vn -0.975773752 0.135596335 0.171695396
vn -0.994190454 -0.0186998229 0.105998978
vn -0.929596066 0.285998791 0.232499018
vn -0.599123776 -0.42741698 0.677026868
vn -0.686077535 -0.549782038 0.476484418
vn -0.670102715 -0.443101883 0.595502436
vn -0.661724865 -0.652024508 0.37011382
vn -0.62188524 -0.783081353 -0.00649987999
vn -0.367393464 -0.929483473 -0.032899458
vn -0.587705195 -0.803907096 -0.0913008377
vn -0.333707809 -0.930921733 -0.148403525
vn -0.557582378 -0.808274448 -0.189194039
vn -0.466009229 -0.659513175 0.589811683
vn -0.403989136 -0.854476988 0.326591104
vn -0.0247997604 -0.981490552 0.189898103
vn -0.00820032414 -0.999339521 -0.0354014412
vn -0.0517023839 -0.990045607 -0.130906075
vn -0.11570029 -0.955002367 -0.273100704
vn -0.368215472 -0.858836114 -0.356114984
vn -0.490776062 -0.79326123 -0.360382408
vn -0.0501995981 -0.886292994 0.46039626
vn 0.117900364 -0.941203058 0.316600978
vn 0.0423983335 -0.995860815 0.0803968012
vn -0.456228316 -0.768847644 -0.448027819
vn -0.365204841 -0.666808844 -0.649608672
vn -0.295209944 -0.764525831 -0.573019385
vn -0.373703152 -0.508704305 -0.775606692
vn -0.342380792 -0.321481884 -0.882850409
vn -0.267112225 -0.796236336 -0.542824864
vn -0.395608932 -0.571912885 -0.718616247
vn -0.0992975235 0.820479512 0.562986076
vn -0.143899485 0.732397318 0.665497601
vn -0.118102461 0.79371655 0.59671247
vn -0.124003381 0.845723033 0.51901418
vn -0.217193216 0.698378146 0.681978762
vn -0.272713095 0.833039939 0.481323153
vn -0.333383441 0.767261863 0.547872901
vn -0.15170373 0.641915619 0.751618505
vn -0.235714749 0.733645916 0.63733995
vn -0.0645028874 0.606927097 0.792135537
vn -0.0292010009 0.947132468 0.319511026
vn -0.185801998 0.936910093 0.296103239
vn -0.44938159 0.839265585 0.306087464
vn -0.488923609 0.817039371 0.305614799
vn -0.0213996321 0.962483466 0.270495385
vn -0.223490342 0.947859049 0.227190226
vn -0.477690876 0.851383746 0.21669589
vn -0.556710541 0.805115283 0.20460391
vn -0.0147998622 0.995290697 0.0957991555
vn -0.311093867 0.949981213 0.0274994988
vn -0.509104848 0.857208133 0.0775007755
vn -0.611667812 0.785558701 0.0935951099
vn 0.0253011063 0.981242836 0.191108391
vn 0.260710478 0.935337663 -0.239109561
vn 0.247994497 0.861080945 -0.443890095
vn 0.0873987526 0.954386413 -0.285495877
vn -0.189199522 0.980097592 -0.0600998104
vn -0.550795674 0.830093443 -0.0869992599
vn 0.37179926 0.715798557 -0.591098785
vn 0.307318211 0.636237741 -0.7076419
vn 0.35181427 0.823033333 -0.445918024
vn -0.891039252 0.305413514 -0.335814804
vn -0.843684077 0.286194593 -0.454191387
vn -0.895417511 0.298205882 -0.33060649
vn -0.753095388 0.276698321 -0.59689641
vn -0.580605328 0.222802088 -0.783107102
vn -0.350386351 0.207791954 -0.913264394
vn -0.133695304 0.172094002 -0.975965798
vn 0.263401926 0.201501518 -0.94340688
vn 0.201001912 0.170101643 -0.964709044
vn 0.580605328 0.222802088 -0.783107102
vn 0.753095388 0.276698321 -0.59689641
vn 0.843684077 0.286194593 -0.454191387
vn 0.891039252 0.305413514 -0.335814804
vn 0.895417511 0.298205882 -0.33060649
vn 0.850244284 0.265082598 0.454770207
vn 0.882073283 0.44138664 0.164695039
vn 0.882112265 0.441306144 0.164702311
vn 0.783216178 0.345807135 0.516710639
vn 0.714701414 0.0519000776 0.697501481
vn 0.819763839 -0.0995956287 0.563975096
vn 0 0.501095355 0.865392029
vn 0 -0.338995695 0.940787971
vn 0.985943496 -0.16390723 -0.0324014388
vn 0.982320666 -0.183203861 -0.0385008231
vn 0.972866416 -0.228192136 -0.0381986946
vn 0.993213594 -0.111901537 -0.0317004398
vn 0.995982349 -0.0865984634 -0.0227995981
vn 0.996234894 -0.0866030306 -0.00400014408
vn 0.995534837 -0.0936032757 0.0122004217
vn 0.991476476 -0.125097036 0.0363991335
vn 0.614086866 -0.437490642 -0.656885982
vn 0.592898548 -0.610698521 -0.524898767
vn 0.611832201 -0.538228333 -0.579630494
vn 0.57650423 -0.636704624 -0.512103736
vn 0.482383341 -0.849970579 -0.211792693
vn 0.454793155 -0.870786965 -0.186797217
vn 0.484598577 -0.872097373 -0.0678998381
vn 0.432010382 -0.901621699 -0.0211005472
vn 0.51319927 -0.856698811 0.0518998951
vn 0.570406199 -0.82130897 -0.0094001377
vn 0.574999332 -0.356499612 -0.736399233
vn 0.500006855 -0.654508948 -0.567107737
vn 0.323912114 -0.921634376 -0.213708013
vn 0.242594942 -0.968079865 -0.0629987344
vn 0.268589646 -0.962562919 0.0364985541
vn 0.267210871 -0.943138361 0.197708011
vn 0.587788582 -0.777184904 0.224695593
vn 0.651927412 -0.73863107 0.171507165
vn 0.50058794 -0.402390242 -0.766481519
vn 0.342901826 -0.779304206 -0.524502873
vn 0.149205327 -0.964834452 -0.216407776
vn 0.0760981813 -0.993376136 -0.0860979706
vn 0.0193990786 -0.999752402 -0.0108995242
vn -0.0800979882 -0.984975338 0.152996123
vn 0.245284036 -0.891242027 0.38147518
vn 0.370188832 -0.681779444 -0.630980968
vn 0.16920206 -0.929611325 -0.327404022
vn 0.0611012131 -0.986319482 -0.153103083
vn 0.021200981 -0.99534595 -0.0940043777
vn -0.0284009129 -0.998032212 -0.0559018441
vn -0.13680549 -0.987139463 0.0827032626
vn -0.158197209 -0.964182973 0.212896183
vn -0.141202599 -0.988118052 0.0607010648
vn 0.641408086 -0.70300889 0.307203889
vn 0.666190743 -0.720590115 0.192197338
vn -0.882073283 0.44138664 0.164695039
vn -0.850244284 0.265082598 0.454770207
vn -0.882112265 0.441306144 0.164702311
vn -0.783216178 0.345807135 0.516710639
vn -0.714701414 0.0519000776 0.697501481
vn -0.819763839 -0.0995956287 0.563975096
vn 0.975773752 0.135596335 0.171695396
vn 0.994190454 -0.0186998229 0.105998978
vn 0.929596066 0.285998791 0.232499018
vn 0 -0.998281598 0.0585988797
vn 0 -0.964437723 -0.26431039
vn 0 -0.892922044 -0.450211138
vn 0 -0.932328939 -0.361611277
vn 0 -0.914313853 -0.40500617
vn 0 -0.847233355 -0.531220973
vn -0.861856997 -0.0949952826 0.498175174
vn -0.862292767 -0.0945992246 0.49749583
vn -0.86192441 -0.0947027057 0.498114169
vn -0.861711383 -0.0951012895 0.498406619
vn -0.861713231 -0.0956014991 0.498307705
vn -0.861693025 -0.0947992578 0.498495966
vn -0.861589491 -0.0946988687 0.498693854
vn -0.861597657 -0.0945997685 0.498698592
vn -0.861668468 -0.095096536 0.49848178
vn -0.861818731 -0.0941020623 0.498410821
vn -0.861704528 -0.0936005116 0.498702615
vn -0.862004459 -0.0935005099 0.498202562
vn 0.797100604 -0.594200492 -0.107500099
vn 0.79670912 -0.595206797 -0.104801215
vn 0.799294233 -0.591695726 -0.104999274
vn 0.801748633 -0.588435709 -0.104606368
vn 0.812477231 -0.574883878 -0.0968973041
vn 0.820920944 -0.563614309 -0.0918023586
vn 0.838507891 -0.539205074 -0.07850077
vn 0.84768188 -0.525388718 -0.0734984502
vn 0.858787954 -0.508292973 -0.0641991198
vn 0.860913277 -0.504607797 -0.0648010299
vn 0.862998009 -0.501498878 -0.0610998794
vn 0.863022923 -0.500913262 -0.0654017553
vn -0.918901145 -0.0679001063 0.388600439
vn -0.918953776 -0.068204008 0.388422698
vn -0.918994367 -0.067799598 0.388397574
vn -0.91418767 -0.0705990717 0.399094611
vn -0.909398019 -0.0733998641 0.409399152
vn -0.891771674 -0.0803974643 0.445285857
vn -0.878560305 -0.08679609 0.469678789
vn -0.858963788 -0.0942960456 0.503278852
vn -0.852934241 -0.0965038911 0.513020635
vn -0.846590579 -0.0971989408 0.523294151
vn -0.846123397 -0.0963026881 0.524214566
vn -0.846006274 -0.0963007361 0.52440393
vn 0.862292767 -0.0945992246 0.49749583
vn 0.861856997 -0.0949952826 0.498175174
vn 0.86192441 -0.0947027057 0.498114169
vn 0.861711383 -0.0951012895 0.498406619
vn 0.861713231 -0.0956014991 0.498307705
vn 0.861693025 -0.0947992578 0.498495966
vn 0.861589491 -0.0946988687 0.498693854
vn 0.861597657 -0.0945997685 0.498698592
vn 0.861668468 -0.095096536 0.49848178
vn 0.861818731 -0.0941020623 0.498410821
vn 0.861704528 -0.0936005116 0.498702615
vn 0.862004459 -0.0935005099 0.498202562
vn -0.79670912 -0.595206797 -0.104801215
vn -0.797100604 -0.594200492 -0.107500099
vn -0.799294233 -0.591695726 -0.104999274
vn -0.801748633 -0.588435709 -0.104606368
vn -0.812477231 -0.574883878 -0.0968973041
vn -0.820920944 -0.563614309 -0.0918023586
vn -0.838507891 -0.539205074 -0.07850077
vn -0.84768188 -0.525388718 -0.0734984502
vn -0.858787954 -0.508292973 -0.0641991198
vn -0.860913277 -0.504607797 -0.0648010299
vn -0.862998009 -0.501498878 -0.0610998794
vn -0.863022923 -0.500913262 -0.0654017553
vn 0.918953776 -0.068204008 0.388422698
vn 0.918901145 -0.0679001063 0.388600439
vn 0.918994367 -0.067799598 0.388397574
vn 0.91418767 -0.0705990717 0.399094611
vn 0.909398019 -0.0733998641 0.409399152
vn 0.891771674 -0.0803974643 0.445285857
vn 0.878560305 -0.08679609 0.469678789
vn 0.855890393 -0.0947989523 0.508394301
vn 0.855672896 -0.0967969373 0.50838387
vn 0.846663117 -0.0971957892 0.523177207
vn 0.846825838 -0.096102953 0.523115933
vn 0.846006274 -0.0963007361 0.52440393
vn -0.63551873 0.768022597 0.0791023597
vn -0.371409744 0.911323905 0.177604705
vn -0.723211527 0.687210977 0.068601124
vn -0.387189448 0.907675147 0.161895618
vn 0.291904837 0.940615594 0.173302889
vn 0.371486187 0.910266221 0.182793275
vn -0.262010664 0.9365381 0.23290953
vn -0.541393936 0.832390666 0.118398704
vn -0.52551955 0.838931203 0.141505301
vn -0.233598828 0.958995104 0.160499245
vn 0.326798916 0.932196915 0.155599535
vn 0.52551955 0.838931203 0.141505301
vn 0.541393936 0.832390666 0.118398704
vn 0.63551873 0.768022597 0.0791023597
vn -0.522811294 0.84131813 0.13730298
vn -0.268001288 0.950704455 0.156000778
vn 0.17789717 0.971184492 0.158597514
vn 0.522811294 0.84131813 0.13730298
vn 0.723211527 0.687210977 0.068601124
vn 0.397102237 0.89160496 0.217601255

# Mesh 'PipelineFBX' with 494 faces
g PipelineFBX
usemtl DefaultMaterial
f  1/1/1 2/2/1 3/3/2
f  4/2/1 5/1/1 6/4/3
f  7/5/4 8/6/5 9/7/6
f  10/6/5 11/5/4 12/8/7
f  13/8/7 14/9/8 15/6/5
f  16/9/8 17/8/7 18/10/9
f  19/10/9 20/11/10 21/9/8
f  22/11/10 23/10/9 24/12/11
f  25/13/12 26/14/13 27/15/14
f  28/14/13 29/13/12 30/16/15
f  31/16/15 32/17/16 33/14/13
f  34/17/16 35/16/15 36/18/17
f  37/19/18 38/17/16 39/18/17
f  40/17/16 41/19/18 42/20/19
f  43/21/20 44/20/19 45/19/18
f  46/20/19 47/21/20 48/22/21
f  49/23/22 50/16/15 51/13/12
f  52/16/15 53/23/22 54/24/23
f  55/24/23 56/18/17 57/16/15
f  58/18/17 59/24/23 60/25/24
f  61/18/17 62/25/24 63/19/18
f  64/26/25 65/19/18 66/25/24
f  67/19/18 68/26/25 69/21/20
f  70/27/26 71/24/23 72/23/22
f  73/24/23 74/27/26 75/28/27
f  76/28/27 77/25/24 78/24/23
f  79/25/24 80/28/27 81/29/28
f  82/30/29 83/25/24 84/29/28
f  85/25/24 86/30/29 87/26/25
f  88/31/30 89/28/27 90/27/26
f  91/28/27 92/31/30 93/32/31
f  94/28/27 95/32/31 96/29/28
f  97/32/31 98/33/32 99/29/28
f  100/33/32 101/34/33 102/29/28
f  103/34/33 104/30/29 105/29/28
f  106/30/29 107/34/33 108/35/34
f  109/34/33 110/36/35 111/35/34
f  112/37/36 113/32/31 114/31/30
f  115/37/36 116/33/32 117/32/31
f  118/33/32 119/37/36 120/38/37
f  121/33/32 122/38/37 123/39/38
f  124/39/38 125/34/33 126/33/32
f  127/34/33 128/39/38 129/40/39
f  130/36/35 131/34/33 132/40/39
f  133/41/40 134/36/35 135/40/39
f  136/36/35 137/41/40 138/42/41
f  139/43/42 140/40/39 141/39/38
f  142/40/39 143/43/42 144/41/40
f  145/44/43 146/45/44 147/46/45
f  148/45/44 149/44/43 150/47/46
f  151/47/46 152/48/47 153/45/44
f  154/48/47 155/47/46 156/49/48
f  157/49/48 158/50/49 159/48/47
f  160/50/49 161/49/48 162/51/50
f  163/51/50 164/52/51 165/50/49
f  166/52/51 167/51/50 168/53/52
f  169/54/53 170/47/46 171/44/43
f  172/47/46 173/54/53 174/55/54
f  175/55/54 176/49/48 177/47/46
f  178/49/48 179/55/54 180/56/55
f  181/56/55 182/51/50 183/49/48
f  184/51/50 185/56/55 186/57/56
f  187/57/56 188/53/52 189/51/50
f  190/53/52 191/57/56 192/58/57
f  193/59/58 194/58/57 195/57/56
f  196/58/57 197/59/58 198/60/59
f  199/61/60 200/55/54 201/54/53
f  202/55/54 203/61/60 204/62/61
f  205/62/61 206/56/55 207/55/54
f  208/56/55 209/62/61 210/63/62
f  211/63/62 212/57/56 213/56/55
f  214/57/56 215/63/62 216/59/58
f  217/64/63 218/59/58 219/63/62
f  220/59/58 221/64/63 222/65/64
f  223/65/64 224/60/59 225/59/58
f  226/60/59 227/65/64 228/66/65
f  229/67/66 230/66/65 231/65/64
f  232/66/65 233/67/66 234/68/67
f  235/61/60 236/69/68 237/62/61
f  238/64/63 239/62/61 240/69/68
f  241/62/61 242/64/63 243/63/62
f  244/69/68 245/61/60 246/70/69
f  247/70/69 248/71/70 249/69/68
f  250/72/71 251/69/68 252/71/70
f  253/69/68 254/72/71 255/64/63
f  256/72/71 257/65/64 258/64/63
f  259/65/64 260/72/71 261/67/66
f  262/73/72 263/67/66 264/72/71
f  265/67/66 266/73/72 267/74/73
f  268/74/73 269/68/67 270/67/66
f  271/68/67 272/74/73 273/75/74
f  274/71/70 275/70/69 276/76/75
f  277/76/75 278/77/76 279/71/70
f  280/73/72 281/71/70 282/77/76
f  283/71/70 284/73/72 285/72/71
f  286/77/76 287/76/75 288/78/77
f  289/79/78 290/80/79 291/81/80
f  292/80/79 293/79/78 294/82/81
f  295/82/81 296/83/82 297/80/79
f  298/83/82 299/82/81 300/84/83
f  301/84/83 302/85/84 303/83/82
f  304/85/84 305/84/83 306/86/85
f  307/87/86 308/85/84 309/86/85
f  310/85/84 311/87/86 312/88/87
f  313/89/88 314/82/81 315/79/78
f  316/82/81 317/89/88 318/90/89
f  319/90/89 320/84/83 321/82/81
f  322/84/83 323/90/89 324/91/90
f  325/91/90 326/86/85 327/84/83
f  328/86/85 329/91/90 330/92/91
f  331/93/92 332/86/85 333/92/91
f  334/86/85 335/93/92 336/87/86
f  337/94/93 338/87/86 339/93/92
f  340/87/86 341/94/93 342/95/94
f  343/95/94 344/88/87 345/87/86
f  346/88/87 347/95/94 348/96/95
f  349/97/96 350/90/89 351/89/88
f  352/90/89 353/97/96 354/98/97
f  355/98/97 356/91/90 357/90/89
f  358/91/90 359/98/97 360/99/98
f  361/99/98 362/92/91 363/91/90
f  364/92/91 365/99/98 366/100/99
f  367/100/99 368/93/92 369/92/91
f  370/93/92 371/100/99 372/101/100
f  373/101/100 374/94/93 375/93/92
f  376/94/93 377/101/100 378/102/101
f  379/102/101 380/103/102 381/94/93
f  382/103/102 383/95/94 384/94/93
f  385/104/103 386/98/97 387/97/96
f  388/98/97 389/104/103 390/105/104
f  391/105/104 392/99/98 393/98/97
f  394/99/98 395/105/104 396/106/105
f  397/106/105 398/100/99 399/99/98
f  400/100/99 401/106/105 402/107/106
f  403/107/106 404/101/100 405/100/99
f  406/101/100 407/107/106 408/108/107
f  409/108/107 410/102/101 411/101/100
f  412/102/101 413/108/107 414/109/108
f  415/109/108 416/110/109 417/102/101
f  418/103/102 419/102/101 420/110/109
f  421/110/109 422/109/108 423/111/110
f  424/95/94 425/103/102 426/112/111
f  427/112/111 428/96/95 429/95/94
f  430/96/95 431/112/111 432/113/112
f  433/114/113 434/115/114 435/116/115
f  436/115/114 437/114/113 438/117/116
f  439/115/114 440/117/116 441/118/117
f  442/118/117 443/119/118 444/115/114
f  445/118/117 446/120/119 447/119/118
f  448/120/119 449/118/117 450/121/120
f  451/122/121 452/121/120 453/118/117
f  454/121/120 455/122/121 456/123/122
f  457/124/123 458/117/116 459/114/113
f  460/117/116 461/124/123 462/125/124
f  463/126/125 464/117/116 465/125/124
f  466/117/116 467/126/125 468/118/117
f  469/126/125 470/122/121 471/118/117
f  472/122/121 473/126/125 474/127/126
f  475/127/126 476/128/127 477/122/121
f  478/128/127 479/123/122 480/122/121
f  481/123/122 482/128/127 483/129/128
f  484/130/129 485/129/128 486/128/127
f  487/129/128 488/130/129 489/131/130
f  490/132/131 491/131/130 492/130/129
f  493/131/130 494/132/131 495/133/132
f  496/128/127 497/127/126 498/134/133
f  499/134/133 500/135/134 501/128/127
f  502/136/135 503/128/127 504/135/134
f  505/130/129 506/128/127 507/136/135
f  508/137/136 509/130/129 510/136/135
f  511/130/129 512/137/136 513/132/131
f  514/135/134 515/134/133 516/138/137
f  517/139/138 518/135/134 519/138/137
f  520/135/134 521/139/138 522/140/139
f  523/140/139 524/136/135 525/135/134
f  526/136/135 527/140/139 528/137/136
f  529/141/140 530/142/141 531/143/142
f  532/143/142 533/144/143 534/141/140
f  535/144/143 536/143/142 537/145/144
f  538/145/144 539/146/145 540/144/143
f  541/145/144 542/147/146 543/146/145
f  544/147/146 545/145/144 546/148/147
f  547/148/147 548/149/148 549/147/146
f  550/149/148 551/148/147 552/150/149
f  553/143/142 554/151/150 555/145/144
f  556/151/150 557/148/147 558/145/144
f  559/148/147 560/151/150 561/152/151
f  562/152/151 563/150/149 564/148/147
f  565/150/149 566/152/151 567/153/152
f  568/152/151 569/154/153 570/153/152
f  571/155/154 572/154/153 573/152/151
f  574/151/150 575/155/154 576/152/151
f  577/155/154 578/151/150 579/156/155
f  580/151/150 581/157/156 582/156/155
f  583/151/150 584/143/142 585/158/157
f  586/158/157 587/157/156 588/151/150
f  589/157/156 590/158/157 591/159/158
f  592/159/158 593/160/158 594/157/156
f  595/161/159 596/162/159 597/163/159
f  598/162/159 599/161/159 600/164/159
f  601/2/160 602/1/160 603/3/161
f  604/1/160 605/2/160 606/4/162
f  607/109/163 608/110/164 609/111/165
f  610/110/164 611/109/163 612/102/166
f  613/102/166 614/103/167 615/110/164
f  616/103/167 617/102/166 618/94/168
f  619/95/169 620/103/167 621/94/168
f  622/103/167 623/95/169 624/112/170
f  625/96/171 626/112/170 627/95/169
f  628/112/170 629/96/171 630/113/172
f  631/108/173 632/102/166 633/109/163
f  634/102/166 635/108/173 636/101/174
f  637/101/174 638/94/168 639/102/166
f  640/94/168 641/101/174 642/93/175
f  643/87/176 644/94/168 645/93/175
f  646/94/168 647/87/176 648/95/169
f  649/88/177 650/95/169 651/87/176
f  652/95/169 653/88/177 654/96/171
f  655/107/178 656/101/174 657/108/173
f  658/101/174 659/107/178 660/100/179
f  661/100/179 662/93/175 663/101/174
f  664/93/175 665/100/179 666/92/180
f  667/86/181 668/93/175 669/92/180
f  670/93/175 671/86/181 672/87/176
f  673/85/182 674/87/176 675/86/181
f  676/87/176 677/85/182 678/88/177
f  679/106/183 680/100/179 681/107/178
f  682/100/179 683/106/183 684/99/184
f  685/99/184 686/92/180 687/100/179
f  688/92/180 689/99/184 690/91/185
f  691/91/185 692/86/181 693/92/180
f  694/86/181 695/91/185 696/84/186
f  697/84/186 698/85/182 699/86/181
f  700/85/182 701/84/186 702/83/187
f  703/82/188 704/83/187 705/84/186
f  706/83/187 707/82/188 708/80/189
f  709/105/190 710/99/184 711/106/183
f  712/99/184 713/105/190 714/98/191
f  715/98/191 716/91/185 717/99/184
f  718/91/185 719/98/191 720/90/192
f  721/90/192 722/84/186 723/91/185
f  724/84/186 725/90/192 726/82/188
f  727/89/193 728/82/188 729/90/192
f  730/82/188 731/89/193 732/79/194
f  733/79/194 734/80/189 735/82/188
f  736/80/189 737/79/194 738/81/195
f  739/104/196 740/98/191 741/105/190
f  742/98/191 743/104/196 744/97/197
f  745/97/197 746/90/192 747/98/191
f  748/90/192 749/97/197 750/89/193
f  751/165/198 752/166/198 753/167/199
f  754/166/198 755/165/198 756/168/200
f  757/132/201 758/131/202 759/133/203
f  760/131/202 761/132/201 762/130/204
f  763/130/204 764/129/205 765/131/202
f  766/129/205 767/130/204 768/128/206
f  769/128/206 770/123/207 771/129/205
f  772/123/207 773/128/206 774/122/208
f  775/122/208 776/121/209 777/123/207
f  778/137/210 779/130/204 780/132/201
f  781/130/204 782/137/210 783/136/211
f  784/128/206 785/130/204 786/136/211
f  787/128/206 788/136/211 789/135/212
f  790/135/212 791/134/213 792/128/206
f  793/127/214 794/128/206 795/134/213
f  796/128/206 797/127/214 798/122/208
f  799/126/215 800/122/208 801/127/214
f  802/122/208 803/126/215 804/118/216
f  805/121/209 806/122/208 807/118/216
f  808/118/216 809/120/217 810/121/209
f  811/140/218 812/136/211 813/137/210
f  814/136/211 815/140/218 816/135/212
f  817/139/219 818/135/212 819/140/218
f  820/135/212 821/139/219 822/138/220
f  823/134/213 824/135/212 825/138/220
f  826/120/217 827/118/216 828/119/221
f  829/119/221 830/118/216 831/115/222
f  832/117/223 833/115/222 834/118/216
f  835/114/224 836/115/222 837/117/223
f  838/115/222 839/114/224 840/116/225
f  841/126/215 842/117/223 843/118/216
f  844/117/223 845/126/215 846/125/226
f  847/124/227 848/117/223 849/125/226
f  850/117/223 851/124/227 852/114/224
f  853/21/228 854/20/229 855/22/230
f  856/20/229 857/21/228 858/19/231
f  859/19/231 860/17/232 861/20/229
f  862/17/232 863/19/231 864/18/233
f  865/16/234 866/17/232 867/18/233
f  868/17/232 869/16/234 870/14/235
f  871/13/236 872/14/235 873/16/234
f  874/14/235 875/13/236 876/15/237
f  877/26/238 878/19/231 879/21/228
f  880/19/231 881/26/238 882/25/239
f  883/25/239 884/18/233 885/19/231
f  886/24/240 887/18/233 888/25/239
f  889/18/233 890/24/240 891/16/234
f  892/23/241 893/16/234 894/24/240
f  895/16/234 896/23/241 897/13/236
f  898/30/242 899/25/239 900/26/238
f  901/25/239 902/30/242 903/29/243
f  904/28/244 905/25/239 906/29/243
f  907/25/239 908/28/244 909/24/240
f  910/27/245 911/24/240 912/28/244
f  913/24/240 914/27/245 915/23/241
f  916/30/242 917/34/246 918/29/243
f  919/34/246 920/33/247 921/29/243
f  922/33/247 923/32/248 924/29/243
f  925/32/248 926/28/244 927/29/243
f  928/31/249 929/28/244 930/32/248
f  931/28/244 932/31/249 933/27/245
f  934/34/246 935/30/242 936/35/250
f  937/36/251 938/34/246 939/35/250
f  940/34/246 941/36/251 942/40/252
f  943/39/253 944/34/246 945/40/252
f  946/34/246 947/39/253 948/38/254
f  949/38/254 950/33/247 951/34/246
f  952/37/255 953/33/247 954/38/254
f  955/33/247 956/37/255 957/32/248
f  958/32/248 959/37/255 960/31/249
f  961/36/251 962/41/256 963/40/252
f  964/43/257 965/40/252 966/41/256
f  967/40/252 968/43/257 969/39/253
f  970/41/256 971/36/251 972/42/258
f  973/169/259 974/170/260 975/171/261
f  976/170/260 977/169/259 978/172/262
f  979/172/262 980/173/263 981/170/260
f  982/173/263 983/172/262 984/174/264
f  985/175/265 986/173/263 987/174/264
f  988/176/266 989/175/265 990/174/264
f  991/175/265 992/176/266 993/177/267
f  994/176/266 995/178/268 996/177/267
f  997/179/269 998/178/268 999/176/266
f  1000/178/268 1001/179/269 1002/180/270
f  1003/181/271 1004/180/270 1005/179/269
f  1006/180/270 1007/181/271 1008/182/272
f  1009/183/273 1010/184/274 1011/185/275
f  1012/184/274 1013/183/273 1014/186/276
f  1015/183/273 1016/187/277 1017/186/276
f  1018/187/277 1019/183/273 1020/188/278
f  1021/189/279 1022/190/280 1023/191/280
f  1024/190/280 1025/189/279 1026/192/279
f  1027/10/281 1028/11/282 1029/12/283
f  1030/11/282 1031/10/281 1032/9/284
f  1033/8/285 1034/9/284 1035/10/281
f  1036/9/284 1037/8/285 1038/6/286
f  1039/5/287 1040/6/286 1041/8/285
f  1042/6/286 1043/5/287 1044/7/288
f  1045/45/289 1046/44/290 1047/46/291
f  1048/44/290 1049/45/289 1050/47/292
f  1051/47/292 1052/54/293 1053/44/290
f  1054/54/293 1055/47/292 1056/55/294
f  1057/55/294 1058/61/295 1059/54/293
f  1060/61/295 1061/55/294 1062/62/296
f  1063/69/297 1064/61/295 1065/62/296
f  1066/61/295 1067/69/297 1068/70/298
f  1069/48/299 1070/47/292 1071/45/289
f  1072/47/292 1073/48/299 1074/49/300
f  1075/49/300 1076/55/294 1077/47/292
f  1078/55/294 1079/49/300 1080/56/301
f  1081/56/301 1082/62/296 1083/55/294
f  1084/62/296 1085/56/301 1086/63/302
f  1087/64/303 1088/62/296 1089/63/302
f  1090/62/296 1091/64/303 1092/69/297
f  1093/72/304 1094/69/297 1095/64/303
f  1096/69/297 1097/72/304 1098/71/305
f  1099/71/305 1100/70/298 1101/69/297
f  1102/70/298 1103/71/305 1104/76/306
f  1105/50/307 1106/49/300 1107/48/299
f  1108/49/300 1109/50/307 1110/51/308
f  1111/51/308 1112/56/301 1113/49/300
f  1114/56/301 1115/51/308 1116/57/309
f  1117/57/309 1118/63/302 1119/56/301
f  1120/63/302 1121/57/309 1122/59/310
f  1123/59/310 1124/64/303 1125/63/302
f  1126/64/303 1127/59/310 1128/65/311
f  1129/65/311 1130/72/304 1131/64/303
f  1132/72/304 1133/65/311 1134/67/312
f  1135/67/312 1136/73/313 1137/72/304
f  1138/73/313 1139/71/305 1140/72/304
f  1141/52/314 1142/51/308 1143/50/307
f  1144/51/308 1145/52/314 1146/53/315
f  1147/53/315 1148/57/309 1149/51/308
f  1150/57/309 1151/53/315 1152/58/316
f  1153/58/316 1154/59/310 1155/57/309
f  1156/59/310 1157/58/316 1158/60/317
f  1159/60/317 1160/65/311 1161/59/310
f  1162/65/311 1163/60/317 1164/66/318
f  1165/66/318 1166/67/312 1167/65/311
f  1168/67/312 1169/66/318 1170/68/319
f  1171/68/319 1172/74/320 1173/67/312
f  1174/73/313 1175/67/312 1176/74/320
f  1177/74/320 1178/68/319 1179/75/321
f  1180/71/305 1181/73/313 1182/77/322
f  1183/77/322 1184/76/306 1185/71/305
f  1186/76/306 1187/77/322 1188/78/323
f  1189/184/324 1190/183/325 1191/185/326
f  1192/183/325 1193/184/324 1194/186/327
f  1195/187/328 1196/183/325 1197/186/327
f  1198/183/325 1199/187/328 1200/188/329
f  1201/166/330 1202/165/330 1203/167/331
f  1204/165/330 1205/166/330 1206/168/332
f  1207/190/280 1208/193/333 1209/191/280
f  1210/193/333 1211/190/280 1212/194/334
f  1213/194/334 1214/195/335 1215/193/333
f  1216/195/335 1217/194/334 1218/196/336
f  1219/196/336 1220/197/337 1221/195/335
f  1222/197/337 1223/196/336 1224/198/337
f  1225/199/338 1226/197/337 1227/198/337
f  1228/197/337 1229/199/338 1230/200/338
f  1231/201/339 1232/202/340 1233/203/341
f  1234/204/342 1235/201/339 1236/203/341
f  1237/201/339 1238/204/342 1239/205/343
f  1240/204/342 1241/206/344 1242/205/343
f  1243/206/344 1244/204/342 1245/207/345
f  1246/207/345 1247/208/346 1248/206/344
f  1249/208/346 1250/207/345 1251/209/347
f  1252/210/348 1253/208/346 1254/209/347
f  1255/208/346 1256/210/348 1257/211/349
f  1258/210/348 1259/212/350 1260/211/349
f  1261/213/351 1262/214/352 1263/215/353
f  1264/215/353 1265/216/354 1266/213/351
f  1267/216/354 1268/215/353 1269/217/355
f  1270/217/355 1271/218/356 1272/216/354
f  1273/218/356 1274/217/355 1275/219/357
f  1276/219/357 1277/220/358 1278/218/356
f  1279/220/358 1280/219/357 1281/221/359
f  1282/221/359 1283/222/360 1284/220/358
f  1285/222/360 1286/221/359 1287/223/361
f  1288/223/361 1289/224/362 1290/222/360
f  1291/225/363 1292/226/364 1293/227/365
f  1294/228/366 1295/226/364 1296/225/363
f  1297/226/364 1298/228/366 1299/229/367
f  1300/230/368 1301/229/367 1302/228/366
f  1303/229/367 1304/230/368 1305/231/369
f  1306/232/370 1307/231/369 1308/230/368
f  1309/231/369 1310/232/370 1311/233/371
f  1312/234/372 1313/233/371 1314/232/370
f  1315/233/371 1316/234/372 1317/235/373
f  1318/235/373 1319/234/372 1320/236/374
f  1321/202/375 1322/201/376 1323/203/377
f  1324/201/376 1325/204/378 1326/203/377
f  1327/204/378 1328/201/376 1329/205/379
f  1330/206/380 1331/204/378 1332/205/379
f  1333/204/378 1334/206/380 1335/207/381
f  1336/208/382 1337/207/381 1338/206/380
f  1339/207/381 1340/208/382 1341/209/383
f  1342/208/382 1343/210/384 1344/209/383
f  1345/210/384 1346/208/382 1347/211/385
f  1348/212/386 1349/210/384 1350/211/385
f  1351/214/387 1352/213/388 1353/215/389
f  1354/216/390 1355/215/389 1356/213/388
f  1357/215/389 1358/216/390 1359/217/391
f  1360/218/392 1361/217/391 1362/216/390
f  1363/217/391 1364/218/392 1365/219/393
f  1366/220/394 1367/219/393 1368/218/392
f  1369/219/393 1370/220/394 1371/221/395
f  1372/222/396 1373/221/395 1374/220/394
f  1375/221/395 1376/222/396 1377/223/397
f  1378/224/398 1379/223/397 1380/222/396
f  1381/226/399 1382/225/400 1383/227/401
f  1384/226/399 1385/228/402 1386/225/400
f  1387/228/402 1388/226/399 1389/229/403
f  1390/229/403 1391/230/404 1392/228/402
f  1393/230/404 1394/229/403 1395/231/405
f  1396/231/405 1397/232/406 1398/230/404
f  1399/232/406 1400/231/405 1401/233/407
f  1402/235/408 1403/232/406 1404/233/407
f  1405/232/406 1406/235/408 1407/234/409
f  1408/234/409 1409/235/408 1410/236/410
f  1411/237/411 1412/238/412 1413/239/413
f  1414/238/412 1415/237/411 1416/240/414
f  1417/241/415 1418/238/412 1419/240/414
f  1420/238/412 1421/241/415 1422/242/416
f  1423/242/416 1424/243/417 1425/238/412
f  1426/239/413 1427/238/412 1428/243/417
f  1429/240/414 1430/237/411 1431/244/418
f  1432/245/419 1433/240/414 1434/244/418
f  1435/240/414 1436/245/419 1437/246/420
f  1438/246/420 1439/241/415 1440/240/414
f  1441/241/415 1442/246/420 1443/247/421
f  1444/248/422 1445/241/415 1446/247/421
f  1447/241/415 1448/248/422 1449/249/423
f  1450/241/415 1451/249/423 1452/250/424
f  1453/250/424 1454/242/416 1455/241/415
f  1456/251/425 1457/246/420 1458/245/419
f  1459/246/420 1460/251/425 1461/252/426
f  1462/253/427 1463/246/420 1464/252/426
f  1465/246/420 1466/253/427 1467/247/421
f  1468/254/428 1469/247/421 1470/253/427
f  1471/247/421 1472/254/428 1473/248/422
f  1474/242/416 1475/250/424 1476/255/429
f  1477/242/416 1478/255/429 1479/256/430
f  1480/243/417 1481/242/416 1482/256/430

