# File produced by Open Asset Import Library (http://www.assimp.sf.net)
# (assimp v6.0.0)

mtllib ship08.mtl

# 1242 vertex positions
v 9.71850014 -11.5004997 3.1680007
v 10.1475 -11.0110006 4.82350063
v 11.2750006 -9.68550014 6.1765008
v 11.2750006 -9.68550014 6.1765008
v 9.99350071 -11.1485004 1.33100045
v 9.71850014 -11.5004997 3.1680007
v 9.99350071 -11.1485004 1.33100045
v 11.2750006 -9.68550014 6.1765008
v 11.2200003 -9.68550014 0.33000043
v 11.2750006 -9.68550014 6.1765008
v 13.387001 -7.44700003 0.104500331
v 11.2200003 -9.68550014 0.33000043
v 13.387001 -7.44700003 0.104500331
v 11.2750006 -9.68550014 6.1765008
v 13.6949997 -7.06750011 6.39100075
v 16.7420006 -3.77849984 5.49450016
v 13.387001 -7.44700003 0.104500331
v 13.6949997 -7.06750011 6.39100075
v 13.387001 -7.44700003 0.104500331
v 16.7420006 -3.77849984 5.49450016
v 16.6870022 -4.0369997 1.06700027
v 17.968502 -2.5849998 3.16250038
v 16.6870022 -4.0369997 1.06700027
v 16.7420006 -3.77849984 5.49450016
v 9.99350071 -11.1485004 1.33100045
v 9.52600002 20.1079998 3.16799927
v 9.71850014 -11.5004997 3.1680007
v 9.52600002 20.1079998 3.16799927
v 9.99350071 -11.1485004 1.33100045
v 10.1254997 20.1079998 1.36399925
v 11.2200003 -9.68550014 0.33000043
v 10.1254997 20.1079998 1.36399925
v 9.99350071 -11.1485004 1.33100045
v 10.1254997 20.1079998 1.36399925
v 11.2200003 -9.68550014 0.33000043
v 11.2200003 20.1079998 0.379499108
v 13.387001 -7.44700003 0.104500331
v 11.2200003 20.1079998 0.379499108
v 11.2200003 -9.68550014 0.33000043
v 11.2200003 20.1079998 0.379499108
v 13.387001 -7.44700003 0.104500331
v 13.75 20.1079998 0.0494991206
v 16.6870022 -4.0369997 1.06700027
v 13.75 20.1079998 0.0494991206
v 13.387001 -7.44700003 0.104500331
v 13.75 20.1079998 0.0494991206
v 16.6870022 -4.0369997 1.06700027
v 16.632 20.1079998 0.945999205
v 17.968502 -2.5849998 3.16250038
v 16.632 20.1079998 0.945999205
v 16.6870022 -4.0369997 1.06700027
v 16.632 20.1079998 0.945999205
v 17.968502 -2.5849998 3.16250038
v 18.0290012 20.1079998 3.16799927
v 17.968502 -2.5849998 3.16250038
v 16.5770016 20.1079998 5.49449921
v 18.0290012 20.1079998 3.16799927
v 16.5770016 20.1079998 5.49449921
v 17.968502 -2.5849998 3.16250038
v 16.7420006 -3.77849984 5.49450016
v 16.7420006 -3.77849984 5.49450016
v 13.6949997 20.1079998 6.39099932
v 16.5770016 20.1079998 5.49449921
v 13.6949997 20.1079998 6.39099932
v 16.7420006 -3.77849984 5.49450016
v 13.6949997 -7.06750011 6.39100075
v 13.6949997 -7.06750011 6.39100075
v 11.2750006 20.1079998 6.17649937
v 13.6949997 20.1079998 6.39099932
v 11.2750006 20.1079998 6.17649937
v 13.6949997 -7.06750011 6.39100075
v 11.2750006 -9.68550014 6.1765008
v 11.2750006 -9.68550014 6.1765008
v 9.95499992 20.1079998 4.8234992
v 11.2750006 20.1079998 6.17649937
v 9.95499992 20.1079998 4.8234992
v 11.2750006 -9.68550014 6.1765008
v 10.1475 -11.0110006 4.82350063
v 10.1475 -11.0110006 4.82350063
v 9.52600002 20.1079998 3.16799927
v 9.95499992 20.1079998 4.8234992
v 9.52600002 20.1079998 3.16799927
v 10.1475 -11.0110006 4.82350063
v 9.71850014 -11.5004997 3.1680007
v 5.85200024 21.5599995 -1.48500097
v -3.48700023 15.6200008 -4.89500093
v 3.48700023 15.6200008 -4.89500093
v -3.48700023 15.6200008 -4.89500093
v 5.85200024 21.5599995 -1.48500097
v -5.85200024 21.5599995 -1.48500097
v 5.85200024 21.5599995 1.17149901
v -5.85200024 21.5599995 -1.48500097
v 5.85200024 21.5599995 -1.48500097
v -5.85200024 21.5599995 -1.48500097
v 5.85200024 21.5599995 1.17149901
v -5.85200024 21.5599995 1.17149901
v 0 -29.4415035 -0.797498703
v -2.85450006 -28.5340004 0.797501206
v 0 -29.4415035 0.770001352
v -2.85450006 -28.5340004 0.797501206
v 0 -29.4415035 -0.797498703
v -2.85450006 -28.5340004 -0.907498777
v -4.60900021 -26.1855011 -0.989998877
v -2.85450006 -28.5340004 0.797501206
v -2.85450006 -28.5340004 -0.907498777
v -2.85450006 -28.5340004 0.797501206
v -4.60900021 -26.1855011 -0.989998877
v -4.69149971 -26.0424995 0.814001143
v -6.72650051 -21.4170017 -1.1439991
v -4.69149971 -26.0424995 0.814001143
v -4.60900021 -26.1855011 -0.989998877
v -4.69149971 -26.0424995 0.814001143
v -6.72650051 -21.4170017 -1.1439991
v -6.72650051 -21.4170017 0.836000979
v -8.73400021 -14.0524998 -1.0394994
v -6.72650051 -21.4170017 0.836000979
v -6.72650051 -21.4170017 -1.1439991
v -6.72650051 -21.4170017 0.836000979
v -8.73400021 -14.0524998 -1.0394994
v -8.73400021 -14.0524998 0.940500677
v -11.0384998 -4.00400019 -0.857999802
v -8.73400021 -14.0524998 0.940500677
v -8.73400021 -14.0524998 -1.0394994
v -8.73400021 -14.0524998 0.940500677
v -11.0384998 -4.00400019 -0.857999802
v -11.0384998 -4.00400019 1.12200022
v -11.0384998 -4.00400019 -0.857999802
v -12.6719999 -1.52899992 1.2980001
v -11.0384998 -4.00400019 1.12200022
v -12.6719999 -1.52899992 1.2980001
v -11.0384998 -4.00400019 -0.857999802
v -13.2275 -0.824999988 -0.951500058
v -13.2275 -0.824999988 -0.951500058
v -14.6245003 1.25400019 1.42999995
v -12.6719999 -1.52899992 1.2980001
v -14.6245003 1.25400019 1.42999995
v -13.2275 -0.824999988 -0.951500058
v -14.6245003 1.25400007 -0.99000001
v -25.7894993 10.9065008 -0.990000486
v -14.6245003 1.25400019 1.42999995
v -14.6245003 1.25400007 -0.99000001
v -14.6245003 1.25400019 1.42999995
v -25.7894993 10.9065008 -0.990000486
v -25.7894993 10.9065008 1.64999938
v -10.1475 -11.0110006 4.82350063
v -9.71850014 -11.5004997 3.1680007
v -9.99350071 -11.1485004 1.33100045
v -9.99350071 -11.1485004 1.33100045
v -11.2750006 -9.68550014 6.1765008
v -10.1475 -11.0110006 4.82350063
v -11.2750006 -9.68550014 6.1765008
v -9.99350071 -11.1485004 1.33100045
v -11.2200003 -9.68550014 0.33000043
v -13.387001 -7.44700003 0.104500331
v -11.2750006 -9.68550014 6.1765008
v -11.2200003 -9.68550014 0.33000043
v -11.2750006 -9.68550014 6.1765008
v -13.387001 -7.44700003 0.104500331
v -13.6949997 -7.06750011 6.39100075
v -13.387001 -7.44700003 0.104500331
v -16.7420006 -3.77849984 5.49450016
v -13.6949997 -7.06750011 6.39100075
v -16.7420006 -3.77849984 5.49450016
v -13.387001 -7.44700003 0.104500331
v -16.6870022 -4.0369997 1.06700027
v -16.6870022 -4.0369997 1.06700027
v -17.968502 -2.5849998 3.16250038
v -16.7420006 -3.77849984 5.49450016
v -9.52600002 20.1079998 3.16799927
v -9.99350071 -11.1485004 1.33100045
v -9.71850014 -11.5004997 3.1680007
v -9.99350071 -11.1485004 1.33100045
v -9.52600002 20.1079998 3.16799927
v -10.1254997 20.1079998 1.36399925
v -10.1254997 20.1079998 1.36399925
v -11.2200003 -9.68550014 0.33000043
v -9.99350071 -11.1485004 1.33100045
v -11.2200003 -9.68550014 0.33000043
v -10.1254997 20.1079998 1.36399925
v -11.2200003 20.1079998 0.379499108
v -11.2200003 20.1079998 0.379499108
v -13.387001 -7.44700003 0.104500331
v -11.2200003 -9.68550014 0.33000043
v -13.387001 -7.44700003 0.104500331
v -11.2200003 20.1079998 0.379499108
v -13.75 20.1079998 0.0494991206
v -13.75 20.1079998 0.0494991206
v -16.6870022 -4.0369997 1.06700027
v -13.387001 -7.44700003 0.104500331
v -16.6870022 -4.0369997 1.06700027
v -13.75 20.1079998 0.0494991206
v -16.632 20.1079998 0.945999205
v -16.632 20.1079998 0.945999205
v -17.968502 -2.5849998 3.16250038
v -16.6870022 -4.0369997 1.06700027
v -17.968502 -2.5849998 3.16250038
v -16.632 20.1079998 0.945999205
v -18.0290012 20.1079998 3.16799927
v -16.5770016 20.1079998 5.49449921
v -17.968502 -2.5849998 3.16250038
v -18.0290012 20.1079998 3.16799927
v -17.968502 -2.5849998 3.16250038
v -16.5770016 20.1079998 5.49449921
v -16.7420006 -3.77849984 5.49450016
v -13.6949997 20.1079998 6.39099932
v -16.7420006 -3.77849984 5.49450016
v -16.5770016 20.1079998 5.49449921
v -16.7420006 -3.77849984 5.49450016
v -13.6949997 20.1079998 6.39099932
v -13.6949997 -7.06750011 6.39100075
v -11.2750006 20.1079998 6.17649937
v -13.6949997 -7.06750011 6.39100075
v -13.6949997 20.1079998 6.39099932
v -13.6949997 -7.06750011 6.39100075
v -11.2750006 20.1079998 6.17649937
v -11.2750006 -9.68550014 6.1765008
v -9.95499992 20.1079998 4.8234992
v -11.2750006 -9.68550014 6.1765008
v -11.2750006 20.1079998 6.17649937
v -11.2750006 -9.68550014 6.1765008
v -9.95499992 20.1079998 4.8234992
v -10.1475 -11.0110006 4.82350063
v -9.52600002 20.1079998 3.16799927
v -10.1475 -11.0110006 4.82350063
v -9.95499992 20.1079998 4.8234992
v -10.1475 -11.0110006 4.82350063
v -9.52600002 20.1079998 3.16799927
v -9.71850014 -11.5004997 3.1680007
v -5.85200024 21.5599995 1.17149901
v 3.16799998 14.7400007 1.17149925
v -3.16799998 14.7400007 1.17149925
v 3.16799998 14.7400007 1.17149925
v -5.85200024 21.5599995 1.17149901
v 5.85200024 21.5599995 1.17149901
v -8.64599991 13.420001 -3.47050095
v -8.4204998 16.0710011 -4.43300104
v -9.16300011 18.7220001 -3.23400092
v -8.4204998 16.0710011 -4.43300104
v -8.64599991 13.420001 -3.47050095
v -8.33250046 13.4035006 -5.32950068
v -8.64599991 13.420001 -3.47050095
v -10.2959995 8.94849968 -5.31300068
v -8.33250046 13.4035006 -5.32950068
v -10.2959995 8.94849968 -5.31300068
v -8.64599991 13.420001 -3.47050095
v -10.6424999 8.83849907 -3.18450022
v -10.2959995 8.94849968 -5.31300068
v -10.6424999 8.83849907 -3.18450022
v -12.4465008 4.69700003 -2.92600012
v 8.4204998 16.0710011 -4.43300104
v 8.64599991 13.420001 -3.47050095
v 9.16300011 18.7220001 -3.23400092
v 8.64599991 13.420001 -3.47050095
v 8.4204998 16.0710011 -4.43300104
v 8.33250046 13.4035006 -5.32950068
v 10.2959995 8.94849968 -5.31300068
v 8.64599991 13.420001 -3.47050095
v 8.33250046 13.4035006 -5.32950068
v 8.64599991 13.420001 -3.47050095
v 10.2959995 8.94849968 -5.31300068
v 10.6424999 8.83849907 -3.18450022
v 10.6424999 8.83849907 -3.18450022
v 10.2959995 8.94849968 -5.31300068
v 12.4465008 4.69700003 -2.92600012
v 25.7894993 10.9065008 -0.990000486
v 14.6245003 1.25400019 1.42999995
v 25.7894993 10.9065008 1.64999938
v 14.6245003 1.25400019 1.42999995
v 25.7894993 10.9065008 -0.990000486
v 14.6245003 1.25400007 -0.99000001
v 13.2275 -0.824999988 -0.951500058
v 14.6245003 1.25400019 1.42999995
v 14.6245003 1.25400007 -0.99000001
v 14.6245003 1.25400019 1.42999995
v 13.2275 -0.824999988 -0.951500058
v 12.6719999 -1.52899992 1.2980001
v 11.0384998 -4.00400019 -0.857999802
v 12.6719999 -1.52899992 1.2980001
v 13.2275 -0.824999988 -0.951500058
v 12.6719999 -1.52899992 1.2980001
v 11.0384998 -4.00400019 -0.857999802
v 11.0384998 -4.00400019 1.12200022
v 11.0384998 -4.00400019 -0.857999802
v 8.73400021 -14.0524998 0.940500677
v 11.0384998 -4.00400019 1.12200022
v 8.73400021 -14.0524998 0.940500677
v 11.0384998 -4.00400019 -0.857999802
v 8.73400021 -14.0524998 -1.0394994
v 8.73400021 -14.0524998 -1.0394994
v 6.72650051 -21.4170017 0.836000979
v 8.73400021 -14.0524998 0.940500677
v 6.72650051 -21.4170017 0.836000979
v 8.73400021 -14.0524998 -1.0394994
v 6.72650051 -21.4170017 -1.1439991
v 6.72650051 -21.4170017 -1.1439991
v 4.69149971 -26.0424995 0.814001143
v 6.72650051 -21.4170017 0.836000979
v 4.69149971 -26.0424995 0.814001143
v 6.72650051 -21.4170017 -1.1439991
v 4.60900021 -26.1855011 -0.989998877
v 4.60900021 -26.1855011 -0.989998877
v 2.85450006 -28.5340004 0.797501206
v 4.69149971 -26.0424995 0.814001143
v 2.85450006 -28.5340004 0.797501206
v 4.60900021 -26.1855011 -0.989998877
v 2.85450006 -28.5340004 -0.907498777
v 0 -29.4415035 -0.797498703
v 2.85450006 -28.5340004 0.797501206
v 2.85450006 -28.5340004 -0.907498777
v 2.85450006 -28.5340004 0.797501206
v 0 -29.4415035 -0.797498703
v 0 -29.4415035 0.770001352
v 2.65100002 17.352499 -4.97750092
v 0 16.3625011 1.7379992
v 0 16.1425018 -5.17000055
v 0 16.3625011 1.7379992
v 2.65100002 17.352499 -4.97750092
v 2.65100002 17.3525009 1.75999939
v 4.55950022 20.5424995 -3.14050102
v 2.65100002 17.3525009 1.75999939
v 2.65100002 17.352499 -4.97750092
v 2.65100002 17.3525009 1.75999939
v 4.55950022 20.5424995 -3.14050102
v 4.55950022 20.5424995 1.72699916
v 5.52750063 22.8139992 -0.720501065
v 4.55950022 20.5424995 1.72699916
v 4.55950022 20.5424995 -3.14050102
v 4.55950022 20.5424995 1.72699916
v 5.52750063 22.8139992 -0.720501065
v 5.52750063 22.8139992 1.25949907
v 10.7140007 21.7415009 -0.687500954
v 5.52750063 22.8139992 1.25949907
v 5.52750063 22.8139992 -0.720501065
v 5.52750063 22.8139992 1.25949907
v 10.7140007 21.7415009 -0.687500954
v 10.7140007 21.7415009 1.29249907
v 16.6099987 19.5855007 -0.500500917
v 10.7140007 21.7415009 1.29249907
v 10.7140007 21.7415009 -0.687500954
v 10.7140007 21.7415009 1.29249907
v 16.6099987 19.5855007 -0.500500917
v 16.6099987 19.5855007 1.47949922
v 16.6099987 19.5855007 -0.500500917
v 20.5039997 18.8649998 1.34749913
v 16.6099987 19.5855007 1.47949922
v 20.5039997 18.8649998 1.34749913
v 16.6099987 19.5855007 -0.500500917
v 20.5039997 18.8649998 -0.632500827
v 26.1800022 18.6449986 -0.555500805
v 20.5039997 18.8649998 1.34749913
v 20.5039997 18.8649998 -0.632500827
v 20.5039997 18.8649998 1.34749913
v 26.1800022 18.6449986 -0.555500805
v 26.1800022 18.6450005 1.42449927
v 26.1800022 18.6449986 -0.555500805
v 26.7630005 16.7749996 1.47949934
v 26.1800022 18.6450005 1.42449927
v 26.7630005 16.7749996 1.47949934
v 26.1800022 18.6449986 -0.555500805
v 26.7630005 16.7749996 -1.32550073
v 25.7894993 10.9065008 -0.990000486
v 26.7630005 16.7749996 1.47949934
v 26.7630005 16.7749996 -1.32550073
v 26.7630005 16.7749996 1.47949934
v 25.7894993 10.9065008 -0.990000486
v 25.7894993 10.9065008 1.64999938
v 0 16.3625011 1.7379992
v -2.65100002 17.352499 -4.97750092
v 0 16.1425018 -5.17000055
v -2.65100002 17.352499 -4.97750092
v 0 16.3625011 1.7379992
v -2.65100002 17.3525009 1.75999939
v -2.65100002 17.3525009 1.75999939
v -4.55950022 20.5424995 -3.14050102
v -2.65100002 17.352499 -4.97750092
v -4.55950022 20.5424995 -3.14050102
v -2.65100002 17.3525009 1.75999939
v -4.55950022 20.5424995 1.72699916
v -4.55950022 20.5424995 1.72699916
v -5.52750063 22.8139992 -0.720501065
v -4.55950022 20.5424995 -3.14050102
v -5.52750063 22.8139992 -0.720501065
v -4.55950022 20.5424995 1.72699916
v -5.52750063 22.8139992 1.25949907
v -5.52750063 22.8139992 1.25949907
v -10.7140007 21.7415009 -0.687500954
v -5.52750063 22.8139992 -0.720501065
v -10.7140007 21.7415009 -0.687500954
v -5.52750063 22.8139992 1.25949907
v -10.7140007 21.7415009 1.29249907
v -10.7140007 21.7415009 1.29249907
v -16.6099987 19.5855007 -0.500500917
v -10.7140007 21.7415009 -0.687500954
v -16.6099987 19.5855007 -0.500500917
v -10.7140007 21.7415009 1.29249907
v -16.6099987 19.5855007 1.47949922
v -20.5039997 18.8649998 1.34749913
v -16.6099987 19.5855007 -0.500500917
v -16.6099987 19.5855007 1.47949922
v -16.6099987 19.5855007 -0.500500917
v -20.5039997 18.8649998 1.34749913
v -20.5039997 18.8649998 -0.632500827
v -20.5039997 18.8649998 1.34749913
v -26.1800022 18.6449986 -0.555500805
v -20.5039997 18.8649998 -0.632500827
v -26.1800022 18.6449986 -0.555500805
v -20.5039997 18.8649998 1.34749913
v -26.1800022 18.6450005 1.42449927
v -26.7630005 16.7749996 1.47949934
v -26.1800022 18.6449986 -0.555500805
v -26.1800022 18.6450005 1.42449927
v -26.1800022 18.6449986 -0.555500805
v -26.7630005 16.7749996 1.47949934
v -26.7630005 16.7749996 -1.32550073
v -26.7630005 16.7749996 1.47949934
v -25.7894993 10.9065008 -0.990000486
v -26.7630005 16.7749996 -1.32550073
v -25.7894993 10.9065008 -0.990000486
v -26.7630005 16.7749996 1.47949934
v -25.7894993 10.9065008 1.64999938
v 20.5039997 18.8649998 1.34749913
v 26.1800022 18.6450005 1.42449927
v 26.7630005 16.7749996 1.47949934
v 20.5039997 18.8649998 1.34749913
v 26.7630005 16.7749996 1.47949934
v 25.7894993 10.9065008 1.64999938
v 13.1669998 5.41200018 3.83349991
v 20.5039997 18.8649998 1.34749913
v 25.7894993 10.9065008 1.64999938
v 20.5039997 18.8649998 1.34749913
v 13.1669998 5.41200018 3.83349991
v 11.7700005 14.3110008 2.99199939
v 11.7700005 14.3110008 2.99199939
v 16.6099987 19.5855007 1.47949922
v 20.5039997 18.8649998 1.34749913
v 11.7700005 14.3110008 2.99199939
v 7.81000042 18.6175003 1.72699916
v 16.6099987 19.5855007 1.47949922
v 7.81000042 18.6175003 1.72699916
v 10.7140007 21.7415009 1.29249907
v 16.6099987 19.5855007 1.47949922
v 7.81000042 18.6175003 1.72699916
v 5.52750063 22.8139992 1.25949907
v 10.7140007 21.7415009 1.29249907
v 5.52750063 22.8139992 1.25949907
v 7.81000042 18.6175003 1.72699916
v 4.55950022 20.5424995 1.72699916
v 13.1669998 5.41200018 3.83349991
v 25.7894993 10.9065008 1.64999938
v 14.6245003 1.25400019 1.42999995
v 10.1805 2.89300036 3.66849971
v 13.1669998 5.41200018 3.83349991
v 14.6245003 1.25400019 1.42999995
v 9.10249996 12.3200006 2.96999955
v 13.1669998 5.41200018 3.83349991
v 10.1805 2.89300036 3.66849971
v 13.1669998 5.41200018 3.83349991
v 9.10249996 12.3200006 2.96999955
v 11.7700005 14.3110008 2.99199939
v 9.10249996 12.3200006 2.96999955
v 7.81000042 18.6175003 1.72699916
v 11.7700005 14.3110008 2.99199939
v 7.81000042 18.6175003 1.72699916
v 9.10249996 12.3200006 2.96999955
v 5.77499962 16.3899994 1.82599926
v 4.55950022 20.5424995 1.72699916
v 7.81000042 18.6175003 1.72699916
v 5.77499962 16.3899994 1.82599926
v 4.55950022 20.5424995 1.72699916
v 5.77499962 16.3899994 1.82599926
v 2.65100002 17.3525009 1.75999939
v 3.92150021 14.7675009 1.8369993
v 2.65100002 17.3525009 1.75999939
v 5.77499962 16.3899994 1.82599926
v 1.78200006 13.7335005 1.73799932
v 2.65100002 17.3525009 1.75999939
v 3.92150021 14.7675009 1.8369993
v 2.65100002 17.3525009 1.75999939
v 1.78200006 13.7335005 1.73799932
v 0 16.3625011 1.7379992
v 10.1805 2.89300036 3.66849971
v 14.6245003 1.25400019 1.42999995
v 12.6719999 -1.52899992 1.2980001
v 6.38549995 -6.2755003 4.59800005
v 10.1805 2.89300036 3.66849971
v 12.6719999 -1.52899992 1.2980001
v 6.38549995 -6.2755003 4.59800005
v 5.41750002 2.51900029 5.66499996
v 10.1805 2.89300036 3.66849971
v 4.0425005 8.03000069 5.73099947
v 10.1805 2.89300036 3.66849971
v 5.41750002 2.51900029 5.66499996
v 10.1805 2.89300036 3.66849971
v 4.0425005 8.03000069 5.73099947
v 9.10249996 12.3200006 2.96999955
v 9.10249996 12.3200006 2.96999955
v 4.0425005 8.03000069 5.73099947
v 5.77499962 16.3899994 1.82599926
v 3.92150021 14.7675009 1.8369993
v 5.77499962 16.3899994 1.82599926
v 4.0425005 8.03000069 5.73099947
v 1.78200006 13.7335005 1.73799932
v 3.92150021 14.7675009 1.8369993
v 4.0425005 8.03000069 5.73099947
v 4.0425005 8.03000069 5.73099947
v 0 13.3980007 1.73249948
v 1.78200006 13.7335005 1.73799932
v 1.78200006 13.7335005 1.73799932
v 0 13.3980007 1.73249948
v 0 16.3625011 1.7379992
v 0 13.3980007 1.73249948
v -1.78200006 13.7335005 1.73799932
v 0 16.3625011 1.7379992
v -1.78200006 13.7335005 1.73799932
v -2.65100002 17.3525009 1.75999939
v 0 16.3625011 1.7379992
v 12.6719999 -1.52899992 1.2980001
v 11.0384998 -4.00400019 1.12200022
v 6.38549995 -6.2755003 4.59800005
v 8.73400021 -14.0524998 0.940500677
v 6.38549995 -6.2755003 4.59800005
v 11.0384998 -4.00400019 1.12200022
v 6.38549995 -6.2755003 4.59800005
v 8.73400021 -14.0524998 0.940500677
v 6.06650019 -11.9239998 4.63650036
v 6.06650019 -11.9239998 4.63650036
v 0 -9.28399944 6.95200062
v 6.38549995 -6.2755003 4.59800005
v 0 -9.28399944 6.95200062
v 3.71250033 -2.66749978 5.66499996
v 6.38549995 -6.2755003 4.59800005
v 5.41750002 2.51900029 5.66499996
v 6.38549995 -6.2755003 4.59800005
v 3.71250033 -2.66749978 5.66499996
v 3.71250033 -2.66749978 5.66499996
v 0 1.75450039 6.77049971
v 5.41750002 2.51900029 5.66499996
v 0 1.75450039 6.77049971
v 4.0425005 8.03000069 5.73099947
v 5.41750002 2.51900029 5.66499996
v 4.0425005 8.03000069 5.73099947
v 0 1.75450039 6.77049971
v 0 6.35250044 5.96749973
v 0 13.3980007 1.73249948
v 4.0425005 8.03000069 5.73099947
v 0 6.35250044 5.96749973
v -4.0425005 8.03000069 5.73099947
v 0 13.3980007 1.73249948
v 0 6.35250044 5.96749973
v 0 13.3980007 1.73249948
v -4.0425005 8.03000069 5.73099947
v -1.78200006 13.7335005 1.73799932
v 8.73400021 -14.0524998 0.940500677
v 4.15249968 -20.5809994 3.55850077
v 6.06650019 -11.9239998 4.63650036
v 4.15249968 -20.5809994 3.55850077
v 0 -12.5949993 6.40750074
v 6.06650019 -11.9239998 4.63650036
v 0 -9.28399944 6.95200062
v 6.06650019 -11.9239998 4.63650036
v 0 -12.5949993 6.40750074
v -6.06650019 -11.9239998 4.63650036
v 0 -9.28399944 6.95200062
v 0 -12.5949993 6.40750074
v 0 -9.28399944 6.95200062
v -6.06650019 -11.9239998 4.63650036
v -6.38549995 -6.2755003 4.59800005
v -3.71250033 -2.66749978 5.66499996
v 0 -9.28399944 6.95200062
v -6.38549995 -6.2755003 4.59800005
v 0 -9.28399944 6.95200062
v -3.71250033 -2.66749978 5.66499996
v 0 -4.19649982 6.84749985
v 3.71250033 -2.66749978 5.66499996
v 0 -9.28399944 6.95200062
v 0 -4.19649982 6.84749985
v 0 1.75450039 6.77049971
v 3.71250033 -2.66749978 5.66499996
v 0 -4.19649982 6.84749985
v 4.15249968 -20.5809994 3.55850077
v 8.73400021 -14.0524998 0.940500677
v 6.72650051 -21.4170017 0.836000979
v 4.69149971 -26.0424995 0.814001143
v 4.15249968 -20.5809994 3.55850077
v 6.72650051 -21.4170017 0.836000979
v 4.15249968 -20.5809994 3.55850077
v 4.69149971 -26.0424995 0.814001143
v 2.49699998 -25.1294994 2.54100108
v 2.49699998 -25.1294994 2.54100108
v 0 -19.5305004 5.21400118
v 4.15249968 -20.5809994 3.55850077
v 0 -12.5949993 6.40750074
v 4.15249968 -20.5809994 3.55850077
v 0 -19.5305004 5.21400118
v -4.15249968 -20.5809994 3.55850077
v 0 -12.5949993 6.40750074
v 0 -19.5305004 5.21400118
v 0 -12.5949993 6.40750074
v -4.15249968 -20.5809994 3.55850077
v -6.06650019 -11.9239998 4.63650036
v -4.15249968 -20.5809994 3.55850077
v -8.73400021 -14.0524998 0.940500677
v -6.06650019 -11.9239998 4.63650036
v -8.73400021 -14.0524998 0.940500677
v -6.38549995 -6.2755003 4.59800005
v -6.06650019 -11.9239998 4.63650036
v 4.69149971 -26.0424995 0.814001143
v 2.85450006 -28.5340004 0.797501206
v 2.49699998 -25.1294994 2.54100108
v 2.85450006 -28.5340004 0.797501206
v 0 -26.5374985 2.89850116
v 2.49699998 -25.1294994 2.54100108
v 0 -19.5305004 5.21400118
v 2.49699998 -25.1294994 2.54100108
v 0 -26.5374985 2.89850116
v -2.49699998 -25.1294994 2.54100108
v 0 -19.5305004 5.21400118
v 0 -26.5374985 2.89850116
v 0 -19.5305004 5.21400118
v -2.49699998 -25.1294994 2.54100108
v -4.15249968 -20.5809994 3.55850077
v -4.69149971 -26.0424995 0.814001143
v -4.15249968 -20.5809994 3.55850077
v -2.49699998 -25.1294994 2.54100108
v -4.15249968 -20.5809994 3.55850077
v -4.69149971 -26.0424995 0.814001143
v -6.72650051 -21.4170017 0.836000979
v -8.73400021 -14.0524998 0.940500677
v -4.15249968 -20.5809994 3.55850077
v -6.72650051 -21.4170017 0.836000979
v 0 -26.5374985 2.89850116
v 2.85450006 -28.5340004 0.797501206
v 0 -29.4415035 0.770001352
v -2.85450006 -28.5340004 0.797501206
v 0 -26.5374985 2.89850116
v 0 -29.4415035 0.770001352
v 0 -26.5374985 2.89850116
v -2.85450006 -28.5340004 0.797501206
v -2.49699998 -25.1294994 2.54100108
v -2.49699998 -25.1294994 2.54100108
v -2.85450006 -28.5340004 0.797501206
v -4.69149971 -26.0424995 0.814001143
v -6.38549995 -6.2755003 4.59800005
v -8.73400021 -14.0524998 0.940500677
v -11.0384998 -4.00400019 1.12200022
v -6.38549995 -6.2755003 4.59800005
v -11.0384998 -4.00400019 1.12200022
v -12.6719999 -1.52899992 1.2980001
v -12.6719999 -1.52899992 1.2980001
v -10.1805 2.89300036 3.66849971
v -6.38549995 -6.2755003 4.59800005
v -5.41750002 2.51900029 5.66499996
v -6.38549995 -6.2755003 4.59800005
v -10.1805 2.89300036 3.66849971
v -6.38549995 -6.2755003 4.59800005
v -5.41750002 2.51900029 5.66499996
v -3.71250033 -2.66749978 5.66499996
v 0 1.75450039 6.77049971
v -3.71250033 -2.66749978 5.66499996
v -5.41750002 2.51900029 5.66499996
v -3.71250033 -2.66749978 5.66499996
v 0 1.75450039 6.77049971
v 0 -4.19649982 6.84749985
v -12.6719999 -1.52899992 1.2980001
v -14.6245003 1.25400019 1.42999995
v -10.1805 2.89300036 3.66849971
v -14.6245003 1.25400019 1.42999995
v -13.1669998 5.41200018 3.83349991
v -10.1805 2.89300036 3.66849971
v -13.1669998 5.41200018 3.83349991
v -9.10249996 12.3200006 2.96999955
v -10.1805 2.89300036 3.66849971
v -4.0425005 8.03000069 5.73099947
v -10.1805 2.89300036 3.66849971
v -9.10249996 12.3200006 2.96999955
v -10.1805 2.89300036 3.66849971
v -4.0425005 8.03000069 5.73099947
v -5.41750002 2.51900029 5.66499996
v -4.0425005 8.03000069 5.73099947
v 0 1.75450039 6.77049971
v -5.41750002 2.51900029 5.66499996
v 0 1.75450039 6.77049971
v -4.0425005 8.03000069 5.73099947
v 0 6.35250044 5.96749973
v -25.7894993 10.9065008 1.64999938
v -13.1669998 5.41200018 3.83349991
v -14.6245003 1.25400019 1.42999995
v -20.5039997 18.8649998 1.34749913
v -13.1669998 5.41200018 3.83349991
v -25.7894993 10.9065008 1.64999938
v -13.1669998 5.41200018 3.83349991
v -20.5039997 18.8649998 1.34749913
v -11.7700005 14.3110008 2.99199939
v -9.10249996 12.3200006 2.96999955
v -13.1669998 5.41200018 3.83349991
v -11.7700005 14.3110008 2.99199939
v -7.81000042 18.6175003 1.72699916
v -9.10249996 12.3200006 2.96999955
v -11.7700005 14.3110008 2.99199939
v -9.10249996 12.3200006 2.96999955
v -7.81000042 18.6175003 1.72699916
v -5.77499962 16.3899994 1.82599926
v -4.0425005 8.03000069 5.73099947
v -9.10249996 12.3200006 2.96999955
v -5.77499962 16.3899994 1.82599926
v -5.77499962 16.3899994 1.82599926
v -3.92150021 14.7675009 1.8369993
v -4.0425005 8.03000069 5.73099947
v -3.92150021 14.7675009 1.8369993
v -1.78200006 13.7335005 1.73799932
v -4.0425005 8.03000069 5.73099947
v -2.65100002 17.3525009 1.75999939
v -1.78200006 13.7335005 1.73799932
v -3.92150021 14.7675009 1.8369993
v -26.7630005 16.7749996 1.47949934
v -20.5039997 18.8649998 1.34749913
v -25.7894993 10.9065008 1.64999938
v -26.1800022 18.6450005 1.42449927
v -20.5039997 18.8649998 1.34749913
v -26.7630005 16.7749996 1.47949934
v -5.77499962 16.3899994 1.82599926
v -2.65100002 17.3525009 1.75999939
v -3.92150021 14.7675009 1.8369993
v -2.65100002 17.3525009 1.75999939
v -5.77499962 16.3899994 1.82599926
v -4.55950022 20.5424995 1.72699916
v -5.77499962 16.3899994 1.82599926
v -7.81000042 18.6175003 1.72699916
v -4.55950022 20.5424995 1.72699916
v -7.81000042 18.6175003 1.72699916
v -5.52750063 22.8139992 1.25949907
v -4.55950022 20.5424995 1.72699916
v -5.52750063 22.8139992 1.25949907
v -7.81000042 18.6175003 1.72699916
v -10.7140007 21.7415009 1.29249907
v -10.7140007 21.7415009 1.29249907
v -7.81000042 18.6175003 1.72699916
v -16.6099987 19.5855007 1.47949922
v -7.81000042 18.6175003 1.72699916
v -11.7700005 14.3110008 2.99199939
v -16.6099987 19.5855007 1.47949922
v -16.6099987 19.5855007 1.47949922
v -11.7700005 14.3110008 2.99199939
v -20.5039997 18.8649998 1.34749913
v 9.52600002 20.1079998 3.16799927
v 10.1254997 20.1079998 1.36399925
v 9.95499992 20.1079998 4.8234992
v 11.2200003 20.1079998 0.379499108
v 9.95499992 20.1079998 4.8234992
v 10.1254997 20.1079998 1.36399925
v 9.95499992 20.1079998 4.8234992
v 11.2200003 20.1079998 0.379499108
v 11.2750006 20.1079998 6.17649937
v 11.2200003 20.1079998 0.379499108
v 13.6949997 20.1079998 6.39099932
v 11.2750006 20.1079998 6.17649937
v 13.6949997 20.1079998 6.39099932
v 11.2200003 20.1079998 0.379499108
v 13.75 20.1079998 0.0494991206
v 16.632 20.1079998 0.945999205
v 13.6949997 20.1079998 6.39099932
v 13.75 20.1079998 0.0494991206
v 13.6949997 20.1079998 6.39099932
v 16.632 20.1079998 0.945999205
v 16.5770016 20.1079998 5.49449921
v 18.0290012 20.1079998 3.16799927
v 16.5770016 20.1079998 5.49449921
v 16.632 20.1079998 0.945999205
v -10.1254997 20.1079998 1.36399925
v -9.52600002 20.1079998 3.16799927
v -9.95499992 20.1079998 4.8234992
v -9.95499992 20.1079998 4.8234992
v -11.2200003 20.1079998 0.379499108
v -10.1254997 20.1079998 1.36399925
v -11.2200003 20.1079998 0.379499108
v -9.95499992 20.1079998 4.8234992
v -11.2750006 20.1079998 6.17649937
v -13.6949997 20.1079998 6.39099932
v -11.2200003 20.1079998 0.379499108
v -11.2750006 20.1079998 6.17649937
v -11.2200003 20.1079998 0.379499108
v -13.6949997 20.1079998 6.39099932
v -13.75 20.1079998 0.0494991206
v -13.6949997 20.1079998 6.39099932
v -16.632 20.1079998 0.945999205
v -13.75 20.1079998 0.0494991206
v -16.632 20.1079998 0.945999205
v -13.6949997 20.1079998 6.39099932
v -16.5770016 20.1079998 5.49449921
v -16.5770016 20.1079998 5.49449921
v -18.0290012 20.1079998 3.16799927
v -16.632 20.1079998 0.945999205
v 14.6245003 1.25400007 -0.99000001
v 11.3135004 3.06349993 -3.07450008
v 13.2275 -0.824999988 -0.951500058
v 11.3135004 3.06349993 -3.07450008
v 14.6245003 1.25400007 -0.99000001
v 12.4465008 4.69700003 -2.92600012
v 12.4465008 4.69700003 -2.92600012
v 8.35999966 6.98499966 -5.26900053
v 11.3135004 3.06349993 -3.07450008
v 7.38100052 3.00849962 -4.95000029
v 11.3135004 3.06349993 -3.07450008
v 8.35999966 6.98499966 -5.26900053
v 11.3135004 3.06349993 -3.07450008
v 7.38100052 3.00849962 -4.95000029
v 9.31700039 -0.187000141 -3.102
v 9.31700039 -0.187000141 -3.102
v 13.2275 -0.824999988 -0.951500058
v 11.3135004 3.06349993 -3.07450008
v 13.2275 -0.824999988 -0.951500058
v 9.31700039 -0.187000141 -3.102
v 11.0384998 -4.00400019 -0.857999802
v 9.31700039 -0.187000141 -3.102
v 7.02900076 -3.76200032 -3.88849974
v 11.0384998 -4.00400019 -0.857999802
v 7.02900076 -3.76200032 -3.88849974
v 8.73400021 -14.0524998 -1.0394994
v 11.0384998 -4.00400019 -0.857999802
v 18.3425007 8.05750084 -1.8700006
v 12.4465008 4.69700003 -2.92600012
v 14.6245003 1.25400007 -0.99000001
v 12.4465008 4.69700003 -2.92600012
v 18.3425007 8.05750084 -1.8700006
v 14.0634995 11.4015007 -3.00300074
v 10.6424999 8.83849907 -3.18450022
v 12.4465008 4.69700003 -2.92600012
v 14.0634995 11.4015007 -3.00300074
v 8.64599991 13.420001 -3.47050095
v 10.6424999 8.83849907 -3.18450022
v 14.0634995 11.4015007 -3.00300074
v 15.3889999 16.890501 -3.06350088
v 8.64599991 13.420001 -3.47050095
v 14.0634995 11.4015007 -3.00300074
v 8.64599991 13.420001 -3.47050095
v 15.3889999 16.890501 -3.06350088
v 9.16300011 18.7220001 -3.23400092
v 25.7894993 10.9065008 -0.990000486
v 18.3425007 8.05750084 -1.8700006
v 14.6245003 1.25400007 -0.99000001
v 25.7894993 10.9065008 -0.990000486
v 21.4060001 16.4890003 -2.27150083
v 18.3425007 8.05750084 -1.8700006
v 15.3889999 16.890501 -3.06350088
v 18.3425007 8.05750084 -1.8700006
v 21.4060001 16.4890003 -2.27150083
v 18.3425007 8.05750084 -1.8700006
v 15.3889999 16.890501 -3.06350088
v 14.0634995 11.4015007 -3.00300074
v 21.4060001 16.4890003 -2.27150083
v 25.7894993 10.9065008 -0.990000486
v 26.7630005 16.7749996 -1.32550073
v 26.1800022 18.6449986 -0.555500805
v 21.4060001 16.4890003 -2.27150083
v 26.7630005 16.7749996 -1.32550073
v 21.4060001 16.4890003 -2.27150083
v 26.1800022 18.6449986 -0.555500805
v 20.5039997 18.8649998 -0.632500827
v 16.6099987 19.5855007 -0.500500917
v 21.4060001 16.4890003 -2.27150083
v 20.5039997 18.8649998 -0.632500827
v 21.4060001 16.4890003 -2.27150083
v 16.6099987 19.5855007 -0.500500917
v 15.3889999 16.890501 -3.06350088
v 10.7140007 21.7415009 -0.687500954
v 15.3889999 16.890501 -3.06350088
v 16.6099987 19.5855007 -0.500500917
v 15.3889999 16.890501 -3.06350088
v 10.7140007 21.7415009 -0.687500954
v 9.16300011 18.7220001 -3.23400092
v 5.52750063 22.8139992 -0.720501065
v 9.16300011 18.7220001 -3.23400092
v 10.7140007 21.7415009 -0.687500954
v 9.16300011 18.7220001 -3.23400092
v 5.52750063 22.8139992 -0.720501065
v 4.55950022 20.5424995 -3.14050102
v 9.16300011 18.7220001 -3.23400092
v 4.55950022 20.5424995 -3.14050102
v 8.4204998 16.0710011 -4.43300104
v 8.4204998 16.0710011 -4.43300104
v 4.55950022 20.5424995 -3.14050102
v 2.65100002 17.352499 -4.97750092
v 8.4204998 16.0710011 -4.43300104
v 2.65100002 17.352499 -4.97750092
v 8.33250046 13.4035006 -5.32950068
v 2.54100013 11.9954996 -5.87400055
v 8.33250046 13.4035006 -5.32950068
v 2.65100002 17.352499 -4.97750092
v 8.33250046 13.4035006 -5.32950068
v 2.54100013 11.9954996 -5.87400055
v 4.64750004 10.0485001 -5.91250038
v 8.35999966 6.98499966 -5.26900053
v 8.33250046 13.4035006 -5.32950068
v 4.64750004 10.0485001 -5.91250038
v 8.33250046 13.4035006 -5.32950068
v 8.35999966 6.98499966 -5.26900053
v 10.2959995 8.94849968 -5.31300068
v 8.35999966 6.98499966 -5.26900053
v 12.4465008 4.69700003 -2.92600012
v 10.2959995 8.94849968 -5.31300068
v 0 16.1425018 -5.17000055
v 2.54100013 11.9954996 -5.87400055
v 2.65100002 17.352499 -4.97750092
v 2.54100013 11.9954996 -5.87400055
v 0 16.1425018 -5.17000055
v 0 12.9634991 -5.9015007
v 0 9.46000004 -6.99050045
v 2.54100013 11.9954996 -5.87400055
v 0 12.9634991 -5.9015007
v 2.54100013 11.9954996 -5.87400055
v 0 9.46000004 -6.99050045
v 1.80400014 9.1960001 -6.86950016
v 2.54100013 11.9954996 -5.87400055
v 1.80400014 9.1960001 -6.86950016
v 4.64750004 10.0485001 -5.91250038
v 2.80500007 7.66699982 -6.98500061
v 4.64750004 10.0485001 -5.91250038
v 1.80400014 9.1960001 -6.86950016
v 4.64750004 10.0485001 -5.91250038
v 2.80500007 7.66699982 -6.98500061
v 6.0005002 7.54599953 -5.56050014
v 4.64750004 10.0485001 -5.91250038
v 6.0005002 7.54599953 -5.56050014
v 8.35999966 6.98499966 -5.26900053
v 6.0005002 7.54599953 -5.56050014
v 7.38100052 3.00849962 -4.95000029
v 8.35999966 6.98499966 -5.26900053
v 0 16.1425018 -5.17000055
v -2.54100013 11.9954996 -5.87400055
v 0 12.9634991 -5.9015007
v -2.54100013 11.9954996 -5.87400055
v 0 9.46000004 -6.99050045
v 0 12.9634991 -5.9015007
v 0 9.46000004 -6.99050045
v -2.54100013 11.9954996 -5.87400055
v -1.80400014 9.1960001 -6.86950016
v -1.80400014 9.1960001 -6.86950016
v 0 7.81550026 -7.45250082
v 0 9.46000004 -6.99050045
v 0 7.81550026 -7.45250082
v 1.80400014 9.1960001 -6.86950016
v 0 9.46000004 -6.99050045
v 1.80400014 9.1960001 -6.86950016
v 0 7.81550026 -7.45250082
v 2.80500007 7.66699982 -6.98500061
v 0 4.91699982 -7.95300102
v 2.80500007 7.66699982 -6.98500061
v 0 7.81550026 -7.45250082
v 2.80500007 7.66699982 -6.98500061
v 0 4.91699982 -7.95300102
v 3.63549995 4.85649967 -7.16650057
v 3.63549995 4.85649967 -7.16650057
v 6.0005002 7.54599953 -5.56050014
v 2.80500007 7.66699982 -6.98500061
v 6.0005002 7.54599953 -5.56050014
v 3.63549995 4.85649967 -7.16650057
v 7.38100052 3.00849962 -4.95000029
v -2.54100013 11.9954996 -5.87400055
v 0 16.1425018 -5.17000055
v -2.65100002 17.352499 -4.97750092
v -8.33250046 13.4035006 -5.32950068
v -2.54100013 11.9954996 -5.87400055
v -2.65100002 17.352499 -4.97750092
v -2.54100013 11.9954996 -5.87400055
v -8.33250046 13.4035006 -5.32950068
v -4.64750004 10.0485001 -5.91250038
v -2.54100013 11.9954996 -5.87400055
v -4.64750004 10.0485001 -5.91250038
v -1.80400014 9.1960001 -6.86950016
v -4.64750004 10.0485001 -5.91250038
v -2.80500007 7.66699982 -6.98500061
v -1.80400014 9.1960001 -6.86950016
v 0 7.81550026 -7.45250082
v -1.80400014 9.1960001 -6.86950016
v -2.80500007 7.66699982 -6.98500061
v -2.80500007 7.66699982 -6.98500061
v 0 4.91699982 -7.95300102
v 0 7.81550026 -7.45250082
v 0 4.91699982 -7.95300102
v -2.80500007 7.66699982 -6.98500061
v -3.63549995 4.85649967 -7.16650057
v -3.63549995 4.85649967 -7.16650057
v 0 -1.7215004 -8.49200058
v 0 4.91699982 -7.95300102
v 0 -1.7215004 -8.49200058
v 3.63549995 4.85649967 -7.16650057
v 0 4.91699982 -7.95300102
v 3.63549995 4.85649967 -7.16650057
v 0 -1.7215004 -8.49200058
v 4.00949955 -2.75000048 -7.05649996
v 4.00949955 -2.75000048 -7.05649996
v 7.38100052 3.00849962 -4.95000029
v 3.63549995 4.85649967 -7.16650057
v -2.65100002 17.352499 -4.97750092
v -8.4204998 16.0710011 -4.43300104
v -8.33250046 13.4035006 -5.32950068
v -2.65100002 17.352499 -4.97750092
v -4.55950022 20.5424995 -3.14050102
v -8.4204998 16.0710011 -4.43300104
v -4.55950022 20.5424995 -3.14050102
v -9.16300011 18.7220001 -3.23400092
v -8.4204998 16.0710011 -4.43300104
v -5.52750063 22.8139992 -0.720501065
v -9.16300011 18.7220001 -3.23400092
v -4.55950022 20.5424995 -3.14050102
v -9.16300011 18.7220001 -3.23400092
v -5.52750063 22.8139992 -0.720501065
v -10.7140007 21.7415009 -0.687500954
v -10.7140007 21.7415009 -0.687500954
v -15.3889999 16.890501 -3.06350088
v -9.16300011 18.7220001 -3.23400092
v -15.3889999 16.890501 -3.06350088
v -8.64599991 13.420001 -3.47050095
v -9.16300011 18.7220001 -3.23400092
v -8.64599991 13.420001 -3.47050095
v -15.3889999 16.890501 -3.06350088
v -14.0634995 11.4015007 -3.00300074
v -10.6424999 8.83849907 -3.18450022
v -8.64599991 13.420001 -3.47050095
v -14.0634995 11.4015007 -3.00300074
v -12.4465008 4.69700003 -2.92600012
v -10.6424999 8.83849907 -3.18450022
v -14.0634995 11.4015007 -3.00300074
v -15.3889999 16.890501 -3.06350088
v -10.7140007 21.7415009 -0.687500954
v -16.6099987 19.5855007 -0.500500917
v -16.6099987 19.5855007 -0.500500917
v -21.4060001 16.4890003 -2.27150083
v -15.3889999 16.890501 -3.06350088
v -18.3425007 8.05750084 -1.8700006
v -15.3889999 16.890501 -3.06350088
v -21.4060001 16.4890003 -2.27150083
v -15.3889999 16.890501 -3.06350088
v -18.3425007 8.05750084 -1.8700006
v -14.0634995 11.4015007 -3.00300074
v -18.3425007 8.05750084 -1.8700006
v -12.4465008 4.69700003 -2.92600012
v -14.0634995 11.4015007 -3.00300074
v -12.4465008 4.69700003 -2.92600012
v -18.3425007 8.05750084 -1.8700006
v -14.6245003 1.25400007 -0.99000001
v -14.6245003 1.25400007 -0.99000001
v -11.3135004 3.06349993 -3.07450008
v -12.4465008 4.69700003 -2.92600012
v -8.35999966 6.98499966 -5.26900053
v -12.4465008 4.69700003 -2.92600012
v -11.3135004 3.06349993 -3.07450008
v -12.4465008 4.69700003 -2.92600012
v -8.35999966 6.98499966 -5.26900053
v -10.2959995 8.94849968 -5.31300068
v -8.35999966 6.98499966 -5.26900053
v -8.33250046 13.4035006 -5.32950068
v -10.2959995 8.94849968 -5.31300068
v -21.4060001 16.4890003 -2.27150083
v -16.6099987 19.5855007 -0.500500917
v -20.5039997 18.8649998 -0.632500827
v -26.1800022 18.6449986 -0.555500805
v -21.4060001 16.4890003 -2.27150083
v -20.5039997 18.8649998 -0.632500827
v -21.4060001 16.4890003 -2.27150083
v -26.1800022 18.6449986 -0.555500805
v -26.7630005 16.7749996 -1.32550073
v -25.7894993 10.9065008 -0.990000486
v -21.4060001 16.4890003 -2.27150083
v -26.7630005 16.7749996 -1.32550073
v -21.4060001 16.4890003 -2.27150083
v -25.7894993 10.9065008 -0.990000486
v -18.3425007 8.05750084 -1.8700006
v -18.3425007 8.05750084 -1.8700006
v -25.7894993 10.9065008 -0.990000486
v -14.6245003 1.25400007 -0.99000001
v -8.33250046 13.4035006 -5.32950068
v -8.35999966 6.98499966 -5.26900053
v -4.64750004 10.0485001 -5.91250038
v -6.0005002 7.54599953 -5.56050014
v -4.64750004 10.0485001 -5.91250038
v -8.35999966 6.98499966 -5.26900053
v -2.80500007 7.66699982 -6.98500061
v -4.64750004 10.0485001 -5.91250038
v -6.0005002 7.54599953 -5.56050014
v -6.0005002 7.54599953 -5.56050014
v -3.63549995 4.85649967 -7.16650057
v -2.80500007 7.66699982 -6.98500061
v -3.63549995 4.85649967 -7.16650057
v -6.0005002 7.54599953 -5.56050014
v -7.38100052 3.00849962 -4.95000029
v -4.00949955 -2.75000048 -7.05649996
v -3.63549995 4.85649967 -7.16650057
v -7.38100052 3.00849962 -4.95000029
v 0 -1.7215004 -8.49200058
v -3.63549995 4.85649967 -7.16650057
v -4.00949955 -2.75000048 -7.05649996
v -7.38100052 3.00849962 -4.95000029
v -6.0005002 7.54599953 -5.56050014
v -8.35999966 6.98499966 -5.26900053
v -11.3135004 3.06349993 -3.07450008
v -7.38100052 3.00849962 -4.95000029
v -8.35999966 6.98499966 -5.26900053
v -7.38100052 3.00849962 -4.95000029
v -11.3135004 3.06349993 -3.07450008
v -9.31700039 -0.187000141 -3.102
v -7.02900076 -3.76200032 -3.88849974
v -7.38100052 3.00849962 -4.95000029
v -9.31700039 -0.187000141 -3.102
v -7.02900076 -3.76200032 -3.88849974
v -4.00949955 -2.75000048 -7.05649996
v -7.38100052 3.00849962 -4.95000029
v -7.02900076 -3.76200032 -3.88849974
v -3.41549993 -14.0249996 -5.53849936
v -4.00949955 -2.75000048 -7.05649996
v 0 -13.7005005 -6.6989994
v -4.00949955 -2.75000048 -7.05649996
v -3.41549993 -14.0249996 -5.53849936
v -4.00949955 -2.75000048 -7.05649996
v 0 -13.7005005 -6.6989994
v 0 -1.7215004 -8.49200058
v 0 -13.7005005 -6.6989994
v 4.00949955 -2.75000048 -7.05649996
v 0 -1.7215004 -8.49200058
v -13.2275 -0.824999988 -0.951500058
v -9.31700039 -0.187000141 -3.102
v -11.3135004 3.06349993 -3.07450008
v -9.31700039 -0.187000141 -3.102
v -13.2275 -0.824999988 -0.951500058
v -11.0384998 -4.00400019 -0.857999802
v -7.02900076 -3.76200032 -3.88849974
v -9.31700039 -0.187000141 -3.102
v -11.0384998 -4.00400019 -0.857999802
v -8.73400021 -14.0524998 -1.0394994
v -7.02900076 -3.76200032 -3.88849974
v -11.0384998 -4.00400019 -0.857999802
v -7.02900076 -3.76200032 -3.88849974
v -8.73400021 -14.0524998 -1.0394994
v -6.14349985 -15.2955008 -3.15699959
v -3.41549993 -14.0249996 -5.53849936
v -7.02900076 -3.76200032 -3.88849974
v -6.14349985 -15.2955008 -3.15699959
v -2.86549997 -18.7439995 -4.4824996
v -3.41549993 -14.0249996 -5.53849936
v -6.14349985 -15.2955008 -3.15699959
v -3.41549993 -14.0249996 -5.53849936
v -2.86549997 -18.7439995 -4.4824996
v 0 -13.7005005 -6.6989994
v -11.3135004 3.06349993 -3.07450008
v -14.6245003 1.25400007 -0.99000001
v -13.2275 -0.824999988 -0.951500058
v 9.31700039 -0.187000141 -3.102
v 7.38100052 3.00849962 -4.95000029
v 7.02900076 -3.76200032 -3.88849974
v 4.00949955 -2.75000048 -7.05649996
v 7.02900076 -3.76200032 -3.88849974
v 7.38100052 3.00849962 -4.95000029
v 3.41549993 -14.0249996 -5.53849936
v 7.02900076 -3.76200032 -3.88849974
v 4.00949955 -2.75000048 -7.05649996
v 7.02900076 -3.76200032 -3.88849974
v 3.41549993 -14.0249996 -5.53849936
v 6.14349985 -15.2955008 -3.15699959
v 8.73400021 -14.0524998 -1.0394994
v 7.02900076 -3.76200032 -3.88849974
v 6.14349985 -15.2955008 -3.15699959
v 4.49900007 -20.0090008 -3.17349911
v 8.73400021 -14.0524998 -1.0394994
v 6.14349985 -15.2955008 -3.15699959
v 8.73400021 -14.0524998 -1.0394994
v 4.49900007 -20.0090008 -3.17349911
v 6.72650051 -21.4170017 -1.1439991
v 4.49900007 -20.0090008 -3.17349911
v 3.06900001 -23.8095016 -3.17899895
v 6.72650051 -21.4170017 -1.1439991
v 3.06900001 -23.8095016 -3.17899895
v 4.60900021 -26.1855011 -0.989998877
v 6.72650051 -21.4170017 -1.1439991
v 4.00949955 -2.75000048 -7.05649996
v 0 -13.7005005 -6.6989994
v 3.41549993 -14.0249996 -5.53849936
v 2.86549997 -18.7439995 -4.4824996
v 3.41549993 -14.0249996 -5.53849936
v 0 -13.7005005 -6.6989994
v 3.41549993 -14.0249996 -5.53849936
v 2.86549997 -18.7439995 -4.4824996
v 6.14349985 -15.2955008 -3.15699959
v 2.86549997 -18.7439995 -4.4824996
v 4.49900007 -20.0090008 -3.17349911
v 6.14349985 -15.2955008 -3.15699959
v 2.86549997 -18.7439995 -4.4824996
v 3.06900001 -23.8095016 -3.17899895
v 4.49900007 -20.0090008 -3.17349911
v 3.06900001 -23.8095016 -3.17899895
v 2.86549997 -18.7439995 -4.4824996
v 0 -22.0275002 -4.50449944
v 3.06900001 -23.8095016 -3.17899895
v 0 -22.0275002 -4.50449944
v 0 -26.1139984 -3.03599882
v 3.06900001 -23.8095016 -3.17899895
v 0 -26.1139984 -3.03599882
v 2.85450006 -28.5340004 -0.907498777
v 3.06900001 -23.8095016 -3.17899895
v 2.85450006 -28.5340004 -0.907498777
v 4.60900021 -26.1855011 -0.989998877
v 0 -22.0275002 -4.50449944
v 2.86549997 -18.7439995 -4.4824996
v 0 -13.7005005 -6.6989994
v -2.86549997 -18.7439995 -4.4824996
v 0 -22.0275002 -4.50449944
v 0 -13.7005005 -6.6989994
v 0 -22.0275002 -4.50449944
v -2.86549997 -18.7439995 -4.4824996
v -3.06900001 -23.8095016 -3.17899895
v 0 -26.1139984 -3.03599882
v 0 -22.0275002 -4.50449944
v -3.06900001 -23.8095016 -3.17899895
v 0 -26.1139984 -3.03599882
v -3.06900001 -23.8095016 -3.17899895
v -2.85450006 -28.5340004 -0.907498777
v 0 -29.4415035 -0.797498703
v 0 -26.1139984 -3.03599882
v -2.85450006 -28.5340004 -0.907498777
v 0 -26.1139984 -3.03599882
v 0 -29.4415035 -0.797498703
v 2.85450006 -28.5340004 -0.907498777
v -3.06900001 -23.8095016 -3.17899895
v -2.86549997 -18.7439995 -4.4824996
v -4.49900007 -20.0090008 -3.17349911
v -3.06900001 -23.8095016 -3.17899895
v -4.49900007 -20.0090008 -3.17349911
v -6.72650051 -21.4170017 -1.1439991
v -4.60900021 -26.1855011 -0.989998877
v -3.06900001 -23.8095016 -3.17899895
v -6.72650051 -21.4170017 -1.1439991
v -4.60900021 -26.1855011 -0.989998877
v -2.85450006 -28.5340004 -0.907498777
v -3.06900001 -23.8095016 -3.17899895
v -4.49900007 -20.0090008 -3.17349911
v -2.86549997 -18.7439995 -4.4824996
v -6.14349985 -15.2955008 -3.15699959
v -8.73400021 -14.0524998 -1.0394994
v -4.49900007 -20.0090008 -3.17349911
v -6.14349985 -15.2955008 -3.15699959
v -4.49900007 -20.0090008 -3.17349911
v -8.73400021 -14.0524998 -1.0394994
v -6.72650051 -21.4170017 -1.1439991

# 265 UV coordinates
vt 0.764500022 0.408399999 0
vt 0.772599995 0.388700008 0
vt 0.793500006 0.372799993 0
vt 0.769599974 0.430400014 0
vt 0.792299986 0.442600012 0
vt 0.829400003 0.445800006 0
vt 0.836099982 0.370700002 0
vt 0.889500022 0.382099986 0
vt 0.886200011 0.435000002 0
vt 0.909699976 0.4102 0
vt 0.94749999 0.39230001 0
vt 0.970600009 0.01910001 0
vt 0.969600022 0.396600008 0
vt 0.947899997 0.018999994 0
vt 0.928600013 0.374800026 0
vt 0.930299997 0.018999994 0
vt 0.902800024 0.34799999 0
vt 0.899800003 0.01880002 0
vt 0.861800015 0.307099998 0
vt 0.863799989 0.018700004 0
vt 0.832499981 0.289699972 0
vt 0.832499981 0.018700004 0
vt 0.799700022 0.018700004 0
vt 0.800999999 0.30400002 0
vt 0.763599992 0.018599987 0
vt 0.763000011 0.343200028 0
vt 0.734600008 0.018599987 0
vt 0.734000027 0.37440002 0
vt 0.712100029 0.01849997 0
vt 0.712899983 0.390200019 0
vt 0.691600025 0.018599987 0
vt 0.692499995 0.396099985 0
vt 0.981299996 0.678499997 0
vt 0.869899988 0.760399997 0
vt 0.953199983 0.760299996 0
vt 0.841600001 0.678600013 0
vt 0.981299996 0.646800011 0
vt 0.841600001 0.646899998 0
vt 0.0291000009 0.388199985 0
vt 0.0476999991 0.424399972 0
vt 0.0478000008 0.388499975 0
vt 0.0273000002 0.424099982 0
vt 0.0258000009 0.459100008 0
vt 0.0472999997 0.461399972 0
vt 0.0230999999 0.521499991 0
vt 0.0467000008 0.521800011 0
vt 0.023 0.612699986 0
vt 0.0467000008 0.613099992 0
vt 0.0234999992 0.735900015 0
vt 0.0472000018 0.736299992 0
vt 0.0487000011 0.771699995 0
vt 0.0217000004 0.782000005 0
vt 0.0496999994 0.812299997 0
vt 0.0208000001 0.811900005 0
vt 0.0182000007 0.988 0
vt 0.0496999994 0.9884 0
vt 0.949199975 0.565299988 0
vt 0.873600006 0.565400004 0
vt 0.294999987 0.718600005 0
vt 0.33039999 0.724999994 0
vt 0.361400008 0.705199987 0
vt 0.298400015 0.739399999 0
vt 0.236499995 0.743800014 0
vt 0.231099993 0.720099986 0
vt 0.173299998 0.721500009 0
vt 0.0662999973 0.949999999 0
vt 0.145999998 0.9848 0
vt 0.063500002 0.9847 0
vt 0.146699995 0.951000001 0
vt 0.0887999982 0.905900002 0
vt 0.146899998 0.906599998 0
vt 0.118100002 0.876800001 0
vt 0.1417 0.877099998 0
vt 0.1193 0.813500002 0
vt 0.142900005 0.813899994 0
vt 0.122599997 0.738599986 0
vt 0.146200001 0.738900006 0
vt 0.145300001 0.691700011 0
vt 0.121699996 0.691300005 0
vt 0.123499997 0.62349999 0
vt 0.147200003 0.623800009 0
vt 0.148200005 0.600400001 0
vt 0.114699997 0.599900007 0
vt 0.119800001 0.528899997 0
vt 0.151299998 0.529300004 0
vt 0.849900007 0.934699997 0
vt 0.917800009 0.933700003 0
vt 0.925300002 0.9115 0
vt 0.915300012 0.841199994 0
vt 0.764900029 0.770199999 0
vt 0.745700002 0.876599997 0
vt 0.803300023 0.942400001 0
vt 0.698300004 0.930399999 0
vt 0.733200014 0.967999998 0
vt 0.672200024 0.981699999 0
vt 0.660099983 0.954500001 0
vt 0.790799975 0.716600001 0
vt 0.730799973 0.737599999 0
vt 0.713699996 0.852699995 0
vt 0.673399985 0.904200003 0
vt 0.635699987 0.9186 0
vt 0.649299979 0.887199998 0
vt 0.622900009 0.876900002 0
vt 0.601599991 0.908699997 0
vt 0.770299971 0.682200015 0
vt 0.685500026 0.625699997 0
vt 0.668900013 0.73089999 0
vt 0.650699973 0.795200005 0
vt 0.601800025 0.873300001 0
vt 0.58069998 0.876599997 0
vt 0.567300022 0.918099999 0
vt 0.755900025 0.649599999 0
vt 0.729499996 0.52610001 0
vt 0.678499997 0.557999998 0
vt 0.603799999 0.591800004 0
vt 0.650300026 0.668799996 0
vt 0.602900028 0.720499992 0
vt 0.602500021 0.775800005 0
vt 0.554099977 0.794599995 0
vt 0.656799972 0.454200029 0
vt 0.603999972 0.552599996 0
vt 0.529500008 0.557000011 0
vt 0.521600008 0.624599993 0
vt 0.556200027 0.668099999 0
vt 0.603399992 0.65079999 0
vt 0.698499978 0.436399996 0
vt 0.667500019 0.381500006 0
vt 0.636699975 0.398599982 0
vt 0.604600012 0.470099986 0
vt 0.552600026 0.453599989 0
vt 0.479000002 0.524500012 0
vt 0.641499996 0.352800012 0
vt 0.605099976 0.384500027 0
vt 0.573400021 0.398199975 0
vt 0.542800009 0.380699992 0
vt 0.511099994 0.435100019 0
vt 0.605400026 0.342299998 0
vt 0.569199979 0.352299988 0
vt 0.450899988 0.647500008 0
vt 0.436100006 0.679899991 0
vt 0.474700004 0.735799998 0
vt 0.536800027 0.729999989 0
vt 0.414999992 0.7139 0
vt 0.440299988 0.767900005 0
vt 0.4903 0.851099998 0
vt 0.288800001 0.836799994 0
vt 0.352899998 0.931199998 0
vt 0.457899988 0.874599993 0
vt 0.504499972 0.929099999 0
vt 0.529799998 0.903200001 0
vt 0.554199994 0.886500001 0
vt 0.277799994 0.906900004 0
vt 0.284999996 0.929300003 0
vt 0.542400002 0.953699999 0
vt 0.529900014 0.980699999 0
vt 0.469099998 0.9661 0
vt 0.399300009 0.9395 0
vt 0.962899983 0.50029999 0
vt 0.95569998 0.521899998 0
vt 0.957700014 0.480499983 0
vt 0.942600012 0.533600003 0
vt 0.941999972 0.464399993 0
vt 0.913100004 0.461799979 0
vt 0.912400007 0.537499994 0
vt 0.878000021 0.526800007 0
vt 0.878700018 0.472500026 0
vt 0.861299992 0.50029999 0
vt 0.534300029 0.292500019 0
vt 0.487699986 0.270900011 0
vt 0.520399988 0.319400012 0
vt 0.500500023 0.250400007 0
vt 0.443800002 0.222899973 0
vt 0.435600013 0.272199988 0
vt 0.467000008 0.31220001 0
vt 0.498299986 0.361699998 0
vt 0.438800007 0.355599999 0
vt 0.463999987 0.484499991 0
vt 0.570500016 0.20630002 0
vt 0.515500009 0.168099999 0
vt 0.475899994 0.200900018 0
vt 0.448799998 0.146000028 0
vt 0.527800024 0.101400018 0
vt 0.452199996 0.08069998 0
vt 0.658100009 0.166599989 0
vt 0.600700021 0.102500021 0
vt 0.665700018 0.095899999 0
vt 0.659099996 0.071500003 0
vt 0.591400027 0.067499995 0
vt 0.545300007 0.057699978 0
vt 0.47420001 0.034799993 0
vt 0.413100004 0.019400001 0
vt 0.397000015 0.057099998 0
vt 0.440899998 0.114099979 0
vt 0.370799989 0.0995 0
vt 0.43900001 0.146899998 0
vt 0.369500011 0.164499998 0
vt 0.395900011 0.18779999 0
vt 0.46540001 0.197899997 0
vt 0.33829999 0.114099979 0
vt 0.33829999 0.153199971 0
vt 0.33829999 0.196500003 0
vt 0.360300004 0.199299991 0
vt 0.372599989 0.217499971 0
vt 0.414799988 0.217299998 0
vt 0.307099998 0.164499998 0
vt 0.316300005 0.199299991 0
vt 0.33829999 0.216400027 0
vt 0.33829999 0.250500023 0
vt 0.382800013 0.25059998 0
vt 0.305900007 0.0995 0
vt 0.2377 0.146899998 0
vt 0.280699998 0.18779999 0
vt 0.30399999 0.217499971 0
vt 0.293799996 0.25059998 0
vt 0.33829999 0.327099979 0
vt 0.388099998 0.34009999 0
vt 0.235699996 0.114099979 0
vt 0.279599994 0.057099998 0
vt 0.224399999 0.08069998 0
vt 0.263500005 0.019400001 0
vt 0.202500001 0.034799993 0
vt 0.148800001 0.101400018 0
vt 0.227799997 0.146000028 0
vt 0.161200002 0.168099999 0
vt 0.2007 0.200900018 0
vt 0.176200002 0.250400007 0
vt 0.131300002 0.057699978 0
vt 0.0759000033 0.102500021 0
vt 0.1061 0.20630002 0
vt 0.142299995 0.292500019 0
vt 0.188899994 0.270799994 0
vt 0.232899994 0.222899973 0
vt 0.211300001 0.197899997 0
vt 0.0852999985 0.067499995 0
vt 0.0175000001 0.071500003 0
vt 0.0109999999 0.095899999 0
vt 0.0185000002 0.166599989 0
vt 0.261900008 0.217299998 0
vt 0.240999997 0.272199988 0
vt 0.288500011 0.34009999 0
vt 0.209600002 0.31220001 0
vt 0.237800002 0.355599999 0
vt 0.295700014 0.474600017 0
vt 0.33829999 0.468599975 0
vt 0.156200007 0.319400012 0
vt 0.178299993 0.361699998 0
vt 0.212599993 0.484499991 0
vt 0.254599988 0.494700015 0
vt 0.301800013 0.532000005 0
vt 0.380899996 0.474600017 0
vt 0.422100008 0.494700015 0
vt 0.397599995 0.550700009 0
vt 0.430500001 0.573399991 0
vt 0.375999987 0.594099998 0
vt 0.398499995 0.630299985 0
vt 0.374799997 0.532000005 0
vt 0.33829999 0.569200009 0
vt 0.33829999 0.620299995 0
vt 0.374199986 0.657099992 0
vt 0.300700009 0.594099998 0
vt 0.30250001 0.657099992 0
vt 0.33829999 0.667600006 0
vt 0.279000014 0.550700009 0
vt 0.246099994 0.573399991 0
vt 0.278200001 0.630299985 0

# 313 vertex normals
vn 0.76590234 -0.642901897 -0.00839999691
vn 0.749915302 -0.661513507 -0.00520007778
vn 0.764900923 -0.644100785 -0.00779998116
vn 0.741413355 -0.671012044 -0.00700009707
vn 0.725191057 -0.688491344 0.00879992079
vn 0.734207392 -0.678906798 0.00500007998
vn 0.724987388 -0.68838799 0.0226996336
vn 0.720273554 -0.692974508 0.0314988755
vn 0.726727486 -0.686225951 0.0310012009
vn -0.901201129 0.000599981868 -0.433400571
vn -0.972449541 -0.000800050911 -0.233111873
vn -0.988789022 -0.00599994045 -0.149198353
vn -0.775874674 0.0030998711 -0.630879402
vn -0.489305437 0.00219998625 -0.872109652
vn -0.31418699 0.000899921171 -0.949360609
vn 0.0173008516 -0.00150011759 -0.99984926
vn 0.154107541 -0.00340020959 -0.988048255
vn 0.507977724 -0.00369987567 -0.861362278
vn 0.705101848 -0.00240003737 -0.709101856
vn 0.999865472 0.000299988926 -0.0163994338
vn 0.999994874 -0.00269998633 -0.00169999117
vn 0.72062397 0.00200009719 0.693323135
vn 0.523319423 0.00290014478 0.852131546
vn 0.166393101 0.000700014003 0.986059129
vn 0.035798531 4.36833716e-08 0.999359071
vn -0.314787477 4.14891979e-08 0.949162185
vn -0.557603776 -0.00169997523 0.830105603
vn -0.838494956 -0.00369995367 0.544896722
vn -0.920551479 -0.00569968205 0.390579402
vn -0.96778816 -0.00589991733 0.251696974
vn -0.967580259 -0.00589986891 0.252494872
vn 0 0.75477767 -0.655980647
vn 0 0.497871608 -0.867250621
vn 0 0.944680095 -0.327993155
vn 0 0.89442724 0.44721356
vn 0 0.44721362 0.894427061
vn 0 -1 4.37113883e-08
vn -0.58111304 -0.813818276 0.002700096
vn -0.579780579 -0.814772606 3.56148462e-08
vn -0.844479859 -0.535587251 0.000200018651
vn -0.882715285 -0.469908118 0.000200024006
vn -0.933647215 -0.358179718 -0.00319980318
vn -0.950634956 -0.310311437 1.35641427e-08
vn -0.968273342 -0.249893129 1.09231753e-08
vn -0.971583664 -0.23669602 1.03463105e-08
vn -0.917440712 -0.397817612 0.00660030963
vn -0.919320822 -0.393508911 1.72008203e-08
vn -0.825533628 -0.564122975 0.0161006805
vn -0.823981822 -0.566387475 0.016099669
vn -0.745114565 -0.666913033 0.00560013857
vn -0.748610914 -0.663009644 2.89810718e-08
vn -0.653997242 -0.756496847 3.30675292e-08
vn -0.765992343 -0.642793477 -0.00849988777
vn -0.766082823 -0.642685592 -0.0084997816
vn -0.765311897 -0.643609941 -0.00800009631
vn -0.7458722 -0.66607517 -0.00429981109
vn -0.741413355 -0.671012044 -0.00700009707
vn -0.725191057 -0.688491344 0.00879992079
vn -0.734207392 -0.678906798 0.00500007998
vn -0.724987388 -0.68838799 0.0226996336
vn -0.720273554 -0.692974508 0.0314988755
vn -0.726727486 -0.686225951 0.0310012009
vn 0.972449541 -0.000800050911 -0.233111873
vn 0.901201129 0.000599981868 -0.433400571
vn 0.988789022 -0.00599994045 -0.149198353
vn 0.775874674 0.0030998711 -0.630879402
vn 0.489305437 0.00219998625 -0.872109652
vn 0.31418699 0.000899921171 -0.949360609
vn -0.0173008516 -0.00150011759 -0.99984926
vn -0.154107541 -0.00340020959 -0.988048255
vn -0.507977724 -0.00369987567 -0.861362278
vn -0.705101848 -0.00240003737 -0.709101856
vn -0.999865472 0.000299988926 -0.0163994338
vn -0.999994874 -0.00269998633 -0.00169999117
vn -0.72062397 0.00200009719 0.693323135
vn -0.523319423 0.00290014478 0.852131546
vn -0.166393101 0.000700014003 0.986059129
vn -0.035798531 4.36833716e-08 0.999359071
vn 0.314787477 4.14891979e-08 0.949162185
vn 0.557603776 -0.00169997523 0.830105603
vn 0.838494956 -0.00369995367 0.544896722
vn 0.920551479 -0.00569968205 0.390579402
vn 0.96778816 -0.00589991733 0.251696974
vn 0.967580259 -0.00589986891 0.252494872
vn 0 4.37113883e-08 1
vn -0.956401527 0.190700293 -0.221200392
vn -0.956819654 -0.0238005035 -0.289705962
vn -0.910385549 -0.0705989003 -0.407693535
vn -0.962784886 0.214596629 -0.164297417
vn -0.909525156 0.392210811 -0.137603819
vn -0.912079275 0.389391124 -0.128397092
vn -0.912114859 0.389306337 -0.128402099
vn 0.956819654 -0.0238005035 -0.289705962
vn 0.956401527 0.190700293 -0.221200392
vn 0.910385549 -0.0705989003 -0.407693535
vn 0.962784886 0.214596629 -0.164297417
vn 0.909525156 0.392210811 -0.137603819
vn 0.912079275 0.389391124 -0.128397092
vn 0.912114859 0.389306337 -0.128402099
vn 0.653997242 -0.756496847 3.30675292e-08
vn 0.745114565 -0.666913033 0.00560013857
vn 0.748610914 -0.663009644 2.89810718e-08
vn 0.823981822 -0.566387475 0.016099669
vn 0.825533628 -0.564122975 0.0161006805
vn 0.917440712 -0.397817612 0.00660030963
vn 0.919320822 -0.393508911 1.72008203e-08
vn 0.971583664 -0.23669602 1.03463105e-08
vn 0.968273342 -0.249893129 1.09231753e-08
vn 0.950634956 -0.310311437 1.35641427e-08
vn 0.933647215 -0.358179718 -0.00319980318
vn 0.882715285 -0.469908118 0.000200024006
vn 0.844479859 -0.535587251 0.000200018651
vn 0.58111304 -0.813818276 0.002700096
vn 0.579780579 -0.814772606 3.56148462e-08
vn -0.566202879 0.824204087 -0.0101000862
vn 0 0.999876797 -0.015699679
vn 0 0.999494255 -0.031799864
vn -0.724877119 0.688878238 -3.01118241e-08
vn -0.880583405 0.47389105 -2.07144346e-08
vn -0.901201308 0.433400601 -1.89445419e-08
vn -0.680474102 0.732772112 -3.20304885e-08
vn -0.214007035 0.976832092 -4.26986873e-08
vn 0.250104815 0.968218744 -4.23221849e-08
vn 0.297204316 0.954813898 -4.17362394e-08
vn 0.263608128 0.964629769 -4.21653077e-08
vn 0.11059615 0.99386543 -4.34432401e-08
vn 0.608080864 0.793875039 -3.4701376e-08
vn 0.997623444 0.0689016208 -3.01178504e-09
vn 0.986526012 -0.163604319 7.15137149e-09
vn 0.566202879 0.824204087 -0.0101000862
vn 0.724877119 0.688878238 -3.01118241e-08
vn 0.880583405 0.47389105 -2.07144346e-08
vn 0.901201308 0.433400601 -1.89445419e-08
vn 0.680474102 0.732772112 -3.20304885e-08
vn 0.214007035 0.976832092 -4.26986873e-08
vn -0.250104815 0.968218744 -4.23221849e-08
vn -0.297204316 0.954813898 -4.17362394e-08
vn -0.263608128 0.964629769 -4.21653077e-08
vn -0.11059615 0.99386543 -4.34432401e-08
vn -0.608080864 0.793875039 -3.4701376e-08
vn -0.997623444 0.0689016208 -3.01178504e-09
vn -0.986526012 -0.163604319 7.15137149e-09
vn 0.0592993312 0.100298911 0.993188679
vn -0.0125999423 0.0254999269 0.999595404
vn -0.0117003936 0.0282009952 0.999533713
vn 0.147802904 -0.0831015781 0.98551929
vn 0.117999122 -0.0720994249 0.990392745
vn -0.00130001758 0.171902359 0.985113144
vn 0.0276989155 0.205991969 0.978161633
vn -0.0177999176 0.150199339 0.988495469
vn 0.016399933 0.122799538 0.992295861
vn 0.0572015308 0.141203836 0.98832655
vn 0.0326002352 0.0701005384 0.997007132
vn 0.318504661 -0.358505189 0.877512813
vn 0.331899822 -0.0941999033 0.938599348
vn 0.0209989324 0.16749154 0.985649884
vn -0.0646018237 0.186505318 0.980327666
vn -0.0212003328 0.0109002152 0.999715745
vn -0.18969354 0.251191497 0.949167609
vn -0.0901990309 0.212497786 0.972989559
vn 0 -0.00319993962 0.999994874
vn 0.531488597 -0.309793323 0.788383067
vn 0.519483209 -0.130395755 0.844472706
vn 0.289605469 -0.0209003482 0.956917942
vn 0.0231000725 0.327401042 0.944603026
vn 0 0.364501178 0.931202888
vn 0.0901990309 0.212497786 0.972989559
vn 0.0212003328 0.0109002152 0.999715745
vn 0.662694573 -0.324997306 0.674694479
vn 0.713486135 -0.160296887 0.682086825
vn 0.511402726 -0.131600678 0.8492046
vn 0 -0.0436020903 0.999048889
vn 0.284913182 -0.0280012563 0.958144307
vn 0 0.0392012745 0.999231339
vn 0 0.348382443 0.937352538
vn -0.0231000725 0.327401042 0.944603026
vn 0.50368762 -0.253093749 0.82597959
vn 0 -0.17410472 0.984727085
vn -0.511402726 -0.131600678 0.8492046
vn -0.519483209 -0.130395755 0.844472706
vn -0.284913182 -0.0280012563 0.958144307
vn 0 0.0166993849 0.999860525
vn 0.666583121 -0.242793858 0.704782307
vn 0.540037155 -0.336023033 0.771652997
vn 0.380597293 -0.345697522 0.857693911
vn 0 -0.268891722 0.963170469
vn -0.50368762 -0.253093749 0.82597959
vn -0.713486135 -0.160296887 0.682086825
vn 0.338918865 -0.452325195 0.824945986
vn 0 -0.448692918 0.893685997
vn -0.380597293 -0.345697522 0.857693911
vn -0.540037155 -0.336023033 0.771652997
vn -0.666583121 -0.242793858 0.704782307
vn 0 -0.591164231 0.806551218
vn -0.338918865 -0.452325195 0.824945986
vn -0.662694573 -0.324997306 0.674694479
vn -0.531488597 -0.309793323 0.788383067
vn -0.331899822 -0.0941999033 0.938599348
vn -0.289605469 -0.0209003482 0.956917942
vn -0.318504661 -0.358505189 0.877512813
vn -0.117999122 -0.0720994249 0.990392745
vn -0.0209989324 0.16749154 0.985649884
vn -0.147802904 -0.0831015781 0.98551929
vn -0.0592993312 0.100298911 0.993188679
vn 0.00130001758 0.171902359 0.985113144
vn 0.0177999176 0.150199339 0.988495469
vn 0.0646018237 0.186505318 0.980327666
vn 0.18969354 0.251191497 0.949167609
vn 0.0117003936 0.0282009952 0.999533713
vn 0.0125999423 0.0254999269 0.999595404
vn -0.0326002352 0.0701005384 0.997007132
vn -0.0572015308 0.141203836 0.98832655
vn -0.016399933 0.122799538 0.992295861
vn -0.0276989155 0.205991969 0.978161633
vn 0 1 -4.37113883e-08
vn 0.341113091 -0.259009987 -0.903634608
vn 0.418206573 -0.2309037 -0.878513873
vn 0.415697694 -0.284698486 -0.863795221
vn 0.298992515 -0.192795232 -0.934576631
vn 0.218402565 -0.133301631 -0.966711402
vn 0.468678862 -0.113394916 -0.876060367
vn 0.479212403 -0.236906156 -0.845121801
vn 0.535213232 -0.213005289 -0.817420125
vn 0.628232121 -0.136607021 -0.765939176
vn 0.637082458 -0.152895808 -0.755479157
vn 0.206488699 -0.142292276 -0.968047142
vn 0.129398152 -0.0423994325 -0.990685761
vn 0.0750035271 -0.0295014288 -0.996746719
vn 0.0631989166 -0.00599994045 -0.997982919
vn 0.156493366 0.256989062 -0.953659534
vn 0.151994392 0.465182871 -0.872067928
vn 0.178805172 -0.14100413 -0.97372818
vn 0.129400909 0.295602024 -0.946506619
vn 0.16260381 0.169503927 -0.972022831
vn 0.0856022388 0.497512937 -0.863222539
vn 0.0573012121 0.581512272 -0.811517179
vn 0.156790584 0.615663052 -0.772253633
vn 0.188798904 0.594396472 -0.781695485
vn 0.187495902 0.629686177 -0.7538836
vn 0.186194614 0.487785846 -0.852875352
vn 0.154792935 0.366483212 -0.917457998
vn 0.0964025855 0.264607072 -0.959525764
vn 0.0870967656 0.111295819 -0.989963293
vn 0.0974977538 0.218394965 -0.970977783
vn 0.207205966 0.101402864 -0.973027885
vn 0.158100262 -0.177700341 -0.971301615
vn 0 0.19469285 -0.980864227
vn 0 0.260704935 -0.965418458
vn 0 0.292307407 -0.956324339
vn 0.173094779 0.253692329 -0.951671362
vn 0.270996004 0.164697513 -0.948386014
vn 0.315187454 0.0263989065 -0.948662162
vn -0.0974977538 0.218394965 -0.970977783
vn -0.173094779 0.253692329 -0.951671362
vn 0 0.209904641 -0.97772187
vn 0 0.126594141 -0.991954565
vn 0.372090936 0.0747981369 -0.925177515
vn -0.0964025855 0.264607072 -0.959525764
vn -0.0870967656 0.111295819 -0.989963293
vn -0.207205966 0.101402864 -0.973027885
vn -0.270996004 0.164697513 -0.948386014
vn -0.372090936 0.0747981369 -0.925177515
vn 0 -0.0206997506 -0.999785781
vn 0.485718101 -0.0932035074 -0.86913228
vn -0.154792935 0.366483212 -0.917457998
vn -0.186194614 0.487785846 -0.852875352
vn -0.151994392 0.465182871 -0.872067928
vn -0.187495902 0.629686177 -0.7538836
vn -0.188798904 0.594396472 -0.781695485
vn -0.156493366 0.256989062 -0.953659534
vn -0.0631989166 -0.00599994045 -0.997982919
vn -0.129398152 -0.0423994325 -0.990685761
vn -0.0750035271 -0.0295014288 -0.996746719
vn -0.298992515 -0.192795232 -0.934576631
vn -0.156790584 0.615663052 -0.772253633
vn -0.129400909 0.295602024 -0.946506619
vn -0.206488699 -0.142292276 -0.968047142
vn -0.341113091 -0.259009987 -0.903634608
vn -0.418206573 -0.2309037 -0.878513873
vn -0.218402565 -0.133301631 -0.966711402
vn -0.158100262 -0.177700341 -0.971301615
vn -0.0573012121 0.581512272 -0.811517179
vn -0.0856022388 0.497512937 -0.863222539
vn -0.16260381 0.169503927 -0.972022831
vn -0.178805172 -0.14100413 -0.97372818
vn -0.315187454 0.0263989065 -0.948662162
vn -0.468678862 -0.113394916 -0.876060367
vn -0.485718101 -0.0932035074 -0.86913228
vn -0.479212403 -0.236906156 -0.845121801
vn -0.628232121 -0.136607021 -0.765939176
vn -0.509188056 -0.174495935 -0.842780292
vn 0 -0.201689646 -0.979449451
vn -0.415697694 -0.284698486 -0.863795221
vn -0.535213232 -0.213005289 -0.817420125
vn -0.637082458 -0.152895808 -0.755479157
vn -0.61560756 -0.171302125 -0.769209325
vn -0.415106565 -0.224203572 -0.881713867
vn 0.509188056 -0.174495935 -0.842780292
vn 0.61560756 -0.171302125 -0.769209325
vn 0.58463043 -0.196910277 -0.787041008
vn 0.598677516 -0.221791685 -0.769671082
vn 0.428812832 -0.303109109 -0.851025522
vn 0.549781561 -0.344688475 -0.760874569
vn 0.415106565 -0.224203572 -0.881713867
vn 0 -0.277902752 -0.960609257
vn 0 -0.449492127 -0.893284261
vn 0.30960381 -0.464105785 -0.829910338
vn -0.428812832 -0.303109109 -0.851025522
vn -0.30960381 -0.464105785 -0.829910338
vn 0 -0.558202982 -0.829704344
vn -0.58463043 -0.196910277 -0.787041008
vn -0.598677516 -0.221791685 -0.769671082
vn -0.549781561 -0.344688475 -0.760874569

# Mesh 'PipelineFBX' with 414 faces
g PipelineFBX
usemtl DefaultMaterial
f  1/1/1 2/2/1 3/3/2
f  4/3/2 5/4/3 6/1/1
f  7/4/3 8/3/2 9/5/4
f  10/3/2 11/6/5 12/5/4
f  13/6/5 14/3/2 15/7/6
f  16/8/7 17/6/5 18/7/6
f  19/6/5 20/8/7 21/9/8
f  22/10/9 23/9/8 24/8/7
f  25/11/10 26/12/11 27/13/12
f  28/12/11 29/11/10 30/14/13
f  31/15/14 32/14/13 33/11/10
f  34/14/13 35/15/14 36/16/15
f  37/17/16 38/16/15 39/15/14
f  40/16/15 41/17/16 42/18/17
f  43/19/18 44/18/17 45/17/16
f  46/18/17 47/19/18 48/20/19
f  49/21/20 50/20/19 51/19/18
f  52/20/19 53/21/20 54/22/21
f  55/21/20 56/23/22 57/22/21
f  58/23/22 59/21/20 60/24/23
f  61/24/23 62/25/24 63/23/22
f  64/25/24 65/24/23 66/26/25
f  67/26/25 68/27/26 69/25/24
f  70/27/26 71/26/25 72/28/27
f  73/28/27 74/29/28 75/27/26
f  76/29/28 77/28/27 78/30/29
f  79/30/29 80/31/30 81/29/28
f  82/31/30 83/30/29 84/32/31
f  85/33/32 86/34/33 87/35/33
f  88/34/33 89/33/32 90/36/34
f  91/37/35 92/36/34 93/33/32
f  94/36/34 95/37/35 96/38/36
f  97/39/37 98/40/38 99/41/37
f  100/40/38 101/39/37 102/42/39
f  103/43/40 104/40/38 105/42/39
f  106/40/38 107/43/40 108/44/41
f  109/45/42 110/44/41 111/43/40
f  112/44/41 113/45/42 114/46/43
f  115/47/44 116/46/43 117/45/42
f  118/46/43 119/47/44 120/48/45
f  121/49/46 122/48/45 123/47/44
f  124/48/45 125/49/46 126/50/47
f  127/49/46 128/51/48 129/50/47
f  130/51/48 131/49/46 132/52/49
f  133/52/49 134/53/50 135/51/48
f  136/53/50 137/52/49 138/54/51
f  139/55/52 140/53/50 141/54/51
f  142/53/50 143/55/52 144/56/52
f  145/2/53 146/1/54 147/4/55
f  148/4/55 149/3/56 150/2/53
f  151/3/56 152/4/55 153/5/57
f  154/6/58 155/3/56 156/5/57
f  157/3/56 158/6/58 159/7/59
f  160/6/58 161/8/60 162/7/59
f  163/8/60 164/6/58 165/9/61
f  166/9/61 167/10/62 168/8/60
f  169/12/63 170/11/64 171/13/65
f  172/11/64 173/12/63 174/14/66
f  175/14/66 176/15/67 177/11/64
f  178/15/67 179/14/66 180/16/68
f  181/16/68 182/17/69 183/15/67
f  184/17/69 185/16/68 186/18/70
f  187/18/70 188/19/71 189/17/69
f  190/19/71 191/18/70 192/20/72
f  193/20/72 194/21/73 195/19/71
f  196/21/73 197/20/72 198/22/74
f  199/23/75 200/21/73 201/22/74
f  202/21/73 203/23/75 204/24/76
f  205/25/77 206/24/76 207/23/75
f  208/24/76 209/25/77 210/26/78
f  211/27/79 212/26/78 213/25/77
f  214/26/78 215/27/79 216/28/80
f  217/29/81 218/28/80 219/27/79
f  220/28/80 221/29/81 222/30/82
f  223/31/83 224/30/82 225/29/81
f  226/30/82 227/31/83 228/32/84
f  229/38/36 230/57/85 231/58/85
f  232/57/85 233/38/36 234/37/35
f  235/59/86 236/60/87 237/61/88
f  238/60/87 239/59/86 240/62/89
f  241/59/86 242/63/90 243/62/89
f  244/63/90 245/59/86 246/64/91
f  247/63/90 248/64/91 249/65/92
f  250/60/93 251/59/94 252/61/95
f  253/59/94 254/60/93 255/62/96
f  256/63/97 257/59/94 258/62/96
f  259/59/94 260/63/97 261/64/98
f  262/64/98 263/63/97 264/65/99
f  265/55/100 266/53/101 267/56/100
f  268/53/101 269/55/100 270/54/102
f  271/52/103 272/53/101 273/54/102
f  274/53/101 275/52/103 276/51/104
f  277/49/105 278/51/104 279/52/103
f  280/51/104 281/49/105 282/50/106
f  283/49/105 284/48/107 285/50/106
f  286/48/107 287/49/105 288/47/108
f  289/47/108 290/46/109 291/48/107
f  292/46/109 293/47/108 294/45/110
f  295/45/110 296/44/111 297/46/109
f  298/44/111 299/45/110 300/43/112
f  301/43/112 302/40/113 303/44/111
f  304/40/113 305/43/112 306/42/114
f  307/39/37 308/40/113 309/42/114
f  310/40/113 311/39/37 312/41/37
f  313/66/115 314/67/116 315/68/117
f  316/67/116 317/66/115 318/69/118
f  319/70/119 320/69/118 321/66/115
f  322/69/118 323/70/119 324/71/120
f  325/72/121 326/71/120 327/70/119
f  328/71/120 329/72/121 330/73/122
f  331/74/123 332/73/122 333/72/121
f  334/73/122 335/74/123 336/75/124
f  337/76/125 338/75/124 339/74/123
f  340/75/124 341/76/125 342/77/125
f  343/76/125 344/78/126 345/77/125
f  346/78/126 347/76/125 348/79/126
f  349/80/127 350/78/126 351/79/126
f  352/78/126 353/80/127 354/81/127
f  355/80/127 356/82/128 357/81/127
f  358/82/128 359/80/127 360/83/128
f  361/84/129 362/82/128 363/83/128
f  364/82/128 365/84/129 366/85/129
f  367/67/116 368/66/130 369/68/117
f  370/66/130 371/67/116 372/69/131
f  373/69/131 374/70/132 375/66/130
f  376/70/132 377/69/131 378/71/133
f  379/71/133 380/72/134 381/70/132
f  382/72/134 383/71/133 384/73/135
f  385/73/135 386/74/136 387/72/134
f  388/74/136 389/73/135 390/75/137
f  391/75/137 392/76/138 393/74/136
f  394/76/138 395/75/137 396/77/138
f  397/78/139 398/76/138 399/77/138
f  400/76/138 401/78/139 402/79/139
f  403/78/139 404/80/140 405/79/139
f  406/80/140 407/78/139 408/81/140
f  409/82/141 410/80/140 411/81/140
f  412/80/140 413/82/141 414/83/141
f  415/82/141 416/84/142 417/83/141
f  418/84/142 419/82/141 420/85/142
f  421/86/143 422/87/144 423/88/145
f  424/86/143 425/88/145 426/89/146
f  427/90/147 428/86/143 429/89/146
f  430/86/143 431/90/147 432/91/148
f  433/91/148 434/92/149 435/86/143
f  436/91/148 437/93/150 438/92/149
f  439/93/150 440/94/151 441/92/149
f  442/93/150 443/95/152 444/94/151
f  445/95/152 446/93/150 447/96/153
f  448/90/147 449/89/146 450/97/154
f  451/98/155 452/90/147 453/97/154
f  454/99/156 455/90/147 456/98/155
f  457/90/147 458/99/156 459/91/148
f  460/99/156 461/93/150 462/91/148
f  463/93/150 464/99/156 465/100/157
f  466/96/153 467/93/150 468/100/157
f  469/96/153 470/100/157 471/101/158
f  472/102/159 473/101/158 474/100/157
f  475/103/160 476/101/158 477/102/159
f  478/101/158 479/103/160 480/104/161
f  481/98/155 482/97/154 483/105/162
f  484/106/163 485/98/155 486/105/162
f  487/106/163 488/107/164 489/98/155
f  490/108/165 491/98/155 492/107/164
f  493/98/155 494/108/165 495/99/156
f  496/99/156 497/108/165 498/100/157
f  499/102/159 500/100/157 501/108/165
f  502/103/160 503/102/159 504/108/165
f  505/108/165 506/109/166 507/103/160
f  508/103/160 509/109/166 510/104/161
f  511/109/166 512/110/167 513/104/161
f  514/110/167 515/111/168 516/104/161
f  517/105/162 518/112/169 519/106/163
f  520/113/170 521/106/163 522/112/169
f  523/106/163 524/113/170 525/114/171
f  526/114/171 527/115/172 528/106/163
f  529/115/172 530/116/173 531/106/163
f  532/107/164 533/106/163 534/116/173
f  535/116/173 536/117/174 537/107/164
f  538/117/174 539/108/165 540/107/164
f  541/108/165 542/117/174 543/118/175
f  544/109/166 545/108/165 546/118/175
f  547/119/176 548/109/166 549/118/175
f  550/109/166 551/119/176 552/110/167
f  553/113/170 554/120/177 555/114/171
f  556/120/177 557/121/178 558/114/171
f  559/115/172 560/114/171 561/121/178
f  562/122/179 563/115/172 564/121/178
f  565/115/172 566/122/179 567/123/180
f  568/124/181 569/115/172 570/123/180
f  571/115/172 572/124/181 573/125/182
f  574/116/173 575/115/172 576/125/182
f  577/117/174 578/116/173 579/125/182
f  580/120/177 581/113/170 582/126/183
f  583/127/184 584/120/177 585/126/183
f  586/120/177 587/127/184 588/128/185
f  589/128/185 590/129/186 591/120/177
f  592/121/178 593/120/177 594/129/186
f  595/130/187 596/121/178 597/129/186
f  598/121/178 599/130/187 600/122/179
f  601/130/187 602/131/188 603/122/179
f  604/131/188 605/123/180 606/122/179
f  607/127/184 608/132/189 609/128/185
f  610/132/189 611/133/190 612/128/185
f  613/129/186 614/128/185 615/133/190
f  616/134/191 617/129/186 618/133/190
f  619/129/186 620/134/191 621/130/187
f  622/135/192 623/130/187 624/134/191
f  625/130/187 626/135/192 627/136/193
f  628/131/188 629/130/187 630/136/193
f  631/133/190 632/132/189 633/137/194
f  634/138/195 635/133/190 636/137/194
f  637/133/190 638/138/195 639/134/191
f  640/134/191 641/138/195 642/135/192
f  643/123/180 644/131/188 645/139/196
f  646/123/180 647/139/196 648/140/197
f  649/140/197 650/141/198 651/123/180
f  652/142/199 653/123/180 654/141/198
f  655/123/180 656/142/199 657/124/181
f  658/117/174 659/124/181 660/142/199
f  661/124/181 662/117/174 663/125/182
f  664/140/197 665/143/200 666/141/198
f  667/143/200 668/144/201 669/141/198
f  670/144/201 671/145/202 672/141/198
f  673/119/176 674/141/198 675/145/202
f  676/141/198 677/119/176 678/142/199
f  679/119/176 680/117/174 681/142/199
f  682/117/174 683/119/176 684/118/175
f  685/146/203 686/144/201 687/143/200
f  688/147/204 689/144/201 690/146/203
f  691/144/201 692/147/204 693/148/205
f  694/145/202 695/144/201 696/148/205
f  697/149/206 698/145/202 699/148/205
f  700/145/202 701/149/206 702/150/207
f  703/119/176 704/145/202 705/150/207
f  706/150/207 707/151/208 708/119/176
f  709/151/208 710/110/167 711/119/176
f  712/111/168 713/110/167 714/151/208
f  715/152/209 716/147/204 717/146/203
f  718/153/210 719/147/204 720/152/209
f  721/150/207 722/111/168 723/151/208
f  724/111/168 725/150/207 726/154/211
f  727/150/207 728/149/206 729/154/211
f  730/149/206 731/155/212 732/154/211
f  733/155/212 734/149/206 735/156/213
f  736/156/213 737/149/206 738/157/214
f  739/149/206 740/148/205 741/157/214
f  742/157/214 743/148/205 744/147/204
f  745/158/215 746/159/215 747/160/215
f  748/161/215 749/160/215 750/159/215
f  751/160/215 752/161/215 753/162/215
f  754/161/215 755/163/215 756/162/215
f  757/163/215 758/161/215 759/164/215
f  760/165/215 761/163/215 762/164/215
f  763/163/215 764/165/215 765/166/215
f  766/167/215 767/166/215 768/165/215
f  769/159/215 770/158/215 771/160/215
f  772/160/215 773/161/215 774/159/215
f  775/161/215 776/160/215 777/162/215
f  778/163/215 779/161/215 780/162/215
f  781/161/215 782/163/215 783/164/215
f  784/163/215 785/165/215 786/164/215
f  787/165/215 788/163/215 789/166/215
f  790/166/215 791/167/215 792/165/215
f  793/168/216 794/169/217 795/170/218
f  796/169/217 797/168/216 798/171/219
f  799/171/219 800/172/220 801/169/217
f  802/173/221 803/169/217 804/172/220
f  805/169/217 806/173/221 807/174/222
f  808/174/222 809/170/218 810/169/217
f  811/170/218 812/174/222 813/175/223
f  814/174/222 815/176/224 816/175/223
f  817/176/224 818/177/225 819/175/223
f  820/178/226 821/171/219 822/168/216
f  823/171/219 824/178/226 825/179/227
f  826/180/228 827/171/219 828/179/227
f  829/181/229 830/180/228 831/179/227
f  832/182/230 833/181/229 834/179/227
f  835/181/229 836/182/230 837/183/231
f  838/184/232 839/178/226 840/168/216
f  841/184/232 842/185/233 843/178/226
f  844/182/230 845/178/226 846/185/233
f  847/178/226 848/182/230 849/179/227
f  850/185/233 851/184/232 852/186/234
f  853/187/235 854/185/233 855/186/234
f  856/185/233 857/187/235 858/188/236
f  859/189/237 860/185/233 861/188/236
f  862/185/233 863/189/237 864/182/230
f  865/190/238 866/182/230 867/189/237
f  868/182/230 869/190/238 870/183/231
f  871/191/239 872/183/231 873/190/238
f  874/183/231 875/191/239 876/192/240
f  877/183/231 878/192/240 879/193/241
f  880/193/241 881/192/240 882/194/242
f  883/193/241 884/194/242 885/195/243
f  886/196/244 887/195/243 888/194/242
f  889/195/243 890/196/244 891/197/245
f  892/172/220 893/195/243 894/197/245
f  895/195/243 896/172/220 897/198/246
f  898/172/220 899/171/219 900/198/246
f  901/199/247 902/196/244 903/194/242
f  904/196/244 905/199/247 906/200/248
f  907/201/249 908/196/244 909/200/248
f  910/196/244 911/201/249 912/202/250
f  913/196/244 914/202/250 915/197/245
f  916/203/251 917/197/245 918/202/250
f  919/197/245 920/203/251 921/204/252
f  922/197/245 923/204/252 924/172/220
f  925/204/252 926/173/221 927/172/220
f  928/199/247 929/205/253 930/200/248
f  931/205/253 932/201/249 933/200/248
f  934/201/249 935/205/253 936/206/254
f  937/206/254 938/207/255 939/201/249
f  940/207/255 941/202/250 942/201/249
f  943/202/250 944/207/255 945/203/251
f  946/208/256 947/203/251 948/207/255
f  949/203/251 950/208/256 951/209/257
f  952/209/257 953/204/252 954/203/251
f  955/204/252 956/209/257 957/173/221
f  958/205/253 959/199/247 960/210/258
f  961/211/259 962/205/253 963/210/258
f  964/205/253 965/211/259 966/212/260
f  967/205/253 968/212/260 969/206/254
f  970/212/260 971/213/261 972/206/254
f  973/207/255 974/206/254 975/213/261
f  976/213/261 977/208/256 978/207/255
f  979/208/256 980/213/261 981/214/262
f  982/214/262 983/215/263 984/208/256
f  985/215/263 986/209/257 987/208/256
f  988/209/257 989/215/263 990/216/264
f  991/216/264 992/173/221 993/209/257
f  994/210/258 995/217/265 996/211/259
f  997/210/258 998/218/266 999/217/265
f  1000/218/266 1001/219/267 1002/217/265
f  1003/220/268 1004/219/267 1005/218/266
f  1006/219/267 1007/220/268 1008/221/269
f  1009/221/269 1010/222/270 1011/219/267
f  1012/222/270 1013/223/271 1014/219/267
f  1015/223/271 1016/222/270 1017/224/272
f  1018/225/273 1019/223/271 1020/224/272
f  1021/226/274 1022/225/273 1023/224/272
f  1024/222/270 1025/221/269 1026/227/275
f  1027/227/275 1028/228/276 1029/222/270
f  1030/229/277 1031/222/270 1032/228/276
f  1033/222/270 1034/229/277 1035/224/272
f  1036/229/277 1037/226/274 1038/224/272
f  1039/226/274 1040/229/277 1041/230/278
f  1042/230/278 1043/231/279 1044/226/274
f  1045/232/280 1046/226/274 1047/231/279
f  1048/226/274 1049/232/280 1050/233/281
f  1051/232/280 1052/211/259 1053/233/281
f  1054/228/276 1055/227/275 1056/234/282
f  1057/235/283 1058/228/276 1059/234/282
f  1060/228/276 1061/235/283 1062/236/284
f  1063/237/285 1064/228/276 1065/236/284
f  1066/228/276 1067/237/285 1068/229/277
f  1069/229/277 1070/237/285 1071/230/278
f  1072/211/259 1073/232/280 1074/212/260
f  1075/238/286 1076/212/260 1077/232/280
f  1078/213/261 1079/212/260 1080/238/286
f  1081/238/286 1082/214/262 1083/213/261
f  1084/214/262 1085/238/286 1086/239/287
f  1087/240/288 1088/214/262 1089/239/287
f  1090/215/263 1091/214/262 1092/240/288
f  1093/239/287 1094/238/286 1095/232/280
f  1096/231/279 1097/239/287 1098/232/280
f  1099/239/287 1100/231/279 1101/241/289
f  1102/242/290 1103/239/287 1104/241/289
f  1105/242/290 1106/240/288 1107/239/287
f  1108/242/290 1109/243/291 1110/240/288
f  1111/244/292 1112/240/288 1113/243/291
f  1114/240/288 1115/244/292 1116/215/263
f  1117/244/292 1118/216/264 1119/215/263
f  1120/245/293 1121/241/289 1122/231/279
f  1123/241/289 1124/245/293 1125/246/294
f  1126/242/290 1127/241/289 1128/246/294
f  1129/247/295 1130/242/290 1131/246/294
f  1132/242/290 1133/247/295 1134/248/296
f  1135/243/291 1136/242/290 1137/248/296
f  1138/249/297 1139/243/291 1140/248/296
f  1141/243/291 1142/249/297 1143/244/292
f  1144/231/279 1145/230/278 1146/245/293
f  1147/174/222 1148/173/221 1149/176/224
f  1150/216/264 1151/176/224 1152/173/221
f  1153/250/298 1154/176/224 1155/216/264
f  1156/176/224 1157/250/298 1158/251/299
f  1159/177/225 1160/176/224 1161/251/299
f  1162/252/300 1163/177/225 1164/251/299
f  1165/177/225 1166/252/300 1167/253/301
f  1168/252/300 1169/254/302 1170/253/301
f  1171/254/302 1172/255/303 1173/253/301
f  1174/216/264 1175/244/292 1176/250/298
f  1177/256/304 1178/250/298 1179/244/292
f  1180/250/298 1181/256/304 1182/251/299
f  1183/256/304 1184/252/300 1185/251/299
f  1186/256/304 1187/254/302 1188/252/300
f  1189/254/302 1190/256/304 1191/257/305
f  1192/254/302 1193/257/305 1194/258/306
f  1195/254/302 1196/258/306 1197/259/307
f  1198/254/302 1199/259/307 1200/255/303
f  1201/257/305 1202/256/304 1203/244/292
f  1204/249/297 1205/257/305 1206/244/292
f  1207/257/305 1208/249/297 1209/260/308
f  1210/258/306 1211/257/305 1212/260/308
f  1213/258/306 1214/260/308 1215/261/309
f  1216/262/310 1217/258/306 1218/261/309
f  1219/258/306 1220/262/310 1221/259/307
f  1222/260/308 1223/249/297 1224/263/311
f  1225/260/308 1226/263/311 1227/264/312
f  1228/265/313 1229/260/308 1230/264/312
f  1231/265/313 1232/261/309 1233/260/308
f  1234/263/311 1235/249/297 1236/248/296
f  1237/247/295 1238/263/311 1239/248/296
f  1240/263/311 1241/247/295 1242/264/312

