# File produced by Open Asset Import Library (http://www.assimp.sf.net)
# (assimp v6.0.0)

mtllib platform_gun.mtl

# 540 vertex positions
v -5.23000002 5.23000002 13.6099997
v -7.38999987 0 9.30000019
v -7.38999987 0 13.6099997
v -7.38999987 0 9.30000019
v -5.23000002 5.23000002 13.6099997
v -5.23000002 5.23000002 9.30000019
v 0 7.38999987 13.6099997
v -5.23000002 5.23000002 9.30000019
v -5.23000002 5.23000002 13.6099997
v -5.23000002 5.23000002 9.30000019
v 0 7.38999987 13.6099997
v 0 7.38999987 9.30000019
v 5.23000002 5.23000002 13.6099997
v 0 7.38999987 9.30000019
v 0 7.38999987 13.6099997
v 0 7.38999987 9.30000019
v 5.23000002 5.23000002 13.6099997
v 5.23000002 5.23000002 9.30000019
v 7.38999987 0 13.6099997
v 5.23000002 5.23000002 9.30000019
v 5.23000002 5.23000002 13.6099997
v 5.23000002 5.23000002 9.30000019
v 7.38999987 0 13.6099997
v 7.38999987 0 9.30000019
v 5.23000002 -5.23000002 13.6099997
v 7.38999987 0 9.30000019
v 7.38999987 0 13.6099997
v 7.38999987 0 9.30000019
v 5.23000002 -5.23000002 13.6099997
v 5.23000002 -5.23000002 9.30000019
v 0 -7.38999987 13.6099997
v 5.23000002 -5.23000002 9.30000019
v 5.23000002 -5.23000002 13.6099997
v 5.23000002 -5.23000002 9.30000019
v 0 -7.38999987 13.6099997
v 0 -7.38999987 9.30000019
v -5.23000002 -5.23000002 13.6099997
v 0 -7.38999987 9.30000019
v 0 -7.38999987 13.6099997
v 0 -7.38999987 9.30000019
v -5.23000002 -5.23000002 13.6099997
v -5.23000002 -5.23000002 9.30000019
v -7.38999987 0 13.6099997
v -5.23000002 -5.23000002 9.30000019
v -5.23000002 -5.23000002 13.6099997
v -5.23000002 -5.23000002 9.30000019
v -7.38999987 0 13.6099997
v -7.38999987 0 9.30000019
v 7.38999987 1.68999994 22.6900005
v 10.3200006 13.2400007 19.7699986
v 7.38999987 13.2400007 22.6900005
v 10.3200006 13.2400007 19.7699986
v 7.38999987 1.68999994 22.6900005
v 10.3200006 1.68999994 19.7699986
v 10.3200006 1.68999994 12.4499998
v 10.3200006 13.2400007 19.7699986
v 10.3200006 1.68999994 19.7699986
v 10.3200006 13.2400007 19.7699986
v 10.3200006 1.68999994 12.4499998
v 10.3200006 13.2400007 12.4499998
v 12.3999996 7.80000019 15.1999998
v 10.3200006 3.68000007 14.7400007
v 10.3200006 10.9899998 14.7400007
v 10.3200006 3.68000007 14.7400007
v 12.3999996 7.80000019 15.1999998
v 12.3999996 3.8499999 15.1999998
v 2.71000004 -9.36999989 19.4000015
v 6.19000006 -6.15999985 21.7700005
v 2.71000004 -6.15999985 21.7700005
v 6.19000006 -6.15999985 21.7700005
v 2.71000004 -9.36999989 19.4000015
v 8.07000065 -9.36999989 19.4000015
v 2.71000004 -13.5500002 16.2300014
v 8.07000065 -9.36999989 19.4000015
v 2.71000004 -9.36999989 19.4000015
v 8.07000065 -9.36999989 19.4000015
v 2.71000004 -13.5500002 16.2300014
v 8.07000065 -13.5500002 16.2300014
v 2.71000004 -6.15999985 21.7700005
v 6.19000006 1.68999994 21.7700005
v 2.71000004 1.68999994 21.7700005
v 6.19000006 1.68999994 21.7700005
v 2.71000004 -6.15999985 21.7700005
v 6.19000006 -6.15999985 21.7700005
v 8.07000065 -13.5500002 12.5300007
v 2.71000004 1.68999994 12.5300007
v 8.07000065 1.68999994 12.5300007
v 2.71000004 1.68999994 12.5300007
v 8.07000065 -13.5500002 12.5300007
v 2.71000004 -13.5500002 12.5300007
v -10.3200006 13.2400007 12.4499998
v 10.3200006 13.2400007 19.7699986
v 10.3200006 13.2400007 12.4499998
v 10.3200006 13.2400007 19.7699986
v -10.3200006 13.2400007 12.4499998
v -10.3200006 13.2400007 19.7699986
v -7.38999987 13.2400007 22.6900005
v 10.3200006 13.2400007 19.7699986
v -10.3200006 13.2400007 19.7699986
v 10.3200006 13.2400007 19.7699986
v -7.38999987 13.2400007 22.6900005
v 7.38999987 13.2400007 22.6900005
v 2.76999998 -6.39000034 14.3000011
v -2.76999998 1.68999994 14.3000011
v 2.76999998 1.68999994 14.3000011
v -2.76999998 1.68999994 14.3000011
v 2.76999998 -6.39000034 14.3000011
v -2.76999998 -6.39000034 14.3000011
v 10.3200006 1.68999994 12.4499998
v -10.3200006 13.2400007 12.4499998
v 10.3200006 13.2400007 12.4499998
v -10.3200006 13.2400007 12.4499998
v 10.3200006 1.68999994 12.4499998
v -10.3200006 1.68999994 12.4499998
v -10.3200006 3.68000007 14.7400007
v -12.3999996 7.80000019 15.1999998
v -10.3200006 10.9899998 14.7400007
v -12.3999996 7.80000019 15.1999998
v -10.3200006 3.68000007 14.7400007
v -12.3999996 3.8499999 15.1999998
v -2.71000004 -13.5500002 16.2300014
v -8.07000065 -9.36999989 19.4000015
v -8.07000065 -13.5500002 16.2300014
v -8.07000065 -9.36999989 19.4000015
v -2.71000004 -13.5500002 16.2300014
v -2.71000004 -9.36999989 19.4000015
v -2.71000004 -9.36999989 19.4000015
v -6.19000006 -6.15999985 21.7700005
v -8.07000065 -9.36999989 19.4000015
v -6.19000006 -6.15999985 21.7700005
v -2.71000004 -9.36999989 19.4000015
v -2.71000004 -6.15999985 21.7700005
v -2.71000004 1.68999994 12.5300007
v -2.71000004 -13.5500002 16.2300014
v -2.71000004 -13.5500002 12.5300007
v -2.71000004 -13.5500002 16.2300014
v -2.71000004 1.68999994 12.5300007
v -2.71000004 1.68999994 16.2300014
v -2.71000004 1.68999994 16.2300014
v -2.71000004 -9.36999989 19.4000015
v -2.71000004 -13.5500002 16.2300014
v -2.71000004 -9.36999989 19.4000015
v -2.71000004 1.68999994 16.2300014
v -2.71000004 1.68999994 19.4000015
v -2.71000004 1.68999994 19.4000015
v -2.71000004 -6.15999985 21.7700005
v -2.71000004 -9.36999989 19.4000015
v -2.71000004 -6.15999985 21.7700005
v -2.71000004 1.68999994 19.4000015
v -2.71000004 1.68999994 21.7700005
v -12.3999996 3.8499999 16.6999989
v -12.3999996 7.80000019 15.1999998
v -12.3999996 3.8499999 15.1999998
v -12.3999996 7.80000019 15.1999998
v -12.3999996 3.8499999 16.6999989
v -12.3999996 7.80000019 16.6999989
v 10.3200006 3.68000007 17.1599998
v 12.3999996 3.8499999 15.1999998
v 12.3999996 3.8499999 16.6999989
v 12.3999996 3.8499999 15.1999998
v 10.3200006 3.68000007 17.1599998
v 10.3200006 3.68000007 14.7400007
v 2.71000004 1.68999994 19.4000015
v 2.71000004 -6.15999985 21.7700005
v 2.71000004 1.68999994 21.7700005
v 2.71000004 -6.15999985 21.7700005
v 2.71000004 1.68999994 19.4000015
v 2.71000004 -9.36999989 19.4000015
v 2.71000004 1.68999994 16.2300014
v 2.71000004 -9.36999989 19.4000015
v 2.71000004 1.68999994 19.4000015
v 2.71000004 -9.36999989 19.4000015
v 2.71000004 1.68999994 16.2300014
v 2.71000004 -13.5500002 16.2300014
v 2.71000004 1.68999994 12.5300007
v 2.71000004 -13.5500002 16.2300014
v 2.71000004 1.68999994 16.2300014
v 2.71000004 -13.5500002 16.2300014
v 2.71000004 1.68999994 12.5300007
v 2.71000004 -13.5500002 12.5300007
v 2.71000004 -13.5500002 12.5300007
v 8.07000065 -13.5500002 16.2300014
v 2.71000004 -13.5500002 16.2300014
v 8.07000065 -13.5500002 16.2300014
v 2.71000004 -13.5500002 12.5300007
v 8.07000065 -13.5500002 12.5300007
v -1.64999998 -38.1900024 15.5
v 0 -6.39000034 14.8100004
v 0 -38.1900024 14.8100004
v 0 -6.39000034 14.8100004
v -1.64999998 -38.1900024 15.5
v -1.64999998 -6.39000034 15.5
v -2.33999991 -38.1900024 17.1499996
v -1.64999998 -6.39000034 15.5
v -1.64999998 -38.1900024 15.5
v -1.64999998 -6.39000034 15.5
v -2.33999991 -38.1900024 17.1499996
v -2.33999991 -6.39000034 17.1499996
v -1.64999998 -38.1900024 18.7999992
v -2.33999991 -6.39000034 17.1499996
v -2.33999991 -38.1900024 17.1499996
v -2.33999991 -6.39000034 17.1499996
v -1.64999998 -38.1900024 18.7999992
v -1.64999998 -6.39000034 18.7999992
v 0 -38.1900024 19.4899998
v -1.64999998 -6.39000034 18.7999992
v -1.64999998 -38.1900024 18.7999992
v -1.64999998 -6.39000034 18.7999992
v 0 -38.1900024 19.4899998
v 0 -6.39000034 19.4899998
v 1.64999998 -38.1900024 18.7999992
v 0 -6.39000034 19.4899998
v 0 -38.1900024 19.4899998
v 0 -6.39000034 19.4899998
v 1.64999998 -38.1900024 18.7999992
v 1.64999998 -6.39000034 18.7999992
v 2.33999991 -38.1900024 17.1499996
v 1.64999998 -6.39000034 18.7999992
v 1.64999998 -38.1900024 18.7999992
v 1.64999998 -6.39000034 18.7999992
v 2.33999991 -38.1900024 17.1499996
v 2.33999991 -6.39000034 17.1499996
v 1.64999998 -38.1900024 15.5
v 2.33999991 -6.39000034 17.1499996
v 2.33999991 -38.1900024 17.1499996
v 2.33999991 -6.39000034 17.1499996
v 1.64999998 -38.1900024 15.5
v 1.64999998 -6.39000034 15.5
v 0 -38.1900024 14.8100004
v 1.64999998 -6.39000034 15.5
v 1.64999998 -38.1900024 15.5
v 1.64999998 -6.39000034 15.5
v 0 -38.1900024 14.8100004
v 0 -6.39000034 14.8100004
v -10.3200006 1.68999994 19.7699986
v 7.38999987 1.68999994 22.6900005
v -7.38999987 1.68999994 22.6900005
v 7.38999987 1.68999994 22.6900005
v -10.3200006 1.68999994 19.7699986
v 10.3200006 1.68999994 19.7699986
v -10.3200006 1.68999994 19.7699986
v 10.3200006 1.68999994 12.4499998
v 10.3200006 1.68999994 19.7699986
v 10.3200006 1.68999994 12.4499998
v -10.3200006 1.68999994 19.7699986
v -10.3200006 1.68999994 12.4499998
v 2.76999998 -6.39000034 20.460001
v -2.76999998 -6.39000034 14.3000011
v 2.76999998 -6.39000034 14.3000011
v -2.76999998 -6.39000034 14.3000011
v 2.76999998 -6.39000034 20.460001
v -2.76999998 -6.39000034 20.460001
v -10.3200006 13.2400007 19.7699986
v -7.38999987 1.68999994 22.6900005
v -7.38999987 13.2400007 22.6900005
v -7.38999987 1.68999994 22.6900005
v -10.3200006 13.2400007 19.7699986
v -10.3200006 1.68999994 19.7699986
v -10.3200006 13.2400007 19.7699986
v -10.3200006 1.68999994 12.4499998
v -10.3200006 1.68999994 19.7699986
v -10.3200006 1.68999994 12.4499998
v -10.3200006 13.2400007 19.7699986
v -10.3200006 13.2400007 12.4499998
v -10.3200006 3.68000007 14.7400007
v -12.3999996 3.8499999 16.6999989
v -12.3999996 3.8499999 15.1999998
v -12.3999996 3.8499999 16.6999989
v -10.3200006 3.68000007 14.7400007
v -10.3200006 3.68000007 17.1599998
v -6.19000006 1.68999994 21.7700005
v -2.71000004 -6.15999985 21.7700005
v -2.71000004 1.68999994 21.7700005
v -2.71000004 -6.15999985 21.7700005
v -6.19000006 1.68999994 21.7700005
v -6.19000006 -6.15999985 21.7700005
v -2.71000004 1.68999994 12.5300007
v -8.07000065 -13.5500002 12.5300007
v -8.07000065 1.68999994 12.5300007
v -8.07000065 -13.5500002 12.5300007
v -2.71000004 1.68999994 12.5300007
v -2.71000004 -13.5500002 12.5300007
v 10.3200006 10.9899998 14.7400007
v 12.3999996 7.80000019 16.6999989
v 12.3999996 7.80000019 15.1999998
v 12.3999996 7.80000019 16.6999989
v 10.3200006 10.9899998 14.7400007
v 10.3200006 10.9899998 17.1599998
v 6.19000006 -6.15999985 21.7700005
v 8.07000065 1.68999994 19.4000015
v 6.19000006 1.68999994 21.7700005
v 8.07000065 1.68999994 19.4000015
v 6.19000006 -6.15999985 21.7700005
v 8.07000065 -9.36999989 19.4000015
v 8.07000065 -9.36999989 19.4000015
v 8.07000065 1.68999994 16.2300014
v 8.07000065 1.68999994 19.4000015
v 8.07000065 1.68999994 16.2300014
v 8.07000065 -9.36999989 19.4000015
v 8.07000065 -13.5500002 16.2300014
v 8.07000065 -13.5500002 12.5300007
v 8.07000065 1.68999994 16.2300014
v 8.07000065 -13.5500002 16.2300014
v 8.07000065 1.68999994 16.2300014
v 8.07000065 -13.5500002 12.5300007
v 8.07000065 1.68999994 12.5300007
v -2.76999998 1.68999994 20.460001
v 2.76999998 -6.39000034 20.460001
v 2.76999998 1.68999994 20.460001
v 2.76999998 -6.39000034 20.460001
v -2.76999998 1.68999994 20.460001
v -2.76999998 -6.39000034 20.460001
v -10.3200006 10.9899998 17.1599998
v -12.3999996 7.80000019 15.1999998
v -12.3999996 7.80000019 16.6999989
v -12.3999996 7.80000019 15.1999998
v -10.3200006 10.9899998 17.1599998
v -10.3200006 10.9899998 14.7400007
v -8.07000065 -13.5500002 16.2300014
v -2.71000004 -13.5500002 12.5300007
v -2.71000004 -13.5500002 16.2300014
v -2.71000004 -13.5500002 12.5300007
v -8.07000065 -13.5500002 16.2300014
v -8.07000065 -13.5500002 12.5300007
v 10.3200006 3.68000007 17.1599998
v 12.3999996 7.80000019 16.6999989
v 10.3200006 10.9899998 17.1599998
v 12.3999996 7.80000019 16.6999989
v 10.3200006 3.68000007 17.1599998
v 12.3999996 3.8499999 16.6999989
v 12.3999996 7.80000019 15.1999998
v 12.3999996 3.8499999 16.6999989
v 12.3999996 3.8499999 15.1999998
v 12.3999996 3.8499999 16.6999989
v 12.3999996 7.80000019 15.1999998
v 12.3999996 7.80000019 16.6999989
v -1.64999998 -38.1900024 18.7999992
v 1.64999998 -38.1900024 18.7999992
v 0 -38.1900024 19.4899998
v 1.64999998 -38.1900024 18.7999992
v -1.64999998 -38.1900024 18.7999992
v -2.33999991 -38.1900024 17.1499996
v -2.33999991 -38.1900024 17.1499996
v 2.33999991 -38.1900024 17.1499996
v 1.64999998 -38.1900024 18.7999992
v 2.33999991 -38.1900024 17.1499996
v -2.33999991 -38.1900024 17.1499996
v -1.64999998 -38.1900024 15.5
v -1.64999998 -38.1900024 15.5
v 1.64999998 -38.1900024 15.5
v 2.33999991 -38.1900024 17.1499996
v 1.64999998 -38.1900024 15.5
v -1.64999998 -38.1900024 15.5
v 0 -38.1900024 14.8100004
v 7.38999987 13.2400007 22.6900005
v -7.38999987 1.68999994 22.6900005
v 7.38999987 1.68999994 22.6900005
v -7.38999987 1.68999994 22.6900005
v 7.38999987 13.2400007 22.6900005
v -7.38999987 13.2400007 22.6900005
v -12.3999996 7.80000019 16.6999989
v -10.3200006 3.68000007 17.1599998
v -10.3200006 10.9899998 17.1599998
v -10.3200006 3.68000007 17.1599998
v -12.3999996 7.80000019 16.6999989
v -12.3999996 3.8499999 16.6999989
v -8.07000065 1.68999994 19.4000015
v -6.19000006 -6.15999985 21.7700005
v -6.19000006 1.68999994 21.7700005
v -6.19000006 -6.15999985 21.7700005
v -8.07000065 1.68999994 19.4000015
v -8.07000065 -9.36999989 19.4000015
v -8.07000065 1.68999994 16.2300014
v -8.07000065 -9.36999989 19.4000015
v -8.07000065 1.68999994 19.4000015
v -8.07000065 -9.36999989 19.4000015
v -8.07000065 1.68999994 16.2300014
v -8.07000065 -13.5500002 16.2300014
v -8.07000065 1.68999994 16.2300014
v -8.07000065 -13.5500002 12.5300007
v -8.07000065 -13.5500002 16.2300014
v -8.07000065 -13.5500002 12.5300007
v -8.07000065 1.68999994 16.2300014
v -8.07000065 1.68999994 12.5300007
v -5.23000002 5.23000002 13.6099997
v -7.38999987 0 13.6099997
v -5.23000002 -5.23000002 13.6099997
v -5.23000002 -5.23000002 13.6099997
v 0 7.38999987 13.6099997
v -5.23000002 5.23000002 13.6099997
v 0 7.38999987 13.6099997
v -5.23000002 -5.23000002 13.6099997
v 0 -7.38999987 13.6099997
v 5.23000002 -5.23000002 13.6099997
v 0 7.38999987 13.6099997
v 0 -7.38999987 13.6099997
v 0 7.38999987 13.6099997
v 5.23000002 -5.23000002 13.6099997
v 5.23000002 5.23000002 13.6099997
v 5.23000002 -5.23000002 13.6099997
v 7.38999987 0 13.6099997
v 5.23000002 5.23000002 13.6099997
v 4.42000008 10.6700001 9.30000019
v 0 11.5500002 9.30000019
v -4.42000008 10.6700001 9.30000019
v -4.42000008 10.6700001 9.30000019
v 8.17000008 8.17000008 9.30000019
v 4.42000008 10.6700001 9.30000019
v 8.17000008 8.17000008 9.30000019
v -4.42000008 10.6700001 9.30000019
v -8.17000008 8.17000008 9.30000019
v -8.17000008 8.17000008 9.30000019
v 10.6700001 4.42000008 9.30000019
v 8.17000008 8.17000008 9.30000019
v 10.6700001 4.42000008 9.30000019
v -8.17000008 8.17000008 9.30000019
v -10.6700001 4.42000008 9.30000019
v -11.5500002 0 9.30000019
v 10.6700001 4.42000008 9.30000019
v -10.6700001 4.42000008 9.30000019
v 10.6700001 4.42000008 9.30000019
v -11.5500002 0 9.30000019
v 11.5500002 0 9.30000019
v -11.5500002 0 9.30000019
v 10.6700001 -4.42000008 9.30000019
v 11.5500002 0 9.30000019
v 10.6700001 -4.42000008 9.30000019
v -11.5500002 0 9.30000019
v -10.6700001 -4.42000008 9.30000019
v -10.6700001 -4.42000008 9.30000019
v 8.17000008 -8.17000008 9.30000019
v 10.6700001 -4.42000008 9.30000019
v 8.17000008 -8.17000008 9.30000019
v -10.6700001 -4.42000008 9.30000019
v -8.17000008 -8.17000008 9.30000019
v -8.17000008 -8.17000008 9.30000019
v 4.42000008 -10.6700001 9.30000019
v 8.17000008 -8.17000008 9.30000019
v 4.42000008 -10.6700001 9.30000019
v -8.17000008 -8.17000008 9.30000019
v -4.42000008 -10.6700001 9.30000019
v -4.42000008 -10.6700001 9.30000019
v 0 -11.5500002 9.30000019
v 4.42000008 -10.6700001 9.30000019
v 12.5900002 -5.22000027 7.29999971
v 11.5500002 0 9.30000019
v 10.6700001 -4.42000008 9.30000019
v 11.5500002 0 9.30000019
v 12.5900002 -5.22000027 7.29999971
v 13.6300001 0 7.29999971
v 13.6300001 0 7.29999971
v 10.6700001 4.42000008 9.30000019
v 11.5500002 0 9.30000019
v 10.6700001 4.42000008 9.30000019
v 13.6300001 0 7.29999971
v 12.5900002 5.22000027 7.29999971
v 12.5900002 5.22000027 7.29999971
v 8.17000008 8.17000008 9.30000019
v 10.6700001 4.42000008 9.30000019
v 8.17000008 8.17000008 9.30000019
v 12.5900002 5.22000027 7.29999971
v 9.64000034 9.64000034 7.29999971
v 9.64000034 9.64000034 7.29999971
v 4.42000008 10.6700001 9.30000019
v 8.17000008 8.17000008 9.30000019
v 10.6700001 -4.42000008 9.30000019
v 9.64000034 -9.64000034 7.29999971
v 12.5900002 -5.22000027 7.29999971
v 9.64000034 -9.64000034 7.29999971
v 10.6700001 -4.42000008 9.30000019
v 8.17000008 -8.17000008 9.30000019
v 8.17000008 -8.17000008 9.30000019
v 5.22000027 -12.5900002 7.29999971
v 9.64000034 -9.64000034 7.29999971
v 5.22000027 -12.5900002 7.29999971
v 8.17000008 -8.17000008 9.30000019
v 4.42000008 -10.6700001 9.30000019
v 4.42000008 -10.6700001 9.30000019
v 0 -13.6300001 7.29999971
v 5.22000027 -12.5900002 7.29999971
v 0 -13.6300001 7.29999971
v 4.42000008 -10.6700001 9.30000019
v 0 -11.5500002 9.30000019
v 0 -11.5500002 9.30000019
v -5.22000027 -12.5900002 7.29999971
v 0 -13.6300001 7.29999971
v -5.22000027 -12.5900002 7.29999971
v 0 -11.5500002 9.30000019
v -4.42000008 -10.6700001 9.30000019
v -4.42000008 -10.6700001 9.30000019
v -9.64000034 -9.64000034 7.29999971
v -5.22000027 -12.5900002 7.29999971
v -9.64000034 -9.64000034 7.29999971
v -4.42000008 -10.6700001 9.30000019
v -8.17000008 -8.17000008 9.30000019
v -8.17000008 -8.17000008 9.30000019
v -12.5900002 -5.22000027 7.29999971
v -9.64000034 -9.64000034 7.29999971
v -12.5900002 -5.22000027 7.29999971
v -8.17000008 -8.17000008 9.30000019
v -10.6700001 -4.42000008 9.30000019
v -10.6700001 -4.42000008 9.30000019
v -13.6300001 0 7.29999971
v -12.5900002 -5.22000027 7.29999971
v -13.6300001 0 7.29999971
v -10.6700001 -4.42000008 9.30000019
v -11.5500002 0 9.30000019
v -11.5500002 0 9.30000019
v -12.5900002 5.22000027 7.29999971
v -13.6300001 0 7.29999971
v -12.5900002 5.22000027 7.29999971
v -11.5500002 0 9.30000019
v -10.6700001 4.42000008 9.30000019
v -10.6700001 4.42000008 9.30000019
v -9.64000034 9.64000034 7.29999971
v -12.5900002 5.22000027 7.29999971
v -9.64000034 9.64000034 7.29999971
v -10.6700001 4.42000008 9.30000019
v -8.17000008 8.17000008 9.30000019
v -8.17000008 8.17000008 9.30000019
v -5.22000027 12.5900002 7.29999971
v -9.64000034 9.64000034 7.29999971
v -5.22000027 12.5900002 7.29999971
v -8.17000008 8.17000008 9.30000019
v -4.42000008 10.6700001 9.30000019
v -4.42000008 10.6700001 9.30000019
v 0 13.6300001 7.29999971
v -5.22000027 12.5900002 7.29999971
v 0 13.6300001 7.29999971
v -4.42000008 10.6700001 9.30000019
v 0 11.5500002 9.30000019
v 0 11.5500002 9.30000019
v 5.22000027 12.5900002 7.29999971
v 0 13.6300001 7.29999971
v 5.22000027 12.5900002 7.29999971
v 0 11.5500002 9.30000019
v 4.42000008 10.6700001 9.30000019
v 4.42000008 10.6700001 9.30000019
v 9.64000034 9.64000034 7.29999971
v 5.22000027 12.5900002 7.29999971

# 188 UV coordinates
vt 0.42809999 0.611800015 0
vt 0.488099992 0.690500021 0
vt 0.42809999 0.690500021 0
vt 0.488099992 0.611800015 0
vt 0.42809999 0.532999992 0
vt 0.488099992 0.532999992 0
vt 0.42809999 0.4542 0
vt 0.488099992 0.4542 0
vt 0.42809999 0.375499994 0
vt 0.488099992 0.375499994 0
vt 0.42809999 0.296700001 0
vt 0.488099992 0.296700001 0
vt 0.42809999 0.217899993 0
vt 0.488099992 0.217999995 0
vt 0.428200006 0.139200002 0
vt 0.488099992 0.139200002 0
vt 0.428200006 0.0604000017 0
vt 0.488099992 0.0604999997 0
vt 0.832700014 0.166500002 0
vt 0.673500001 0.109499998 0
vt 0.673500001 0.166500002 0
vt 0.832700014 0.109499998 0
vt 0.832700014 0.00870000012 0
vt 0.673500001 0.00870000012 0
vt 0.249500006 0.853299975 0
vt 0.192100003 0.882499993 0
vt 0.29370001 0.882499993 0
vt 0.194700003 0.853299975 0
vt 0.273600012 0.204600006 0
vt 0.3213 0.148800001 0
vt 0.273600012 0.148800001 0
vt 0.347000003 0.204600006 0
vt 0.273600012 0.278100014 0
vt 0.347000003 0.278100014 0
vt 0.324900001 0.0184000004 0
vt 0.277799994 0.128399998 0
vt 0.324900001 0.128399998 0
vt 0.277799994 0.0184000004 0
vt 0.103399999 0.884299994 0
vt 0.135600001 0.789900005 0
vt 0.103399999 0.789900005 0
vt 0.135600001 0.884299994 0
vt 0.512399971 0.150199994 0
vt 0.613200009 0.434599996 0
vt 0.512399971 0.434599996 0
vt 0.613200009 0.150199994 0
vt 0.653500021 0.190500006 0
vt 0.653500021 0.394300014 0
vt 0.0218000002 0.514999986 0
vt 0.133300006 0.438600004 0
vt 0.133300006 0.514999986 0
vt 0.0218000002 0.438600004 0
vt 0.261099994 0.756799996 0
vt 0.133699998 0.68720001 0
vt 0.261099994 0.68720001 0
vt 0.133699998 0.756799996 0
vt 0.0238000005 0.306199998 0
vt 0.234999999 0.255499989 0
vt 0.234999999 0.306199998 0
vt 0.0238000005 0.255499989 0
vt 0.177000001 0.211999997 0
vt 0.0238000005 0.211999997 0
vt 0.132599995 0.179499999 0
vt 0.0238000005 0.179499999 0
vt 0.194700003 0.822700024 0
vt 0.249500006 0.843200028 0
vt 0.194700003 0.843200028 0
vt 0.249500006 0.822700024 0
vt 0.155699998 0.816299975 0
vt 0.184599996 0.843200028 0
vt 0.184599996 0.822700024 0
vt 0.155599996 0.8495 0
vt 0.273600012 0.349999994 0
vt 0.347000003 0.300099999 0
vt 0.273600012 0.300099999 0
vt 0.347000003 0.349999994 0
vt 0.477899998 0.95450002 0
vt 0.919700027 0.978999972 0
vt 0.477699995 0.978999972 0
vt 0.9199 0.95450002 0
vt 0.477999985 0.930000007 0
vt 0.920000017 0.930000007 0
vt 0.478199989 0.905499995 0
vt 0.92019999 0.905499995 0
vt 0.478399992 0.880999982 0
vt 0.920400023 0.880999982 0
vt 0.478500009 0.85650003 0
vt 0.92049998 0.85650003 0
vt 0.478700012 0.832000017 0
vt 0.920700014 0.832000017 0
vt 0.478899986 0.807399988 0
vt 0.920899987 0.807399988 0
vt 0.479000002 0.782899976 0
vt 0.921000004 0.782899976 0
vt 0.887000024 0.150199994 0
vt 0.846700013 0.394300014 0
vt 0.846700013 0.190500006 0
vt 0.887000024 0.434599996 0
vt 0.987800002 0.434599996 0
vt 0.987800002 0.150199994 0
vt 0.150800005 0.412999988 0
vt 0.235699996 0.336600006 0
vt 0.235699996 0.412999988 0
vt 0.150800005 0.336600006 0
vt 0.315200001 0.8495 0
vt 0.262300014 0.822700024 0
vt 0.262300014 0.843200028 0
vt 0.315299988 0.816299975 0
vt 0.128999993 0.0215000007 0
vt 0.237499997 0.063000001 0
vt 0.237599999 0.0215000007 0
vt 0.0844999999 0.063000001 0
vt 0.237399995 0.1065 0
vt 0.0264999997 0.1065 0
vt 0.0263 0.157299995 0
vt 0.237200007 0.157299995 0
vt 0.0196000002 0.336600006 0
vt 0.130999997 0.412999988 0
vt 0.0196000002 0.412999988 0
vt 0.130999997 0.336600006 0
vt 0.192399994 0.783399999 0
vt 0.249500006 0.812600017 0
vt 0.293900013 0.783399999 0
vt 0.194700003 0.812600017 0
vt 0.460900009 0.863699973 0
vt 0.460500002 0.922800004 0
vt 0.43599999 0.863699973 0
vt 0.435600013 0.922800004 0
vt 0.418300003 0.880999982 0
vt 0.418099999 0.905499995 0
vt 0.673500001 0.394300014 0
vt 0.832700014 0.190500006 0
vt 0.832700014 0.394300014 0
vt 0.673500001 0.190500006 0
vt 0.372399986 0.588699996 0
vt 0.293599993 0.588699996 0
vt 0.237900004 0.532999992 0
vt 0.237900004 0.4542 0
vt 0.293599993 0.398499995 0
vt 0.372399986 0.398499995 0
vt 0.816999972 0.74059999 0
vt 0.755999982 0.752699971 0
vt 0.695100009 0.74059999 0
vt 0.868600011 0.706099987 0
vt 0.64349997 0.706099987 0
vt 0.903100014 0.654399991 0
vt 0.609000027 0.654399991 0
vt 0.596899986 0.593500018 0
vt 0.915199995 0.593500018 0
vt 0.903100014 0.532599986 0
vt 0.609000027 0.532599986 0
vt 0.868600011 0.481000006 0
vt 0.64349997 0.481000006 0
vt 0.816999972 0.446500003 0
vt 0.695100009 0.446500003 0
vt 0.755999982 0.434300005 0
vt 0.382699996 0.725300014 0
vt 0.359800011 0.796999991 0
vt 0.347499996 0.740700006 0
vt 0.398099989 0.796999991 0
vt 0.347499996 0.853299975 0
vt 0.382699996 0.868799984 0
vt 0.313499987 0.90079999 0
vt 0.340200007 0.92900002 0
vt 0.263200015 0.932399988 0
vt 0.340200007 0.665000021 0
vt 0.313499987 0.693199992 0
vt 0.27759999 0.625100017 0
vt 0.263200015 0.661599994 0
vt 0.2042 0.611199975 0
vt 0.2042 0.6505 0
vt 0.130799994 0.625100017 0
vt 0.145199999 0.661599994 0
vt 0.0681999996 0.665000021 0
vt 0.0948999971 0.693199992 0
vt 0.0256999992 0.725300014 0
vt 0.060800001 0.740700006 0
vt 0.0103000002 0.796999991 0
vt 0.0485999994 0.796999991 0
vt 0.0256999992 0.868799984 0
vt 0.060800001 0.853299975 0
vt 0.0681999996 0.92900002 0
vt 0.0948999971 0.90079999 0
vt 0.130799994 0.968900025 0
vt 0.145199999 0.932399988 0
vt 0.2042 0.982900023 0
vt 0.2042 0.943499982 0
vt 0.27759999 0.968900025 0

# 92 vertex normals
vn -0.797424555 0.603418589 0
vn -0.990654647 0.136393756 0
vn -0.990654647 -0.136393756 0
vn -0.603418589 0.797424555 0
vn -0.136393756 0.990654647 0
vn 0.136393756 0.990654647 0
vn 0.603418589 0.797424555 0
vn 0.797424555 0.603418589 0
vn 0.990654647 0.136393756 0
vn 0.990654647 -0.136393756 0
vn 0.797424555 -0.603418589 0
vn 0.603418589 -0.797424555 0
vn 0.136393756 -0.990654647 0
vn -0.136393756 -0.990654647 0
vn -0.603418589 -0.797424555 0
vn -0.797424555 -0.603418589 0
vn 0.705905735 0 0.708305717
vn 0.923549592 0 0.383479089
vn 1 0 0
vn 0.215903252 0 -0.97641468
vn 0 -0.597420812 0.801927924
vn 0 -0.593983293 0.804477394
vn 0 -0.60079968 0.799399555
vn 0 -0.60427922 0.796772599
vn 0 0 1
vn 0 0 -1
vn 0 1 0
vn -0.215903252 0 -0.97641468
vn -1 0 0
vn 0.0814978406 -0.996673524 0
vn 0 -1 0
vn -0.604789138 0 -0.796385646
vn -0.385793805 0 -0.92258507
vn -0.796385646 0 -0.604789138
vn -0.990417898 0 -0.138102487
vn -0.990417898 0 0.138102487
vn -0.796385646 0 0.604789138
vn -0.604789138 0 0.796385646
vn -0.138102487 0 0.990417898
vn 0.138102487 0 0.990417898
vn 0.604789138 0 0.796385646
vn 0.796385646 0 0.604789138
vn 0.990417898 0 0.138102487
vn 0.990417898 0 -0.138102487
vn 0.796385646 0 -0.604789138
vn 0.604789138 0 -0.796385646
vn 0.385793805 0 -0.92258507
vn -0.923549592 0 0.383479089
vn -0.705905735 0 0.708305717
vn -0.0814978406 -0.996673524 0
vn 0.8376683 0.546179295 0
vn 0.783408701 0 0.621506929
vn 0.900035262 0 0.435817063
vn 0.975972533 0 0.217893854
vn -0.8376683 0.546179295 0
vn 0.215903252 0 0.97641468
vn -0.215903252 0 0.97641468
vn -0.900035262 0 0.435817063
vn -0.783408701 0 0.621506929
vn -0.975972533 0 0.217893854
vn 0.657269239 -0.222489595 0.720066369
vn 0.692422926 -0.0460015237 0.72002387
vn 0.622310042 -0.307104945 0.720011592
vn 0.692422926 0.0460015237 0.72002387
vn 0.657283843 0.222394541 0.720082343
vn 0.622310042 0.307104945 0.720011592
vn 0.522118628 0.457116276 0.720025659
vn 0.457013249 0.522215128 0.72002089
vn 0.307104945 0.622310042 0.720011592
vn 0.522215128 -0.457013249 0.72002089
vn 0.457116276 -0.522118628 0.720025659
vn 0.307104945 -0.622310042 0.720011592
vn 0.222394541 -0.657283843 0.720082343
vn 0.0460015237 -0.692422926 0.72002387
vn -0.0460015237 -0.692422926 0.72002387
vn -0.222489595 -0.657269239 0.720066369
vn -0.307104945 -0.622310042 0.720011592
vn -0.457013249 -0.522215128 0.72002089
vn -0.522118628 -0.457116276 0.720025659
vn -0.622310042 -0.307104945 0.720011592
vn -0.657283843 -0.222394541 0.720082343
vn -0.692422926 -0.0460015237 0.72002387
vn -0.692422926 0.0460015237 0.72002387
vn -0.657269239 0.222489595 0.720066369
vn -0.622310042 0.307104945 0.720011592
vn -0.522215128 0.457013249 0.72002089
vn -0.457116276 0.522118628 0.720025659
vn -0.307104945 0.622310042 0.720011592
vn -0.222394541 0.657283843 0.720082343
vn -0.0460015237 0.692422926 0.72002387
vn 0.0460015237 0.692422926 0.72002387
vn 0.222489595 0.657269239 0.720066369

# Mesh 'PipelineFBX' with 180 faces
g PipelineFBX
usemtl DefaultMaterial
f  1/1/1 2/2/2 3/3/3
f  4/2/2 5/1/1 6/4/4
f  7/5/5 8/4/4 9/1/1
f  10/4/4 11/5/5 12/6/6
f  13/7/7 14/6/6 15/5/5
f  16/6/6 17/7/7 18/8/8
f  19/9/9 20/8/8 21/7/7
f  22/8/8 23/9/9 24/10/10
f  25/11/11 26/10/10 27/9/9
f  28/10/10 29/11/11 30/12/12
f  31/13/13 32/12/12 33/11/11
f  34/12/12 35/13/13 36/14/14
f  37/15/15 38/14/14 39/13/13
f  40/14/14 41/15/15 42/16/16
f  43/17/3 44/16/16 45/15/15
f  46/16/16 47/17/3 48/18/2
f  49/19/17 50/20/18 51/21/17
f  52/20/18 53/19/17 54/22/18
f  55/23/19 56/20/18 57/22/18
f  58/20/18 59/23/19 60/24/19
f  61/25/20 62/26/20 63/27/20
f  64/26/20 65/25/20 66/28/20
f  67/29/21 68/30/22 69/31/22
f  70/30/22 71/29/21 72/32/23
f  73/33/24 74/32/23 75/29/21
f  76/32/23 77/33/24 78/34/24
f  79/35/25 80/36/25 81/37/25
f  82/36/25 83/35/25 84/38/25
f  85/39/26 86/40/26 87/41/26
f  88/40/26 89/39/26 90/42/26
f  91/43/27 92/44/27 93/45/27
f  94/44/27 95/43/27 96/46/27
f  97/47/27 98/44/27 99/46/27
f  100/44/27 101/47/27 102/48/27
f  103/49/26 104/50/26 105/51/26
f  106/50/26 107/49/26 108/52/26
f  109/53/26 110/54/26 111/55/26
f  112/54/26 113/53/26 114/56/26
f  115/26/28 116/25/28 117/27/28
f  118/25/28 119/26/28 120/28/28
f  121/33/24 122/32/23 123/34/24
f  124/32/23 125/33/24 126/29/21
f  127/29/21 128/30/22 129/32/23
f  130/30/22 131/29/21 132/31/22
f  133/57/19 134/58/19 135/59/19
f  136/58/19 137/57/19 138/60/19
f  139/60/19 140/61/19 141/58/19
f  142/61/19 143/60/19 144/62/19
f  145/62/19 146/63/19 147/61/19
f  148/63/19 149/62/19 150/64/19
f  151/65/29 152/66/29 153/67/29
f  154/66/29 155/65/29 156/68/29
f  157/69/30 158/70/30 159/71/30
f  160/70/30 161/69/30 162/72/30
f  163/62/29 164/63/29 165/64/29
f  166/63/29 167/62/29 168/61/29
f  169/60/29 170/61/29 171/62/29
f  172/61/29 173/60/29 174/58/29
f  175/57/29 176/58/29 177/60/29
f  178/58/29 179/57/29 180/59/29
f  181/73/31 182/74/31 183/75/31
f  184/74/31 185/73/31 186/76/31
f  187/77/32 188/78/33 189/79/33
f  190/78/33 191/77/32 192/80/34
f  193/81/35 194/80/34 195/77/32
f  196/80/34 197/81/35 198/82/36
f  199/83/37 200/82/36 201/81/35
f  202/82/36 203/83/37 204/84/38
f  205/85/39 206/84/38 207/83/37
f  208/84/38 209/85/39 210/86/40
f  211/87/41 212/86/40 213/85/39
f  214/86/40 215/87/41 216/88/42
f  217/89/43 218/88/42 219/87/41
f  220/88/42 221/89/43 222/90/44
f  223/91/45 224/90/44 225/89/43
f  226/90/44 227/91/45 228/92/46
f  229/93/47 230/92/46 231/91/45
f  232/92/46 233/93/47 234/94/47
f  235/95/31 236/96/31 237/97/31
f  238/96/31 239/95/31 240/98/31
f  241/95/31 242/99/31 243/98/31
f  244/99/31 245/95/31 246/100/31
f  247/101/31 248/102/31 249/103/31
f  250/102/31 251/101/31 252/104/31
f  253/20/48 254/19/49 255/21/49
f  256/19/49 257/20/48 258/22/48
f  259/20/48 260/23/29 261/22/48
f  262/23/29 263/20/48 264/24/29
f  265/72/50 266/71/50 267/70/50
f  268/71/50 269/72/50 270/69/50
f  271/36/25 272/35/25 273/37/25
f  274/35/25 275/36/25 276/38/25
f  277/40/26 278/39/26 279/41/26
f  280/39/26 281/40/26 282/42/26
f  283/105/51 284/106/51 285/107/51
f  286/106/51 287/105/51 288/108/51
f  289/109/52 290/110/53 291/111/52
f  292/110/53 293/109/52 294/112/54
f  295/112/54 296/113/19 297/110/53
f  298/113/19 299/112/54 300/114/19
f  301/115/19 302/113/19 303/114/19
f  304/113/19 305/115/19 306/116/19
f  307/117/25 308/118/25 309/119/25
f  310/118/25 311/117/25 312/120/25
f  313/108/55 314/107/55 315/106/55
f  316/107/55 317/108/55 318/105/55
f  319/74/31 320/73/31 321/75/31
f  322/73/31 323/74/31 324/76/31
f  325/121/56 326/122/56 327/123/56
f  328/122/56 329/121/56 330/124/56
f  331/66/19 332/65/19 333/67/19
f  334/65/19 335/66/19 336/68/19
f  337/83/31 338/125/31 339/85/31
f  340/125/31 341/83/31 342/126/31
f  343/126/31 344/127/31 345/125/31
f  346/127/31 347/126/31 348/128/31
f  349/128/31 350/129/31 351/127/31
f  352/129/31 353/128/31 354/130/31
f  355/131/25 356/132/25 357/133/25
f  358/132/25 359/131/25 360/134/25
f  361/122/57 362/121/57 363/123/57
f  364/121/57 365/122/57 366/124/57
f  367/110/58 368/109/59 369/111/59
f  370/109/59 371/110/58 372/112/60
f  373/113/29 374/112/60 375/110/58
f  376/112/60 377/113/29 378/114/29
f  379/113/29 380/115/29 381/114/29
f  382/115/29 383/113/29 384/116/29
f  385/135/25 386/136/25 387/137/25
f  388/137/25 389/5/25 390/135/25
f  391/5/25 392/137/25 393/138/25
f  394/139/25 395/5/25 396/138/25
f  397/5/25 398/139/25 399/7/25
f  400/139/25 401/140/25 402/7/25
f  403/141/25 404/142/25 405/143/25
f  406/143/25 407/144/25 408/141/25
f  409/144/25 410/143/25 411/145/25
f  412/145/25 413/146/25 414/144/25
f  415/146/25 416/145/25 417/147/25
f  418/148/25 419/146/25 420/147/25
f  421/146/25 422/148/25 423/149/25
f  424/148/25 425/150/25 426/149/25
f  427/150/25 428/148/25 429/151/25
f  430/151/25 431/152/25 432/150/25
f  433/152/25 434/151/25 435/153/25
f  436/153/25 437/154/25 438/152/25
f  439/154/25 440/153/25 441/155/25
f  442/155/25 443/156/25 444/154/25
f  445/157/61 446/158/62 447/159/63
f  448/158/62 449/157/61 450/160/64
f  451/160/64 452/161/65 453/158/62
f  454/161/65 455/160/64 456/162/66
f  457/162/66 458/163/67 459/161/65
f  460/163/67 461/162/66 462/164/68
f  463/164/68 464/165/69 465/163/67
f  466/159/63 467/166/70 468/157/61
f  469/166/70 470/159/63 471/167/71
f  472/167/71 473/168/72 474/166/70
f  475/168/72 476/167/71 477/169/73
f  478/169/73 479/170/74 480/168/72
f  481/170/74 482/169/73 483/171/75
f  484/171/75 485/172/76 486/170/74
f  487/172/76 488/171/75 489/173/77
f  490/173/77 491/174/78 492/172/76
f  493/174/78 494/173/77 495/175/79
f  496/175/79 497/176/80 498/174/78
f  499/176/80 500/175/79 501/177/81
f  502/177/81 503/178/82 504/176/80
f  505/178/82 506/177/81 507/179/83
f  508/179/83 509/180/84 510/178/82
f  511/180/84 512/179/83 513/181/85
f  514/181/85 515/182/86 516/180/84
f  517/182/86 518/181/85 519/183/87
f  520/183/87 521/184/88 522/182/86
f  523/184/88 524/183/87 525/185/89
f  526/185/89 527/186/90 528/184/88
f  529/186/90 530/185/89 531/187/91
f  532/187/91 533/188/92 534/186/90
f  535/188/92 536/187/91 537/165/69
f  538/165/69 539/164/68 540/188/92

