# File produced by Open Asset Import Library (http://www.assimp.sf.net)
# (assimp v6.0.0)

mtllib platform_base.mtl

# 1572 vertex positions
v -26.6000004 13.21 5.77427443e-07
v -13.3000002 -3.47000098 23.039999
v -13.3000002 13.2099991 23.039999
v -13.3000002 -3.47000098 23.039999
v -26.6000004 13.21 5.77427443e-07
v -26.6000004 -3.46999979 -1.5167852e-07
v 17.4200001 -5.6500001 1.62999988
v 17.8299999 -5.65000057 18.7199993
v 10.1199999 -5.65000057 14.2700005
v 17.8299999 -5.65000057 18.7199993
v 17.4200001 -5.6500001 1.62999988
v 25.1199989 -5.6500001 6.07999992
v 45.9300003 2.19999909 20.4500008
v 17.8299999 -5.65000057 18.7199993
v 25.1199989 -5.6500001 6.07999992
v 17.8299999 -5.65000057 18.7199993
v 45.9300003 2.19999909 20.4500008
v 40.6699982 2.19999862 29.5500011
v -45.9300003 2.19999909 20.4500008
v -40.6699982 5.49999905 29.5500011
v -45.9300003 5.49999905 20.4500008
v -40.6699982 5.49999905 29.5500011
v -45.9300003 2.19999909 20.4500008
v -40.6699982 2.19999862 29.5500011
v 7.28999996 -5.64999866 -24.7999992
v -5.26000023 2.20000219 -50
v 5.26000023 2.20000219 -50
v -5.26000023 2.20000219 -50
v 7.28999996 -5.64999866 -24.7999992
v -7.28999996 -5.64999866 -24.7999992
v 7.28999996 -5.64999866 -24.7999992
v -7.28999996 -5.64999914 -15.8999996
v -7.28999996 -5.64999866 -24.7999992
v -7.28999996 -5.64999914 -15.8999996
v 7.28999996 -5.64999866 -24.7999992
v 7.28999996 -5.64999914 -15.8999996
v 10.2200003 -3.46999907 -17.710001
v 16.4099998 -8.11000061 -3.54499377e-07
v 8.19999981 -8.10999966 -14.210001
v 16.4099998 -8.11000061 -3.54499377e-07
v 10.2200003 -3.46999907 -17.710001
v 20.4400005 -3.46999979 -1.5167852e-07
v 51.9699974 5.99999809 45.3199997
v 26.1999989 2.93740527e-07 -6.71999979
v 65.2400055 5.99999857 22.3400002
v 26.1999989 2.93740527e-07 -6.71999979
v 51.9699974 5.99999809 45.3199997
v 7.28000021 -1.13868168e-06 26.0500011
v 24.5199986 0.049998939 24.3299999
v 18.5799999 -2.15000081 17.4200001
v 26.0300007 0.0499990545 21.7199993
v 18.5799999 -2.15000081 17.4200001
v 24.5199986 0.049998939 24.3299999
v 15.7600002 -2.15000105 22.3100014
v 15.7600002 -2.15000105 22.3100014
v 16.8799992 -2.15000081 16.4400005
v 18.5799999 -2.15000081 17.4200001
v 16.8799992 -2.15000081 16.4400005
v 15.7600002 -2.15000105 22.3100014
v 14.0599995 -2.15000105 21.3299999
v 45.4700012 12.8999977 35.8400002
v 40.4599991 7.59999752 45.5299988
v 40.4599991 12.8999977 45.5299988
v 40.4599991 7.59999752 45.5299988
v 45.4700012 12.8999977 35.8400002
v 45.4700012 7.59999847 35.8400002
v 49.3099976 8.59999847 48.7899971
v 40.4599991 12.8999977 45.5299988
v 40.4599991 7.59999752 45.5299988
v 40.4599991 12.8999977 45.5299988
v 49.3099976 8.59999847 48.7899971
v 49.3099976 12.8999977 48.7899971
v 58.9999962 9.29999828 45.6100006
v 49.3099976 12.8999977 48.7899971
v 49.3099976 8.59999847 48.7899971
v 49.3099976 12.8999977 48.7899971
v 58.9999962 9.29999828 45.6100006
v 58.9999962 12.8999977 45.6100006
v 58.9999962 9.29999828 45.6100006
v 60.7999992 12.8999977 42.4899979
v 58.9999962 12.8999977 45.6100006
v 60.7999992 12.8999977 42.4899979
v 58.9999962 9.29999828 45.6100006
v 60.7999992 9.29999828 42.4899979
v 34.5999985 6.51999855 37.8300018
v 25.2000008 11.7599983 38.3500023
v 25.2000008 6.90999842 38.3500023
v 25.2000008 11.7599983 38.3500023
v 34.5999985 6.51999855 37.8300018
v 34.5999985 12.7699986 37.8300018
v 50.0800018 3.099998 41.2700005
v 48.1000023 3.09999847 34.7000008
v 52.4299965 3.09999824 37.2000008
v 48.1000023 3.09999847 34.7000008
v 50.0800018 3.099998 41.2700005
v 45.75 3.09999824 38.7700005
v 42.5399971 4.04999828 36.9199982
v 48.1000023 3.09999847 34.7000008
v 45.75 3.09999824 38.7700005
v 48.1000023 3.09999847 34.7000008
v 42.5399971 4.04999828 36.9199982
v 44.8900032 4.04999828 32.8499985
v 25.5 0.439999938 1.50999999
v 27.2000008 -2.15000033 2.48999977
v 25.5 -2.1500001 1.50999999
v 27.2000008 -2.15000033 2.48999977
v 25.5 0.439999938 1.50999999
v 27.2000008 0.679999888 2.49000001
v 27.2000008 0.679999888 2.49000001
v 33.329998 0.0499996059 9.06999969
v 27.2000008 -2.15000033 2.48999977
v 33.329998 0.0499996059 9.06999969
v 27.2000008 0.679999888 2.49000001
v 33.329998 1.74999964 9.06999969
v -16.9499989 -3.46999907 -16.7199993
v -18.4799995 4.75000048 -17.6000004
v -16.9499989 6.65000057 -16.7199993
v -18.4799995 4.75000048 -17.6000004
v -16.9499989 -3.46999907 -16.7199993
v -18.4799995 -3.94999933 -17.6000004
v -16.9499989 -3.46999907 -16.7199993
v -15.2299995 -5.79999924 -15.7199993
v -18.4799995 -3.94999933 -17.6000004
v -16.9499989 -3.46999907 -16.7199993
v -12.3299999 -3.46999907 -14.0499992
v -15.2299995 -5.79999924 -15.7199993
v -12.3299999 -3.46999907 -14.0499992
v -10.8099995 -5.79999924 -13.1699991
v -15.2299995 -5.79999924 -15.7199993
v -18.4799995 4.75000048 -17.6000004
v -18.2299995 6.65000057 -14.5
v -16.9499989 6.65000057 -16.7199993
v -18.2299995 6.65000057 -14.5
v -18.4799995 4.75000048 -17.6000004
v -19.75 4.75000048 -15.3799992
v -18.4799995 -3.94999933 -17.6000004
v -19.75 4.75000048 -15.3799992
v -18.4799995 4.75000048 -17.6000004
v -19.75 4.75000048 -15.3799992
v -18.4799995 -3.94999933 -17.6000004
v -19.75 -3.94999933 -15.3799992
v -18.4799995 -3.94999933 -17.6000004
v -16.5100002 -5.79999924 -13.5100002
v -19.75 -3.94999933 -15.3799992
v -16.5100002 -5.79999924 -13.5100002
v -18.4799995 -3.94999933 -17.6000004
v -15.2299995 -5.79999924 -15.7199993
v -15.2299995 -5.79999924 -15.7199993
v -12.0900002 -5.79999924 -10.96
v -16.5100002 -5.79999924 -13.5100002
v -12.0900002 -5.79999924 -10.96
v -15.2299995 -5.79999924 -15.7199993
v -10.8099995 -5.79999924 -13.1699991
v 59.6599998 7.59999895 12.2699995
v 53.7700005 12.8999977 21.4599991
v 59.6599998 12.8999996 12.2700005
v 53.7700005 12.8999977 21.4599991
v 59.6599998 7.59999895 12.2699995
v 53.7700005 7.59999895 21.4599991
v 59.6599998 12.8999996 12.2700005
v 66.909996 8.59999943 18.3099995
v 59.6599998 7.59999895 12.2699995
v 66.909996 8.59999943 18.3099995
v 59.6599998 12.8999996 12.2700005
v 66.909996 12.8999977 18.3099995
v 66.909996 12.8999977 18.3099995
v 69 9.29999828 28.2900009
v 66.909996 8.59999943 18.3099995
v 69 9.29999828 28.2900009
v 66.909996 12.8999977 18.3099995
v 69 12.8999977 28.2900009
v 67.1999969 12.8999977 31.4099998
v 69 9.29999828 28.2900009
v 69 12.8999977 28.2900009
v 69 9.29999828 28.2900009
v 67.1999969 12.8999977 31.4099998
v 67.1999969 9.29999828 31.4099998
v 30.7599983 4.69000006 -3.32999969
v 45.8099976 6.90999985 2.65000033
v 50.0699997 6.5199995 11.0500002
v 45.8099976 6.90999985 2.65000033
v 30.7599983 4.69000006 -3.32999969
v 34.9099998 5.95000029 -5.65999985
v 58.4299965 5.53999901 26.8000011
v 60.7799988 3.09999895 22.7299995
v 60.7799988 5.53999901 22.7299995
v 60.7799988 3.09999895 22.7299995
v 58.4299965 5.53999901 26.8000011
v 58.4299965 3.09999895 26.8000011
v 10.8099995 -5.79999924 -13.1699991
v 16.5100002 -5.79999924 -13.5100002
v 12.0900002 -5.79999924 -10.96
v 16.5100002 -5.79999924 -13.5100002
v 10.8099995 -5.79999924 -13.1699991
v 15.2299995 -5.79999924 -15.7199993
v 18.4799995 -3.94999933 -17.6000004
v 16.5100002 -5.79999924 -13.5100002
v 15.2299995 -5.79999924 -15.7199993
v 16.5100002 -5.79999924 -13.5100002
v 18.4799995 -3.94999933 -17.6000004
v 19.75 -3.94999933 -15.3799992
v 18.4799995 -3.94999933 -17.6000004
v 19.75 4.75000048 -15.3799992
v 19.75 -3.94999933 -15.3799992
v 19.75 4.75000048 -15.3799992
v 18.4799995 -3.94999933 -17.6000004
v 18.4799995 4.75000048 -17.6000004
v 18.4799995 4.75000048 -17.6000004
v 18.2299995 6.65000057 -14.5
v 19.75 4.75000048 -15.3799992
v 18.2299995 6.65000057 -14.5
v 18.4799995 4.75000048 -17.6000004
v 16.9499989 6.65000057 -16.7199993
v -26.1999989 14.8000002 -6.71999884
v -65.2400055 5.99999857 22.3500004
v -65.2400055 14.7999983 22.3500004
v -65.2400055 5.99999857 22.3500004
v -26.1999989 14.8000002 -6.71999884
v -26.1999989 2.93740527e-07 -6.71999979
v -51.9699974 5.99999809 45.3300018
v -65.2400055 14.7999983 22.3500004
v -65.2400055 5.99999857 22.3500004
v -65.2400055 14.7999983 22.3500004
v -51.9699974 5.99999809 45.3300018
v -51.9699974 14.7999983 45.3300018
v -27.2000008 -2.15000033 2.48999977
v -25.5 0.439999938 1.50999999
v -25.5 -2.1500001 1.50999999
v -25.5 0.439999938 1.50999999
v -27.2000008 -2.15000033 2.48999977
v -27.2000008 0.679999888 2.49000001
v -33.329998 0.0499996059 9.06999969
v -27.2000008 0.679999888 2.49000001
v -27.2000008 -2.15000033 2.48999977
v -27.2000008 0.679999888 2.49000001
v -33.329998 0.0499996059 9.06999969
v -33.329998 1.74999964 9.06999969
v -45.8099976 6.90999985 2.65000033
v -30.7599983 4.69000006 -3.32999969
v -50.0699997 6.5199995 11.0500002
v -30.7599983 4.69000006 -3.32999969
v -45.8099976 6.90999985 2.65000033
v -34.9099998 5.95000029 -5.65999985
v -60.7799988 3.09999895 22.7299995
v -58.4299965 5.53999901 26.8000011
v -60.7799988 5.53999901 22.7299995
v -58.4299965 5.53999901 26.8000011
v -60.7799988 3.09999895 22.7299995
v -58.4299965 3.09999895 26.8000011
v -26.0300007 1.74999905 21.7199993
v -24.5199986 0.049998939 24.3299999
v -24.5199986 1.74999893 24.3299999
v -24.5199986 0.049998939 24.3299999
v -26.0300007 1.74999905 21.7199993
v -26.0300007 0.0499990545 21.7199993
v -14.0599995 -2.15000105 21.3299999
v -18.5799999 -2.15000081 17.4200001
v -16.8799992 -2.15000081 16.4400005
v -18.5799999 -2.15000081 17.4200001
v -14.0599995 -2.15000105 21.3299999
v -15.7600002 -2.15000105 22.3100014
v -24.5199986 0.049998939 24.3299999
v -18.5799999 -2.15000081 17.4200001
v -15.7600002 -2.15000105 22.3100014
v -18.5799999 -2.15000081 17.4200001
v -24.5199986 0.049998939 24.3299999
v -26.0300007 0.0499990545 21.7199993
v 23.1999989 4.75000048 -9.42000008
v 21.6700001 -3.46999955 -8.52999973
v 21.6700001 6.65000057 -8.52999973
v 21.6700001 -3.46999955 -8.52999973
v 23.1999989 4.75000048 -9.42000008
v 23.1999989 -3.94999981 -9.42000008
v 19.9499989 -5.79999924 -7.54000044
v 21.6700001 -3.46999955 -8.52999973
v 23.1999989 -3.94999981 -9.42000008
v 17.0599995 -3.46999955 -5.86999989
v 21.6700001 -3.46999955 -8.52999973
v 19.9499989 -5.79999924 -7.54000044
v 15.539999 -5.79999924 -4.99000025
v 17.0599995 -3.46999955 -5.86999989
v 19.9499989 -5.79999924 -7.54000044
v -25.2000008 11.7599983 38.3500023
v -12.5 12.7099991 28.3100014
v -34.5999985 12.7699986 37.8300018
v -12.5 12.7099991 28.3100014
v -25.2000008 11.7599983 38.3500023
v -12.5499992 11.7599983 33.0599976
v -25.2000008 6.90999842 38.3500023
v -12.5499992 11.7599983 33.0599976
v -25.2000008 11.7599983 38.3500023
v -12.5499992 11.7599983 33.0599976
v -25.2000008 6.90999842 38.3500023
v -12.5499992 5.94999886 33.0599976
v -42.5399971 4.45999861 36.9199982
v -44.8900032 4.04999828 32.8499985
v -44.8900032 4.45999861 32.8499985
v -44.8900032 4.04999828 32.8499985
v -42.5399971 4.45999861 36.9199982
v -42.5399971 4.04999828 36.9199982
v 6 4.74999905 24.7999992
v 6 -3.47000098 23.039999
v 6 6.64999914 23.039999
v 6 -3.47000098 23.039999
v 6 4.74999905 24.7999992
v 6 -3.95000124 24.7999992
v 6 -5.80000067 21.0499992
v 6 -3.47000098 23.039999
v 6 -3.95000124 24.7999992
v 6 -3.47000074 17.710001
v 6 -3.47000098 23.039999
v 6 -5.80000067 21.0499992
v 6 -5.80000067 15.9500008
v 6 -3.47000074 17.710001
v 6 -5.80000067 21.0499992
v 3.44999981 6.64999914 23.039999
v 6 4.74999905 24.7999992
v 6 6.64999914 23.039999
v 6 4.74999905 24.7999992
v 3.44999981 6.64999914 23.039999
v 3.44999981 4.74999905 24.7999992
v 3.44999981 4.74999905 24.7999992
v 6 -3.95000124 24.7999992
v 6 4.74999905 24.7999992
v 6 -3.95000124 24.7999992
v 3.44999981 4.74999905 24.7999992
v 3.44999981 -3.95000124 24.7999992
v 3.44999981 -5.80000067 21.0499992
v 6 -3.95000124 24.7999992
v 3.44999981 -3.95000124 24.7999992
v 6 -3.95000124 24.7999992
v 3.44999981 -5.80000067 21.0499992
v 6 -5.80000067 21.0499992
v 3.44999981 -5.80000067 15.9500008
v 6 -5.80000067 21.0499992
v 3.44999981 -5.80000067 21.0499992
v 6 -5.80000067 21.0499992
v 3.44999981 -5.80000067 15.9500008
v 6 -5.80000067 15.9500008
v 18.9200001 14.8000021 -19.3299999
v -18.9200001 8.44941098e-07 -19.3299999
v 18.9200001 8.44941098e-07 -19.3299999
v -18.9200001 8.44941098e-07 -19.3299999
v 18.9200001 14.8000021 -19.3299999
v -18.9200001 14.8000021 -19.3299999
v 8.81000042 0.0500014648 -33.3999977
v 5.79999971 1.75000155 -33.3999977
v 8.81000042 1.75000155 -33.3999977
v 5.79999971 1.75000155 -33.3999977
v 8.81000042 0.0500014648 -33.3999977
v 5.79999971 0.0500014648 -33.3999977
v 5.79999971 -2.1499989 -24.7999992
v 11.4399996 -2.14999914 -22.8400002
v 5.79999971 -2.14999914 -22.8400002
v 11.4399996 -2.14999914 -22.8400002
v 5.79999971 -2.1499989 -24.7999992
v 11.4399996 -2.1499989 -24.7999992
v 5.79999971 -2.1499989 -24.7999992
v 8.81000042 0.0500014648 -33.3999977
v 11.4399996 -2.1499989 -24.7999992
v 8.81000042 0.0500014648 -33.3999977
v 5.79999971 -2.1499989 -24.7999992
v 5.79999971 0.0500014648 -33.3999977
v 18.2699986 12.7100019 -24.9799995
v 20.6100006 11.7600012 -41
v 15.4699993 12.7700014 -48.8799973
v 20.6100006 11.7600012 -41
v 18.2699986 12.7100019 -24.9799995
v 22.3500004 11.7600012 -27.3999996
v 22.3500004 11.7600012 -27.3999996
v 20.6100006 6.91000128 -41
v 20.6100006 11.7600012 -41
v 20.6100006 6.91000128 -41
v 22.3500004 11.7600012 -27.3999996
v 22.3500004 5.95000124 -27.3999996
v 6 4.0500021 -55.2999954
v 10.6999998 4.46000195 -55.2999954
v 6 4.46000195 -55.2999954
v 10.6999998 4.46000195 -55.2999954
v 6 4.0500021 -55.2999954
v 10.6999998 4.0500021 -55.2999954
v -5.79999971 -2.1499989 -24.7999992
v -8.81000042 0.0500014648 -33.3999977
v -5.79999971 0.0500014648 -33.3999977
v -8.81000042 0.0500014648 -33.3999977
v -5.79999971 -2.1499989 -24.7999992
v -11.4399996 -2.1499989 -24.7999992
v -5.79999971 -2.1499989 -24.7999992
v -11.4399996 -2.14999914 -22.8400002
v -11.4399996 -2.1499989 -24.7999992
v -11.4399996 -2.14999914 -22.8400002
v -5.79999971 -2.1499989 -24.7999992
v -5.79999971 -2.14999914 -22.8400002
v -3.44999981 4.74999905 24.7999992
v -3.44999981 -3.47000098 23.039999
v -3.44999981 6.64999914 23.039999
v -3.44999981 -3.47000098 23.039999
v -3.44999981 4.74999905 24.7999992
v -3.44999981 -3.95000124 24.7999992
v -3.44999981 -5.80000067 21.0499992
v -3.44999981 -3.47000098 23.039999
v -3.44999981 -3.95000124 24.7999992
v -3.44999981 -3.47000074 17.710001
v -3.44999981 -3.47000098 23.039999
v -3.44999981 -5.80000067 21.0499992
v -3.44999981 -5.80000067 15.9500008
v -3.44999981 -3.47000074 17.710001
v -3.44999981 -5.80000067 21.0499992
v -20.6100006 11.7600012 -41
v -18.2699986 12.7100019 -24.9799995
v -15.4699993 12.7700014 -48.8799973
v -18.2699986 12.7100019 -24.9799995
v -20.6100006 11.7600012 -41
v -22.3500004 11.7600012 -27.3999996
v -20.6100006 6.91000128 -41
v -22.3500004 11.7600012 -27.3999996
v -20.6100006 11.7600012 -41
v -22.3500004 11.7600012 -27.3999996
v -20.6100006 6.91000128 -41
v -22.3500004 5.95000124 -27.3999996
v -10.6999998 4.46000195 -55.2999954
v -6 4.0500021 -55.2999954
v -6 4.46000195 -55.2999954
v -6 4.0500021 -55.2999954
v -10.6999998 4.46000195 -55.2999954
v -10.6999998 4.0500021 -55.2999954
v 13.3000002 13.2100019 -23.039999
v -13.3000002 -3.46999884 -23.039999
v -13.3000002 13.2100019 -23.039999
v -13.3000002 -3.46999884 -23.039999
v 13.3000002 13.2100019 -23.039999
v 13.3000002 -3.46999884 -23.039999
v -13.3000002 13.2099991 23.039999
v 13.3000002 -3.47000098 23.039999
v 13.3000002 13.2099991 23.039999
v 13.3000002 -3.47000098 23.039999
v -13.3000002 13.2099991 23.039999
v -13.3000002 -3.47000098 23.039999
v 10.2200003 -3.47000074 17.710001
v -8.19999981 -8.11000061 14.210001
v 8.19999981 -8.11000061 14.210001
v -8.19999981 -8.11000061 14.210001
v 10.2200003 -3.47000074 17.710001
v -10.2200003 -3.47000074 17.710001
v -10.1199999 -5.65000057 14.2700005
v -25.1199989 -5.6500001 6.07999992
v -17.4200001 -5.6500001 1.62999988
v -25.1199989 -5.6500001 6.07999992
v -10.1199999 -5.65000057 14.2700005
v -17.8299999 -5.65000057 18.7199993
v -40.6699982 2.19999862 29.5500011
v -25.1199989 -5.6500001 6.07999992
v -17.8299999 -5.65000057 18.7199993
v -25.1199989 -5.6500001 6.07999992
v -40.6699982 2.19999862 29.5500011
v -45.9300003 2.19999909 20.4500008
v 5.26000023 2.20000219 -50
v -5.26000023 5.50000238 -50
v 5.26000023 5.50000238 -50
v -5.26000023 5.50000238 -50
v 5.26000023 2.20000219 -50
v -5.26000023 2.20000219 -50
v 13.3000002 13.2099991 23.039999
v 26.6000004 -3.46999979 -1.5167852e-07
v 26.6000004 13.21 5.77427443e-07
v 26.6000004 -3.46999979 -1.5167852e-07
v 13.3000002 13.2099991 23.039999
v 13.3000002 -3.47000098 23.039999
v -21.6700001 -3.46999955 -8.52999973
v -23.1999989 4.75000048 -9.42000008
v -21.6700001 6.65000057 -8.52999973
v -23.1999989 4.75000048 -9.42000008
v -21.6700001 -3.46999955 -8.52999973
v -23.1999989 -3.94999981 -9.42000008
v -21.6700001 -3.46999955 -8.52999973
v -19.9499989 -5.79999924 -7.54000044
v -23.1999989 -3.94999981 -9.42000008
v -21.6700001 -3.46999955 -8.52999973
v -17.0599995 -3.46999955 -5.86999989
v -19.9499989 -5.79999924 -7.54000044
v -17.0599995 -3.46999955 -5.86999989
v -15.539999 -5.79999924 -4.99000025
v -19.9499989 -5.79999924 -7.54000044
v 26.1999989 14.8000002 -6.71999884
v 51.9699974 14.7999983 45.3199997
v 65.2400055 14.7999983 22.3400002
v 51.9699974 14.7999983 45.3199997
v 26.1999989 14.8000002 -6.71999884
v 7.28000021 14.7999983 26.0500011
v 15.7600002 0.679999053 22.3100014
v 24.5199986 0.049998939 24.3299999
v 24.5199986 1.74999893 24.3299999
v 24.5199986 0.049998939 24.3299999
v 15.7600002 0.679999053 22.3100014
v 15.7600002 -2.15000105 22.3100014
v 14.0599995 0.439999074 21.3299999
v 15.7600002 -2.15000105 22.3100014
v 15.7600002 0.679999053 22.3100014
v 15.7600002 -2.15000105 22.3100014
v 14.0599995 0.439999074 21.3299999
v 14.0599995 -2.15000105 21.3299999
v 60.7999992 9.29999828 42.4899979
v 45.4700012 12.8999977 35.8400002
v 60.7999992 12.8999977 42.4899979
v 45.4700012 12.8999977 35.8400002
v 60.7999992 9.29999828 42.4899979
v 45.4700012 7.59999847 35.8400002
v 45.4700012 7.59999847 35.8400002
v 60.7999992 9.29999828 42.4899979
v 58.9999962 9.29999828 45.6100006
v 45.4700012 7.59999847 35.8400002
v 58.9999962 9.29999828 45.6100006
v 49.3099976 8.59999847 48.7899971
v 40.4599991 7.59999752 45.5299988
v 45.4700012 7.59999847 35.8400002
v 49.3099976 8.59999847 48.7899971
v 12.5499992 11.7599983 33.0599976
v 12.5 4.6899991 28.2999992
v 12.5499992 5.94999886 33.0599976
v 12.5 4.6899991 28.2999992
v 12.5499992 11.7599983 33.0599976
v 12.5 12.7099991 28.3100014
v 24.3799992 -2.15000033 7.37999964
v 33.329998 0.0499996059 9.06999969
v 31.8300018 0.0499994904 11.6800003
v 33.329998 0.0499996059 9.06999969
v 24.3799992 -2.15000033 7.37999964
v 27.2000008 -2.15000033 2.48999977
v 24.3799992 -2.15000033 7.37999964
v 25.5 -2.1500001 1.50999999
v 27.2000008 -2.15000033 2.48999977
v 25.5 -2.1500001 1.50999999
v 24.3799992 -2.15000033 7.37999964
v 22.6800003 -2.15000033 6.4000001
v 53.7700005 12.8999977 21.4599991
v 67.1999969 9.29999828 31.4099998
v 67.1999969 12.8999977 31.4099998
v 67.1999969 9.29999828 31.4099998
v 53.7700005 12.8999977 21.4599991
v 53.7700005 7.59999895 21.4599991
v 67.1999969 9.29999828 31.4099998
v 53.7700005 7.59999895 21.4599991
v 69 9.29999828 28.2900009
v 69 9.29999828 28.2900009
v 53.7700005 7.59999895 21.4599991
v 66.909996 8.59999943 18.3099995
v 53.7700005 7.59999895 21.4599991
v 59.6599998 7.59999895 12.2699995
v 66.909996 8.59999943 18.3099995
v 45.8099976 11.7600002 2.65000057
v 50.0699997 6.5199995 11.0500002
v 45.8099976 6.90999985 2.65000033
v 50.0699997 6.5199995 11.0500002
v 45.8099976 11.7600002 2.65000057
v 50.0699997 12.7700005 11.0500011
v 58.4299965 3.09999895 26.8000011
v 56.4499969 3.09999895 20.2299995
v 60.7799988 3.09999895 22.7299995
v 56.4499969 3.09999895 20.2299995
v 58.4299965 3.09999895 26.8000011
v 54.1000023 3.09999895 24.2999992
v 54.1000023 3.09999895 24.2999992
v 53.2400017 4.04999924 18.3799992
v 56.4499969 3.09999895 20.2299995
v 53.2400017 4.04999924 18.3799992
v 54.1000023 3.09999895 24.2999992
v 50.8899994 4.04999876 22.4500008
v -65.2400055 5.99999857 22.3500004
v -7.28000021 -1.13868168e-06 26.0500011
v -51.9699974 5.99999809 45.3300018
v -7.28000021 -1.13868168e-06 26.0500011
v -65.2400055 5.99999857 22.3500004
v -26.1999989 2.93740527e-07 -6.71999979
v -33.329998 0.0499996059 9.06999969
v -24.3799992 -2.15000033 7.37999964
v -31.8300018 0.0499994904 11.6800003
v -24.3799992 -2.15000033 7.37999964
v -33.329998 0.0499996059 9.06999969
v -27.2000008 -2.15000033 2.48999977
v -27.2000008 -2.15000033 2.48999977
v -22.6800003 -2.15000033 6.4000001
v -24.3799992 -2.15000033 7.37999964
v -22.6800003 -2.15000033 6.4000001
v -27.2000008 -2.15000033 2.48999977
v -25.5 -2.1500001 1.50999999
v -53.7700005 12.8999977 21.4599991
v -59.6599998 7.59999895 12.2699995
v -59.6599998 12.8999996 12.2700005
v -59.6599998 7.59999895 12.2699995
v -53.7700005 12.8999977 21.4599991
v -53.7700005 7.59999895 21.4599991
v -66.909996 8.59999943 18.3099995
v -59.6599998 12.8999996 12.2700005
v -59.6599998 7.59999895 12.2699995
v -59.6599998 12.8999996 12.2700005
v -66.909996 8.59999943 18.3099995
v -66.909996 12.8999977 18.3099995
v -69 9.29999828 28.2900009
v -66.909996 12.8999977 18.3099995
v -66.909996 8.59999943 18.3099995
v -66.909996 12.8999977 18.3099995
v -69 9.29999828 28.2900009
v -69 12.8999977 28.2900009
v -69 9.29999828 28.2900009
v -67.1999969 12.8999977 31.4099998
v -69 12.8999977 28.2900009
v -67.1999969 12.8999977 31.4099998
v -69 9.29999828 28.2900009
v -67.1999969 9.29999828 31.4099998
v -50.0699997 6.5199995 11.0500002
v -45.8099976 11.7600002 2.65000057
v -45.8099976 6.90999985 2.65000033
v -45.8099976 11.7600002 2.65000057
v -50.0699997 6.5199995 11.0500002
v -50.0699997 12.7700005 11.0500011
v -56.4499969 3.09999895 20.2299995
v -58.4299965 3.09999895 26.8000011
v -60.7799988 3.09999895 22.7299995
v -58.4299965 3.09999895 26.8000011
v -56.4499969 3.09999895 20.2299995
v -54.1000023 3.09999895 24.2999992
v -53.2400017 4.04999924 18.3799992
v -54.1000023 3.09999895 24.2999992
v -56.4499969 3.09999895 20.2299995
v -54.1000023 3.09999895 24.2999992
v -53.2400017 4.04999924 18.3799992
v -50.8899994 4.04999876 22.4500008
v -14.0599995 0.439999074 21.3299999
v -15.7600002 -2.15000105 22.3100014
v -14.0599995 -2.15000105 21.3299999
v -15.7600002 -2.15000105 22.3100014
v -14.0599995 0.439999074 21.3299999
v -15.7600002 0.679999053 22.3100014
v -15.7600002 0.679999053 22.3100014
v -24.5199986 0.049998939 24.3299999
v -15.7600002 -2.15000105 22.3100014
v -24.5199986 0.049998939 24.3299999
v -15.7600002 0.679999053 22.3100014
v -24.5199986 1.74999893 24.3299999
v 22.9499989 -3.46999955 -6.31999969
v 24.4799995 4.75000048 -7.19999981
v 22.9499989 6.6500001 -6.31999969
v 24.4799995 4.75000048 -7.19999981
v 22.9499989 -3.46999955 -6.31999969
v 24.4799995 -3.94999981 -7.19999981
v 22.9499989 -3.46999955 -6.31999969
v 21.2299995 -5.79999924 -5.3300004
v 24.4799995 -3.94999981 -7.19999981
v 22.9499989 -3.46999955 -6.31999969
v 18.3400002 -3.46999979 -3.64999986
v 21.2299995 -5.79999924 -5.3300004
v 18.3400002 -3.46999979 -3.64999986
v 16.8199997 -5.79999971 -2.78000021
v 21.2299995 -5.79999924 -5.3300004
v 24.4799995 4.75000048 -7.19999981
v 21.6700001 6.65000057 -8.52999973
v 22.9499989 6.6500001 -6.31999969
v 21.6700001 6.65000057 -8.52999973
v 24.4799995 4.75000048 -7.19999981
v 23.1999989 4.75000048 -9.42000008
v 24.4799995 -3.94999981 -7.19999981
v 23.1999989 4.75000048 -9.42000008
v 24.4799995 4.75000048 -7.19999981
v 23.1999989 4.75000048 -9.42000008
v 24.4799995 -3.94999981 -7.19999981
v 23.1999989 -3.94999981 -9.42000008
v 24.4799995 -3.94999981 -7.19999981
v 19.9499989 -5.79999924 -7.54000044
v 23.1999989 -3.94999981 -9.42000008
v 19.9499989 -5.79999924 -7.54000044
v 24.4799995 -3.94999981 -7.19999981
v 21.2299995 -5.79999924 -5.3300004
v 21.2299995 -5.79999924 -5.3300004
v 15.539999 -5.79999924 -4.99000025
v 19.9499989 -5.79999924 -7.54000044
v 15.539999 -5.79999924 -4.99000025
v 21.2299995 -5.79999924 -5.3300004
v 16.8199997 -5.79999971 -2.78000021
v -40.4599991 7.59999752 45.5299988
v -45.4700012 12.8999977 35.8400002
v -40.4599991 12.8999977 45.5299988
v -45.4700012 12.8999977 35.8400002
v -40.4599991 7.59999752 45.5299988
v -45.4700012 7.59999847 35.8400002
v -40.4599991 12.8999977 45.5299988
v -49.3099976 8.59999847 48.7899971
v -40.4599991 7.59999752 45.5299988
v -49.3099976 8.59999847 48.7899971
v -40.4599991 12.8999977 45.5299988
v -49.3099976 12.8999977 48.7899971
v -49.3099976 12.8999977 48.7899971
v -58.9999962 9.29999828 45.6100006
v -49.3099976 8.59999847 48.7899971
v -58.9999962 9.29999828 45.6100006
v -49.3099976 12.8999977 48.7899971
v -58.9999962 12.8999977 45.6100006
v -60.7999992 12.8999977 42.4899979
v -58.9999962 9.29999828 45.6100006
v -58.9999962 12.8999977 45.6100006
v -58.9999962 9.29999828 45.6100006
v -60.7999992 12.8999977 42.4899979
v -60.7999992 9.29999828 42.4899979
v -12.5 4.6899991 28.2999992
v -25.2000008 6.90999842 38.3500023
v -34.5999985 6.51999855 37.8300018
v -25.2000008 6.90999842 38.3500023
v -12.5 4.6899991 28.2999992
v -12.5499992 5.94999886 33.0599976
v -52.4299965 5.53999853 37.2000008
v -50.0800018 3.099998 41.2700005
v -50.0800018 5.53999805 41.2700005
v -50.0800018 3.099998 41.2700005
v -52.4299965 5.53999853 37.2000008
v -52.4299965 3.09999824 37.2000008
v 18.9200001 14.8000021 -19.3299999
v 13.2699995 6.00000286 -67.6699982
v 13.2699995 14.8000031 -67.6699982
v 13.2699995 6.00000286 -67.6699982
v 18.9200001 14.8000021 -19.3299999
v 18.9200001 8.44941098e-07 -19.3299999
v -13.2699995 6.00000286 -67.6699982
v 13.2699995 14.8000031 -67.6699982
v 13.2699995 6.00000286 -67.6699982
v 13.2699995 14.8000031 -67.6699982
v -13.2699995 6.00000286 -67.6699982
v -13.2699995 14.8000031 -67.6699982
v 11.4399996 -2.1499989 -24.7999992
v 11.4399996 0.440000981 -22.8400002
v 11.4399996 -2.14999914 -22.8400002
v 11.4399996 0.440000981 -22.8400002
v 11.4399996 -2.1499989 -24.7999992
v 11.4399996 0.68000108 -24.7999992
v 8.81000042 0.0500014648 -33.3999977
v 11.4399996 0.68000108 -24.7999992
v 11.4399996 -2.1499989 -24.7999992
v 11.4399996 0.68000108 -24.7999992
v 8.81000042 0.0500014648 -33.3999977
v 8.81000042 1.75000155 -33.3999977
v 20.6100006 6.91000128 -41
v 18.2600002 4.69000101 -24.9799995
v 15.4699993 6.52000237 -48.8799973
v 18.2600002 4.69000101 -24.9799995
v 20.6100006 6.91000128 -41
v 22.3500004 5.95000124 -27.3999996
v 10.6999998 3.10000277 -64
v 6 5.54000282 -64
v 10.6999998 5.54000282 -64
v 6 5.54000282 -64
v 10.6999998 3.10000277 -64
v 6 3.10000277 -64
v -8.81000042 0.0500014648 -33.3999977
v -11.4399996 0.68000108 -24.7999992
v -8.81000042 1.75000155 -33.3999977
v -11.4399996 0.68000108 -24.7999992
v -8.81000042 0.0500014648 -33.3999977
v -11.4399996 -2.1499989 -24.7999992
v -11.4399996 -2.1499989 -24.7999992
v -11.4399996 0.440000981 -22.8400002
v -11.4399996 0.68000108 -24.7999992
v -11.4399996 0.440000981 -22.8400002
v -11.4399996 -2.1499989 -24.7999992
v -11.4399996 -2.14999914 -22.8400002
v -6 -3.47000098 23.039999
v -6 4.74999905 24.7999992
v -6 6.64999914 23.039999
v -6 4.74999905 24.7999992
v -6 -3.47000098 23.039999
v -6 -3.95000124 24.7999992
v -6 -3.47000098 23.039999
v -6 -5.80000067 21.0499992
v -6 -3.95000124 24.7999992
v -6 -3.47000098 23.039999
v -6 -3.47000074 17.710001
v -6 -5.80000067 21.0499992
v -6 -3.47000074 17.710001
v -6 -5.80000067 15.9500008
v -6 -5.80000067 21.0499992
v -6 4.74999905 24.7999992
v -3.44999981 6.64999914 23.039999
v -6 6.64999914 23.039999
v -3.44999981 6.64999914 23.039999
v -6 4.74999905 24.7999992
v -3.44999981 4.74999905 24.7999992
v -6 -3.95000124 24.7999992
v -3.44999981 4.74999905 24.7999992
v -6 4.74999905 24.7999992
v -3.44999981 4.74999905 24.7999992
v -6 -3.95000124 24.7999992
v -3.44999981 -3.95000124 24.7999992
v -6 -3.95000124 24.7999992
v -3.44999981 -5.80000067 21.0499992
v -3.44999981 -3.95000124 24.7999992
v -3.44999981 -5.80000067 21.0499992
v -6 -3.95000124 24.7999992
v -6 -5.80000067 21.0499992
v -6 -5.80000067 21.0499992
v -3.44999981 -5.80000067 15.9500008
v -3.44999981 -5.80000067 21.0499992
v -3.44999981 -5.80000067 15.9500008
v -6 -5.80000067 21.0499992
v -6 -5.80000067 15.9500008
v -19.2000008 7.60000181 -57.7999992
v -8.29999924 12.9000025 -57.3000031
v -19.2000008 12.9000025 -57.7999992
v -8.29999924 12.9000025 -57.3000031
v -19.2000008 7.60000181 -57.7999992
v -8.29999924 7.60000181 -57.3000031
v -19.2000008 12.9000025 -57.7999992
v -17.6000004 8.60000324 -67.0999985
v -19.2000008 7.60000181 -57.7999992
v -17.6000004 8.60000324 -67.0999985
v -19.2000008 12.9000025 -57.7999992
v -17.6000004 12.9000025 -67.0999985
v -17.6000004 12.9000025 -67.0999985
v -10 9.30000305 -73.9000015
v -17.6000004 8.60000324 -67.0999985
v -10 9.30000305 -73.9000015
v -17.6000004 12.9000025 -67.0999985
v -10 12.9000025 -73.9000015
v -6.4000001 12.9000025 -73.9000015
v -10 9.30000305 -73.9000015
v -10 12.9000025 -73.9000015
v -10 9.30000305 -73.9000015
v -6.4000001 12.9000025 -73.9000015
v -6.4000001 9.30000305 -73.9000015
v -18.2600002 4.69000101 -24.9799995
v -20.6100006 6.91000128 -41
v -15.4699993 6.52000237 -48.8799973
v -20.6100006 6.91000128 -41
v -18.2600002 4.69000101 -24.9799995
v -22.3500004 5.95000124 -27.3999996
v -6 5.54000282 -64
v -10.6999998 3.10000277 -64
v -10.6999998 5.54000282 -64
v -10.6999998 3.10000277 -64
v -6 5.54000282 -64
v -6 3.10000277 -64
v -13.3000002 13.2100019 -23.039999
v -26.6000004 -3.46999979 -1.5167852e-07
v -26.6000004 13.21 5.77427443e-07
v -26.6000004 -3.46999979 -1.5167852e-07
v -13.3000002 13.2100019 -23.039999
v -13.3000002 -3.46999884 -23.039999
v 16.4099998 -8.11000061 -3.54499377e-07
v 10.2200003 -3.47000074 17.710001
v 8.19999981 -8.11000061 14.210001
v 10.2200003 -3.47000074 17.710001
v 16.4099998 -8.11000061 -3.54499377e-07
v 20.4400005 -3.46999979 -1.5167852e-07
v 40.6699982 2.19999862 29.5500011
v 45.9300003 5.49999905 20.4500008
v 40.6699982 5.49999905 29.5500011
v 45.9300003 5.49999905 20.4500008
v 40.6699982 2.19999862 29.5500011
v 45.9300003 2.19999909 20.4500008
v -16.4099998 -8.11000061 -3.54499377e-07
v 8.19999981 -8.11000061 14.210001
v -8.19999981 -8.11000061 14.210001
v 8.19999981 -8.11000061 14.210001
v -16.4099998 -8.11000061 -3.54499377e-07
v -8.19999981 -8.10999966 -14.210001
v -8.19999981 -8.10999966 -14.210001
v 16.4099998 -8.11000061 -3.54499377e-07
v 8.19999981 -8.11000061 14.210001
v 16.4099998 -8.11000061 -3.54499377e-07
v -8.19999981 -8.10999966 -14.210001
v 8.19999981 -8.10999966 -14.210001
v 13.3000002 13.2099991 23.039999
v -26.6000004 13.21 5.77427443e-07
v -13.3000002 13.2099991 23.039999
v -26.6000004 13.21 5.77427443e-07
v 13.3000002 13.2099991 23.039999
v 26.6000004 13.21 5.77427443e-07
v 26.6000004 13.21 5.77427443e-07
v -13.3000002 13.2100019 -23.039999
v -26.6000004 13.21 5.77427443e-07
v -13.3000002 13.2100019 -23.039999
v 26.6000004 13.21 5.77427443e-07
v 13.3000002 13.2100019 -23.039999
v -16.8199997 -5.79999971 -2.78000021
v -19.9499989 -5.79999924 -7.54000044
v -15.539999 -5.79999924 -4.99000025
v -19.9499989 -5.79999924 -7.54000044
v -16.8199997 -5.79999971 -2.78000021
v -21.2299995 -5.79999924 -5.3300004
v -24.4799995 -3.94999981 -7.19999981
v -19.9499989 -5.79999924 -7.54000044
v -21.2299995 -5.79999924 -5.3300004
v -19.9499989 -5.79999924 -7.54000044
v -24.4799995 -3.94999981 -7.19999981
v -23.1999989 -3.94999981 -9.42000008
v -24.4799995 -3.94999981 -7.19999981
v -23.1999989 4.75000048 -9.42000008
v -23.1999989 -3.94999981 -9.42000008
v -23.1999989 4.75000048 -9.42000008
v -24.4799995 -3.94999981 -7.19999981
v -24.4799995 4.75000048 -7.19999981
v -24.4799995 4.75000048 -7.19999981
v -21.6700001 6.65000057 -8.52999973
v -23.1999989 4.75000048 -9.42000008
v -21.6700001 6.65000057 -8.52999973
v -24.4799995 4.75000048 -7.19999981
v -22.9499989 6.6500001 -6.31999969
v 7.28000021 14.7999983 26.0500011
v 51.9699974 5.99999809 45.3199997
v 51.9699974 14.7999983 45.3199997
v 51.9699974 5.99999809 45.3199997
v 7.28000021 14.7999983 26.0500011
v 7.28000021 -1.13868168e-06 26.0500011
v 65.2400055 5.99999857 22.3400002
v 51.9699974 14.7999983 45.3199997
v 51.9699974 5.99999809 45.3199997
v 51.9699974 14.7999983 45.3199997
v 65.2400055 5.99999857 22.3400002
v 65.2400055 14.7999983 22.3400002
v 25.2000008 6.90999842 38.3500023
v 12.5 4.6899991 28.2999992
v 34.5999985 6.51999855 37.8300018
v 12.5 4.6899991 28.2999992
v 25.2000008 6.90999842 38.3500023
v 12.5499992 5.94999886 33.0599976
v 50.0800018 3.099998 41.2700005
v 52.4299965 5.53999853 37.2000008
v 50.0800018 5.53999805 41.2700005
v 52.4299965 5.53999853 37.2000008
v 50.0800018 3.099998 41.2700005
v 52.4299965 3.09999824 37.2000008
v 31.8300018 1.7499994 11.6800003
v 33.329998 0.0499996059 9.06999969
v 33.329998 1.74999964 9.06999969
v 33.329998 0.0499996059 9.06999969
v 31.8300018 1.7499994 11.6800003
v 31.8300018 0.0499994904 11.6800003
v -19.75 4.75000048 -15.3799992
v -18.2299995 -3.46999907 -14.5
v -18.2299995 6.65000057 -14.5
v -18.2299995 -3.46999907 -14.5
v -19.75 4.75000048 -15.3799992
v -19.75 -3.94999933 -15.3799992
v -16.5100002 -5.79999924 -13.5100002
v -18.2299995 -3.46999907 -14.5
v -19.75 -3.94999933 -15.3799992
v -13.6099997 -3.46999955 -11.8400002
v -18.2299995 -3.46999907 -14.5
v -16.5100002 -5.79999924 -13.5100002
v -12.0900002 -5.79999924 -10.96
v -13.6099997 -3.46999955 -11.8400002
v -16.5100002 -5.79999924 -13.5100002
v 45.8099976 11.7600002 2.65000057
v 30.7599983 12.710001 -3.32999969
v 50.0699997 12.7700005 11.0500011
v 30.7599983 12.710001 -3.32999969
v 45.8099976 11.7600002 2.65000057
v 34.9099998 11.7600002 -5.65999985
v 45.8099976 6.90999985 2.65000033
v 34.9099998 11.7600002 -5.65999985
v 45.8099976 11.7600002 2.65000057
v 34.9099998 11.7600002 -5.65999985
v 45.8099976 6.90999985 2.65000033
v 34.9099998 5.95000029 -5.65999985
v 53.2400017 4.45999908 18.3799992
v 50.8899994 4.04999876 22.4500008
v 50.8899994 4.45999861 22.4500008
v 50.8899994 4.04999876 22.4500008
v 53.2400017 4.45999908 18.3799992
v 53.2400017 4.04999924 18.3799992
v 18.4799995 4.75000048 -17.6000004
v 16.9499989 -3.46999907 -16.7199993
v 16.9499989 6.65000057 -16.7199993
v 16.9499989 -3.46999907 -16.7199993
v 18.4799995 4.75000048 -17.6000004
v 18.4799995 -3.94999933 -17.6000004
v 15.2299995 -5.79999924 -15.7199993
v 16.9499989 -3.46999907 -16.7199993
v 18.4799995 -3.94999933 -17.6000004
v 12.3299999 -3.46999907 -14.0499992
v 16.9499989 -3.46999907 -16.7199993
v 15.2299995 -5.79999924 -15.7199993
v 10.8099995 -5.79999924 -13.1699991
v 12.3299999 -3.46999907 -14.0499992
v 15.2299995 -5.79999924 -15.7199993
v -26.1999989 14.8000002 -6.71999884
v -7.28000021 -1.13868168e-06 26.0500011
v -26.1999989 2.93740527e-07 -6.71999979
v -7.28000021 -1.13868168e-06 26.0500011
v -26.1999989 14.8000002 -6.71999884
v -7.28000021 14.7999983 26.0500011
v -33.329998 0.0499996059 9.06999969
v -31.8300018 1.7499994 11.6800003
v -33.329998 1.74999964 9.06999969
v -31.8300018 1.7499994 11.6800003
v -33.329998 0.0499996059 9.06999969
v -31.8300018 0.0499994904 11.6800003
v -30.7599983 12.710001 -3.32999969
v -45.8099976 11.7600002 2.65000057
v -50.0699997 12.7700005 11.0500011
v -45.8099976 11.7600002 2.65000057
v -30.7599983 12.710001 -3.32999969
v -34.9099998 11.7600002 -5.65999985
v -34.9099998 11.7600002 -5.65999985
v -45.8099976 6.90999985 2.65000033
v -45.8099976 11.7600002 2.65000057
v -45.8099976 6.90999985 2.65000033
v -34.9099998 11.7600002 -5.65999985
v -34.9099998 5.95000029 -5.65999985
v -50.8899994 4.04999876 22.4500008
v -53.2400017 4.45999908 18.3799992
v -50.8899994 4.45999861 22.4500008
v -53.2400017 4.45999908 18.3799992
v -50.8899994 4.04999876 22.4500008
v -53.2400017 4.04999924 18.3799992
v -51.9699974 5.99999809 45.3300018
v -7.28000021 14.7999983 26.0500011
v -51.9699974 14.7999983 45.3300018
v -7.28000021 14.7999983 26.0500011
v -51.9699974 5.99999809 45.3300018
v -7.28000021 -1.13868168e-06 26.0500011
v -12.5 4.6899991 28.2999992
v -12.5499992 11.7599983 33.0599976
v -12.5499992 5.94999886 33.0599976
v -12.5499992 11.7599983 33.0599976
v -12.5 4.6899991 28.2999992
v -12.5 12.7099991 28.3100014
v -42.5399971 4.04999828 36.9199982
v -48.1000023 3.09999847 34.7000008
v -44.8900032 4.04999828 32.8499985
v -48.1000023 3.09999847 34.7000008
v -42.5399971 4.04999828 36.9199982
v -45.75 3.09999824 38.7700005
v -45.75 3.09999824 38.7700005
v -52.4299965 3.09999824 37.2000008
v -48.1000023 3.09999847 34.7000008
v -52.4299965 3.09999824 37.2000008
v -45.75 3.09999824 38.7700005
v -50.0800018 3.099998 41.2700005
v 3.44999981 -3.47000098 23.039999
v 3.44999981 4.74999905 24.7999992
v 3.44999981 6.64999914 23.039999
v 3.44999981 4.74999905 24.7999992
v 3.44999981 -3.47000098 23.039999
v 3.44999981 -3.95000124 24.7999992
v 3.44999981 -3.47000098 23.039999
v 3.44999981 -5.80000067 21.0499992
v 3.44999981 -3.95000124 24.7999992
v 3.44999981 -3.47000098 23.039999
v 3.44999981 -3.47000074 17.710001
v 3.44999981 -5.80000067 21.0499992
v 3.44999981 -3.47000074 17.710001
v 3.44999981 -5.80000067 15.9500008
v 3.44999981 -5.80000067 21.0499992
v -18.9200001 14.8000021 -19.3299999
v 13.2699995 14.8000031 -67.6699982
v -13.2699995 14.8000031 -67.6699982
v 13.2699995 14.8000031 -67.6699982
v -18.9200001 14.8000021 -19.3299999
v 18.9200001 14.8000021 -19.3299999
v 6.4000001 9.30000305 -73.9000015
v 8.29999924 12.9000025 -57.3000031
v 6.4000001 12.9000025 -73.9000015
v 8.29999924 12.9000025 -57.3000031
v 6.4000001 9.30000305 -73.9000015
v 8.29999924 7.60000181 -57.3000031
v 8.29999924 7.60000181 -57.3000031
v 6.4000001 9.30000305 -73.9000015
v 10 9.30000305 -73.9000015
v 8.29999924 7.60000181 -57.3000031
v 10 9.30000305 -73.9000015
v 17.6000004 8.60000324 -67.0999985
v 19.2000008 7.60000181 -57.7999992
v 8.29999924 7.60000181 -57.3000031
v 17.6000004 8.60000324 -67.0999985
v 6.4000001 12.9000025 -73.9000015
v 10 9.30000305 -73.9000015
v 6.4000001 9.30000305 -73.9000015
v 10 9.30000305 -73.9000015
v 6.4000001 12.9000025 -73.9000015
v 10 12.9000025 -73.9000015
v 17.6000004 12.9000025 -67.0999985
v 10 9.30000305 -73.9000015
v 10 12.9000025 -73.9000015
v 10 9.30000305 -73.9000015
v 17.6000004 12.9000025 -67.0999985
v 17.6000004 8.60000324 -67.0999985
v 19.2000008 12.9000025 -57.7999992
v 17.6000004 8.60000324 -67.0999985
v 17.6000004 12.9000025 -67.0999985
v 17.6000004 8.60000324 -67.0999985
v 19.2000008 12.9000025 -57.7999992
v 19.2000008 7.60000181 -57.7999992
v 22.3500004 11.7600012 -27.3999996
v 18.2600002 4.69000101 -24.9799995
v 22.3500004 5.95000124 -27.3999996
v 18.2600002 4.69000101 -24.9799995
v 22.3500004 11.7600012 -27.3999996
v 18.2699986 12.7100019 -24.9799995
v 6 3.10000253 -58.9999962
v 10.6999998 4.0500021 -55.2999954
v 6 4.0500021 -55.2999954
v 10.6999998 4.0500021 -55.2999954
v 6 3.10000253 -58.9999962
v 10.6999998 3.10000253 -58.9999962
v 6 3.10000277 -64
v 10.6999998 3.10000253 -58.9999962
v 6 3.10000253 -58.9999962
v 10.6999998 3.10000253 -58.9999962
v 6 3.10000277 -64
v 10.6999998 3.10000277 -64
v -10.2200003 -3.46999907 -17.710001
v 8.19999981 -8.10999966 -14.210001
v -8.19999981 -8.10999966 -14.210001
v 8.19999981 -8.10999966 -14.210001
v -10.2200003 -3.46999907 -17.710001
v 10.2200003 -3.46999907 -17.710001
v -13.2699995 6.00000286 -67.6699982
v -18.9200001 14.8000021 -19.3299999
v -13.2699995 14.8000031 -67.6699982
v -18.9200001 14.8000021 -19.3299999
v -13.2699995 6.00000286 -67.6699982
v -18.9200001 8.44941098e-07 -19.3299999
v -18.2600002 4.69000101 -24.9799995
v -22.3500004 11.7600012 -27.3999996
v -22.3500004 5.95000124 -27.3999996
v -22.3500004 11.7600012 -27.3999996
v -18.2600002 4.69000101 -24.9799995
v -18.2699986 12.7100019 -24.9799995
v -10.6999998 4.0500021 -55.2999954
v -6 3.10000253 -58.9999962
v -6 4.0500021 -55.2999954
v -6 3.10000253 -58.9999962
v -10.6999998 4.0500021 -55.2999954
v -10.6999998 3.10000253 -58.9999962
v -10.6999998 3.10000253 -58.9999962
v -6 3.10000277 -64
v -6 3.10000253 -58.9999962
v -6 3.10000277 -64
v -10.6999998 3.10000253 -58.9999962
v -10.6999998 3.10000277 -64
v -10.2200003 -3.47000074 17.710001
v -16.4099998 -8.11000061 -3.54499377e-07
v -8.19999981 -8.11000061 14.210001
v -16.4099998 -8.11000061 -3.54499377e-07
v -10.2200003 -3.47000074 17.710001
v -20.4400005 -3.46999979 -1.5167852e-07
v 26.6000004 13.21 5.77427443e-07
v 13.3000002 -3.46999884 -23.039999
v 13.3000002 13.2100019 -23.039999
v 13.3000002 -3.46999884 -23.039999
v 26.6000004 13.21 5.77427443e-07
v 26.6000004 -3.46999979 -1.5167852e-07
v -24.4799995 4.75000048 -7.19999981
v -22.9499989 -3.46999955 -6.31999969
v -22.9499989 6.6500001 -6.31999969
v -22.9499989 -3.46999955 -6.31999969
v -24.4799995 4.75000048 -7.19999981
v -24.4799995 -3.94999981 -7.19999981
v -21.2299995 -5.79999924 -5.3300004
v -22.9499989 -3.46999955 -6.31999969
v -24.4799995 -3.94999981 -7.19999981
v -18.3400002 -3.46999979 -3.64999986
v -22.9499989 -3.46999955 -6.31999969
v -21.2299995 -5.79999924 -5.3300004
v -16.8199997 -5.79999971 -2.78000021
v -18.3400002 -3.46999979 -3.64999986
v -21.2299995 -5.79999924 -5.3300004
v 7.28000021 14.7999983 26.0500011
v 26.1999989 2.93740527e-07 -6.71999979
v 7.28000021 -1.13868168e-06 26.0500011
v 26.1999989 2.93740527e-07 -6.71999979
v 7.28000021 14.7999983 26.0500011
v 26.1999989 14.8000002 -6.71999884
v 24.5199986 0.049998939 24.3299999
v 26.0300007 1.74999905 21.7199993
v 24.5199986 1.74999893 24.3299999
v 26.0300007 1.74999905 21.7199993
v 24.5199986 0.049998939 24.3299999
v 26.0300007 0.0499990545 21.7199993
v 12.5 12.7099991 28.3100014
v 25.2000008 11.7599983 38.3500023
v 34.5999985 12.7699986 37.8300018
v 25.2000008 11.7599983 38.3500023
v 12.5 12.7099991 28.3100014
v 12.5499992 11.7599983 33.0599976
v 12.5499992 11.7599983 33.0599976
v 25.2000008 6.90999842 38.3500023
v 25.2000008 11.7599983 38.3500023
v 25.2000008 6.90999842 38.3500023
v 12.5499992 11.7599983 33.0599976
v 12.5499992 5.94999886 33.0599976
v 44.8900032 4.04999828 32.8499985
v 42.5399971 4.45999861 36.9199982
v 44.8900032 4.45999861 32.8499985
v 42.5399971 4.45999861 36.9199982
v 44.8900032 4.04999828 32.8499985
v 42.5399971 4.04999828 36.9199982
v 65.2400055 5.99999857 22.3400002
v 26.1999989 14.8000002 -6.71999884
v 65.2400055 14.7999983 22.3400002
v 26.1999989 14.8000002 -6.71999884
v 65.2400055 5.99999857 22.3400002
v 26.1999989 2.93740527e-07 -6.71999979
v 30.7599983 4.69000006 -3.32999969
v 34.9099998 11.7600002 -5.65999985
v 34.9099998 5.95000029 -5.65999985
v 34.9099998 11.7600002 -5.65999985
v 30.7599983 4.69000006 -3.32999969
v 30.7599983 12.710001 -3.32999969
v 18.2299995 -3.46999907 -14.5
v 19.75 4.75000048 -15.3799992
v 18.2299995 6.65000057 -14.5
v 19.75 4.75000048 -15.3799992
v 18.2299995 -3.46999907 -14.5
v 19.75 -3.94999933 -15.3799992
v 18.2299995 -3.46999907 -14.5
v 16.5100002 -5.79999924 -13.5100002
v 19.75 -3.94999933 -15.3799992
v 18.2299995 -3.46999907 -14.5
v 13.6099997 -3.46999955 -11.8400002
v 16.5100002 -5.79999924 -13.5100002
v 13.6099997 -3.46999955 -11.8400002
v 12.0900002 -5.79999924 -10.96
v 16.5100002 -5.79999924 -13.5100002
v -7.28000021 14.7999983 26.0500011
v -65.2400055 14.7999983 22.3500004
v -51.9699974 14.7999983 45.3300018
v -65.2400055 14.7999983 22.3500004
v -7.28000021 14.7999983 26.0500011
v -26.1999989 14.8000002 -6.71999884
v -67.1999969 9.29999828 31.4099998
v -53.7700005 12.8999977 21.4599991
v -67.1999969 12.8999977 31.4099998
v -53.7700005 12.8999977 21.4599991
v -67.1999969 9.29999828 31.4099998
v -53.7700005 7.59999895 21.4599991
v -53.7700005 7.59999895 21.4599991
v -67.1999969 9.29999828 31.4099998
v -69 9.29999828 28.2900009
v -53.7700005 7.59999895 21.4599991
v -69 9.29999828 28.2900009
v -66.909996 8.59999943 18.3099995
v -59.6599998 7.59999895 12.2699995
v -53.7700005 7.59999895 21.4599991
v -66.909996 8.59999943 18.3099995
v -34.9099998 11.7600002 -5.65999985
v -30.7599983 4.69000006 -3.32999969
v -34.9099998 5.95000029 -5.65999985
v -30.7599983 4.69000006 -3.32999969
v -34.9099998 11.7600002 -5.65999985
v -30.7599983 12.710001 -3.32999969
v -45.4700012 12.8999977 35.8400002
v -60.7999992 9.29999828 42.4899979
v -60.7999992 12.8999977 42.4899979
v -60.7999992 9.29999828 42.4899979
v -45.4700012 12.8999977 35.8400002
v -45.4700012 7.59999847 35.8400002
v -60.7999992 9.29999828 42.4899979
v -45.4700012 7.59999847 35.8400002
v -58.9999962 9.29999828 45.6100006
v -58.9999962 9.29999828 45.6100006
v -45.4700012 7.59999847 35.8400002
v -49.3099976 8.59999847 48.7899971
v -45.4700012 7.59999847 35.8400002
v -40.4599991 7.59999752 45.5299988
v -49.3099976 8.59999847 48.7899971
v -25.2000008 11.7599983 38.3500023
v -34.5999985 6.51999855 37.8300018
v -25.2000008 6.90999842 38.3500023
v -34.5999985 6.51999855 37.8300018
v -25.2000008 11.7599983 38.3500023
v -34.5999985 12.7699986 37.8300018
v 13.2699995 6.00000286 -67.6699982
v -18.9200001 8.44941098e-07 -19.3299999
v -13.2699995 6.00000286 -67.6699982
v -18.9200001 8.44941098e-07 -19.3299999
v 13.2699995 6.00000286 -67.6699982
v 18.9200001 8.44941098e-07 -19.3299999
v 8.29999924 12.9000025 -57.3000031
v 19.2000008 7.60000181 -57.7999992
v 19.2000008 12.9000025 -57.7999992
v 19.2000008 7.60000181 -57.7999992
v 8.29999924 12.9000025 -57.3000031
v 8.29999924 7.60000181 -57.3000031
v 15.4699993 6.52000237 -48.8799973
v 20.6100006 11.7600012 -41
v 20.6100006 6.91000128 -41
v 20.6100006 11.7600012 -41
v 15.4699993 6.52000237 -48.8799973
v 15.4699993 12.7700014 -48.8799973
v -5.79999971 1.75000155 -33.3999977
v -8.81000042 0.0500014648 -33.3999977
v -8.81000042 1.75000155 -33.3999977
v -8.81000042 0.0500014648 -33.3999977
v -5.79999971 1.75000155 -33.3999977
v -5.79999971 0.0500014648 -33.3999977
v -20.4400005 -3.46999979 -1.5167852e-07
v -8.19999981 -8.10999966 -14.210001
v -16.4099998 -8.11000061 -3.54499377e-07
v -8.19999981 -8.10999966 -14.210001
v -20.4400005 -3.46999979 -1.5167852e-07
v -10.2200003 -3.46999907 -17.710001
v -8.29999924 12.9000025 -57.3000031
v -6.4000001 9.30000305 -73.9000015
v -6.4000001 12.9000025 -73.9000015
v -6.4000001 9.30000305 -73.9000015
v -8.29999924 12.9000025 -57.3000031
v -8.29999924 7.60000181 -57.3000031
v -6.4000001 9.30000305 -73.9000015
v -8.29999924 7.60000181 -57.3000031
v -10 9.30000305 -73.9000015
v -10 9.30000305 -73.9000015
v -8.29999924 7.60000181 -57.3000031
v -17.6000004 8.60000324 -67.0999985
v -8.29999924 7.60000181 -57.3000031
v -19.2000008 7.60000181 -57.7999992
v -17.6000004 8.60000324 -67.0999985
v -20.6100006 11.7600012 -41
v -15.4699993 6.52000237 -48.8799973
v -20.6100006 6.91000128 -41
v -15.4699993 6.52000237 -48.8799973
v -20.6100006 11.7600012 -41
v -15.4699993 12.7700014 -48.8799973
v 40.6699982 5.49999905 29.5500011
v 10.1199999 0.849999368 14.2700005
v 40.6699982 2.19999862 29.5500011
v 40.6699982 2.19999862 29.5500011
v 10.1199999 0.849999368 14.2700005
v 17.8299999 -5.65000057 18.7199993
v 17.8299999 -5.65000057 18.7199993
v 10.1199999 0.849999368 14.2700005
v 10.1199999 -5.65000057 14.2700005
v -45.9300003 5.49999905 20.4500008
v -17.4200001 0.849999964 1.63
v -45.9300003 2.19999909 20.4500008
v -45.9300003 2.19999909 20.4500008
v -17.4200001 0.849999964 1.63
v -25.1199989 -5.6500001 6.07999992
v -25.1199989 -5.6500001 6.07999992
v -17.4200001 0.849999964 1.63
v -17.4200001 -5.6500001 1.62999988
v 5.26000023 5.50000238 -50
v 7.28999996 0.850000679 -15.8999996
v 5.26000023 2.20000219 -50
v 5.26000023 2.20000219 -50
v 7.28999996 0.850000679 -15.8999996
v 7.28999996 -5.64999866 -24.7999992
v 7.28999996 -5.64999866 -24.7999992
v 7.28999996 0.850000679 -15.8999996
v 7.28999996 -5.64999914 -15.8999996
v 45.4700012 12.8999977 35.8400002
v 40.4599991 12.8999977 45.5299988
v 49.3099976 12.8999977 48.7899971
v 58.9999962 12.8999977 45.6100006
v 45.4700012 12.8999977 35.8400002
v 49.3099976 12.8999977 48.7899971
v 60.7999992 12.8999977 42.4899979
v 45.4700012 12.8999977 35.8400002
v 58.9999962 12.8999977 45.6100006
v 44.8900032 4.04999828 32.8499985
v 44.8900032 4.45999861 32.8499985
v 48.1000023 3.09999847 34.7000008
v 48.1000023 3.09999847 34.7000008
v 44.8900032 4.45999861 32.8499985
v 52.4299965 5.53999853 37.2000008
v 48.1000023 3.09999847 34.7000008
v 52.4299965 5.53999853 37.2000008
v 52.4299965 3.09999824 37.2000008
v 42.5399971 4.45999861 36.9199982
v 42.5399971 4.04999828 36.9199982
v 45.75 3.09999824 38.7700005
v 50.0800018 5.53999805 41.2700005
v 42.5399971 4.45999861 36.9199982
v 45.75 3.09999824 38.7700005
v 50.0800018 5.53999805 41.2700005
v 45.75 3.09999824 38.7700005
v 50.0800018 3.099998 41.2700005
v 59.6599998 12.8999996 12.2700005
v 53.7700005 12.8999977 21.4599991
v 66.909996 12.8999977 18.3099995
v 53.7700005 12.8999977 21.4599991
v 69 12.8999977 28.2900009
v 66.909996 12.8999977 18.3099995
v 53.7700005 12.8999977 21.4599991
v 67.1999969 12.8999977 31.4099998
v 69 12.8999977 28.2900009
v 17.4200001 0.849999964 1.63
v 45.9300003 5.49999905 20.4500008
v 45.9300003 2.19999909 20.4500008
v 17.4200001 0.849999964 1.63
v 45.9300003 2.19999909 20.4500008
v 25.1199989 -5.6500001 6.07999992
v 17.4200001 0.849999964 1.63
v 25.1199989 -5.6500001 6.07999992
v 17.4200001 -5.6500001 1.62999988
v 50.8899994 4.45999861 22.4500008
v 50.8899994 4.04999876 22.4500008
v 54.1000023 3.09999895 24.2999992
v 50.8899994 4.45999861 22.4500008
v 54.1000023 3.09999895 24.2999992
v 58.4299965 5.53999901 26.8000011
v 58.4299965 5.53999901 26.8000011
v 54.1000023 3.09999895 24.2999992
v 58.4299965 3.09999895 26.8000011
v 53.2400017 4.04999924 18.3799992
v 53.2400017 4.45999908 18.3799992
v 56.4499969 3.09999895 20.2299995
v 53.2400017 4.45999908 18.3799992
v 60.7799988 5.53999901 22.7299995
v 56.4499969 3.09999895 20.2299995
v 56.4499969 3.09999895 20.2299995
v 60.7799988 5.53999901 22.7299995
v 60.7799988 3.09999895 22.7299995
v -53.7700005 12.8999977 21.4599991
v -59.6599998 12.8999996 12.2700005
v -66.909996 12.8999977 18.3099995
v -69 12.8999977 28.2900009
v -53.7700005 12.8999977 21.4599991
v -66.909996 12.8999977 18.3099995
v -67.1999969 12.8999977 31.4099998
v -53.7700005 12.8999977 21.4599991
v -69 12.8999977 28.2900009
v -50.8899994 4.04999876 22.4500008
v -50.8899994 4.45999861 22.4500008
v -54.1000023 3.09999895 24.2999992
v -54.1000023 3.09999895 24.2999992
v -50.8899994 4.45999861 22.4500008
v -58.4299965 5.53999901 26.8000011
v -54.1000023 3.09999895 24.2999992
v -58.4299965 5.53999901 26.8000011
v -58.4299965 3.09999895 26.8000011
v -53.2400017 4.45999908 18.3799992
v -53.2400017 4.04999924 18.3799992
v -56.4499969 3.09999895 20.2299995
v -60.7799988 5.53999901 22.7299995
v -53.2400017 4.45999908 18.3799992
v -56.4499969 3.09999895 20.2299995
v -60.7799988 5.53999901 22.7299995
v -56.4499969 3.09999895 20.2299995
v -60.7799988 3.09999895 22.7299995
v -40.4599991 12.8999977 45.5299988
v -45.4700012 12.8999977 35.8400002
v -49.3099976 12.8999977 48.7899971
v -45.4700012 12.8999977 35.8400002
v -58.9999962 12.8999977 45.6100006
v -49.3099976 12.8999977 48.7899971
v -45.4700012 12.8999977 35.8400002
v -60.7999992 12.8999977 42.4899979
v -58.9999962 12.8999977 45.6100006
v -10.1199999 0.849999368 14.2700005
v -40.6699982 5.49999905 29.5500011
v -40.6699982 2.19999862 29.5500011
v -10.1199999 0.849999368 14.2700005
v -40.6699982 2.19999862 29.5500011
v -17.8299999 -5.65000057 18.7199993
v -10.1199999 0.849999368 14.2700005
v -17.8299999 -5.65000057 18.7199993
v -10.1199999 -5.65000057 14.2700005
v -44.8900032 4.45999861 32.8499985
v -44.8900032 4.04999828 32.8499985
v -48.1000023 3.09999847 34.7000008
v -44.8900032 4.45999861 32.8499985
v -48.1000023 3.09999847 34.7000008
v -52.4299965 5.53999853 37.2000008
v -52.4299965 5.53999853 37.2000008
v -48.1000023 3.09999847 34.7000008
v -52.4299965 3.09999824 37.2000008
v -42.5399971 4.04999828 36.9199982
v -42.5399971 4.45999861 36.9199982
v -45.75 3.09999824 38.7700005
v -42.5399971 4.45999861 36.9199982
v -50.0800018 5.53999805 41.2700005
v -45.75 3.09999824 38.7700005
v -45.75 3.09999824 38.7700005
v -50.0800018 5.53999805 41.2700005
v -50.0800018 3.099998 41.2700005
v 8.29999924 12.9000025 -57.3000031
v 19.2000008 12.9000025 -57.7999992
v 17.6000004 12.9000025 -67.0999985
v 10 12.9000025 -73.9000015
v 8.29999924 12.9000025 -57.3000031
v 17.6000004 12.9000025 -67.0999985
v 6.4000001 12.9000025 -73.9000015
v 8.29999924 12.9000025 -57.3000031
v 10 12.9000025 -73.9000015
v 6 4.0500021 -55.2999954
v 6 4.46000195 -55.2999954
v 6 3.10000253 -58.9999962
v 6 3.10000253 -58.9999962
v 6 4.46000195 -55.2999954
v 6 5.54000282 -64
v 6 3.10000253 -58.9999962
v 6 5.54000282 -64
v 6 3.10000277 -64
v 10.6999998 4.46000195 -55.2999954
v 10.6999998 4.0500021 -55.2999954
v 10.6999998 3.10000253 -58.9999962
v 10.6999998 5.54000282 -64
v 10.6999998 4.46000195 -55.2999954
v 10.6999998 3.10000253 -58.9999962
v 10.6999998 5.54000282 -64
v 10.6999998 3.10000253 -58.9999962
v 10.6999998 3.10000277 -64
v -19.2000008 12.9000025 -57.7999992
v -8.29999924 12.9000025 -57.3000031
v -17.6000004 12.9000025 -67.0999985
v -8.29999924 12.9000025 -57.3000031
v -10 12.9000025 -73.9000015
v -17.6000004 12.9000025 -67.0999985
v -8.29999924 12.9000025 -57.3000031
v -6.4000001 12.9000025 -73.9000015
v -10 12.9000025 -73.9000015
v -7.28999996 0.850000679 -15.8999996
v -5.26000023 5.50000238 -50
v -5.26000023 2.20000219 -50
v -7.28999996 0.850000679 -15.8999996
v -5.26000023 2.20000219 -50
v -7.28999996 -5.64999866 -24.7999992
v -7.28999996 0.850000679 -15.8999996
v -7.28999996 -5.64999866 -24.7999992
v -7.28999996 -5.64999914 -15.8999996
v -6 4.46000195 -55.2999954
v -6 4.0500021 -55.2999954
v -6 3.10000253 -58.9999962
v -6 4.46000195 -55.2999954
v -6 3.10000253 -58.9999962
v -6 5.54000282 -64
v -6 5.54000282 -64
v -6 3.10000253 -58.9999962
v -6 3.10000277 -64
v -10.6999998 4.0500021 -55.2999954
v -10.6999998 4.46000195 -55.2999954
v -10.6999998 3.10000253 -58.9999962
v -10.6999998 4.46000195 -55.2999954
v -10.6999998 5.54000282 -64
v -10.6999998 3.10000253 -58.9999962
v -10.6999998 3.10000253 -58.9999962
v -10.6999998 5.54000282 -64
v -10.6999998 3.10000277 -64
v 13.3000002 -3.47000098 23.039999
v -10.1300001 -3.47000074 17.5500011
v 10.1300001 -3.47000074 17.5500011
v -10.1300001 -3.47000074 17.5500011
v 13.3000002 -3.47000098 23.039999
v -13.3000002 -3.47000098 23.039999
v -13.3000002 -3.47000098 23.039999
v -20.2600002 -3.46999979 -1.5167852e-07
v -10.1300001 -3.47000074 17.5500011
v -20.2600002 -3.46999979 -1.5167852e-07
v -13.3000002 -3.47000098 23.039999
v -26.6000004 -3.46999979 -1.5167852e-07
v -26.6000004 -3.46999979 -1.5167852e-07
v -10.1300001 -3.46999907 -17.5500011
v -20.2600002 -3.46999979 -1.5167852e-07
v -10.1300001 -3.46999907 -17.5500011
v -26.6000004 -3.46999979 -1.5167852e-07
v -13.3000002 -3.46999884 -23.039999
v -13.3000002 -3.46999884 -23.039999
v 10.1300001 -3.46999907 -17.5500011
v -10.1300001 -3.46999907 -17.5500011
v 10.1300001 -3.47000074 17.5500011
v 26.6000004 -3.46999979 -1.5167852e-07
v 13.3000002 -3.47000098 23.039999
v 26.6000004 -3.46999979 -1.5167852e-07
v 10.1300001 -3.47000074 17.5500011
v 20.2600002 -3.46999979 -1.5167852e-07
v 20.2600002 -3.46999979 -1.5167852e-07
v 13.3000002 -3.46999884 -23.039999
v 26.6000004 -3.46999979 -1.5167852e-07
v 13.3000002 -3.46999884 -23.039999
v 20.2600002 -3.46999979 -1.5167852e-07
v 10.1300001 -3.46999907 -17.5500011
v 10.1300001 -3.46999907 -17.5500011
v -13.3000002 -3.46999884 -23.039999
v 13.3000002 -3.46999884 -23.039999

# 183 UV coordinates
vt 0.497099996 0.540199995 0
vt 0.627699971 0.748399973 0
vt 0.497099996 0.748399973 0
vt 0.627699971 0.540199995 0
vt 0.554899991 0.324999988 0
vt 0.66900003 0.255400002 0
vt 0.66900003 0.324999988 0
vt 0.554899991 0.255400002 0
vt 0.570800006 0.0487999991 0
vt 0.653100014 0.0487999991 0
vt 0.653100014 0.0348000005 0
vt 0.570800006 0.00899999961 0
vt 0.653100014 0.00899999961 0
vt 0.570800006 0.0348000005 0
vt 0.651600003 0.849300027 0
vt 0.763100028 0.747200012 0
vt 0.698899984 0.858399987 0
vt 0.731599987 0.710799992 0
vt 0.0785999969 0.905099988 0
vt 0.329899997 0.523800015 0
vt 0.286300004 0.905099988 0
vt 0.0335999988 0.523800015 0
vt 0.404700011 0.416500002 0
vt 0.430099994 0.485900015 0
vt 0.42840001 0.416000009 0
vt 0.386599988 0.485900015 0
vt 0.429800004 0.501699984 0
vt 0.384499997 0.500500023 0
vt 0.806599975 0.441900015 0
vt 0.848100007 0.3565 0
vt 0.806599975 0.3565 0
vt 0.848100007 0.441900015 0
vt 0.840200007 0.2676 0
vt 0.806599975 0.341500014 0
vt 0.848100007 0.341500014 0
vt 0.806599975 0.2676 0
vt 0.834800005 0.187800005 0
vt 0.806599975 0.187800005 0
vt 0.806599975 0.159600005 0
vt 0.834800005 0.159600005 0
vt 0.698599994 0.645699978 0
vt 0.739600003 0.572000027 0
vt 0.701600015 0.572000027 0
vt 0.747500002 0.645699978 0
vt 0.715900004 0.068599999 0
vt 0.752699971 0.107799999 0
vt 0.752699971 0.068599999 0
vt 0.715900004 0.107799999 0
vt 0.715900004 0.137700006 0
vt 0.752699971 0.137600005 0
vt 0.353799999 0.493299991 0
vt 0.377099991 0.485900015 0
vt 0.375 0.500500023 0
vt 0.357499987 0.476700008 0
vt 0.395200014 0.416500002 0
vt 0.383399993 0.4102 0
vt 0.505800009 0.416900009 0
vt 0.519599974 0.481299996 0
vt 0.505800009 0.496199995 0
vt 0.519599974 0.413199991 0
vt 0.4903 0.398699999 0
vt 0.464100003 0.416900009 0
vt 0.450399995 0.398699999 0
vt 0.534600019 0.481299996 0
vt 0.554700017 0.501600027 0
vt 0.534600019 0.501600027 0
vt 0.554700017 0.481299996 0
vt 0.534600019 0.413199991 0
vt 0.554700017 0.413199991 0
vt 0.554700017 0.380499989 0
vt 0.534600019 0.380499989 0
vt 0.554700017 0.340600014 0
vt 0.534600019 0.340600014 0
vt 0.64380002 0.438800007 0
vt 0.687600017 0.559000015 0
vt 0.659200013 0.627099991 0
vt 0.680100024 0.451700002 0
vt 0.752699971 0.0439999998 0
vt 0.715900004 0.0631000027 0
vt 0.715900004 0.0439999998 0
vt 0.752699971 0.0631000027 0
vt 0.466500014 0.551100016 0
vt 0.310299993 0.905099988 0
vt 0.377200007 0.921299994 0
vt 0.353899986 0.523800015 0
vt 0.286300004 0.92110002 0
vt 0.0786999986 0.99000001 0
vt 0.0785999969 0.92110002 0
vt 0.28639999 0.99000001 0
vt 0.42809999 0.395599991 0
vt 0.404700011 0.409500003 0
vt 0.404399991 0.396200001 0
vt 0.42840001 0.409000009 0
vt 0.57069999 0.481299996 0
vt 0.584500015 0.416900009 0
vt 0.584500015 0.496199995 0
vt 0.57069999 0.413199991 0
vt 0.600000024 0.398699999 0
vt 0.62620002 0.416900009 0
vt 0.639900029 0.398699999 0
vt 0.753600001 0.559000015 0
vt 0.788500011 0.437000006 0
vt 0.78670001 0.62529999 0
vt 0.753600001 0.451700002 0
vt 0.701600015 0.559000015 0
vt 0.739600003 0.451700002 0
vt 0.739600003 0.559000015 0
vt 0.694100022 0.451700002 0
vt 0.715900004 0.145899996 0
vt 0.752699971 0.1426 0
vt 0.752699971 0.145899996 0
vt 0.715900004 0.142700002 0
vt 0.0333999991 0.389999986 0
vt 0.329899997 0.505800009 0
vt 0.0335999988 0.505800009 0
vt 0.329699993 0.389999986 0
vt 0.497099996 0.772400022 0
vt 0.627699971 0.980599999 0
vt 0.497099996 0.980599999 0
vt 0.627699971 0.772400022 0
vt 0.812900007 0.477499992 0
vt 0.939199984 0.666499972 0
vt 0.835300028 0.666499972 0
vt 0.961099982 0.477499992 0
vt 0.922100008 0.189300001 0
vt 0.983299971 0.308299989 0
vt 0.949299991 0.181999996 0
vt 0.943199992 0.319099993 0
vt 0.894999981 0.196999997 0
vt 0.852199972 0.264600009 0
vt 0.860099971 0.338499993 0
vt 0.739600003 0.438699991 0
vt 0.684199989 0.401499987 0
vt 0.694100022 0.438699991 0
vt 0.746999979 0.401499987 0
vt 0.781099975 0.733200014 0
vt 0.925300002 0.687699974 0
vt 0.909500003 0.733200014 0
vt 0.765299976 0.687699974 0
vt 0.716899991 0.864400029 0
vt 0.909500003 0.975600004 0
vt 0.781099975 0.975600004 0
vt 0.781099975 0.753199995 0
vt 0.973800004 0.864400029 0
vt 0.909500003 0.753199995 0
vt 0.279900014 0.0996000022 0
vt 0.123800002 0.189700007 0
vt 0.175799996 0.0996000022 0
vt 0.331999987 0.189700007 0
vt 0.175799996 0.279900014 0
vt 0.279900014 0.279900014 0
vt 0.446999997 0.0577000007 0
vt 0.483999997 0.324999988 0
vt 0.472799987 0.0577000007 0
vt 0.53490001 0.255400002 0
vt 0.53490001 0.324999988 0
vt 0.709800005 0.330900013 0
vt 0.79460001 0.341500014 0
vt 0.79460001 0.2676 0
vt 0.745000005 0.2051 0
vt 0.717199981 0.200299993 0
vt 0.764999986 0.136800006 0
vt 0.76819998 0.136800006 0
vt 0.757700026 0.107799999 0
vt 0.776899993 0.068599999 0
vt 0.757700026 0.068599999 0
vt 0.699800014 0.136800006 0
vt 0.703000009 0.136800006 0
vt 0.710399985 0.107799999 0
vt 0.691299975 0.068599999 0
vt 0.710399985 0.068599999 0
vt 0.330599993 0.37439999 0
vt 0.147200003 0.331499994 0
vt 0.305799991 0.331499994 0
vt 0.122400001 0.37439999 0
vt 0.067900002 0.194100007 0
vt 0.0183000006 0.194100007 0
vt 0.147200003 0.0568000004 0
vt 0.122299999 0.0137999998 0
vt 0.305700004 0.0568000004 0
vt 0.434700012 0.194100007 0
vt 0.385100007 0.194100007 0
vt 0.330599993 0.0137999998 0

# 364 vertex normals
vn -0.866087317 -2.18510028e-08 0.499892682
vn 0 -1 -4.37113883e-08
vn 0.130302414 -0.988618255 0.0752013475
vn 0.130303383 -0.988625705 0.0751019046
vn 0.257610142 -0.954737484 0.148705795
vn 0.257509083 -0.95473367 0.148905218
vn -0.865795732 -2.18730705e-08 0.500397503
vn 0 -0.988624632 -0.150403783
vn 0 -0.954748213 -0.297415048
vn 0.69169575 -0.601696372 -0.399397612
vn 0.691278875 -0.602181673 -0.399387896
vn 0.692164421 -0.601169109 -0.399379492
vn 0.106698014 -0.992381513 0.0615988038
vn 0.214599699 -0.968798757 0.123999782
vn 0.144094214 -0.986060381 0.0831966102
vn 0.214501664 -0.968807518 0.124100909
vn 0.0721021071 -0.996529222 0.0416011699
vn -0.88828522 2.00763051e-08 -0.459292382
vn -0.133100331 -4.33224656e-08 0.991102457
vn -0.345682234 -4.1016655e-08 0.938351631
vn 0.0975034311 -4.35031104e-08 0.995235085
vn 0.630603909 -3.39246213e-08 0.776104808
vn 0.866198838 -2.18425527e-08 0.499699354
vn 0.0551986396 -4.36447429e-08 0.998475432
vn -0.108403698 -0.992133856 -0.0626021847
vn -0.215092123 -0.968664467 -0.124195501
vn 0.499387652 3.78706133e-08 -0.866378605
vn 0.582580626 3.55274317e-08 -0.81277287
vn 0.660781145 3.28088312e-08 -0.750578582
vn 0.731713414 2.97942258e-08 -0.681612372
vn 0.499193788 -0.00139994465 -0.866489232
vn 0.498613924 3.78900893e-08 -0.86682415
vn 0.499000192 -0.00159996282 -0.866600335
vn 0.499816477 -0.00220003445 -0.866128504
vn 0.500010252 -0.001699997 -0.866017759
vn 0.499699086 -0.00109996018 -0.866198361
vn -0.759787321 0.482592016 -0.435692728
vn -0.6360811 0.679679871 -0.365289122
vn -0.634694755 0.680594385 -0.365996957
vn -0.842442811 0.240912259 -0.481924504
vn -0.736886203 -0.527890086 -0.422292113
vn -0.737386823 -0.527590573 -0.421792477
vn -0.261795968 -0.953285336 -0.150697738
vn -0.130495071 -0.988562584 -0.0755971894
vn -0.84191519 2.35870896e-08 -0.53960973
vn 0.64009589 3.35832411e-08 -0.76829505
vn 0.791961789 2.66888875e-08 -0.61057061
vn 0.910688102 1.80569391e-08 -0.41309458
vn 0.987471819 -6.89746038e-09 0.157795504
vn 0.203091487 -0.967259407 -0.152193666
vn 0.201307133 -0.968434274 -0.14700526
vn 0.205007777 -0.966036618 -0.157306015
vn 0.866019011 -2.18561755e-08 0.500011027
vn 0.197004423 -0.973821938 -0.113402598
vn 0.19640176 -0.973908842 -0.113701075
vn 0.736886203 -0.527890086 -0.422292113
vn 0.737386823 -0.527590573 -0.421792477
vn 0.842442811 0.240912259 -0.481924504
vn 0.759787321 0.482592016 -0.435692728
vn 0.6360811 0.679679871 -0.365289122
vn 0.634694755 0.680594385 -0.365996957
vn -0.597196341 3.50606904e-08 -0.802095115
vn -0.865975678 -2.18594529e-08 0.50008601
vn -0.582580626 3.55274317e-08 -0.81277287
vn -0.499387652 3.78706133e-08 -0.866378605
vn -0.660781145 3.28088312e-08 -0.750578582
vn -0.731713414 2.97942258e-08 -0.681612372
vn -0.203091487 -0.967259407 -0.152193666
vn -0.201307133 -0.968434274 -0.14700526
vn -0.205007777 -0.966036618 -0.157306015
vn -0.866019011 -2.18561755e-08 0.500011027
vn -0.865572274 -2.18899618e-08 0.50078398
vn -0.108195983 -0.992163181 0.0624976344
vn -0.108196653 -0.992169321 0.0623980276
vn -0.214599699 -0.968798757 0.123999782
vn -0.214501664 -0.968807518 0.124100909
vn -0.50280118 3.77842113e-08 -0.864402056
vn -0.501910925 0.00100005954 -0.864918709
vn -0.502414703 0.00160008459 -0.864625275
vn -0.500783622 0.00119999854 -0.865571618
vn -0.500204206 0.00030004041 -0.865907311
vn -0.500590682 -0.000399954733 -0.865683973
vn 0.0874966979 0.975263178 0.20299238
vn 0.0930029824 0.973331153 0.209706739
vn 0.0821000487 0.97710067 0.196300164
vn 0.385793775 -4.03274747e-08 0.92258507
vn 0.866019011 2.18561755e-08 -0.500011027
vn 1 0 0
vn 0 0.679591417 0.733590841
vn 0 0.482498258 0.875896871
vn 0 0.241288364 0.970453382
vn 0 -0.528019905 0.849231899
vn 0 -0.953307152 0.302002251
vn 0 -0.988532901 0.15100497
vn 0 -4.37113883e-08 1
vn 0 4.37113883e-08 -1
vn 0 -0.992169738 -0.124896228
vn 0 -0.968810558 -0.247802734
vn 0.219991684 0.975163162 -0.0256989859
vn 0.228509024 0.973238409 -0.024300918
vn 0.211404935 0.977022767 -0.0271005891
vn 0.991915286 5.54706014e-09 -0.126901954
vn -0.219991684 0.975163162 -0.0256989859
vn -0.228509024 0.973238409 -0.024300918
vn -0.211404935 0.977022767 -0.0271005891
vn -0.991915286 5.54706014e-09 -0.126901954
vn 0 -0.602221787 0.798328817
vn -0.130302414 -0.988618255 0.0752013475
vn -0.257492155 -0.954770982 0.148695424
vn -0.257394969 -0.954781353 0.14879705
vn 0.866087317 -2.18510028e-08 0.499892682
vn 0.501910925 0.00100005954 -0.864918709
vn 0.50280118 3.77842113e-08 -0.864402056
vn 0.502414703 0.00160008459 -0.864625275
vn 0.500783622 0.00119999854 -0.865571618
vn 0.500204206 0.00030004041 -0.865907311
vn 0.500590682 -0.000399954733 -0.865683973
vn 0 1 4.37113883e-08
vn -0.319406062 -4.14216927e-08 0.947617948
vn -0.224706128 -4.25935376e-08 0.974426568
vn -0.411910921 -3.98308728e-08 0.911224127
vn -0.499387652 -3.78706133e-08 0.866378605
vn 0.397288382 -0.446986884 -0.801476598
vn 0.397994637 4.01002893e-08 -0.917387664
vn 0.212210953 -0.946448863 -0.243312627
vn 0.0883002356 -0.994802654 0.0507000908
vn 0.091397576 -0.994573593 0.0496986359
vn 0.0944035351 -0.994337142 0.0488017797
vn -0.999944925 -4.58990207e-10 0.010500472
vn 0.108197317 -0.9921754 0.0622984096
vn 0.214798465 -0.968793094 0.123699069
vn 0.21480377 -0.968817055 0.123502113
vn 0.108196653 -0.992169321 0.0623980276
vn -0.595301688 -3.51221985e-08 0.803502262
vn -0.495298237 -0.446998388 0.744897306
vn -0.104602918 -0.946426392 0.305508494
vn 0.0880999938 -0.994799972 0.051099956
vn 0.0886979774 -0.994577348 0.0542987175
vn 0.0894041061 -0.994345665 0.0573025867
vn 0.891872764 1.97700594e-08 -0.452286214
vn -0.0722012967 -0.996517897 -0.0417007953
vn -0.144399807 -0.985998631 -0.0833999291
vn -0.106698014 -0.992381513 0.0615988038
vn -0.214798465 -0.968793094 0.123699069
vn -0.144194514 -0.986062527 0.0829968005
vn -0.21480377 -0.968817055 0.123502113
vn -0.0721021071 -0.996529222 0.0416011699
vn 0.84191519 2.35870896e-08 -0.53960973
vn -0.791961789 2.66888875e-08 -0.61057061
vn -0.64009589 3.35832411e-08 -0.76829505
vn -0.910688102 1.80569391e-08 -0.41309458
vn -0.987471819 -6.89746038e-09 0.157795504
vn -0.866198838 -2.18425527e-08 0.499699354
vn -0.891872764 1.97700594e-08 -0.452286214
vn 0.0722012967 -0.996517897 -0.0417007953
vn 0.144399807 -0.985998631 -0.0833999291
vn 0.215092123 -0.968664467 -0.124195501
vn 0.499387652 -3.78706133e-08 0.866378605
vn 0.411910921 -3.98308728e-08 0.911224127
vn 0.319406062 -4.14216927e-08 0.947617948
vn 0.224706128 -4.25935376e-08 0.974426568
vn 0.499194175 -0.000500032096 0.866489947
vn 0.498613924 -3.78900893e-08 0.86682415
vn 0.498613924 9.9964891e-05 0.86682415
vn 0.500128508 -0.00180014037 0.865949333
vn 0.500900269 -0.00280003925 0.86550045
vn 0.500588 -0.003299959 0.865679324
vn 0.757911861 0.483807623 -0.437606841
vn 0.633931041 0.681133389 -0.366317898
vn 0.633997381 0.680597186 -0.367198467
vn 0.84054625 0.242113307 -0.484626651
vn 0.735512674 -0.528109133 -0.424407363
vn 0.735613465 -0.528209627 -0.42410776
vn 0.261293381 -0.953375995 -0.150996223
vn 0.130703583 -0.98852706 -0.0757021159
vn 0.88828522 2.00763051e-08 -0.459292382
vn 0.345682234 -4.1016655e-08 0.938351631
vn 0.133100331 -4.33224656e-08 0.991102457
vn -0.0975034311 -4.35031104e-08 0.995235085
vn -0.630603909 -3.39246213e-08 0.776104808
vn 0.0301003233 -0.967310429 0.251802683
vn 0.0265013073 -0.968547821 0.24741216
vn 0.0337986685 -0.96606195 0.256089866
vn 0.993237078 5.07508124e-09 -0.116104335
vn 0.995146453 4.30140101e-09 -0.0984045863
vn 0.980422676 8.60697202e-09 -0.196904555
vn 0.956296444 1.27811619e-08 -0.2923989
vn 0.233504906 -0.967220247 -0.0998021364
vn 0.228006452 -0.968427479 -0.100802906
vn 0.239112794 -0.965951681 -0.0988053381
vn -0.956296444 1.27811619e-08 -0.2923989
vn -0.980422676 8.60697202e-09 -0.196904555
vn -0.995146453 4.30140101e-09 -0.0984045863
vn -1 0 0
vn -0.0458023101 -4.36655085e-08 0.998950481
vn -0.985512495 7.41354533e-09 -0.169602141
vn -0.924903631 1.66191345e-08 -0.380201489
vn -0.813111305 2.54447556e-08 -0.58210814
vn -0.356914163 4.0832429e-08 -0.934137106
vn -0.233504906 -0.967220247 -0.0998021364
vn -0.228006452 -0.968427479 -0.100802906
vn -0.239112794 -0.965951681 -0.0988053381
vn -0.866087317 2.18510028e-08 -0.499892682
vn 0.69169575 -0.601696372 0.399397522
vn 0.691278875 -0.602181673 0.399387807
vn 0.692164481 -0.601169109 0.399379462
vn 0.865795732 -2.18730705e-08 0.500397503
vn -0.196596295 -0.973881543 -0.113597892
vn -0.196589574 -0.973848403 -0.113894016
vn -0.735512674 -0.528109133 -0.424407363
vn -0.735613465 -0.528209627 -0.42410776
vn -0.84054625 0.242113307 -0.484626651
vn -0.757911861 0.483807623 -0.437606841
vn -0.633931041 0.681133389 -0.366317898
vn -0.633997381 0.680597186 -0.367198467
vn -0.395981997 -4.01383424e-08 0.91825825
vn 0.865975678 -2.18594529e-08 0.50008601
vn -0.0301003233 -0.967310429 0.251802683
vn -0.0265013073 -0.968547821 0.24741216
vn -0.0337986685 -0.96606195 0.256089866
vn 0.86700356 -2.17814744e-08 0.498302042
vn -0.501020491 -3.78293805e-08 0.865435362
vn -0.500397444 -0.000500035298 0.865795553
vn -0.500827134 -0.000900086598 0.865546882
vn -0.499774396 -0.000200027614 0.866155624
vn -0.49931249 0.000499974645 0.8664217
vn -0.499699086 0.00109996018 0.866198361
vn 0.131995425 0.975266159 -0.177293807
vn 0.135197341 0.973280847 -0.185596287
vn 0.12879549 0.977165639 -0.168994039
vn 0.606317341 3.47602906e-08 -0.795222759
vn -0.866019011 2.18561755e-08 -0.500011027
vn -0.498613924 3.78900893e-08 -0.86682415
vn -0.499193788 -0.00139994465 -0.866489232
vn -0.499000192 -0.00159996282 -0.866600335
vn -0.499816477 -0.00220003445 -0.866128504
vn -0.500010252 -0.001699997 -0.866017759
vn -0.499699086 -0.00109996018 -0.866198361
vn -0.86700356 -2.17814744e-08 0.498302042
vn -0.131995425 0.975266159 -0.177293807
vn -0.135197341 0.973280847 -0.185596287
vn -0.12879549 0.977165639 -0.168994039
vn -0.606317341 3.47602906e-08 -0.795222759
vn 0.396102756 -4.01360722e-08 0.918206215
vn 0.999944925 -4.58990207e-10 0.010500472
vn -0.892763436 -0.446981698 0.056397669
vn -0.993514955 -4.97005992e-09 0.113701716
vn -0.316815197 -0.946445346 -0.0622030236
vn -0.000199998933 -0.994794667 -0.101899505
vn -0.00259993272 -0.994574189 -0.10399735
vn -0.004900211 -0.994342864 -0.10610462
vn 0.356914163 4.0832429e-08 -0.934137106
vn 0.813111305 2.54447556e-08 -0.58210814
vn 0.924903631 1.66191345e-08 -0.380201489
vn 0.985512495 7.41354533e-09 -0.169602141
vn 0.50960499 -0.000300040556 0.860408366
vn 0.509221077 -3.76195786e-08 0.860635638
vn 0.509988666 -0.000600024301 0.860180855
vn 0 -0.98595804 0.166992843
vn 0 -0.968581736 0.248695269
vn 0 -0.996507704 0.0835005939
vn 0 -0.602221668 -0.798328817
vn -0.993237078 5.07508124e-09 -0.116104335
vn -0.50960499 -0.000300040556 0.860408366
vn -0.509221077 -3.76195786e-08 0.860635638
vn -0.509988666 -0.000600024301 0.860180855
vn -0.69169575 -0.601696372 0.399397522
vn -0.691278875 -0.602181673 0.399387807
vn -0.692164481 -0.601169109 0.399379462
vn 0.866087317 2.18510028e-08 -0.499892682
vn -0.498613924 -3.78900893e-08 0.86682415
vn -0.499194175 -0.000500032096 0.866489947
vn -0.498613924 9.9964891e-05 0.86682415
vn -0.500128508 -0.00180014037 0.865949333
vn -0.500900269 -0.00280003925 0.86550045
vn -0.500588 -0.003299959 0.865679324
vn 0.865572274 -2.18899618e-08 0.50078398
vn -0.0874966979 0.975263178 0.20299238
vn -0.0930029824 0.973331153 0.209706739
vn -0.0821000487 0.97710067 0.196300164
vn -0.385793775 -4.03274747e-08 0.92258507
vn 0.597084105 3.5064339e-08 -0.802178621
vn -0.489577442 3.81145711e-08 -0.871959746
vn 0.500397444 -0.000500035298 0.865795553
vn 0.501020491 -3.78293805e-08 0.865435362
vn 0.500827134 -0.000900086598 0.865546882
vn 0.499774396 -0.000200027614 0.866155624
vn 0.49931249 0.000499974645 0.8664217
vn 0.499699086 0.00109996018 0.866198361
vn 0.495298237 -0.446998388 0.744897306
vn 0.595301688 -3.51221985e-08 0.803502262
vn 0.104602918 -0.946426392 0.305508494
vn -0.0880999938 -0.994799972 0.051099956
vn -0.0886979774 -0.994577348 0.0542987175
vn -0.0894041061 -0.994345665 0.0573025867
vn 0.489577442 3.81145711e-08 -0.871959746
vn -0.397994637 4.01002893e-08 -0.917387664
vn -0.397288382 -0.446986884 -0.801476598
vn -0.212210953 -0.946448863 -0.243312627
vn -0.0883002356 -0.994802654 0.0507000908
vn -0.091397576 -0.994573593 0.0496986359
vn -0.0944035351 -0.994337142 0.0488017797
vn -0.0551986396 -4.36447429e-08 0.998475432
vn 0 -0.992382109 -0.123197816
vn 0.0458023101 -4.36655085e-08 0.998950481
vn 0.837592661 2.38793234e-08 -0.546295226
vn -0.691789508 -0.601590931 -0.399393976
vn -0.692032754 -0.601028502 -0.399818987
vn -0.691507697 -0.60210675 -0.399104506
vn 0.993514955 -4.97005992e-09 0.113701716
vn 0.892763436 -0.446981698 0.056397669
vn 0.316815197 -0.946445346 -0.0622030236
vn 0.000199998933 -0.994794667 -0.101899505
vn 0.00259993272 -0.994574189 -0.10399735
vn 0.004900211 -0.994342864 -0.10610462
vn -0.837592661 2.38793234e-08 -0.546295226
vn -0.44729358 -3.90949069e-08 0.894387186
vn -0.465805709 0.0258002784 0.884510875
vn -0.448397934 0.0386997871 0.892995894
vn -0.474817723 0.0387014113 0.879232824
vn -0.499892682 -3.78578804e-08 0.866087317
vn -0.550886869 3.64806496e-08 -0.834580004
vn -0.53319943 0.0257000085 -0.845599115
vn -0.549201667 0.0385001525 -0.834802508
vn -0.524166346 0.0384975597 -0.85074532
vn -0.500397503 3.78451332e-08 -0.865795732
vn 0.998234034 2.59654476e-09 -0.0594020262
vn 0.998924077 0.0257006213 -0.0386009328
vn 0.997579873 0.0384992287 -0.0578988306
vn 0.998863459 0.0384985916 -0.0280989707
vn 0.49931258 3.78725034e-08 -0.866421878
vn 0.499505937 0.000500043854 -0.866310239
vn 0.499699414 0.0003000375 -0.866198897
vn 0.49981761 0.000500055437 -0.866130531
vn 0.500011027 3.78548926e-08 -0.866019011
vn -0.499505937 -0.000500043854 0.866310239
vn -0.49931258 -3.78725034e-08 0.866421878
vn -0.499699414 -0.0003000375 0.866198897
vn -0.49981761 -0.000500055437 0.866130531
vn -0.500011027 -3.78548926e-08 0.866019011
vn 0.53319943 0.0257000085 -0.845599115
vn 0.550886869 3.64806496e-08 -0.834580004
vn 0.549201667 0.0385001525 -0.834802508
vn 0.524166346 0.0384975597 -0.85074532
vn 0.500397503 3.78451332e-08 -0.865795732
vn 0.49931258 -3.78725034e-08 0.866421878
vn 0.499505937 -0.000500043854 0.866310239
vn 0.499699414 -0.0003000375 0.866198897
vn 0.49981761 -0.000500055437 0.866130531
vn 0.500011027 -3.78548926e-08 0.866019011
vn -0.499505937 0.000500043854 -0.866310239
vn -0.49931258 3.78725034e-08 -0.866421878
vn -0.499699414 0.0003000375 -0.866198897
vn -0.49981761 0.000500055437 -0.866130531
vn -0.500011027 3.78548926e-08 -0.866019011
vn 0.465805709 0.0258002784 0.884510875
vn 0.44729358 -3.90949069e-08 0.894387186
vn 0.448397934 0.0386997871 0.892995894
vn 0.474817723 0.0387014113 0.879232824
vn 0.499892682 -3.78578804e-08 0.866087317
vn -0.998924077 0.0257006213 -0.0386009328
vn -0.998234034 2.59654476e-09 -0.0594020262
vn -0.997579873 0.0384992287 -0.0578988306
vn -0.998863459 0.0384985916 -0.0280989707

# Mesh 'PipelineFBX' with 524 faces
g PipelineFBX
usemtl DefaultMaterial
f  1/1/1 2/2/1 3/3/1
f  4/2/1 5/1/1 6/4/1
f  7/5/2 8/6/3 9/7/2
f  10/6/3 11/5/2 12/8/4
f  13/9/5 14/6/3 15/8/4
f  16/6/3 17/9/5 18/10/6
f  19/11/7 20/12/7 21/13/7
f  22/12/7 23/11/7 24/14/7
f  25/6/8 26/9/9 27/10/9
f  28/9/9 29/6/8 30/8/8
f  31/6/8 32/5/2 33/8/8
f  34/5/2 35/6/8 36/7/2
f  37/15/10 38/16/10 39/17/11
f  40/16/10 41/15/10 42/18/12
f  43/19/13 44/20/13 45/21/13
f  46/20/13 47/19/13 48/22/13
f  49/23/14 50/24/15 51/25/16
f  52/24/15 53/23/14 54/26/17
f  55/26/17 56/27/2 57/24/15
f  58/27/2 59/26/17 60/28/2
f  61/29/18 62/30/18 63/31/18
f  64/30/18 65/29/18 66/32/18
f  67/33/19 68/34/20 69/35/20
f  70/34/20 71/33/19 72/36/21
f  73/37/22 74/36/21 75/33/19
f  76/36/21 77/37/22 78/38/22
f  79/37/22 80/39/23 81/38/22
f  82/39/23 83/37/22 84/40/23
f  85/41/24 86/42/24 87/43/24
f  88/42/24 89/41/24 90/44/24
f  91/45/2 92/46/25 93/47/2
f  94/46/25 95/45/2 96/48/25
f  97/49/26 98/46/25 99/48/25
f  100/46/25 101/49/26 102/50/26
f  103/51/27 104/52/28 105/53/27
f  106/52/28 107/51/27 108/54/29
f  109/54/29 110/55/30 111/52/28
f  112/55/30 113/54/29 114/56/30
f  115/57/31 116/58/32 117/59/32
f  118/58/32 119/57/31 120/60/33
f  121/57/31 122/61/34 123/60/33
f  124/57/31 125/62/35 126/61/34
f  127/62/35 128/63/36 129/61/34
f  130/64/37 131/65/38 132/66/39
f  133/65/38 134/64/37 135/67/40
f  136/68/41 137/67/40 138/64/37
f  139/67/40 140/68/41 141/69/42
f  142/68/41 143/70/43 144/69/42
f  145/70/43 146/68/41 147/71/44
f  148/71/44 149/72/2 150/70/43
f  151/72/2 152/71/44 153/73/2
f  154/30/45 155/29/45 156/31/45
f  157/29/45 158/30/45 159/32/45
f  160/34/46 161/33/47 162/35/46
f  163/33/47 164/34/46 165/36/48
f  166/36/48 167/37/49 168/33/47
f  169/37/49 170/36/48 171/38/49
f  172/39/23 173/37/49 174/38/49
f  175/37/49 176/39/23 177/40/23
f  178/74/50 179/75/50 180/76/51
f  181/75/50 182/74/50 183/77/52
f  184/78/53 185/79/53 186/80/53
f  187/79/53 188/78/53 189/81/53
f  190/73/2 191/70/54 192/72/2
f  193/70/54 194/73/2 195/71/55
f  196/68/56 197/70/54 198/71/55
f  199/70/54 200/68/56 201/69/57
f  202/68/56 203/67/58 204/69/57
f  205/67/58 206/68/56 207/64/59
f  208/64/59 209/65/60 210/67/58
f  211/65/60 212/64/59 213/66/61
f  214/82/62 215/83/62 216/84/62
f  217/83/62 218/82/62 219/85/62
f  220/86/63 221/87/63 222/88/63
f  223/87/63 224/86/63 225/89/63
f  226/52/64 227/51/65 228/53/65
f  229/51/65 230/52/64 231/54/66
f  232/55/67 233/54/66 234/52/64
f  235/54/66 236/55/67 237/56/67
f  238/75/68 239/74/68 240/76/69
f  241/74/68 242/75/68 243/77/70
f  244/79/71 245/78/71 246/80/71
f  247/78/71 248/79/71 249/81/71
f  250/90/72 251/91/72 252/92/72
f  253/91/72 254/90/72 255/93/72
f  256/28/2 257/24/73 258/27/2
f  259/24/73 260/28/2 261/26/74
f  262/23/75 263/24/73 264/26/74
f  265/24/73 266/23/75 267/25/76
f  268/94/77 269/95/78 270/96/77
f  271/95/78 272/94/77 273/97/79
f  274/98/80 275/95/78 276/97/79
f  277/99/81 278/95/78 279/98/80
f  280/100/82 281/99/81 282/98/80
f  283/101/83 284/102/83 285/103/84
f  286/102/83 287/101/83 288/104/85
f  289/105/86 290/106/86 291/107/86
f  292/106/86 293/105/86 294/108/86
f  295/109/87 296/110/87 297/111/87
f  298/110/87 299/109/87 300/112/87
f  301/58/88 302/57/88 303/59/88
f  304/57/88 305/58/88 306/60/88
f  307/61/88 308/57/88 309/60/88
f  310/62/88 311/57/88 312/61/88
f  313/63/88 314/62/88 315/61/88
f  316/65/89 317/64/90 318/66/89
f  319/64/90 320/65/89 321/67/91
f  322/67/91 323/68/92 324/64/90
f  325/68/92 326/67/91 327/69/92
f  328/70/93 329/68/92 330/69/92
f  331/68/92 332/70/93 333/71/94
f  334/72/2 335/71/94 336/70/93
f  337/71/94 338/72/2 339/73/2
f  340/113/95 341/114/95 342/115/95
f  343/114/95 344/113/95 345/116/95
f  346/91/96 347/90/96 348/92/96
f  349/90/96 350/91/96 351/93/96
f  352/24/97 353/28/2 354/27/2
f  355/28/2 356/24/97 357/26/97
f  358/24/97 359/23/98 360/26/97
f  361/23/98 362/24/97 363/25/98
f  364/102/99 365/101/99 366/103/100
f  367/101/99 368/102/99 369/104/101
f  370/106/102 371/105/102 372/107/102
f  373/105/102 374/106/102 375/108/102
f  376/110/95 377/109/95 378/111/95
f  379/109/95 380/110/95 381/112/95
f  382/24/97 383/23/98 384/25/98
f  385/23/98 386/24/97 387/26/97
f  388/24/97 389/28/2 390/26/97
f  391/28/2 392/24/97 393/27/2
f  394/94/88 395/95/88 396/96/88
f  397/95/88 398/94/88 399/97/88
f  400/98/88 401/95/88 402/97/88
f  403/99/88 404/95/88 405/98/88
f  406/100/88 407/99/88 408/98/88
f  409/101/103 410/102/103 411/103/104
f  412/102/103 413/101/103 414/104/105
f  415/105/106 416/106/106 417/107/106
f  418/106/106 419/105/106 420/108/106
f  421/109/95 422/110/95 423/111/95
f  424/110/95 425/109/95 426/112/95
f  427/1/96 428/2/96 429/3/96
f  430/2/96 431/1/96 432/4/96
f  433/117/95 434/118/95 435/119/95
f  436/118/95 437/117/95 438/120/95
f  439/15/107 440/16/107 441/17/107
f  442/16/107 443/15/107 444/18/107
f  445/5/2 446/6/108 447/7/2
f  448/6/108 449/5/2 450/8/108
f  451/9/109 452/6/108 453/8/108
f  454/6/108 455/9/109 456/10/110
f  457/11/96 458/12/96 459/13/96
f  460/12/96 461/11/96 462/14/96
f  463/1/111 464/2/111 465/3/111
f  466/2/111 467/1/111 468/4/111
f  469/95/112 470/94/113 471/96/113
f  472/94/113 473/95/112 474/97/114
f  475/95/112 476/98/115 477/97/114
f  478/95/112 479/99/116 480/98/115
f  481/99/116 482/100/117 483/98/115
f  484/121/118 485/122/118 486/123/118
f  487/122/118 488/121/118 489/124/118
f  490/54/119 491/55/120 492/56/120
f  493/55/120 494/54/119 495/52/121
f  496/51/122 497/52/121 498/54/119
f  499/52/121 500/51/122 501/53/122
f  502/125/123 503/126/124 504/127/124
f  505/126/124 506/125/123 507/128/125
f  508/128/125 509/125/123 510/129/126
f  511/128/125 512/129/126 513/130/127
f  514/131/128 515/128/125 516/130/127
f  517/132/129 518/133/129 519/134/129
f  520/133/129 521/132/129 522/135/129
f  523/24/130 524/23/131 525/25/132
f  526/23/131 527/24/130 528/26/133
f  529/24/130 530/28/2 531/26/133
f  532/28/2 533/24/130 534/27/2
f  535/126/134 536/125/135 537/127/134
f  538/125/135 539/126/134 540/128/136
f  541/125/135 542/128/136 543/129/137
f  544/129/137 545/128/136 546/130/138
f  547/128/136 548/131/139 549/130/138
f  550/42/140 551/41/140 552/43/140
f  553/41/140 554/42/140 555/44/140
f  556/47/2 557/48/141 558/45/2
f  559/48/141 560/47/2 561/46/142
f  562/46/142 563/49/26 564/48/141
f  565/49/26 566/46/142 567/50/26
f  568/19/143 569/20/143 570/21/143
f  571/20/143 572/19/143 573/22/143
f  574/23/144 575/24/145 576/25/146
f  577/24/145 578/23/144 579/26/147
f  580/26/147 581/27/2 582/24/145
f  583/27/2 584/26/147 585/28/2
f  586/29/148 587/30/148 588/31/148
f  589/30/148 590/29/148 591/32/148
f  592/33/149 593/34/150 594/35/150
f  595/34/150 596/33/149 597/36/151
f  598/37/152 599/36/151 600/33/149
f  601/36/151 602/37/152 603/38/152
f  604/37/152 605/39/153 606/38/152
f  607/39/153 608/37/152 609/40/153
f  610/41/154 611/42/154 612/43/154
f  613/42/154 614/41/154 615/44/154
f  616/48/155 617/47/2 618/45/2
f  619/47/2 620/48/155 621/46/156
f  622/49/157 623/46/156 624/48/155
f  625/46/156 626/49/157 627/50/157
f  628/51/158 629/52/159 630/53/158
f  631/52/159 632/51/158 633/54/160
f  634/54/160 635/55/161 636/52/159
f  637/55/161 638/54/160 639/56/161
f  640/57/162 641/58/163 642/59/163
f  643/58/163 644/57/162 645/60/164
f  646/57/162 647/61/165 648/60/164
f  649/57/162 650/62/166 651/61/165
f  652/62/166 653/63/167 654/61/165
f  655/64/168 656/65/169 657/66/170
f  658/65/169 659/64/168 660/67/171
f  661/68/172 662/67/171 663/64/168
f  664/67/171 665/68/172 666/69/173
f  667/68/172 668/70/174 669/69/173
f  670/70/174 671/68/172 672/71/175
f  673/71/175 674/72/2 675/70/174
f  676/72/2 677/71/175 678/73/2
f  679/30/176 680/29/176 681/31/176
f  682/29/176 683/30/176 684/32/176
f  685/34/177 686/33/178 687/35/177
f  688/33/178 689/34/177 690/36/179
f  691/36/179 692/37/180 693/33/178
f  694/37/180 695/36/179 696/38/180
f  697/39/153 698/37/180 699/38/180
f  700/37/180 701/39/153 702/40/153
f  703/74/181 704/75/181 705/76/182
f  706/75/181 707/74/181 708/77/183
f  709/78/71 710/79/71 711/80/71
f  712/79/71 713/78/71 714/81/71
f  715/82/184 716/83/184 717/84/184
f  718/83/184 719/82/184 720/85/184
f  721/86/96 722/87/96 723/88/96
f  724/87/96 725/86/96 726/89/96
f  727/52/185 728/51/88 729/53/88
f  730/51/88 731/52/185 732/54/186
f  733/55/187 734/54/186 735/52/185
f  736/54/186 737/55/187 738/56/187
f  739/75/188 740/74/188 741/76/189
f  742/74/188 743/75/188 744/77/190
f  745/79/96 746/78/96 747/80/96
f  748/78/96 749/79/96 750/81/96
f  751/55/191 752/54/192 753/56/191
f  754/54/192 755/55/191 756/52/193
f  757/52/193 758/51/194 759/54/192
f  760/51/194 761/52/193 762/53/194
f  763/57/194 764/58/194 765/59/194
f  766/58/194 767/57/194 768/60/194
f  769/57/194 770/61/194 771/60/194
f  772/57/194 773/62/194 774/61/194
f  775/62/194 776/63/194 777/61/194
f  778/64/90 779/65/89 780/66/89
f  781/65/89 782/64/90 783/67/91
f  784/68/92 785/67/91 786/64/90
f  787/67/91 788/68/92 789/69/92
f  790/68/92 791/70/93 792/69/92
f  793/70/93 794/68/92 795/71/94
f  796/71/94 797/72/2 798/70/93
f  799/72/2 800/71/94 801/73/2
f  802/30/195 803/29/195 804/31/195
f  805/29/195 806/30/195 807/32/195
f  808/34/196 809/33/197 810/35/196
f  811/33/197 812/34/196 813/36/198
f  814/36/198 815/37/199 816/33/197
f  817/37/199 818/36/198 819/38/199
f  820/39/96 821/37/199 822/38/199
f  823/37/199 824/39/96 825/40/96
f  826/74/200 827/75/200 828/76/201
f  829/75/200 830/74/200 831/77/202
f  832/78/96 833/79/96 834/80/96
f  835/79/96 836/78/96 837/81/96
f  838/117/203 839/118/203 840/119/203
f  841/118/203 842/117/203 843/120/203
f  844/136/204 845/137/204 846/138/205
f  847/137/204 848/136/204 849/139/206
f  850/11/207 851/12/207 852/13/207
f  853/12/207 854/11/207 855/14/207
f  856/140/2 857/141/2 858/142/2
f  859/141/2 860/140/2 861/143/2
f  862/143/2 863/144/2 864/141/2
f  865/144/2 866/143/2 867/145/2
f  868/146/118 869/147/118 870/148/118
f  871/147/118 872/146/118 873/149/118
f  874/149/118 875/150/118 876/147/118
f  877/150/118 878/149/118 879/151/118
f  880/73/2 881/70/208 882/72/2
f  883/70/208 884/73/2 885/71/209
f  886/68/210 887/70/208 888/71/209
f  889/70/208 890/68/210 891/69/211
f  892/68/210 893/67/212 894/69/211
f  895/67/212 896/68/210 897/64/213
f  898/64/213 899/65/214 900/67/212
f  901/65/214 902/64/213 903/66/215
f  904/82/216 905/83/216 906/84/216
f  907/83/216 908/82/216 909/85/216
f  910/86/217 911/87/217 912/88/217
f  913/87/217 914/86/217 915/89/217
f  916/75/218 917/74/218 918/76/219
f  919/74/218 920/75/218 921/77/220
f  922/79/53 923/78/53 924/80/53
f  925/78/53 926/79/53 927/81/53
f  928/90/221 929/91/221 930/92/221
f  931/91/221 932/90/221 933/93/221
f  934/94/222 935/95/223 936/96/222
f  937/95/223 938/94/222 939/97/224
f  940/98/225 941/95/223 942/97/224
f  943/99/226 944/95/223 945/98/225
f  946/100/227 947/99/226 948/98/225
f  949/101/228 950/102/228 951/103/229
f  952/102/228 953/101/228 954/104/230
f  955/105/231 956/106/231 957/107/231
f  958/106/231 959/105/231 960/108/231
f  961/109/232 962/110/232 963/111/232
f  964/110/232 965/109/232 966/112/232
f  967/58/233 968/57/234 969/59/233
f  970/57/234 971/58/233 972/60/235
f  973/61/236 974/57/234 975/60/235
f  976/62/237 977/57/234 978/61/236
f  979/63/238 980/62/237 981/61/236
f  982/113/87 983/114/87 984/115/87
f  985/114/87 986/113/87 987/116/87
f  988/91/239 989/90/239 990/92/239
f  991/90/239 992/91/239 993/93/239
f  994/102/240 995/101/240 996/103/241
f  997/101/240 998/102/240 999/104/242
f  1000/106/243 1001/105/243 1002/107/243
f  1003/105/243 1004/106/243 1005/108/243
f  1006/110/87 1007/109/87 1008/111/87
f  1009/109/87 1010/110/87 1011/112/87
f  1012/83/244 1013/82/244 1014/84/244
f  1015/82/244 1016/83/244 1017/85/244
f  1018/133/245 1019/132/245 1020/134/245
f  1021/132/245 1022/133/245 1023/135/245
f  1024/49/157 1025/46/156 1026/50/157
f  1027/46/156 1028/49/157 1029/48/155
f  1030/48/155 1031/47/2 1032/46/156
f  1033/47/2 1034/48/155 1035/45/2
f  1036/95/194 1037/94/194 1038/96/194
f  1039/94/194 1040/95/194 1041/97/194
f  1042/95/194 1043/98/194 1044/97/194
f  1045/95/194 1046/99/194 1047/98/194
f  1048/99/194 1049/100/194 1050/98/194
f  1051/121/118 1052/122/118 1053/123/118
f  1054/122/118 1055/121/118 1056/124/118
f  1057/125/246 1058/126/247 1059/127/247
f  1060/126/247 1061/125/246 1062/128/248
f  1063/128/248 1064/125/246 1065/129/249
f  1066/128/248 1067/129/249 1068/130/250
f  1069/131/251 1070/128/248 1071/130/250
f  1072/39/96 1073/37/252 1074/40/96
f  1075/37/252 1076/39/96 1077/38/252
f  1078/36/253 1079/37/252 1080/38/252
f  1081/37/252 1082/36/253 1083/33/254
f  1084/34/255 1085/33/254 1086/36/253
f  1087/33/254 1088/34/255 1089/35/255
f  1090/132/256 1091/133/256 1092/134/257
f  1093/133/256 1094/132/256 1095/135/258
f  1096/46/259 1097/49/260 1098/50/260
f  1099/49/260 1100/46/259 1101/48/261
f  1102/47/2 1103/48/261 1104/46/259
f  1105/48/261 1106/47/2 1107/45/2
f  1108/139/262 1109/138/262 1110/136/262
f  1111/138/262 1112/139/262 1113/137/262
f  1114/83/263 1115/82/263 1116/84/263
f  1117/82/263 1118/83/263 1119/85/263
f  1120/133/264 1121/132/264 1122/134/265
f  1123/132/264 1124/133/264 1125/135/266
f  1126/49/260 1127/46/259 1128/50/260
f  1129/46/259 1130/49/260 1131/48/261
f  1132/48/261 1133/47/2 1134/46/259
f  1135/47/2 1136/48/261 1137/45/2
f  1138/139/267 1139/138/267 1140/136/268
f  1141/138/267 1142/139/267 1143/137/269
f  1144/117/270 1145/118/270 1146/119/270
f  1147/118/270 1148/117/270 1149/120/270
f  1150/58/271 1151/57/272 1152/59/271
f  1153/57/272 1154/58/271 1155/60/273
f  1156/61/274 1157/57/272 1158/60/273
f  1159/62/275 1160/57/272 1161/61/274
f  1162/63/276 1163/62/275 1164/61/274
f  1165/113/232 1166/114/232 1167/115/232
f  1168/114/232 1169/113/232 1170/116/232
f  1171/91/277 1172/90/277 1173/92/277
f  1174/90/277 1175/91/277 1176/93/277
f  1177/102/278 1178/101/278 1179/103/279
f  1180/101/278 1181/102/278 1182/104/280
f  1183/106/281 1184/105/281 1185/107/281
f  1186/105/281 1187/106/281 1188/108/281
f  1189/110/232 1190/109/232 1191/111/232
f  1192/109/232 1193/110/232 1194/112/232
f  1195/83/282 1196/82/282 1197/84/282
f  1198/82/282 1199/83/282 1200/85/282
f  1201/133/283 1202/132/283 1203/134/283
f  1204/132/283 1205/133/283 1206/135/283
f  1207/95/284 1208/94/285 1209/96/285
f  1210/94/285 1211/95/284 1212/97/286
f  1213/95/284 1214/98/287 1215/97/286
f  1216/95/284 1217/99/288 1218/98/287
f  1219/99/288 1220/100/289 1221/98/287
f  1222/121/118 1223/122/118 1224/123/118
f  1225/122/118 1226/121/118 1227/124/118
f  1228/125/290 1229/126/291 1230/127/291
f  1231/126/291 1232/125/290 1233/128/292
f  1234/128/292 1235/125/290 1236/129/293
f  1237/128/292 1238/129/293 1239/130/294
f  1240/131/295 1241/128/292 1242/130/294
f  1243/132/296 1244/133/296 1245/134/296
f  1246/133/296 1247/132/296 1248/135/296
f  1249/126/297 1250/125/298 1251/127/297
f  1252/125/298 1253/126/297 1254/128/299
f  1255/125/298 1256/128/299 1257/129/300
f  1258/129/300 1259/128/299 1260/130/301
f  1261/128/299 1262/131/302 1263/130/301
f  1264/42/303 1265/41/303 1266/43/303
f  1267/41/303 1268/42/303 1269/44/303
f  1270/19/304 1271/20/304 1272/21/304
f  1273/20/304 1274/19/304 1275/22/304
f  1276/29/305 1277/30/305 1278/31/305
f  1279/30/305 1280/29/305 1281/32/305
f  1282/41/306 1283/42/306 1284/43/306
f  1285/42/306 1286/41/306 1287/44/306
f  1288/90/96 1289/91/96 1290/92/96
f  1291/91/96 1292/90/96 1293/93/96
f  1294/15/307 1295/16/307 1296/17/308
f  1297/16/307 1298/15/307 1299/18/309
f  1300/126/310 1301/125/311 1302/127/310
f  1303/125/311 1304/126/310 1305/128/312
f  1306/125/311 1307/128/312 1308/129/313
f  1309/129/313 1310/128/312 1311/130/314
f  1312/128/312 1313/131/315 1314/130/314
f  1315/42/316 1316/41/316 1317/43/316
f  1318/41/316 1319/42/316 1320/44/316
f  1321/152/317 1322/153/318 1323/154/319
f  1324/154/319 1325/153/318 1326/155/320
f  1327/155/320 1328/153/318 1329/156/321
f  1330/152/322 1331/153/323 1332/154/324
f  1333/154/324 1334/153/323 1335/155/325
f  1336/155/325 1337/153/323 1338/156/326
f  1339/152/327 1340/153/328 1341/154/329
f  1342/154/329 1343/153/328 1344/155/330
f  1345/155/330 1346/153/328 1347/156/88
f  1348/157/118 1349/158/118 1350/159/118
f  1351/160/118 1352/157/118 1353/159/118
f  1354/161/118 1355/157/118 1356/160/118
f  1357/162/331 1358/163/332 1359/164/333
f  1360/164/333 1361/163/332 1362/165/334
f  1363/164/333 1364/165/334 1365/166/335
f  1366/167/336 1367/168/337 1368/169/338
f  1369/170/339 1370/167/336 1371/169/338
f  1372/170/339 1373/169/338 1374/171/340
f  1375/158/118 1376/157/118 1377/159/118
f  1378/157/118 1379/160/118 1380/159/118
f  1381/157/118 1382/161/118 1383/160/118
f  1384/153/341 1385/152/342 1386/154/343
f  1387/153/341 1388/154/343 1389/155/344
f  1390/153/341 1391/155/344 1392/156/345
f  1393/163/336 1394/162/337 1395/164/338
f  1396/163/336 1397/164/338 1398/165/339
f  1399/165/339 1400/164/338 1401/166/340
f  1402/168/331 1403/167/332 1404/169/333
f  1405/167/332 1406/170/334 1407/169/333
f  1408/169/333 1409/170/334 1410/171/335
f  1411/157/118 1412/158/118 1413/159/118
f  1414/160/118 1415/157/118 1416/159/118
f  1417/161/118 1418/157/118 1419/160/118
f  1420/162/346 1421/163/347 1422/164/348
f  1423/164/348 1424/163/347 1425/165/349
f  1426/164/348 1427/165/349 1428/166/350
f  1429/167/351 1430/168/352 1431/169/353
f  1432/170/354 1433/167/351 1434/169/353
f  1435/170/354 1436/169/353 1437/171/355
f  1438/158/118 1439/157/118 1440/159/118
f  1441/157/118 1442/160/118 1443/159/118
f  1444/157/118 1445/161/118 1446/160/118
f  1447/153/356 1448/152/357 1449/154/358
f  1450/153/356 1451/154/358 1452/155/359
f  1453/153/356 1454/155/359 1455/156/360
f  1456/163/351 1457/162/352 1458/164/353
f  1459/163/351 1460/164/353 1461/165/354
f  1462/165/354 1463/164/353 1464/166/355
f  1465/168/346 1466/167/347 1467/169/348
f  1468/167/347 1469/170/349 1470/169/348
f  1471/169/348 1472/170/349 1473/171/350
f  1474/157/118 1475/158/118 1476/159/118
f  1477/160/118 1478/157/118 1479/159/118
f  1480/161/118 1481/157/118 1482/160/118
f  1483/162/194 1484/163/194 1485/164/194
f  1486/164/194 1487/163/194 1488/165/194
f  1489/164/194 1490/165/194 1491/166/194
f  1492/167/88 1493/168/88 1494/169/88
f  1495/170/88 1496/167/88 1497/169/88
f  1498/170/88 1499/169/88 1500/171/88
f  1501/158/118 1502/157/118 1503/159/118
f  1504/157/118 1505/160/118 1506/159/118
f  1507/157/118 1508/161/118 1509/160/118
f  1510/153/361 1511/152/362 1512/154/363
f  1513/153/361 1514/154/363 1515/155/364
f  1516/153/361 1517/155/364 1518/156/194
f  1519/163/88 1520/162/88 1521/164/88
f  1522/163/88 1523/164/88 1524/165/88
f  1525/165/88 1526/164/88 1527/166/88
f  1528/168/194 1529/167/194 1530/169/194
f  1531/167/194 1532/170/194 1533/169/194
f  1534/169/194 1535/170/194 1536/171/194
f  1537/172/2 1538/173/2 1539/174/2
f  1540/173/2 1541/172/2 1542/175/2
f  1543/175/2 1544/176/2 1545/173/2
f  1546/176/2 1547/175/2 1548/177/2
f  1549/177/2 1550/178/2 1551/176/2
f  1552/178/2 1553/177/2 1554/179/2
f  1555/179/2 1556/180/2 1557/178/2
f  1558/174/2 1559/181/2 1560/172/2
f  1561/181/2 1562/174/2 1563/182/2
f  1564/182/2 1565/183/2 1566/181/2
f  1567/183/2 1568/182/2 1569/180/2
f  1570/180/2 1571/179/2 1572/183/2

