# File produced by Open Asset Import Library (http://www.assimp.sf.net)
# (assimp v6.0.0)

mtllib ship11a.mtl

# 1461 vertex positions
v -31.2719994 1.73199892 23.4840012
v -21.1999989 1.73199904 16.3719978
v -11.1280003 1.73199952 9.26399994
v -31.2719994 -5.28400087 23.4839993
v -11.1280003 1.73199952 9.26399994
v -31.2719994 1.73199892 23.4840012
v -11.1280003 1.73199952 9.26399994
v -31.2719994 -5.28400087 23.4839993
v -11.1280003 -5.28399992 9.26399899
v 5.60000038 -12.7999992 16.1519985
v -11.2000008 -9.60000038 16.1519985
v -5.60000038 -12.7999992 16.1519985
v -11.2000008 -9.60000038 16.1519985
v 5.60000038 -12.7999992 16.1519985
v 11.2000008 -9.60000038 16.1519985
v 11.2000008 -9.60000038 16.1519985
v -11.2000008 4.79999876 16.1519985
v -11.2000008 -9.60000038 16.1519985
v -11.2000008 4.79999876 16.1519985
v 11.2000008 -9.60000038 16.1519985
v 11.2000008 4.79999876 16.1519985
v 11.2000008 4.79999876 16.1519985
v -15.3999996 4.79999924 6.35200024
v -11.2000008 4.79999876 16.1519985
v -15.3999996 4.79999924 6.35200024
v 11.2000008 4.79999876 16.1519985
v 15.3999996 4.79999924 6.35200024
v 11.000001 4.80000019 -23.0479984
v -15.3999996 4.79999924 6.35200024
v 15.3999996 4.79999924 6.35200024
v -15.3999996 4.79999924 6.35200024
v 11.000001 4.80000019 -23.0479984
v -11.000001 4.80000019 -23.0479984
v 11.000001 4.80000019 -23.0479984
v 0 4.80000067 -25.2479973
v -11.000001 4.80000019 -23.0479984
v -43.987999 3.74399853 29.763998
v -38.4440002 -3.53200102 36.0400009
v -38.4440002 0.531998396 36.0400009
v -38.4440002 -3.53200102 36.0400009
v -43.987999 3.74399853 29.763998
v -43.987999 -6.74400043 29.763998
v -53.3440056 3.74399924 11.8879995
v -43.987999 -6.74400043 29.763998
v -43.987999 3.74399853 29.763998
v -43.987999 -6.74400043 29.763998
v -53.3440056 3.74399924 11.8879995
v -53.3440056 -6.74399996 11.8879986
v -30.4480019 -6.74399996 4.93199921
v -21.052002 3.74399996 -7.61999941
v -30.4480019 3.74399948 4.93199968
v -21.052002 3.74399996 -7.61999941
v -30.4480019 -6.74399996 4.93199921
v -21.052002 -6.743999 -7.62000036
v -21.052002 -6.743999 -7.62000036
v -21.4560013 3.7440002 -9.97199917
v -21.052002 3.74399996 -7.61999941
v -21.4560013 3.7440002 -9.97199917
v -21.052002 -6.743999 -7.62000036
v -21.4560013 -6.743999 -9.97200012
v -38.8359985 -2.98800135 35.343998
v -44.9400024 -0.872001529 37.2479973
v -44.9400024 -2.13200164 37.2479973
v -44.9400024 -0.872001529 37.2479973
v -38.8359985 -2.98800135 35.343998
v -38.8359985 -0.0200015455 35.343998
v -15.4879999 0.339999259 17.2119999
v -14.1000004 -4.19999981 11.3639984
v -14.1000004 0.39999947 11.3639994
v -14.1000004 -4.19999981 11.3639984
v -15.4879999 0.339999259 17.2119999
v -15.4879999 -4.14000034 17.2119999
v -15.4879999 0.339999259 17.2119999
v -17.0039997 -2.72000122 26.1399994
v -15.4879999 -4.14000034 17.2119999
v -17.0039997 -2.72000122 26.1399994
v -15.4879999 0.339999259 17.2119999
v -17.0039997 -1.08000112 26.1399994
v -24.5720005 0.395999163 18.7559986
v -15.4879999 0.339999259 17.2119999
v -14.1000004 0.39999947 11.3639994
v -15.4879999 0.339999259 17.2119999
v -24.5720005 0.395999163 18.7559986
v -23.4920006 0.33999905 21.6359978
v -23.4920006 0.33999905 21.6359978
v -17.0039997 -1.08000112 26.1399994
v -15.4879999 0.339999259 17.2119999
v -17.0039997 -1.08000112 26.1399994
v -23.4920006 0.33999905 21.6359978
v -21.0599995 -1.08000112 28.2199993
v -44.064003 2.93999839 29.632
v -44.9400024 -0.872001529 37.2479973
v -38.8359985 -0.0200015455 35.343998
v -44.9400024 -0.872001529 37.2479973
v -44.064003 2.93999839 29.632
v -50.2680016 1.64399838 32.8959961
v -44.064003 2.93999839 29.632
v -58.288002 1.6919992 17.7559986
v -50.2680016 1.64399838 32.8959961
v -58.288002 1.6919992 17.7559986
v -44.064003 2.93999839 29.632
v -52.8760033 2.93999934 12.5399981
v -11.000001 -9.27999878 -23.0480003
v -15.3999996 4.79999924 6.35200024
v -11.000001 4.80000019 -23.0479984
v -15.3999996 4.79999924 6.35200024
v -11.000001 -9.27999878 -23.0480003
v -15.3999996 -9.59999943 6.35199928
v -15.3999996 -9.59999943 6.35199928
v -11.2000008 4.79999876 16.1519985
v -15.3999996 4.79999924 6.35200024
v -11.2000008 4.79999876 16.1519985
v -15.3999996 -9.59999943 6.35199928
v -11.2000008 -9.60000038 16.1519985
v -25.8640022 -2.54400063 18.1519985
v -26.2560005 -1.76000082 21.2280006
v -26.1880016 -1.76000059 18.1519985
v -26.2560005 -1.76000082 21.2280006
v -25.8640022 -2.54400063 18.1519985
v -25.9360008 -2.54400086 21.2759991
v -26.8400021 -2.5440011 23.843998
v -26.2560005 -1.76000082 21.2280006
v -25.9360008 -2.54400086 21.2759991
v -26.2560005 -1.76000082 21.2280006
v -26.8400021 -2.5440011 23.843998
v -27.1240005 -1.76000094 23.684
v -26.8400021 -2.5440011 23.843998
v -28.8120003 -1.76000094 26.2799988
v -27.1240005 -1.76000094 23.684
v -28.8120003 -1.76000094 26.2799988
v -26.8400021 -2.5440011 23.843998
v -28.5999985 -2.5440011 26.5240002
v -26.1599979 -2.86800098 24.2319965
v -28.5999985 -2.5440011 26.5240002
v -26.8400021 -2.5440011 23.843998
v -28.5999985 -2.5440011 26.5240002
v -26.1599979 -2.86800098 24.2319965
v -28.0800018 -2.86800098 27.1119995
v -25.079998 -2.86800051 18.1519985
v -25.9360008 -2.54400086 21.2759991
v -25.8640022 -2.54400063 18.1519985
v -25.9360008 -2.54400086 21.2759991
v -25.079998 -2.86800051 18.1519985
v -25.1599998 -2.86800075 21.3919983
v -25.1599998 -2.86800075 21.3919983
v -26.8400021 -2.5440011 23.843998
v -25.9360008 -2.54400086 21.2759991
v -26.8400021 -2.5440011 23.843998
v -25.1599998 -2.86800075 21.3919983
v -26.1599979 -2.86800098 24.2319965
v -24.3840008 -2.54400086 21.5039978
v -26.1599979 -2.86800098 24.2319965
v -25.1599998 -2.86800075 21.3919983
v -26.1599979 -2.86800098 24.2319965
v -24.3840008 -2.54400086 21.5039978
v -25.4800014 -2.5440011 24.6159992
v -25.4800014 -2.5440011 24.6159992
v -28.0800018 -2.86800098 27.1119995
v -26.1599979 -2.86800098 24.2319965
v -28.0800018 -2.86800098 27.1119995
v -25.4800014 -2.5440011 24.6159992
v -27.5600014 -2.54400134 27.6959972
v -25.1960011 -1.76000094 24.7759991
v -27.5600014 -2.54400134 27.6959972
v -25.4800014 -2.5440011 24.6159992
v -27.5600014 -2.54400134 27.6959972
v -25.1960011 -1.76000094 24.7759991
v -27.3480034 -1.76000118 27.9399967
v -25.1960011 -1.76000094 24.7759991
v -27.5600014 -0.976001143 27.6959972
v -27.3480034 -1.76000118 27.9399967
v -24.2960014 -2.54400063 18.1519985
v -25.1599998 -2.86800075 21.3919983
v -25.079998 -2.86800051 18.1519985
v -25.1599998 -2.86800075 21.3919983
v -24.2960014 -2.54400063 18.1519985
v -24.3840008 -2.54400086 21.5039978
v -23.972002 -1.76000059 18.1519985
v -24.3840008 -2.54400086 21.5039978
v -24.2960014 -2.54400063 18.1519985
v -24.3840008 -2.54400086 21.5039978
v -23.972002 -1.76000059 18.1519985
v -24.0639992 -1.76000082 21.552
v -25.1960011 -1.76000094 24.7759991
v -24.3840008 -2.54400086 21.5039978
v -24.0639992 -1.76000082 21.552
v -24.3840008 -2.54400086 21.5039978
v -25.1960011 -1.76000094 24.7759991
v -25.4800014 -2.5440011 24.6159992
v -23.972002 -1.76000059 18.1519985
v -24.3840008 -0.976000845 21.5039978
v -24.0639992 -1.76000082 21.552
v -24.3840008 -0.976000845 21.5039978
v -25.1960011 -1.76000094 24.7759991
v -24.0639992 -1.76000082 21.552
v -25.1960011 -1.76000094 24.7759991
v -24.3840008 -0.976000845 21.5039978
v -25.4800014 -0.976001024 24.6159992
v -27.5600014 -0.976001143 27.6959972
v -25.1960011 -1.76000094 24.7759991
v -25.4800014 -0.976001024 24.6159992
v -25.4800014 -0.976001024 24.6159992
v -28.0800018 -0.652001143 27.1119995
v -27.5600014 -0.976001143 27.6959972
v -28.0800018 -0.652001143 27.1119995
v -25.4800014 -0.976001024 24.6159992
v -26.1599979 -0.652001023 24.2319965
v -26.1599979 -0.652001023 24.2319965
v -28.5999985 -0.976001143 26.5240002
v -28.0800018 -0.652001143 27.1119995
v -28.5999985 -0.976001143 26.5240002
v -26.1599979 -0.652001023 24.2319965
v -26.8400021 -0.976000905 23.843998
v -26.8400021 -0.976000905 23.843998
v -28.8120003 -1.76000094 26.2799988
v -28.5999985 -0.976001143 26.5240002
v -24.3840008 -0.976000845 21.5039978
v -23.972002 -1.76000059 18.1519985
v -24.2960014 -0.976000726 18.1519985
v -24.2960014 -0.976000726 18.1519985
v -25.1599998 -0.652000904 21.3919983
v -24.3840008 -0.976000845 21.5039978
v -26.1599979 -0.652001023 24.2319965
v -24.3840008 -0.976000845 21.5039978
v -25.1599998 -0.652000904 21.3919983
v -24.3840008 -0.976000845 21.5039978
v -26.1599979 -0.652001023 24.2319965
v -25.4800014 -0.976001024 24.6159992
v -25.1599998 -0.652000904 21.3919983
v -24.2960014 -0.976000726 18.1519985
v -25.079998 -0.652000785 18.1519985
v -25.079998 -0.652000785 18.1519985
v -25.9360008 -0.976000845 21.2759991
v -25.1599998 -0.652000904 21.3919983
v -26.8400021 -0.976000905 23.843998
v -25.1599998 -0.652000904 21.3919983
v -25.9360008 -0.976000845 21.2759991
v -25.1599998 -0.652000904 21.3919983
v -26.8400021 -0.976000905 23.843998
v -26.1599979 -0.652001023 24.2319965
v -25.9360008 -0.976000845 21.2759991
v -25.079998 -0.652000785 18.1519985
v -25.8640022 -0.976000726 18.1519985
v -25.8640022 -0.976000726 18.1519985
v -26.2560005 -1.76000082 21.2280006
v -25.9360008 -0.976000845 21.2759991
v -26.2560005 -1.76000082 21.2280006
v -26.8400021 -0.976000905 23.843998
v -25.9360008 -0.976000845 21.2759991
v -26.8400021 -0.976000905 23.843998
v -26.2560005 -1.76000082 21.2280006
v -27.1240005 -1.76000094 23.684
v -28.8120003 -1.76000094 26.2799988
v -26.8400021 -0.976000905 23.843998
v -27.1240005 -1.76000094 23.684
v -26.2560005 -1.76000082 21.2280006
v -25.8640022 -0.976000726 18.1519985
v -26.1880016 -1.76000059 18.1519985
v 3.27199984 1.20399892 22.8319988
v 0 3.595999 16.1519985
v 0 2.01999903 22.8319988
v 0 3.595999 16.1519985
v 3.27199984 1.20399892 22.8319988
v 4.70000029 2.56799912 16.1519985
v 5.66800022 -1.03200102 22.8319988
v 4.70000029 2.56799912 16.1519985
v 3.27199984 1.20399892 22.8319988
v 4.70000029 2.56799912 16.1519985
v 5.66800022 -1.03200102 22.8319988
v 8.14000034 -0.240000695 16.1519985
v 6.54399967 -4.0800004 22.8319988
v 8.14000034 -0.240000695 16.1519985
v 5.66800022 -1.03200102 22.8319988
v 8.14000034 -0.240000695 16.1519985
v 6.54399967 -4.0800004 22.8319988
v 9.40000057 -4.0800004 16.1519985
v 6.54399967 -4.0800004 22.8319988
v 8.14000034 -7.92000008 16.1519985
v 9.40000057 -4.0800004 16.1519985
v 8.14000034 -7.92000008 16.1519985
v 6.54399967 -4.0800004 22.8319988
v 5.66800022 -7.12800026 22.8319988
v 5.66800022 -7.12800026 22.8319988
v 4.70000029 -10.7280006 16.1519985
v 8.14000034 -7.92000008 16.1519985
v 4.70000029 -10.7280006 16.1519985
v 5.66800022 -7.12800026 22.8319988
v 3.27199984 -9.36400032 22.8319988
v 3.27199984 -9.36400032 22.8319988
v 0 -11.7560005 16.1519985
v 4.70000029 -10.7280006 16.1519985
v 0 -11.7560005 16.1519985
v 3.27199984 -9.36400032 22.8319988
v 0 -10.1800003 22.8319988
v -3.27199984 -9.36400032 22.8319988
v 0 -11.7560005 16.1519985
v 0 -10.1800003 22.8319988
v 0 -11.7560005 16.1519985
v -3.27199984 -9.36400032 22.8319988
v -4.70000029 -10.7280006 16.1519985
v -5.66800022 -7.12800026 22.8319988
v -4.70000029 -10.7280006 16.1519985
v -3.27199984 -9.36400032 22.8319988
v -4.70000029 -10.7280006 16.1519985
v -5.66800022 -7.12800026 22.8319988
v -8.14000034 -7.92000008 16.1519985
v -6.54399967 -4.0800004 22.8319988
v -8.14000034 -7.92000008 16.1519985
v -5.66800022 -7.12800026 22.8319988
v -8.14000034 -7.92000008 16.1519985
v -6.54399967 -4.0800004 22.8319988
v -9.40000057 -4.0800004 16.1519985
v -6.54399967 -4.0800004 22.8319988
v -8.14000034 -0.240000695 16.1519985
v -9.40000057 -4.0800004 16.1519985
v -8.14000034 -0.240000695 16.1519985
v -6.54399967 -4.0800004 22.8319988
v -5.66800022 -1.03200102 22.8319988
v -5.66800022 -1.03200102 22.8319988
v -4.70000029 2.56799912 16.1519985
v -8.14000034 -0.240000695 16.1519985
v -4.70000029 2.56799912 16.1519985
v -5.66800022 -1.03200102 22.8319988
v -3.27199984 1.20399892 22.8319988
v -3.27199984 1.20399892 22.8319988
v 0 3.595999 16.1519985
v -4.70000029 2.56799912 16.1519985
v 0 3.595999 16.1519985
v -3.27199984 1.20399892 22.8319988
v 0 2.01999903 22.8319988
v -36.9760017 0.732000172 -3.90399957
v -21.5400009 2.16400027 -9.91599941
v -22.1959991 0.732000589 -13.671999
v -21.5400009 2.16400027 -9.91599941
v -36.9760017 0.732000172 -3.90399957
v -36.0480003 2.28799987 0.0320000984
v 15.4879999 0.339999259 17.2119999
v 24.5720005 0.395999163 18.7559986
v 14.1000004 0.39999947 11.3639994
v 24.5720005 0.395999163 18.7559986
v 15.4879999 0.339999259 17.2119999
v 23.4920006 0.33999905 21.6359978
v 17.0039997 -1.08000112 26.1399994
v 23.4920006 0.33999905 21.6359978
v 15.4879999 0.339999259 17.2119999
v 23.4920006 0.33999905 21.6359978
v 17.0039997 -1.08000112 26.1399994
v 21.0599995 -1.08000112 28.2199993
v 29.448 3.74399877 21.0839996
v 26.644001 -3.53200102 29.4359951
v 26.644001 0.531998634 29.4359989
v 26.644001 -3.53200102 29.4359951
v 29.448 3.74399877 21.0839996
v 29.448 -6.74400043 21.0839996
v 29.9959984 3.74399924 14.0199995
v 29.448 -6.74400043 21.0839996
v 29.448 3.74399877 21.0839996
v 29.448 -6.74400043 21.0839996
v 29.9959984 3.74399924 14.0199995
v 29.9959984 -6.74399996 14.0199976
v 29.9959984 3.74399924 14.0199995
v 27.6760006 -6.74399996 12.3799992
v 29.9959984 -6.74399996 14.0199976
v 27.6760006 -6.74399996 12.3799992
v 29.9959984 3.74399924 14.0199995
v 27.6760006 3.74399924 12.3800001
v 27.6760006 3.74399924 12.3800001
v 26.7160034 -6.74399996 9.57999897
v 27.6760006 -6.74399996 12.3799992
v 26.7160034 -6.74399996 9.57999897
v 27.6760006 3.74399924 12.3800001
v 26.7160034 3.74399924 9.57999992
v 26.7160034 3.74399924 9.57999992
v 28.0480003 -6.74399996 6.49199963
v 26.7160034 -6.74399996 9.57999897
v 28.0480003 -6.74399996 6.49199963
v 26.7160034 3.74399924 9.57999992
v 28.0480003 3.74399948 6.4920001
v 28.0480003 3.74399948 6.4920001
v 30.4480019 -6.74399996 4.93199921
v 28.0480003 -6.74399996 6.49199963
v 30.4480019 -6.74399996 4.93199921
v 28.0480003 3.74399948 6.4920001
v 30.4480019 3.74399948 4.93199968
v 50.2680016 1.64399838 32.8959961
v 58.288002 -4.69600058 17.7559986
v 58.288002 1.6919992 17.7559986
v 58.288002 -4.69600058 17.7559986
v 50.2680016 1.64399838 32.8959961
v 50.2680016 -4.64800119 32.8959961
v 50.2680016 1.64399838 32.8959961
v 44.9400024 -2.13200164 37.2479973
v 50.2680016 -4.64800119 32.8959961
v 44.9400024 -2.13200164 37.2479973
v 50.2680016 1.64399838 32.8959961
v 44.9400024 -0.872001529 37.2479973
v 23.4920006 0.33999905 21.6359978
v 24.5720005 -4.19600058 18.7559986
v 24.5720005 0.395999163 18.7559986
v 24.5720005 -4.19600058 18.7559986
v 23.4920006 0.33999905 21.6359978
v 23.4920006 -4.14000082 21.6359978
v 23.4920006 0.33999905 21.6359978
v 21.0599995 -2.72000122 28.2199993
v 23.4920006 -4.14000082 21.6359978
v 21.0599995 -2.72000122 28.2199993
v 23.4920006 0.33999905 21.6359978
v 21.0599995 -1.08000112 28.2199993
v 21.0599995 -2.72000122 28.2199993
v 17.0039997 -1.08000112 26.1399994
v 17.0039997 -2.72000122 26.1399994
v 17.0039997 -1.08000112 26.1399994
v 21.0599995 -2.72000122 28.2199993
v 21.0599995 -1.08000112 28.2199993
v 26.644001 -3.53200102 29.4359951
v 43.987999 -6.74400043 29.763998
v 38.4440002 -3.53200102 36.0400009
v 43.987999 -6.74400043 29.763998
v 26.644001 -3.53200102 29.4359951
v 29.448 -6.74400043 21.0839996
v 29.448 -6.74400043 21.0839996
v 29.9959984 -6.74399996 14.0199976
v 43.987999 -6.74400043 29.763998
v 43.987999 -6.74400043 29.763998
v 29.9959984 -6.74399996 14.0199976
v 53.3440056 -6.74399996 11.8879986
v 29.9959984 -6.74399996 14.0199976
v 30.4480019 -6.74399996 4.93199921
v 53.3440056 -6.74399996 11.8879986
v 21.4560013 -6.743999 -9.97200012
v 53.3440056 -6.74399996 11.8879986
v 30.4480019 -6.74399996 4.93199921
v 21.052002 -6.743999 -7.62000036
v 21.4560013 -6.743999 -9.97200012
v 30.4480019 -6.74399996 4.93199921
v 27.6760006 -6.74399996 12.3799992
v 30.4480019 -6.74399996 4.93199921
v 29.9959984 -6.74399996 14.0199976
v 30.4480019 -6.74399996 4.93199921
v 27.6760006 -6.74399996 12.3799992
v 28.0480003 -6.74399996 6.49199963
v 26.7160034 -6.74399996 9.57999897
v 28.0480003 -6.74399996 6.49199963
v 27.6760006 -6.74399996 12.3799992
v 44.064003 -5.94400072 29.632
v 44.9400024 -2.13200164 37.2479973
v 38.8359985 -2.98800135 35.343998
v 44.9400024 -2.13200164 37.2479973
v 44.064003 -5.94400072 29.632
v 50.2680016 -4.64800119 32.8959961
v 44.064003 -5.94400072 29.632
v 58.288002 -4.69600058 17.7559986
v 50.2680016 -4.64800119 32.8959961
v 58.288002 -4.69600058 17.7559986
v 44.064003 -5.94400072 29.632
v 52.8760033 -5.94400024 12.5399981
v 8.79199982 12.499999 -10.435998
v 15.5 12.500001 -18.5479984
v 8.60000038 12.500001 -22.2479992
v 15.5 12.500001 -18.5479984
v 8.79199982 12.499999 -10.435998
v 14.7560005 12.499999 -7.81999922
v 14.7560005 12.499999 -7.81999922
v 22.4000015 8.65999985 -14.8479986
v 15.5 12.500001 -18.5479984
v 22.4000015 8.65999985 -14.8479986
v 14.7560005 12.499999 -7.81999922
v 20.7159996 8.65999985 -5.20399904
v 13.6000004 8.89999866 12.4520006
v 20.7159996 8.65999985 -5.20399904
v 14.7560005 12.499999 -7.81999922
v 20.7159996 8.65999985 -5.20399904
v 13.6000004 8.89999866 12.4520006
v 18 6.81999874 10.3520002
v 9.19999981 8.89999866 14.5519991
v 14.7560005 12.499999 -7.81999922
v 8.79199982 12.499999 -10.435998
v 14.7560005 12.499999 -7.81999922
v 9.19999981 8.89999866 14.5519991
v 13.6000004 8.89999866 12.4520006
v 26.2560005 -1.76000082 21.2280006
v 25.8640022 -2.54400063 18.1519985
v 26.1880016 -1.76000059 18.1519985
v 25.8640022 -2.54400063 18.1519985
v 26.2560005 -1.76000082 21.2280006
v 25.9360008 -2.54400086 21.2759991
v 25.9360008 -2.54400086 21.2759991
v 25.079998 -2.86800051 18.1519985
v 25.8640022 -2.54400063 18.1519985
v 25.079998 -2.86800051 18.1519985
v 25.9360008 -2.54400086 21.2759991
v 25.1599998 -2.86800075 21.3919983
v 25.1599998 -2.86800075 21.3919983
v 24.2960014 -2.54400063 18.1519985
v 25.079998 -2.86800051 18.1519985
v 24.2960014 -2.54400063 18.1519985
v 25.1599998 -2.86800075 21.3919983
v 24.3840008 -2.54400086 21.5039978
v 24.3840008 -2.54400086 21.5039978
v 23.972002 -1.76000059 18.1519985
v 24.2960014 -2.54400063 18.1519985
v 26.2560005 -1.76000082 21.2280006
v 26.8400021 -2.5440011 23.843998
v 25.9360008 -2.54400086 21.2759991
v 26.8400021 -2.5440011 23.843998
v 25.1599998 -2.86800075 21.3919983
v 25.9360008 -2.54400086 21.2759991
v 25.1599998 -2.86800075 21.3919983
v 26.8400021 -2.5440011 23.843998
v 26.1599979 -2.86800098 24.2319965
v 26.1599979 -2.86800098 24.2319965
v 24.3840008 -2.54400086 21.5039978
v 25.1599998 -2.86800075 21.3919983
v 24.3840008 -2.54400086 21.5039978
v 26.1599979 -2.86800098 24.2319965
v 25.4800014 -2.5440011 24.6159992
v 25.1960011 -1.76000094 24.7759991
v 24.3840008 -2.54400086 21.5039978
v 25.4800014 -2.5440011 24.6159992
v 24.3840008 -2.54400086 21.5039978
v 25.1960011 -1.76000094 24.7759991
v 24.0639992 -1.76000082 21.552
v 23.972002 -1.76000059 18.1519985
v 24.3840008 -2.54400086 21.5039978
v 24.0639992 -1.76000082 21.552
v 24.3840008 -0.976000845 21.5039978
v 23.972002 -1.76000059 18.1519985
v 24.0639992 -1.76000082 21.552
v 23.972002 -1.76000059 18.1519985
v 24.3840008 -0.976000845 21.5039978
v 24.2960014 -0.976000726 18.1519985
v 26.8400021 -2.5440011 23.843998
v 26.2560005 -1.76000082 21.2280006
v 27.1240005 -1.76000094 23.684
v 28.8120003 -1.76000094 26.2799988
v 26.8400021 -2.5440011 23.843998
v 27.1240005 -1.76000094 23.684
v 26.8400021 -2.5440011 23.843998
v 28.8120003 -1.76000094 26.2799988
v 28.5999985 -2.5440011 26.5240002
v 28.5999985 -2.5440011 26.5240002
v 26.1599979 -2.86800098 24.2319965
v 26.8400021 -2.5440011 23.843998
v 26.1599979 -2.86800098 24.2319965
v 28.5999985 -2.5440011 26.5240002
v 28.0800018 -2.86800098 27.1119995
v 28.0800018 -2.86800098 27.1119995
v 25.4800014 -2.5440011 24.6159992
v 26.1599979 -2.86800098 24.2319965
v 25.4800014 -2.5440011 24.6159992
v 28.0800018 -2.86800098 27.1119995
v 27.5600014 -2.54400134 27.6959972
v 27.5600014 -2.54400134 27.6959972
v 25.1960011 -1.76000094 24.7759991
v 25.4800014 -2.5440011 24.6159992
v 25.1960011 -1.76000094 24.7759991
v 27.5600014 -2.54400134 27.6959972
v 27.3480034 -1.76000118 27.9399967
v 27.5600014 -0.976001143 27.6959972
v 25.1960011 -1.76000094 24.7759991
v 27.3480034 -1.76000118 27.9399967
v 25.1960011 -1.76000094 24.7759991
v 27.5600014 -0.976001143 27.6959972
v 25.4800014 -0.976001024 24.6159992
v 24.3840008 -0.976000845 21.5039978
v 25.1960011 -1.76000094 24.7759991
v 25.4800014 -0.976001024 24.6159992
v 25.1960011 -1.76000094 24.7759991
v 24.3840008 -0.976000845 21.5039978
v 24.0639992 -1.76000082 21.552
v 28.0800018 -0.652001143 27.1119995
v 25.4800014 -0.976001024 24.6159992
v 27.5600014 -0.976001143 27.6959972
v 25.4800014 -0.976001024 24.6159992
v 28.0800018 -0.652001143 27.1119995
v 26.1599979 -0.652001023 24.2319965
v 26.1599979 -0.652001023 24.2319965
v 24.3840008 -0.976000845 21.5039978
v 25.4800014 -0.976001024 24.6159992
v 24.3840008 -0.976000845 21.5039978
v 26.1599979 -0.652001023 24.2319965
v 25.1599998 -0.652000904 21.3919983
v 25.1599998 -0.652000904 21.3919983
v 24.2960014 -0.976000726 18.1519985
v 24.3840008 -0.976000845 21.5039978
v 24.2960014 -0.976000726 18.1519985
v 25.1599998 -0.652000904 21.3919983
v 25.079998 -0.652000785 18.1519985
v 25.9360008 -0.976000845 21.2759991
v 25.079998 -0.652000785 18.1519985
v 25.1599998 -0.652000904 21.3919983
v 25.079998 -0.652000785 18.1519985
v 25.9360008 -0.976000845 21.2759991
v 25.8640022 -0.976000726 18.1519985
v 28.5999985 -0.976001143 26.5240002
v 26.1599979 -0.652001023 24.2319965
v 28.0800018 -0.652001143 27.1119995
v 26.1599979 -0.652001023 24.2319965
v 28.5999985 -0.976001143 26.5240002
v 26.8400021 -0.976000905 23.843998
v 26.8400021 -0.976000905 23.843998
v 25.1599998 -0.652000904 21.3919983
v 26.1599979 -0.652001023 24.2319965
v 25.1599998 -0.652000904 21.3919983
v 26.8400021 -0.976000905 23.843998
v 25.9360008 -0.976000845 21.2759991
v 26.8400021 -0.976000905 23.843998
v 26.2560005 -1.76000082 21.2280006
v 25.9360008 -0.976000845 21.2759991
v 26.2560005 -1.76000082 21.2280006
v 25.8640022 -0.976000726 18.1519985
v 25.9360008 -0.976000845 21.2759991
v 25.8640022 -0.976000726 18.1519985
v 26.2560005 -1.76000082 21.2280006
v 26.1880016 -1.76000059 18.1519985
v 28.8120003 -1.76000094 26.2799988
v 26.8400021 -0.976000905 23.843998
v 28.5999985 -0.976001143 26.5240002
v 26.8400021 -0.976000905 23.843998
v 28.8120003 -1.76000094 26.2799988
v 27.1240005 -1.76000094 23.684
v 26.2560005 -1.76000082 21.2280006
v 26.8400021 -0.976000905 23.843998
v 27.1240005 -1.76000094 23.684
v 24.5720005 -4.19600058 18.7559986
v 15.4879999 -4.14000034 17.2119999
v 14.1000004 -4.19999981 11.3639984
v 15.4879999 -4.14000034 17.2119999
v 24.5720005 -4.19600058 18.7559986
v 23.4920006 -4.14000082 21.6359978
v 23.4920006 -4.14000082 21.6359978
v 17.0039997 -2.72000122 26.1399994
v 15.4879999 -4.14000034 17.2119999
v 17.0039997 -2.72000122 26.1399994
v 23.4920006 -4.14000082 21.6359978
v 21.0599995 -2.72000122 28.2199993
v 36.9760017 0.732000172 -3.90399957
v 22.1959991 -3.53199935 -13.671999
v 22.1959991 0.732000589 -13.671999
v 22.1959991 -3.53199935 -13.671999
v 36.9760017 0.732000172 -3.90399957
v 36.9760017 -3.53199959 -3.90400004
v 11.000001 -9.27999878 -23.0480003
v 0 4.80000067 -25.2479973
v 11.000001 4.80000019 -23.0479984
v 0 4.80000067 -25.2479973
v 11.000001 -9.27999878 -23.0480003
v 0 -9.27999878 -25.2479973
v 0 -9.27999878 -25.2479973
v -11.000001 4.80000019 -23.0479984
v 0 4.80000067 -25.2479973
v -11.000001 4.80000019 -23.0479984
v 0 -9.27999878 -25.2479973
v -11.000001 -9.27999878 -23.0480003
v -50.2680016 1.64399838 32.8959961
v -44.9400024 -2.13200164 37.2479973
v -44.9400024 -0.872001529 37.2479973
v -44.9400024 -2.13200164 37.2479973
v -50.2680016 1.64399838 32.8959961
v -50.2680016 -4.64800119 32.8959961
v -50.2680016 1.64399838 32.8959961
v -58.288002 -4.69600058 17.7559986
v -50.2680016 -4.64800119 32.8959961
v -58.288002 -4.69600058 17.7559986
v -50.2680016 1.64399838 32.8959961
v -58.288002 1.6919992 17.7559986
v 15.3999996 4.79999924 6.35200024
v 11.000001 -9.27999878 -23.0480003
v 11.000001 4.80000019 -23.0479984
v 11.000001 -9.27999878 -23.0480003
v 15.3999996 4.79999924 6.35200024
v 15.3999996 -9.59999943 6.35199928
v 11.2000008 4.79999876 16.1519985
v 15.3999996 -9.59999943 6.35199928
v 15.3999996 4.79999924 6.35200024
v 15.3999996 -9.59999943 6.35199928
v 11.2000008 4.79999876 16.1519985
v 11.2000008 -9.60000038 16.1519985
v 0 -11.3999996 12.3519993
v 3.3599999 -14.3199997 12.3519993
v 4.45599985 -11.3999996 12.3519993
v 3.3599999 -14.3199997 12.3519993
v 0 -11.3999996 12.3519993
v 0 -15.9599991 12.3519993
v 0 -11.3999996 12.3519993
v -3.3599999 -14.3199997 12.3519993
v 0 -15.9599991 12.3519993
v -3.3599999 -14.3199997 12.3519993
v 0 -11.3999996 12.3519993
v -4.45599985 -11.3999996 12.3519993
v -11.1280003 -5.28399992 9.26399899
v -33.4720001 -5.28399992 0.835999668
v -18.1280003 -5.28399897 -11.9839993
v -33.4720001 -5.28399992 0.835999668
v -11.1280003 -5.28399992 9.26399899
v -31.2719994 -5.28400087 23.4839993
v -22.4000015 -8.89999866 -14.8479986
v -12.4160004 -8.90000057 13.0159979
v -18 -8.89999962 10.3519993
v -12.4160004 -8.90000057 13.0159979
v -22.4000015 -8.89999866 -14.8479986
v -11.1679993 -8.89999866 -20.8719978
v -13.6000004 8.89999866 12.4520006
v -20.7159996 8.65999985 -5.20399904
v -18 6.81999874 10.3520002
v -20.7159996 8.65999985 -5.20399904
v -13.6000004 8.89999866 12.4520006
v -14.7560005 12.499999 -7.81999922
v -14.7560005 12.499999 -7.81999922
v -22.4000015 8.65999985 -14.8479986
v -20.7159996 8.65999985 -5.20399904
v -22.4000015 8.65999985 -14.8479986
v -14.7560005 12.499999 -7.81999922
v -15.5 12.500001 -18.5479984
v -8.79199982 12.499999 -10.435998
v -15.5 12.500001 -18.5479984
v -14.7560005 12.499999 -7.81999922
v -15.5 12.500001 -18.5479984
v -8.79199982 12.499999 -10.435998
v -8.60000038 12.500001 -22.2479992
v -9.19999981 8.89999866 14.5519991
v -14.7560005 12.499999 -7.81999922
v -13.6000004 8.89999866 12.4520006
v -14.7560005 12.499999 -7.81999922
v -9.19999981 8.89999866 14.5519991
v -8.79199982 12.499999 -10.435998
v -21.5400009 -4.97999954 -9.91999912
v -36.9760017 -3.53199959 -3.90400004
v -22.1959991 -3.53199935 -13.671999
v -36.9760017 -3.53199959 -3.90400004
v -21.5400009 -4.97999954 -9.91999912
v -36.0480003 -5.08799982 0.0319997743
v 38.4440002 -3.53200102 36.0400009
v 43.987999 3.74399853 29.763998
v 38.4440002 0.531998396 36.0400009
v 43.987999 3.74399853 29.763998
v 38.4440002 -3.53200102 36.0400009
v 43.987999 -6.74400043 29.763998
v 53.3440056 -6.74399996 11.8879986
v 43.987999 3.74399853 29.763998
v 43.987999 -6.74400043 29.763998
v 43.987999 3.74399853 29.763998
v 53.3440056 -6.74399996 11.8879986
v 53.3440056 3.74399924 11.8879995
v 21.052002 3.74399996 -7.61999941
v 30.4480019 -6.74399996 4.93199921
v 30.4480019 3.74399948 4.93199968
v 30.4480019 -6.74399996 4.93199921
v 21.052002 3.74399996 -7.61999941
v 21.052002 -6.743999 -7.62000036
v 21.4560013 3.7440002 -9.97199917
v 21.052002 -6.743999 -7.62000036
v 21.052002 3.74399996 -7.61999941
v 21.052002 -6.743999 -7.62000036
v 21.4560013 3.7440002 -9.97199917
v 21.4560013 -6.743999 -9.97200012
v 44.9400024 -0.872001529 37.2479973
v 38.8359985 -2.98800135 35.343998
v 44.9400024 -2.13200164 37.2479973
v 38.8359985 -2.98800135 35.343998
v 44.9400024 -0.872001529 37.2479973
v 38.8359985 -0.0200015455 35.343998
v 14.1000004 -4.19999981 11.3639984
v 15.4879999 0.339999259 17.2119999
v 14.1000004 0.39999947 11.3639994
v 15.4879999 0.339999259 17.2119999
v 14.1000004 -4.19999981 11.3639984
v 15.4879999 -4.14000034 17.2119999
v 17.0039997 -2.72000122 26.1399994
v 15.4879999 0.339999259 17.2119999
v 15.4879999 -4.14000034 17.2119999
v 15.4879999 0.339999259 17.2119999
v 17.0039997 -2.72000122 26.1399994
v 17.0039997 -1.08000112 26.1399994
v 21.1999989 1.73199904 16.3719978
v 31.2719994 1.73199892 23.4840012
v 33.4720001 1.73199987 0.836000085
v 33.4720001 1.73199987 0.836000085
v 11.1280003 1.73199952 9.26399994
v 21.1999989 1.73199904 16.3719978
v 11.1280003 1.73199952 9.26399994
v 33.4720001 1.73199987 0.836000085
v 18.1280003 1.73200035 -11.9839993
v 44.064003 2.93999839 29.632
v 58.288002 1.6919992 17.7559986
v 52.8760033 2.93999934 12.5399981
v 58.288002 1.6919992 17.7559986
v 44.064003 2.93999839 29.632
v 50.2680016 1.64399838 32.8959961
v 44.064003 2.93999839 29.632
v 44.9400024 -0.872001529 37.2479973
v 50.2680016 1.64399838 32.8959961
v 44.9400024 -0.872001529 37.2479973
v 44.064003 2.93999839 29.632
v 38.8359985 -0.0200015455 35.343998
v 36.9760017 0.732000172 -3.90399957
v 36.0480003 -5.08799982 0.0319997743
v 36.9760017 -3.53199959 -3.90400004
v 36.0480003 -5.08799982 0.0319997743
v 36.9760017 0.732000172 -3.90399957
v 36.0480003 2.28799987 0.0320000984
v -29.448 -6.74400043 21.0839996
v -26.644001 0.531998634 29.4359989
v -26.644001 -3.53200102 29.4359951
v -26.644001 0.531998634 29.4359989
v -29.448 -6.74400043 21.0839996
v -29.448 3.74399877 21.0839996
v -29.448 -6.74400043 21.0839996
v -29.9959984 3.74399924 14.0199995
v -29.448 3.74399877 21.0839996
v -29.9959984 3.74399924 14.0199995
v -29.448 -6.74400043 21.0839996
v -29.9959984 -6.74399996 14.0199976
v -27.6760006 -6.74399996 12.3799992
v -29.9959984 3.74399924 14.0199995
v -29.9959984 -6.74399996 14.0199976
v -29.9959984 3.74399924 14.0199995
v -27.6760006 -6.74399996 12.3799992
v -27.6760006 3.74399924 12.3800001
v -26.7160034 -6.74399996 9.57999897
v -27.6760006 3.74399924 12.3800001
v -27.6760006 -6.74399996 12.3799992
v -27.6760006 3.74399924 12.3800001
v -26.7160034 -6.74399996 9.57999897
v -26.7160034 3.74399924 9.57999992
v -28.0480003 -6.74399996 6.49199963
v -26.7160034 3.74399924 9.57999992
v -26.7160034 -6.74399996 9.57999897
v -26.7160034 3.74399924 9.57999992
v -28.0480003 -6.74399996 6.49199963
v -28.0480003 3.74399948 6.4920001
v -30.4480019 -6.74399996 4.93199921
v -28.0480003 3.74399948 6.4920001
v -28.0480003 -6.74399996 6.49199963
v -28.0480003 3.74399948 6.4920001
v -30.4480019 -6.74399996 4.93199921
v -30.4480019 3.74399948 4.93199968
v -24.5720005 -4.19600058 18.7559986
v -23.4920006 0.33999905 21.6359978
v -24.5720005 0.395999163 18.7559986
v -23.4920006 0.33999905 21.6359978
v -24.5720005 -4.19600058 18.7559986
v -23.4920006 -4.14000082 21.6359978
v -21.0599995 -2.72000122 28.2199993
v -23.4920006 0.33999905 21.6359978
v -23.4920006 -4.14000082 21.6359978
v -23.4920006 0.33999905 21.6359978
v -21.0599995 -2.72000122 28.2199993
v -21.0599995 -1.08000112 28.2199993
v -17.0039997 -1.08000112 26.1399994
v -21.0599995 -2.72000122 28.2199993
v -17.0039997 -2.72000122 26.1399994
v -21.0599995 -2.72000122 28.2199993
v -17.0039997 -1.08000112 26.1399994
v -21.0599995 -1.08000112 28.2199993
v -11.1280003 1.73199952 9.26399994
v -33.4720001 1.73199987 0.836000085
v -31.2719994 1.73199892 23.4840012
v -11.1280003 1.73199952 9.26399994
v -18.1280003 1.73200035 -11.9839993
v -33.4720001 1.73199987 0.836000085
v -44.064003 -5.94400072 29.632
v -58.288002 -4.69600058 17.7559986
v -52.8760033 -5.94400024 12.5399981
v -58.288002 -4.69600058 17.7559986
v -44.064003 -5.94400072 29.632
v -50.2680016 -4.64800119 32.8959961
v -44.064003 -5.94400072 29.632
v -44.9400024 -2.13200164 37.2479973
v -50.2680016 -4.64800119 32.8959961
v -44.9400024 -2.13200164 37.2479973
v -44.064003 -5.94400072 29.632
v -38.8359985 -2.98800135 35.343998
v 9.13600063 4.79999924 10.5519991
v -9.13600063 6.99999857 10.5519991
v -9.13600063 4.79999924 10.5519991
v -9.13600063 6.99999857 10.5519991
v 9.13600063 4.79999924 10.5519991
v 9.13600063 6.99999857 10.5519991
v 8.84399986 10.1999998 -7.24799871
v -9.13600063 6.99999857 10.5519991
v 9.13600063 6.99999857 10.5519991
v -9.13600063 6.99999857 10.5519991
v 8.84399986 10.1999998 -7.24799871
v -8.84399986 10.1999998 -7.24799871
v 8.65600014 10.1999998 -18.9119987
v -8.84399986 10.1999998 -7.24799871
v 8.84399986 10.1999998 -7.24799871
v -8.84399986 10.1999998 -7.24799871
v 8.65600014 10.1999998 -18.9119987
v -8.65600014 10.1999998 -18.9119987
v 0 10.1999998 -21.447998
v -8.65600014 10.1999998 -18.9119987
v 8.65600014 10.1999998 -18.9119987
v 0 4.80000019 -21.447998
v -8.65600014 10.1999998 -18.9119987
v 0 10.1999998 -21.447998
v -8.65600014 10.1999998 -18.9119987
v 0 4.80000019 -21.447998
v -8.65600014 4.80000019 -18.9119987
v 8.65600014 4.80000019 -18.9119987
v 0 10.1999998 -21.447998
v 8.65600014 10.1999998 -18.9119987
v 0 10.1999998 -21.447998
v 8.65600014 4.80000019 -18.9119987
v 0 4.80000019 -21.447998
v -23.4920006 -4.14000082 21.6359978
v -17.0039997 -2.72000122 26.1399994
v -21.0599995 -2.72000122 28.2199993
v -17.0039997 -2.72000122 26.1399994
v -23.4920006 -4.14000082 21.6359978
v -15.4879999 -4.14000034 17.2119999
v -24.5720005 -4.19600058 18.7559986
v -15.4879999 -4.14000034 17.2119999
v -23.4920006 -4.14000082 21.6359978
v -15.4879999 -4.14000034 17.2119999
v -24.5720005 -4.19600058 18.7559986
v -14.1000004 -4.19999981 11.3639984
v -36.0480003 -5.08799982 0.0319997743
v -36.9760017 0.732000172 -3.90399957
v -36.9760017 -3.53199959 -3.90400004
v -36.9760017 0.732000172 -3.90399957
v -36.0480003 -5.08799982 0.0319997743
v -36.0480003 2.28799987 0.0320000984
v 38.4440002 0.531998396 36.0400009
v 26.644001 -3.53200102 29.4359951
v 38.4440002 -3.53200102 36.0400009
v 26.644001 -3.53200102 29.4359951
v 38.4440002 0.531998396 36.0400009
v 26.644001 0.531998634 29.4359989
v 21.4560013 3.7440002 -9.97199917
v 53.3440056 -6.74399996 11.8879986
v 21.4560013 -6.743999 -9.97200012
v 53.3440056 -6.74399996 11.8879986
v 21.4560013 3.7440002 -9.97199917
v 53.3440056 3.74399924 11.8879995
v 58.288002 -4.69600058 17.7559986
v 52.8760033 2.93999934 12.5399981
v 58.288002 1.6919992 17.7559986
v 52.8760033 2.93999934 12.5399981
v 58.288002 -4.69600058 17.7559986
v 52.8760033 -5.94400024 12.5399981
v 11.1280003 1.73199952 9.26399994
v 31.2719994 -5.28400087 23.4839993
v 31.2719994 1.73199892 23.4840012
v 31.2719994 -5.28400087 23.4839993
v 11.1280003 1.73199952 9.26399994
v 11.1280003 -5.28399992 9.26399899
v 11.1280003 -5.28399992 9.26399899
v 33.4720001 -5.28399992 0.835999668
v 31.2719994 -5.28400087 23.4839993
v 33.4720001 -5.28399992 0.835999668
v 11.1280003 -5.28399992 9.26399899
v 18.1280003 -5.28399897 -11.9839993
v 12.4160004 -8.90000057 13.0159979
v 22.4000015 -8.89999866 -14.8479986
v 18 -8.89999962 10.3519993
v 22.4000015 -8.89999866 -14.8479986
v 12.4160004 -8.90000057 13.0159979
v 11.1679993 -8.89999866 -20.8719978
v 36.9760017 -3.53199959 -3.90400004
v 21.5400009 -4.97999954 -9.91999912
v 22.1959991 -3.53199935 -13.671999
v 21.5400009 -4.97999954 -9.91999912
v 36.9760017 -3.53199959 -3.90400004
v 36.0480003 -5.08799982 0.0319997743
v -26.644001 -3.53200102 29.4359951
v -38.4440002 0.531998396 36.0400009
v -38.4440002 -3.53200102 36.0400009
v -38.4440002 0.531998396 36.0400009
v -26.644001 -3.53200102 29.4359951
v -26.644001 0.531998634 29.4359989
v -53.3440056 -6.74399996 11.8879986
v -21.4560013 3.7440002 -9.97199917
v -21.4560013 -6.743999 -9.97200012
v -21.4560013 3.7440002 -9.97199917
v -53.3440056 -6.74399996 11.8879986
v -53.3440056 3.74399924 11.8879995
v -52.8760033 2.93999934 12.5399981
v -58.288002 -4.69600058 17.7559986
v -58.288002 1.6919992 17.7559986
v -58.288002 -4.69600058 17.7559986
v -52.8760033 2.93999934 12.5399981
v -52.8760033 -5.94400024 12.5399981
v -26.644001 0.531998634 29.4359989
v -43.987999 3.74399853 29.763998
v -38.4440002 0.531998396 36.0400009
v -43.987999 3.74399853 29.763998
v -26.644001 0.531998634 29.4359989
v -29.448 3.74399877 21.0839996
v -29.448 3.74399877 21.0839996
v -29.9959984 3.74399924 14.0199995
v -43.987999 3.74399853 29.763998
v -48.6639977 3.74399877 20.8239994
v -43.987999 3.74399853 29.763998
v -29.9959984 3.74399924 14.0199995
v -53.3440056 3.74399924 11.8879995
v -48.6639977 3.74399877 20.8239994
v -29.9959984 3.74399924 14.0199995
v -29.9959984 3.74399924 14.0199995
v -30.4480019 3.74399948 4.93199968
v -53.3440056 3.74399924 11.8879995
v -21.4560013 3.7440002 -9.97199917
v -53.3440056 3.74399924 11.8879995
v -30.4480019 3.74399948 4.93199968
v -21.052002 3.74399996 -7.61999941
v -21.4560013 3.7440002 -9.97199917
v -30.4480019 3.74399948 4.93199968
v -27.6760006 3.74399924 12.3800001
v -30.4480019 3.74399948 4.93199968
v -29.9959984 3.74399924 14.0199995
v -30.4480019 3.74399948 4.93199968
v -27.6760006 3.74399924 12.3800001
v -28.0480003 3.74399948 6.4920001
v -26.7160034 3.74399924 9.57999992
v -28.0480003 3.74399948 6.4920001
v -27.6760006 3.74399924 12.3800001
v -43.987999 -6.74400043 29.763998
v -26.644001 -3.53200102 29.4359951
v -38.4440002 -3.53200102 36.0400009
v -26.644001 -3.53200102 29.4359951
v -43.987999 -6.74400043 29.763998
v -29.448 -6.74400043 21.0839996
v -29.9959984 -6.74399996 14.0199976
v -29.448 -6.74400043 21.0839996
v -43.987999 -6.74400043 29.763998
v -29.9959984 -6.74399996 14.0199976
v -43.987999 -6.74400043 29.763998
v -53.3440056 -6.74399996 11.8879986
v -30.4480019 -6.74399996 4.93199921
v -29.9959984 -6.74399996 14.0199976
v -53.3440056 -6.74399996 11.8879986
v -30.4480019 -6.74399996 4.93199921
v -27.6760006 -6.74399996 12.3799992
v -29.9959984 -6.74399996 14.0199976
v -27.6760006 -6.74399996 12.3799992
v -30.4480019 -6.74399996 4.93199921
v -28.0480003 -6.74399996 6.49199963
v -28.0480003 -6.74399996 6.49199963
v -26.7160034 -6.74399996 9.57999897
v -27.6760006 -6.74399996 12.3799992
v -53.3440056 -6.74399996 11.8879986
v -21.4560013 -6.743999 -9.97200012
v -30.4480019 -6.74399996 4.93199921
v -21.4560013 -6.743999 -9.97200012
v -21.052002 -6.743999 -7.62000036
v -30.4480019 -6.74399996 4.93199921
v -22.1959991 -3.53199935 -13.671999
v -36.9760017 0.732000172 -3.90399957
v -22.1959991 0.732000589 -13.671999
v -36.9760017 0.732000172 -3.90399957
v -22.1959991 -3.53199935 -13.671999
v -36.9760017 -3.53199959 -3.90400004
v 43.987999 3.74399853 29.763998
v 26.644001 0.531998634 29.4359989
v 38.4440002 0.531998396 36.0400009
v 26.644001 0.531998634 29.4359989
v 43.987999 3.74399853 29.763998
v 29.448 3.74399877 21.0839996
v 29.9959984 3.74399924 14.0199995
v 29.448 3.74399877 21.0839996
v 43.987999 3.74399853 29.763998
v 29.9959984 3.74399924 14.0199995
v 43.987999 3.74399853 29.763998
v 48.6639977 3.74399877 20.8239994
v 48.6639977 3.74399877 20.8239994
v 53.3440056 3.74399924 11.8879995
v 29.9959984 3.74399924 14.0199995
v 30.4480019 3.74399948 4.93199968
v 29.9959984 3.74399924 14.0199995
v 53.3440056 3.74399924 11.8879995
v 30.4480019 3.74399948 4.93199968
v 27.6760006 3.74399924 12.3800001
v 29.9959984 3.74399924 14.0199995
v 27.6760006 3.74399924 12.3800001
v 30.4480019 3.74399948 4.93199968
v 28.0480003 3.74399948 6.4920001
v 28.0480003 3.74399948 6.4920001
v 26.7160034 3.74399924 9.57999992
v 27.6760006 3.74399924 12.3800001
v 53.3440056 3.74399924 11.8879995
v 21.4560013 3.7440002 -9.97199917
v 30.4480019 3.74399948 4.93199968
v 21.4560013 3.7440002 -9.97199917
v 21.052002 3.74399996 -7.61999941
v 30.4480019 3.74399948 4.93199968
v 12.4160004 -8.90000057 13.0159979
v 18 -8.89999962 10.3519993
v 18 6.81999874 10.3520002
v 18 6.81999874 10.3520002
v 9.19999981 4.58399916 14.5519991
v 12.4160004 -8.90000057 13.0159979
v 12.4160004 -8.90000057 13.0159979
v 9.19999981 4.58399916 14.5519991
v 9.19999981 -8.90000057 14.5519972
v 9.19999981 4.58399916 14.5519991
v 18 6.81999874 10.3520002
v 9.19999981 8.89999866 14.5519991
v 18 6.81999874 10.3520002
v 13.6000004 8.89999866 12.4520006
v 9.19999981 8.89999866 14.5519991
v 21.5400009 2.16400027 -9.91599941
v 36.9760017 0.732000172 -3.90399957
v 22.1959991 0.732000589 -13.671999
v 36.9760017 0.732000172 -3.90399957
v 21.5400009 2.16400027 -9.91599941
v 36.0480003 2.28799987 0.0320000984
v 15.3999996 -9.59999943 6.35199928
v 11.2000008 -9.60000038 16.1519985
v 5.60000038 -12.7999992 16.1519985
v 10.0799999 -12.7999983 -16.3840008
v 15.3999996 -9.59999943 6.35199928
v 5.60000038 -12.7999992 16.1519985
v 10.0799999 -12.7999983 -16.3840008
v 11.000001 -9.27999878 -23.0480003
v 15.3999996 -9.59999943 6.35199928
v 0 -12.7999983 -18.0039997
v 11.000001 -9.27999878 -23.0480003
v 10.0799999 -12.7999983 -16.3840008
v 11.000001 -9.27999878 -23.0480003
v 0 -12.7999983 -18.0039997
v 0 -9.27999878 -25.2479973
v 0 -12.7999983 -18.0039997
v -11.000001 -9.27999878 -23.0480003
v 0 -9.27999878 -25.2479973
v -11.000001 -9.27999878 -23.0480003
v 0 -12.7999983 -18.0039997
v -10.0799999 -12.7999983 -16.3840008
v -15.3999996 -9.59999943 6.35199928
v -11.000001 -9.27999878 -23.0480003
v -10.0799999 -12.7999983 -16.3840008
v 10.0799999 -12.7999983 -16.3840008
v 5.60000038 -12.7999992 16.1519985
v 0 -12.7999983 -18.0039997
v 5.60000038 -12.7999992 16.1519985
v -5.60000038 -12.7999992 16.1519985
v 0 -12.7999983 -18.0039997
v -5.60000038 -12.7999992 16.1519985
v -10.0799999 -12.7999983 -16.3840008
v 0 -12.7999983 -18.0039997
v -15.3999996 -9.59999943 6.35199928
v -10.0799999 -12.7999983 -16.3840008
v -5.60000038 -12.7999992 16.1519985
v -11.2000008 -9.60000038 16.1519985
v -15.3999996 -9.59999943 6.35199928
v -5.60000038 -12.7999992 16.1519985
v -8.60000038 4.68400097 -22.2479992
v -11.1679993 -8.89999866 -20.8719978
v -22.4000015 -8.89999866 -14.8479986
v -22.4000015 8.65999985 -14.8479986
v -8.60000038 4.68400097 -22.2479992
v -22.4000015 -8.89999866 -14.8479986
v -22.4000015 8.65999985 -14.8479986
v -8.60000038 12.500001 -22.2479992
v -8.60000038 4.68400097 -22.2479992
v -22.4000015 8.65999985 -14.8479986
v -15.5 12.500001 -18.5479984
v -8.60000038 12.500001 -22.2479992
v -8.79199982 12.499999 -10.435998
v -9.19999981 8.89999866 14.5519991
v -9.19999981 4.58399916 14.5519991
v -8.79199982 12.499999 -10.435998
v -9.19999981 4.58399916 14.5519991
v -8.60000038 4.68400097 -22.2479992
v -8.60000038 4.68400097 -22.2479992
v -8.60000038 12.500001 -22.2479992
v -8.79199982 12.499999 -10.435998
v -9.19999981 4.58399916 14.5519991
v -12.4160004 -8.90000057 13.0159979
v -9.19999981 -8.90000057 14.5519972
v -18 -8.89999962 10.3519993
v -12.4160004 -8.90000057 13.0159979
v -9.19999981 4.58399916 14.5519991
v -9.19999981 4.58399916 14.5519991
v -18 6.81999874 10.3520002
v -18 -8.89999962 10.3519993
v -18 6.81999874 10.3520002
v -9.19999981 4.58399916 14.5519991
v -9.19999981 8.89999866 14.5519991
v -13.6000004 8.89999866 12.4520006
v -18 6.81999874 10.3520002
v -9.19999981 8.89999866 14.5519991
v -18 6.81999874 10.3520002
v -20.7159996 8.65999985 -5.20399904
v -18 -8.89999962 10.3519993
v -20.7159996 8.65999985 -5.20399904
v -22.4000015 -8.89999866 -14.8479986
v -18 -8.89999962 10.3519993
v -22.4000015 -8.89999866 -14.8479986
v -20.7159996 8.65999985 -5.20399904
v -22.4000015 8.65999985 -14.8479986
v 5.66800022 -7.12800026 22.8319988
v 6.54399967 -4.0800004 22.8319988
v 5.66800022 -1.03200102 22.8319988
v 5.66800022 -1.03200102 22.8319988
v 3.27199984 -9.36400032 22.8319988
v 5.66800022 -7.12800026 22.8319988
v 3.27199984 -9.36400032 22.8319988
v 5.66800022 -1.03200102 22.8319988
v 3.27199984 1.20399892 22.8319988
v 3.27199984 1.20399892 22.8319988
v 0 -10.1800003 22.8319988
v 3.27199984 -9.36400032 22.8319988
v 0 -10.1800003 22.8319988
v 3.27199984 1.20399892 22.8319988
v 0 2.01999903 22.8319988
v -3.27199984 1.20399892 22.8319988
v 0 -10.1800003 22.8319988
v 0 2.01999903 22.8319988
v 0 -10.1800003 22.8319988
v -3.27199984 1.20399892 22.8319988
v -3.27199984 -9.36400032 22.8319988
v -5.66800022 -1.03200102 22.8319988
v -3.27199984 -9.36400032 22.8319988
v -3.27199984 1.20399892 22.8319988
v -3.27199984 -9.36400032 22.8319988
v -5.66800022 -1.03200102 22.8319988
v -5.66800022 -7.12800026 22.8319988
v -5.66800022 -7.12800026 22.8319988
v -5.66800022 -1.03200102 22.8319988
v -6.54399967 -4.0800004 22.8319988
v 11.1679993 -8.89999866 -20.8719978
v 8.60000038 4.68400097 -22.2479992
v 22.4000015 -8.89999866 -14.8479986
v 8.60000038 4.68400097 -22.2479992
v 22.4000015 8.65999985 -14.8479986
v 22.4000015 -8.89999866 -14.8479986
v 8.60000038 12.500001 -22.2479992
v 22.4000015 8.65999985 -14.8479986
v 8.60000038 4.68400097 -22.2479992
v 15.5 12.500001 -18.5479984
v 22.4000015 8.65999985 -14.8479986
v 8.60000038 12.500001 -22.2479992
v 9.19999981 8.89999866 14.5519991
v 8.79199982 12.499999 -10.435998
v 9.19999981 4.58399916 14.5519991
v 9.19999981 4.58399916 14.5519991
v 8.79199982 12.499999 -10.435998
v 8.60000038 4.68400097 -22.2479992
v 8.60000038 12.500001 -22.2479992
v 8.60000038 4.68400097 -22.2479992
v 8.79199982 12.499999 -10.435998
v 20.7159996 8.65999985 -5.20399904
v 18 6.81999874 10.3520002
v 18 -8.89999962 10.3519993
v 22.4000015 -8.89999866 -14.8479986
v 20.7159996 8.65999985 -5.20399904
v 18 -8.89999962 10.3519993
v 20.7159996 8.65999985 -5.20399904
v 22.4000015 -8.89999866 -14.8479986
v 22.4000015 8.65999985 -14.8479986
v 5.48799992 -14.5719995 8.92799854
v 8.85599995 -11.8640003 5.15199947
v 6.79199982 -11.5159998 8.86799908
v 8.85599995 -11.8640003 5.15199947
v 5.48799992 -14.5719995 8.92799854
v 7.23600006 -15.4919996 3.07599902
v 8.85599995 -11.8640003 5.15199947
v 7.23600006 -15.4919996 3.07599902
v 9.13999939 -11.8879995 1.17999935
v 6.81599998 -15.3519993 -2.7680006
v 9.13999939 -11.8879995 1.17999935
v 7.23600006 -15.4919996 3.07599902
v 9.13999939 -11.8879995 1.17999935
v 6.81599998 -15.3519993 -2.7680006
v 8.79599953 -11.539999 -3.38400006
v 5.48399973 -15.3799982 -9.16400051
v 8.79599953 -11.539999 -3.38400006
v 6.81599998 -15.3519993 -2.7680006
v 8.79599953 -11.539999 -3.38400006
v 5.48399973 -15.3799982 -9.16400051
v 7.71600008 -11.3999987 -10.3039999
v 5.48799992 -14.5719995 8.92799854
v 6.79199982 -11.5159998 8.86799908
v 4.45599985 -11.3999996 12.3519993
v 3.3599999 -14.3199997 12.3519993
v 5.48799992 -14.5719995 8.92799854
v 4.45599985 -11.3999996 12.3519993
v 2.66799974 -16.6679993 8.9679985
v 5.48799992 -14.5719995 8.92799854
v 3.3599999 -14.3199997 12.3519993
v 3.78400016 -18.2879982 3.15199924
v 5.48799992 -14.5719995 8.92799854
v 2.66799974 -16.6679993 8.9679985
v 5.48799992 -14.5719995 8.92799854
v 3.78400016 -18.2879982 3.15199924
v 7.23600006 -15.4919996 3.07599902
v 3.44000006 -17.6679993 -2.48800039
v 7.23600006 -15.4919996 3.07599902
v 3.78400016 -18.2879982 3.15199924
v 7.23600006 -15.4919996 3.07599902
v 3.44000006 -17.6679993 -2.48800039
v 6.81599998 -15.3519993 -2.7680006
v 3.44000006 -17.6679993 -2.48800039
v 5.48399973 -15.3799982 -9.16400051
v 6.81599998 -15.3519993 -2.7680006
v 5.48399973 -15.3799982 -9.16400051
v 3.44000006 -17.6679993 -2.48800039
v 2.73200011 -17.1319981 -8.54799938
v 2.73200011 -17.1319981 -8.54799938
v 4.52400017 -14.7999992 -13.4280005
v 5.48399973 -15.3799982 -9.16400051
v 7.71600008 -11.3999987 -10.3039999
v 5.48399973 -15.3799982 -9.16400051
v 4.52400017 -14.7999992 -13.4280005
v 7.71600008 -11.3999987 -10.3039999
v 4.52400017 -14.7999992 -13.4280005
v 6.39199972 -10.9959984 -16.368
v 0 -15.9599991 12.3519993
v 2.66799974 -16.6679993 8.9679985
v 3.3599999 -14.3199997 12.3519993
v 0 -15.9599991 12.3519993
v 0 -17.6199989 8.99199963
v 2.66799974 -16.6679993 8.9679985
v 0 -19.2040005 3.12799907
v 2.66799974 -16.6679993 8.9679985
v 0 -17.6199989 8.99199963
v 2.66799974 -16.6679993 8.9679985
v 0 -19.2040005 3.12799907
v 3.78400016 -18.2879982 3.15199924
v 0 -19.2040005 3.12799907
v 3.44000006 -17.6679993 -2.48800039
v 3.78400016 -18.2879982 3.15199924
v 3.44000006 -17.6679993 -2.48800039
v 0 -19.2040005 3.12799907
v 0 -18.6399975 -2.28000069
v 0 -17.5159988 -8.43999958
v 3.44000006 -17.6679993 -2.48800039
v 0 -18.6399975 -2.28000069
v 3.44000006 -17.6679993 -2.48800039
v 0 -17.5159988 -8.43999958
v 2.73200011 -17.1319981 -8.54799938
v 2.73200011 -17.1319981 -8.54799938
v 0 -17.5159988 -8.43999958
v 0 -15.6879978 -15.0640001
v 4.52400017 -14.7999992 -13.4280005
v 2.73200011 -17.1319981 -8.54799938
v 0 -15.6879978 -15.0640001
v 2.92400002 -13.6239996 -17.2999992
v 4.52400017 -14.7999992 -13.4280005
v 0 -15.6879978 -15.0640001
v 4.52400017 -14.7999992 -13.4280005
v 2.92400002 -13.6239996 -17.2999992
v 6.39199972 -10.9959984 -16.368
v 2.92400002 -13.6239996 -17.2999992
v 3.05599999 -10.1559982 -20.8519993
v 6.39199972 -10.9959984 -16.368
v -2.66799974 -16.6679993 8.9679985
v 0 -17.6199989 8.99199963
v 0 -15.9599991 12.3519993
v -2.66799974 -16.6679993 8.9679985
v 0 -19.2040005 3.12799907
v 0 -17.6199989 8.99199963
v 0 -19.2040005 3.12799907
v -2.66799974 -16.6679993 8.9679985
v -3.78400016 -18.2879982 3.15199924
v -3.44000006 -17.6679993 -2.48800039
v 0 -19.2040005 3.12799907
v -3.78400016 -18.2879982 3.15199924
v 0 -19.2040005 3.12799907
v -3.44000006 -17.6679993 -2.48800039
v 0 -18.6399975 -2.28000069
v -3.44000006 -17.6679993 -2.48800039
v 0 -17.5159988 -8.43999958
v 0 -18.6399975 -2.28000069
v 0 -17.5159988 -8.43999958
v -3.44000006 -17.6679993 -2.48800039
v -2.73200011 -17.1319981 -8.54799938
v 0 -17.5159988 -8.43999958
v -2.73200011 -17.1319981 -8.54799938
v 0 -15.6879978 -15.0640001
v -2.66799974 -16.6679993 8.9679985
v 0 -15.9599991 12.3519993
v -3.3599999 -14.3199997 12.3519993
v -5.48799992 -14.5719995 8.92799854
v -2.66799974 -16.6679993 8.9679985
v -3.3599999 -14.3199997 12.3519993
v -5.48799992 -14.5719995 8.92799854
v -3.78400016 -18.2879982 3.15199924
v -2.66799974 -16.6679993 8.9679985
v -3.78400016 -18.2879982 3.15199924
v -5.48799992 -14.5719995 8.92799854
v -7.23600006 -15.4919996 3.07599902
v -7.23600006 -15.4919996 3.07599902
v -3.44000006 -17.6679993 -2.48800039
v -3.78400016 -18.2879982 3.15199924
v -3.44000006 -17.6679993 -2.48800039
v -7.23600006 -15.4919996 3.07599902
v -6.81599998 -15.3519993 -2.7680006
v -5.48399973 -15.3799982 -9.16400051
v -3.44000006 -17.6679993 -2.48800039
v -6.81599998 -15.3519993 -2.7680006
v -3.44000006 -17.6679993 -2.48800039
v -5.48399973 -15.3799982 -9.16400051
v -2.73200011 -17.1319981 -8.54799938
v -4.52400017 -14.7999992 -13.4280005
v -2.73200011 -17.1319981 -8.54799938
v -5.48399973 -15.3799982 -9.16400051
v -2.73200011 -17.1319981 -8.54799938
v -4.52400017 -14.7999992 -13.4280005
v 0 -15.6879978 -15.0640001
v -4.45599985 -11.3999996 12.3519993
v -5.48799992 -14.5719995 8.92799854
v -3.3599999 -14.3199997 12.3519993
v -4.45599985 -11.3999996 12.3519993
v -6.79199982 -11.5159998 8.86799908
v -5.48799992 -14.5719995 8.92799854
v -8.85599995 -11.8640003 5.15199947
v -5.48799992 -14.5719995 8.92799854
v -6.79199982 -11.5159998 8.86799908
v -5.48799992 -14.5719995 8.92799854
v -8.85599995 -11.8640003 5.15199947
v -7.23600006 -15.4919996 3.07599902
v -7.23600006 -15.4919996 3.07599902
v -8.85599995 -11.8640003 5.15199947
v -9.13999939 -11.8879995 1.17999935
v -9.13999939 -11.8879995 1.17999935
v -6.81599998 -15.3519993 -2.7680006
v -7.23600006 -15.4919996 3.07599902
v -6.81599998 -15.3519993 -2.7680006
v -9.13999939 -11.8879995 1.17999935
v -8.79599953 -11.539999 -3.38400006
v -8.79599953 -11.539999 -3.38400006
v -5.48399973 -15.3799982 -9.16400051
v -6.81599998 -15.3519993 -2.7680006
v -5.48399973 -15.3799982 -9.16400051
v -8.79599953 -11.539999 -3.38400006
v -7.71600008 -11.3999987 -10.3039999
v -4.52400017 -14.7999992 -13.4280005
v -5.48399973 -15.3799982 -9.16400051
v -7.71600008 -11.3999987 -10.3039999
v -4.52400017 -14.7999992 -13.4280005
v -7.71600008 -11.3999987 -10.3039999
v -6.39199972 -10.9959984 -16.368
v -2.92400002 -13.6239996 -17.2999992
v -4.52400017 -14.7999992 -13.4280005
v -6.39199972 -10.9959984 -16.368
v -4.52400017 -14.7999992 -13.4280005
v -2.92400002 -13.6239996 -17.2999992
v 0 -15.6879978 -15.0640001
v -2.92400002 -13.6239996 -17.2999992
v 0 -13.2199993 -19.2479992
v 0 -15.6879978 -15.0640001
v 0 -13.2199993 -19.2479992
v 2.92400002 -13.6239996 -17.2999992
v 0 -15.6879978 -15.0640001
v 0 -13.2199993 -19.2479992
v 3.05599999 -10.1559982 -20.8519993
v 2.92400002 -13.6239996 -17.2999992
v 3.05599999 -10.1559982 -20.8519993
v 0 -13.2199993 -19.2479992
v 0 -9.51999855 -22.487999
v 0 -13.2199993 -19.2479992
v -3.05599999 -10.1559982 -20.8519993
v 0 -9.51999855 -22.487999
v -3.05599999 -10.1559982 -20.8519993
v -2.92400002 -13.6239996 -17.2999992
v -6.39199972 -10.9959984 -16.368
v -3.05599999 -10.1559982 -20.8519993
v 0 -13.2199993 -19.2479992
v -2.92400002 -13.6239996 -17.2999992

# 323 UV coordinates
vt 0.800700009 0.835300028 0
vt 0.871299982 0.835300028 0
vt 0.941799998 0.835300028 0
vt 0.800700009 0.846599996 0
vt 0.941600025 0.886600018 0
vt 0.800599992 0.886600018 0
vt 0.941799998 0.846599996 0
vt 0.2579 0.783699989 0
vt 0.162 0.801999986 0
vt 0.193900004 0.783699989 0
vt 0.289799988 0.801999986 0
vt 0.162 0.884199977 0
vt 0.289799988 0.884199977 0
vt 0.0896999985 0.64289999 0
vt 0.0135000004 0.671000004 0
vt 0.0255999994 0.64289999 0
vt 0.1017 0.671000004 0
vt 0.0891000032 0.755200028 0
vt 0.0261000004 0.755200028 0
vt 0.057599999 0.761500001 0
vt 0.612299979 0.520699978 0
vt 0.665000021 0.567900002 0
vt 0.639299989 0.571200013 0
vt 0.670000017 0.519400001 0
vt 0.619400024 0.403699994 0
vt 0.680299997 0.407400012 0
vt 0.922399998 0.452600002 0
vt 0.982299984 0.363099992 0
vt 0.982299984 0.452600002 0
vt 0.922399998 0.363099992 0
vt 0.982299984 0.3495 0
vt 0.922399998 0.3495 0
vt 0.431800008 0.0286999997 0
vt 0.470299989 0.0286999997 0
vt 0.467999995 0.0355999991 0
vt 0.437099993 0.0126 0
vt 0.125499994 0.835099995 0
vt 0.131400004 0.792200029 0
vt 0.150299996 0.810699999 0
vt 0.107699998 0.816999972 0
vt 0.0754000023 0.857800007 0
vt 0.0819000006 0.864600003 0
vt 0.0487000011 0.792100012 0
vt 0.0987000018 0.809499979 0
vt 0.122500002 0.784399986 0
vt 0.0467000008 0.809499979 0
vt 0.0661000013 0.850700021 0
vt 0.0395999998 0.8495 0
vt 0.439799994 0.0832000002 0
vt 0.467099994 0.0425999984 0
vt 0.430799991 0.0366999991 0
vt 0.480399996 0.0822999999 0
vt 0.482800007 0.180099994 0
vt 0.441300005 0.193000004 0
vt 0.0948999971 0.379599988 0
vt 0.0144999996 0.549300015 0
vt 0.0144999996 0.379599988 0
vt 0.0966999978 0.549300015 0
vt 0.0144999996 0.610199988 0
vt 0.0966999978 0.610199988 0
vt 0.275999993 0.0379999988 0
vt 0.257499993 0.0340999998 0
vt 0.275599986 0.0331999995 0
vt 0.257699996 0.0388999991 0
vt 0.241300002 0.0388000011 0
vt 0.241500005 0.0340000018 0
vt 0.223199993 0.0335000008 0
vt 0.222499996 0.0383000001 0
vt 0.240899995 0.0436000004 0
vt 0.221100003 0.0430999994 0
vt 0.276499987 0.0428999998 0
vt 0.257999986 0.0436000004 0
vt 0.258300006 0.0483000018 0
vt 0.240500003 0.0483000018 0
vt 0.219799995 0.0480000004 0
vt 0.2403 0.0529999994 0
vt 0.2192 0.0529999994 0
vt 0.219799995 0.0581 0
vt 0.27700001 0.0478999987 0
vt 0.277200013 0.0529999994 0
vt 0.258399993 0.0529999994 0
vt 0.258300006 0.0577000007 0
vt 0.240500003 0.0577999987 0
vt 0.221100003 0.063000001 0
vt 0.240899995 0.0625 0
vt 0.222499996 0.0676999986 0
vt 0.241300002 0.0672999993 0
vt 0.223199993 0.0724999979 0
vt 0.27700001 0.0582000017 0
vt 0.257999986 0.0623999983 0
vt 0.276499987 0.0631999969 0
vt 0.257699996 0.0671999976 0
vt 0.275999993 0.0680000037 0
vt 0.257499993 0.0719999969 0
vt 0.241500005 0.0720999986 0
vt 0.275599986 0.0728999972 0
vt 0.219300002 0.219099998 0
vt 0.263500005 0.212699994 0
vt 0.230900005 0.234500006 0
vt 0.247099996 0.190699995 0
vt 0.206100002 0.205899999 0
vt 0.229599997 0.172299996 0
vt 0.191200003 0.195600003 0
vt 0.210700005 0.159099996 0
vt 0.189199999 0.150800005 0
vt 0.174400002 0.188899994 0
vt 0.164199993 0.146400005 0
vt 0.156000003 0.185299993 0
vt 0.136800006 0.145099998 0
vt 0.136800006 0.184300005 0
vt 0.117600001 0.185299993 0
vt 0.109399997 0.146400005 0
vt 0.0992000028 0.188899994 0
vt 0.0843999982 0.150800005 0
vt 0.0824000016 0.195600003 0
vt 0.0628999993 0.159099996 0
vt 0.0439999998 0.172299996 0
vt 0.0675000027 0.205899999 0
vt 0.0264999997 0.190699995 0
vt 0.054299999 0.219099998 0
vt 0.0100999996 0.212699994 0
vt 0.0427000001 0.234500006 0
vt 0.0410000011 0.91930002 0
vt 0.133399993 0.897700012 0
vt 0.142100006 0.91930002 0
vt 0.0329999998 0.895900011 0
vt 0.982299984 0.561699986 0
vt 0.940800011 0.611999989 0
vt 0.963999987 0.611999989 0
vt 0.922399998 0.561699986 0
vt 0.982299984 0.521300018 0
vt 0.922399998 0.521300018 0
vt 0.922399998 0.504999995 0
vt 0.982299984 0.504999995 0
vt 0.922399998 0.488099992 0
vt 0.982299984 0.488099992 0
vt 0.922399998 0.469000012 0
vt 0.982299984 0.469000012 0
vt 0.5255 0.0482000001 0
vt 0.489300013 0.145999998 0
vt 0.52579999 0.145999998 0
vt 0.489600003 0.0482000001 0
vt 0.504000008 0.00889999978 0
vt 0.511200011 0.00889999978 0
vt 0.0102000004 0.809400022 0
vt 0.0375000015 0.792299986 0
vt 0.0104999999 0.791499972 0
vt 0.0355999991 0.809499979 0
vt 0.0285 0.84920001 0
vt 0.0189999994 0.849399984 0
vt 0.0401000008 0.857299984 0
vt 0.065700002 0.867699981 0
vt 0.066200003 0.858399987 0
vt 0.0395999998 0.866599977 0
vt 0.750999987 0.581200004 0
vt 0.677900016 0.51880002 0
vt 0.672999978 0.566699982 0
vt 0.770399988 0.529699981 0
vt 0.791800022 0.494800001 0
vt 0.688000023 0.407999992 0
vt 0.8204 0.450100005 0
vt 0.913200021 0.407999992 0
vt 0.907500029 0.421200007 0
vt 0.808300018 0.494800001 0
vt 0.826499999 0.465700001 0
vt 0.822399974 0.484800011 0
vt 0.582799971 0.149800003 0
vt 0.593900025 0.122299999 0
vt 0.570800006 0.119000003 0
vt 0.600300014 0.1523 0
vt 0.619700015 0.127499998 0
vt 0.620700002 0.155499995 0
vt 0.612900019 0.208499998 0
vt 0.625400007 0.200100005 0
vt 0.602400005 0.217399999 0
vt 0.0410000011 0.926199973 0
vt 0.142100006 0.950600028 0
vt 0.142100006 0.926199973 0
vt 0.0410000011 0.950600028 0
vt 0.272100002 0.513599992 0
vt 0.208000004 0.433200002 0
vt 0.272100002 0.433200002 0
vt 0.208000004 0.513599992 0
vt 0.143999994 0.433200002 0
vt 0.143999994 0.513599992 0
vt 0.575800002 0.687399983 0
vt 0.595600009 0.70630002 0
vt 0.584399998 0.718999982 0
vt 0.600300014 0.687399983 0
vt 0.595600009 0.668500006 0
vt 0.584399998 0.655799985 0
vt 0.86559999 0.7227 0
vt 0.979700029 0.713500023 0
vt 0.755500019 0.159799993 0
vt 0.784300029 0.326200008 0
vt 0.755500019 0.305700004 0
vt 0.824599981 0.136899993 0
vt 0.133399993 0.980199993 0
vt 0.0410000011 0.958700001 0
vt 0.142100006 0.958700001 0
vt 0.0329999998 0.98210001 0
vt 0.0322999991 0.926199973 0
vt 0.0092000002 0.959500015 0
vt 0.0322999991 0.950600028 0
vt 0.0092000002 0.917400002 0
vt 0.885399997 0.50120002 0
vt 0.833500028 0.507399976 0
vt 0.833500028 0.50120002 0
vt 0.885399997 0.507399976 0
vt 0.884599984 0.558799982 0
vt 0.834399998 0.558799982 0
vt 0.884000003 0.591899991 0
vt 0.834999979 0.591899991 0
vt 0.859600008 0.598500013 0
vt 0.859000027 0.613399982 0
vt 0.832599998 0.6074 0
vt 0.886699975 0.608200014 0
vt 0.671400011 0.600099981 0
vt 0.75150001 0.591499984 0
vt 0.675700009 0.577300012 0
vt 0.747300029 0.614300013 0
vt 0.910700023 0.340200007 0
vt 0.689999998 0.400099993 0
vt 0.910700023 0.400099993 0
vt 0.689999998 0.340200007 0
vt 0.535000026 0.158000007 0
vt 0.515100002 0.215800002 0
vt 0.550700009 0.190799996 0
vt 0.493200004 0.170000002 0
vt 0.682900012 0.463400006 0
vt 0.623899996 0.286199987 0
vt 0.623899996 0.2509 0
vt 0.534200013 0.250999987 0
vt 0.546999991 0.306600004 0
vt 0.624000013 0.306600004 0
vt 0.522300005 0.306699991 0
vt 0.522300005 0.278800011 0
vt 0.299199998 0.713 0
vt 0.276600003 0.769699991 0
vt 0.239600003 0.768599987 0
vt 0.263700008 0.584500015 0
vt 0.279500008 0.544399977 0
vt 0.207900003 0.574100018 0
vt 0.208100006 0.524399996 0
vt 0.136800006 0.543200016 0
vt 0.151899993 0.583899975 0
vt 0.114699997 0.712899983 0
vt 0.175300002 0.768599987 0
vt 0.139200002 0.770200014 0
vt 0.815999985 0.0449000001 0
vt 0.824500024 0.1237 0
vt 0.755500019 0.146599993 0
vt 0.723999977 0.0513999984 0
vt 0.801999986 0.00249999994 0
vt 0.759599984 0.0164999999 0
vt 0.574699998 0.149800003 0
vt 0.594299972 0.217399999 0
vt 0.583199978 0.222399995 0
vt 0.541700006 0.128099993 0
vt 0.562699974 0.119000003 0
vt 0.641900003 0.305599988 0
vt 0.632600009 0.216299996 0
vt 0.731999993 0.306100011 0
vt 0.731999993 0.159400001 0
vt 0.630400002 0.1602 0
vt 0.165299997 0.213100001 0
vt 0.166999996 0.231199995 0
vt 0.158800006 0.247299999 0
vt 0.154300004 0.198100001 0
vt 0.143000007 0.257299989 0
vt 0.136800006 0.189999998 0
vt 0.1237 0.258399993 0
vt 0.106299996 0.25029999 0
vt 0.117600001 0.191 0
vt 0.0952000022 0.235200003 0
vt 0.101800002 0.201000005 0
vt 0.0935999975 0.217099994 0
vt 0.623899996 0.723999977 0
vt 0.643700004 0.752499998 0
vt 0.619199991 0.742299974 0
vt 0.658999979 0.732599974 0
vt 0.6699 0.755699992 0
vt 0.692700028 0.730799973 0
vt 0.699100018 0.754700005 0
vt 0.729200006 0.721000016 0
vt 0.74150002 0.744799972 0
vt 0.59740001 0.729300022 0
vt 0.603399992 0.711799979 0
vt 0.625400007 0.703700006 0
vt 0.659099996 0.708199978 0
vt 0.690400004 0.707799971 0
vt 0.723800004 0.703000009 0
vt 0.753199995 0.71420002 0
vt 0.777999997 0.730400026 0
vt 0.605199993 0.687399983 0
vt 0.62650001 0.687399983 0
vt 0.659500003 0.687399983 0
vt 0.68870002 0.687399983 0
vt 0.7227 0.687399983 0
vt 0.760100007 0.687399983 0
vt 0.775900006 0.704599977 0
vt 0.80430001 0.706700027 0
vt 0.625400007 0.67110002 0
vt 0.659099996 0.666599989 0
vt 0.690400004 0.666999996 0
vt 0.723800004 0.671800017 0
vt 0.603399992 0.662999988 0
vt 0.623899996 0.650699973 0
vt 0.658999979 0.642199993 0
vt 0.692700028 0.643999994 0
vt 0.729200006 0.653800011 0
vt 0.753199995 0.660600007 0
vt 0.59740001 0.645399988 0
vt 0.619199991 0.632499993 0
vt 0.64380002 0.622300029 0
vt 0.6699 0.619099975 0
vt 0.699100018 0.620100021 0
vt 0.74150002 0.629999995 0
vt 0.777999997 0.644400001 0
vt 0.775900006 0.67019999 0
vt 0.786499977 0.687399983 0
vt 0.813899994 0.687399983 0
vt 0.80430001 0.668099999 0

# 358 vertex normals
vn 0 -1 -4.37113883e-08
vn 0.576679289 -3.57109116e-08 0.816970587
vn 0 -4.37113883e-08 1
vn 0 1 4.37113883e-08
vn -0.800132036 -2.62191335e-08 0.599823833
vn -0.749502182 -2.89370199e-08 0.662001848
vn -0.845918775 -2.33117952e-08 0.533311725
vn -0.885993958 -2.02688302e-08 0.463696778
vn 0.98456949 7.64925367e-09 -0.174994513
vn 0.929144204 -1.61608682e-08 0.369717538
vn 0.99560982 -4.09142542e-09 0.093600899
vn 0.985565662 7.40007922e-09 -0.169294059
vn 0.297808111 -4.17280184e-08 0.954625785
vn 0.979937077 -8.712008e-09 0.199307516
vn 0.972978652 -1.00927364e-08 0.230894908
vn 0.985889316 -7.31720595e-09 0.16739817
vn 0.00859967619 0.999862194 0.0141995074
vn 0.0376016647 0.997043967 0.0670030043
vn 0.00819993578 0.999891937 0.0121999448
vn 0.0653019771 0.990329742 0.122403719
vn 0.0930977091 0.980175674 0.174895704
vn 0.0910963491 0.979860544 0.17769289
vn -0.0625023246 0.960035443 0.272810131
vn 0.0334999524 0.892198563 0.45039928
vn 0.0153006995 0.893440664 0.448920548
vn -0.0552022606 0.959539115 0.276111275
vn -0.15560545 0.98433435 0.0829029381
vn -0.151800781 0.985304773 0.0783004239
vn -0.988987625 6.4692034e-09 -0.147998124
vn -0.99942863 -1.4774868e-09 0.0338009596
vn -0.975339711 -9.64749347e-09 0.220708936
vn -0.919145048 -1.72187562e-08 0.393919259
vn -0.797860622 -0.602570057 -0.0180991311
vn -0.908678651 -0.382990927 -0.166196078
vn -0.923981607 -0.381892383 -0.0203996114
vn -0.636080921 -0.764676869 -0.103296906
vn -0.674475014 -0.662775338 -0.325287938
vn -0.828386545 -0.383393615 -0.408393234
vn -0.775657654 -0.376079381 -0.506872296
vn -0.509728909 -0.79204464 -0.335919023
vn 0.00709967967 -0.999854684 -0.0154993413
vn 0.114304796 -0.990441382 0.0772031844
vn -0.137303337 -0.990523875 -0.00320012053
vn 0.00299990014 -0.999766529 -0.0213993285
vn 0.732304692 -0.665404081 0.144800872
vn 0.573183715 -0.762578189 0.299891382
vn 0.664005578 -0.59730494 0.44980368
vn 0.892982602 -1.96741041e-08 0.450091124
vn 0.826876283 -2.45825724e-08 0.562383711
vn 0.664005578 0.597304881 0.44980377
vn 0.604015231 -0.796820045 0.0156003553
vn 0.999646127 -1.16277632e-09 0.0266012233
vn 0.983391285 -7.93354538e-09 0.181498364
vn 0.732304692 0.665404081 0.144800931
vn 0.573183715 0.762578189 0.299891442
vn 0.114304796 0.990441382 0.0772032663
vn 0.00709967967 0.999854684 -0.0154992528
vn -0.509728968 0.792044759 -0.335918993
vn -0.674475014 0.662775397 -0.325287879
vn -0.775657654 0.37607944 -0.506872237
vn 0.604015231 0.796820045 0.0156004261
vn 0.00299990014 0.999766529 -0.0213992428
vn -0.137303337 0.990523875 -0.00320003345
vn -0.636080921 0.764676869 -0.103296839
vn -0.797860622 0.602570057 -0.018099077
vn -0.908678651 0.382990927 -0.166196048
vn -0.828386545 0.383393675 -0.408393234
vn -0.923981607 0.381892383 -0.0203995742
vn 0.376600832 0.890501738 0.255300522
vn 0.221706674 0.947428346 0.23070693
vn 0.235904753 0.945818841 0.223104492
vn 0.501080632 0.817268193 0.284588963
vn 0.74169457 0.584395587 0.329197556
vn 0.820454836 0.442729533 0.361724108
vn 0.923378408 -1.67804046e-08 0.383890957
vn 0.919496357 -1.71828756e-08 0.393098354
vn 0.820454836 -0.442729533 0.361724079
vn 0.74169457 -0.584395647 0.329197526
vn 0.501080632 -0.817268193 0.284588873
vn 0.376600832 -0.890501857 0.255300462
vn 0 -0.971629679 0.236507162
vn 0 -0.973285794 0.22959663
vn -0.376600832 -0.890501857 0.255300462
vn -0.501080632 -0.817268193 0.284588873
vn -0.74169457 -0.584395647 0.329197526
vn -0.820454836 -0.442729533 0.361724079
vn -0.923378408 -1.67804046e-08 0.383890957
vn -0.919496357 -1.71828756e-08 0.393098354
vn -0.820454836 0.442729533 0.361724108
vn -0.74169457 0.584395587 0.329197556
vn -0.501080632 0.817268193 0.284588963
vn -0.376600832 0.890501738 0.255300522
vn -0.221706674 0.947428346 0.23070693
vn -0.235904753 0.945818841 0.223104492
vn -0.209098786 0.925294459 -0.316398084
vn -0.209009796 0.925343156 -0.316314727
vn -0.209092155 0.925265253 -0.316488087
vn -0.0376016647 0.997043967 0.0670030043
vn -0.00859967619 0.999862194 0.0141995074
vn -0.00819993578 0.999891937 0.0121999448
vn -0.0653019771 0.990329742 0.122403719
vn -0.0930977091 0.980175674 0.174895704
vn -0.0910963491 0.979860544 0.17769289
vn -0.970873356 1.04729594e-08 -0.239593402
vn -0.947991014 1.39132004e-08 -0.318296909
vn -0.987326205 6.93718016e-09 -0.158704177
vn -0.905156136 -1.85808045e-08 0.425079286
vn -0.731567204 -2.98010843e-08 0.681769311
vn -0.859997392 -2.23058461e-08 0.510298312
vn -0.995986938 -3.91211774e-09 0.0894988254
vn -0.986160576 7.24705851e-09 -0.165793359
vn -0.825093925 2.4696746e-08 -0.564995706
vn -0.695817769 3.13943183e-08 -0.718218267
vn -0.98456949 7.64925367e-09 -0.174994513
vn 0.773498237 -2.77042087e-08 0.63379848
vn 0.88368088 -2.04608543e-08 0.468089819
vn 0.632589638 -3.38539081e-08 0.774487138
vn 0.937197566 -1.52464885e-08 0.34879905
vn 0.936333179 -1.53476112e-08 0.351112396
vn 0.938055992 -1.51452841e-08 0.346483707
vn -0.45631066 -3.88952941e-08 0.889820516
vn -0.178806394 -0.933933198 0.309510976
vn -0.0909038112 -0.983341038 0.157406524
vn -0.17839691 -0.930883765 0.318794399
vn -0.091000475 -0.984104931 0.152500734
vn 0.0626019388 -0.960029542 0.272808313
vn -0.0332002789 -0.892207503 0.45040375
vn -0.0146994907 -0.893468916 0.448884338
vn 0.0552022606 -0.959539115 0.276111215
vn 0.15560545 -0.98433435 0.0829028562
vn 0.151800781 -0.985304773 0.078300342
vn -0.0210006628 0.998631299 0.0479015447
vn 0.161907002 0.986742496 0.0112005258
vn 0.255893618 0.960675895 0.107797332
vn 0.492290825 0.868283749 0.0610988885
vn 0.493324697 0.85644269 0.152107611
vn 0.357802749 0.91520685 0.18540144
vn 0.491187006 0.850877285 0.186395064
vn 0.011299911 0.986791968 0.161598727
vn 0.908678651 -0.382990927 -0.166196078
vn 0.797860622 -0.602570057 -0.0180991311
vn 0.923981607 -0.381892383 -0.0203996114
vn 0.636080921 -0.764676869 -0.103296906
vn 0.137303337 -0.990523875 -0.00320012053
vn -0.00299990014 -0.999766529 -0.0213993285
vn -0.604015231 -0.796820045 0.0156003553
vn -0.732304692 -0.665404081 0.144800872
vn -0.999646127 -1.16277632e-09 0.0266012233
vn 0.674475014 -0.662775338 -0.325287938
vn -0.00709967967 -0.999854684 -0.0154993413
vn -0.573183715 -0.762578189 0.299891382
vn -0.892982602 -1.96741041e-08 0.450091124
vn -0.983391285 -7.93354538e-09 0.181498364
vn -0.732304692 0.665404081 0.144800931
vn -0.604015231 0.796820045 0.0156004261
vn 0.828386545 -0.383393615 -0.408393234
vn 0.775657654 -0.376079381 -0.506872296
vn 0.509728909 -0.79204464 -0.335919023
vn -0.114304796 -0.990441382 0.0772031844
vn -0.664005578 -0.59730494 0.44980368
vn -0.826876283 -2.45825724e-08 0.562383711
vn -0.664005578 0.597304881 0.44980377
vn -0.573183715 0.762578189 0.299891442
vn -0.114304796 0.990441382 0.0772032663
vn -0.00709967967 0.999854684 -0.0154992528
vn -0.00299990014 0.999766529 -0.0213992428
vn 0.137303337 0.990523875 -0.00320003345
vn 0.636080921 0.764676869 -0.103296839
vn 0.797860622 0.602570057 -0.018099077
vn 0.509728968 0.792044759 -0.335918993
vn 0.674475014 0.662775397 -0.325287879
vn 0.908678651 0.382990927 -0.166196048
vn 0.923981607 0.381892383 -0.0203995742
vn 0.775657654 0.37607944 -0.506872237
vn 0.828386545 0.383393675 -0.408393234
vn -0.00859967619 -0.999862194 0.0141994208
vn -0.0376016609 -0.997043967 0.0670029148
vn -0.00819993578 -0.999891937 0.0121998582
vn -0.0653019771 -0.990329742 0.122403637
vn -0.0930977091 -0.980175674 0.174895599
vn -0.0910963491 -0.979860544 0.177692801
vn 0.551372886 3.64666093e-08 -0.834258914
vn 0.196096942 4.28627089e-08 -0.980584562
vn 0.0664991066 4.36146301e-08 -0.997786462
vn -0.0664991066 4.36146301e-08 -0.997786462
vn -0.196096942 4.28627089e-08 -0.980584562
vn -0.773498237 -2.77042087e-08 0.63379848
vn -0.632589638 -3.38539081e-08 0.774487138
vn -0.88368088 -2.04608543e-08 0.468089819
vn 0.99942863 -1.4774868e-09 0.0338009596
vn 0.988987625 6.4692034e-09 -0.147998124
vn 0.975339711 -9.64749347e-09 0.220708936
vn 0.919145048 -1.72187562e-08 0.393919259
vn -0.357802749 0.91520685 0.18540144
vn -0.493324697 0.85644269 0.152107611
vn -0.491187006 0.850877285 0.186395064
vn -0.255893618 0.960675895 0.107797332
vn -0.492290825 0.868283749 0.0610988885
vn -0.161907002 0.986742496 0.0112005258
vn 0.0210006628 0.998631299 0.0479015447
vn -0.011299911 0.986791968 0.161598727
vn -0.210607603 -0.924433172 -0.317911476
vn -0.211203068 -0.923713267 -0.319604605
vn -0.210011333 -0.925149739 -0.316217035
vn 0.749502182 -2.89370199e-08 0.662001848
vn 0.823712111 -2.47847147e-08 0.567008197
vn 0.885993958 -2.02688302e-08 0.463696778
vn -0.929144204 -1.61608682e-08 0.369717538
vn -0.99560982 -4.09142542e-09 0.093600899
vn -0.985565662 7.40007922e-09 -0.169294059
vn -0.297808111 -4.17280184e-08 0.954625785
vn -0.972978652 -1.00927364e-08 0.230894908
vn -0.979937077 -8.712008e-09 0.199307516
vn -0.985889316 -7.31720595e-09 0.16739817
vn 0.0625023246 0.960035443 0.272810131
vn 0.15560545 0.98433435 0.0829029381
vn 0.151800781 0.985304773 0.0783004239
vn 0.0552022606 0.959539115 0.276111275
vn -0.0334999524 0.892198563 0.45039928
vn -0.0153006995 0.893440664 0.448920548
vn 0.973308146 -1.00318447e-08 0.229501888
vn 0.979937077 8.712008e-09 -0.199307516
vn 0.947991014 1.39132004e-08 -0.318296909
vn 0.905156136 -1.85808045e-08 0.425079286
vn 0.731567204 -2.98010843e-08 0.681769311
vn 0.859997392 -2.23058461e-08 0.510298312
vn 0.995986938 -3.91211774e-09 0.0894988254
vn 0.986160576 7.24705851e-09 -0.165793359
vn 0.825093925 2.4696746e-08 -0.564995706
vn 0.695817769 3.13943183e-08 -0.718218267
vn -0.936333179 -1.53476112e-08 0.351112396
vn -0.937197566 -1.52464885e-08 0.34879905
vn -0.938055992 -1.51452841e-08 0.346483707
vn 0.45631066 -3.88952941e-08 0.889820516
vn -0.0626019388 -0.960029542 0.272808313
vn -0.15560545 -0.98433435 0.0829028562
vn -0.151800781 -0.985304773 0.078300342
vn -0.0552022606 -0.959539115 0.276111215
vn 0.0332002789 -0.892207503 0.45040375
vn 0.0146994907 -0.893468916 0.448884338
vn 0 0.641511261 0.767113566
vn 0 0.992966473 0.118396066
vn 0 0.998246014 0.0592027642
vn 0.0888979137 0.948677599 -0.303492785
vn -0.198799059 0.707096517 -0.678596675
vn 0.0919042826 0.326715261 -0.940643787
vn -0.0971966162 4.35044178e-08 -0.995265186
vn -0.281186342 4.19477715e-08 -0.959653258
vn 0.281186342 4.19477715e-08 -0.959653258
vn 0.0653019771 -0.990329742 0.122403637
vn 0.0930977091 -0.980175674 0.174895599
vn 0.0910963491 -0.979860544 0.177692801
vn 0.0376016609 -0.997043967 0.0670029148
vn 0.00859967619 -0.999862194 0.0141994208
vn 0.00819993578 -0.999891937 0.0121998582
vn -0.973308146 -1.00318447e-08 0.229501888
vn -0.488408506 -3.81432095e-08 0.872615099
vn 0.565407932 3.6053649e-08 -0.824811399
vn 0.693935692 3.14738102e-08 -0.720036924
vn -0.576679289 -3.57109116e-08 0.816970587
vn 0.210607603 -0.924433172 -0.317911476
vn 0.211203068 -0.923713267 -0.319604605
vn 0.210011333 -0.925149739 -0.316217035
vn 0.488408506 -3.81432095e-08 0.872615099
vn -0.565407932 3.6053649e-08 -0.824811399
vn -0.693935692 3.14738102e-08 -0.720036924
vn 0.178806394 0.933933198 0.309511065
vn 0.0909038112 0.983341038 0.157406628
vn 0.17839691 0.930883765 0.318794489
vn 0.0910004675 0.984104812 0.152500808
vn 0.0909038112 -0.983341038 0.157406524
vn 0.178806394 -0.933933198 0.309510976
vn 0.17839691 -0.930883765 0.318794399
vn 0.091000475 -0.984104931 0.152500734
vn -0.551372886 3.64666093e-08 -0.834258914
vn -0.0909038112 0.983341038 0.157406628
vn -0.178806394 0.933933198 0.309511065
vn -0.17839691 0.930883765 0.318794489
vn -0.0910004675 0.984104812 0.152500808
vn 0.430779636 -3.94476487e-08 0.902457118
vn 0.430616707 -3.94510487e-08 0.902534902
vn 0.430698246 -3.94493576e-08 0.90249604
vn 0.430818468 -3.94468387e-08 0.902438581
vn 0.430981368 -3.94434458e-08 0.902360857
vn 0.209098786 0.925294459 -0.316398084
vn 0.209009796 0.925343156 -0.316314727
vn 0.209092155 0.925265253 -0.316488087
vn 0.600886703 -0.798182189 0.0428990051
vn 0.4852781 -0.849261522 0.207990542
vn 0.216011256 -0.974150598 0.0661033913
vn 0.360485792 -0.920363605 -0.151594043
vn 0.381688178 -0.841573775 -0.382188112
vn 0 -0.964904487 -0.262601286
vn 0 -0.899410367 -0.437105119
vn -0.381688178 -0.841573775 -0.382188112
vn -0.360485792 -0.920363605 -0.151594043
vn -0.600886703 -0.798182189 0.0428990051
vn -0.216011256 -0.974150598 0.0661033913
vn -0.4852781 -0.849261522 0.207990542
vn -0.472590506 3.85220602e-08 -0.881282091
vn -0.472590506 0.000100036494 -0.881282091
vn 0.999867141 -7.12472137e-10 0.0162994619
vn -0.430779636 -3.94476487e-08 0.902457118
vn -0.430779636 -0.000100034697 0.902457118
vn -0.430981368 -3.94434458e-08 0.902360857
vn -0.430698246 -0.000100039011 0.90249604
vn -0.430698246 -3.94493576e-08 0.90249604
vn -0.985097051 -7.51833529e-09 0.171999469
vn 0.472590506 0.000100036494 -0.881282091
vn 0.472590506 3.85220602e-08 -0.881282091
vn -0.999867141 -7.12472137e-10 0.0162994619
vn 0.985097051 -7.51833529e-09 0.171999469
vn 0.721772969 -0.548379362 0.422284067
vn 0.846311867 -0.444006145 0.294304043
vn 0.795760453 -0.329583615 0.508074641
vn 0.749697387 -0.657697678 0.0733997002
vn 0.881867528 -0.470082581 -0.0364986695
vn 0.76441586 -0.635613024 -0.108002253
vn 0.861543357 -0.48782447 -0.140607074
vn 0.698678792 -0.692578852 -0.179394543
vn 0.820565164 -0.534177303 -0.203291371
vn 0.790688157 -0.311595291 0.526992023
vn 0.603995621 -0.634795308 0.4818964
vn 0.399616718 -0.841135025 0.364415139
vn 0.471298784 -0.870597541 0.141199559
vn 0.400399387 -0.90869844 -0.118099838
vn 0.315813839 -0.924440324 -0.213709369
vn 0.574704409 -0.752605677 -0.32140246
vn 0.679805577 -0.607404888 -0.411003321
vn 0 -0.879073799 0.476685762
vn 0 -0.935285389 0.353894442
vn 0 -0.996242821 0.0866036788
vn 0 -0.989895403 -0.14179939
vn 0 -0.983000994 -0.183600232
vn 0 -0.924032629 -0.382313579
vn 0.424000382 -0.741500616 -0.520000398
vn 0.401911199 -0.643117785 -0.651818097
vn -0.399616718 -0.841135025 0.364415139
vn -0.471298784 -0.870597541 0.141199559
vn -0.400399387 -0.90869844 -0.118099838
vn -0.315813839 -0.924440324 -0.213709369
vn -0.603995621 -0.634795308 0.4818964
vn -0.721772969 -0.548379362 0.422284067
vn -0.749697387 -0.657697678 0.0733997002
vn -0.76441586 -0.635613024 -0.108002253
vn -0.698678792 -0.692578852 -0.179394543
vn -0.574704409 -0.752605677 -0.32140246
vn -0.790688157 -0.311595291 0.526992023
vn -0.795760453 -0.329583615 0.508074641
vn -0.846311867 -0.444006145 0.294304043
vn -0.881867528 -0.470082581 -0.0364986695
vn -0.861543357 -0.48782447 -0.140607074
vn -0.820565164 -0.534177303 -0.203291371
vn -0.679805577 -0.607404888 -0.411003321
vn -0.424000382 -0.741500616 -0.520000398
vn 0 -0.754919708 -0.655817151
vn 0 -0.658808947 -0.752310336
vn -0.401911199 -0.643117785 -0.651818097

# Mesh 'PipelineFBX' with 487 faces
g PipelineFBX
usemtl DefaultMaterial
f  1/1/1 2/2/1 3/3/1
f  4/4/2 5/5/2 6/6/2
f  7/5/2 8/4/2 9/7/2
f  10/8/3 11/9/3 12/10/3
f  13/9/3 14/8/3 15/11/3
f  16/11/3 17/12/3 18/9/3
f  19/12/3 20/11/3 21/13/3
f  22/14/4 23/15/4 24/16/4
f  25/15/4 26/14/4 27/17/4
f  28/18/4 29/15/4 30/17/4
f  31/15/4 32/18/4 33/19/4
f  34/18/4 35/20/4 36/19/4
f  37/21/5 38/22/6 39/23/6
f  40/22/6 41/21/5 42/24/7
f  43/25/8 44/24/7 45/21/5
f  46/24/7 47/25/8 48/26/8
f  49/27/9 50/28/10 51/29/9
f  52/28/10 53/27/9 54/30/11
f  55/30/11 56/31/12 57/28/10
f  58/31/12 59/30/11 60/32/12
f  61/33/13 62/34/13 63/35/13
f  64/34/13 65/33/13 66/36/13
f  67/37/14 68/38/15 69/39/15
f  70/38/15 71/37/14 72/40/14
f  73/37/14 74/41/16 75/40/14
f  76/41/16 77/37/14 78/42/16
f  79/43/17 80/44/18 81/45/19
f  82/44/18 83/43/17 84/46/20
f  85/46/20 86/47/21 87/44/18
f  88/47/21 89/46/20 90/48/22
f  91/49/23 92/50/24 93/51/25
f  94/50/24 95/49/23 96/52/26
f  97/49/23 98/53/27 99/52/26
f  100/53/27 101/49/23 102/54/28
f  103/55/29 104/56/30 105/57/29
f  106/56/30 107/55/29 108/58/31
f  109/58/31 110/59/32 111/56/30
f  112/59/32 113/58/31 114/60/32
f  115/61/33 116/62/34 117/63/35
f  118/62/34 119/61/33 120/64/36
f  121/65/37 122/62/34 123/64/36
f  124/62/34 125/65/37 126/66/38
f  127/65/37 128/67/39 129/66/38
f  130/67/39 131/65/37 132/68/40
f  133/69/41 134/68/40 135/65/37
f  136/68/40 137/69/41 138/70/42
f  139/71/43 140/64/36 141/61/33
f  142/64/36 143/71/43 144/72/44
f  145/72/44 146/65/37 147/64/36
f  148/65/37 149/72/44 150/69/41
f  151/73/45 152/69/41 153/72/44
f  154/69/41 155/73/45 156/74/46
f  157/74/46 158/70/42 159/69/41
f  160/70/42 161/74/46 162/75/47
f  163/76/48 164/75/47 165/74/46
f  166/75/47 167/76/48 168/77/49
f  169/76/48 170/78/50 171/77/49
f  172/79/51 173/72/44 174/71/43
f  175/72/44 176/79/51 177/73/45
f  178/80/52 179/73/45 180/79/51
f  181/73/45 182/80/52 183/81/53
f  184/76/48 185/73/45 186/81/53
f  187/73/45 188/76/48 189/74/46
f  190/80/52 191/82/54 192/81/53
f  193/82/54 194/76/48 195/81/53
f  196/76/48 197/82/54 198/83/55
f  199/78/50 200/76/48 201/83/55
f  202/83/55 203/84/56 204/78/50
f  205/84/56 206/83/55 207/85/57
f  208/85/57 209/86/58 210/84/56
f  211/86/58 212/85/57 213/87/59
f  214/87/59 215/88/60 216/86/58
f  217/82/54 218/80/52 219/89/61
f  220/89/61 221/90/62 222/82/54
f  223/85/57 224/82/54 225/90/62
f  226/82/54 227/85/57 228/83/55
f  229/90/62 230/89/61 231/91/63
f  232/91/63 233/92/64 234/90/62
f  235/87/59 236/90/62 237/92/64
f  238/90/62 239/87/59 240/85/57
f  241/92/64 242/91/63 243/93/65
f  244/93/65 245/94/66 246/92/64
f  247/94/66 248/87/59 249/92/64
f  250/87/59 251/94/66 252/95/67
f  253/88/60 254/87/59 255/95/67
f  256/94/66 257/93/65 258/96/68
f  259/97/69 260/98/70 261/99/71
f  262/98/70 263/97/69 264/100/72
f  265/101/73 266/100/72 267/97/69
f  268/100/72 269/101/73 270/102/74
f  271/103/75 272/102/74 273/101/73
f  274/102/74 275/103/75 276/104/76
f  277/103/75 278/105/77 279/104/76
f  280/105/77 281/103/75 282/106/78
f  283/106/78 284/107/79 285/105/77
f  286/107/79 287/106/78 288/108/80
f  289/108/80 290/109/81 291/107/79
f  292/109/81 293/108/80 294/110/82
f  295/111/83 296/109/81 297/110/82
f  298/109/81 299/111/83 300/112/84
f  301/113/85 302/112/84 303/111/83
f  304/112/84 305/113/85 306/114/86
f  307/115/87 308/114/86 309/113/85
f  310/114/86 311/115/87 312/116/88
f  313/115/87 314/117/89 315/116/88
f  316/117/89 317/115/87 318/118/90
f  319/118/90 320/119/91 321/117/89
f  322/119/91 323/118/90 324/120/92
f  325/120/92 326/121/93 327/119/91
f  328/121/93 329/120/92 330/122/94
f  331/123/95 332/124/95 333/125/96
f  334/124/95 335/123/95 336/126/97
f  337/44/98 338/43/99 339/45/100
f  340/43/99 341/44/98 342/46/101
f  343/47/102 344/46/101 345/44/98
f  346/46/101 347/47/102 348/48/103
f  349/127/104 350/128/105 351/129/105
f  352/128/105 353/127/104 354/130/106
f  355/131/107 356/130/106 357/127/104
f  358/130/106 359/131/107 360/132/107
f  361/131/107 362/133/108 363/132/107
f  364/133/108 365/131/107 366/134/109
f  367/134/109 368/135/110 369/133/108
f  370/135/110 371/134/109 372/136/111
f  373/136/111 374/137/112 375/135/110
f  376/137/112 377/136/111 378/138/113
f  379/138/113 380/27/114 381/137/112
f  382/27/114 383/138/113 384/29/114
f  385/139/115 386/140/116 387/141/116
f  388/140/116 389/139/115 390/142/115
f  391/139/115 392/143/117 393/142/115
f  394/143/117 395/139/115 396/144/117
f  397/145/118 398/146/119 399/147/119
f  400/146/119 401/145/118 402/148/118
f  403/145/118 404/149/120 405/148/118
f  406/149/120 407/145/118 408/150/120
f  409/151/121 410/152/121 411/153/121
f  412/152/121 413/151/121 414/154/121
f  415/155/122 416/156/123 417/157/124
f  418/156/123 419/155/122 420/158/125
f  421/158/125 422/159/1 423/156/123
f  424/156/123 425/159/1 426/160/1
f  427/159/1 428/161/1 429/160/1
f  430/162/1 431/160/1 432/161/1
f  433/163/1 434/162/1 435/161/1
f  436/164/1 437/161/1 438/159/1
f  439/161/1 440/164/1 441/165/1
f  442/166/1 443/165/1 444/164/1
f  445/49/126 446/50/127 447/51/128
f  448/50/127 449/49/126 450/52/129
f  451/49/126 452/53/130 453/52/129
f  454/53/130 455/49/126 456/54/131
f  457/167/132 458/168/133 459/169/4
f  460/168/133 461/167/132 462/170/134
f  463/170/134 464/171/135 465/168/133
f  466/171/135 467/170/134 468/172/136
f  469/173/137 470/172/136 471/170/134
f  472/172/136 473/173/137 474/174/138
f  475/175/139 476/170/134 477/167/132
f  478/170/134 479/175/139 480/173/137
f  481/62/140 482/61/141 483/63/142
f  484/61/141 485/62/140 486/64/143
f  487/64/143 488/71/144 489/61/141
f  490/71/144 491/64/143 492/72/145
f  493/72/145 494/79/146 495/71/144
f  496/79/146 497/72/145 498/73/147
f  499/73/147 500/80/148 501/79/146
f  502/62/140 503/65/149 504/64/143
f  505/65/149 506/72/145 507/64/143
f  508/72/145 509/65/149 510/69/150
f  511/69/150 512/73/147 513/72/145
f  514/73/147 515/69/150 516/74/151
f  517/76/152 518/73/147 519/74/151
f  520/73/147 521/76/152 522/81/153
f  523/80/148 524/73/147 525/81/153
f  526/82/154 527/80/148 528/81/153
f  529/80/148 530/82/154 531/89/155
f  532/65/149 533/62/140 534/66/156
f  535/67/157 536/65/149 537/66/156
f  538/65/149 539/67/157 540/68/158
f  541/68/158 542/69/150 543/65/149
f  544/69/150 545/68/158 546/70/159
f  547/70/159 548/74/151 549/69/150
f  550/74/151 551/70/159 552/75/160
f  553/75/160 554/76/152 555/74/151
f  556/76/152 557/75/160 558/77/161
f  559/78/162 560/76/152 561/77/161
f  562/76/152 563/78/162 564/83/163
f  565/82/154 566/76/152 567/83/163
f  568/76/152 569/82/154 570/81/153
f  571/84/164 572/83/163 573/78/162
f  574/83/163 575/84/164 576/85/165
f  577/85/165 578/82/154 579/83/163
f  580/82/154 581/85/165 582/90/166
f  583/90/166 584/89/155 585/82/154
f  586/89/155 587/90/166 588/91/167
f  589/92/168 590/91/167 591/90/166
f  592/91/167 593/92/168 594/93/169
f  595/86/170 596/85/165 597/84/164
f  598/85/165 599/86/170 600/87/171
f  601/87/171 602/90/166 603/85/165
f  604/90/166 605/87/171 606/92/168
f  607/87/171 608/94/172 609/92/168
f  610/94/172 611/93/169 612/92/168
f  613/93/169 614/94/172 615/96/173
f  616/88/174 617/87/171 618/86/170
f  619/87/171 620/88/174 621/95/175
f  622/94/172 623/87/171 624/95/175
f  625/43/176 626/44/177 627/45/178
f  628/44/177 629/43/176 630/46/179
f  631/46/179 632/47/180 633/44/177
f  634/47/180 635/46/179 636/48/181
f  637/176/182 638/177/182 639/178/182
f  640/177/182 641/176/182 642/179/182
f  643/180/183 644/181/184 645/182/183
f  646/181/184 647/180/183 648/183/185
f  649/183/185 650/184/186 651/181/184
f  652/184/186 653/183/185 654/185/186
f  655/139/187 656/143/188 657/144/188
f  658/143/188 659/139/187 660/142/187
f  661/139/187 662/140/189 663/142/187
f  664/140/189 665/139/187 666/141/189
f  667/56/190 668/55/191 669/57/191
f  670/55/191 671/56/190 672/58/192
f  673/59/193 674/58/192 675/56/190
f  676/58/192 677/59/193 678/60/193
f  679/186/3 680/187/3 681/188/3
f  682/187/3 683/186/3 684/189/3
f  685/186/3 686/190/3 687/189/3
f  688/190/3 689/186/3 690/191/3
f  691/3/1 692/192/1 693/193/1
f  694/192/1 695/3/1 696/1/1
f  697/194/1 698/195/1 699/196/1
f  700/195/1 701/194/1 702/197/1
f  703/173/194 704/172/195 705/174/196
f  706/172/195 707/173/194 708/170/197
f  709/170/197 710/171/198 711/172/195
f  712/171/198 713/170/197 714/168/199
f  715/167/200 716/168/199 717/170/197
f  718/168/199 719/167/200 720/169/4
f  721/175/201 722/170/197 723/173/194
f  724/170/197 725/175/201 726/167/200
f  727/198/202 728/199/202 729/200/203
f  730/199/202 731/198/202 732/201/204
f  733/22/205 734/21/206 735/23/205
f  736/21/206 737/22/205 738/24/206
f  739/26/207 740/21/206 741/24/206
f  742/21/206 743/26/207 744/25/207
f  745/28/208 746/27/114 747/29/114
f  748/27/114 749/28/208 750/30/209
f  751/31/210 752/30/209 753/28/208
f  754/30/209 755/31/210 756/32/210
f  757/34/211 758/33/211 759/35/211
f  760/33/211 761/34/211 762/36/211
f  763/38/212 764/37/213 765/39/212
f  766/37/213 767/38/212 768/40/213
f  769/41/214 770/37/213 771/40/213
f  772/37/213 773/41/214 774/42/214
f  775/2/4 776/1/4 777/192/4
f  778/192/4 779/3/4 780/2/4
f  781/3/4 782/192/4 783/193/4
f  784/49/215 785/53/216 786/54/217
f  787/53/216 788/49/215 789/52/218
f  790/49/215 791/50/219 792/52/218
f  793/50/219 794/49/215 795/51/220
f  796/202/221 797/203/221 798/204/221
f  799/203/221 800/202/221 801/205/221
f  802/130/222 803/129/223 804/128/223
f  805/129/223 806/130/222 807/127/222
f  808/130/222 809/131/224 810/127/222
f  811/131/224 812/130/222 813/132/224
f  814/133/225 815/131/224 816/132/224
f  817/131/224 818/133/225 819/134/226
f  820/135/227 821/134/226 822/133/225
f  823/134/226 824/135/227 825/136/228
f  826/137/229 827/136/228 828/135/227
f  829/136/228 830/137/229 831/138/230
f  832/27/9 833/138/230 834/137/229
f  835/138/230 836/27/9 837/29/9
f  838/146/231 839/145/232 840/147/231
f  841/145/232 842/146/231 843/148/232
f  844/149/233 845/145/232 846/148/232
f  847/145/232 848/149/233 849/150/233
f  850/152/234 851/151/234 852/153/234
f  853/151/234 854/152/234 855/154/234
f  856/3/4 857/192/4 858/1/4
f  859/3/4 860/193/4 861/192/4
f  862/49/235 863/53/236 864/54/237
f  865/53/236 866/49/235 867/52/238
f  868/49/235 869/50/239 870/52/238
f  871/50/239 872/49/235 873/51/240
f  874/206/3 875/207/241 876/208/3
f  877/207/241 878/206/3 879/209/241
f  880/210/242 881/207/241 882/209/241
f  883/207/241 884/210/242 885/211/243
f  886/212/244 887/211/243 888/210/242
f  889/211/243 890/212/244 891/213/245
f  892/214/246 893/213/245 894/212/244
f  895/215/247 896/213/245 897/214/246
f  898/213/245 899/215/247 900/216/248
f  901/217/249 902/214/246 903/212/244
f  904/214/246 905/217/249 906/215/247
f  907/46/250 908/47/251 909/48/252
f  910/47/251 911/46/250 912/44/253
f  913/43/254 914/44/253 915/46/250
f  916/44/253 917/43/254 918/45/255
f  919/203/256 920/202/256 921/204/256
f  922/202/256 923/203/256 924/205/256
f  925/218/257 926/219/257 927/220/257
f  928/219/257 929/218/257 930/221/257
f  931/222/258 932/223/258 933/224/258
f  934/223/258 935/222/258 936/225/258
f  937/226/259 938/227/259 939/228/259
f  940/227/259 941/226/259 942/229/259
f  943/5/260 944/4/260 945/6/260
f  946/4/260 947/5/260 948/7/260
f  949/3/1 950/192/1 951/1/1
f  952/192/1 953/3/1 954/193/1
f  955/195/1 956/194/1 957/196/1
f  958/194/1 959/195/1 960/197/1
f  961/199/261 962/198/261 963/200/262
f  964/198/261 965/199/261 966/201/263
f  967/219/264 968/218/264 969/220/264
f  970/218/264 971/219/264 972/221/264
f  973/223/265 974/222/265 975/224/265
f  976/222/265 977/223/265 978/225/265
f  979/227/266 980/226/266 981/228/266
f  982/226/266 983/227/266 984/229/266
f  985/155/267 986/156/268 987/157/269
f  988/156/268 989/155/267 990/158/270
f  991/158/270 992/159/4 993/156/268
f  994/230/4 995/156/268 996/159/4
f  997/160/4 998/230/4 999/159/4
f  1000/159/4 1001/161/4 1002/160/4
f  1003/162/4 1004/160/4 1005/161/4
f  1006/163/4 1007/162/4 1008/161/4
f  1009/164/4 1010/161/4 1011/159/4
f  1012/161/4 1013/164/4 1014/165/4
f  1015/166/4 1016/165/4 1017/164/4
f  1018/156/271 1019/155/272 1020/157/273
f  1021/155/272 1022/156/271 1023/158/274
f  1024/159/1 1025/158/274 1026/156/271
f  1027/159/1 1028/156/271 1029/160/1
f  1030/161/1 1031/159/1 1032/160/1
f  1033/161/1 1034/164/1 1035/159/1
f  1036/164/1 1037/161/1 1038/165/1
f  1039/165/1 1040/166/1 1041/164/1
f  1042/160/1 1043/162/1 1044/161/1
f  1045/162/1 1046/163/1 1047/161/1
f  1048/177/275 1049/176/275 1050/178/275
f  1051/176/275 1052/177/275 1053/179/275
f  1054/156/276 1055/155/277 1056/157/278
f  1057/155/277 1058/156/276 1059/158/279
f  1060/159/4 1061/158/279 1062/156/276
f  1063/159/4 1064/156/276 1065/230/4
f  1066/230/4 1067/160/4 1068/159/4
f  1069/161/4 1070/159/4 1071/160/4
f  1072/161/4 1073/164/4 1074/159/4
f  1075/164/4 1076/161/4 1077/165/4
f  1078/165/4 1079/166/4 1080/164/4
f  1081/160/4 1082/162/4 1083/161/4
f  1084/162/4 1085/163/4 1086/161/4
f  1087/231/280 1088/232/281 1089/233/282
f  1090/233/282 1091/234/283 1092/231/280
f  1093/231/280 1094/234/283 1095/235/284
f  1096/234/283 1097/233/282 1098/236/282
f  1099/233/282 1100/237/282 1101/236/282
f  1102/124/285 1103/123/285 1104/125/286
f  1105/123/285 1106/124/285 1107/126/287
f  1108/238/288 1109/239/289 1110/240/290
f  1111/241/291 1112/238/288 1113/240/290
f  1114/241/291 1115/242/292 1116/238/288
f  1117/243/293 1118/242/292 1119/241/291
f  1120/242/292 1121/243/293 1122/244/294
f  1123/243/293 1124/245/295 1125/244/294
f  1126/245/295 1127/243/293 1128/246/296
f  1129/247/297 1130/245/295 1131/246/296
f  1132/241/291 1133/240/290 1134/243/293
f  1135/240/290 1136/248/298 1137/243/293
f  1138/248/298 1139/246/296 1140/243/293
f  1141/247/297 1142/246/296 1143/248/298
f  1144/249/299 1145/247/297 1146/248/298
f  1147/250/300 1148/251/301 1149/252/300
f  1150/253/300 1151/250/300 1152/252/300
f  1153/253/300 1154/254/300 1155/250/300
f  1156/253/300 1157/255/300 1158/254/300
f  1159/256/302 1160/257/302 1161/258/302
f  1162/256/302 1163/258/302 1164/259/302
f  1165/259/302 1166/260/302 1167/256/302
f  1168/234/303 1169/231/304 1170/235/305
f  1171/232/306 1172/231/304 1173/234/303
f  1174/234/303 1175/233/307 1176/232/306
f  1177/233/307 1178/234/303 1179/236/307
f  1180/237/307 1181/233/307 1182/236/307
f  1183/261/308 1184/262/308 1185/263/308
f  1186/262/308 1187/264/308 1188/263/308
f  1189/264/308 1190/262/308 1191/265/308
f  1192/266/3 1193/267/3 1194/268/3
f  1195/268/3 1196/269/3 1197/266/3
f  1198/269/3 1199/268/3 1200/270/3
f  1201/270/3 1202/271/3 1203/269/3
f  1204/271/3 1205/270/3 1206/272/3
f  1207/273/3 1208/271/3 1209/272/3
f  1210/271/3 1211/273/3 1212/274/3
f  1213/275/3 1214/274/3 1215/273/3
f  1216/274/3 1217/275/3 1218/276/3
f  1219/276/3 1220/275/3 1221/277/3
f  1222/251/309 1223/250/310 1224/252/310
f  1225/250/310 1226/253/310 1227/252/310
f  1228/254/310 1229/253/310 1230/250/310
f  1231/255/310 1232/253/310 1233/254/310
f  1234/257/311 1235/256/311 1236/258/311
f  1237/258/311 1238/256/311 1239/259/311
f  1240/260/311 1241/259/311 1242/256/311
f  1243/262/312 1244/261/312 1245/263/312
f  1246/264/312 1247/262/312 1248/263/312
f  1249/262/312 1250/264/312 1251/265/312
f  1252/278/313 1253/279/314 1254/280/315
f  1255/279/314 1256/278/313 1257/281/316
f  1258/279/314 1259/281/316 1260/282/317
f  1261/283/318 1262/282/317 1263/281/316
f  1264/282/317 1265/283/318 1266/284/319
f  1267/285/320 1268/284/319 1269/283/318
f  1270/284/319 1271/285/320 1272/286/321
f  1273/278/313 1274/280/315 1275/287/322
f  1276/288/323 1277/278/313 1278/287/322
f  1279/289/324 1280/278/313 1281/288/323
f  1282/290/325 1283/278/313 1284/289/324
f  1285/278/313 1286/290/325 1287/281/316
f  1288/291/326 1289/281/316 1290/290/325
f  1291/281/316 1292/291/326 1293/283/318
f  1294/291/326 1295/285/320 1296/283/318
f  1297/285/320 1298/291/326 1299/292/327
f  1300/292/327 1301/293/328 1302/285/320
f  1303/286/321 1304/285/320 1305/293/328
f  1306/286/321 1307/293/328 1308/294/329
f  1309/295/330 1310/289/324 1311/288/323
f  1312/295/330 1313/296/331 1314/289/324
f  1315/297/332 1316/289/324 1317/296/331
f  1318/289/324 1319/297/332 1320/290/325
f  1321/297/332 1322/291/326 1323/290/325
f  1324/291/326 1325/297/332 1326/298/333
f  1327/299/334 1328/291/326 1329/298/333
f  1330/291/326 1331/299/334 1332/292/327
f  1333/292/327 1334/299/334 1335/300/335
f  1336/293/328 1337/292/327 1338/300/335
f  1339/301/336 1340/293/328 1341/300/335
f  1342/293/328 1343/301/336 1344/294/329
f  1345/301/336 1346/302/337 1347/294/329
f  1348/303/338 1349/296/331 1350/295/330
f  1351/303/338 1352/297/332 1353/296/331
f  1354/297/332 1355/303/338 1356/304/339
f  1357/305/340 1358/297/332 1359/304/339
f  1360/297/332 1361/305/340 1362/298/333
f  1363/305/340 1364/299/334 1365/298/333
f  1366/299/334 1367/305/340 1368/306/341
f  1369/299/334 1370/306/341 1371/300/335
f  1372/303/338 1373/295/330 1374/307/342
f  1375/308/343 1376/303/338 1377/307/342
f  1378/308/343 1379/304/339 1380/303/338
f  1381/304/339 1382/308/343 1383/309/344
f  1384/309/344 1385/305/340 1386/304/339
f  1387/305/340 1388/309/344 1389/310/345
f  1390/311/346 1391/305/340 1392/310/345
f  1393/305/340 1394/311/346 1395/306/341
f  1396/312/347 1397/306/341 1398/311/346
f  1399/306/341 1400/312/347 1401/300/335
f  1402/313/348 1403/308/343 1404/307/342
f  1405/313/348 1406/314/349 1407/308/343
f  1408/315/350 1409/308/343 1410/314/349
f  1411/308/343 1412/315/350 1413/309/344
f  1414/309/344 1415/315/350 1416/316/351
f  1417/316/351 1418/310/345 1419/309/344
f  1420/310/345 1421/316/351 1422/317/352
f  1423/317/352 1424/311/346 1425/310/345
f  1426/311/346 1427/317/352 1428/318/353
f  1429/312/347 1430/311/346 1431/318/353
f  1432/312/347 1433/318/353 1434/319/354
f  1435/320/355 1436/312/347 1437/319/354
f  1438/312/347 1439/320/355 1440/300/335
f  1441/320/355 1442/321/356 1443/300/335
f  1444/321/356 1445/301/336 1446/300/335
f  1447/321/356 1448/302/337 1449/301/336
f  1450/302/337 1451/321/356 1452/322/357
f  1453/321/356 1454/323/358 1455/322/357
f  1456/323/358 1457/320/355 1458/319/354
f  1459/323/358 1460/321/356 1461/320/355

