# File produced by Open Asset Import Library (http://www.assimp.sf.net)
# (assimp v6.0.0)

mtllib ThrustCylinderB.mtl

# 1656 vertex positions
v 0.155901 0 1.96978199
v 0.150588006 0.0403500013 1.96978199
v 0.167325005 0.0448350012 1.92656004
v 0.150588006 0.0403500013 1.96978199
v 0.150019005 0.0866139978 1.92656004
v 0.167325005 0.0448350012 1.92656004
v 0.167325005 0.0448350012 1.92656004
v 0.150019005 0.0866139978 1.92656004
v 0.159260005 0.091949001 1.87966204
v 0.167325005 0.0448350012 1.92656004
v 0.159260005 0.091949001 1.87966204
v 0.177631006 0.0475960001 1.87966204
v 0.173226997 0 1.92656004
v 0.167325005 0.0448350012 1.92656004
v 0.177631006 0.0475960001 1.87966204
v 0.155901 0 1.96978199
v 0.167325005 0.0448350012 1.92656004
v 0.173226997 0 1.92656004
v 0.150588006 -0.0403500013 1.96978199
v 0.155901 0 1.96978199
v 0.173226997 0 1.92656004
v 0.150588006 -0.0403500013 1.96978199
v 0.173226997 0 1.92656004
v 0.167325005 -0.0448350012 1.92656004
v 0.135013998 -0.0779500008 1.96978199
v 0.150588006 -0.0403500013 1.96978199
v 0.167325005 -0.0448350012 1.92656004
v 0.150588006 0.0403500013 1.96978199
v 0.135013998 0.0779500008 1.96978199
v 0.150019005 0.0866139978 1.92656004
v 0.135013998 0.0779500008 1.96978199
v 0.122490004 0.122490004 1.92656004
v 0.150019005 0.0866139978 1.92656004
v 0.150019005 0.0866139978 1.92656004
v 0.122490004 0.122490004 1.92656004
v 0.130034998 0.130034998 1.87966204
v 0.150019005 0.0866139978 1.92656004
v 0.130034998 0.130034998 1.87966204
v 0.159260005 0.091949001 1.87966204
v 0.159260005 0.091949001 1.87966204
v 0.130034998 0.130034998 1.87966204
v 0.132583007 0.132581994 1.83088899
v 0.159260005 0.091949001 1.87966204
v 0.132583007 0.132581994 1.83088899
v 0.162379995 0.09375 1.83088899
v 0.177631006 0.0475960001 1.87966204
v 0.159260005 0.091949001 1.87966204
v 0.162379995 0.09375 1.83088899
v 0.177631006 0.0475960001 1.87966204
v 0.162379995 0.09375 1.83088899
v 0.181110993 0.0485289991 1.83088899
v 0.183897004 0 1.87966204
v 0.177631006 0.0475960001 1.87966204
v 0.181110993 0.0485289991 1.83088899
v 0.173226997 0 1.92656004
v 0.177631006 0.0475960001 1.87966204
v 0.183897004 0 1.87966204
v 0.167325005 -0.0448350012 1.92656004
v 0.173226997 0 1.92656004
v 0.183897004 0 1.87966204
v 0.135013998 0.0779500008 1.96978199
v 0.110238001 0.110238001 1.96978199
v 0.122490004 0.122490004 1.92656004
v 0.110238001 0.110238001 1.96978199
v 0.0866139978 0.150019005 1.92656004
v 0.122490004 0.122490004 1.92656004
v 0.122490004 0.122490004 1.92656004
v 0.0866139978 0.150019005 1.92656004
v 0.091949001 0.159260005 1.87966204
v 0.122490004 0.122490004 1.92656004
v 0.091949001 0.159260005 1.87966204
v 0.130034998 0.130034998 1.87966204
v 0.130034998 0.130034998 1.87966204
v 0.091949001 0.159260005 1.87966204
v 0.09375 0.162379995 1.83088899
v 0.130034998 0.130034998 1.87966204
v 0.09375 0.162379995 1.83088899
v 0.132583007 0.132581994 1.83088899
v 0.132583007 0.132581994 1.83088899
v 0.09375 0.162379995 1.83088899
v 0.125 0.216506004 0.25
v 0.132583007 0.132581994 1.83088899
v 0.125 0.216506004 0.25
v 0.176777005 0.176777005 0.25
v 0.162379995 0.09375 1.83088899
v 0.132583007 0.132581994 1.83088899
v 0.176777005 0.176777005 0.25
v 0.162379995 0.09375 1.83088899
v 0.176777005 0.176777005 0.25
v 0.216506004 0.125 0.25
v 0.181110993 0.0485289991 1.83088899
v 0.162379995 0.09375 1.83088899
v 0.216506004 0.125 0.25
v 0.110238001 0.110238001 1.96978199
v 0.0779500008 0.135013998 1.96978199
v 0.0866139978 0.150019005 1.92656004
v 0.0779500008 0.135013998 1.96978199
v 0.0448350012 0.167325005 1.92656004
v 0.0866139978 0.150019005 1.92656004
v 0.0866139978 0.150019005 1.92656004
v 0.0448350012 0.167325005 1.92656004
v 0.0475960001 0.177631006 1.87966204
v 0.0866139978 0.150019005 1.92656004
v 0.0475960001 0.177631006 1.87966204
v 0.091949001 0.159260005 1.87966204
v 0.091949001 0.159260005 1.87966204
v 0.0475960001 0.177631006 1.87966204
v 0.0485289991 0.181110993 1.83088899
v 0.091949001 0.159260005 1.87966204
v 0.0485289991 0.181110993 1.83088899
v 0.09375 0.162379995 1.83088899
v 0.09375 0.162379995 1.83088899
v 0.0485289991 0.181110993 1.83088899
v 0.0647049993 0.241481006 0.25
v 0.09375 0.162379995 1.83088899
v 0.0647049993 0.241481006 0.25
v 0.125 0.216506004 0.25
v 0.125 0.216506004 0.25
v 0.0647049993 0.241481006 0.25
v 0.0634609982 0.236840993 0.201226994
v 0.125 0.216506004 0.25
v 0.0634609982 0.236840993 0.201226994
v 0.122598 0.212346002 0.201226994
v 0.176777005 0.176777005 0.25
v 0.125 0.216506004 0.25
v 0.122598 0.212346002 0.201226994
v 0.0779500008 0.135013998 1.96978199
v 0.0403500013 0.150588006 1.96978199
v 0.0448350012 0.167325005 1.92656004
v 0.0403500013 0.150588006 1.96978199
v 0 0.173226997 1.92656004
v 0.0448350012 0.167325005 1.92656004
v 0.0448350012 0.167325005 1.92656004
v 0 0.173226997 1.92656004
v 0 0.183897004 1.87966204
v 0.0448350012 0.167325005 1.92656004
v 0 0.183897004 1.87966204
v 0.0475960001 0.177631006 1.87966204
v 0.0475960001 0.177631006 1.87966204
v 0 0.183897004 1.87966204
v 0 0.1875 1.83088899
v 0.0475960001 0.177631006 1.87966204
v 0 0.1875 1.83088899
v 0.0485289991 0.181110993 1.83088899
v 0.0485289991 0.181110993 1.83088899
v 0 0.1875 1.83088899
v 0 0.25 0.25
v 0.0485289991 0.181110993 1.83088899
v 0 0.25 0.25
v 0.0647049993 0.241481006 0.25
v 0.0647049993 0.241481006 0.25
v 0 0.25 0.25
v 0 0.245196 0.201226994
v 0.0647049993 0.241481006 0.25
v 0 0.245196 0.201226994
v 0.0634609982 0.236840993 0.201226994
v 0.0403500013 0.150588006 1.96978199
v 0 0.155901 1.96978199
v 0 0.173226997 1.92656004
v 0 0.155901 1.96978199
v -0.0448350012 0.167325005 1.92656004
v 0 0.173226997 1.92656004
v 0 0.173226997 1.92656004
v -0.0448350012 0.167325005 1.92656004
v -0.0475960001 0.177631006 1.87966204
v 0 0.173226997 1.92656004
v -0.0475960001 0.177631006 1.87966204
v 0 0.183897004 1.87966204
v 0 0.183897004 1.87966204
v -0.0475960001 0.177631006 1.87966204
v -0.0485289991 0.181110993 1.83088899
v 0 0.183897004 1.87966204
v -0.0485289991 0.181110993 1.83088899
v 0 0.1875 1.83088899
v 0 0.1875 1.83088899
v -0.0485289991 0.181110993 1.83088899
v -0.0647049993 0.241481006 0.25
v 0 0.1875 1.83088899
v -0.0647049993 0.241481006 0.25
v 0 0.25 0.25
v 0 0.25 0.25
v -0.0647049993 0.241481006 0.25
v -0.0634609982 0.236840993 0.201226994
v 0 0.25 0.25
v -0.0634609982 0.236840993 0.201226994
v 0 0.245196 0.201226994
v 0 0.155901 1.96978199
v -0.0403500013 0.150588006 1.96978199
v -0.0448350012 0.167325005 1.92656004
v -0.0403500013 0.150588006 1.96978199
v -0.0866139978 0.150019005 1.92656004
v -0.0448350012 0.167325005 1.92656004
v -0.0448350012 0.167325005 1.92656004
v -0.0866139978 0.150019005 1.92656004
v -0.091949001 0.159260005 1.87966204
v -0.0448350012 0.167325005 1.92656004
v -0.091949001 0.159260005 1.87966204
v -0.0475960001 0.177631006 1.87966204
v -0.0475960001 0.177631006 1.87966204
v -0.091949001 0.159260005 1.87966204
v -0.09375 0.162379995 1.83088899
v -0.0475960001 0.177631006 1.87966204
v -0.09375 0.162379995 1.83088899
v -0.0485289991 0.181110993 1.83088899
v -0.0485289991 0.181110993 1.83088899
v -0.09375 0.162379995 1.83088899
v -0.125 0.216506004 0.25
v -0.0485289991 0.181110993 1.83088899
v -0.125 0.216506004 0.25
v -0.0647049993 0.241481006 0.25
v -0.0647049993 0.241481006 0.25
v -0.125 0.216506004 0.25
v -0.122598 0.212346002 0.201226994
v -0.0647049993 0.241481006 0.25
v -0.122598 0.212346002 0.201226994
v -0.0634609982 0.236840993 0.201226994
v -0.0403500013 0.150588006 1.96978199
v -0.0779500008 0.135013998 1.96978199
v -0.0866139978 0.150019005 1.92656004
v -0.0779500008 0.135013998 1.96978199
v -0.122490004 0.122490004 1.92656004
v -0.0866139978 0.150019005 1.92656004
v -0.0866139978 0.150019005 1.92656004
v -0.122490004 0.122490004 1.92656004
v -0.130034998 0.130034998 1.87966204
v -0.0866139978 0.150019005 1.92656004
v -0.130034998 0.130034998 1.87966204
v -0.091949001 0.159260005 1.87966204
v -0.091949001 0.159260005 1.87966204
v -0.130034998 0.130034998 1.87966204
v -0.132583007 0.132583007 1.83088899
v -0.091949001 0.159260005 1.87966204
v -0.132583007 0.132583007 1.83088899
v -0.09375 0.162379995 1.83088899
v -0.09375 0.162379995 1.83088899
v -0.132583007 0.132583007 1.83088899
v -0.176777005 0.176777005 0.25
v -0.09375 0.162379995 1.83088899
v -0.176777005 0.176777005 0.25
v -0.125 0.216506004 0.25
v -0.125 0.216506004 0.25
v -0.176777005 0.176777005 0.25
v -0.173380002 0.173380002 0.201226994
v -0.125 0.216506004 0.25
v -0.173380002 0.173380002 0.201226994
v -0.122598 0.212346002 0.201226994
v -0.0779500008 0.135013998 1.96978199
v -0.110238001 0.110238001 1.96978199
v -0.122490004 0.122490004 1.92656004
v -0.110238001 0.110238001 1.96978199
v -0.150019005 0.0866139978 1.92656004
v -0.122490004 0.122490004 1.92656004
v -0.122490004 0.122490004 1.92656004
v -0.150019005 0.0866139978 1.92656004
v -0.159260005 0.091949001 1.87966204
v -0.122490004 0.122490004 1.92656004
v -0.159260005 0.091949001 1.87966204
v -0.130034998 0.130034998 1.87966204
v -0.130034998 0.130034998 1.87966204
v -0.159260005 0.091949001 1.87966204
v -0.162379995 0.09375 1.83088899
v -0.130034998 0.130034998 1.87966204
v -0.162379995 0.09375 1.83088899
v -0.132583007 0.132583007 1.83088899
v -0.132583007 0.132583007 1.83088899
v -0.162379995 0.09375 1.83088899
v -0.216506004 0.125 0.25
v -0.132583007 0.132583007 1.83088899
v -0.216506004 0.125 0.25
v -0.176777005 0.176777005 0.25
v -0.176777005 0.176777005 0.25
v -0.216506004 0.125 0.25
v -0.212346002 0.122598 0.201226994
v -0.176777005 0.176777005 0.25
v -0.212346002 0.122598 0.201226994
v -0.173380002 0.173380002 0.201226994
v -0.110238001 0.110238001 1.96978199
v -0.135013998 0.0779500008 1.96978199
v -0.150019005 0.0866139978 1.92656004
v -0.135013998 0.0779500008 1.96978199
v -0.167325005 0.0448350012 1.92656004
v -0.150019005 0.0866139978 1.92656004
v -0.150019005 0.0866139978 1.92656004
v -0.167325005 0.0448350012 1.92656004
v -0.177631006 0.0475960001 1.87966204
v -0.150019005 0.0866139978 1.92656004
v -0.177631006 0.0475960001 1.87966204
v -0.159260005 0.091949001 1.87966204
v -0.159260005 0.091949001 1.87966204
v -0.177631006 0.0475960001 1.87966204
v -0.181110993 0.0485289991 1.83088899
v -0.159260005 0.091949001 1.87966204
v -0.181110993 0.0485289991 1.83088899
v -0.162379995 0.09375 1.83088899
v -0.162379995 0.09375 1.83088899
v -0.181110993 0.0485289991 1.83088899
v -0.241481006 0.0647049993 0.25
v -0.162379995 0.09375 1.83088899
v -0.241481006 0.0647049993 0.25
v -0.216506004 0.125 0.25
v -0.216506004 0.125 0.25
v -0.241481006 0.0647049993 0.25
v -0.236840993 0.0634609982 0.201226994
v -0.216506004 0.125 0.25
v -0.236840993 0.0634609982 0.201226994
v -0.212346002 0.122598 0.201226994
v -0.135013998 0.0779500008 1.96978199
v -0.150588006 0.0403500013 1.96978199
v -0.167325005 0.0448350012 1.92656004
v -0.150588006 0.0403500013 1.96978199
v -0.173226997 0 1.92656004
v -0.167325005 0.0448350012 1.92656004
v -0.167325005 0.0448350012 1.92656004
v -0.173226997 0 1.92656004
v -0.183897004 0 1.87966204
v -0.167325005 0.0448350012 1.92656004
v -0.183897004 0 1.87966204
v -0.177631006 0.0475960001 1.87966204
v -0.177631006 0.0475960001 1.87966204
v -0.183897004 0 1.87966204
v -0.1875 0 1.83088899
v -0.177631006 0.0475960001 1.87966204
v -0.1875 0 1.83088899
v -0.181110993 0.0485289991 1.83088899
v -0.181110993 0.0485289991 1.83088899
v -0.1875 0 1.83088899
v -0.25 0 0.25
v -0.181110993 0.0485289991 1.83088899
v -0.25 0 0.25
v -0.241481006 0.0647049993 0.25
v -0.241481006 0.0647049993 0.25
v -0.25 0 0.25
v -0.245196 0 0.201226994
v -0.241481006 0.0647049993 0.25
v -0.245196 0 0.201226994
v -0.236840993 0.0634609982 0.201226994
v -0.150588006 0.0403500013 1.96978199
v -0.155901 0 1.96978199
v -0.173226997 0 1.92656004
v -0.155901 0 1.96978199
v -0.167325005 -0.0448350012 1.92656004
v -0.173226997 0 1.92656004
v -0.173226997 0 1.92656004
v -0.167325005 -0.0448350012 1.92656004
v -0.177631006 -0.0475960001 1.87966204
v -0.173226997 0 1.92656004
v -0.177631006 -0.0475960001 1.87966204
v -0.183897004 0 1.87966204
v -0.183897004 0 1.87966204
v -0.177631006 -0.0475960001 1.87966204
v -0.181110993 -0.0485289991 1.83088899
v -0.183897004 0 1.87966204
v -0.181110993 -0.0485289991 1.83088899
v -0.1875 0 1.83088899
v -0.1875 0 1.83088899
v -0.181110993 -0.0485289991 1.83088899
v -0.241481006 -0.0647049993 0.25
v -0.1875 0 1.83088899
v -0.241481006 -0.0647049993 0.25
v -0.25 0 0.25
v -0.25 0 0.25
v -0.241481006 -0.0647049993 0.25
v -0.236840993 -0.0634609982 0.201226994
v -0.25 0 0.25
v -0.236840993 -0.0634609982 0.201226994
v -0.245196 0 0.201226994
v -0.155901 0 1.96978199
v -0.150588006 -0.0403500013 1.96978199
v -0.167325005 -0.0448350012 1.92656004
v -0.150588006 -0.0403500013 1.96978199
v -0.150019005 -0.0866139978 1.92656004
v -0.167325005 -0.0448350012 1.92656004
v -0.167325005 -0.0448350012 1.92656004
v -0.150019005 -0.0866139978 1.92656004
v -0.159260005 -0.091949001 1.87966204
v -0.167325005 -0.0448350012 1.92656004
v -0.159260005 -0.091949001 1.87966204
v -0.177631006 -0.0475960001 1.87966204
v -0.177631006 -0.0475960001 1.87966204
v -0.159260005 -0.091949001 1.87966204
v -0.162379995 -0.09375 1.83088899
v -0.177631006 -0.0475960001 1.87966204
v -0.162379995 -0.09375 1.83088899
v -0.181110993 -0.0485289991 1.83088899
v -0.181110993 -0.0485289991 1.83088899
v -0.162379995 -0.09375 1.83088899
v -0.216506004 -0.125 0.25
v -0.181110993 -0.0485289991 1.83088899
v -0.216506004 -0.125 0.25
v -0.241481006 -0.0647049993 0.25
v -0.241481006 -0.0647049993 0.25
v -0.216506004 -0.125 0.25
v -0.212346002 -0.122598 0.201226994
v -0.241481006 -0.0647049993 0.25
v -0.212346002 -0.122598 0.201226994
v -0.236840993 -0.0634609982 0.201226994
v -0.150588006 -0.0403500013 1.96978199
v -0.135013998 -0.0779500008 1.96978199
v -0.150019005 -0.0866139978 1.92656004
v -0.135013998 -0.0779500008 1.96978199
v -0.122490004 -0.122490004 1.92656004
v -0.150019005 -0.0866139978 1.92656004
v -0.150019005 -0.0866139978 1.92656004
v -0.122490004 -0.122490004 1.92656004
v -0.130034998 -0.130034998 1.87966204
v -0.150019005 -0.0866139978 1.92656004
v -0.130034998 -0.130034998 1.87966204
v -0.159260005 -0.091949001 1.87966204
v -0.159260005 -0.091949001 1.87966204
v -0.130034998 -0.130034998 1.87966204
v -0.132583007 -0.132583007 1.83088899
v -0.159260005 -0.091949001 1.87966204
v -0.132583007 -0.132583007 1.83088899
v -0.162379995 -0.09375 1.83088899
v -0.162379995 -0.09375 1.83088899
v -0.132583007 -0.132583007 1.83088899
v -0.176777005 -0.176777005 0.25
v -0.162379995 -0.09375 1.83088899
v -0.176777005 -0.176777005 0.25
v -0.216506004 -0.125 0.25
v -0.216506004 -0.125 0.25
v -0.176777005 -0.176777005 0.25
v -0.173380002 -0.173380002 0.201226994
v -0.216506004 -0.125 0.25
v -0.173380002 -0.173380002 0.201226994
v -0.212346002 -0.122598 0.201226994
v -0.135013998 -0.0779500008 1.96978199
v -0.110238001 -0.110238001 1.96978199
v -0.122490004 -0.122490004 1.92656004
v -0.110238001 -0.110238001 1.96978199
v -0.0866139978 -0.150019005 1.92656004
v -0.122490004 -0.122490004 1.92656004
v -0.122490004 -0.122490004 1.92656004
v -0.0866139978 -0.150019005 1.92656004
v -0.091949001 -0.159260005 1.87966204
v -0.122490004 -0.122490004 1.92656004
v -0.091949001 -0.159260005 1.87966204
v -0.130034998 -0.130034998 1.87966204
v -0.130034998 -0.130034998 1.87966204
v -0.091949001 -0.159260005 1.87966204
v -0.09375 -0.162379995 1.83088899
v -0.130034998 -0.130034998 1.87966204
v -0.09375 -0.162379995 1.83088899
v -0.132583007 -0.132583007 1.83088899
v -0.132583007 -0.132583007 1.83088899
v -0.09375 -0.162379995 1.83088899
v -0.125 -0.216506004 0.25
v -0.132583007 -0.132583007 1.83088899
v -0.125 -0.216506004 0.25
v -0.176777005 -0.176777005 0.25
v -0.176777005 -0.176777005 0.25
v -0.125 -0.216506004 0.25
v -0.122598 -0.212346002 0.201226994
v -0.176777005 -0.176777005 0.25
v -0.122598 -0.212346002 0.201226994
v -0.173380002 -0.173380002 0.201226994
v -0.110238001 -0.110238001 1.96978199
v -0.0779500008 -0.135013998 1.96978199
v -0.0866139978 -0.150019005 1.92656004
v -0.0779500008 -0.135013998 1.96978199
v -0.0448350012 -0.167325005 1.92656004
v -0.0866139978 -0.150019005 1.92656004
v -0.0866139978 -0.150019005 1.92656004
v -0.0448350012 -0.167325005 1.92656004
v -0.0475960001 -0.177631006 1.87966204
v -0.0866139978 -0.150019005 1.92656004
v -0.0475960001 -0.177631006 1.87966204
v -0.091949001 -0.159260005 1.87966204
v -0.091949001 -0.159260005 1.87966204
v -0.0475960001 -0.177631006 1.87966204
v -0.0485289991 -0.181110993 1.83088899
v -0.091949001 -0.159260005 1.87966204
v -0.0485289991 -0.181110993 1.83088899
v -0.09375 -0.162379995 1.83088899
v -0.09375 -0.162379995 1.83088899
v -0.0485289991 -0.181110993 1.83088899
v -0.0647049993 -0.241481006 0.25
v -0.09375 -0.162379995 1.83088899
v -0.0647049993 -0.241481006 0.25
v -0.125 -0.216506004 0.25
v -0.125 -0.216506004 0.25
v -0.0647049993 -0.241481006 0.25
v -0.0634609982 -0.236840993 0.201226994
v -0.125 -0.216506004 0.25
v -0.0634609982 -0.236840993 0.201226994
v -0.122598 -0.212346002 0.201226994
v -0.0779500008 -0.135013998 1.96978199
v -0.0403500013 -0.150588006 1.96978199
v -0.0448350012 -0.167325005 1.92656004
v -0.0403500013 -0.150588006 1.96978199
v 0 -0.173226997 1.92656004
v -0.0448350012 -0.167325005 1.92656004
v -0.0448350012 -0.167325005 1.92656004
v 0 -0.173226997 1.92656004
v 0 -0.183897004 1.87966204
v -0.0448350012 -0.167325005 1.92656004
v 0 -0.183897004 1.87966204
v -0.0475960001 -0.177631006 1.87966204
v -0.0475960001 -0.177631006 1.87966204
v 0 -0.183897004 1.87966204
v 0 -0.1875 1.83088899
v -0.0475960001 -0.177631006 1.87966204
v 0 -0.1875 1.83088899
v -0.0485289991 -0.181110993 1.83088899
v -0.0485289991 -0.181110993 1.83088899
v 0 -0.1875 1.83088899
v 0 -0.25 0.25
v -0.0485289991 -0.181110993 1.83088899
v 0 -0.25 0.25
v -0.0647049993 -0.241481006 0.25
v -0.0647049993 -0.241481006 0.25
v 0 -0.25 0.25
v 0 -0.245196 0.201226994
v -0.0647049993 -0.241481006 0.25
v 0 -0.245196 0.201226994
v -0.0634609982 -0.236840993 0.201226994
v -0.0403500013 -0.150588006 1.96978199
v 0 -0.155901 1.96978199
v 0 -0.173226997 1.92656004
v 0 -0.155901 1.96978199
v 0.0448350012 -0.167325005 1.92656004
v 0 -0.173226997 1.92656004
v 0 -0.173226997 1.92656004
v 0.0448350012 -0.167325005 1.92656004
v 0.0475960001 -0.177631006 1.87966204
v 0 -0.173226997 1.92656004
v 0.0475960001 -0.177631006 1.87966204
v 0 -0.183897004 1.87966204
v 0 -0.183897004 1.87966204
v 0.0475960001 -0.177631006 1.87966204
v 0.0485289991 -0.181110993 1.83088899
v 0 -0.183897004 1.87966204
v 0.0485289991 -0.181110993 1.83088899
v 0 -0.1875 1.83088899
v 0 -0.1875 1.83088899
v 0.0485289991 -0.181110993 1.83088899
v 0.0647049993 -0.241481006 0.25
v 0 -0.1875 1.83088899
v 0.0647049993 -0.241481006 0.25
v 0 -0.25 0.25
v 0 -0.25 0.25
v 0.0647049993 -0.241481006 0.25
v 0.0634609982 -0.236840993 0.201226994
v 0 -0.25 0.25
v 0.0634609982 -0.236840993 0.201226994
v 0 -0.245196 0.201226994
v 0 -0.155901 1.96978199
v 0.0403500013 -0.150588006 1.96978199
v 0.0448350012 -0.167325005 1.92656004
v 0.0403500013 -0.150588006 1.96978199
v 0.0866139978 -0.150019005 1.92656004
v 0.0448350012 -0.167325005 1.92656004
v 0.0448350012 -0.167325005 1.92656004
v 0.0866139978 -0.150019005 1.92656004
v 0.091949001 -0.159260005 1.87966204
v 0.0448350012 -0.167325005 1.92656004
v 0.091949001 -0.159260005 1.87966204
v 0.0475960001 -0.177631006 1.87966204
v 0.0475960001 -0.177631006 1.87966204
v 0.091949001 -0.159260005 1.87966204
v 0.09375 -0.162379995 1.83088899
v 0.0475960001 -0.177631006 1.87966204
v 0.09375 -0.162379995 1.83088899
v 0.0485289991 -0.181110993 1.83088899
v 0.0485289991 -0.181110993 1.83088899
v 0.09375 -0.162379995 1.83088899
v 0.125 -0.216506004 0.25
v 0.0485289991 -0.181110993 1.83088899
v 0.125 -0.216506004 0.25
v 0.0647049993 -0.241481006 0.25
v 0.0647049993 -0.241481006 0.25
v 0.125 -0.216506004 0.25
v 0.122598 -0.212346002 0.201226994
v 0.0647049993 -0.241481006 0.25
v 0.122598 -0.212346002 0.201226994
v 0.0634609982 -0.236840993 0.201226994
v 0.0403500013 -0.150588006 1.96978199
v 0.0779500008 -0.135013998 1.96978199
v 0.0866139978 -0.150019005 1.92656004
v 0.0779500008 -0.135013998 1.96978199
v 0.122490004 -0.122490004 1.92656004
v 0.0866139978 -0.150019005 1.92656004
v 0.0866139978 -0.150019005 1.92656004
v 0.122490004 -0.122490004 1.92656004
v 0.130034998 -0.130034998 1.87966204
v 0.0866139978 -0.150019005 1.92656004
v 0.130034998 -0.130034998 1.87966204
v 0.091949001 -0.159260005 1.87966204
v 0.091949001 -0.159260005 1.87966204
v 0.130034998 -0.130034998 1.87966204
v 0.132583007 -0.132583007 1.83088899
v 0.091949001 -0.159260005 1.87966204
v 0.132583007 -0.132583007 1.83088899
v 0.09375 -0.162379995 1.83088899
v 0.09375 -0.162379995 1.83088899
v 0.132583007 -0.132583007 1.83088899
v 0.176777005 -0.176777005 0.25
v 0.09375 -0.162379995 1.83088899
v 0.176777005 -0.176777005 0.25
v 0.125 -0.216506004 0.25
v 0.125 -0.216506004 0.25
v 0.176777005 -0.176777005 0.25
v 0.173380002 -0.173380002 0.201226994
v 0.125 -0.216506004 0.25
v 0.173380002 -0.173380002 0.201226994
v 0.122598 -0.212346002 0.201226994
v 0.0779500008 -0.135013998 1.96978199
v 0.110238001 -0.110238001 1.96978199
v 0.122490004 -0.122490004 1.92656004
v 0.110238001 -0.110238001 1.96978199
v 0.150019005 -0.0866139978 1.92656004
v 0.122490004 -0.122490004 1.92656004
v 0.122490004 -0.122490004 1.92656004
v 0.150019005 -0.0866139978 1.92656004
v 0.159260005 -0.091949001 1.87966204
v 0.122490004 -0.122490004 1.92656004
v 0.159260005 -0.091949001 1.87966204
v 0.130034998 -0.130034998 1.87966204
v 0.130034998 -0.130034998 1.87966204
v 0.159260005 -0.091949001 1.87966204
v 0.162379995 -0.09375 1.83088899
v 0.130034998 -0.130034998 1.87966204
v 0.162379995 -0.09375 1.83088899
v 0.132583007 -0.132583007 1.83088899
v 0.132583007 -0.132583007 1.83088899
v 0.162379995 -0.09375 1.83088899
v 0.216506004 -0.125 0.25
v 0.132583007 -0.132583007 1.83088899
v 0.216506004 -0.125 0.25
v 0.176777005 -0.176777005 0.25
v 0.176777005 -0.176777005 0.25
v 0.216506004 -0.125 0.25
v 0.212346002 -0.122598 0.201226994
v 0.176777005 -0.176777005 0.25
v 0.212346002 -0.122598 0.201226994
v 0.173380002 -0.173380002 0.201226994
v 0.110238001 -0.110238001 1.96978199
v 0.135013998 -0.0779500008 1.96978199
v 0.150019005 -0.0866139978 1.92656004
v 0.135013998 -0.0779500008 1.96978199
v 0.167325005 -0.0448350012 1.92656004
v 0.150019005 -0.0866139978 1.92656004
v 0.150019005 -0.0866139978 1.92656004
v 0.167325005 -0.0448350012 1.92656004
v 0.177631006 -0.0475960001 1.87966204
v 0.150019005 -0.0866139978 1.92656004
v 0.177631006 -0.0475960001 1.87966204
v 0.159260005 -0.091949001 1.87966204
v 0.159260005 -0.091949001 1.87966204
v 0.177631006 -0.0475960001 1.87966204
v 0.181110993 -0.0485289991 1.83088899
v 0.159260005 -0.091949001 1.87966204
v 0.181110993 -0.0485289991 1.83088899
v 0.162379995 -0.09375 1.83088899
v 0.162379995 -0.09375 1.83088899
v 0.181110993 -0.0485289991 1.83088899
v 0.241481006 -0.0647049993 0.25
v 0.162379995 -0.09375 1.83088899
v 0.241481006 -0.0647049993 0.25
v 0.216506004 -0.125 0.25
v 0.216506004 -0.125 0.25
v 0.241481006 -0.0647049993 0.25
v 0.236840993 -0.0634609982 0.201226994
v 0.216506004 -0.125 0.25
v 0.236840993 -0.0634609982 0.201226994
v 0.212346002 -0.122598 0.201226994
v 0.212346002 -0.122598 0.201226994
v 0.236840993 -0.0634609982 0.201226994
v 0.223100007 -0.0597789995 0.154329002
v 0.212346002 -0.122598 0.201226994
v 0.223100007 -0.0597789995 0.154329002
v 0.200026006 -0.115484998 0.154329002
v 0.173380002 -0.173380002 0.201226994
v 0.212346002 -0.122598 0.201226994
v 0.200026006 -0.115484998 0.154329002
v 0.167325005 -0.0448350012 1.92656004
v 0.183897004 0 1.87966204
v 0.177631006 -0.0475960001 1.87966204
v 0.177631006 -0.0475960001 1.87966204
v 0.183897004 0 1.87966204
v 0.1875 0 1.83088899
v 0.177631006 -0.0475960001 1.87966204
v 0.1875 0 1.83088899
v 0.181110993 -0.0485289991 1.83088899
v 0.181110993 -0.0485289991 1.83088899
v 0.1875 0 1.83088899
v 0.25 0 0.25
v 0.181110993 -0.0485289991 1.83088899
v 0.25 0 0.25
v 0.241481006 -0.0647049993 0.25
v 0.241481006 -0.0647049993 0.25
v 0.25 0 0.25
v 0.245196 0 0.201226994
v 0.241481006 -0.0647049993 0.25
v 0.245196 0 0.201226994
v 0.236840993 -0.0634609982 0.201226994
v 0.236840993 -0.0634609982 0.201226994
v 0.245196 0 0.201226994
v 0.230969995 0 0.154329002
v 0.236840993 -0.0634609982 0.201226994
v 0.230969995 0 0.154329002
v 0.223100007 -0.0597789995 0.154329002
v 0.223100007 -0.0597789995 0.154329002
v 0.230969995 0 0.154329002
v 0.207866997 0 0.111106999
v 0.223100007 -0.0597789995 0.154329002
v 0.207866997 0 0.111106999
v 0.200783998 -0.0538000017 0.111106999
v 0.200026006 -0.115484998 0.154329002
v 0.223100007 -0.0597789995 0.154329002
v 0.200783998 -0.0538000017 0.111106999
v 0.183897004 0 1.87966204
v 0.181110993 0.0485289991 1.83088899
v 0.1875 0 1.83088899
v 0.1875 0 1.83088899
v 0.181110993 0.0485289991 1.83088899
v 0.241481006 0.0647049993 0.25
v 0.1875 0 1.83088899
v 0.241481006 0.0647049993 0.25
v 0.25 0 0.25
v 0.25 0 0.25
v 0.241481006 0.0647049993 0.25
v 0.236840993 0.0634609982 0.201226994
v 0.25 0 0.25
v 0.236840993 0.0634609982 0.201226994
v 0.245196 0 0.201226994
v 0.245196 0 0.201226994
v 0.236840993 0.0634609982 0.201226994
v 0.223100007 0.0597789995 0.154329002
v 0.245196 0 0.201226994
v 0.223100007 0.0597789995 0.154329002
v 0.230969995 0 0.154329002
v 0.230969995 0 0.154329002
v 0.223100007 0.0597789995 0.154329002
v 0.200783998 0.0538000017 0.111106999
v 0.230969995 0 0.154329002
v 0.200783998 0.0538000017 0.111106999
v 0.207866997 0 0.111106999
v 0.207866997 0 0.111106999
v 0.200783998 0.0538000017 0.111106999
v 0.170753002 0.0457529984 0.0732230023
v 0.207866997 0 0.111106999
v 0.170753002 0.0457529984 0.0732230023
v 0.176777005 0 0.0732230023
v 0.200783998 -0.0538000017 0.111106999
v 0.207866997 0 0.111106999
v 0.176777005 0 0.0732230023
v 0.181110993 0.0485289991 1.83088899
v 0.216506004 0.125 0.25
v 0.241481006 0.0647049993 0.25
v 0.241481006 0.0647049993 0.25
v 0.216506004 0.125 0.25
v 0.212346002 0.122598 0.201226994
v 0.241481006 0.0647049993 0.25
v 0.212346002 0.122598 0.201226994
v 0.236840993 0.0634609982 0.201226994
v 0.236840993 0.0634609982 0.201226994
v 0.212346002 0.122598 0.201226994
v 0.200026006 0.115484998 0.154329002
v 0.236840993 0.0634609982 0.201226994
v 0.200026006 0.115484998 0.154329002
v 0.223100007 0.0597789995 0.154329002
v 0.223100007 0.0597789995 0.154329002
v 0.200026006 0.115484998 0.154329002
v 0.180017993 0.103933997 0.111106999
v 0.223100007 0.0597789995 0.154329002
v 0.180017993 0.103933997 0.111106999
v 0.200783998 0.0538000017 0.111106999
v 0.200783998 0.0538000017 0.111106999
v 0.180017993 0.103933997 0.111106999
v 0.153092995 0.0883880034 0.0732230023
v 0.200783998 0.0538000017 0.111106999
v 0.153092995 0.0883880034 0.0732230023
v 0.170753002 0.0457529984 0.0732230023
v 0.170753002 0.0457529984 0.0732230023
v 0.153092995 0.0883880034 0.0732230023
v 0.120283999 0.0694459975 0.0421329997
v 0.170753002 0.0457529984 0.0732230023
v 0.120283999 0.0694459975 0.0421329997
v 0.134159997 0.0359480008 0.0421329997
v 0.176777005 0 0.0732230023
v 0.170753002 0.0457529984 0.0732230023
v 0.134159997 0.0359480008 0.0421329997
v 0.216506004 0.125 0.25
v 0.173380002 0.173380002 0.201226994
v 0.212346002 0.122598 0.201226994
v 0.212346002 0.122598 0.201226994
v 0.173380002 0.173380002 0.201226994
v 0.163320005 0.163320005 0.154329002
v 0.212346002 0.122598 0.201226994
v 0.163320005 0.163320005 0.154329002
v 0.200026006 0.115484998 0.154329002
v 0.200026006 0.115484998 0.154329002
v 0.163320005 0.163320005 0.154329002
v 0.146983996 0.146983996 0.111106999
v 0.200026006 0.115484998 0.154329002
v 0.146983996 0.146983996 0.111106999
v 0.180017993 0.103933997 0.111106999
v 0.180017993 0.103933997 0.111106999
v 0.146983996 0.146983996 0.111106999
v 0.125 0.125 0.0732230023
v 0.180017993 0.103933997 0.111106999
v 0.125 0.125 0.0732230023
v 0.153092995 0.0883880034 0.0732230023
v 0.153092995 0.0883880034 0.0732230023
v 0.125 0.125 0.0732230023
v 0.0982120037 0.0982120037 0.0421329997
v 0.153092995 0.0883880034 0.0732230023
v 0.0982120037 0.0982120037 0.0421329997
v 0.120283999 0.0694459975 0.0421329997
v 0.216506004 0.125 0.25
v 0.176777005 0.176777005 0.25
v 0.173380002 0.173380002 0.201226994
v 0.176777005 0.176777005 0.25
v 0.122598 0.212346002 0.201226994
v 0.173380002 0.173380002 0.201226994
v 0.173380002 0.173380002 0.201226994
v 0.122598 0.212346002 0.201226994
v 0.115484998 0.200026006 0.154329002
v 0.173380002 0.173380002 0.201226994
v 0.115484998 0.200026006 0.154329002
v 0.163320005 0.163320005 0.154329002
v 0.163320005 0.163320005 0.154329002
v 0.115484998 0.200026006 0.154329002
v 0.103933997 0.180017993 0.111106999
v 0.163320005 0.163320005 0.154329002
v 0.103933997 0.180017993 0.111106999
v 0.146983996 0.146983996 0.111106999
v 0.146983996 0.146983996 0.111106999
v 0.103933997 0.180017993 0.111106999
v 0.0883880034 0.153092995 0.0732230023
v 0.146983996 0.146983996 0.111106999
v 0.0883880034 0.153092995 0.0732230023
v 0.125 0.125 0.0732230023
v 0.125 0.125 0.0732230023
v 0.0883880034 0.153092995 0.0732230023
v 0.0694459975 0.120283999 0.0421329997
v 0.125 0.125 0.0732230023
v 0.0694459975 0.120283999 0.0421329997
v 0.0982120037 0.0982120037 0.0421329997
v 0.0982120037 0.0982120037 0.0421329997
v 0.0694459975 0.120283999 0.0421329997
v 0.0478349999 0.0828529969 0.0190299992
v 0.0982120037 0.0982120037 0.0421329997
v 0.0478349999 0.0828529969 0.0190299992
v 0.0676499978 0.0676499978 0.0190299992
v 0.120283999 0.0694459975 0.0421329997
v 0.0982120037 0.0982120037 0.0421329997
v 0.0676499978 0.0676499978 0.0190299992
v 0.122598 0.212346002 0.201226994
v 0.0597789995 0.223100007 0.154329002
v 0.115484998 0.200026006 0.154329002
v 0.115484998 0.200026006 0.154329002
v 0.0597789995 0.223100007 0.154329002
v 0.0538000017 0.200783998 0.111106999
v 0.115484998 0.200026006 0.154329002
v 0.0538000017 0.200783998 0.111106999
v 0.103933997 0.180017993 0.111106999
v 0.103933997 0.180017993 0.111106999
v 0.0538000017 0.200783998 0.111106999
v 0.0457529984 0.170753002 0.0732230023
v 0.103933997 0.180017993 0.111106999
v 0.0457529984 0.170753002 0.0732230023
v 0.0883880034 0.153092995 0.0732230023
v 0.0883880034 0.153092995 0.0732230023
v 0.0457529984 0.170753002 0.0732230023
v 0.0359480008 0.134159997 0.0421329997
v 0.0883880034 0.153092995 0.0732230023
v 0.0359480008 0.134159997 0.0421329997
v 0.0694459975 0.120283999 0.0421329997
v 0.0694459975 0.120283999 0.0421329997
v 0.0359480008 0.134159997 0.0421329997
v 0.0247610006 0.0924109966 0.0190299992
v 0.0694459975 0.120283999 0.0421329997
v 0.0247610006 0.0924109966 0.0190299992
v 0.0478349999 0.0828529969 0.0190299992
v 0.122598 0.212346002 0.201226994
v 0.0634609982 0.236840993 0.201226994
v 0.0597789995 0.223100007 0.154329002
v 0.0634609982 0.236840993 0.201226994
v 0 0.230969995 0.154329002
v 0.0597789995 0.223100007 0.154329002
v 0.0597789995 0.223100007 0.154329002
v 0 0.230969995 0.154329002
v 0 0.207866997 0.111106999
v 0.0597789995 0.223100007 0.154329002
v 0 0.207866997 0.111106999
v 0.0538000017 0.200783998 0.111106999
v 0.0538000017 0.200783998 0.111106999
v 0 0.207866997 0.111106999
v 0 0.176777005 0.0732230023
v 0.0538000017 0.200783998 0.111106999
v 0 0.176777005 0.0732230023
v 0.0457529984 0.170753002 0.0732230023
v 0.0457529984 0.170753002 0.0732230023
v 0 0.176777005 0.0732230023
v 0 0.138892993 0.0421329997
v 0.0457529984 0.170753002 0.0732230023
v 0 0.138892993 0.0421329997
v 0.0359480008 0.134159997 0.0421329997
v 0.0359480008 0.134159997 0.0421329997
v 0 0.138892993 0.0421329997
v 0 0.0956709981 0.0190299992
v 0.0359480008 0.134159997 0.0421329997
v 0 0.0956709981 0.0190299992
v 0.0247610006 0.0924109966 0.0190299992
v 0.0634609982 0.236840993 0.201226994
v 0 0.245196 0.201226994
v 0 0.230969995 0.154329002
v 0 0.245196 0.201226994
v -0.0597789995 0.223100007 0.154329002
v 0 0.230969995 0.154329002
v 0 0.230969995 0.154329002
v -0.0597789995 0.223100007 0.154329002
v -0.0538000017 0.200783998 0.111106999
v 0 0.230969995 0.154329002
v -0.0538000017 0.200783998 0.111106999
v 0 0.207866997 0.111106999
v 0 0.207866997 0.111106999
v -0.0538000017 0.200783998 0.111106999
v -0.0457529984 0.170753002 0.0732230023
v 0 0.207866997 0.111106999
v -0.0457529984 0.170753002 0.0732230023
v 0 0.176777005 0.0732230023
v 0 0.176777005 0.0732230023
v -0.0457529984 0.170753002 0.0732230023
v -0.0359480008 0.134159997 0.0421329997
v 0 0.176777005 0.0732230023
v -0.0359480008 0.134159997 0.0421329997
v 0 0.138892993 0.0421329997
v 0 0.138892993 0.0421329997
v -0.0359480008 0.134159997 0.0421329997
v -0.0247610006 0.0924109966 0.0190299992
v 0 0.138892993 0.0421329997
v -0.0247610006 0.0924109966 0.0190299992
v 0 0.0956709981 0.0190299992
v 0 0.245196 0.201226994
v -0.0634609982 0.236840993 0.201226994
v -0.0597789995 0.223100007 0.154329002
v -0.0634609982 0.236840993 0.201226994
v -0.115484998 0.200026006 0.154329002
v -0.0597789995 0.223100007 0.154329002
v -0.0597789995 0.223100007 0.154329002
v -0.115484998 0.200026006 0.154329002
v -0.103933997 0.180017993 0.111106999
v -0.0597789995 0.223100007 0.154329002
v -0.103933997 0.180017993 0.111106999
v -0.0538000017 0.200783998 0.111106999
v -0.0538000017 0.200783998 0.111106999
v -0.103933997 0.180017993 0.111106999
v -0.0883880034 0.153092995 0.0732230023
v -0.0538000017 0.200783998 0.111106999
v -0.0883880034 0.153092995 0.0732230023
v -0.0457529984 0.170753002 0.0732230023
v -0.0457529984 0.170753002 0.0732230023
v -0.0883880034 0.153092995 0.0732230023
v -0.0694459975 0.120283999 0.0421329997
v -0.0457529984 0.170753002 0.0732230023
v -0.0694459975 0.120283999 0.0421329997
v -0.0359480008 0.134159997 0.0421329997
v -0.0359480008 0.134159997 0.0421329997
v -0.0694459975 0.120283999 0.0421329997
v -0.0478349999 0.0828529969 0.0190299992
v -0.0359480008 0.134159997 0.0421329997
v -0.0478349999 0.0828529969 0.0190299992
v -0.0247610006 0.0924109966 0.0190299992
v -0.0634609982 0.236840993 0.201226994
v -0.122598 0.212346002 0.201226994
v -0.115484998 0.200026006 0.154329002
v -0.122598 0.212346002 0.201226994
v -0.163320005 0.163320005 0.154329002
v -0.115484998 0.200026006 0.154329002
v -0.115484998 0.200026006 0.154329002
v -0.163320005 0.163320005 0.154329002
v -0.146983996 0.146983996 0.111106999
v -0.115484998 0.200026006 0.154329002
v -0.146983996 0.146983996 0.111106999
v -0.103933997 0.180017993 0.111106999
v -0.103933997 0.180017993 0.111106999
v -0.146983996 0.146983996 0.111106999
v -0.125 0.125 0.0732230023
v -0.103933997 0.180017993 0.111106999
v -0.125 0.125 0.0732230023
v -0.0883880034 0.153092995 0.0732230023
v -0.0883880034 0.153092995 0.0732230023
v -0.125 0.125 0.0732230023
v -0.0982120037 0.0982120037 0.0421329997
v -0.0883880034 0.153092995 0.0732230023
v -0.0982120037 0.0982120037 0.0421329997
v -0.0694459975 0.120283999 0.0421329997
v -0.0694459975 0.120283999 0.0421329997
v -0.0982120037 0.0982120037 0.0421329997
v -0.0676499978 0.0676499978 0.0190299992
v -0.0694459975 0.120283999 0.0421329997
v -0.0676499978 0.0676499978 0.0190299992
v -0.0478349999 0.0828529969 0.0190299992
v -0.122598 0.212346002 0.201226994
v -0.173380002 0.173380002 0.201226994
v -0.163320005 0.163320005 0.154329002
v -0.173380002 0.173380002 0.201226994
v -0.200026006 0.115484998 0.154329002
v -0.163320005 0.163320005 0.154329002
v -0.163320005 0.163320005 0.154329002
v -0.200026006 0.115484998 0.154329002
v -0.180017993 0.103933997 0.111106999
v -0.163320005 0.163320005 0.154329002
v -0.180017993 0.103933997 0.111106999
v -0.146983996 0.146983996 0.111106999
v -0.146983996 0.146983996 0.111106999
v -0.180017993 0.103933997 0.111106999
v -0.153092995 0.0883880034 0.0732230023
v -0.146983996 0.146983996 0.111106999
v -0.153092995 0.0883880034 0.0732230023
v -0.125 0.125 0.0732230023
v -0.125 0.125 0.0732230023
v -0.153092995 0.0883880034 0.0732230023
v -0.120283999 0.0694459975 0.0421329997
v -0.125 0.125 0.0732230023
v -0.120283999 0.0694459975 0.0421329997
v -0.0982120037 0.0982120037 0.0421329997
v -0.0982120037 0.0982120037 0.0421329997
v -0.120283999 0.0694459975 0.0421329997
v -0.0828529969 0.0478349999 0.0190299992
v -0.0982120037 0.0982120037 0.0421329997
v -0.0828529969 0.0478349999 0.0190299992
v -0.0676499978 0.0676499978 0.0190299992
v -0.173380002 0.173380002 0.201226994
v -0.212346002 0.122598 0.201226994
v -0.200026006 0.115484998 0.154329002
v -0.212346002 0.122598 0.201226994
v -0.223100007 0.0597789995 0.154329002
v -0.200026006 0.115484998 0.154329002
v -0.200026006 0.115484998 0.154329002
v -0.223100007 0.0597789995 0.154329002
v -0.200783998 0.0538000017 0.111106999
v -0.200026006 0.115484998 0.154329002
v -0.200783998 0.0538000017 0.111106999
v -0.180017993 0.103933997 0.111106999
v -0.180017993 0.103933997 0.111106999
v -0.200783998 0.0538000017 0.111106999
v -0.170753002 0.0457529984 0.0732230023
v -0.180017993 0.103933997 0.111106999
v -0.170753002 0.0457529984 0.0732230023
v -0.153092995 0.0883880034 0.0732230023
v -0.153092995 0.0883880034 0.0732230023
v -0.170753002 0.0457529984 0.0732230023
v -0.134159997 0.0359480008 0.0421329997
v -0.153092995 0.0883880034 0.0732230023
v -0.134159997 0.0359480008 0.0421329997
v -0.120283999 0.0694459975 0.0421329997
v -0.120283999 0.0694459975 0.0421329997
v -0.134159997 0.0359480008 0.0421329997
v -0.0924109966 0.0247610006 0.0190299992
v -0.120283999 0.0694459975 0.0421329997
v -0.0924109966 0.0247610006 0.0190299992
v -0.0828529969 0.0478349999 0.0190299992
v -0.212346002 0.122598 0.201226994
v -0.236840993 0.0634609982 0.201226994
v -0.223100007 0.0597789995 0.154329002
v -0.236840993 0.0634609982 0.201226994
v -0.230969995 0 0.154329002
v -0.223100007 0.0597789995 0.154329002
v -0.223100007 0.0597789995 0.154329002
v -0.230969995 0 0.154329002
v -0.207866997 0 0.111106999
v -0.223100007 0.0597789995 0.154329002
v -0.207866997 0 0.111106999
v -0.200783998 0.0538000017 0.111106999
v -0.200783998 0.0538000017 0.111106999
v -0.207866997 0 0.111106999
v -0.176777005 0 0.0732230023
v -0.200783998 0.0538000017 0.111106999
v -0.176777005 0 0.0732230023
v -0.170753002 0.0457529984 0.0732230023
v -0.170753002 0.0457529984 0.0732230023
v -0.176777005 0 0.0732230023
v -0.138892993 0 0.0421329997
v -0.170753002 0.0457529984 0.0732230023
v -0.138892993 0 0.0421329997
v -0.134159997 0.0359480008 0.0421329997
v -0.134159997 0.0359480008 0.0421329997
v -0.138892993 0 0.0421329997
v -0.0956709981 0 0.0190299992
v -0.134159997 0.0359480008 0.0421329997
v -0.0956709981 0 0.0190299992
v -0.0924109966 0.0247610006 0.0190299992
v -0.236840993 0.0634609982 0.201226994
v -0.245196 0 0.201226994
v -0.230969995 0 0.154329002
v -0.245196 0 0.201226994
v -0.223100007 -0.0597789995 0.154329002
v -0.230969995 0 0.154329002
v -0.230969995 0 0.154329002
v -0.223100007 -0.0597789995 0.154329002
v -0.200783998 -0.0538000017 0.111106999
v -0.230969995 0 0.154329002
v -0.200783998 -0.0538000017 0.111106999
v -0.207866997 0 0.111106999
v -0.207866997 0 0.111106999
v -0.200783998 -0.0538000017 0.111106999
v -0.170753002 -0.0457529984 0.0732230023
v -0.207866997 0 0.111106999
v -0.170753002 -0.0457529984 0.0732230023
v -0.176777005 0 0.0732230023
v -0.176777005 0 0.0732230023
v -0.170753002 -0.0457529984 0.0732230023
v -0.134159997 -0.0359480008 0.0421329997
v -0.176777005 0 0.0732230023
v -0.134159997 -0.0359480008 0.0421329997
v -0.138892993 0 0.0421329997
v -0.138892993 0 0.0421329997
v -0.134159997 -0.0359480008 0.0421329997
v -0.0924109966 -0.0247610006 0.0190299992
v -0.138892993 0 0.0421329997
v -0.0924109966 -0.0247610006 0.0190299992
v -0.0956709981 0 0.0190299992
v -0.245196 0 0.201226994
v -0.236840993 -0.0634609982 0.201226994
v -0.223100007 -0.0597789995 0.154329002
v -0.236840993 -0.0634609982 0.201226994
v -0.200026006 -0.115484998 0.154329002
v -0.223100007 -0.0597789995 0.154329002
v -0.223100007 -0.0597789995 0.154329002
v -0.200026006 -0.115484998 0.154329002
v -0.180017993 -0.103933997 0.111106999
v -0.223100007 -0.0597789995 0.154329002
v -0.180017993 -0.103933997 0.111106999
v -0.200783998 -0.0538000017 0.111106999
v -0.200783998 -0.0538000017 0.111106999
v -0.180017993 -0.103933997 0.111106999
v -0.153092995 -0.0883880034 0.0732230023
v -0.200783998 -0.0538000017 0.111106999
v -0.153092995 -0.0883880034 0.0732230023
v -0.170753002 -0.0457529984 0.0732230023
v -0.170753002 -0.0457529984 0.0732230023
v -0.153092995 -0.0883880034 0.0732230023
v -0.120283999 -0.0694459975 0.0421329997
v -0.170753002 -0.0457529984 0.0732230023
v -0.120283999 -0.0694459975 0.0421329997
v -0.134159997 -0.0359480008 0.0421329997
v -0.134159997 -0.0359480008 0.0421329997
v -0.120283999 -0.0694459975 0.0421329997
v -0.0828529969 -0.0478349999 0.0190299992
v -0.134159997 -0.0359480008 0.0421329997
v -0.0828529969 -0.0478349999 0.0190299992
v -0.0924109966 -0.0247610006 0.0190299992
v -0.236840993 -0.0634609982 0.201226994
v -0.212346002 -0.122598 0.201226994
v -0.200026006 -0.115484998 0.154329002
v -0.212346002 -0.122598 0.201226994
v -0.163320005 -0.163320005 0.154329002
v -0.200026006 -0.115484998 0.154329002
v -0.200026006 -0.115484998 0.154329002
v -0.163320005 -0.163320005 0.154329002
v -0.146983996 -0.146983996 0.111106999
v -0.200026006 -0.115484998 0.154329002
v -0.146983996 -0.146983996 0.111106999
v -0.180017993 -0.103933997 0.111106999
v -0.180017993 -0.103933997 0.111106999
v -0.146983996 -0.146983996 0.111106999
v -0.125 -0.125 0.0732230023
v -0.180017993 -0.103933997 0.111106999
v -0.125 -0.125 0.0732230023
v -0.153092995 -0.0883880034 0.0732230023
v -0.153092995 -0.0883880034 0.0732230023
v -0.125 -0.125 0.0732230023
v -0.0982120037 -0.0982120037 0.0421329997
v -0.153092995 -0.0883880034 0.0732230023
v -0.0982120037 -0.0982120037 0.0421329997
v -0.120283999 -0.0694459975 0.0421329997
v -0.120283999 -0.0694459975 0.0421329997
v -0.0982120037 -0.0982120037 0.0421329997
v -0.0676499978 -0.0676499978 0.0190299992
v -0.120283999 -0.0694459975 0.0421329997
v -0.0676499978 -0.0676499978 0.0190299992
v -0.0828529969 -0.0478349999 0.0190299992
v -0.212346002 -0.122598 0.201226994
v -0.173380002 -0.173380002 0.201226994
v -0.163320005 -0.163320005 0.154329002
v -0.173380002 -0.173380002 0.201226994
v -0.115484998 -0.200026006 0.154329002
v -0.163320005 -0.163320005 0.154329002
v -0.163320005 -0.163320005 0.154329002
v -0.115484998 -0.200026006 0.154329002
v -0.103933997 -0.180017993 0.111106999
v -0.163320005 -0.163320005 0.154329002
v -0.103933997 -0.180017993 0.111106999
v -0.146983996 -0.146983996 0.111106999
v -0.146983996 -0.146983996 0.111106999
v -0.103933997 -0.180017993 0.111106999
v -0.0883880034 -0.153092995 0.0732230023
v -0.146983996 -0.146983996 0.111106999
v -0.0883880034 -0.153092995 0.0732230023
v -0.125 -0.125 0.0732230023
v -0.125 -0.125 0.0732230023
v -0.0883880034 -0.153092995 0.0732230023
v -0.0694459975 -0.120283999 0.0421329997
v -0.125 -0.125 0.0732230023
v -0.0694459975 -0.120283999 0.0421329997
v -0.0982120037 -0.0982120037 0.0421329997
v -0.0982120037 -0.0982120037 0.0421329997
v -0.0694459975 -0.120283999 0.0421329997
v -0.0478349999 -0.0828529969 0.0190299992
v -0.0982120037 -0.0982120037 0.0421329997
v -0.0478349999 -0.0828529969 0.0190299992
v -0.0676499978 -0.0676499978 0.0190299992
v -0.173380002 -0.173380002 0.201226994
v -0.122598 -0.212346002 0.201226994
v -0.115484998 -0.200026006 0.154329002
v -0.122598 -0.212346002 0.201226994
v -0.0597789995 -0.223100007 0.154329002
v -0.115484998 -0.200026006 0.154329002
v -0.115484998 -0.200026006 0.154329002
v -0.0597789995 -0.223100007 0.154329002
v -0.0538000017 -0.200783998 0.111106999
v -0.115484998 -0.200026006 0.154329002
v -0.0538000017 -0.200783998 0.111106999
v -0.103933997 -0.180017993 0.111106999
v -0.103933997 -0.180017993 0.111106999
v -0.0538000017 -0.200783998 0.111106999
v -0.0457529984 -0.170753002 0.0732230023
v -0.103933997 -0.180017993 0.111106999
v -0.0457529984 -0.170753002 0.0732230023
v -0.0883880034 -0.153092995 0.0732230023
v -0.0883880034 -0.153092995 0.0732230023
v -0.0457529984 -0.170753002 0.0732230023
v -0.0359480008 -0.134159997 0.0421329997
v -0.0883880034 -0.153092995 0.0732230023
v -0.0359480008 -0.134159997 0.0421329997
v -0.0694459975 -0.120283999 0.0421329997
v -0.0694459975 -0.120283999 0.0421329997
v -0.0359480008 -0.134159997 0.0421329997
v -0.0247610006 -0.0924109966 0.0190299992
v -0.0694459975 -0.120283999 0.0421329997
v -0.0247610006 -0.0924109966 0.0190299992
v -0.0478349999 -0.0828529969 0.0190299992
v -0.122598 -0.212346002 0.201226994
v -0.0634609982 -0.236840993 0.201226994
v -0.0597789995 -0.223100007 0.154329002
v -0.0634609982 -0.236840993 0.201226994
v 0 -0.230969995 0.154329002
v -0.0597789995 -0.223100007 0.154329002
v -0.0597789995 -0.223100007 0.154329002
v 0 -0.230969995 0.154329002
v 0 -0.207866997 0.111106999
v -0.0597789995 -0.223100007 0.154329002
v 0 -0.207866997 0.111106999
v -0.0538000017 -0.200783998 0.111106999
v -0.0538000017 -0.200783998 0.111106999
v 0 -0.207866997 0.111106999
v 0 -0.176777005 0.0732230023
v -0.0538000017 -0.200783998 0.111106999
v 0 -0.176777005 0.0732230023
v -0.0457529984 -0.170753002 0.0732230023
v -0.0457529984 -0.170753002 0.0732230023
v 0 -0.176777005 0.0732230023
v 0 -0.138892993 0.0421329997
v -0.0457529984 -0.170753002 0.0732230023
v 0 -0.138892993 0.0421329997
v -0.0359480008 -0.134159997 0.0421329997
v -0.0359480008 -0.134159997 0.0421329997
v 0 -0.138892993 0.0421329997
v 0 -0.0956709981 0.0190299992
v -0.0359480008 -0.134159997 0.0421329997
v 0 -0.0956709981 0.0190299992
v -0.0247610006 -0.0924109966 0.0190299992
v -0.0634609982 -0.236840993 0.201226994
v 0 -0.245196 0.201226994
v 0 -0.230969995 0.154329002
v 0 -0.245196 0.201226994
v 0.0597789995 -0.223100007 0.154329002
v 0 -0.230969995 0.154329002
v 0 -0.230969995 0.154329002
v 0.0597789995 -0.223100007 0.154329002
v 0.0538000017 -0.200783998 0.111106999
v 0 -0.230969995 0.154329002
v 0.0538000017 -0.200783998 0.111106999
v 0 -0.207866997 0.111106999
v 0 -0.207866997 0.111106999
v 0.0538000017 -0.200783998 0.111106999
v 0.0457529984 -0.170753002 0.0732230023
v 0 -0.207866997 0.111106999
v 0.0457529984 -0.170753002 0.0732230023
v 0 -0.176777005 0.0732230023
v 0 -0.176777005 0.0732230023
v 0.0457529984 -0.170753002 0.0732230023
v 0.0359480008 -0.134159997 0.0421329997
v 0 -0.176777005 0.0732230023
v 0.0359480008 -0.134159997 0.0421329997
v 0 -0.138892993 0.0421329997
v 0 -0.138892993 0.0421329997
v 0.0359480008 -0.134159997 0.0421329997
v 0.0247610006 -0.0924109966 0.0190299992
v 0 -0.138892993 0.0421329997
v 0.0247610006 -0.0924109966 0.0190299992
v 0 -0.0956709981 0.0190299992
v 0 -0.245196 0.201226994
v 0.0634609982 -0.236840993 0.201226994
v 0.0597789995 -0.223100007 0.154329002
v 0.0634609982 -0.236840993 0.201226994
v 0.115484998 -0.200026006 0.154329002
v 0.0597789995 -0.223100007 0.154329002
v 0.0597789995 -0.223100007 0.154329002
v 0.115484998 -0.200026006 0.154329002
v 0.103933997 -0.180017993 0.111106999
v 0.0597789995 -0.223100007 0.154329002
v 0.103933997 -0.180017993 0.111106999
v 0.0538000017 -0.200783998 0.111106999
v 0.0538000017 -0.200783998 0.111106999
v 0.103933997 -0.180017993 0.111106999
v 0.0883880034 -0.153092995 0.0732230023
v 0.0538000017 -0.200783998 0.111106999
v 0.0883880034 -0.153092995 0.0732230023
v 0.0457529984 -0.170753002 0.0732230023
v 0.0457529984 -0.170753002 0.0732230023
v 0.0883880034 -0.153092995 0.0732230023
v 0.0694459975 -0.120283999 0.0421329997
v 0.0457529984 -0.170753002 0.0732230023
v 0.0694459975 -0.120283999 0.0421329997
v 0.0359480008 -0.134159997 0.0421329997
v 0.0359480008 -0.134159997 0.0421329997
v 0.0694459975 -0.120283999 0.0421329997
v 0.0478349999 -0.0828529969 0.0190299992
v 0.0359480008 -0.134159997 0.0421329997
v 0.0478349999 -0.0828529969 0.0190299992
v 0.0247610006 -0.0924109966 0.0190299992
v 0.0634609982 -0.236840993 0.201226994
v 0.122598 -0.212346002 0.201226994
v 0.115484998 -0.200026006 0.154329002
v 0.122598 -0.212346002 0.201226994
v 0.163320005 -0.163320005 0.154329002
v 0.115484998 -0.200026006 0.154329002
v 0.115484998 -0.200026006 0.154329002
v 0.163320005 -0.163320005 0.154329002
v 0.146983996 -0.146983996 0.111106999
v 0.115484998 -0.200026006 0.154329002
v 0.146983996 -0.146983996 0.111106999
v 0.103933997 -0.180017993 0.111106999
v 0.103933997 -0.180017993 0.111106999
v 0.146983996 -0.146983996 0.111106999
v 0.125 -0.125 0.0732230023
v 0.103933997 -0.180017993 0.111106999
v 0.125 -0.125 0.0732230023
v 0.0883880034 -0.153092995 0.0732230023
v 0.0883880034 -0.153092995 0.0732230023
v 0.125 -0.125 0.0732230023
v 0.0982120037 -0.0982120037 0.0421329997
v 0.0883880034 -0.153092995 0.0732230023
v 0.0982120037 -0.0982120037 0.0421329997
v 0.0694459975 -0.120283999 0.0421329997
v 0.0694459975 -0.120283999 0.0421329997
v 0.0982120037 -0.0982120037 0.0421329997
v 0.0676499978 -0.0676499978 0.0190299992
v 0.0694459975 -0.120283999 0.0421329997
v 0.0676499978 -0.0676499978 0.0190299992
v 0.0478349999 -0.0828529969 0.0190299992
v 0.122598 -0.212346002 0.201226994
v 0.173380002 -0.173380002 0.201226994
v 0.163320005 -0.163320005 0.154329002
v 0.173380002 -0.173380002 0.201226994
v 0.200026006 -0.115484998 0.154329002
v 0.163320005 -0.163320005 0.154329002
v 0.163320005 -0.163320005 0.154329002
v 0.200026006 -0.115484998 0.154329002
v 0.180017993 -0.103933997 0.111106999
v 0.163320005 -0.163320005 0.154329002
v 0.180017993 -0.103933997 0.111106999
v 0.146983996 -0.146983996 0.111106999
v 0.146983996 -0.146983996 0.111106999
v 0.180017993 -0.103933997 0.111106999
v 0.153092995 -0.0883880034 0.0732230023
v 0.146983996 -0.146983996 0.111106999
v 0.153092995 -0.0883880034 0.0732230023
v 0.125 -0.125 0.0732230023
v 0.125 -0.125 0.0732230023
v 0.153092995 -0.0883880034 0.0732230023
v 0.120283999 -0.0694459975 0.0421329997
v 0.125 -0.125 0.0732230023
v 0.120283999 -0.0694459975 0.0421329997
v 0.0982120037 -0.0982120037 0.0421329997
v 0.0982120037 -0.0982120037 0.0421329997
v 0.120283999 -0.0694459975 0.0421329997
v 0.0828529969 -0.0478349999 0.0190299992
v 0.0982120037 -0.0982120037 0.0421329997
v 0.0828529969 -0.0478349999 0.0190299992
v 0.0676499978 -0.0676499978 0.0190299992
v 0.0676499978 -0.0676499978 0.0190299992
v 0.0828529969 -0.0478349999 0.0190299992
v 0.0422380008 -0.0243859999 0.00480399979
v 0.0676499978 -0.0676499978 0.0190299992
v 0.0422380008 -0.0243859999 0.00480399979
v 0.0344870016 -0.0344870016 0.00480399979
v 0.0478349999 -0.0828529969 0.0190299992
v 0.0676499978 -0.0676499978 0.0190299992
v 0.0344870016 -0.0344870016 0.00480399979
v 0.200026006 -0.115484998 0.154329002
v 0.200783998 -0.0538000017 0.111106999
v 0.180017993 -0.103933997 0.111106999
v 0.180017993 -0.103933997 0.111106999
v 0.200783998 -0.0538000017 0.111106999
v 0.170753002 -0.0457529984 0.0732230023
v 0.180017993 -0.103933997 0.111106999
v 0.170753002 -0.0457529984 0.0732230023
v 0.153092995 -0.0883880034 0.0732230023
v 0.153092995 -0.0883880034 0.0732230023
v 0.170753002 -0.0457529984 0.0732230023
v 0.134159997 -0.0359480008 0.0421329997
v 0.153092995 -0.0883880034 0.0732230023
v 0.134159997 -0.0359480008 0.0421329997
v 0.120283999 -0.0694459975 0.0421329997
v 0.120283999 -0.0694459975 0.0421329997
v 0.134159997 -0.0359480008 0.0421329997
v 0.0924109966 -0.0247610006 0.0190299992
v 0.120283999 -0.0694459975 0.0421329997
v 0.0924109966 -0.0247610006 0.0190299992
v 0.0828529969 -0.0478349999 0.0190299992
v 0.0828529969 -0.0478349999 0.0190299992
v 0.0924109966 -0.0247610006 0.0190299992
v 0.0471110009 -0.012623 0.00480399979
v 0.0828529969 -0.0478349999 0.0190299992
v 0.0471110009 -0.012623 0.00480399979
v 0.0422380008 -0.0243859999 0.00480399979
v 0 0 0
v 0.0422380008 -0.0243859999 0.00480399979
v 0.0471110009 -0.012623 0.00480399979
v 0 0 0
v 0.0344870016 -0.0344870016 0.00480399979
v 0.0422380008 -0.0243859999 0.00480399979
v 0 0 0
v 0.0243859999 -0.0422380008 0.00480399979
v 0.0344870016 -0.0344870016 0.00480399979
v 0.0478349999 -0.0828529969 0.0190299992
v 0.0344870016 -0.0344870016 0.00480399979
v 0.0243859999 -0.0422380008 0.00480399979
v 0.0247610006 -0.0924109966 0.0190299992
v 0.0478349999 -0.0828529969 0.0190299992
v 0.0243859999 -0.0422380008 0.00480399979
v 0.200783998 -0.0538000017 0.111106999
v 0.176777005 0 0.0732230023
v 0.170753002 -0.0457529984 0.0732230023
v 0.170753002 -0.0457529984 0.0732230023
v 0.176777005 0 0.0732230023
v 0.138892993 0 0.0421329997
v 0.170753002 -0.0457529984 0.0732230023
v 0.138892993 0 0.0421329997
v 0.134159997 -0.0359480008 0.0421329997
v 0.134159997 -0.0359480008 0.0421329997
v 0.138892993 0 0.0421329997
v 0.0956709981 0 0.0190299992
v 0.134159997 -0.0359480008 0.0421329997
v 0.0956709981 0 0.0190299992
v 0.0924109966 -0.0247610006 0.0190299992
v 0.0924109966 -0.0247610006 0.0190299992
v 0.0956709981 0 0.0190299992
v 0.0487729982 0 0.00480399979
v 0.0924109966 -0.0247610006 0.0190299992
v 0.0487729982 0 0.00480399979
v 0.0471110009 -0.012623 0.00480399979
v 0 0 0
v 0.0471110009 -0.012623 0.00480399979
v 0.0487729982 0 0.00480399979
v 0.176777005 0 0.0732230023
v 0.134159997 0.0359480008 0.0421329997
v 0.138892993 0 0.0421329997
v 0.138892993 0 0.0421329997
v 0.134159997 0.0359480008 0.0421329997
v 0.0924109966 0.0247610006 0.0190299992
v 0.138892993 0 0.0421329997
v 0.0924109966 0.0247610006 0.0190299992
v 0.0956709981 0 0.0190299992
v 0.0956709981 0 0.0190299992
v 0.0924109966 0.0247610006 0.0190299992
v 0.0471110009 0.012623 0.00480399979
v 0.0956709981 0 0.0190299992
v 0.0471110009 0.012623 0.00480399979
v 0.0487729982 0 0.00480399979
v 0 0 0
v 0.0487729982 0 0.00480399979
v 0.0471110009 0.012623 0.00480399979
v 0.134159997 0.0359480008 0.0421329997
v 0.0828529969 0.0478349999 0.0190299992
v 0.0924109966 0.0247610006 0.0190299992
v 0.0924109966 0.0247610006 0.0190299992
v 0.0828529969 0.0478349999 0.0190299992
v 0.0422380008 0.0243859999 0.00480399979
v 0.0924109966 0.0247610006 0.0190299992
v 0.0422380008 0.0243859999 0.00480399979
v 0.0471110009 0.012623 0.00480399979
v 0 0 0
v 0.0471110009 0.012623 0.00480399979
v 0.0422380008 0.0243859999 0.00480399979
v 0.134159997 0.0359480008 0.0421329997
v 0.120283999 0.0694459975 0.0421329997
v 0.0828529969 0.0478349999 0.0190299992
v 0.120283999 0.0694459975 0.0421329997
v 0.0676499978 0.0676499978 0.0190299992
v 0.0828529969 0.0478349999 0.0190299992
v 0.0828529969 0.0478349999 0.0190299992
v 0.0676499978 0.0676499978 0.0190299992
v 0.0344870016 0.0344870016 0.00480399979
v 0.0828529969 0.0478349999 0.0190299992
v 0.0344870016 0.0344870016 0.00480399979
v 0.0422380008 0.0243859999 0.00480399979
v 0 0 0
v 0.0422380008 0.0243859999 0.00480399979
v 0.0344870016 0.0344870016 0.00480399979
v 0.0676499978 0.0676499978 0.0190299992
v 0.0243859999 0.0422380008 0.00480399979
v 0.0344870016 0.0344870016 0.00480399979
v 0 0 0
v 0.0344870016 0.0344870016 0.00480399979
v 0.0243859999 0.0422380008 0.00480399979
v 0.0676499978 0.0676499978 0.0190299992
v 0.0478349999 0.0828529969 0.0190299992
v 0.0243859999 0.0422380008 0.00480399979
v 0.0478349999 0.0828529969 0.0190299992
v 0.012623 0.0471110009 0.00480399979
v 0.0243859999 0.0422380008 0.00480399979
v 0 0 0
v 0.0243859999 0.0422380008 0.00480399979
v 0.012623 0.0471110009 0.00480399979
v 0.0478349999 0.0828529969 0.0190299992
v 0.0247610006 0.0924109966 0.0190299992
v 0.012623 0.0471110009 0.00480399979
v 0.0247610006 0.0924109966 0.0190299992
v 0 0.0487729982 0.00480399979
v 0.012623 0.0471110009 0.00480399979
v 0 0 0
v 0.012623 0.0471110009 0.00480399979
v 0 0.0487729982 0.00480399979
v 0.0247610006 0.0924109966 0.0190299992
v 0 0.0956709981 0.0190299992
v 0 0.0487729982 0.00480399979
v 0 0.0956709981 0.0190299992
v -0.012623 0.0471110009 0.00480399979
v 0 0.0487729982 0.00480399979
v 0 0 0
v 0 0.0487729982 0.00480399979
v -0.012623 0.0471110009 0.00480399979
v 0 0.0956709981 0.0190299992
v -0.0247610006 0.0924109966 0.0190299992
v -0.012623 0.0471110009 0.00480399979
v -0.0247610006 0.0924109966 0.0190299992
v -0.0243859999 0.0422380008 0.00480399979
v -0.012623 0.0471110009 0.00480399979
v 0 0 0
v -0.012623 0.0471110009 0.00480399979
v -0.0243859999 0.0422380008 0.00480399979
v -0.0247610006 0.0924109966 0.0190299992
v -0.0478349999 0.0828529969 0.0190299992
v -0.0243859999 0.0422380008 0.00480399979
v -0.0478349999 0.0828529969 0.0190299992
v -0.0344870016 0.0344870016 0.00480399979
v -0.0243859999 0.0422380008 0.00480399979
v 0 0 0
v -0.0243859999 0.0422380008 0.00480399979
v -0.0344870016 0.0344870016 0.00480399979
v -0.0478349999 0.0828529969 0.0190299992
v -0.0676499978 0.0676499978 0.0190299992
v -0.0344870016 0.0344870016 0.00480399979
v -0.0676499978 0.0676499978 0.0190299992
v -0.0422380008 0.0243859999 0.00480399979
v -0.0344870016 0.0344870016 0.00480399979
v 0 0 0
v -0.0344870016 0.0344870016 0.00480399979
v -0.0422380008 0.0243859999 0.00480399979
v -0.0676499978 0.0676499978 0.0190299992
v -0.0828529969 0.0478349999 0.0190299992
v -0.0422380008 0.0243859999 0.00480399979
v -0.0828529969 0.0478349999 0.0190299992
v -0.0471110009 0.012623 0.00480399979
v -0.0422380008 0.0243859999 0.00480399979
v 0 0 0
v -0.0422380008 0.0243859999 0.00480399979
v -0.0471110009 0.012623 0.00480399979
v -0.0828529969 0.0478349999 0.0190299992
v -0.0924109966 0.0247610006 0.0190299992
v -0.0471110009 0.012623 0.00480399979
v -0.0924109966 0.0247610006 0.0190299992
v -0.0487729982 0 0.00480399979
v -0.0471110009 0.012623 0.00480399979
v 0 0 0
v -0.0471110009 0.012623 0.00480399979
v -0.0487729982 0 0.00480399979
v -0.0924109966 0.0247610006 0.0190299992
v -0.0956709981 0 0.0190299992
v -0.0487729982 0 0.00480399979
v -0.0956709981 0 0.0190299992
v -0.0471110009 -0.012623 0.00480399979
v -0.0487729982 0 0.00480399979
v 0 0 0
v -0.0487729982 0 0.00480399979
v -0.0471110009 -0.012623 0.00480399979
v -0.0956709981 0 0.0190299992
v -0.0924109966 -0.0247610006 0.0190299992
v -0.0471110009 -0.012623 0.00480399979
v -0.0924109966 -0.0247610006 0.0190299992
v -0.0422380008 -0.0243859999 0.00480399979
v -0.0471110009 -0.012623 0.00480399979
v 0 0 0
v -0.0471110009 -0.012623 0.00480399979
v -0.0422380008 -0.0243859999 0.00480399979
v 0 0 0
v -0.0422380008 -0.0243859999 0.00480399979
v -0.0344870016 -0.0344870016 0.00480399979
v 0 0 0
v -0.0344870016 -0.0344870016 0.00480399979
v -0.0243859999 -0.0422380008 0.00480399979
v 0 0 0
v -0.0243859999 -0.0422380008 0.00480399979
v -0.012623 -0.0471110009 0.00480399979
v 0 0 0
v -0.012623 -0.0471110009 0.00480399979
v 0 -0.0487729982 0.00480399979
v 0 0 0
v 0 -0.0487729982 0.00480399979
v 0.012623 -0.0471110009 0.00480399979
v 0 0 0
v 0.012623 -0.0471110009 0.00480399979
v 0.0243859999 -0.0422380008 0.00480399979
v -0.0924109966 -0.0247610006 0.0190299992
v -0.0828529969 -0.0478349999 0.0190299992
v -0.0422380008 -0.0243859999 0.00480399979
v -0.0828529969 -0.0478349999 0.0190299992
v -0.0344870016 -0.0344870016 0.00480399979
v -0.0422380008 -0.0243859999 0.00480399979
v -0.0828529969 -0.0478349999 0.0190299992
v -0.0676499978 -0.0676499978 0.0190299992
v -0.0344870016 -0.0344870016 0.00480399979
v -0.0676499978 -0.0676499978 0.0190299992
v -0.0243859999 -0.0422380008 0.00480399979
v -0.0344870016 -0.0344870016 0.00480399979
v -0.0676499978 -0.0676499978 0.0190299992
v -0.0478349999 -0.0828529969 0.0190299992
v -0.0243859999 -0.0422380008 0.00480399979
v -0.0478349999 -0.0828529969 0.0190299992
v -0.012623 -0.0471110009 0.00480399979
v -0.0243859999 -0.0422380008 0.00480399979
v -0.0478349999 -0.0828529969 0.0190299992
v -0.0247610006 -0.0924109966 0.0190299992
v -0.012623 -0.0471110009 0.00480399979
v -0.0247610006 -0.0924109966 0.0190299992
v 0 -0.0487729982 0.00480399979
v -0.012623 -0.0471110009 0.00480399979
v -0.0247610006 -0.0924109966 0.0190299992
v 0 -0.0956709981 0.0190299992
v 0 -0.0487729982 0.00480399979
v 0 -0.0956709981 0.0190299992
v 0.012623 -0.0471110009 0.00480399979
v 0 -0.0487729982 0.00480399979
v 0 -0.0956709981 0.0190299992
v 0.0247610006 -0.0924109966 0.0190299992
v 0.012623 -0.0471110009 0.00480399979
v 0.0247610006 -0.0924109966 0.0190299992
v 0.0243859999 -0.0422380008 0.00480399979
v 0.012623 -0.0471110009 0.00480399979

# 161 UV coordinates
vt 0.497851014 1.000005 0
vt 0.417151988 1.000351 0
vt 0.408315986 1.031509 0
vt 0.324759007 1.031869 0
vt 0.314233989 1.065681 0
vt 0.402938008 1.065299 0
vt 0.497985005 1.031124 0
vt 0.578549981 0.999658 0
vt 0.587652981 1.030738 0
vt 0.653750002 0.999335 0
vt 0.341951996 1.000674 0
vt 0.253006011 1.032177 0
vt 0.238061994 1.066008 0
vt 0.233117998 1.101146 0
vt 0.310781986 1.100812 0
vt 0.401225001 1.100423 0
vt 0.498129994 1.06489 0
vt 0.277375996 1.000952 0
vt 0.197949007 1.032413 0
vt 0.179612994 1.066259 0
vt 0.173524007 1.101402 0
vt 0.0683669969 1.82185799 0
vt 0.147826001 1.821518 0
vt 0.251378 1.82107198 0
vt 0.227825999 1.001165 0
vt 0.163338006 1.032562 0
vt 0.142871007 1.066417 0
vt 0.136061996 1.101563 0
vt 0.0184170008 1.82207298 0
vt 0.0278479997 1.85715002 0
vt 0.0768370032 1.85693902 0
vt 0.196676999 1.001299 0
vt 0.151532993 1.032613 0
vt 0.130338997 1.066471 0
vt 0.123283997 1.101618 0
vt 0.00138000003 1.82214701 0
vt 0.0111379996 1.85722101 0
vt 0.186052993 1.001345 0
vt 0.147825003 1.82151699 0
vt 0.154769003 1.85660398 0
vt 0.25633201 1.85616702 0
vt 0.371966988 1.82055402 0
vt 0.374605 1.85565901 0
vt 0.498281002 1.100006 0
vt 0.50137502 1.81999803 0
vt 0.501525998 1.85511398 0
vt 0.593321025 1.064481 0
vt 0.595336974 1.099589 0
vt 0.630783021 1.81944197 0
vt 0.628448009 1.854568 0
vt 0.671211004 1.030379 0
vt 0.682025015 1.0641 0
vt 0.685778975 1.0992 0
vt 0.751372993 1.818923 0
vt 0.746721029 1.85405898 0
vt 0.742963016 1.030071 0
vt 0.75819701 1.063772 0
vt 0.763444006 1.098866 0
vt 0.85492599 1.81847799 0
vt 0.848282993 1.85362297 0
vt 0.718325019 0.999057 0
vt 0.798020005 1.029834 0
vt 0.81664598 1.063521 0
vt 0.823037028 1.09861 0
vt 0.934383988 1.81813598 0
vt 0.926214993 1.853288 0
vt 0.767876029 0.998844 0
vt 0.832630992 1.029685 0
vt 0.853389025 1.063363 0
vt 0.860499024 1.098449 0
vt 0.984333992 1.81792098 0
vt 0.975205004 1.85307699 0
vt 0.799024999 0.99871 0
vt 0.84443599 1.029635 0
vt 0.865921021 1.063309 0
vt 0.873278022 1.098394 0
vt 1.00137103 1.81784803 0
vt 0.991913974 1.85300601 0
vt 0.809648991 0.998664 0
vt 0.823037982 1.09861 0
vt 0.630783975 1.81944102 0
vt 0.621228993 1.88836497 0
vt 0.732639015 1.887887 0
vt 0.50137502 1.81999701 0
vt 0.501672029 1.88888001 0
vt 0.501805007 1.91999799 0
vt 0.609404027 1.91953599 0
vt 0.382113993 1.88939398 0
vt 0.394205987 1.920461 0
vt 0.410416991 1.94766903 0
vt 0.501922011 1.94727498 0
vt 0.270704001 1.88987303 0
vt 0.293940008 1.92089301 0
vt 0.325147003 1.948035 0
vt 0.363126993 1.97025698 0
vt 0.430124015 1.96996898 0
vt 0.175034001 1.890284 0
vt 0.207838997 1.92126298 0
vt 0.251924992 1.948349 0
vt 0.305597007 1.97050399 0
vt 0.101623997 1.89059901 0
vt 0.141771004 1.921547 0
vt 0.195739001 1.94859099 0
vt 0.261451989 1.970694 0
vt 0.336385012 1.98700601 0
vt 0.366793007 1.986875 0
vt 0.0554759987 1.89079797 0
vt 0.10024 1.92172498 0
vt 0.160419002 1.94874299 0
vt 0.233702004 1.97081298 0
vt 0.317270011 1.98708803 0
vt 0.039735999 1.89086503 0
vt 0.0860740021 1.92178601 0
vt 0.148371994 1.94879502 0
vt 0.224235997 1.97085398 0
vt 0.310750008 1.98711598 0
vt 0.406419992 1.98670501 0
vt 0.452567995 1.986507 0
vt 0.502017975 1.96965998 0
vt 0.502089977 1.98629302 0
vt 0.593428016 1.94688201 0
vt 0.573913991 1.96935099 0
vt 0.55161202 1.986081 0
vt 0.709671021 1.91910499 0
vt 0.678698003 1.94651598 0
vt 0.640910029 1.96906298 0
vt 0.597760022 1.985883 0
vt 0.828309 1.88747603 0
vt 0.795771003 1.91873503 0
vt 0.751919985 1.94620103 0
vt 0.698440015 1.96881598 0
vt 0.637387991 1.98571199 0
vt 0.901718974 1.88716 0
vt 0.861838996 1.91845101 0
vt 0.808106005 1.94595897 0
vt 0.742585003 1.96862602 0
vt 0.667796016 1.98558199 0
vt 0.947866976 1.886962 0
vt 0.903370023 1.91827297 0
vt 0.843425989 1.94580698 0
vt 0.770335972 1.96850699 0
vt 0.686909974 1.98549902 0
vt 0.963607013 1.88689399 0
vt 0.917536974 1.918212 0
vt 0.855472982 1.94575602 0
vt 0.779802024 1.968467 0
vt 0.693430007 1.98547202 0
vt 0.550907016 1.99632698 0
vt 0.571107984 1.99624002 0
vt 0.52737999 1.99642801 0
vt 0.502148986 1.99999499 0
vt 0.586610019 1.99617398 0
vt 0.502134025 1.99653703 0
vt 0.476888001 1.99664599 0
vt 0.453361988 1.996746 0
vt 0.433160007 1.99683303 0
vt 0.417658001 1.99690002 0
vt 0.407914013 1.99694198 0
vt 0.404590011 1.99695599 0
vt 0.596355021 1.996131 0
vt 0.599678993 1.99611801 0

# 289 vertex normals
vn 0.928193033 0 0.372099042
vn 0.896566153 0.240234047 0.372098058
vn 0.922063351 0.247066095 0.297922105
vn 0.826699317 0.47729519 0.297922105
vn 0.856464207 0.494480103 0.148184031
vn 0.955261767 0.255961955 0.148183972
vn 0.954590201 0 0.297922045
vn 0.896565557 -0.240234882 0.372098833
vn 0.922063351 -0.247066095 0.297922105
vn 0.803838313 -0.464097172 0.372099131
vn 0.803839028 0.464096993 0.372097999
vn 0.674996734 0.674997747 0.297921866
vn 0.699299693 0.699300706 0.148183942
vn 0.705973029 0.705973983 0.0565939993
vn 0.864637196 0.499199092 0.0565940104
vn 0.964377642 0.258404911 0.0565939806
vn 0.988959908 0 0.148183987
vn 0.656331897 0.656331897 0.372097939
vn 0.477294028 0.826700032 0.297922015
vn 0.494479358 0.856464624 0.148184106
vn 0.499199092 0.864637196 0.0565940104
vn 0.499784946 0.865652859 -0.0293279961
vn 0.706802607 0.706802607 -0.029327983
vn 0.865652859 0.499784946 -0.0293279961
vn 0.464096189 0.803839386 0.372098148
vn 0.247066095 0.922063351 0.297922105
vn 0.255961955 0.955261767 0.148183972
vn 0.258403957 0.96437788 0.0565939918
vn 0.25870806 0.965510249 -0.0293280073
vn 0.253844053 0.947360218 -0.195120052
vn 0.490389884 0.849379838 -0.195119962
vn 0.240234047 0.896566153 0.372098058
vn 0 0.954590201 0.297922045
vn 9.99999884e-07 0.988959908 0.148183987
vn 0 0.998397291 0.0565940179
vn 0 0.999569893 -0.0293279961
vn 0 0.980779171 -0.195121035
vn 0 0.928193569 0.37209782
vn -0.247064933 0.922063768 0.297921896
vn -0.255961001 0.955262005 0.148184001
vn -0.258403957 0.96437788 0.0565939918
vn -0.25870806 0.965510249 -0.0293280073
vn -0.253844053 0.947360218 -0.195120052
vn -0.240234047 0.896566153 0.372098058
vn -0.477294028 0.826700032 0.297922015
vn -0.494478941 0.856464863 0.148183987
vn -0.499199092 0.864637196 0.0565940104
vn -0.499784946 0.865652859 -0.0293279961
vn -0.490389884 0.849379838 -0.195119962
vn -0.464095831 0.803839684 0.37209788
vn -0.674996257 0.674998224 0.297922105
vn -0.69930017 0.69930017 0.148184046
vn -0.705973983 0.705973029 0.0565939993
vn -0.706802607 0.706802607 -0.029327983
vn -0.693515658 0.693515658 -0.195120916
vn -0.656330645 0.656332672 0.372098833
vn -0.826699317 0.47729519 0.297922105
vn -0.856464863 0.494478941 0.148183987
vn -0.864637196 0.499199092 0.0565940104
vn -0.865652859 0.499784946 -0.0293279961
vn -0.849379718 0.490389824 -0.195120946
vn -0.803838313 0.464097172 0.372099131
vn -0.922063351 0.247066095 0.297922105
vn -0.955262005 0.255961001 0.148184001
vn -0.96437788 0.258403957 0.0565939918
vn -0.965510249 0.25870806 -0.0293280073
vn -0.947360039 0.253844023 -0.19512102
vn -0.896565557 0.240234882 0.372098833
vn -0.954590201 0 0.297922045
vn -0.988959908 0 0.148183987
vn -0.998397291 0 0.0565940179
vn -0.999569893 0 -0.0293279961
vn -0.980779171 0 -0.195121035
vn -0.928193033 0 0.372099042
vn -0.922063351 -0.247066095 0.297922105
vn -0.955262005 -0.255961001 0.148184001
vn -0.96437788 -0.258403957 0.0565939918
vn -0.965510249 -0.25870806 -0.0293280073
vn -0.947360039 -0.253844023 -0.19512102
vn -0.896566153 -0.240234047 0.372098058
vn -0.826699317 -0.47729519 0.297922105
vn -0.856464207 -0.494480103 0.148184031
vn -0.864637196 -0.499199092 0.0565940104
vn -0.865652859 -0.499784946 -0.0293279961
vn -0.849379718 -0.490389824 -0.195120946
vn -0.803839028 -0.464096993 0.372097999
vn -0.674996734 -0.674997747 0.297921866
vn -0.69930017 -0.69930017 0.148184046
vn -0.705973983 -0.705973029 0.0565939993
vn -0.706802607 -0.706802607 -0.029327983
vn -0.693515658 -0.693515658 -0.195120916
vn -0.656331897 -0.656331897 0.372097939
vn -0.477294028 -0.826700032 0.297922015
vn -0.494480103 -0.856464207 0.148184031
vn -0.499199092 -0.864637196 0.0565940104
vn -0.499784946 -0.865652859 -0.0293279961
vn -0.490389824 -0.849379718 -0.195120946
vn -0.464096189 -0.803839386 0.372098148
vn -0.247066095 -0.922063351 0.297922105
vn -0.255961955 -0.955261767 0.148183972
vn -0.258404911 -0.964377642 0.0565939806
vn -0.25870806 -0.965510249 -0.0293280073
vn -0.253844023 -0.947360039 -0.19512102
vn -0.240234047 -0.896566153 0.372098058
vn 0 -0.954590201 0.297922045
vn -9.99999884e-07 -0.988959908 0.148183987
vn 0 -0.998397291 0.0565940179
vn 0 -0.999569893 -0.0293279961
vn 0 -0.980779171 -0.195121035
vn 0 -0.928193569 0.37209782
vn 0.247064933 -0.922063768 0.297921896
vn 0.255960971 -0.955261886 0.148184985
vn 0.258403957 -0.96437788 0.0565939918
vn 0.25870806 -0.965510249 -0.0293280073
vn 0.253844023 -0.947360039 -0.19512102
vn 0.240234047 -0.896566153 0.372098058
vn 0.477294028 -0.826700032 0.297922015
vn 0.494479269 -0.856464505 0.148185074
vn 0.499199092 -0.864637196 0.0565940104
vn 0.499784946 -0.865652859 -0.0293289963
vn 0.490389824 -0.849379718 -0.195120946
vn 0.464095831 -0.803839684 0.37209788
vn 0.674996257 -0.674998224 0.297922105
vn 0.69930011 -0.69930011 0.14818503
vn 0.705973983 -0.705973029 0.0565939993
vn 0.706803083 -0.70680207 -0.0293290038
vn 0.693515658 -0.693515658 -0.195120916
vn 0.656330645 -0.656332672 0.372098833
vn 0.826699317 -0.47729519 0.297922105
vn 0.856464207 -0.494480103 0.148184031
vn 0.864637196 -0.499199092 0.0565940104
vn 0.865652859 -0.499784946 -0.0293289963
vn 0.849379718 -0.490389824 -0.195120946
vn 0.955262005 -0.255961001 0.148184001
vn 0.964377761 -0.258403927 0.0565949865
vn 0.96551019 -0.25870806 -0.0293290056
vn 0.947360039 -0.253844023 -0.19512102
vn 0.892377794 -0.239111945 -0.382736921
vn 0.800083935 -0.461928934 -0.382736981
vn 0.998397291 0 0.0565940179
vn 0.999569893 0 -0.0293279961
vn 0.980779171 0 -0.195121035
vn 0.923857331 0 -0.38273716
vn 0.831427455 0 -0.555633366
vn 0.803097367 -0.215189084 -0.555633247
vn 0.965510249 0.25870806 -0.0293280073
vn 0.947360039 0.253844023 -0.19512102
vn 0.892377794 0.239111945 -0.382736921
vn 0.803097367 0.215189084 -0.555633247
vn 0.682956159 0.182998046 -0.707165182
vn 0.707048297 0 -0.707165301
vn 0.849379838 0.490389884 -0.195119962
vn 0.800083935 0.461928934 -0.382736981
vn 0.720037222 0.415714115 -0.555633187
vn 0.612322092 0.353524059 -0.707165122
vn 0.481083065 0.277753025 -0.831512094
vn 0.536578119 0.143776029 -0.831512094
vn 0.693515778 0.693515778 -0.195119932
vn 0.653265834 0.653265834 -0.382736921
vn 0.587908149 0.587908149 -0.555633128
vn 0.499958932 0.499958932 -0.707164943
vn 0.392802924 0.392802924 -0.831511796
vn 0.461928934 0.800083935 -0.382736981
vn 0.415713906 0.720036805 -0.555633903
vn 0.353524059 0.612322092 -0.707165122
vn 0.277753025 0.481083065 -0.831512094
vn 0.19131498 0.331366926 -0.923901856
vn 0.270559967 0.270559967 -0.923901856
vn 0.239111945 0.892377794 -0.382736921
vn 0.215189084 0.803097367 -0.555633247
vn 0.182998046 0.682956159 -0.707165182
vn 0.143776029 0.536578119 -0.831512094
vn 0.0990319923 0.369591951 -0.923901856
vn 0 0.923857331 -0.38273716
vn 0 0.831427455 -0.555633366
vn 0 0.707048297 -0.707165301
vn 0 0.555507004 -0.831511974
vn 0 0.382629067 -0.923902094
vn -0.239111945 0.892377794 -0.382736921
vn -0.215189084 0.803097367 -0.555633247
vn -0.182998046 0.682956159 -0.707165182
vn -0.143776029 0.536578119 -0.831512094
vn -0.0990319923 0.369591951 -0.923901856
vn -0.461928934 0.800083935 -0.382736981
vn -0.415714115 0.720037222 -0.555633187
vn -0.353524059 0.612322092 -0.707165122
vn -0.277753025 0.481083065 -0.831512094
vn -0.19131498 0.331366926 -0.923901856
vn -0.653265834 0.653265834 -0.382736921
vn -0.587907791 0.587907791 -0.555633843
vn -0.499958932 0.499958932 -0.707164943
vn -0.392802924 0.392802924 -0.831511796
vn -0.270559967 0.270559967 -0.923901856
vn -0.800083935 0.461928934 -0.382736981
vn -0.720037222 0.415714115 -0.555633187
vn -0.612322092 0.353524059 -0.707165122
vn -0.481083065 0.277753025 -0.831512094
vn -0.331366926 0.19131498 -0.923901856
vn -0.892377794 0.239111945 -0.382736921
vn -0.803097367 0.215189084 -0.555633247
vn -0.682956159 0.182998046 -0.707165182
vn -0.536578119 0.143776029 -0.831512094
vn -0.369591951 0.0990319923 -0.923901856
vn -0.923857331 0 -0.38273716
vn -0.831427455 0 -0.555633366
vn -0.707048297 0 -0.707165301
vn -0.555507004 0 -0.831511974
vn -0.382629067 0 -0.923902094
vn -0.892377794 -0.239111945 -0.382736921
vn -0.803097367 -0.215189084 -0.555633247
vn -0.682956159 -0.182998046 -0.707165182
vn -0.536578119 -0.143776029 -0.831512094
vn -0.369591951 -0.0990319923 -0.923901856
vn -0.800083935 -0.461928934 -0.382736981
vn -0.720037222 -0.415714115 -0.555633187
vn -0.612322092 -0.353524059 -0.707165122
vn -0.481083065 -0.277753025 -0.831512094
vn -0.331366926 -0.19131498 -0.923901856
vn -0.653265834 -0.653265834 -0.382736921
vn -0.587908149 -0.587908149 -0.555633128
vn -0.499958932 -0.499958932 -0.707164943
vn -0.392802924 -0.392802924 -0.831511796
vn -0.270559967 -0.270559967 -0.923901856
vn -0.461928934 -0.800083935 -0.382736981
vn -0.415713906 -0.720036805 -0.555633903
vn -0.353524059 -0.612322092 -0.707165122
vn -0.277753025 -0.481083065 -0.831512094
vn -0.19131498 -0.331366926 -0.923901856
vn -0.239111945 -0.892377794 -0.382736921
vn -0.215189084 -0.803097367 -0.555633247
vn -0.182998046 -0.682956159 -0.707165182
vn -0.143776029 -0.536578119 -0.831512094
vn -0.0990319923 -0.369591951 -0.923901856
vn 0 -0.923857331 -0.38273716
vn 0 -0.831427455 -0.555633366
vn 0 -0.707048297 -0.707165301
vn 0 -0.555507004 -0.831511974
vn 0 -0.382629067 -0.923902094
vn 0.239111945 -0.892377794 -0.382736921
vn 0.215189084 -0.803097367 -0.555633247
vn 0.182998046 -0.682956159 -0.707165182
vn 0.143776029 -0.536578119 -0.831512094
vn 0.0990319923 -0.369591951 -0.923901856
vn 0.461928934 -0.800083935 -0.382736981
vn 0.415714115 -0.720037222 -0.555633187
vn 0.353524059 -0.612322092 -0.707165122
vn 0.277753025 -0.481083065 -0.831512094
vn 0.19131498 -0.331366926 -0.923901856
vn 0.653265834 -0.653265834 -0.382736921
vn 0.587907791 -0.587907791 -0.555633843
vn 0.499958932 -0.499958932 -0.707164943
vn 0.392802924 -0.392802924 -0.831511796
vn 0.270559967 -0.270559967 -0.923901856
vn 0.720037222 -0.415714115 -0.555633187
vn 0.612322092 -0.353524059 -0.707165122
vn 0.481083065 -0.277753025 -0.831512094
vn 0.331366926 -0.19131498 -0.923901856
vn 0.168925941 -0.0975289643 -0.980791628
vn 0.137927085 -0.137927085 -0.980791628
vn 0.682956159 -0.182998046 -0.707165182
vn 0.536578119 -0.143776029 -0.831512094
vn 0.369591951 -0.0990319923 -0.923901856
vn 0.188412115 -0.0504850335 -0.980791628
vn 0 0 -1
vn 0.0975290611 -0.168926105 -0.980791569
vn 0.555507004 0 -0.831511974
vn 0.382629067 0 -0.923902094
vn 0.195059106 0 -0.980791509
vn 0.369591951 0.0990319923 -0.923901856
vn 0.188412115 0.0504850335 -0.980791628
vn 0.331366926 0.19131498 -0.923901856
vn 0.168926105 0.0975290611 -0.980791569
vn 0.137927085 0.137927085 -0.980791628
vn 0.0975290611 0.168926105 -0.980791569
vn 0.0504849814 0.188411921 -0.980791628
vn 0 0.195058942 -0.980791628
vn -0.0504849814 0.188411921 -0.980791628
vn -0.0975290611 0.168926105 -0.980791569
vn -0.137927085 0.137927085 -0.980791628
vn -0.168925941 0.0975289643 -0.980791628
vn -0.188412115 0.0504850335 -0.980791628
vn -0.195059106 0 -0.980791509
vn -0.188412115 -0.0504850335 -0.980791628
vn -0.168926105 -0.0975290611 -0.980791569
vn -0.137927085 -0.137927085 -0.980791628
vn -0.0975290611 -0.168926105 -0.980791569
vn -0.0504849814 -0.188411921 -0.980791628
vn 0 -0.195058942 -0.980791628
vn 0.0504849814 -0.188411921 -0.980791628

# Mesh 'ThrustCylinderShape' with 552 faces
g ThrustCylinderShape
usemtl DefaultMaterial
f  1/1/1 2/2/2 3/3/3
f  4/2/2 5/4/4 6/3/3
f  7/3/3 8/4/4 9/5/5
f  10/3/3 11/5/5 12/6/6
f  13/7/7 14/3/3 15/6/6
f  16/1/1 17/3/3 18/7/7
f  19/8/8 20/1/1 21/7/7
f  22/8/8 23/7/7 24/9/9
f  25/10/10 26/8/8 27/9/9
f  28/2/2 29/11/11 30/4/4
f  31/11/11 32/12/12 33/4/4
f  34/4/4 35/12/12 36/13/13
f  37/4/4 38/13/13 39/5/5
f  40/5/5 41/13/13 42/14/14
f  43/5/5 44/14/14 45/15/15
f  46/6/6 47/5/5 48/15/15
f  49/6/6 50/15/15 51/16/16
f  52/17/17 53/6/6 54/16/16
f  55/7/7 56/6/6 57/17/17
f  58/9/9 59/7/7 60/17/17
f  61/11/11 62/18/18 63/12/12
f  64/18/18 65/19/19 66/12/12
f  67/12/12 68/19/19 69/20/20
f  70/12/12 71/20/20 72/13/13
f  73/13/13 74/20/20 75/21/21
f  76/13/13 77/21/21 78/14/14
f  79/14/14 80/21/21 81/22/22
f  82/14/14 83/22/22 84/23/23
f  85/15/15 86/14/14 87/23/23
f  88/15/15 89/23/23 90/24/24
f  91/16/16 92/15/15 93/24/24
f  94/18/18 95/25/25 96/19/19
f  97/25/25 98/26/26 99/19/19
f  100/19/19 101/26/26 102/27/27
f  103/19/19 104/27/27 105/20/20
f  106/20/20 107/27/27 108/28/28
f  109/20/20 110/28/28 111/21/21
f  112/21/21 113/28/28 114/29/29
f  115/21/21 116/29/29 117/22/22
f  118/22/22 119/29/29 120/30/30
f  121/22/22 122/30/30 123/31/31
f  124/23/23 125/22/22 126/31/31
f  127/25/25 128/32/32 129/26/26
f  130/32/32 131/33/33 132/26/26
f  133/26/26 134/33/33 135/34/34
f  136/26/26 137/34/34 138/27/27
f  139/27/27 140/34/34 141/35/35
f  142/27/27 143/35/35 144/28/28
f  145/28/28 146/35/35 147/36/36
f  148/28/28 149/36/36 150/29/29
f  151/29/29 152/36/36 153/37/37
f  154/29/29 155/37/37 156/30/30
f  157/32/32 158/38/38 159/33/33
f  160/38/38 161/26/39 162/33/33
f  163/33/33 164/26/39 165/27/40
f  166/33/33 167/27/40 168/34/34
f  169/34/34 170/27/40 171/28/41
f  172/34/34 173/28/41 174/35/35
f  175/35/35 176/28/41 177/29/42
f  178/35/35 179/29/42 180/36/36
f  181/36/36 182/29/42 183/30/43
f  184/36/36 185/30/43 186/37/37
f  187/38/38 188/32/44 189/26/39
f  190/32/44 191/19/45 192/26/39
f  193/26/39 194/19/45 195/20/46
f  196/26/39 197/20/46 198/27/40
f  199/27/40 200/20/46 201/21/47
f  202/27/40 203/21/47 204/28/41
f  205/28/41 206/21/47 207/22/48
f  208/28/41 209/22/48 210/29/42
f  211/29/42 212/22/48 213/31/49
f  214/29/42 215/31/49 216/30/43
f  217/32/44 218/25/50 219/19/45
f  220/25/50 221/12/51 222/19/45
f  223/19/45 224/12/51 225/13/52
f  226/19/45 227/13/52 228/20/46
f  229/20/46 230/13/52 231/14/53
f  232/20/46 233/14/53 234/21/47
f  235/21/47 236/14/53 237/39/54
f  238/21/47 239/39/54 240/22/48
f  241/22/48 242/39/54 243/40/55
f  244/22/48 245/40/55 246/31/49
f  247/25/50 248/18/56 249/12/51
f  250/18/56 251/4/57 252/12/51
f  253/12/51 254/4/57 255/5/58
f  256/12/51 257/5/58 258/13/52
f  259/13/52 260/5/58 261/15/59
f  262/13/52 263/15/59 264/14/53
f  265/14/53 266/15/59 267/24/60
f  268/14/53 269/24/60 270/39/54
f  271/39/54 272/24/60 273/41/61
f  274/39/54 275/41/61 276/40/55
f  277/18/56 278/11/62 279/4/57
f  280/11/62 281/3/63 282/4/57
f  283/4/57 284/3/63 285/6/64
f  286/4/57 287/6/64 288/5/58
f  289/5/58 290/6/64 291/16/65
f  292/5/58 293/16/65 294/15/59
f  295/15/59 296/16/65 297/42/66
f  298/15/59 299/42/66 300/24/60
f  301/24/60 302/42/66 303/43/67
f  304/24/60 305/43/67 306/41/61
f  307/11/62 308/2/68 309/3/63
f  310/2/68 311/7/69 312/3/63
f  313/3/63 314/7/69 315/17/70
f  316/3/63 317/17/70 318/6/64
f  319/6/64 320/17/70 321/44/71
f  322/6/64 323/44/71 324/16/65
f  325/16/65 326/44/71 327/45/72
f  328/16/65 329/45/72 330/42/66
f  331/42/66 332/45/72 333/46/73
f  334/42/66 335/46/73 336/43/67
f  337/2/68 338/1/74 339/7/69
f  340/1/74 341/9/75 342/7/69
f  343/7/69 344/9/75 345/47/76
f  346/7/69 347/47/76 348/17/70
f  349/17/70 350/47/76 351/48/77
f  352/17/70 353/48/77 354/44/71
f  355/44/71 356/48/77 357/49/78
f  358/44/71 359/49/78 360/45/72
f  361/45/72 362/49/78 363/50/79
f  364/45/72 365/50/79 366/46/73
f  367/1/74 368/8/80 369/9/75
f  370/8/80 371/51/81 372/9/75
f  373/9/75 374/51/81 375/52/82
f  376/9/75 377/52/82 378/47/76
f  379/47/76 380/52/82 381/53/83
f  382/47/76 383/53/83 384/48/77
f  385/48/77 386/53/83 387/54/84
f  388/48/77 389/54/84 390/49/78
f  391/49/78 392/54/84 393/55/85
f  394/49/78 395/55/85 396/50/79
f  397/8/80 398/10/86 399/51/81
f  400/10/86 401/56/87 402/51/81
f  403/51/81 404/56/87 405/57/88
f  406/51/81 407/57/88 408/52/82
f  409/52/82 410/57/88 411/58/89
f  412/52/82 413/58/89 414/53/83
f  415/53/83 416/58/89 417/59/90
f  418/53/83 419/59/90 420/54/84
f  421/54/84 422/59/90 423/60/91
f  424/54/84 425/60/91 426/55/85
f  427/10/86 428/61/92 429/56/87
f  430/61/92 431/62/93 432/56/87
f  433/56/87 434/62/93 435/63/94
f  436/56/87 437/63/94 438/57/88
f  439/57/88 440/63/94 441/64/95
f  442/57/88 443/64/95 444/58/89
f  445/58/89 446/64/95 447/65/96
f  448/58/89 449/65/96 450/59/90
f  451/59/90 452/65/96 453/66/97
f  454/59/90 455/66/97 456/60/91
f  457/61/92 458/67/98 459/62/93
f  460/67/98 461/68/99 462/62/93
f  463/62/93 464/68/99 465/69/100
f  466/62/93 467/69/100 468/63/94
f  469/63/94 470/69/100 471/70/101
f  472/63/94 473/70/101 474/64/95
f  475/64/95 476/70/101 477/71/102
f  478/64/95 479/71/102 480/65/96
f  481/65/96 482/71/102 483/72/103
f  484/65/96 485/72/103 486/66/97
f  487/67/98 488/73/104 489/68/99
f  490/73/104 491/74/105 492/68/99
f  493/68/99 494/74/105 495/75/106
f  496/68/99 497/75/106 498/69/100
f  499/69/100 500/75/106 501/76/107
f  502/69/100 503/76/107 504/70/101
f  505/70/101 506/76/107 507/77/108
f  508/70/101 509/77/108 510/71/102
f  511/71/102 512/77/108 513/78/109
f  514/71/102 515/78/109 516/72/103
f  517/73/104 518/79/110 519/74/105
f  520/79/110 521/68/111 522/74/105
f  523/74/105 524/68/111 525/69/112
f  526/74/105 527/69/112 528/75/106
f  529/75/106 530/69/112 531/70/113
f  532/75/106 533/70/113 534/76/107
f  535/76/107 536/70/113 537/71/114
f  538/76/107 539/71/114 540/77/108
f  541/77/108 542/71/114 543/72/115
f  544/77/108 545/72/115 546/78/109
f  547/79/110 548/73/116 549/68/111
f  550/73/116 551/62/117 552/68/111
f  553/68/111 554/62/117 555/63/118
f  556/68/111 557/63/118 558/69/112
f  559/69/112 560/63/118 561/80/119
f  562/69/112 563/80/119 564/70/113
f  565/70/113 566/80/119 567/65/120
f  568/70/113 569/65/120 570/71/114
f  571/71/114 572/65/120 573/66/121
f  574/71/114 575/66/121 576/72/115
f  577/73/116 578/67/122 579/62/117
f  580/67/122 581/56/123 582/62/117
f  583/62/117 584/56/123 585/57/124
f  586/62/117 587/57/124 588/63/118
f  589/63/118 590/57/124 591/58/125
f  592/63/118 593/58/125 594/80/119
f  595/80/119 596/58/125 597/59/126
f  598/80/119 599/59/126 600/65/120
f  601/65/120 602/59/126 603/60/127
f  604/65/120 605/60/127 606/66/121
f  607/67/122 608/61/128 609/56/123
f  610/61/128 611/51/129 612/56/123
f  613/56/123 614/51/129 615/52/130
f  616/56/123 617/52/130 618/57/124
f  619/57/124 620/52/130 621/53/131
f  622/57/124 623/53/131 624/58/125
f  625/58/125 626/53/131 627/54/132
f  628/58/125 629/54/132 630/59/126
f  631/59/126 632/54/132 633/55/133
f  634/59/126 635/55/133 636/60/127
f  637/61/128 638/10/10 639/51/129
f  640/10/10 641/9/9 642/51/129
f  643/51/129 644/9/9 645/47/134
f  646/51/129 647/47/134 648/52/130
f  649/52/130 650/47/134 651/48/135
f  652/52/130 653/48/135 654/53/131
f  655/53/131 656/48/135 657/81/136
f  658/53/131 659/81/136 660/54/132
f  661/54/132 662/81/136 663/50/137
f  664/54/132 665/50/137 666/55/133
f  667/55/133 668/50/137 669/82/138
f  670/55/133 671/82/138 672/83/139
f  673/60/127 674/55/133 675/83/139
f  676/9/9 677/17/17 678/47/134
f  679/47/134 680/17/17 681/44/140
f  682/47/134 683/44/140 684/48/135
f  685/48/135 686/44/140 687/84/141
f  688/48/135 689/84/141 690/81/136
f  691/81/136 692/84/141 693/46/142
f  694/81/136 695/46/142 696/50/137
f  697/50/137 698/46/142 699/85/143
f  700/50/137 701/85/143 702/82/138
f  703/82/138 704/85/143 705/86/144
f  706/82/138 707/86/144 708/87/145
f  709/83/139 710/82/138 711/87/145
f  712/17/17 713/16/16 714/44/140
f  715/44/140 716/16/16 717/42/146
f  718/44/140 719/42/146 720/84/141
f  721/84/141 722/42/146 723/43/147
f  724/84/141 725/43/147 726/46/142
f  727/46/142 728/43/147 729/88/148
f  730/46/142 731/88/148 732/85/143
f  733/85/143 734/88/148 735/89/149
f  736/85/143 737/89/149 738/86/144
f  739/86/144 740/89/149 741/90/150
f  742/86/144 743/90/150 744/91/151
f  745/87/145 746/86/144 747/91/151
f  748/16/16 749/24/24 750/42/146
f  751/42/146 752/24/24 753/41/152
f  754/42/146 755/41/152 756/43/147
f  757/43/147 758/41/152 759/92/153
f  760/43/147 761/92/153 762/88/148
f  763/88/148 764/92/153 765/93/154
f  766/88/148 767/93/154 768/89/149
f  769/89/149 770/93/154 771/94/155
f  772/89/149 773/94/155 774/90/150
f  775/90/150 776/94/155 777/95/156
f  778/90/150 779/95/156 780/96/157
f  781/91/151 782/90/150 783/96/157
f  784/24/24 785/40/158 786/41/152
f  787/41/152 788/40/158 789/97/159
f  790/41/152 791/97/159 792/92/153
f  793/92/153 794/97/159 795/98/160
f  796/92/153 797/98/160 798/93/154
f  799/93/154 800/98/160 801/99/161
f  802/93/154 803/99/161 804/94/155
f  805/94/155 806/99/161 807/100/162
f  808/94/155 809/100/162 810/95/156
f  811/24/24 812/23/23 813/40/158
f  814/23/23 815/31/31 816/40/158
f  817/40/158 818/31/31 819/101/163
f  820/40/158 821/101/163 822/97/159
f  823/97/159 824/101/163 825/102/164
f  826/97/159 827/102/164 828/98/160
f  829/98/160 830/102/164 831/103/165
f  832/98/160 833/103/165 834/99/161
f  835/99/161 836/103/165 837/104/166
f  838/99/161 839/104/166 840/100/162
f  841/100/162 842/104/166 843/105/167
f  844/100/162 845/105/167 846/106/168
f  847/95/156 848/100/162 849/106/168
f  850/31/31 851/107/169 852/101/163
f  853/101/163 854/107/169 855/108/170
f  856/101/163 857/108/170 858/102/164
f  859/102/164 860/108/170 861/109/171
f  862/102/164 863/109/171 864/103/165
f  865/103/165 866/109/171 867/110/172
f  868/103/165 869/110/172 870/104/166
f  871/104/166 872/110/172 873/111/173
f  874/104/166 875/111/173 876/105/167
f  877/31/31 878/30/30 879/107/169
f  880/30/30 881/112/174 882/107/169
f  883/107/169 884/112/174 885/113/175
f  886/107/169 887/113/175 888/108/170
f  889/108/170 890/113/175 891/114/176
f  892/108/170 893/114/176 894/109/171
f  895/109/171 896/114/176 897/115/177
f  898/109/171 899/115/177 900/110/172
f  901/110/172 902/115/177 903/116/178
f  904/110/172 905/116/178 906/111/173
f  907/30/30 908/37/37 909/112/174
f  910/37/37 911/107/179 912/112/174
f  913/112/174 914/107/179 915/108/180
f  916/112/174 917/108/180 918/113/175
f  919/113/175 920/108/180 921/109/181
f  922/113/175 923/109/181 924/114/176
f  925/114/176 926/109/181 927/110/182
f  928/114/176 929/110/182 930/115/177
f  931/115/177 932/110/182 933/111/183
f  934/115/177 935/111/183 936/116/178
f  937/37/37 938/30/43 939/107/179
f  940/30/43 941/101/184 942/107/179
f  943/107/179 944/101/184 945/102/185
f  946/107/179 947/102/185 948/108/180
f  949/108/180 950/102/185 951/103/186
f  952/108/180 953/103/186 954/109/181
f  955/109/181 956/103/186 957/104/187
f  958/109/181 959/104/187 960/110/182
f  961/110/182 962/104/187 963/105/188
f  964/110/182 965/105/188 966/111/183
f  967/30/43 968/31/49 969/101/184
f  970/31/49 971/97/189 972/101/184
f  973/101/184 974/97/189 975/98/190
f  976/101/184 977/98/190 978/102/185
f  979/102/185 980/98/190 981/99/191
f  982/102/185 983/99/191 984/103/186
f  985/103/186 986/99/191 987/100/192
f  988/103/186 989/100/192 990/104/187
f  991/104/187 992/100/192 993/106/193
f  994/104/187 995/106/193 996/105/188
f  997/31/49 998/40/55 999/97/189
f  1000/40/55 1001/92/194 1002/97/189
f  1003/97/189 1004/92/194 1005/93/195
f  1006/97/189 1007/93/195 1008/98/190
f  1009/98/190 1010/93/195 1011/94/196
f  1012/98/190 1013/94/196 1014/99/191
f  1015/99/191 1016/94/196 1017/95/197
f  1018/99/191 1019/95/197 1020/100/192
f  1021/100/192 1022/95/197 1023/117/198
f  1024/100/192 1025/117/198 1026/106/193
f  1027/40/55 1028/41/61 1029/92/194
f  1030/41/61 1031/88/199 1032/92/194
f  1033/92/194 1034/88/199 1035/89/200
f  1036/92/194 1037/89/200 1038/93/195
f  1039/93/195 1040/89/200 1041/90/201
f  1042/93/195 1043/90/201 1044/94/196
f  1045/94/196 1046/90/201 1047/96/202
f  1048/94/196 1049/96/202 1050/95/197
f  1051/95/197 1052/96/202 1053/118/203
f  1054/95/197 1055/118/203 1056/117/198
f  1057/41/61 1058/43/67 1059/88/199
f  1060/43/67 1061/85/204 1062/88/199
f  1063/88/199 1064/85/204 1065/86/205
f  1066/88/199 1067/86/205 1068/89/200
f  1069/89/200 1070/86/205 1071/91/206
f  1072/89/200 1073/91/206 1074/90/201
f  1075/90/201 1076/91/206 1077/119/207
f  1078/90/201 1079/119/207 1080/96/202
f  1081/96/202 1082/119/207 1083/120/208
f  1084/96/202 1085/120/208 1086/118/203
f  1087/43/67 1088/46/73 1089/85/204
f  1090/46/73 1091/82/209 1092/85/204
f  1093/85/204 1094/82/209 1095/87/210
f  1096/85/204 1097/87/210 1098/86/205
f  1099/86/205 1100/87/210 1101/121/211
f  1102/86/205 1103/121/211 1104/91/206
f  1105/91/206 1106/121/211 1107/122/212
f  1108/91/206 1109/122/212 1110/119/207
f  1111/119/207 1112/122/212 1113/123/213
f  1114/119/207 1115/123/213 1116/120/208
f  1117/46/73 1118/50/79 1119/82/209
f  1120/50/79 1121/83/214 1122/82/209
f  1123/82/209 1124/83/214 1125/124/215
f  1126/82/209 1127/124/215 1128/87/210
f  1129/87/210 1130/124/215 1131/125/216
f  1132/87/210 1133/125/216 1134/121/211
f  1135/121/211 1136/125/216 1137/126/217
f  1138/121/211 1139/126/217 1140/122/212
f  1141/122/212 1142/126/217 1143/127/218
f  1144/122/212 1145/127/218 1146/123/213
f  1147/50/79 1148/55/85 1149/83/214
f  1150/55/85 1151/128/219 1152/83/214
f  1153/83/214 1154/128/219 1155/129/220
f  1156/83/214 1157/129/220 1158/124/215
f  1159/124/215 1160/129/220 1161/130/221
f  1162/124/215 1163/130/221 1164/125/216
f  1165/125/216 1166/130/221 1167/131/222
f  1168/125/216 1169/131/222 1170/126/217
f  1171/126/217 1172/131/222 1173/132/223
f  1174/126/217 1175/132/223 1176/127/218
f  1177/55/85 1178/60/91 1179/128/219
f  1180/60/91 1181/133/224 1182/128/219
f  1183/128/219 1184/133/224 1185/134/225
f  1186/128/219 1187/134/225 1188/129/220
f  1189/129/220 1190/134/225 1191/135/226
f  1192/129/220 1193/135/226 1194/130/221
f  1195/130/221 1196/135/226 1197/136/227
f  1198/130/221 1199/136/227 1200/131/222
f  1201/131/222 1202/136/227 1203/137/228
f  1204/131/222 1205/137/228 1206/132/223
f  1207/60/91 1208/66/97 1209/133/224
f  1210/66/97 1211/138/229 1212/133/224
f  1213/133/224 1214/138/229 1215/139/230
f  1216/133/224 1217/139/230 1218/134/225
f  1219/134/225 1220/139/230 1221/140/231
f  1222/134/225 1223/140/231 1224/135/226
f  1225/135/226 1226/140/231 1227/141/232
f  1228/135/226 1229/141/232 1230/136/227
f  1231/136/227 1232/141/232 1233/142/233
f  1234/136/227 1235/142/233 1236/137/228
f  1237/66/97 1238/72/103 1239/138/229
f  1240/72/103 1241/143/234 1242/138/229
f  1243/138/229 1244/143/234 1245/144/235
f  1246/138/229 1247/144/235 1248/139/230
f  1249/139/230 1250/144/235 1251/145/236
f  1252/139/230 1253/145/236 1254/140/231
f  1255/140/231 1256/145/236 1257/146/237
f  1258/140/231 1259/146/237 1260/141/232
f  1261/141/232 1262/146/237 1263/147/238
f  1264/141/232 1265/147/238 1266/142/233
f  1267/72/103 1268/78/109 1269/143/234
f  1270/78/109 1271/138/239 1272/143/234
f  1273/143/234 1274/138/239 1275/139/240
f  1276/143/234 1277/139/240 1278/144/235
f  1279/144/235 1280/139/240 1281/140/241
f  1282/144/235 1283/140/241 1284/145/236
f  1285/145/236 1286/140/241 1287/141/242
f  1288/145/236 1289/141/242 1290/146/237
f  1291/146/237 1292/141/242 1293/142/243
f  1294/146/237 1295/142/243 1296/147/238
f  1297/78/109 1298/72/115 1299/138/239
f  1300/72/115 1301/133/244 1302/138/239
f  1303/138/239 1304/133/244 1305/134/245
f  1306/138/239 1307/134/245 1308/139/240
f  1309/139/240 1310/134/245 1311/135/246
f  1312/139/240 1313/135/246 1314/140/241
f  1315/140/241 1316/135/246 1317/136/247
f  1318/140/241 1319/136/247 1320/141/242
f  1321/141/242 1322/136/247 1323/137/248
f  1324/141/242 1325/137/248 1326/142/243
f  1327/72/115 1328/66/121 1329/133/244
f  1330/66/121 1331/128/249 1332/133/244
f  1333/133/244 1334/128/249 1335/129/250
f  1336/133/244 1337/129/250 1338/134/245
f  1339/134/245 1340/129/250 1341/130/251
f  1342/134/245 1343/130/251 1344/135/246
f  1345/135/246 1346/130/251 1347/131/252
f  1348/135/246 1349/131/252 1350/136/247
f  1351/136/247 1352/131/252 1353/132/253
f  1354/136/247 1355/132/253 1356/137/248
f  1357/66/121 1358/60/127 1359/128/249
f  1360/60/127 1361/83/139 1362/128/249
f  1363/128/249 1364/83/139 1365/124/254
f  1366/128/249 1367/124/254 1368/129/250
f  1369/129/250 1370/124/254 1371/125/255
f  1372/129/250 1373/125/255 1374/130/251
f  1375/130/251 1376/125/255 1377/126/256
f  1378/130/251 1379/126/256 1380/131/252
f  1381/131/252 1382/126/256 1383/127/257
f  1384/131/252 1385/127/257 1386/132/253
f  1387/132/253 1388/127/257 1389/148/258
f  1390/132/253 1391/148/258 1392/149/259
f  1393/137/248 1394/132/253 1395/149/259
f  1396/83/139 1397/87/145 1398/124/254
f  1399/124/254 1400/87/145 1401/121/260
f  1402/124/254 1403/121/260 1404/125/255
f  1405/125/255 1406/121/260 1407/122/261
f  1408/125/255 1409/122/261 1410/126/256
f  1411/126/256 1412/122/261 1413/123/262
f  1414/126/256 1415/123/262 1416/127/257
f  1417/127/257 1418/123/262 1419/150/263
f  1420/127/257 1421/150/263 1422/148/258
f  1423/151/264 1424/148/258 1425/150/263
f  1426/151/264 1427/149/259 1428/148/258
f  1429/151/264 1430/152/265 1431/149/259
f  1432/137/248 1433/149/259 1434/152/265
f  1435/142/243 1436/137/248 1437/152/265
f  1438/87/145 1439/91/151 1440/121/260
f  1441/121/260 1442/91/151 1443/119/266
f  1444/121/260 1445/119/266 1446/122/261
f  1447/122/261 1448/119/266 1449/120/267
f  1450/122/261 1451/120/267 1452/123/262
f  1453/123/262 1454/120/267 1455/153/268
f  1456/123/262 1457/153/268 1458/150/263
f  1459/151/264 1460/150/263 1461/153/268
f  1462/91/151 1463/96/157 1464/119/266
f  1465/119/266 1466/96/157 1467/118/269
f  1468/119/266 1469/118/269 1470/120/267
f  1471/120/267 1472/118/269 1473/154/270
f  1474/120/267 1475/154/270 1476/153/268
f  1477/151/264 1478/153/268 1479/154/270
f  1480/96/157 1481/117/271 1482/118/269
f  1483/118/269 1484/117/271 1485/155/272
f  1486/118/269 1487/155/272 1488/154/270
f  1489/151/264 1490/154/270 1491/155/272
f  1492/96/157 1493/95/156 1494/117/271
f  1495/95/156 1496/106/168 1497/117/271
f  1498/117/271 1499/106/168 1500/156/273
f  1501/117/271 1502/156/273 1503/155/272
f  1504/151/264 1505/155/272 1506/156/273
f  1507/106/168 1508/157/274 1509/156/273
f  1510/151/264 1511/156/273 1512/157/274
f  1513/106/168 1514/105/167 1515/157/274
f  1516/105/167 1517/158/275 1518/157/274
f  1519/151/264 1520/157/274 1521/158/275
f  1522/105/167 1523/111/173 1524/158/275
f  1525/111/173 1526/159/276 1527/158/275
f  1528/151/264 1529/158/275 1530/159/276
f  1531/111/173 1532/116/178 1533/159/276
f  1534/116/178 1535/158/277 1536/159/276
f  1537/151/264 1538/159/276 1539/158/277
f  1540/116/178 1541/111/183 1542/158/277
f  1543/111/183 1544/157/278 1545/158/277
f  1546/151/264 1547/158/277 1548/157/278
f  1549/111/183 1550/105/188 1551/157/278
f  1552/105/188 1553/156/279 1554/157/278
f  1555/151/264 1556/157/278 1557/156/279
f  1558/105/188 1559/106/193 1560/156/279
f  1561/106/193 1562/155/280 1563/156/279
f  1564/151/264 1565/156/279 1566/155/280
f  1567/106/193 1568/117/198 1569/155/280
f  1570/117/198 1571/154/281 1572/155/280
f  1573/151/264 1574/155/280 1575/154/281
f  1576/117/198 1577/118/203 1578/154/281
f  1579/118/203 1580/153/282 1581/154/281
f  1582/151/264 1583/154/281 1584/153/282
f  1585/118/203 1586/120/208 1587/153/282
f  1588/120/208 1589/150/283 1590/153/282
f  1591/151/264 1592/153/282 1593/150/283
f  1594/120/208 1595/123/213 1596/150/283
f  1597/123/213 1598/148/284 1599/150/283
f  1600/151/264 1601/150/283 1602/148/284
f  1603/151/264 1604/148/284 1605/149/285
f  1606/151/264 1607/149/285 1608/152/286
f  1609/151/264 1610/152/286 1611/160/287
f  1612/151/264 1613/160/287 1614/161/288
f  1615/151/264 1616/161/288 1617/160/289
f  1618/151/264 1619/160/289 1620/152/265
f  1621/123/213 1622/127/218 1623/148/284
f  1624/127/218 1625/149/285 1626/148/284
f  1627/127/218 1628/132/223 1629/149/285
f  1630/132/223 1631/152/286 1632/149/285
f  1633/132/223 1634/137/228 1635/152/286
f  1636/137/228 1637/160/287 1638/152/286
f  1639/137/228 1640/142/233 1641/160/287
f  1642/142/233 1643/161/288 1644/160/287
f  1645/142/233 1646/147/238 1647/161/288
f  1648/147/238 1649/160/289 1650/161/288
f  1651/147/238 1652/142/243 1653/160/289
f  1654/142/243 1655/152/265 1656/160/289

