# File produced by Open Asset Import Library (http://www.assimp.sf.net)
# (assimp v6.0.0)

mtllib spacestation01_inner.mtl

# 1134 vertex positions
v 41.4000015 250.215988 -71.7039871
v 0 239.599976 -64.5839844
v 0 250.215988 -82.7999802
v 0 239.599976 -64.5839844
v 41.4000015 250.215988 -71.7039871
v 32.2879982 239.599976 -55.9279861
v 71.7040024 250.215988 -41.3999863
v 32.2879982 239.599976 -55.9279861
v 41.4000015 250.215988 -71.7039871
v 32.2879982 239.599976 -55.9279861
v 71.7040024 250.215988 -41.3999863
v 55.9280052 239.599976 -32.2879868
v 82.8000031 250.215988 1.09372877e-05
v 55.9280052 239.599976 -32.2879868
v 71.7040024 250.215988 -41.3999863
v 55.9280052 239.599976 -32.2879868
v 82.8000031 250.215988 1.09372877e-05
v 64.5839996 239.599976 1.04732471e-05
v 71.7040024 250.215988 41.4000053
v 64.5839996 239.599976 1.04732471e-05
v 82.8000031 250.215988 1.09372877e-05
v 64.5839996 239.599976 1.04732471e-05
v 71.7040024 250.215988 41.4000053
v 55.9280052 239.599976 32.2880096
v 41.4000015 250.215988 71.70401
v 55.9280052 239.599976 32.2880096
v 71.7040024 250.215988 41.4000053
v 55.9280052 239.599976 32.2880096
v 41.4000015 250.215988 71.70401
v 32.2879982 239.599976 55.9280052
v 0 250.215988 82.8000031
v 32.2879982 239.599976 55.9280052
v 41.4000015 250.215988 71.70401
v 32.2879982 239.599976 55.9280052
v 0 250.215988 82.8000031
v 0 239.599976 64.5840073
v -32.2879982 239.599976 -55.9279861
v 0 250.215988 -82.7999802
v 0 239.599976 -64.5839844
v 0 250.215988 -82.7999802
v -32.2879982 239.599976 -55.9279861
v -41.4000015 250.215988 -71.7039871
v -55.9280052 239.599976 -32.2879868
v -41.4000015 250.215988 -71.7039871
v -32.2879982 239.599976 -55.9279861
v -41.4000015 250.215988 -71.7039871
v -55.9280052 239.599976 -32.2879868
v -71.7040024 250.215988 -41.3999863
v -64.5839996 239.599976 1.04732471e-05
v -71.7040024 250.215988 -41.3999863
v -55.9280052 239.599976 -32.2879868
v -71.7040024 250.215988 -41.3999863
v -64.5839996 239.599976 1.04732471e-05
v -82.8000031 250.215988 1.09372877e-05
v -55.9280052 239.599976 32.2880096
v -82.8000031 250.215988 1.09372877e-05
v -64.5839996 239.599976 1.04732471e-05
v -82.8000031 250.215988 1.09372877e-05
v -55.9280052 239.599976 32.2880096
v -71.7040024 250.215988 41.4000053
v -32.2879982 239.599976 55.9280052
v -71.7040024 250.215988 41.4000053
v -55.9280052 239.599976 32.2880096
v -71.7040024 250.215988 41.4000053
v -32.2879982 239.599976 55.9280052
v -41.4000015 250.215988 71.70401
v 0 239.599976 64.5840073
v -41.4000015 250.215988 71.70401
v -32.2879982 239.599976 55.9280052
v -41.4000015 250.215988 71.70401
v 0 239.599976 64.5840073
v 0 250.215988 82.8000031
v 0 302.18399 -82.7999802
v -32.2879982 312.799988 -55.9279823
v 0 312.799988 -64.5839844
v -32.2879982 312.799988 -55.9279823
v 0 302.18399 -82.7999802
v -41.4000015 302.18399 -71.7039795
v -41.4000015 302.18399 -71.7039795
v -55.9280052 312.799988 -32.2879868
v -32.2879982 312.799988 -55.9279823
v -55.9280052 312.799988 -32.2879868
v -41.4000015 302.18399 -71.7039795
v -71.7040024 302.18396 -41.3999825
v -71.7040024 302.18396 -41.3999825
v -64.5839996 312.799988 1.36729195e-05
v -55.9280052 312.799988 -32.2879868
v -64.5839996 312.799988 1.36729195e-05
v -71.7040024 302.18396 -41.3999825
v -82.8000031 302.18396 1.32088808e-05
v -82.8000031 302.18396 1.32088808e-05
v -55.9280052 312.799988 32.2880135
v -64.5839996 312.799988 1.36729195e-05
v -55.9280052 312.799988 32.2880135
v -82.8000031 302.18396 1.32088808e-05
v -71.7040024 302.18396 41.4000092
v -71.7040024 302.18396 41.4000092
v -32.2879982 312.799988 55.9280128
v -55.9280052 312.799988 32.2880135
v -32.2879982 312.799988 55.9280128
v -71.7040024 302.18396 41.4000092
v -41.4000015 302.18396 71.70401
v -41.4000015 302.18396 71.70401
v 0 312.799988 64.5840073
v -32.2879982 312.799988 55.9280128
v 0 312.799988 64.5840073
v -41.4000015 302.18396 71.70401
v 0 302.18396 82.8000031
v 44.8640022 -20.7999935 -108.319992
v 21.512001 -16.7759933 -108.159996
v 42.8639984 -16.7999935 -101.687996
v 21.512001 -16.7759933 -108.159996
v 44.8640022 -20.7999935 -108.319992
v 22.8719997 -20.7999935 -114.967995
v 22.8719997 -20.7999935 -114.967995
v 0 -16.7759933 -110.29599
v 21.512001 -16.7759933 -108.159996
v 0 -16.7759933 -110.29599
v 22.8719997 -20.7999935 -114.967995
v 0 -20.7999935 -117.247993
v -22.8719997 -20.7999935 -114.967995
v 0 -16.7759933 -110.29599
v 0 -20.7999935 -117.247993
v 0 -16.7759933 -110.29599
v -22.8719997 -20.7999935 -114.967995
v -21.512001 -16.7759933 -108.159996
v -44.8640022 -20.7999935 -108.319992
v -21.512001 -16.7759933 -108.159996
v -22.8719997 -20.7999935 -114.967995
v -21.512001 -16.7759933 -108.159996
v -44.8640022 -20.7999935 -108.319992
v -42.8639984 -16.7999935 -101.687996
v 18.7280006 174.399994 32.4400024
v 59.5200005 136.423981 34.3600044
v 32.4400024 174.399994 18.7280064
v 59.5200005 136.423981 34.3600044
v 18.7280006 174.399994 32.4400024
v 34.3600006 136.423981 59.5200005
v 0 174.399994 37.4560051
v 34.3600006 136.423981 59.5200005
v 18.7280006 174.399994 32.4400024
v 34.3600006 136.423981 59.5200005
v 0 174.399994 37.4560051
v 0 136.423981 68.7200012
v -18.7280006 174.399994 32.4400024
v 0 136.423981 68.7200012
v 0 174.399994 37.4560051
v 0 136.423981 68.7200012
v -18.7280006 174.399994 32.4400024
v -34.3600006 136.423981 59.5200005
v -32.4400024 174.399994 18.7280064
v -34.3600006 136.423981 59.5200005
v -18.7280006 174.399994 32.4400024
v -34.3600006 136.423981 59.5200005
v -32.4400024 174.399994 18.7280064
v -59.5200005 136.423981 34.3600044
v 34.3600006 136.423981 59.5200005
v 59.5200005 31.8639965 34.3600006
v 59.5200005 136.423981 34.3600044
v 59.5200005 31.8639965 34.3600006
v 34.3600006 136.423981 59.5200005
v 34.3600006 31.8639946 59.5200005
v 0 136.423981 68.7200012
v 34.3600006 31.8639946 59.5200005
v 34.3600006 136.423981 59.5200005
v 34.3600006 31.8639946 59.5200005
v 0 136.423981 68.7200012
v 0 31.8639946 68.7200012
v -34.3600006 136.423981 59.5200005
v 0 31.8639946 68.7200012
v 0 136.423981 68.7200012
v 0 31.8639946 68.7200012
v -34.3600006 136.423981 59.5200005
v -34.3600006 31.8639946 59.5200005
v -59.5200005 136.423981 34.3600044
v -34.3600006 31.8639946 59.5200005
v -34.3600006 136.423981 59.5200005
v -34.3600006 31.8639946 59.5200005
v -59.5200005 136.423981 34.3600044
v -59.5200005 31.8639965 34.3600006
v -68.7200012 136.423996 5.96328164e-06
v -59.5200005 31.8639965 34.3600006
v -59.5200005 136.423981 34.3600044
v -59.5200005 31.8639965 34.3600006
v -68.7200012 136.423996 5.96328164e-06
v -68.7200012 31.8639965 1.39281951e-06
v -59.5200005 136.423996 -34.359993
v -68.7200012 31.8639965 1.39281951e-06
v -68.7200012 136.423996 5.96328164e-06
v -68.7200012 31.8639965 1.39281951e-06
v -59.5200005 136.423996 -34.359993
v -59.5200005 31.8640003 -34.3599968
v -34.3600006 136.423996 -59.519989
v -59.5200005 31.8640003 -34.3599968
v -59.5200005 136.423996 -34.359993
v -59.5200005 31.8640003 -34.3599968
v -34.3600006 136.423996 -59.519989
v -34.3600006 31.8640003 -59.5199966
v 0 136.423996 -68.7199936
v -34.3600006 31.8640003 -59.5199966
v -34.3600006 136.423996 -59.519989
v -34.3600006 31.8640003 -59.5199966
v 0 136.423996 -68.7199936
v 0 31.8640003 -68.7199936
v 81.0800018 31.8640003 -46.8159981
v 46.8160019 31.8640003 -81.0799866
v 0 31.8640022 -93.6239929
v 0 31.8640022 -93.6239929
v 93.6240005 31.8639965 1.39281951e-06
v 81.0800018 31.8640003 -46.8159981
v 93.6240005 31.8639965 1.39281951e-06
v 0 31.8640022 -93.6239929
v -46.8160019 31.8640003 -81.0799866
v -46.8160019 31.8640003 -81.0799866
v 81.0800018 31.8639946 46.8159981
v 93.6240005 31.8639965 1.39281951e-06
v 81.0800018 31.8639946 46.8159981
v -46.8160019 31.8640003 -81.0799866
v -81.0800018 31.8640003 -46.8159981
v -93.6240005 31.8639965 1.39281951e-06
v 81.0800018 31.8639946 46.8159981
v -81.0800018 31.8640003 -46.8159981
v 81.0800018 31.8639946 46.8159981
v -93.6240005 31.8639965 1.39281951e-06
v -81.0800018 31.8639946 46.8159981
v -81.0800018 31.8639946 46.8159981
v 46.8160019 31.8639946 81.0799942
v 81.0800018 31.8639946 46.8159981
v 46.8160019 31.8639946 81.0799942
v -81.0800018 31.8639946 46.8159981
v -46.8160019 31.8639946 81.0799942
v -46.8160019 31.8639946 81.0799942
v 0 31.8639946 93.6239929
v 46.8160019 31.8639946 81.0799942
v -32.2879982 312.799988 -55.9279823
v 0 312.799988 64.5840073
v 0 312.799988 -64.5839844
v 0 312.799988 64.5840073
v -32.2879982 312.799988 -55.9279823
v -32.2879982 312.799988 55.9280128
v -55.9280052 312.799988 -32.2879868
v -32.2879982 312.799988 55.9280128
v -32.2879982 312.799988 -55.9279823
v -32.2879982 312.799988 55.9280128
v -55.9280052 312.799988 -32.2879868
v -55.9280052 312.799988 32.2880135
v -64.5839996 312.799988 1.36729195e-05
v -55.9280052 312.799988 32.2880135
v -55.9280052 312.799988 -32.2879868
v -36.5279999 -58.3999939 -88.1839981
v -17.2640018 -54.3759956 -86.7839966
v -34.5200005 -54.3999939 -81.552002
v -17.2640018 -54.3759956 -86.7839966
v -36.5279999 -58.3999939 -88.1839981
v -18.6160011 -58.3999939 -93.5999908
v -18.6160011 -58.3999939 -93.5999908
v 0 -54.3759956 -88.5039978
v -17.2640018 -54.3759956 -86.7839966
v 0 -54.3759956 -88.5039978
v -18.6160011 -58.3999939 -93.5999908
v 0 -58.3999939 -95.4559937
v 18.6160011 -58.3999939 -93.5999908
v 0 -54.3759956 -88.5039978
v 0 -58.3999939 -95.4559937
v 0 -54.3759956 -88.5039978
v 18.6160011 -58.3999939 -93.5999908
v 17.2640018 -54.3759956 -86.7839966
v 36.5279999 -58.3999939 -88.1839981
v 17.2640018 -54.3759956 -86.7839966
v 18.6160011 -58.3999939 -93.5999908
v 17.2640018 -54.3759956 -86.7839966
v 36.5279999 -58.3999939 -88.1839981
v 34.5200005 -54.3999939 -81.552002
v 16.0000019 239.599976 49.6000061
v -16.0000019 232 49.6000061
v 16.0000019 232 49.6000061
v -16.0000019 232 49.6000061
v 16.0000019 239.599976 49.6000061
v -16.0000019 239.599976 49.6000061
v 0 -33.7519951 -93.6239929
v 26.9200001 -63.1919937 -46.6239967
v 0 -63.1919937 -53.8320007
v 26.9200001 -63.1919937 -46.6239967
v 0 -33.7519951 -93.6239929
v 46.8160019 -33.7519951 -81.0799942
v 46.8160019 -33.7519951 -81.0799942
v 46.6240005 -63.1919937 -26.9200001
v 26.9200001 -63.1919937 -46.6239967
v 46.6240005 -63.1919937 -26.9200001
v 46.8160019 -33.7519951 -81.0799942
v 81.0800018 -33.7519951 -46.8159981
v 81.0800018 -33.7519951 -46.8159981
v 53.8320007 -63.1919975 -2.76220976e-06
v 46.6240005 -63.1919937 -26.9200001
v 53.8320007 -63.1919975 -2.76220976e-06
v 81.0800018 -33.7519951 -46.8159981
v 93.6240005 -33.7519989 -1.47534661e-06
v 93.6240005 -33.7519989 -1.47534661e-06
v 46.6240005 -63.1919975 26.9199944
v 53.8320007 -63.1919975 -2.76220976e-06
v 46.6240005 -63.1919975 26.9199944
v 93.6240005 -33.7519989 -1.47534661e-06
v 81.0800018 -33.7519989 46.8159981
v 0 -33.7519951 -93.6239929
v 46.8160019 31.8640003 -81.0799866
v 46.8160019 -33.7519951 -81.0799942
v 81.0800018 31.8640003 -46.8159981
v 46.8160019 -33.7519951 -81.0799942
v 46.8160019 31.8640003 -81.0799866
v 46.8160019 -33.7519951 -81.0799942
v 81.0800018 31.8640003 -46.8159981
v 81.0800018 -33.7519951 -46.8159981
v 93.6240005 31.8639965 1.39281951e-06
v 81.0800018 -33.7519951 -46.8159981
v 81.0800018 31.8640003 -46.8159981
v 81.0800018 -33.7519951 -46.8159981
v 93.6240005 31.8639965 1.39281951e-06
v 93.6240005 -33.7519989 -1.47534661e-06
v 81.0800018 31.8639946 46.8159981
v 93.6240005 -33.7519989 -1.47534661e-06
v 93.6240005 31.8639965 1.39281951e-06
v 93.6240005 -33.7519989 -1.47534661e-06
v 81.0800018 31.8639946 46.8159981
v 81.0800018 -33.7519989 46.8159981
v 46.8160019 31.8640003 -81.0799866
v 0 -33.7519951 -93.6239929
v 0 31.8640022 -93.6239929
v 21.6000004 -22.3999939 -106.399994
v -21.6000004 -22.3999939 -83.1999969
v 21.6000004 -22.3999939 -83.1999969
v -21.6000004 -22.3999939 -83.1999969
v 21.6000004 -22.3999939 -106.399994
v -21.6000004 -22.3999939 -106.399994
v 81.3440018 -22.4000015 71.9039993
v 82.8560028 -22.3999996 22.8959961
v 61.2559967 -22.4000015 60.3039932
v 82.8560028 -22.3999996 22.8959961
v 81.3440018 -22.4000015 71.9039993
v 102.944008 -22.3999996 34.4959984
v -102.944008 -22.3999996 34.4959984
v -61.2559967 -22.4000015 60.3039932
v -82.8560028 -22.3999996 22.8959961
v -61.2559967 -22.4000015 60.3039932
v -102.944008 -22.3999996 34.4959984
v -81.3440018 -22.4000015 71.9039993
v 66.6320038 -16.8000031 87.9599838
v 66.5280075 -54.3760033 58.343998
v 53.3680038 -54.3999977 70.6719971
v 66.5280075 -54.3760033 58.343998
v 66.6320038 -16.8000031 87.9599838
v 82.9119949 -16.7760029 72.711998
v 82.9119949 -16.7760029 72.711998
v 76.6480026 -54.3760033 44.2559967
v 66.5280075 -54.3760033 58.343998
v 76.6480026 -54.3760033 44.2559967
v 82.9119949 -16.7760029 72.711998
v 95.5200043 -16.776001 55.1519966
v 104.423996 -16.776001 35.447998
v 76.6480026 -54.3760033 44.2559967
v 95.5200043 -16.776001 55.1519966
v 76.6480026 -54.3760033 44.2559967
v 104.423996 -16.776001 35.447998
v 83.7919998 -54.3760033 28.4399967
v 109.49601 -16.7999992 13.7199984
v 83.7919998 -54.3760033 28.4399967
v 104.423996 -16.776001 35.447998
v 83.7919998 -54.3760033 28.4399967
v 109.49601 -16.7999992 13.7199984
v 87.8880005 -54.3999977 10.8799982
v 94.6319962 -58.4000015 12.4559965
v 83.7919998 -54.3760033 28.4399967
v 87.8880005 -54.3999977 10.8799982
v 83.7919998 -54.3760033 28.4399967
v 94.6319962 -58.4000015 12.4559965
v 90.3680038 -58.4000015 30.6799946
v 90.3680038 -58.4000015 30.6799946
v 76.6480026 -54.3760033 44.2559967
v 83.7919998 -54.3760033 28.4399967
v 76.6480026 -54.3760033 44.2559967
v 90.3680038 -58.4000015 30.6799946
v 82.6640091 -58.4000015 47.7279968
v 71.7519989 -58.4000015 62.9279938
v 76.6480026 -54.3760033 44.2559967
v 82.6640091 -58.4000015 47.7279968
v 76.6480026 -54.3760033 44.2559967
v 71.7519989 -58.4000015 62.9279938
v 66.5280075 -54.3760033 58.343998
v 58.1040039 -58.4000015 75.7279968
v 66.5280075 -54.3760033 58.343998
v 71.7519989 -58.4000015 62.9279938
v 66.5280075 -54.3760033 58.343998
v 58.1040039 -58.4000015 75.7279968
v 53.3680038 -54.3999977 70.6719971
v -83.7919998 -54.3760033 28.4399967
v -94.6319962 -58.4000015 12.4559965
v -87.8880005 -54.3999977 10.8799982
v -94.6319962 -58.4000015 12.4559965
v -83.7919998 -54.3760033 28.4399967
v -90.3680038 -58.4000015 30.6799946
v -76.6480026 -54.3760033 44.2559967
v -90.3680038 -58.4000015 30.6799946
v -83.7919998 -54.3760033 28.4399967
v -90.3680038 -58.4000015 30.6799946
v -76.6480026 -54.3760033 44.2559967
v -82.6640091 -58.4000015 47.7279968
v -76.6480026 -54.3760033 44.2559967
v -71.7519989 -58.4000015 62.9279938
v -82.6640091 -58.4000015 47.7279968
v -71.7519989 -58.4000015 62.9279938
v -76.6480026 -54.3760033 44.2559967
v -66.5280075 -54.3760033 58.343998
v -66.5280075 -54.3760033 58.343998
v -58.1040039 -58.4000015 75.7279968
v -71.7519989 -58.4000015 62.9279938
v -58.1040039 -58.4000015 75.7279968
v -66.5280075 -54.3760033 58.343998
v -53.3680038 -54.3999977 70.6719971
v -82.9119949 -16.7760029 72.711998
v -71.3759995 -20.8000011 93.0159988
v -66.6320038 -16.8000031 87.9599838
v -71.3759995 -20.8000011 93.0159988
v -82.9119949 -16.7760029 72.711998
v -88.1360016 -20.8000011 77.2879868
v -95.5200043 -16.776001 55.1519966
v -88.1360016 -20.8000011 77.2879868
v -82.9119949 -16.7760029 72.711998
v -88.1360016 -20.8000011 77.2879868
v -95.5200043 -16.776001 55.1519966
v -101.536003 -20.8000011 58.6239967
v -95.5200043 -16.776001 55.1519966
v -111 -20.8000011 37.6799927
v -101.536003 -20.8000011 58.6239967
v -111 -20.8000011 37.6799927
v -95.5200043 -16.776001 55.1519966
v -104.423996 -16.776001 35.447998
v -104.423996 -16.776001 35.447998
v -116.239998 -20.7999992 15.303998
v -111 -20.8000011 37.6799927
v -116.239998 -20.7999992 15.303998
v -104.423996 -16.776001 35.447998
v -109.49601 -16.7999992 13.7199984
v -66.5280075 -54.3760033 58.343998
v -66.6320038 -16.8000031 87.9599838
v -53.3680038 -54.3999977 70.6719971
v -66.6320038 -16.8000031 87.9599838
v -66.5280075 -54.3760033 58.343998
v -82.9119949 -16.7760029 72.711998
v -76.6480026 -54.3760033 44.2559967
v -82.9119949 -16.7760029 72.711998
v -66.5280075 -54.3760033 58.343998
v -82.9119949 -16.7760029 72.711998
v -76.6480026 -54.3760033 44.2559967
v -95.5200043 -16.776001 55.1519966
v -76.6480026 -54.3760033 44.2559967
v -104.423996 -16.776001 35.447998
v -95.5200043 -16.776001 55.1519966
v -104.423996 -16.776001 35.447998
v -76.6480026 -54.3760033 44.2559967
v -83.7919998 -54.3760033 28.4399967
v -83.7919998 -54.3760033 28.4399967
v -109.49601 -16.7999992 13.7199984
v -104.423996 -16.776001 35.447998
v -109.49601 -16.7999992 13.7199984
v -83.7919998 -54.3760033 28.4399967
v -87.8880005 -54.3999977 10.8799982
v -88.1360016 -20.8000011 77.2879868
v -58.1040039 -58.4000015 75.7279968
v -71.3759995 -20.8000011 93.0159988
v -58.1040039 -58.4000015 75.7279968
v -88.1360016 -20.8000011 77.2879868
v -71.7519989 -58.4000015 62.9279938
v -88.1360016 -20.8000011 77.2879868
v -82.6640091 -58.4000015 47.7279968
v -71.7519989 -58.4000015 62.9279938
v -82.6640091 -58.4000015 47.7279968
v -88.1360016 -20.8000011 77.2879868
v -101.536003 -20.8000011 58.6239967
v -111 -20.8000011 37.6799927
v -82.6640091 -58.4000015 47.7279968
v -101.536003 -20.8000011 58.6239967
v -82.6640091 -58.4000015 47.7279968
v -111 -20.8000011 37.6799927
v -90.3680038 -58.4000015 30.6799946
v -111 -20.8000011 37.6799927
v -94.6319962 -58.4000015 12.4559965
v -90.3680038 -58.4000015 30.6799946
v -94.6319962 -58.4000015 12.4559965
v -111 -20.8000011 37.6799927
v -116.239998 -20.7999992 15.303998
v -15.552001 239.599976 -27.455986
v -34.9519997 232 -38.6559868
v -34.9519997 239.599976 -38.6559868
v -34.9519997 232 -38.6559868
v -15.552001 239.599976 -27.455986
v -15.552001 219.199997 -27.4559898
v 31.552002 239.599976 0.256010443
v 50.9519997 232 -10.9439898
v 50.9519997 239.599976 -10.9439898
v 50.9519997 232 -10.9439898
v 31.552002 239.599976 0.256010443
v 31.552002 219.199997 0.256009579
v -34.3600006 136.423996 -59.519989
v 0 174.399994 -37.4559898
v 0 136.423996 -68.7199936
v 0 174.399994 -37.4559898
v -34.3600006 136.423996 -59.519989
v -18.7280006 174.399994 -32.439991
v -59.5200005 136.423996 -34.359993
v -18.7280006 174.399994 -32.439991
v -34.3600006 136.423996 -59.519989
v -18.7280006 174.399994 -32.439991
v -59.5200005 136.423996 -34.359993
v -32.4400024 174.399994 -18.7279911
v -68.7200012 136.423996 5.96328164e-06
v -32.4400024 174.399994 -18.7279911
v -59.5200005 136.423996 -34.359993
v -32.4400024 174.399994 -18.7279911
v -68.7200012 136.423996 5.96328164e-06
v -37.4560013 174.399994 7.62326499e-06
v -59.5200005 136.423981 34.3600044
v -37.4560013 174.399994 7.62326499e-06
v -68.7200012 136.423996 5.96328164e-06
v -37.4560013 174.399994 7.62326499e-06
v -59.5200005 136.423981 34.3600044
v -32.4400024 174.399994 18.7280064
v 18.7280006 239.599976 -32.4399872
v 0 174.399994 -37.4559898
v 0 239.599976 -37.4559898
v 0 174.399994 -37.4559898
v 18.7280006 239.599976 -32.4399872
v 18.7280006 174.399994 -32.439991
v 32.4400024 239.599976 -18.7279873
v 18.7280006 174.399994 -32.439991
v 18.7280006 239.599976 -32.4399872
v 18.7280006 174.399994 -32.439991
v 32.4400024 239.599976 -18.7279873
v 32.4400024 174.399994 -18.7279911
v 37.4560013 239.599976 1.04732471e-05
v 32.4400024 174.399994 -18.7279911
v 32.4400024 239.599976 -18.7279873
v 32.4400024 174.399994 -18.7279911
v 37.4560013 239.599976 1.04732471e-05
v 37.4560013 174.399994 7.62326499e-06
v 32.4400024 239.599976 18.7280083
v 37.4560013 174.399994 7.62326499e-06
v 37.4560013 239.599976 1.04732471e-05
v 37.4560013 174.399994 7.62326499e-06
v 32.4400024 239.599976 18.7280083
v 32.4400024 174.399994 18.7280064
v 32.2879982 239.599976 -55.9279861
v 0 239.599976 64.5840073
v 0 239.599976 -64.5839844
v 0 239.599976 64.5840073
v 32.2879982 239.599976 -55.9279861
v 32.2879982 239.599976 55.9280052
v 55.9280052 239.599976 -32.2879868
v 32.2879982 239.599976 55.9280052
v 32.2879982 239.599976 -55.9279861
v 32.2879982 239.599976 55.9280052
v 55.9280052 239.599976 -32.2879868
v 55.9280052 239.599976 32.2880096
v 64.5839996 239.599976 1.04732471e-05
v 55.9280052 239.599976 32.2880096
v 55.9280052 239.599976 -32.2879868
v 18.7280006 239.599976 32.4400063
v 32.4400024 174.399994 18.7280064
v 32.4400024 239.599976 18.7280083
v 32.4400024 174.399994 18.7280064
v 18.7280006 239.599976 32.4400063
v 18.7280006 174.399994 32.4400024
v 0 239.599976 37.4560089
v 18.7280006 174.399994 32.4400024
v 18.7280006 239.599976 32.4400063
v 18.7280006 174.399994 32.4400024
v 0 239.599976 37.4560089
v 0 174.399994 37.4560051
v -18.7280006 239.599976 32.4400063
v 0 174.399994 37.4560051
v 0 239.599976 37.4560089
v 0 174.399994 37.4560051
v -18.7280006 239.599976 32.4400063
v -18.7280006 174.399994 32.4400024
v -32.4400024 239.599976 18.7280083
v -18.7280006 174.399994 32.4400024
v -18.7280006 239.599976 32.4400063
v -18.7280006 174.399994 32.4400024
v -32.4400024 239.599976 18.7280083
v -32.4400024 174.399994 18.7280064
v 68.7200012 31.8639965 1.39281951e-06
v 59.5200005 136.423981 34.3600044
v 59.5200005 31.8639965 34.3600006
v 59.5200005 136.423981 34.3600044
v 68.7200012 31.8639965 1.39281951e-06
v 68.7200012 136.423996 5.96328164e-06
v 59.5200005 31.8640003 -34.3599968
v 68.7200012 136.423996 5.96328164e-06
v 68.7200012 31.8639965 1.39281951e-06
v 68.7200012 136.423996 5.96328164e-06
v 59.5200005 31.8640003 -34.3599968
v 59.5200005 136.423996 -34.359993
v 34.3600006 31.8640003 -59.5199966
v 59.5200005 136.423996 -34.359993
v 59.5200005 31.8640003 -34.3599968
v 59.5200005 136.423996 -34.359993
v 34.3600006 31.8640003 -59.5199966
v 34.3600006 136.423996 -59.519989
v 0 31.8640003 -68.7199936
v 34.3600006 136.423996 -59.519989
v 34.3600006 31.8640003 -59.5199966
v 34.3600006 136.423996 -59.519989
v 0 31.8640003 -68.7199936
v 0 136.423996 -68.7199936
v 46.8160019 31.8639946 81.0799942
v 81.0800018 -33.7519989 46.8159981
v 81.0800018 31.8639946 46.8159981
v 81.0800018 -33.7519989 46.8159981
v 46.8160019 31.8639946 81.0799942
v 46.8160019 -33.7519989 81.0799866
v 26.9200001 -63.1919975 46.6239929
v 81.0800018 -33.7519989 46.8159981
v 46.8160019 -33.7519989 81.0799866
v 81.0800018 -33.7519989 46.8159981
v 26.9200001 -63.1919975 46.6239929
v 46.6240005 -63.1919975 26.9199944
v 0 31.8639946 93.6239929
v 46.8160019 -33.7519989 81.0799866
v 46.8160019 31.8639946 81.0799942
v 46.8160019 -33.7519989 81.0799866
v 0 31.8639946 93.6239929
v 0 -33.7520027 93.6239929
v 0 -63.1919975 53.8319969
v 46.8160019 -33.7519989 81.0799866
v 0 -33.7520027 93.6239929
v 46.8160019 -33.7519989 81.0799866
v 0 -63.1919975 53.8319969
v 26.9200001 -63.1919975 46.6239929
v -46.8160019 31.8639946 81.0799942
v 0 -33.7520027 93.6239929
v 0 31.8639946 93.6239929
v 0 -33.7520027 93.6239929
v -46.8160019 31.8639946 81.0799942
v -46.8160019 -33.7519989 81.0799866
v -26.9200001 -63.1919975 46.6239929
v 0 -33.7520027 93.6239929
v -46.8160019 -33.7519989 81.0799866
v 0 -33.7520027 93.6239929
v -26.9200001 -63.1919975 46.6239929
v 0 -63.1919975 53.8319969
v -81.0800018 31.8639946 46.8159981
v -46.8160019 -33.7519989 81.0799866
v -46.8160019 31.8639946 81.0799942
v -46.8160019 -33.7519989 81.0799866
v -81.0800018 31.8639946 46.8159981
v -81.0800018 -33.7519989 46.8159981
v -46.6240005 -63.1919975 26.9199944
v -46.8160019 -33.7519989 81.0799866
v -81.0800018 -33.7519989 46.8159981
v -46.8160019 -33.7519989 81.0799866
v -46.6240005 -63.1919975 26.9199944
v -26.9200001 -63.1919975 46.6239929
v -93.6240005 31.8639965 1.39281951e-06
v -81.0800018 -33.7519989 46.8159981
v -81.0800018 31.8639946 46.8159981
v -81.0800018 -33.7519989 46.8159981
v -93.6240005 31.8639965 1.39281951e-06
v -93.6240005 -33.7519989 -1.47534661e-06
v -53.8320007 -63.1919975 -2.76220976e-06
v -81.0800018 -33.7519989 46.8159981
v -93.6240005 -33.7519989 -1.47534661e-06
v -81.0800018 -33.7519989 46.8159981
v -53.8320007 -63.1919975 -2.76220976e-06
v -46.6240005 -63.1919975 26.9199944
v -81.0800018 31.8640003 -46.8159981
v -93.6240005 -33.7519989 -1.47534661e-06
v -93.6240005 31.8639965 1.39281951e-06
v -93.6240005 -33.7519989 -1.47534661e-06
v -81.0800018 31.8640003 -46.8159981
v -81.0800018 -33.7519951 -46.8159981
v -46.6240005 -63.1919937 -26.9200001
v -93.6240005 -33.7519989 -1.47534661e-06
v -81.0800018 -33.7519951 -46.8159981
v -93.6240005 -33.7519989 -1.47534661e-06
v -46.6240005 -63.1919937 -26.9200001
v -53.8320007 -63.1919975 -2.76220976e-06
v -46.8160019 31.8640003 -81.0799866
v -81.0800018 -33.7519951 -46.8159981
v -81.0800018 31.8640003 -46.8159981
v -81.0800018 -33.7519951 -46.8159981
v -46.8160019 31.8640003 -81.0799866
v -46.8160019 -33.7519951 -81.0799942
v -26.9200001 -63.1919937 -46.6239967
v -81.0800018 -33.7519951 -46.8159981
v -46.8160019 -33.7519951 -81.0799942
v -81.0800018 -33.7519951 -46.8159981
v -26.9200001 -63.1919937 -46.6239967
v -46.6240005 -63.1919937 -26.9200001
v 0 31.8640022 -93.6239929
v -46.8160019 -33.7519951 -81.0799942
v -46.8160019 31.8640003 -81.0799866
v -46.8160019 -33.7519951 -81.0799942
v 0 31.8640022 -93.6239929
v 0 -33.7519951 -93.6239929
v 0 -63.1919937 -53.8320007
v -46.8160019 -33.7519951 -81.0799942
v 0 -33.7519951 -93.6239929
v -46.8160019 -33.7519951 -81.0799942
v 0 -63.1919937 -53.8320007
v -26.9200001 -63.1919937 -46.6239967
v -34.5200005 -54.3999939 -81.552002
v -44.8640022 -20.7999935 -108.319992
v -36.5279999 -58.3999939 -88.1839981
v -44.8640022 -20.7999935 -108.319992
v -34.5200005 -54.3999939 -81.552002
v -42.8639984 -16.7999935 -101.687996
v 16.0000019 232 49.6000061
v -16.0000019 219.199982 27.2000084
v 16.0000019 219.199982 27.2000084
v -16.0000019 219.199982 27.2000084
v 16.0000019 232 49.6000061
v -16.0000019 232 49.6000061
v 21.6000004 -22.3999939 -83.1999969
v 21.6000004 -39.9999962 -96.3999939
v 21.6000004 -22.3999939 -106.399994
v 21.6000004 -39.9999962 -96.3999939
v 21.6000004 -22.3999939 -83.1999969
v 21.6000004 -39.9999962 -73.5999985
v 61.2559967 -22.4000015 60.3039932
v 72.6880035 -40 66.9039993
v 81.3440018 -22.4000015 71.9039993
v 72.6880035 -40 66.9039993
v 61.2559967 -22.4000015 60.3039932
v 52.9360008 -40 55.5039902
v -82.8560028 -22.3999996 22.8959961
v -94.2879944 -39.9999962 29.4959965
v -102.944008 -22.3999996 34.4959984
v -94.2879944 -39.9999962 29.4959965
v -82.8560028 -22.3999996 22.8959961
v -74.5360031 -39.9999962 18.0959969
v 71.3759995 -20.8000011 93.0159988
v 82.9119949 -16.7760029 72.711998
v 66.6320038 -16.8000031 87.9599838
v 82.9119949 -16.7760029 72.711998
v 71.3759995 -20.8000011 93.0159988
v 88.1360016 -20.8000011 77.2879868
v 88.1360016 -20.8000011 77.2879868
v 95.5200043 -16.776001 55.1519966
v 82.9119949 -16.7760029 72.711998
v 95.5200043 -16.776001 55.1519966
v 88.1360016 -20.8000011 77.2879868
v 101.536003 -20.8000011 58.6239967
v 111 -20.8000011 37.6799927
v 95.5200043 -16.776001 55.1519966
v 101.536003 -20.8000011 58.6239967
v 95.5200043 -16.776001 55.1519966
v 111 -20.8000011 37.6799927
v 104.423996 -16.776001 35.447998
v 116.239998 -20.7999992 15.303998
v 104.423996 -16.776001 35.447998
v 111 -20.8000011 37.6799927
v 104.423996 -16.776001 35.447998
v 116.239998 -20.7999992 15.303998
v 109.49601 -16.7999992 13.7199984
v 87.8880005 -54.3999977 10.8799982
v 116.239998 -20.7999992 15.303998
v 94.6319962 -58.4000015 12.4559965
v 116.239998 -20.7999992 15.303998
v 87.8880005 -54.3999977 10.8799982
v 109.49601 -16.7999992 13.7199984
v -116.239998 -20.7999992 15.303998
v -87.8880005 -54.3999977 10.8799982
v -94.6319962 -58.4000015 12.4559965
v -87.8880005 -54.3999977 10.8799982
v -116.239998 -20.7999992 15.303998
v -109.49601 -16.7999992 13.7199984
v -50.9519997 232 -10.9439898
v -31.552002 239.599976 0.256010443
v -50.9519997 239.599976 -10.9439898
v -31.552002 239.599976 0.256010443
v -50.9519997 232 -10.9439898
v -31.552002 219.199997 0.256009579
v 34.9519997 232 -38.6559868
v 15.552001 239.599976 -27.455986
v 34.9519997 239.599976 -38.6559868
v 15.552001 239.599976 -27.455986
v 34.9519997 232 -38.6559868
v 15.552001 219.199997 -27.4559898
v -18.7280006 174.399994 -32.439991
v 0 239.599976 -37.4559898
v 0 174.399994 -37.4559898
v 0 239.599976 -37.4559898
v -18.7280006 174.399994 -32.439991
v -18.7280006 239.599976 -32.4399872
v -32.4400024 174.399994 -18.7279911
v -18.7280006 239.599976 -32.4399872
v -18.7280006 174.399994 -32.439991
v -18.7280006 239.599976 -32.4399872
v -32.4400024 174.399994 -18.7279911
v -32.4400024 239.599976 -18.7279873
v -37.4560013 174.399994 7.62326499e-06
v -32.4400024 239.599976 -18.7279873
v -32.4400024 174.399994 -18.7279911
v -32.4400024 239.599976 -18.7279873
v -37.4560013 174.399994 7.62326499e-06
v -37.4560013 239.599976 1.04732471e-05
v -32.4400024 174.399994 18.7280064
v -37.4560013 239.599976 1.04732471e-05
v -37.4560013 174.399994 7.62326499e-06
v -37.4560013 239.599976 1.04732471e-05
v -32.4400024 174.399994 18.7280064
v -32.4400024 239.599976 18.7280083
v 0 239.599976 64.5840073
v -32.2879982 239.599976 -55.9279861
v 0 239.599976 -64.5839844
v -32.2879982 239.599976 -55.9279861
v 0 239.599976 64.5840073
v -32.2879982 239.599976 55.9280052
v -32.2879982 239.599976 55.9280052
v -55.9280052 239.599976 -32.2879868
v -32.2879982 239.599976 -55.9279861
v -55.9280052 239.599976 -32.2879868
v -32.2879982 239.599976 55.9280052
v -55.9280052 239.599976 32.2880096
v -55.9280052 239.599976 32.2880096
v -64.5839996 239.599976 1.04732471e-05
v -55.9280052 239.599976 -32.2879868
v 0 302.18399 -82.7999802
v 41.4000015 250.215988 -71.7039871
v 0 250.215988 -82.7999802
v 41.4000015 250.215988 -71.7039871
v 0 302.18399 -82.7999802
v 41.4000015 302.18399 -71.7039795
v 41.4000015 302.18399 -71.7039795
v 71.7040024 250.215988 -41.3999863
v 41.4000015 250.215988 -71.7039871
v 71.7040024 250.215988 -41.3999863
v 41.4000015 302.18399 -71.7039795
v 71.7040024 302.18396 -41.3999825
v 71.7040024 302.18396 -41.3999825
v 82.8000031 250.215988 1.09372877e-05
v 71.7040024 250.215988 -41.3999863
v 82.8000031 250.215988 1.09372877e-05
v 71.7040024 302.18396 -41.3999825
v 82.8000031 302.18396 1.32088808e-05
v 82.8000031 302.18396 1.32088808e-05
v 71.7040024 250.215988 41.4000053
v 82.8000031 250.215988 1.09372877e-05
v 71.7040024 250.215988 41.4000053
v 82.8000031 302.18396 1.32088808e-05
v 71.7040024 302.18396 41.4000092
v 71.7040024 302.18396 41.4000092
v 41.4000015 250.215988 71.70401
v 71.7040024 250.215988 41.4000053
v 41.4000015 250.215988 71.70401
v 71.7040024 302.18396 41.4000092
v 41.4000015 302.18396 71.70401
v 41.4000015 302.18396 71.70401
v 0 250.215988 82.8000031
v 41.4000015 250.215988 71.70401
v 0 250.215988 82.8000031
v 41.4000015 302.18396 71.70401
v 0 302.18396 82.8000031
v 0 302.18396 82.8000031
v 32.2879982 312.799988 55.9280128
v 0 312.799988 64.5840073
v 32.2879982 312.799988 55.9280128
v 0 302.18396 82.8000031
v 41.4000015 302.18396 71.70401
v 41.4000015 302.18396 71.70401
v 55.9280052 312.799988 32.2880135
v 32.2879982 312.799988 55.9280128
v 55.9280052 312.799988 32.2880135
v 41.4000015 302.18396 71.70401
v 71.7040024 302.18396 41.4000092
v 71.7040024 302.18396 41.4000092
v 64.5839996 312.799988 1.36729195e-05
v 55.9280052 312.799988 32.2880135
v 64.5839996 312.799988 1.36729195e-05
v 71.7040024 302.18396 41.4000092
v 82.8000031 302.18396 1.32088808e-05
v 82.8000031 302.18396 1.32088808e-05
v 55.9280052 312.799988 -32.2879868
v 64.5839996 312.799988 1.36729195e-05
v 55.9280052 312.799988 -32.2879868
v 82.8000031 302.18396 1.32088808e-05
v 71.7040024 302.18396 -41.3999825
v 71.7040024 302.18396 -41.3999825
v 32.2879982 312.799988 -55.9279823
v 55.9280052 312.799988 -32.2879868
v 32.2879982 312.799988 -55.9279823
v 71.7040024 302.18396 -41.3999825
v 41.4000015 302.18399 -71.7039795
v 41.4000015 302.18399 -71.7039795
v 0 312.799988 -64.5839844
v 32.2879982 312.799988 -55.9279823
v 0 312.799988 -64.5839844
v 41.4000015 302.18399 -71.7039795
v 0 302.18399 -82.7999802
v 36.5279999 -58.3999939 -88.1839981
v 22.8719997 -20.7999935 -114.967995
v 44.8640022 -20.7999935 -108.319992
v 22.8719997 -20.7999935 -114.967995
v 36.5279999 -58.3999939 -88.1839981
v 18.6160011 -58.3999939 -93.5999908
v 0 -58.3999939 -95.4559937
v 22.8719997 -20.7999935 -114.967995
v 18.6160011 -58.3999939 -93.5999908
v 22.8719997 -20.7999935 -114.967995
v 0 -58.3999939 -95.4559937
v 0 -20.7999935 -117.247993
v 0 -58.3999939 -95.4559937
v -22.8719997 -20.7999935 -114.967995
v 0 -20.7999935 -117.247993
v -22.8719997 -20.7999935 -114.967995
v 0 -58.3999939 -95.4559937
v -18.6160011 -58.3999939 -93.5999908
v -36.5279999 -58.3999939 -88.1839981
v -22.8719997 -20.7999935 -114.967995
v -18.6160011 -58.3999939 -93.5999908
v -22.8719997 -20.7999935 -114.967995
v -36.5279999 -58.3999939 -88.1839981
v -44.8640022 -20.7999935 -108.319992
v -41.4000015 250.215988 -71.7039871
v 0 302.18399 -82.7999802
v 0 250.215988 -82.7999802
v 0 302.18399 -82.7999802
v -41.4000015 250.215988 -71.7039871
v -41.4000015 302.18399 -71.7039795
v -71.7040024 250.215988 -41.3999863
v -41.4000015 302.18399 -71.7039795
v -41.4000015 250.215988 -71.7039871
v -41.4000015 302.18399 -71.7039795
v -71.7040024 250.215988 -41.3999863
v -71.7040024 302.18396 -41.3999825
v -82.8000031 250.215988 1.09372877e-05
v -71.7040024 302.18396 -41.3999825
v -71.7040024 250.215988 -41.3999863
v -71.7040024 302.18396 -41.3999825
v -82.8000031 250.215988 1.09372877e-05
v -82.8000031 302.18396 1.32088808e-05
v -71.7040024 250.215988 41.4000053
v -82.8000031 302.18396 1.32088808e-05
v -82.8000031 250.215988 1.09372877e-05
v -82.8000031 302.18396 1.32088808e-05
v -71.7040024 250.215988 41.4000053
v -71.7040024 302.18396 41.4000092
v -41.4000015 250.215988 71.70401
v -71.7040024 302.18396 41.4000092
v -71.7040024 250.215988 41.4000053
v -71.7040024 302.18396 41.4000092
v -41.4000015 250.215988 71.70401
v -41.4000015 302.18396 71.70401
v 0 250.215988 82.8000031
v -41.4000015 302.18396 71.70401
v -41.4000015 250.215988 71.70401
v -41.4000015 302.18396 71.70401
v 0 250.215988 82.8000031
v 0 302.18396 82.8000031
v 68.7200012 136.423996 5.96328164e-06
v 32.4400024 174.399994 18.7280064
v 59.5200005 136.423981 34.3600044
v 32.4400024 174.399994 18.7280064
v 68.7200012 136.423996 5.96328164e-06
v 37.4560013 174.399994 7.62326499e-06
v 59.5200005 136.423996 -34.359993
v 37.4560013 174.399994 7.62326499e-06
v 68.7200012 136.423996 5.96328164e-06
v 37.4560013 174.399994 7.62326499e-06
v 59.5200005 136.423996 -34.359993
v 32.4400024 174.399994 -18.7279911
v 34.3600006 136.423996 -59.519989
v 32.4400024 174.399994 -18.7279911
v 59.5200005 136.423996 -34.359993
v 32.4400024 174.399994 -18.7279911
v 34.3600006 136.423996 -59.519989
v 18.7280006 174.399994 -32.439991
v 0 136.423996 -68.7199936
v 18.7280006 174.399994 -32.439991
v 34.3600006 136.423996 -59.519989
v 18.7280006 174.399994 -32.439991
v 0 136.423996 -68.7199936
v 0 174.399994 -37.4559898
v -17.2640018 -54.3759956 -86.7839966
v -42.8639984 -16.7999935 -101.687996
v -34.5200005 -54.3999939 -81.552002
v -42.8639984 -16.7999935 -101.687996
v -17.2640018 -54.3759956 -86.7839966
v -21.512001 -16.7759933 -108.159996
v 0 -54.3759956 -88.5039978
v -21.512001 -16.7759933 -108.159996
v -17.2640018 -54.3759956 -86.7839966
v -21.512001 -16.7759933 -108.159996
v 0 -54.3759956 -88.5039978
v 0 -16.7759933 -110.29599
v 0 -54.3759956 -88.5039978
v 21.512001 -16.7759933 -108.159996
v 0 -16.7759933 -110.29599
v 21.512001 -16.7759933 -108.159996
v 0 -54.3759956 -88.5039978
v 17.2640018 -54.3759956 -86.7839966
v 17.2640018 -54.3759956 -86.7839966
v 42.8639984 -16.7999935 -101.687996
v 21.512001 -16.7759933 -108.159996
v 42.8639984 -16.7999935 -101.687996
v 17.2640018 -54.3759956 -86.7839966
v 34.5200005 -54.3999939 -81.552002
v -16.0000019 239.599976 27.2000084
v -16.0000019 232 49.6000061
v -16.0000019 239.599976 49.6000061
v -16.0000019 232 49.6000061
v -16.0000019 239.599976 27.2000084
v -16.0000019 219.199982 27.2000084
v -21.6000004 -39.9999962 -96.3999939
v -21.6000004 -22.3999939 -83.1999969
v -21.6000004 -22.3999939 -106.399994
v -21.6000004 -22.3999939 -83.1999969
v -21.6000004 -39.9999962 -96.3999939
v -21.6000004 -39.9999962 -73.5999985
v 94.2879944 -39.9999962 29.4959965
v 82.8560028 -22.3999996 22.8959961
v 102.944008 -22.3999996 34.4959984
v 82.8560028 -22.3999996 22.8959961
v 94.2879944 -39.9999962 29.4959965
v 74.5360031 -39.9999962 18.0959969
v -72.6880035 -40 66.9039993
v -61.2559967 -22.4000015 60.3039932
v -81.3440018 -22.4000015 71.9039993
v -61.2559967 -22.4000015 60.3039932
v -72.6880035 -40 66.9039993
v -52.9360008 -40 55.5039902
v 111 -20.8000011 37.6799927
v 94.6319962 -58.4000015 12.4559965
v 116.239998 -20.7999992 15.303998
v 94.6319962 -58.4000015 12.4559965
v 111 -20.8000011 37.6799927
v 90.3680038 -58.4000015 30.6799946
v 111 -20.8000011 37.6799927
v 82.6640091 -58.4000015 47.7279968
v 90.3680038 -58.4000015 30.6799946
v 82.6640091 -58.4000015 47.7279968
v 111 -20.8000011 37.6799927
v 101.536003 -20.8000011 58.6239967
v 88.1360016 -20.8000011 77.2879868
v 82.6640091 -58.4000015 47.7279968
v 101.536003 -20.8000011 58.6239967
v 82.6640091 -58.4000015 47.7279968
v 88.1360016 -20.8000011 77.2879868
v 71.7519989 -58.4000015 62.9279938
v 88.1360016 -20.8000011 77.2879868
v 58.1040039 -58.4000015 75.7279968
v 71.7519989 -58.4000015 62.9279938
v 58.1040039 -58.4000015 75.7279968
v 88.1360016 -20.8000011 77.2879868
v 71.3759995 -20.8000011 93.0159988
v -50.9519997 239.599976 -10.9439898
v -34.9519997 232 -38.6559868
v -50.9519997 232 -10.9439898
v -34.9519997 232 -38.6559868
v -50.9519997 239.599976 -10.9439898
v -34.9519997 239.599976 -38.6559868
v 34.9519997 239.599976 -38.6559868
v 50.9519997 232 -10.9439898
v 34.9519997 232 -38.6559868
v 50.9519997 232 -10.9439898
v 34.9519997 239.599976 -38.6559868
v 50.9519997 239.599976 -10.9439898
v 44.8640022 -20.7999935 -108.319992
v 34.5200005 -54.3999939 -81.552002
v 36.5279999 -58.3999939 -88.1839981
v 34.5200005 -54.3999939 -81.552002
v 44.8640022 -20.7999935 -108.319992
v 42.8639984 -16.7999935 -101.687996
v 32.2879982 312.799988 55.9280128
v 0 312.799988 -64.5839844
v 0 312.799988 64.5840073
v 0 312.799988 -64.5839844
v 32.2879982 312.799988 55.9280128
v 32.2879982 312.799988 -55.9279823
v 55.9280052 312.799988 32.2880135
v 32.2879982 312.799988 -55.9279823
v 32.2879982 312.799988 55.9280128
v 32.2879982 312.799988 -55.9279823
v 55.9280052 312.799988 32.2880135
v 55.9280052 312.799988 -32.2879868
v 64.5839996 312.799988 1.36729195e-05
v 55.9280052 312.799988 -32.2879868
v 55.9280052 312.799988 32.2880135
v 16.0000019 232 49.6000061
v 16.0000019 239.599976 27.2000084
v 16.0000019 239.599976 49.6000061
v 16.0000019 239.599976 27.2000084
v 16.0000019 232 49.6000061
v 16.0000019 219.199982 27.2000084
v -21.6000004 -39.9999962 -73.5999985
v 21.6000004 -39.9999962 -96.3999939
v 21.6000004 -39.9999962 -73.5999985
v 21.6000004 -39.9999962 -96.3999939
v -21.6000004 -39.9999962 -73.5999985
v -21.6000004 -39.9999962 -96.3999939
v 74.5360031 -39.9999962 18.0959969
v 72.6880035 -40 66.9039993
v 52.9360008 -40 55.5039902
v 72.6880035 -40 66.9039993
v 74.5360031 -39.9999962 18.0959969
v 94.2879944 -39.9999962 29.4959965
v -52.9360008 -40 55.5039902
v -94.2879944 -39.9999962 29.4959965
v -74.5360031 -39.9999962 18.0959969
v -94.2879944 -39.9999962 29.4959965
v -52.9360008 -40 55.5039902
v -72.6880035 -40 66.9039993
v 71.3759995 -20.8000011 93.0159988
v 53.3680038 -54.3999977 70.6719971
v 58.1040039 -58.4000015 75.7279968
v 53.3680038 -54.3999977 70.6719971
v 71.3759995 -20.8000011 93.0159988
v 66.6320038 -16.8000031 87.9599838
v -53.3680038 -54.3999977 70.6719971
v -71.3759995 -20.8000011 93.0159988
v -58.1040039 -58.4000015 75.7279968
v -71.3759995 -20.8000011 93.0159988
v -53.3680038 -54.3999977 70.6719971
v -66.6320038 -16.8000031 87.9599838
v -50.9519997 232 -10.9439898
v -15.552001 219.199997 -27.4559898
v -31.552002 219.199997 0.256009579
v -15.552001 219.199997 -27.4559898
v -50.9519997 232 -10.9439898
v -34.9519997 232 -38.6559868
v 34.9519997 232 -38.6559868
v 31.552002 219.199997 0.256009579
v 15.552001 219.199997 -27.4559898
v 31.552002 219.199997 0.256009579
v 34.9519997 232 -38.6559868
v 50.9519997 232 -10.9439898

# 162 UV coordinates
vt 0.739899993 0.839100003 0
vt 0.742999971 0.899800003 0
vt 0.71420002 0.893400013 0
vt 0.763100028 0.8574 0
vt 0.786800027 0.801400006 0
vt 0.799700022 0.828000009 0
vt 0.845399976 0.787899971 0
vt 0.845399976 0.817499995 0
vt 0.903999984 0.801400006 0
vt 0.891099989 0.828000009 0
vt 0.950900018 0.838999987 0
vt 0.927699983 0.8574 0
vt 0.976700008 0.893400013 0
vt 0.947799981 0.899800003 0
vt 0.471899986 0.234300002 0
vt 0.438800007 0.231299996 0
vt 0.469099998 0.223399997 0
vt 0.440699995 0.242400005 0
vt 0.408600003 0.233899996 0
vt 0.408600003 0.245199993 0
vt 0.376399994 0.242400005 0
vt 0.378300011 0.231299996 0
vt 0.345200002 0.234300002 0
vt 0.34799999 0.223499998 0
vt 0.721899986 0.470800012 0
vt 0.788200021 0.42930001 0
vt 0.745800018 0.483799994 0
vt 0.744300008 0.405499995 0
vt 0.694999993 0.466300011 0
vt 0.694999993 0.397300005 0
vt 0.668200016 0.470800012 0
vt 0.645799994 0.405499995 0
vt 0.644299984 0.483799994 0
vt 0.601899981 0.42930001 0
vt 0.837800026 0.349000007 0
vt 0.887700021 0.202000007 0
vt 0.887700021 0.349000007 0
vt 0.837800026 0.202000007 0
vt 0.787999988 0.349000007 0
vt 0.787999988 0.202000007 0
vt 0.738200009 0.349000007 0
vt 0.738200009 0.202000007 0
vt 0.688399971 0.349000007 0
vt 0.688399971 0.202000007 0
vt 0.102799997 0.211199999 0
vt 0.0929000005 0.1743 0
vt 0.102799997 0.137400001 0
vt 0.129899994 0.238199994 0
vt 0.129899994 0.110399999 0
vt 0.166899994 0.248099998 0
vt 0.166899994 0.100500003 0
vt 0.203899994 0.110399999 0
vt 0.231000006 0.137400001 0
vt 0.203899994 0.238199994 0
vt 0.240899995 0.1743 0
vt 0.231000006 0.211199999 0
vt 0.922100008 0.879199982 0
vt 0.752900004 0.924399972 0
vt 0.934300005 0.924399972 0
vt 0.764999986 0.879199982 0
vt 0.888899982 0.846000016 0
vt 0.798200011 0.846000016 0
vt 0.843500018 0.833899975 0
vt 0.560400009 0.198100001 0
vt 0.587700009 0.202600002 0
vt 0.563199997 0.209000006 0
vt 0.585799992 0.191499993 0
vt 0.611999989 0.200499997 0
vt 0.611999989 0.189300001 0
vt 0.638100028 0.191499993 0
vt 0.636200011 0.202600002 0
vt 0.663500011 0.198100001 0
vt 0.660700023 0.209000006 0
vt 0.864600003 0.409999996 0
vt 0.819000006 0.399500012 0
vt 0.864600003 0.399500012 0
vt 0.819000006 0.409999996 0
vt 0.2852 0.373400003 0
vt 0.205699995 0.327699989 0
vt 0.244200006 0.312299997 0
vt 0.222599998 0.392100006 0
vt 0.164100006 0.332599998 0
vt 0.164100006 0.397899985 0
vt 0.122400001 0.327699989 0
vt 0.105499998 0.392100006 0
vt 0.0838999972 0.312299997 0
vt 0.0428999998 0.373400003 0
vt 0.234899998 0.479900002 0
vt 0.164100006 0.484800011 0
vt 0.0931999981 0.479900002 0
vt 0.0227000006 0.466300011 0
vt 0.305400014 0.466300011 0
vt 0.927299976 0.444299996 0
vt 0.959800005 0.3838 0
vt 0.959800005 0.444299996 0
vt 0.927299976 0.3838 0
vt 0.54339999 0.206400007 0
vt 0.506500006 0.150399998 0
vt 0.531499982 0.146699995 0
vt 0.512499988 0.211099997 0
vt 0.482199997 0.151600003 0
vt 0.482199997 0.212599993 0
vt 0.451900005 0.211099997 0
vt 0.457899988 0.150399998 0
vt 0.420899987 0.206400007 0
vt 0.432900012 0.146699995 0
vt 0.389099985 0.326099992 0
vt 0.409099996 0.261599988 0
vt 0.421000004 0.321399987 0
vt 0.383100003 0.265500009 0
vt 0.356900007 0.266799986 0
vt 0.356900007 0.327699989 0
vt 0.324699998 0.326099992 0
vt 0.33070001 0.265500009 0
vt 0.304699987 0.261599988 0
vt 0.292800009 0.321399987 0
vt 0.780200005 0.410100013 0
vt 0.812099993 0.399599999 0
vt 0.812099993 0.410100013 0
vt 0.780200005 0.381900012 0
vt 0.734700024 0.586199999 0
vt 0.761799991 0.494500011 0
vt 0.761900008 0.586199999 0
vt 0.734700024 0.494500011 0
vt 0.707599998 0.586199999 0
vt 0.707599998 0.494500011 0
vt 0.680400014 0.586199999 0
vt 0.680400014 0.494500011 0
vt 0.653299987 0.586199999 0
vt 0.653299987 0.494599998 0
vt 0.430500001 0.257999986 0
vt 0.431400001 0.319999993 0
vt 0.419499993 0.260199994 0
vt 0.442400008 0.317799985 0
vt 0.864600003 0.39379999 0
vt 0.819000006 0.358099997 0
vt 0.864600003 0.358099997 0
vt 0.819000006 0.39379999 0
vt 0.959800005 0.273900002 0
vt 0.941299975 0.298599988 0
vt 0.927299976 0.273900002 0
vt 0.97329998 0.298599988 0
vt 0.868300021 0.399300009 0
vt 0.900200009 0.40990001 0
vt 0.868300021 0.40990001 0
vt 0.900200009 0.381599993 0
vt 0.544499993 0.774500012 0
vt 0.604700029 0.701399982 0
vt 0.54460001 0.701399982 0
vt 0.604600012 0.774500012 0
vt 0.664699972 0.701399982 0
vt 0.664699972 0.774500012 0
vt 0.724799991 0.701399982 0
vt 0.724799991 0.774500012 0
vt 0.78490001 0.701399982 0
vt 0.784799993 0.774500012 0
vt 0.845000029 0.701399982 0
vt 0.844900012 0.774500012 0
vt 0.905099988 0.701399982 0
vt 0.904999971 0.774500012 0
vt 0.941299975 0.359100014 0
vt 0.97329998 0.359100014 0

# 307 vertex normals
vn 0.2126102 -0.863141239 -0.458021969
vn 0.133703038 -0.856219172 -0.499011308
vn 0.290410876 -0.863132179 -0.413115501
vn 0.413115501 -0.863132179 -0.290410876
vn 0.458021998 -0.863141239 -0.212610215
vn 0.503008485 -0.863114297 -0.0449007824
vn 0.503008485 -0.863114357 0.0449007079
vn 0.458021909 -0.863141239 0.212610111
vn 0.413115412 -0.863132179 0.290410757
vn 0.290410876 -0.863132238 0.413115352
vn 0.212610185 -0.863141298 0.458021879
vn 0.133801252 -0.856207788 0.499004483
vn -0.2126102 -0.863141239 -0.458021969
vn -0.133801267 -0.856207728 -0.499004632
vn -0.290410876 -0.863132179 -0.413115501
vn -0.413115501 -0.863132179 -0.290410876
vn -0.458021998 -0.863141239 -0.212610215
vn -0.503008485 -0.863114297 -0.0449007824
vn -0.503008485 -0.863114357 0.0449007079
vn -0.458021909 -0.863141239 0.212610111
vn -0.413115412 -0.863132179 0.290410757
vn -0.290410876 -0.863132238 0.413115352
vn -0.212610185 -0.863141298 0.458021879
vn -0.133703023 -0.856219232 0.499011159
vn -0.133801252 0.856207788 -0.499004483
vn -0.212610185 0.863141298 -0.458021879
vn -0.290410876 0.863132238 -0.413115352
vn -0.413115412 0.863132179 -0.290410757
vn -0.458021909 0.863141239 -0.212610111
vn -0.503008485 0.863114357 -0.0449007079
vn -0.503008485 0.863114297 0.0449007824
vn -0.458021998 0.863141239 0.212610215
vn -0.413115501 0.863132179 0.290410876
vn -0.290410876 0.863132179 0.413115501
vn -0.2126102 0.863141239 0.458021969
vn -0.133703038 0.856219172 0.499011308
vn 0.145795941 0.865075946 -0.479986608
vn 0.113896251 0.865671456 -0.487483859
vn 0.145899042 0.865994096 -0.478296697
vn 0.0818034336 0.865136266 -0.494820684
vn 0 0.865323603 -0.50121361
vn 0 0.865460515 -0.500977099
vn -0.0818034336 0.865136266 -0.494820684
vn -0.113896251 0.865671456 -0.487483859
vn -0.145795941 0.865075946 -0.479986608
vn -0.145899042 0.865994096 -0.478296697
vn 0.444614559 0.634120584 0.632620633
vn 0.553431988 0.622435808 0.553431869
vn 0.325411439 0.634122193 0.701424539
vn 0.0686996579 0.634096622 0.77019608
vn -0.0687991753 0.634092212 0.770190656
vn -0.325411439 0.634122193 0.701424539
vn -0.444614559 0.634120584 0.632620633
vn -0.553431988 0.622435808 0.553431869
vn 0.575025201 -3.57618468e-08 0.818135679
vn 0.707106829 -3.09086126e-08 0.70710665
vn 0.420902729 -3.96508533e-08 0.907105803
vn 0.0889036134 -4.35383001e-08 0.996040285
vn -0.0889036134 -4.35383001e-08 0.996040285
vn -0.420902729 -3.96508533e-08 0.907105803
vn -0.575025201 -3.57618468e-08 0.818135679
vn -0.707106829 -3.09086126e-08 0.70710665
vn -0.996040225 -3.886099e-09 0.0889035761
vn -0.965985477 -1.13035918e-08 0.258596033
vn -0.996040225 3.886099e-09 -0.0889035761
vn -0.907105863 1.83982394e-08 -0.42090264
vn -0.818135738 2.5135142e-08 -0.575025022
vn -0.575025201 3.57618468e-08 -0.818135679
vn -0.420902729 3.96508533e-08 -0.907105803
vn -0.258596182 4.2224567e-08 -0.965985537
vn 0 1 4.37113883e-08
vn 0.145895213 -0.865171492 0.479784101
vn 0.114001751 -0.865813255 0.487207383
vn 0.146193936 -0.866063952 0.478080094
vn 0.0818967 -0.865265012 0.494579971
vn 0 -0.865460515 0.500977099
vn -0.0818967 -0.865265012 0.494579971
vn -0.114001751 -0.865813255 0.487207383
vn -0.145895213 -0.865171492 0.479784101
vn -0.146193936 -0.866063952 0.478080094
vn 0 -4.37113883e-08 1
vn 0.232007399 -0.442714006 -0.866127431
vn 0.250992268 -0.802775264 -0.540883362
vn 0.157295346 -0.793876469 -0.587382615
vn 0.512501121 -0.453600883 -0.729101479
vn 0.487911224 -0.802718341 -0.342907906
vn 0.8083781 -0.453687638 -0.375089824
vn 0.594005108 -0.802706838 -0.0531004891
vn 0.887615085 -0.453707665 0.07930132
vn 0.587382674 -0.793876469 0.157295302
vn 0.866107464 -0.442703694 0.232101932
vn 0.420985013 3.96491835e-08 -0.907067537
vn 0.81808877 2.51380694e-08 -0.575091958
vn 0.996031404 3.89043597e-09 -0.0890027955
vn 0.965928853 -1.13128431e-08 0.258807689
vn 0.258807778 4.22220836e-08 -0.965928853
vn -0.592616022 0.499613464 -0.631816983
vn -0.631602526 0.501201987 -0.59150219
vn -0.592680871 0.49958384 -0.631779492
vn -0.668706179 0.50120461 -0.549204946
vn -0.7492643 0.50147599 -0.432579249
vn -0.74930191 0.501401186 -0.432601005
vn -0.8099913 0.501194537 -0.304496646
vn -0.828026056 0.501215696 -0.251307845
vn -0.843446255 0.499627262 -0.197410777
vn -0.488597572 -0.865095556 -0.113499448
vn -0.478988886 -0.865779757 -0.144896656
vn -0.487324357 -0.865943074 -0.112505637
vn -0.469386071 -0.865174174 -0.176494777
vn -0.433984071 -0.865368187 -0.250590831
vn -0.434102863 -0.865305483 -0.250601649
vn -0.387419224 -0.865242779 -0.318215787
vn -0.364881039 -0.865854859 -0.342282236
vn -0.342503548 -0.865208745 -0.366203755
vn -0.34100458 -0.866011441 -0.365704894
vn 0.478988886 -0.865779757 -0.144896656
vn 0.488597572 -0.865095556 -0.113499448
vn 0.487324357 -0.865943074 -0.112505637
vn 0.469386071 -0.865174174 -0.176494777
vn 0.433984071 -0.865368187 -0.250590831
vn 0.434102863 -0.865305483 -0.250601649
vn 0.387419224 -0.865242779 -0.318215787
vn 0.364881039 -0.865854859 -0.342282236
vn 0.342503548 -0.865208745 -0.366203755
vn 0.34100458 -0.866011441 -0.365704894
vn -0.364999354 0.865798235 0.342299342
vn -0.342604309 0.865210772 0.366104662
vn -0.34089452 0.866185904 0.365394086
vn -0.387610346 0.865123034 0.318308502
vn -0.434102863 0.865305483 0.250601649
vn -0.469496369 0.865093112 0.176598638
vn -0.479023427 0.865742147 0.145007104
vn -0.48851037 0.865118146 0.113702431
vn -0.487189412 0.865981042 0.112797573
vn 0.631602526 0.501201987 -0.59150219
vn 0.592616022 0.499613464 -0.631816983
vn 0.592680871 0.49958384 -0.631779492
vn 0.668706179 0.50120461 -0.549204946
vn 0.7492643 0.50147599 -0.432579249
vn 0.74930191 0.501401186 -0.432601005
vn 0.8099913 0.501194537 -0.304496646
vn 0.828026056 0.501215696 -0.251307845
vn 0.843446255 0.499627262 -0.197410777
vn -0.650492668 -0.501394331 0.570493519
vn -0.592680871 -0.49958384 0.631779492
vn -0.592753649 -0.49966079 0.631650388
vn -0.650488257 -0.501290858 0.570589542
vn -0.74930191 -0.501401186 0.432601005
vn -0.81930244 -0.501401365 0.278100759
vn -0.81935811 -0.501374245 0.277985722
vn -0.843446255 -0.499627262 0.197410777
vn -0.843387425 -0.4996925 0.197496995
vn 0.500011086 3.78548926e-08 -0.866018951
vn 0.500011086 -3.78548926e-08 0.866018951
vn -0.325411439 0.634122252 -0.701424539
vn -0.202507734 0.622423649 -0.756028652
vn -0.202411801 0.622436225 -0.756043971
vn -0.444614559 0.634120703 -0.632620573
vn -0.632620752 0.634120703 -0.44461447
vn -0.701424599 0.634122193 -0.32541135
vn -0.770190716 0.634092271 -0.0687991306
vn -0.770195961 0.634096622 0.0686996579
vn -0.756028771 0.622423589 0.202507719
vn 0.420902729 3.96508533e-08 -0.907105803
vn 0.258689523 4.22234763e-08 -0.965960562
vn 0.575025201 3.57618468e-08 -0.818135679
vn 0.818135738 2.5135142e-08 -0.575025022
vn 0.907105863 1.83982394e-08 -0.42090264
vn 0.996040225 3.886099e-09 -0.0889035761
vn 0.996040225 -3.886099e-09 0.0889035761
vn 0.965960503 -1.13076721e-08 0.258689404
vn 0 -1 -4.37113883e-08
vn 0.965985477 -1.13035918e-08 0.258596033
vn 0.258596182 4.2224567e-08 -0.965985537
vn 0.575092137 -3.57597898e-08 0.818088651
vn 0.634052813 -0.442667007 0.634052694
vn 0.375089854 -0.453687727 0.808377981
vn 0.342907935 -0.802718401 0.487911135
vn 0.429983467 -0.793869317 0.429983318
vn 0.0890028179 -4.35379093e-08 0.996031344
vn -0.0793013498 -0.453707755 0.887615085
vn 0.0531004667 -0.802706897 0.594005048
vn -0.420985013 -3.96491835e-08 0.907067537
vn -0.512501121 -0.453600943 0.72910136
vn -0.250992268 -0.802775264 0.540883243
vn -0.634052813 -0.442667007 0.634052694
vn -0.429983467 -0.793869317 0.429983318
vn -0.996031404 -3.89043597e-09 0.0890027955
vn -0.866127551 -0.442713946 0.232007295
vn -0.965928853 -1.13128431e-08 0.258807689
vn -0.887615085 -0.453707665 -0.0793013647
vn -0.594005108 -0.802706838 0.0531004146
vn -0.587429285 -0.793839455 0.157307774
vn -0.907067597 1.84018347e-08 -0.420984894
vn -0.729101479 -0.453600794 -0.512500882
vn -0.540883422 -0.802775264 -0.250992298
vn -0.575092137 3.57597898e-08 -0.818088651
vn -0.375089854 -0.453687638 -0.808378041
vn -0.342907965 -0.802718401 -0.487911224
vn -0.258807778 4.22220836e-08 -0.965928853
vn -0.232102007 -0.442703694 -0.866107404
vn -0.157295346 -0.793876469 -0.587382615
vn -0.948880374 -0.0429991148 0.312693447
vn -0.94879353 -0.042699717 0.312997818
vn -0.948996544 -0.0432998538 0.312298834
vn 0 -0.868249238 0.496128112
vn 1 0 0
vn -0.500011086 -3.78548926e-08 0.866018951
vn -0.500086069 -0.000100035038 0.865975738
vn -0.499892771 9.99606782e-05 0.866087317
vn -0.500011086 3.78548926e-08 -0.866018951
vn -0.500086069 0.000100035038 -0.865975738
vn -0.499892771 -9.99606782e-05 -0.866087317
vn 0.342604309 0.865210772 0.366104662
vn 0.364999354 0.865798235 0.342299342
vn 0.34089452 0.866185904 0.365394086
vn 0.387610346 0.865123034 0.318308502
vn 0.434102863 0.865305483 0.250601649
vn 0.469496369 0.865093112 0.176598638
vn 0.479023427 0.865742147 0.145007104
vn 0.48851037 0.865118146 0.113702431
vn 0.487189412 0.865981042 0.112797573
vn 0.203601897 -0.0430003516 -0.978108943
vn 0.203297034 -0.0426993258 -0.978185594
vn 0.204001725 -0.0434003174 -0.978008032
vn -0.203601897 -0.0430003516 -0.978108943
vn -0.203297034 -0.0426993258 -0.978185594
vn -0.204001725 -0.0434003174 -0.978008032
vn -0.258689523 4.22234763e-08 -0.965960562
vn -0.965960503 -1.13076721e-08 0.258689404
vn 0.25890103 4.22209929e-08 -0.965903819
vn 0.575092137 3.57597898e-08 -0.818088651
vn 0.907067597 1.84018347e-08 -0.420984894
vn 0.996031404 -3.89043597e-09 0.0890027955
vn 0.907067597 -1.84018347e-08 0.420984894
vn 0.81808877 -2.51380694e-08 0.575091958
vn 0.420985013 -3.96491835e-08 0.907067537
vn 0.25890103 -4.22209929e-08 0.965903819
vn 0.133801267 0.856207728 0.499004632
vn 0.2126102 0.863141239 0.458021969
vn 0.290410876 0.863132179 0.413115501
vn 0.413115501 0.863132179 0.290410876
vn 0.458021998 0.863141239 0.212610215
vn 0.503008485 0.863114297 0.0449007824
vn 0.503008485 0.863114357 -0.0449007079
vn 0.458021909 0.863141239 -0.212610111
vn 0.413115412 0.863132179 -0.290410757
vn 0.290410876 0.863132238 -0.413115352
vn 0.212610185 0.863141298 -0.458021879
vn 0.133703023 0.856219232 -0.499011159
vn 0.250697106 -0.499594063 -0.829190373
vn 0.168895736 -0.501387119 -0.848578334
vn 0 -0.501406729 -0.865211725
vn -0.168895736 -0.501387119 -0.848578334
vn -0.250697106 -0.499594063 -0.829190373
vn -0.420985013 3.96491835e-08 -0.907067537
vn -0.25890103 4.22209929e-08 -0.965903819
vn -0.81808877 2.51380694e-08 -0.575091958
vn -0.996031404 3.89043597e-09 -0.0890027955
vn -0.907067597 -1.84018347e-08 0.420984894
vn -0.81808877 -2.51380694e-08 0.575091958
vn -0.575092137 -3.57597898e-08 0.818088651
vn -0.25890103 -4.22209929e-08 0.965903819
vn 0.770190656 0.634092212 0.0687991828
vn 0.756028771 0.622423589 0.202507719
vn 0.75604403 0.622436166 0.202411816
vn 0.770195961 0.634096622 -0.0686996058
vn 0.701424599 0.634122193 -0.32541135
vn 0.632620752 0.634120703 -0.44461447
vn 0.444614559 0.634120703 -0.632620573
vn 0.325411439 0.634122252 -0.701424539
vn 0.202507734 0.622423649 -0.756028652
vn 0.196398288 0.501295447 0.842692494
vn 0.250705361 0.49971059 0.829117656
vn 0.141204074 0.501214325 0.85372448
vn 0 0.501481533 0.865168273
vn 0 0.501406729 0.865211725
vn -0.141204074 0.501214325 0.85372448
vn -0.196398288 0.501295447 0.842692494
vn -0.250705361 0.49971059 0.829117656
vn -1 0 0
vn 0.500086069 0.000100035038 -0.865975738
vn 0.499892771 -9.99606782e-05 -0.866087317
vn 0.500086069 -0.000100035038 0.865975738
vn 0.499892771 9.99606782e-05 0.866087317
vn 0.81930244 -0.501401365 0.278100759
vn 0.843446255 -0.499627262 0.197410777
vn 0.843387425 -0.4996925 0.197496995
vn 0.81935811 -0.501374245 0.277985722
vn 0.74930191 -0.501401186 0.432601005
vn 0.650492668 -0.501394331 0.570493519
vn 0.650488257 -0.501290858 0.570589542
vn 0.592680871 -0.49958384 0.631779492
vn 0.592753649 -0.49966079 0.631650388
vn -0.86601913 2.18561738e-08 -0.500010967
vn 0.86601913 2.18561738e-08 -0.500010967
vn 0.948880374 -0.0429991148 0.312693447
vn 0.94879353 -0.042699717 0.312997818
vn 0.948996544 -0.0432998538 0.312298834
vn -0.745518148 -0.0427010581 0.665116012
vn -0.745712459 -0.0425007343 0.664911032
vn -0.745320439 -0.0430011973 0.665318072
vn 0.745518148 -0.0427010581 0.665116012
vn 0.745712459 -0.0425007343 0.664911032
vn 0.745320439 -0.0430011973 0.665318072
vn -0.429669827 -0.868238866 -0.248082578
vn 0.429669827 -0.868238866 -0.248082578

# Mesh 'PipelineFBX' with 378 faces
g PipelineFBX
usemtl DefaultMaterial
f  1/1/1 2/2/2 3/3/2
f  4/2/2 5/1/1 6/4/3
f  7/5/4 8/4/3 9/1/1
f  10/4/3 11/5/4 12/6/5
f  13/7/6 14/6/5 15/5/4
f  16/6/5 17/7/6 18/8/7
f  19/9/8 20/8/7 21/7/6
f  22/8/7 23/9/8 24/10/9
f  25/11/10 26/10/9 27/9/8
f  28/10/9 29/11/10 30/12/11
f  31/13/12 32/12/11 33/11/10
f  34/12/11 35/13/12 36/14/12
f  37/12/13 38/13/14 39/14/14
f  40/13/14 41/12/13 42/11/15
f  43/10/16 44/11/15 45/12/13
f  46/11/15 47/10/16 48/9/17
f  49/8/18 50/9/17 51/10/16
f  52/9/17 53/8/18 54/7/19
f  55/6/20 56/7/19 57/8/18
f  58/7/19 59/6/20 60/5/21
f  61/4/22 62/5/21 63/6/20
f  64/5/21 65/4/22 66/1/23
f  67/2/24 68/1/23 69/4/22
f  70/1/23 71/2/24 72/3/24
f  73/13/25 74/12/26 75/14/25
f  76/12/26 77/13/25 78/11/27
f  79/11/27 80/10/28 81/12/26
f  82/10/28 83/11/27 84/9/29
f  85/9/29 86/8/30 87/10/28
f  88/8/30 89/9/29 90/7/31
f  91/7/31 92/6/32 93/8/30
f  94/6/32 95/7/31 96/5/33
f  97/5/33 98/4/34 99/6/32
f  100/4/34 101/5/33 102/1/35
f  103/1/35 104/2/36 105/4/34
f  106/2/36 107/1/35 108/3/36
f  109/15/37 110/16/38 111/17/39
f  112/16/38 113/15/37 114/18/40
f  115/18/40 116/19/41 117/16/38
f  118/19/41 119/18/40 120/20/42
f  121/21/43 122/19/41 123/20/42
f  124/19/41 125/21/43 126/22/44
f  127/23/45 128/22/44 129/21/43
f  130/22/44 131/23/45 132/24/46
f  133/25/47 134/26/48 135/27/48
f  136/26/48 137/25/47 138/28/49
f  139/29/50 140/28/49 141/25/47
f  142/28/49 143/29/50 144/30/51
f  145/31/52 146/30/51 147/29/50
f  148/30/51 149/31/52 150/32/53
f  151/33/54 152/32/53 153/31/52
f  154/32/53 155/33/54 156/34/54
f  157/35/55 158/36/56 159/37/56
f  160/36/56 161/35/55 162/38/57
f  163/39/58 164/38/57 165/35/55
f  166/38/57 167/39/58 168/40/59
f  169/41/60 170/40/59 171/39/58
f  172/40/59 173/41/60 174/42/61
f  175/43/62 176/42/61 177/41/60
f  178/42/61 179/43/62 180/44/62
f  181/35/63 182/36/64 183/37/64
f  184/36/64 185/35/63 186/38/65
f  187/39/66 188/38/65 189/35/63
f  190/38/65 191/39/66 192/40/67
f  193/41/68 194/40/67 195/39/66
f  196/40/67 197/41/68 198/42/69
f  199/43/70 200/42/69 201/41/68
f  202/42/69 203/43/70 204/44/70
f  205/45/71 206/46/71 207/47/71
f  208/47/71 209/48/71 210/45/71
f  211/48/71 212/47/71 213/49/71
f  214/49/71 215/50/71 216/48/71
f  217/50/71 218/49/71 219/51/71
f  220/52/71 221/50/71 222/51/71
f  223/50/71 224/52/71 225/53/71
f  226/53/71 227/54/71 228/50/71
f  229/54/71 230/53/71 231/55/71
f  232/55/71 233/56/71 234/54/71
f  235/57/71 236/58/71 237/59/71
f  238/58/71 239/57/71 240/60/71
f  241/61/71 242/60/71 243/57/71
f  244/60/71 245/61/71 246/62/71
f  247/63/71 248/62/71 249/61/71
f  250/64/72 251/65/73 252/66/74
f  253/65/73 254/64/72 255/67/75
f  256/67/75 257/68/76 258/65/73
f  259/68/76 260/67/75 261/69/76
f  262/70/77 263/68/76 264/69/76
f  265/68/76 266/70/77 267/71/78
f  268/72/79 269/71/78 270/70/77
f  271/71/78 272/72/79 273/73/80
f  274/74/81 275/75/81 276/76/81
f  277/75/81 278/74/81 279/77/81
f  280/78/82 281/79/83 282/80/84
f  283/79/83 284/78/82 285/81/85
f  286/81/85 287/82/86 288/79/83
f  289/82/86 290/81/85 291/83/87
f  292/83/87 293/84/88 294/82/86
f  295/84/88 296/83/87 297/85/89
f  298/85/89 299/86/90 300/84/88
f  301/86/90 302/85/89 303/87/91
f  304/78/82 305/88/92 306/81/85
f  307/89/93 308/81/85 309/88/92
f  310/81/85 311/89/93 312/83/87
f  313/90/94 314/83/87 315/89/93
f  316/83/87 317/90/94 318/85/89
f  319/91/95 320/85/89 321/90/94
f  322/85/89 323/91/95 324/87/91
f  325/88/92 326/78/82 327/92/96
f  328/93/71 329/94/71 330/95/71
f  331/94/71 332/93/71 333/96/71
f  334/93/71 335/94/71 336/95/71
f  337/94/71 338/93/71 339/96/71
f  340/93/71 341/94/71 342/95/71
f  343/94/71 344/93/71 345/96/71
f  346/97/97 347/98/98 348/99/99
f  349/98/98 350/97/97 351/100/100
f  352/100/100 353/101/101 354/98/98
f  355/101/101 356/100/100 357/102/102
f  358/103/103 359/101/101 360/102/102
f  361/101/101 362/103/103 363/104/104
f  364/105/105 365/104/104 366/103/103
f  367/104/104 368/105/105 369/106/105
f  370/64/106 371/65/107 372/66/108
f  373/65/107 374/64/106 375/67/109
f  376/67/109 377/68/110 378/65/107
f  379/68/110 380/67/109 381/69/111
f  382/70/112 383/68/110 384/69/111
f  385/68/110 386/70/112 387/71/113
f  388/72/114 389/71/113 390/70/112
f  391/71/113 392/72/114 393/73/115
f  394/71/116 395/72/117 396/73/118
f  397/72/117 398/71/116 399/70/119
f  400/68/120 401/70/119 402/71/116
f  403/70/119 404/68/120 405/69/121
f  406/68/120 407/67/122 408/69/121
f  409/67/122 410/68/120 411/65/123
f  412/65/123 413/64/124 414/67/122
f  415/64/124 416/65/123 417/66/125
f  418/22/126 419/23/127 420/24/128
f  421/23/127 422/22/126 423/21/129
f  424/19/130 425/21/129 426/22/126
f  427/21/129 428/19/130 429/20/130
f  430/19/130 431/18/131 432/20/130
f  433/18/131 434/19/130 435/16/132
f  436/16/132 437/15/133 438/18/131
f  439/15/133 440/16/132 441/17/134
f  442/104/135 443/105/136 444/106/137
f  445/105/136 446/104/135 447/103/138
f  448/101/139 449/103/138 450/104/135
f  451/103/138 452/101/139 453/102/140
f  454/101/139 455/100/141 456/102/140
f  457/100/141 458/101/139 459/98/142
f  460/98/142 461/97/143 462/100/141
f  463/97/143 464/98/142 465/99/143
f  466/107/144 467/108/145 468/109/146
f  469/108/145 470/107/144 471/110/147
f  472/107/144 473/111/148 474/110/147
f  475/111/148 476/107/144 477/112/148
f  478/113/149 479/111/148 480/112/148
f  481/111/148 482/113/149 483/114/150
f  484/113/149 485/115/151 486/114/150
f  487/115/151 488/113/149 489/116/152
f  490/117/153 491/118/153 492/119/153
f  493/118/153 494/117/153 495/120/153
f  496/117/154 497/118/154 498/119/154
f  499/118/154 500/117/154 501/120/154
f  502/32/155 503/33/156 504/34/157
f  505/33/156 506/32/155 507/31/158
f  508/30/159 509/31/158 510/32/155
f  511/31/158 512/30/159 513/29/160
f  514/28/161 515/29/160 516/30/159
f  517/29/160 518/28/161 519/25/162
f  520/26/163 521/25/162 522/28/161
f  523/25/162 524/26/163 525/27/163
f  526/121/164 527/122/165 528/123/165
f  529/122/165 530/121/164 531/124/166
f  532/125/167 533/124/166 534/121/164
f  535/124/166 536/125/167 537/126/168
f  538/127/169 539/126/168 540/125/167
f  541/126/168 542/127/169 543/128/170
f  544/129/171 545/128/170 546/127/169
f  547/128/170 548/129/171 549/130/171
f  550/57/172 551/58/172 552/59/172
f  553/58/172 554/57/172 555/60/172
f  556/61/172 557/60/172 558/57/172
f  559/60/172 560/61/172 561/62/172
f  562/63/172 563/62/172 564/61/172
f  565/121/55 566/122/56 567/123/56
f  568/122/56 569/121/55 570/124/57
f  571/125/58 572/124/57 573/121/55
f  574/124/57 575/125/58 576/126/59
f  577/127/60 578/126/59 579/125/58
f  580/126/59 581/127/60 582/128/61
f  583/129/62 584/128/61 585/127/60
f  586/128/61 587/129/62 588/130/62
f  589/42/170 590/43/173 591/44/173
f  592/43/173 593/42/170 594/41/169
f  595/40/168 596/41/169 597/42/170
f  598/41/169 599/40/168 600/39/167
f  601/38/166 602/39/167 603/40/168
f  604/39/167 605/38/166 606/35/164
f  607/36/174 608/35/164 609/38/166
f  610/35/164 611/36/174 612/37/174
f  613/88/175 614/78/176 615/92/56
f  616/78/176 617/88/175 618/81/177
f  619/79/178 620/78/176 621/81/177
f  622/78/176 623/79/178 624/80/179
f  625/89/180 626/81/177 627/88/175
f  628/81/177 629/89/180 630/83/181
f  631/82/182 632/81/177 633/83/181
f  634/81/177 635/82/182 636/79/178
f  637/90/183 638/83/181 639/89/180
f  640/83/181 641/90/183 642/85/184
f  643/84/185 644/83/181 645/85/184
f  646/83/181 647/84/185 648/82/182
f  649/91/62 650/85/184 651/90/183
f  652/85/184 653/91/62 654/87/186
f  655/86/187 656/85/184 657/87/186
f  658/85/184 659/86/187 660/84/185
f  661/88/188 662/78/189 663/92/190
f  664/78/189 665/88/188 666/81/191
f  667/79/192 668/78/189 669/81/191
f  670/78/189 671/79/192 672/80/193
f  673/89/194 674/81/191 675/88/188
f  676/81/191 677/89/194 678/83/195
f  679/82/196 680/81/191 681/83/195
f  682/81/191 683/82/196 684/79/192
f  685/90/197 686/83/195 687/89/194
f  688/83/195 689/90/197 690/85/198
f  691/84/199 692/83/195 693/85/198
f  694/83/195 695/84/199 696/82/196
f  697/91/200 698/85/198 699/90/197
f  700/85/198 701/91/200 702/87/201
f  703/86/202 704/85/198 705/87/201
f  706/85/198 707/86/202 708/84/199
f  709/131/203 710/132/203 711/133/204
f  712/132/203 713/131/203 714/134/205
f  715/135/206 716/136/206 717/137/206
f  718/136/206 719/135/206 720/138/206
f  721/139/207 722/140/207 723/141/207
f  724/140/207 725/139/207 726/142/207
f  727/139/208 728/140/208 729/141/209
f  730/140/208 731/139/208 732/142/210
f  733/139/211 734/140/211 735/141/212
f  736/140/211 737/139/211 738/142/213
f  739/15/214 740/16/215 741/17/216
f  742/16/215 743/15/214 744/18/217
f  745/18/217 746/19/218 747/16/215
f  748/19/218 749/18/217 750/20/218
f  751/21/219 752/19/218 753/20/218
f  754/19/218 755/21/219 756/22/220
f  757/23/221 758/22/220 759/21/219
f  760/22/220 761/23/221 762/24/222
f  763/131/223 764/132/223 765/133/224
f  766/132/223 767/131/223 768/134/225
f  769/132/226 770/131/226 771/133/227
f  772/131/226 773/132/226 774/134/228
f  775/143/208 776/144/208 777/145/208
f  778/144/208 779/143/208 780/146/208
f  781/143/211 782/144/211 783/145/211
f  784/144/211 785/143/211 786/146/211
f  787/128/69 788/129/229 789/130/229
f  790/129/229 791/128/69 792/127/68
f  793/126/67 794/127/68 795/128/69
f  796/127/68 797/126/67 798/125/66
f  799/124/65 800/125/66 801/126/67
f  802/125/66 803/124/65 804/121/63
f  805/122/230 806/121/63 807/124/65
f  808/121/63 809/122/230 810/123/230
f  811/58/172 812/57/172 813/59/172
f  814/57/172 815/58/172 816/60/172
f  817/60/172 818/61/172 819/57/172
f  820/61/172 821/60/172 822/62/172
f  823/62/172 824/63/172 825/61/172
f  826/147/231 827/148/92 828/149/231
f  829/148/92 830/147/231 831/150/232
f  832/150/232 833/151/93 834/148/92
f  835/151/93 836/150/232 837/152/233
f  838/152/233 839/153/94 840/151/93
f  841/153/94 842/152/233 843/154/234
f  844/154/234 845/155/235 846/153/94
f  847/155/235 848/154/234 849/156/236
f  850/156/236 851/157/175 852/155/235
f  853/157/175 854/156/236 855/158/237
f  856/158/237 857/159/238 858/157/175
f  859/159/238 860/158/237 861/160/238
f  862/13/239 863/12/240 864/14/239
f  865/12/240 866/13/239 867/11/241
f  868/11/241 869/10/242 870/12/240
f  871/10/242 872/11/241 873/9/243
f  874/9/243 875/8/244 876/10/242
f  877/8/244 878/9/243 879/7/245
f  880/7/245 881/6/246 882/8/244
f  883/6/246 884/7/245 885/5/247
f  886/5/247 887/4/248 888/6/246
f  889/4/248 890/5/247 891/1/249
f  892/1/249 893/2/250 894/4/248
f  895/2/250 896/1/249 897/3/250
f  898/115/251 899/113/252 900/116/251
f  901/113/252 902/115/251 903/114/252
f  904/111/253 905/113/252 906/114/252
f  907/113/252 908/111/253 909/112/253
f  910/111/253 911/107/254 912/112/253
f  913/107/254 914/111/253 915/110/254
f  916/108/255 917/107/254 918/110/254
f  919/107/254 920/108/255 921/109/255
f  922/148/256 923/147/257 924/149/257
f  925/147/257 926/148/256 927/150/197
f  928/151/258 929/150/197 930/148/256
f  931/150/197 932/151/258 933/152/194
f  934/153/259 935/152/194 936/151/258
f  937/152/194 938/153/259 939/154/188
f  940/155/260 941/154/188 942/153/259
f  943/154/188 944/155/260 945/156/261
f  946/157/262 947/156/261 948/155/260
f  949/156/261 950/157/262 951/158/183
f  952/159/263 953/158/183 954/157/262
f  955/158/183 956/159/263 957/160/263
f  958/32/264 959/33/265 960/34/266
f  961/33/265 962/32/264 963/31/267
f  964/30/268 965/31/267 966/32/264
f  967/31/267 968/30/268 969/29/269
f  970/28/270 971/29/269 972/30/268
f  973/29/269 974/28/270 975/25/271
f  976/26/272 977/25/271 978/28/270
f  979/25/271 980/26/272 981/27/272
f  982/104/273 983/105/274 984/106/274
f  985/105/274 986/104/273 987/103/275
f  988/101/276 989/103/275 990/104/273
f  991/103/275 992/101/276 993/102/277
f  994/101/276 995/100/278 996/102/277
f  997/100/278 998/101/276 999/98/279
f  1000/98/279 1001/97/280 1002/100/278
f  1003/97/280 1004/98/279 1005/99/280
f  1006/117/281 1007/118/281 1008/119/281
f  1009/118/281 1010/117/281 1011/120/281
f  1012/161/281 1013/94/281 1014/96/281
f  1015/94/281 1016/161/281 1017/162/281
f  1018/161/153 1019/94/153 1020/96/282
f  1021/94/153 1022/161/153 1023/162/283
f  1024/161/154 1025/94/154 1026/96/284
f  1027/94/154 1028/161/154 1029/162/285
f  1030/107/286 1031/108/287 1032/109/288
f  1033/108/287 1034/107/286 1035/110/289
f  1036/107/286 1037/111/290 1038/110/289
f  1039/111/290 1040/107/286 1041/112/290
f  1042/113/291 1043/111/290 1044/112/290
f  1045/111/290 1046/113/291 1047/114/292
f  1048/113/291 1049/115/293 1050/114/292
f  1051/115/293 1052/113/291 1053/116/294
f  1054/74/295 1055/75/295 1056/76/295
f  1057/75/295 1058/74/295 1059/77/295
f  1060/74/296 1061/75/296 1062/76/296
f  1063/75/296 1064/74/296 1065/77/296
f  1066/132/297 1067/131/297 1068/133/298
f  1069/131/297 1070/132/297 1071/134/299
f  1072/57/71 1073/58/71 1074/59/71
f  1075/58/71 1076/57/71 1077/60/71
f  1078/61/71 1079/60/71 1080/57/71
f  1081/60/71 1082/61/71 1083/62/71
f  1084/63/71 1085/62/71 1086/61/71
f  1087/143/207 1088/144/207 1089/145/207
f  1090/144/207 1091/143/207 1092/146/207
f  1093/162/172 1094/140/172 1095/142/172
f  1096/140/172 1097/162/172 1098/161/172
f  1099/162/172 1100/140/172 1101/142/172
f  1102/140/172 1103/162/172 1104/161/172
f  1105/162/172 1106/140/172 1107/142/172
f  1108/140/172 1109/162/172 1110/161/172
f  1111/132/300 1112/131/300 1113/133/301
f  1114/131/300 1115/132/300 1116/134/302
f  1117/131/303 1118/132/303 1119/133/304
f  1120/132/303 1121/131/303 1122/134/305
f  1123/135/306 1124/136/306 1125/137/306
f  1126/136/306 1127/135/306 1128/138/306
f  1129/135/307 1130/136/307 1131/137/307
f  1132/136/307 1133/135/307 1134/138/307

