# File produced by Open Asset Import Library (http://www.assimp.sf.net)
# (assimp v6.0.0)

mtllib MRM.mtl

# 288 vertex positions
v -1.28377604 -1.57212028e-16 -26.1936474
v 0 0 -33.7005119
v -0.803664029 -0.801248014 -26.1936474
v -0.803664029 -0.801248014 -26.1936474
v 0 0 -33.7005119
v 1.38764564e-16 -1.13313603 -26.1936474
v 1.28377604 1.57212028e-16 -26.1936474
v 0.803664029 -0.801248014 -26.1936474
v 0 0 -33.7005119
v 0.803664029 -0.801248014 -26.1936474
v 1.38764564e-16 -1.13313603 -26.1936474
v 0 0 -33.7005119
v 2.24134315e-16 -1.83025599 -19.5389919
v -0.807648003 -0.80123198 -26.1911831
v 1.38241415e-16 -1.12886405 -26.1911831
v -1.516752 -1.29417598 -19.5389919
v -1.28243196 -1.57047439e-16 -26.1911831
v -0.807648003 -0.80123198 -26.1911831
v 0.807648003 -0.80123198 -26.1911831
v 2.24134315e-16 -1.83025599 -19.5389919
v 1.38241415e-16 -1.12886405 -26.1911831
v 1.28243196 1.57047439e-16 -26.1911831
v 1.516752 -1.29417598 -19.5389919
v 0.807648003 -0.80123198 -26.1911831
v 2.24134315e-16 -1.83025599 -19.5389919
v -1.516752 -1.29417598 -19.5389919
v -0.807648003 -0.80123198 -26.1911831
v -1.516752 -1.29417598 -19.5389919
v -2.29222393 -2.80707195e-16 -19.5389919
v -1.28243196 -1.57047439e-16 -26.1911831
v 0.807648003 -0.80123198 -26.1911831
v 1.516752 -1.29417598 -19.5389919
v 2.24134315e-16 -1.83025599 -19.5389919
v 1.28243196 1.57047439e-16 -26.1911831
v 2.29222393 2.80707195e-16 -19.5389919
v 1.516752 -1.29417598 -19.5389919
v 2.24134315e-16 -1.83025599 29.8460007
v -1.516752 -1.29417598 -19.5790558
v 2.24132356e-16 -1.83024001 -19.5790558
v -1.516752 -1.29419196 29.8460007
v -2.29222393 -2.80707195e-16 -19.5790558
v -1.516752 -1.29417598 -19.5790558
v 1.516752 -1.29417598 -19.5790558
v 2.24134315e-16 -1.83025599 29.8460007
v 2.24132356e-16 -1.83024001 -19.5790558
v 2.29222393 2.80707195e-16 -19.5790558
v 1.516752 -1.29419196 29.8460007
v 1.516752 -1.29417598 -19.5790558
v 2.24134315e-16 -1.83025599 29.8460007
v -1.516752 -1.29419196 29.8460007
v -1.516752 -1.29417598 -19.5790558
v -1.516752 -1.29419196 29.8460007
v -2.29222393 -2.80707195e-16 29.9289436
v -2.29222393 -2.80707195e-16 -19.5790558
v 1.516752 -1.29417598 -19.5790558
v 1.516752 -1.29419196 29.8460007
v 2.24134315e-16 -1.83025599 29.8460007
v 2.29222393 2.80707195e-16 -19.5790558
v 2.29222393 2.80707195e-16 29.9289436
v 1.516752 -1.29419196 29.8460007
v -9.19577599 -0.323967993 27.0733433
v -1.65214396 -0.323967993 29.6238079
v -1.65214396 -0.323967993 27.0733433
v -9.19577599 -1.12612056e-15 27.0733433
v -9.19577599 -0.323967993 29.6238079
v -9.19577599 -0.323967993 27.0733433
v -1.65214396 -2.02322594e-16 29.6238079
v -9.19577599 -0.323967993 29.6238079
v -9.19577599 -1.12612056e-15 29.6238079
v -9.19577599 -1.12612056e-15 27.0733433
v -1.65214396 -0.323967993 27.0733433
v -1.65214396 -2.02322594e-16 27.0733433
v 1.65214396 -0.323967993 29.6238079
v 9.19577599 -0.323967993 27.0733433
v 1.65214396 -0.323967993 27.0733433
v 9.19577599 -0.323967993 27.0733433
v 9.19577599 1.12612056e-15 29.6238079
v 9.19577599 1.12612056e-15 27.0733433
v 9.19577599 -0.323967993 29.6238079
v 1.65214396 2.02322594e-16 29.6238079
v 9.19577599 1.12612056e-15 29.6238079
v 1.65214396 -0.323967993 27.0733433
v 9.19577599 1.12612056e-15 27.0733433
v 1.65214396 2.02322594e-16 27.0733433
v -9.19577599 -0.323967993 27.0733433
v -9.19577599 -0.323967993 29.6238079
v -1.65214396 -0.323967993 29.6238079
v -9.19577599 -1.12612056e-15 27.0733433
v -9.19577599 -1.12612056e-15 29.6238079
v -9.19577599 -0.323967993 29.6238079
v -1.65214396 -2.02322594e-16 29.6238079
v -1.65214396 -0.323967993 29.6238079
v -9.19577599 -0.323967993 29.6238079
v -9.19577599 -1.12612056e-15 27.0733433
v -9.19577599 -0.323967993 27.0733433
v -1.65214396 -0.323967993 27.0733433
v 1.65214396 -0.323967993 29.6238079
v 9.19577599 -0.323967993 29.6238079
v 9.19577599 -0.323967993 27.0733433
v 9.19577599 -0.323967993 27.0733433
v 9.19577599 -0.323967993 29.6238079
v 9.19577599 1.12612056e-15 29.6238079
v 9.19577599 -0.323967993 29.6238079
v 1.65214396 -0.323967993 29.6238079
v 1.65214396 2.02322594e-16 29.6238079
v 1.65214396 -0.323967993 27.0733433
v 9.19577599 -0.323967993 27.0733433
v 9.19577599 1.12612056e-15 27.0733433
v -1.65214396 -0.323967993 25.2581768
v -9.19577599 -0.323967993 14.4674883
v -1.65214396 -0.323967993 -2.49846411
v -9.19577599 -1.12612056e-15 14.4674883
v -9.19577599 -0.323967993 25.2581768
v -9.19577599 -1.12612056e-15 25.2581768
v -1.65214396 -2.02322594e-16 -2.49846411
v -9.19577599 -0.323967993 14.4674883
v -9.19577599 -1.12612056e-15 14.4674883
v -9.19577599 -1.12612056e-15 25.2581768
v -1.65214396 -0.323967993 25.2581768
v -1.65214396 -2.02322594e-16 25.2581768
v 1.65214396 -0.323967993 25.2581768
v 9.19577599 -0.323967993 14.4674883
v 9.19577599 -0.323967993 25.2581768
v 9.19577599 -0.323967993 25.2581768
v 9.19577599 1.12612056e-15 14.4674883
v 9.19577599 1.12612056e-15 25.2581768
v 9.19577599 -0.323967993 14.4674883
v 1.65214396 2.02322594e-16 -2.49846411
v 9.19577599 1.12612056e-15 14.4674883
v 1.65214396 -0.323967993 25.2581768
v 9.19577599 1.12612056e-15 25.2581768
v 1.65214396 2.02322594e-16 25.2581768
v -1.65214396 -0.323967993 25.2581768
v -9.19577599 -0.323967993 25.2581768
v -9.19577599 -0.323967993 14.4674883
v -9.19577599 -1.12612056e-15 14.4674883
v -9.19577599 -0.323967993 14.4674883
v -9.19577599 -0.323967993 25.2581768
v -1.65214396 -2.02322594e-16 -2.49846411
v -1.65214396 -0.323967993 -2.49846411
v -9.19577599 -0.323967993 14.4674883
v -9.19577599 -1.12612056e-15 25.2581768
v -9.19577599 -0.323967993 25.2581768
v -1.65214396 -0.323967993 25.2581768
v 1.65214396 -0.323967993 25.2581768
v 1.65214396 -0.323967993 -2.49846411
v 9.19577599 -0.323967993 14.4674883
v 9.19577599 -0.323967993 25.2581768
v 9.19577599 -0.323967993 14.4674883
v 9.19577599 1.12612056e-15 14.4674883
v 9.19577599 -0.323967993 14.4674883
v 1.65214396 -0.323967993 -2.49846411
v 1.65214396 2.02322594e-16 -2.49846411
v 1.65214396 -0.323967993 25.2581768
v 9.19577599 -0.323967993 25.2581768
v 9.19577599 1.12612056e-15 25.2581768
v -0.139727995 -8.91576004 29.4344158
v -0.139727995 -1.37212801 27.1889915
v -0.139727995 -8.91576004 27.1889915
v 1.0918296e-15 -8.91576004 29.4344158
v -0.139727995 -8.91576004 27.1889915
v 1.0918296e-15 -8.91576004 27.1889915
v 1.0918296e-15 -8.91576004 27.1889915
v -0.139727995 -1.37212801 27.1889915
v 1.6803167e-16 -1.37212801 27.1889915
v 1.6803167e-16 -1.37212801 29.4344158
v -0.139727995 -8.91576004 29.4344158
v 1.0918296e-15 -8.91576004 29.4344158
v 0.139727995 -8.91576004 29.4344158
v 0.139727995 -1.37212801 27.1889915
v 0.139727995 -1.37212801 29.4344158
v 0.139727995 -8.91576004 27.1889915
v 1.0918296e-15 -8.91576004 29.4344158
v 1.0918296e-15 -8.91576004 27.1889915
v 0.139727995 -1.37212801 27.1889915
v 1.0918296e-15 -8.91576004 27.1889915
v 1.6803167e-16 -1.37212801 27.1889915
v 0.139727995 -8.91576004 29.4344158
v 1.6803167e-16 -1.37212801 29.4344158
v 1.0918296e-15 -8.91576004 29.4344158
v -0.139727995 -8.91576004 29.4344158
v -0.139727995 -1.37212801 29.4344158
v -0.139727995 -1.37212801 27.1889915
v 1.0918296e-15 -8.91576004 29.4344158
v -0.139727995 -8.91576004 29.4344158
v -0.139727995 -8.91576004 27.1889915
v 1.0918296e-15 -8.91576004 27.1889915
v -0.139727995 -8.91576004 27.1889915
v -0.139727995 -1.37212801 27.1889915
v 1.6803167e-16 -1.37212801 29.4344158
v -0.139727995 -1.37212801 29.4344158
v -0.139727995 -8.91576004 29.4344158
v 0.139727995 -8.91576004 29.4344158
v 0.139727995 -8.91576004 27.1889915
v 0.139727995 -1.37212801 27.1889915
v 0.139727995 -8.91576004 27.1889915
v 0.139727995 -8.91576004 29.4344158
v 1.0918296e-15 -8.91576004 29.4344158
v 0.139727995 -1.37212801 27.1889915
v 0.139727995 -8.91576004 27.1889915
v 1.0918296e-15 -8.91576004 27.1889915
v 0.139727995 -8.91576004 29.4344158
v 0.139727995 -1.37212801 29.4344158
v 1.6803167e-16 -1.37212801 29.4344158
v -0.165168002 -1.44412804 24.9605598
v -0.165168002 -8.98775959 15.3165598
v -0.165168002 -8.98775959 24.9605598
v -0.165168002 -8.98775959 15.3165598
v 1.10064679e-15 -8.98775959 24.9605598
v -0.165168002 -8.98775959 24.9605598
v -0.165168002 -1.44412804 -1.64939201
v 1.10064679e-15 -8.98775959 15.3165598
v -0.165168002 -8.98775959 15.3165598
v -0.165168002 -8.98775959 24.9605598
v 1.76848833e-16 -1.44412804 24.9605598
v -0.165168002 -1.44412804 24.9605598
v 0.165168002 -1.44412804 24.9605598
v 0.165168002 -8.98775959 15.3165598
v 0.165168002 -1.44412804 -1.64939201
v 1.10064679e-15 -8.98775959 24.9605598
v 0.165168002 -8.98775959 15.3165598
v 0.165168002 -8.98775959 24.9605598
v 1.10064679e-15 -8.98775959 15.3165598
v 0.165168002 -1.44412804 -1.64939201
v 0.165168002 -8.98775959 15.3165598
v 1.76848833e-16 -1.44412804 24.9605598
v 0.165168002 -8.98775959 24.9605598
v 0.165168002 -1.44412804 24.9605598
v -0.165168002 -1.44412804 24.9605598
v -0.165168002 -1.44412804 -1.64939201
v -0.165168002 -8.98775959 15.3165598
v -0.165168002 -8.98775959 15.3165598
v 1.10064679e-15 -8.98775959 15.3165598
v 1.10064679e-15 -8.98775959 24.9605598
v -0.165168002 -1.44412804 -1.64939201
v 1.76848833e-16 -1.44412804 -1.64939201
v 1.10064679e-15 -8.98775959 15.3165598
v -0.165168002 -8.98775959 24.9605598
v 1.10064679e-15 -8.98775959 24.9605598
v 1.76848833e-16 -1.44412804 24.9605598
v 0.165168002 -1.44412804 24.9605598
v 0.165168002 -8.98775959 24.9605598
v 0.165168002 -8.98775959 15.3165598
v 1.10064679e-15 -8.98775959 24.9605598
v 1.10064679e-15 -8.98775959 15.3165598
v 0.165168002 -8.98775959 15.3165598
v 1.10064679e-15 -8.98775959 15.3165598
v 1.76848833e-16 -1.44412804 -1.64939201
v 0.165168002 -1.44412804 -1.64939201
v 1.76848833e-16 -1.44412804 24.9605598
v 1.10064679e-15 -8.98775959 24.9605598
v 0.165168002 -8.98775959 24.9605598
v -0.807648003 -0.80123198 30.6711845
v 2.24134315e-16 -1.83025599 29.8498554
v 1.38241415e-16 -1.12886405 30.6711845
v -1.28243196 -1.57047439e-16 30.6711845
v -1.516752 -1.29417598 29.8498554
v -0.807648003 -0.80123198 30.6711845
v -0.807648003 -0.80123198 30.6711845
v 0 0 30.6711845
v -1.28243196 -1.57047439e-16 30.6711845
v -0.807648003 -0.80123198 30.6711845
v 1.38241415e-16 -1.12886405 30.6711845
v 0 0 30.6711845
v 2.24134315e-16 -1.83025599 29.8498554
v 0.807648003 -0.80123198 30.6711845
v 1.38241415e-16 -1.12886405 30.6711845
v 1.516752 -1.29417598 29.8498554
v 1.28243196 1.57047439e-16 30.6711845
v 0.807648003 -0.80123198 30.6711845
v 0.807648003 -0.80123198 30.6711845
v 1.28243196 1.57047439e-16 30.6711845
v 0 0 30.6711845
v 0.807648003 -0.80123198 30.6711845
v 0 0 30.6711845
v 1.38241415e-16 -1.12886405 30.6711845
v -0.807648003 -0.80123198 30.6711845
v -1.516752 -1.29417598 29.8498554
v 2.24134315e-16 -1.83025599 29.8498554
v -1.28243196 -1.57047439e-16 30.6711845
v -2.29222393 -2.80707195e-16 29.9389763
v -1.516752 -1.29417598 29.8498554
v 2.24134315e-16 -1.83025599 29.8498554
v 1.516752 -1.29417598 29.8498554
v 0.807648003 -0.80123198 30.6711845
v 1.516752 -1.29417598 29.8498554
v 2.29222393 2.80707195e-16 29.9389763
v 1.28243196 1.57047439e-16 30.6711845

# 55 UV coordinates
vt 0.362199992 0.828999996 0
vt 0.289900005 0.67869997 0
vt 0.297500014 0.831799984 0
vt 0.237000003 0.830500007 0
vt 0.00669999979 0.874000013 0
vt 0.0983999968 0.741899967 0
vt 0.0375999995 0.740499973 0
vt 0.118799999 0.876900017 0
vt 0.163100004 0.738999963 0
vt 0.223700002 0.872399986 0
vt 0.546899974 0.984700024 0
vt 0.659099996 0.00290000439 0
vt 0.546800017 0.00290000439 0
vt 0.659200013 0.984600008 0
vt 0.764400005 0.00290000439 0
vt 0.764500022 0.986299992 0
vt 0.0388000011 0.638999999 0
vt 0.481700003 0.468100011 0
vt 0.481700003 0.638999999 0
vt 0.0388000011 0.648299992 0
vt 0.0388000011 0.468100011 0
vt 0.481700003 0.458800018 0
vt 0.0197999999 0.468100011 0
vt 0.481700003 0.648299992 0
vt 0.478100002 0.332700014 0
vt 0.0351999998 0.290600002 0
vt 0.478100002 0.00700002909 0
vt 0.0162000004 0.290600002 0
vt 0.0351999998 0.332700014 0
vt 0.0351999998 0.342000008 0
vt 0.463 0.0013999939 0
vt 0.478100002 0.342000008 0
vt 0.0392000005 0.637899995 0
vt 0.481900007 0.466899991 0
vt 0.0390000008 0.467000008 0
vt 0.0309999995 0.637899995 0
vt 0.0390000008 0.463 0
vt 0.481900007 0.462899983 0
vt 0.48210001 0.641799986 0
vt 0.48210001 0.637799978 0
vt 0.475499988 0.332700014 0
vt 0.0355999991 0.290000021 0
vt 0.0353000015 0.331900001 0
vt 0.0353000015 0.336600006 0
vt 0.478100002 0.00900000334 0
vt 0.0256999992 0.286199987 0
vt 0.475400001 0.337499976 0
vt 0.468100011 0.00520002842 0
vt 0.120300002 0.709599972 0
vt 0.1131 0.662 0
vt 0.0716999993 0.688899994 0
vt 0.1206 0.709599972 0
vt 0.113700002 0.661900043 0
vt 0.0357000008 0.722900033 0
vt 0.192100003 0.69630003 0

# 75 vertex normals
vn -0.848691642 -0.50859499 -0.145098567
vn 1.39223153e-16 -0.980779052 -0.195121482
vn -0.64537394 -0.749184549 -0.149046823
vn 1.21088442e-16 -0.988794863 -0.149280578
vn 0.848691642 -0.50859499 -0.145098567
vn 0.64537394 -0.749184549 -0.149046823
vn 1.21744787e-16 -0.994154513 -0.107967272
vn -0.546499372 -0.829408765 -0.115842275
vn 1.21786185e-16 -0.994492471 -0.104808278
vn -0.715651989 -0.686740279 -0.127397627
vn -0.851892054 -0.507645309 -0.128748819
vn 0.546499372 -0.829408765 -0.115842275
vn 0.851892054 -0.507645309 -0.128748819
vn 0.715651989 -0.686740279 -0.127397627
vn -0.850607991 -0.509704769 -0.129101217
vn 0.850607991 -0.509704769 -0.129101217
vn 1.22460635e-16 -1 0
vn -0.536161542 -0.844115436 0
vn -0.72068578 -0.693261921 0
vn -0.857792795 -0.513995647 0
vn 0.536161542 -0.844115436 0
vn 0.857792795 -0.513995647 0
vn 0.72068578 -0.693261921 0
vn 0.408248276 0.816496551 0.408248276
vn -1.09532113e-16 0.89442718 -0.44721359
vn -5.47660567e-17 0.44721359 0.89442718
vn 0.707106769 8.65927473e-17 0.707106769
vn 0.666666687 0.333333343 -0.666666687
vn 0 0 -1
vn 0.707106769 8.65927473e-17 -0.707106769
vn 0 0 1
vn -0.666666687 0.666666687 0.333333343
vn -0.89442718 -1.09532113e-16 -0.44721359
vn -0.44721359 -5.47660567e-17 0.89442718
vn -0.408248276 0.408248276 -0.816496551
vn 8.65927473e-17 -0.707106769 0.707106769
vn -0.794817626 -0.562211931 -0.228434995
vn -0.646106899 -0.707106769 -0.287307918
vn -0.990416646 -1.21287045e-16 -0.138111785
vn -0.816496551 -0.408248276 0.408248276
vn -0.913733184 -1.11896348e-16 -0.40631476
vn 0.794817626 -0.562211931 -0.228434995
vn 0.816496551 -0.408248276 0.408248276
vn 0.990416646 1.21287045e-16 -0.138111785
vn 0.44721359 5.47660567e-17 0.89442718
vn 0.913733184 1.11896348e-16 -0.40631476
vn 0.646106899 -0.707106769 -0.287307918
vn -0.666666687 -0.333333343 0.666666687
vn -0.707106769 -8.65927473e-17 -0.707106769
vn -0.408248276 -0.816496551 -0.408248276
vn 1.09532113e-16 -0.89442718 0.44721359
vn 5.47660567e-17 -0.44721359 -0.89442718
vn 0.666666687 -0.333333343 0.666666687
vn 0.408248276 -0.816496551 -0.408248276
vn -0.707106769 -8.65927473e-17 0.707106769
vn -0.89442718 -1.09532113e-16 0.44721359
vn -0.562211931 -0.819067717 -0.114217497
vn -0.408248276 -0.408248276 0.816496551
vn -0.44721359 -0.817267776 -0.363418937
vn 1.17696115e-16 -0.961093366 -0.27622357
vn 0.89442718 1.09532113e-16 0.44721359
vn 0.562211931 -0.819067717 -0.114217497
vn 0.44721359 -0.817267776 -0.363418937
vn 0.408248276 -0.408248276 0.816496551
vn 1.11896348e-16 -0.913733184 -0.40631476
vn -0.252376497 -0.396818936 0.882519603
vn 9.19594819e-17 -0.750931025 0.660380661
vn 5.01084277e-17 -0.409179896 0.912453771
vn -0.403540224 -0.258736968 0.877616346
vn -0.47615695 -0.495160252 0.726698697
vn 0.252376497 -0.396818936 0.882519603
vn 0.47615695 -0.495160252 0.726698697
vn 0.403540224 -0.258736968 0.877616346
vn -0.54360497 -0.377403438 0.749706805
vn 0.54360497 -0.377403438 0.749706805

# Mesh 'MRM' with 96 faces
g MRM
usemtl DefaultMaterial
f  1/1/1 2/2/2 3/3/3
f  4/3/3 5/2/2 6/4/4
f  7/1/5 8/3/6 9/2/2
f  10/3/6 11/4/4 12/2/2
f  13/5/7 14/6/8 15/7/9
f  16/8/10 17/9/11 18/6/8
f  19/6/12 20/5/7 21/7/9
f  22/9/13 23/8/14 24/6/12
f  25/5/7 26/8/10 27/6/8
f  28/8/10 29/10/15 30/9/11
f  31/6/12 32/8/14 33/5/7
f  34/9/13 35/10/16 36/8/14
f  37/11/17 38/12/18 39/13/17
f  40/14/19 41/15/20 42/12/18
f  43/12/21 44/11/17 45/13/17
f  46/15/22 47/14/23 48/12/21
f  49/11/17 50/14/19 51/12/18
f  52/14/19 53/16/20 54/15/20
f  55/12/21 56/14/23 57/11/17
f  58/15/22 59/16/22 60/14/23
f  61/17/24 62/18/25 63/19/26
f  64/20/27 65/21/28 66/17/24
f  67/22/29 68/21/28 69/23/30
f  70/20/27 71/19/26 72/24/31
f  73/18/25 74/17/32 75/19/26
f  76/17/32 77/23/33 78/20/34
f  79/21/35 80/22/29 81/23/33
f  82/19/26 83/20/34 84/24/31
f  85/17/24 86/21/28 87/18/25
f  88/20/27 89/23/30 90/21/28
f  91/22/29 92/18/25 93/21/28
f  94/20/27 95/17/24 96/19/26
f  97/18/25 98/21/35 99/17/32
f  100/17/32 101/21/35 102/23/33
f  103/21/35 104/18/25 105/22/29
f  106/19/26 107/17/32 108/20/34
f  109/25/36 110/26/37 111/27/38
f  112/28/39 113/29/40 114/30/34
f  115/31/41 116/26/37 117/28/39
f  118/30/34 119/25/36 120/32/31
f  121/25/36 122/26/42 123/29/43
f  124/29/43 125/28/44 126/30/45
f  127/26/42 128/31/46 129/28/44
f  130/25/36 131/30/45 132/32/31
f  133/25/36 134/29/40 135/26/37
f  136/28/39 137/26/37 138/29/40
f  139/31/41 140/27/38 141/26/37
f  142/30/34 143/29/40 144/25/36
f  145/25/36 146/27/47 147/26/42
f  148/29/43 149/26/42 150/28/44
f  151/26/42 152/27/47 153/31/46
f  154/25/36 155/29/43 156/30/45
f  157/33/48 158/34/49 159/35/50
f  160/36/51 161/35/50 162/37/52
f  163/37/52 164/34/49 165/38/29
f  166/39/31 167/33/48 168/36/51
f  169/33/53 170/34/30 171/40/27
f  172/35/54 173/36/51 174/37/52
f  175/34/30 176/37/52 177/38/29
f  178/33/53 179/39/31 180/36/51
f  181/33/48 182/40/55 183/34/49
f  184/36/51 185/33/48 186/35/50
f  187/37/52 188/35/50 189/34/49
f  190/39/31 191/40/55 192/33/48
f  193/33/53 194/35/54 195/34/30
f  196/35/54 197/33/53 198/36/51
f  199/34/30 200/35/54 201/37/52
f  202/33/53 203/40/27 204/39/31
f  205/41/56 206/42/57 207/43/58
f  208/42/57 209/44/51 210/43/58
f  211/45/59 212/46/60 213/42/57
f  214/43/58 215/47/31 216/41/56
f  217/41/61 218/42/62 219/45/63
f  220/44/51 221/42/62 222/43/64
f  223/46/60 224/45/63 225/42/62
f  226/47/31 227/43/64 228/41/61
f  229/41/56 230/45/59 231/42/57
f  232/42/57 233/46/60 234/44/51
f  235/45/59 236/48/65 237/46/60
f  238/43/58 239/44/51 240/47/31
f  241/41/61 242/43/64 243/42/62
f  244/44/51 245/46/60 246/42/62
f  247/46/60 248/48/65 249/45/63
f  250/47/31 251/44/51 252/43/64
f  253/49/66 254/50/67 255/51/68
f  256/52/69 257/53/70 258/49/66
f  259/49/66 260/54/31 261/52/69
f  262/49/66 263/51/68 264/54/31
f  265/50/67 266/49/71 267/51/68
f  268/53/72 269/52/73 270/49/71
f  271/49/71 272/52/73 273/54/31
f  274/49/71 275/54/31 276/51/68
f  277/49/66 278/53/70 279/50/67
f  280/52/69 281/55/74 282/53/70
f  283/50/67 284/53/72 285/49/71
f  286/53/72 287/55/75 288/52/73

