# File produced by Open Asset Import Library (http://www.assimp.sf.net)
# (assimp v6.0.0)

mtllib SRM.mtl

# 201 vertex positions
v -3.54860806 0.202559993 -14.1571684
v -4.37889624 0.0744320005 -15.880352
v -3.54860806 0.0744320005 -14.1571684
v -4.37889624 0.0744320005 -15.880352
v -3.54860806 0.202559993 -14.1571684
v -4.37889624 0.202559993 -15.880352
v -0.227472007 0.202559993 -14.3486242
v -3.54860806 0.0744320005 -14.1571684
v -0.227472007 0.0744320005 -14.3486242
v -3.54860806 0.0744320005 -14.1571684
v -0.227472007 0.202559993 -14.3486242
v -3.54860806 0.202559993 -14.1571684
v -0.227472007 0.0744320005 -17.0291519
v -4.37889624 0.202559993 -15.880352
v -0.227472007 0.202559993 -17.0291519
v -4.37889624 0.202559993 -15.880352
v -0.227472007 0.0744320005 -17.0291519
v -4.37889624 0.0744320005 -15.880352
v -4.37889624 0.0744320005 -15.880352
v -0.227472007 0.0744320005 -14.3486242
v -3.54860806 0.0744320005 -14.1571684
v -0.227472007 0.0744320005 -14.3486242
v -4.37889624 0.0744320005 -15.880352
v -0.227472007 0.0744320005 -17.0291519
v 3.54860806 0.202559993 -14.1571684
v 3.54860806 0.0744320005 -14.1571684
v 4.37889624 0.0744320005 -15.880352
v 4.37889624 0.0744320005 -15.880352
v 4.37889624 0.202559993 -15.880352
v 3.54860806 0.202559993 -14.1571684
v 0.227472007 0.202559993 -14.3486242
v 0.227472007 0.0744320005 -14.3486242
v 3.54860806 0.0744320005 -14.1571684
v 3.54860806 0.0744320005 -14.1571684
v 3.54860806 0.202559993 -14.1571684
v 0.227472007 0.202559993 -14.3486242
v 0.227472007 0.0744320005 -17.0291519
v 0.227472007 0.202559993 -17.0291519
v 4.37889624 0.202559993 -15.880352
v 4.37889624 0.202559993 -15.880352
v 4.37889624 0.0744320005 -15.880352
v 0.227472007 0.0744320005 -17.0291519
v 4.37889624 0.0744320005 -15.880352
v 3.54860806 0.0744320005 -14.1571684
v 0.227472007 0.0744320005 -14.3486242
v 0.227472007 0.0744320005 -14.3486242
v 0.227472007 0.0744320005 -17.0291519
v 4.37889624 0.0744320005 -15.880352
v -4.15892792 0.252128005 30.1288471
v -5.50316811 0.0447040014 21.1591511
v -4.15892792 0.0447040014 30.1288471
v -5.50316811 0.0447040014 21.1591511
v -4.15892792 0.252128005 30.1288471
v -5.50316811 0.252128005 21.1591682
v 1.21801603 0.252128005 29.1322079
v -4.15892792 0.0447040014 30.1288471
v 1.21801603 0.0447040014 29.1322079
v -4.15892792 0.0447040014 30.1288471
v 1.21801603 0.252128005 29.1322079
v -4.15892792 0.252128005 30.1288471
v 1.21801603 0.0447040014 15.1793756
v -5.50316811 0.252128005 21.1591682
v 1.21801603 0.252128005 15.1793756
v -5.50316811 0.252128005 21.1591682
v 1.21801603 0.0447040014 15.1793756
v -5.50316811 0.0447040014 21.1591511
v -5.50316811 0.0447040014 21.1591511
v 1.21801603 0.0447040014 29.1322079
v -4.15892792 0.0447040014 30.1288471
v 1.21801603 0.0447040014 29.1322079
v -5.50316811 0.0447040014 21.1591511
v 1.21801603 0.0447040014 15.1793756
v 4.15892792 0.252128005 30.1288471
v 4.15892792 0.0447040014 30.1288471
v 5.50316811 0.0447040014 21.1591511
v 5.50316811 0.0447040014 21.1591511
v 5.50316811 0.252128005 21.1591682
v 4.15892792 0.252128005 30.1288471
v -1.21801603 0.252128005 29.1322079
v -1.21801603 0.0447040014 29.1322079
v 4.15892792 0.0447040014 30.1288471
v 4.15892792 0.0447040014 30.1288471
v 4.15892792 0.252128005 30.1288471
v -1.21801603 0.252128005 29.1322079
v -1.21801603 0.0447040014 15.1793756
v -1.21801603 0.252128005 15.1793756
v 5.50316811 0.252128005 21.1591682
v 5.50316811 0.252128005 21.1591682
v 5.50316811 0.0447040014 21.1591511
v -1.21801603 0.0447040014 15.1793756
v 5.50316811 0.0447040014 21.1591511
v 4.15892792 0.0447040014 30.1288471
v -1.21801603 0.0447040014 29.1322079
v -1.21801603 0.0447040014 29.1322079
v -1.21801603 0.0447040014 15.1793756
v 5.50316811 0.0447040014 21.1591511
v 1.24595201 -0.92356801 -15.5041761
v -0.0411520004 -0.588847995 -23.3539848
v 0.714752018 -0.279359996 -23.3496475
v -0.0410559997 -0.221248001 -24.6446724
v 0.714752018 -0.279359996 -23.3496475
v -0.0411520004 -0.588847995 -23.3539848
v -0.0410559997 -0.221248001 -24.6446724
v 0.672320008 0.494543999 -24.6346397
v 0.714752018 -0.279359996 -23.3496475
v 0.672320008 0.494543999 -24.6346397
v 1.02465606 0.476319999 -23.3390713
v 0.714752018 -0.279359996 -23.3496475
v 1.78048003 0.366192013 -15.4861116
v 1.24588799 -1.52735996 27.8292313
v 1.24595201 -0.92356801 -15.5041761
v -0.0414239988 -2.06116796 27.8217602
v 1.24595201 -0.92356801 -15.5041761
v 1.24588799 -1.52735996 27.8292313
v 1.24595201 -0.92356801 -15.5041761
v -0.0414239988 -2.06116796 27.8217602
v -0.0413599983 -1.457376 -15.5116482
v -0.0411520004 -0.588847995 -23.3539848
v 1.24595201 -0.92356801 -15.5041761
v -0.0413599983 -1.457376 -15.5116482
v -0.0413599983 -1.457376 -15.5116482
v -0.796895981 -0.278975993 -23.3496475
v -0.0411520004 -0.588847995 -23.3539848
v -0.0410559997 -0.221248001 -24.6446724
v -0.0411520004 -0.588847995 -23.3539848
v -0.796895981 -0.278975993 -23.3496475
v -0.0410559997 -0.221248001 -24.6446724
v -0.796895981 -0.278975993 -23.3496475
v -0.754079998 0.494911999 -24.6346397
v 0.672320008 0.494543999 -24.6346397
v -0.0410559997 -0.221248001 -24.6446724
v -0.754079998 0.494911999 -24.6346397
v 1.24588799 -1.52735996 27.8292313
v 1.78048003 0.366192013 -15.4861116
v 1.78040004 -0.240447998 27.8472481
v 1.78040004 -0.240447998 27.8472481
v 0.993055999 -1.30615997 30.1000156
v 1.24588799 -1.52735996 27.8292313
v -0.0413280018 -1.73491204 30.0940151
v 1.24588799 -1.52735996 27.8292313
v 0.993055999 -1.30615997 30.1000156
v 1.24588799 -1.52735996 27.8292313
v -0.0413280018 -1.73491204 30.0940151
v -0.0414239988 -2.06116796 27.8217602
v -0.0413280018 -1.73491204 30.0940151
v -1.32844806 -1.52670395 27.8292484
v -0.0414239988 -2.06116796 27.8217602
v -1.32844806 -1.52670395 27.8292484
v -0.0413599983 -1.457376 -15.5116482
v -0.0414239988 -2.06116796 27.8217602
v -0.0413599983 -1.457376 -15.5116482
v -1.32844806 -1.52670395 27.8292484
v -1.32838404 -0.922912002 -15.5041599
v -0.796895981 -0.278975993 -23.3496475
v -0.0413599983 -1.457376 -15.5116482
v -1.32838404 -0.922912002 -15.5041599
v -1.32838404 -0.922912002 -15.5041599
v -1.10641599 0.47686401 -23.3390713
v -0.796895981 -0.278975993 -23.3496475
v -1.10641599 0.47686401 -23.3390713
v -1.32838404 -0.922912002 -15.5041599
v -1.86225605 0.367119998 -15.4861116
v -1.32838404 -0.922912002 -15.5041599
v -1.86231995 -0.239519998 27.8472633
v -1.86225605 0.367119998 -15.4861116
v 0.993055999 -1.30615997 30.1000156
v 1.78040004 -0.240447998 27.8472481
v 1.42521596 -0.272096008 30.1144962
v -0.754079998 0.494911999 -24.6346397
v -0.796895981 -0.278975993 -23.3496475
v -1.10641599 0.47686401 -23.3390713
v -1.86231995 -0.239519998 27.8472633
v -1.32838404 -0.922912002 -15.5041599
v -1.32844806 -1.52670395 27.8292484
v -1.07550395 -1.30564797 30.1000328
v -1.86231995 -0.239519998 27.8472633
v -1.32844806 -1.52670395 27.8292484
v -1.86231995 -0.239519998 27.8472633
v -1.07550395 -1.30564797 30.1000328
v -1.50713599 -0.271344006 30.1144962
v -1.32844806 -1.52670395 27.8292484
v -0.0413280018 -1.73491204 30.0940151
v -1.07550395 -1.30564797 30.1000328
v 1.78048003 0.366192013 -15.4861116
v 0.714752018 -0.279359996 -23.3496475
v 1.02465606 0.476319999 -23.3390713
v 0.714752018 -0.279359996 -23.3496475
v 1.78048003 0.366192013 -15.4861116
v 1.24595201 -0.92356801 -15.5041761
v -0.0411520004 -0.588847995 -23.3539848
v -0.0410559997 -0.221248001 -24.6446724
v 0.672320008 0.494543999 -24.6346397
v -0.0410559997 -0.221248001 -24.6446724
v -0.0411520004 -0.588847995 -23.3539848
v 1.02465606 0.476319999 -23.3390713
v -1.32838404 -0.922912002 -15.5041599
v -1.32844806 -1.52670395 27.8292484
v -1.86225605 0.367119998 -15.4861116
v -1.50713599 -0.271344006 30.1144962
v -1.86225605 0.367119998 -15.4861116
v -1.32844806 -1.52670395 27.8292484

# 35 UV coordinates
vt 0.684899986 0.626100004 0
vt 0.66960001 0.557399988 0
vt 0.698599994 0.624599993 0
vt 0.655799985 0.558899999 0
vt 0.846499979 0.63499999 0
vt 0.847100019 0.628000021 0
vt 0.698000014 0.631600022 0
vt 0.847100019 0.52670002 0
vt 0.665000021 0.550799966 0
vt 0.842599988 0.520099998 0
vt 0.256099999 0.820500016 0
vt 0.34740001 0.950299978 0
vt 0.291399986 0.953800023 0
vt 0.34740001 0.971199989 0
vt 0.294999987 0.99119997 0
vt 0.253600001 0.975799978 0
vt 0.162599996 0.822099984 0
vt 0.256599993 0.0932999849 0
vt 0.34920001 0.0942000151 0
vt 0.34920001 0.819900036 0
vt 0.404199988 0.954200029 0
vt 0.399300009 0.991599977 0
vt 0.163399994 0.0924000144 0
vt 0.270599991 0.0523999929 0
vt 0.349299997 0.0577999949 0
vt 0.441900015 0.0932999849 0
vt 0.442099988 0.820500016 0
vt 0.459500015 0.959399998 0
vt 0.535300016 0.822099984 0
vt 0.5352 0.0924000144 0
vt 0.189099997 0.0507000089 0
vt 0.441199988 0.976499975 0
vt 0.427899987 0.0523999929 0
vt 0.509500027 0.0507000089 0
vt 0.237299994 0.958400011 0

# 44 vertex normals
vn -0.900093496 -1.10226019e-16 0.43569684
vn 0.0607969649 7.44523515e-18 0.99815017
vn -0.268628865 -3.28964601e-17 -0.963243783
vn -0.268613398 -3.28945675e-17 -0.963248074
vn -0.268644333 -3.2898356e-17 -0.963239431
vn 1.22460635e-16 -1 0
vn 0.900871158 0.00059998082 0.434086114
vn -0.0576022528 0.00106670836 0.998339057
vn 0.266694725 0.000649987138 -0.96378094
vn 0.266694725 0.000666653446 -0.96378094
vn 0.266694695 0.000633320771 -0.96378088
vn -0.988686323 -1.21075154e-16 0.14999792
vn 0.185393289 2.27033798e-17 0.982664406
vn -0.666194916 -8.15826533e-17 -0.745777667
vn -0.666186631 -8.15816408e-17 -0.745785058
vn -0.666203201 -8.15836658e-17 -0.745770276
vn 0.98895818 0.00059997465 0.148193732
vn -0.182210907 0.00106673059 0.983258903
vn 0.664705038 0.000666671724 -0.747105658
vn 0.541389287 -0.836241782 -0.0871626884
vn 0.227947414 -0.920769751 -0.316580206
vn 0.7393682 -0.598485887 -0.308462769
vn 0.153591871 -0.76418829 -0.626439035
vn 0.479179412 -0.540492892 -0.691559374
vn 0.748246551 -0.527658105 -0.402124345
vn 0.91127938 -0.407439113 -0.0596934333
vn 0.676638842 -0.733755827 0.0613378994
vn 0.108409025 -0.993266046 -0.0408653244
vn -0.176532134 -0.984143972 -0.017235551
vn -0.590279341 -0.754992127 -0.285582215
vn -0.523987949 -0.458336413 -0.717888832
vn 0.905551136 -0.373797148 0.200631335
vn 0.758660734 -0.59855026 0.257238477
vn 0.0135800261 -0.99660027 0.0812611207
vn -0.657533288 -0.751156032 0.0584351197
vn -0.84604007 -0.533079267 0.00653549377
vn -0.939804077 -0.340921015 -0.0232607201
vn -0.954997718 -0.296035737 0.0185001642
vn -0.915752172 -0.394937873 0.0736353472
vn 0.892879546 -0.290438354 0.344109923
vn -0.847387195 -0.348197877 -0.400865853
vn -0.772491336 -0.616414905 0.152609631
vn -0.932844341 -0.299344152 0.20048587
vn 0.960005522 -0.226104975 -0.165124074

# Mesh 'SRM' with 67 faces
g SRM
usemtl DefaultMaterial
f  1/1/1 2/2/1 3/3/1
f  4/2/1 5/1/1 6/4/1
f  7/5/2 8/3/2 9/6/2
f  10/3/2 11/5/2 12/7/2
f  13/8/3 14/9/3 15/10/4
f  16/9/3 17/8/3 18/2/5
f  19/2/6 20/6/6 21/3/6
f  22/6/6 23/2/6 24/8/6
f  25/1/7 26/3/7 27/2/7
f  28/2/7 29/4/7 30/1/7
f  31/5/8 32/6/8 33/3/8
f  34/3/8 35/7/8 36/5/8
f  37/8/9 38/10/10 39/9/9
f  40/9/9 41/2/11 42/8/9
f  43/2/6 44/3/6 45/6/6
f  46/6/6 47/8/6 48/2/6
f  49/1/12 50/2/12 51/3/12
f  52/2/12 53/1/12 54/4/12
f  55/5/13 56/3/13 57/6/13
f  58/3/13 59/5/13 60/7/13
f  61/8/14 62/9/14 63/10/15
f  64/9/14 65/8/14 66/2/16
f  67/2/6 68/6/6 69/3/6
f  70/6/6 71/2/6 72/8/6
f  73/1/17 74/3/17 75/2/17
f  76/2/17 77/4/17 78/1/17
f  79/5/18 80/6/18 81/3/18
f  82/3/18 83/7/18 84/5/18
f  85/8/19 86/10/19 87/9/19
f  88/9/19 89/2/19 90/8/19
f  91/2/6 92/3/6 93/6/6
f  94/6/6 95/8/6 96/2/6
f  97/11/20 98/12/21 99/13/22
f  100/14/23 101/13/22 102/12/21
f  103/14/23 104/15/24 105/13/22
f  106/15/24 107/16/25 108/13/22
f  109/17/26 110/18/27 111/11/20
f  112/19/28 113/11/20 114/18/27
f  115/11/20 116/19/28 117/20/29
f  118/12/21 119/11/20 120/20/29
f  121/20/29 122/21/30 123/12/21
f  124/14/23 125/12/21 126/21/30
f  127/14/23 128/21/30 129/22/31
f  130/15/24 131/14/23 132/22/31
f  133/18/27 134/17/26 135/23/32
f  136/23/32 137/24/33 138/18/27
f  139/25/34 140/18/27 141/24/33
f  142/18/27 143/25/34 144/19/28
f  145/25/34 146/26/35 147/19/28
f  148/26/35 149/20/29 150/19/28
f  151/20/29 152/26/35 153/27/36
f  154/21/30 155/20/29 156/27/36
f  157/27/36 158/28/37 159/21/30
f  160/28/37 161/27/36 162/29/38
f  163/27/36 164/30/39 165/29/38
f  166/24/33 167/23/32 168/31/40
f  169/22/31 170/21/30 171/32/41
f  172/30/39 173/27/36 174/26/35
f  175/33/42 176/30/39 177/26/35
f  178/30/39 179/33/42 180/34/43
f  181/26/35 182/25/34 183/33/42
f  184/17/26 185/13/22 186/35/44
f  187/13/22 188/17/26 189/11/20
f  190/12/21 191/14/23 192/15/24
f  193/14/23 194/12/21 195/16/25
f  196/27/36 197/26/35 198/29/38
f  199/34/43 200/29/38 201/26/35

