# File produced by Open Asset Import Library (http://www.assimp.sf.net)
# (assimp v6.0.0)

mtllib muzzleEnergy.mtl

# 6 vertex positions
v -68.1999969 2.23583743e-06 -51.1500015
v 68.1999969 -7.45279124e-07 17.0499992
v -68.1999969 -7.45279124e-07 17.0499992
v 68.1999969 -7.45279124e-07 17.0499992
v -68.1999969 2.23583743e-06 -51.1500015
v 68.1999969 2.23583743e-06 -51.1500015

# 4 UV coordinates
vt 0 0 0
vt 1 1 0
vt 0 1 0
vt 1 0 0

# 1 vertex normals
vn 0 -1 -4.37113883e-08

# Mesh 'PipelineFBX' with 2 faces
g PipelineFBX
usemtl DefaultMaterial
f  1/1/1 2/2/1 3/3/1
f  4/2/1 5/1/1 6/4/1

