# File produced by Open Asset Import Library (http://www.assimp.sf.net)
# (assimp v6.0.0)

mtllib spacemine.mtl

# 528 vertex positions
v 3.80100012 6.36299992 1.98600054
v 3.75000024 6.49500036 2.8390545e-07
v 3.49950004 6.06000042 1.87500024
v 3.75000024 6.49500036 2.8390545e-07
v 3.80100012 6.36299992 1.98600054
v 4.07250023 6.81900024 2.98067931e-07
v 6.44250059 3.72000003 1.99350023
v 4.07250023 6.81900024 2.98067931e-07
v 3.80100012 6.36299992 1.98600054
v 4.07250023 6.81900024 2.98067931e-07
v 6.44250059 3.72000003 1.99350023
v 6.90450001 3.98700023 1.74277304e-07
v 7.4385004 -8.71386518e-08 1.99350011
v 6.90450001 3.98700023 1.74277304e-07
v 6.44250059 3.72000003 1.99350023
v 6.90450001 3.98700023 1.74277304e-07
v 7.4385004 -8.71386518e-08 1.99350011
v 7.97249985 0 0
v 7.4385004 -8.71386518e-08 1.99350011
v 6.90450001 -3.98700023 -1.74277304e-07
v 7.97249985 0 0
v 3.80100012 6.36299992 1.98600054
v 6.06000042 3.49950004 1.87500024
v 6.44250059 3.72000003 1.99350023
v 6.06000042 3.49950004 1.87500024
v 3.80100012 6.36299992 1.98600054
v 3.49950004 6.06000042 1.87500024
v 6.06000042 3.49950004 1.87500024
v 7.4385004 -8.71386518e-08 1.99350011
v 6.44250059 3.72000003 1.99350023
v 7.4385004 -8.71386518e-08 1.99350011
v 6.06000042 3.49950004 1.87500024
v 6.99750042 -8.19588521e-08 1.87500012
v 6.99750042 -8.19588521e-08 1.87500012
v 6.44250059 -3.72000003 1.99349988
v 7.4385004 -8.71386518e-08 1.99350011
v 6.90450001 -3.98700023 -1.74277304e-07
v 7.4385004 -8.71386518e-08 1.99350011
v 6.44250059 -3.72000003 1.99349988
v 6.44250059 -3.72000003 1.99349988
v 4.07250023 -6.81900024 -2.98067931e-07
v 6.90450001 -3.98700023 -1.74277304e-07
v 4.07250023 -6.81900024 -2.98067931e-07
v 6.44250059 -3.72000003 -1.99350023
v 6.90450001 -3.98700023 -1.74277304e-07
v 7.4385004 8.71386518e-08 -1.99350011
v 6.90450001 -3.98700023 -1.74277304e-07
v 6.44250059 -3.72000003 -1.99350023
v 6.90450001 -3.98700023 -1.74277304e-07
v 7.4385004 8.71386518e-08 -1.99350011
v 7.97249985 0 0
v 7.4385004 8.71386518e-08 -1.99350011
v 6.90450001 3.98700023 1.74277304e-07
v 7.97249985 0 0
v 6.44250059 -3.72000003 1.99349988
v 6.99750042 -8.19588521e-08 1.87500012
v 6.06000042 -3.49950004 1.87499988
v 6.06000042 -3.49950004 1.87499988
v 3.80100012 -6.36299992 1.98599994
v 6.44250059 -3.72000003 1.99349988
v 4.07250023 -6.81900024 -2.98067931e-07
v 6.44250059 -3.72000003 1.99349988
v 3.80100012 -6.36299992 1.98599994
v 3.80100012 -6.36299992 1.98599994
v 3.75000024 -6.49500036 -2.8390545e-07
v 4.07250023 -6.81900024 -2.98067931e-07
v 3.75000024 -6.49500036 -2.8390545e-07
v 3.80100012 -6.36299992 1.98599994
v 3.49950004 -6.06000042 1.87499988
v 3.80100012 -6.36299992 1.98599994
v 6.06000042 -3.49950004 1.87499988
v 3.49950004 -6.06000042 1.87499988
v -3.80100012 -1.98600054 6.36299992
v -6.06000042 -1.87500024 3.49950004
v -3.49950004 -1.87500024 6.06000042
v -6.06000042 -1.87500024 3.49950004
v -3.80100012 -1.98600054 6.36299992
v -6.44250059 -1.99350023 3.72000003
v -6.44250059 -1.99350023 3.72000003
v -6.99750042 -1.87500012 -8.19588521e-08
v -6.06000042 -1.87500024 3.49950004
v -6.99750042 -1.87500012 -8.19588521e-08
v -6.44250059 -1.99350023 3.72000003
v -7.4385004 -1.99350011 -8.71386518e-08
v -7.4385004 -1.99350011 -8.71386518e-08
v -6.06000042 -1.87499988 -3.49950004
v -6.99750042 -1.87500012 -8.19588521e-08
v -6.06000042 -1.87499988 -3.49950004
v -7.4385004 -1.99350011 -8.71386518e-08
v -6.44250059 -1.99349988 -3.72000003
v -4.07250023 -2.98067931e-07 6.81900024
v -6.44250059 -1.99350023 3.72000003
v -3.80100012 -1.98600054 6.36299992
v -6.44250059 -1.99350023 3.72000003
v -4.07250023 -2.98067931e-07 6.81900024
v -6.90450001 -1.74277304e-07 3.98700023
v -6.90450001 -1.74277304e-07 3.98700023
v -7.4385004 -1.99350011 -8.71386518e-08
v -6.44250059 -1.99350023 3.72000003
v -7.4385004 -1.99350011 -8.71386518e-08
v -6.90450001 -1.74277304e-07 3.98700023
v -7.97249985 0 0
v -6.90450001 1.74277304e-07 -3.98700023
v -7.4385004 -1.99350011 -8.71386518e-08
v -7.97249985 0 0
v -7.4385004 -1.99350011 -8.71386518e-08
v -6.90450001 1.74277304e-07 -3.98700023
v -6.44250059 -1.99349988 -3.72000003
v -4.07250023 2.98067931e-07 -6.81900024
v -6.44250059 -1.99349988 -3.72000003
v -6.90450001 1.74277304e-07 -3.98700023
v -6.44250059 -1.99349988 -3.72000003
v -4.07250023 2.98067931e-07 -6.81900024
v -3.80100012 -1.98599994 -6.36299992
v -3.80100012 -1.98599994 -6.36299992
v -6.06000042 -1.87499988 -3.49950004
v -6.44250059 -1.99349988 -3.72000003
v -3.80100012 -1.98600054 6.36299992
v -3.75000024 -2.8390545e-07 6.49500036
v -4.07250023 -2.98067931e-07 6.81900024
v -3.75000024 -2.8390545e-07 6.49500036
v -3.80100012 -1.98600054 6.36299992
v -3.49950004 -1.87500024 6.06000042
v -6.06000042 -1.87499988 -3.49950004
v -3.80100012 -1.98599994 -6.36299992
v -3.49950004 -1.87499988 -6.06000042
v -3.75000024 2.8390545e-07 -6.49500036
v -3.80100012 -1.98599994 -6.36299992
v -4.07250023 2.98067931e-07 -6.81900024
v -3.80100012 -1.98599994 -6.36299992
v -3.75000024 2.8390545e-07 -6.49500036
v -3.49950004 -1.87499988 -6.06000042
v 3.80100012 6.36299992 -1.98599994
v 6.06000042 3.49950004 -1.87499988
v 3.49950004 6.06000042 -1.87499988
v 6.06000042 3.49950004 -1.87499988
v 3.80100012 6.36299992 -1.98599994
v 6.44250059 3.72000003 -1.99349988
v 4.07250023 6.81900024 2.98067931e-07
v 6.44250059 3.72000003 -1.99349988
v 3.80100012 6.36299992 -1.98599994
v 6.44250059 3.72000003 -1.99349988
v 4.07250023 6.81900024 2.98067931e-07
v 6.90450001 3.98700023 1.74277304e-07
v 6.90450001 3.98700023 1.74277304e-07
v 7.4385004 8.71386518e-08 -1.99350011
v 6.44250059 3.72000003 -1.99349988
v 6.99750042 8.19588521e-08 -1.87500012
v 6.44250059 3.72000003 -1.99349988
v 7.4385004 8.71386518e-08 -1.99350011
v 6.44250059 3.72000003 -1.99349988
v 6.99750042 8.19588521e-08 -1.87500012
v 6.06000042 3.49950004 -1.87499988
v 3.80100012 6.36299992 -1.98599994
v 3.75000024 6.49500036 2.8390545e-07
v 4.07250023 6.81900024 2.98067931e-07
v 3.75000024 6.49500036 2.8390545e-07
v 3.80100012 6.36299992 -1.98599994
v 3.49950004 6.06000042 -1.87499988
v 7.4385004 8.71386518e-08 -1.99350011
v 6.06000042 -3.49950004 -1.87500024
v 6.99750042 8.19588521e-08 -1.87500012
v 6.06000042 -3.49950004 -1.87500024
v 7.4385004 8.71386518e-08 -1.99350011
v 6.44250059 -3.72000003 -1.99350023
v 3.80100012 -6.36299992 -1.98600054
v 6.06000042 -3.49950004 -1.87500024
v 6.44250059 -3.72000003 -1.99350023
v 6.06000042 -3.49950004 -1.87500024
v 3.80100012 -6.36299992 -1.98600054
v 3.49950004 -6.06000042 -1.87500024
v 6.44250059 -3.72000003 -1.99350023
v 4.07250023 -6.81900024 -2.98067931e-07
v 3.80100012 -6.36299992 -1.98600054
v 3.75000024 -6.49500036 -2.8390545e-07
v 3.80100012 -6.36299992 -1.98600054
v 4.07250023 -6.81900024 -2.98067931e-07
v 3.80100012 -6.36299992 -1.98600054
v 3.75000024 -6.49500036 -2.8390545e-07
v 3.49950004 -6.06000042 -1.87500024
v -3.80100012 1.98599994 6.36299992
v -3.75000024 -2.8390545e-07 6.49500036
v -3.49950004 1.87499988 6.06000042
v -3.75000024 -2.8390545e-07 6.49500036
v -3.80100012 1.98599994 6.36299992
v -4.07250023 -2.98067931e-07 6.81900024
v -6.44250059 1.99349988 3.72000003
v -4.07250023 -2.98067931e-07 6.81900024
v -3.80100012 1.98599994 6.36299992
v -4.07250023 -2.98067931e-07 6.81900024
v -6.44250059 1.99349988 3.72000003
v -6.90450001 -1.74277304e-07 3.98700023
v -7.4385004 1.99350011 8.71386518e-08
v -6.90450001 -1.74277304e-07 3.98700023
v -6.44250059 1.99349988 3.72000003
v -6.90450001 -1.74277304e-07 3.98700023
v -7.4385004 1.99350011 8.71386518e-08
v -7.97249985 0 0
v -7.4385004 1.99350011 8.71386518e-08
v -6.90450001 1.74277304e-07 -3.98700023
v -7.97249985 0 0
v -6.90450001 1.74277304e-07 -3.98700023
v -7.4385004 1.99350011 8.71386518e-08
v -6.44250059 1.99350023 -3.72000003
v -6.44250059 1.99350023 -3.72000003
v -4.07250023 2.98067931e-07 -6.81900024
v -6.90450001 1.74277304e-07 -3.98700023
v -3.80100012 1.98599994 6.36299992
v -6.06000042 1.87499988 3.49950004
v -6.44250059 1.99349988 3.72000003
v -6.06000042 1.87499988 3.49950004
v -7.4385004 1.99350011 8.71386518e-08
v -6.44250059 1.99349988 3.72000003
v -7.4385004 1.99350011 8.71386518e-08
v -6.06000042 1.87499988 3.49950004
v -6.99750042 1.87500012 8.19588521e-08
v -6.99750042 1.87500012 8.19588521e-08
v -6.44250059 1.99350023 -3.72000003
v -7.4385004 1.99350011 8.71386518e-08
v -6.44250059 1.99350023 -3.72000003
v -6.99750042 1.87500012 8.19588521e-08
v -6.06000042 1.87500024 -3.49950004
v -6.06000042 1.87499988 3.49950004
v -3.80100012 1.98599994 6.36299992
v -3.49950004 1.87499988 6.06000042
v -3.80100012 1.98600054 -6.36299992
v -6.06000042 1.87500024 -3.49950004
v -3.49950004 1.87500024 -6.06000042
v -6.06000042 1.87500024 -3.49950004
v -3.80100012 1.98600054 -6.36299992
v -6.44250059 1.99350023 -3.72000003
v -4.07250023 2.98067931e-07 -6.81900024
v -6.44250059 1.99350023 -3.72000003
v -3.80100012 1.98600054 -6.36299992
v -3.80100012 1.98600054 -6.36299992
v -3.75000024 2.8390545e-07 -6.49500036
v -4.07250023 2.98067931e-07 -6.81900024
v -3.75000024 2.8390545e-07 -6.49500036
v -3.80100012 1.98600054 -6.36299992
v -3.49950004 1.87500024 -6.06000042
v -3.75000024 -2.8390545e-07 6.49500036
v -3.24750018 3.74999976 5.625
v -6.49500036 -1.63917704e-07 3.75000024
v 0 -3.27835409e-07 7.50000048
v -3.24750018 3.74999976 5.625
v -3.75000024 -2.8390545e-07 6.49500036
v -3.24750018 3.74999976 5.625
v 0 -3.27835409e-07 7.50000048
v 0 3.74999976 6.49500036
v 0 3.74999976 6.49500036
v 0 6.49500036 3.75000048
v -3.24750018 3.74999976 5.625
v -3.24750018 3.74999976 5.625
v 0 6.49500036 3.75000048
v -3.24750018 6.49500036 1.87500048
v -5.625 3.75000024 3.24750018
v -3.24750018 3.74999976 5.625
v -3.24750018 6.49500036 1.87500048
v -5.625 3.75000024 3.24750018
v -6.49500036 -1.63917704e-07 3.75000024
v -3.24750018 3.74999976 5.625
v -6.49500036 3.75000024 1.63917704e-07
v -6.49500036 -1.63917704e-07 3.75000024
v -5.625 3.75000024 3.24750018
v -6.49500036 -1.63917704e-07 3.75000024
v -6.49500036 3.75000024 1.63917704e-07
v -7.50000048 0 0
v -7.50000048 0 0
v -6.49500036 3.75000024 1.63917704e-07
v -6.49500036 1.63917704e-07 -3.75000024
v 0 7.50000048 3.27835409e-07
v -3.24750018 6.49500036 1.87500048
v 0 6.49500036 3.75000048
v -3.24750018 6.49500036 -1.87499976
v -3.24750018 6.49500036 1.87500048
v 0 7.50000048 3.27835409e-07
v -3.24750018 6.49500036 1.87500048
v -3.24750018 6.49500036 -1.87499976
v -6.49500036 3.75000024 1.63917704e-07
v -5.625 3.75000024 3.24750018
v -3.24750018 6.49500036 1.87500048
v -6.49500036 3.75000024 1.63917704e-07
v 0 6.49500036 -3.74999976
v -3.24750018 6.49500036 -1.87499976
v 0 7.50000048 3.27835409e-07
v -3.24750018 6.49500036 -1.87499976
v 0 6.49500036 -3.74999976
v -3.24750018 3.75000048 -5.625
v -3.24750018 6.49500036 -1.87499976
v -3.24750018 3.75000048 -5.625
v -5.625 3.75000024 -3.24749994
v -6.49500036 3.75000024 1.63917704e-07
v -3.24750018 6.49500036 -1.87499976
v -5.625 3.75000024 -3.24749994
v -5.625 3.75000024 -3.24749994
v -6.49500036 1.63917704e-07 -3.75000024
v -6.49500036 3.75000024 1.63917704e-07
v -3.24750018 3.75000048 -5.625
v -6.49500036 1.63917704e-07 -3.75000024
v -5.625 3.75000024 -3.24749994
v -6.49500036 1.63917704e-07 -3.75000024
v -3.24750018 3.75000048 -5.625
v -3.75000024 2.8390545e-07 -6.49500036
v -3.75000024 2.8390545e-07 -6.49500036
v -3.24750018 3.75000048 -5.625
v 0 3.27835409e-07 -7.50000048
v 0 3.75000048 -6.49500036
v 0 3.27835409e-07 -7.50000048
v -3.24750018 3.75000048 -5.625
v 0 6.49500036 -3.74999976
v 0 3.75000048 -6.49500036
v -3.24750018 3.75000048 -5.625
v -3.24750018 -3.75000048 5.625
v -3.75000024 -2.8390545e-07 6.49500036
v -6.49500036 -1.63917704e-07 3.75000024
v -3.24750018 -3.75000048 5.625
v 0 -3.27835409e-07 7.50000048
v -3.75000024 -2.8390545e-07 6.49500036
v 0 -3.27835409e-07 7.50000048
v -3.24750018 -3.75000048 5.625
v 0 -3.75000048 6.49500036
v 0 -6.49500036 3.74999976
v 0 -3.75000048 6.49500036
v -3.24750018 -3.75000048 5.625
v 0 -6.49500036 3.74999976
v -3.24750018 -3.75000048 5.625
v -3.24750018 -6.49500036 1.87499976
v -3.24750018 -6.49500036 1.87499976
v 0 -7.50000048 -3.27835409e-07
v 0 -6.49500036 3.74999976
v -6.49500036 -1.63917704e-07 3.75000024
v -5.625 -3.75000024 3.24749994
v -3.24750018 -3.75000048 5.625
v -3.24750018 -3.75000048 5.625
v -5.625 -3.75000024 3.24749994
v -3.24750018 -6.49500036 1.87499976
v -3.24750018 -6.49500036 1.87499976
v -5.625 -3.75000024 3.24749994
v -6.49500036 -3.75000024 -1.63917704e-07
v -3.24750018 -6.49500036 -1.87500048
v -3.24750018 -6.49500036 1.87499976
v -6.49500036 -3.75000024 -1.63917704e-07
v -3.24750018 -6.49500036 1.87499976
v -3.24750018 -6.49500036 -1.87500048
v 0 -7.50000048 -3.27835409e-07
v -3.24750018 -6.49500036 -1.87500048
v 0 -6.49500036 -3.75000048
v 0 -7.50000048 -3.27835409e-07
v 0 -6.49500036 -3.75000048
v -3.24750018 -6.49500036 -1.87500048
v -3.24750018 -3.74999976 -5.625
v 0 -3.74999976 -6.49500036
v 0 -6.49500036 -3.75000048
v -3.24750018 -3.74999976 -5.625
v 0 3.27835409e-07 -7.50000048
v 0 -3.74999976 -6.49500036
v -3.24750018 -3.74999976 -5.625
v -6.49500036 -1.63917704e-07 3.75000024
v -6.49500036 -3.75000024 -1.63917704e-07
v -5.625 -3.75000024 3.24749994
v -6.49500036 -3.75000024 -1.63917704e-07
v -6.49500036 -1.63917704e-07 3.75000024
v -7.50000048 0 0
v -6.49500036 -3.75000024 -1.63917704e-07
v -7.50000048 0 0
v -6.49500036 1.63917704e-07 -3.75000024
v -6.49500036 1.63917704e-07 -3.75000024
v -5.625 -3.75000024 -3.24750018
v -6.49500036 -3.75000024 -1.63917704e-07
v -3.24750018 -6.49500036 -1.87500048
v -6.49500036 -3.75000024 -1.63917704e-07
v -5.625 -3.75000024 -3.24750018
v -3.24750018 -3.74999976 -5.625
v -3.24750018 -6.49500036 -1.87500048
v -5.625 -3.75000024 -3.24750018
v -6.49500036 1.63917704e-07 -3.75000024
v -3.24750018 -3.74999976 -5.625
v -5.625 -3.75000024 -3.24750018
v -3.24750018 -3.74999976 -5.625
v -6.49500036 1.63917704e-07 -3.75000024
v -3.75000024 2.8390545e-07 -6.49500036
v -3.24750018 -3.74999976 -5.625
v -3.75000024 2.8390545e-07 -6.49500036
v 0 3.27835409e-07 -7.50000048
v 3.24750018 3.74999976 5.625
v 3.75000024 -2.8390545e-07 6.49500036
v 6.49500036 -1.63917704e-07 3.75000024
v 3.24750018 3.74999976 5.625
v 0 -3.27835409e-07 7.50000048
v 3.75000024 -2.8390545e-07 6.49500036
v 0 -3.27835409e-07 7.50000048
v 3.24750018 3.74999976 5.625
v 0 3.74999976 6.49500036
v 0 6.49500036 3.75000048
v 0 3.74999976 6.49500036
v 3.24750018 3.74999976 5.625
v 0 6.49500036 3.75000048
v 3.24750018 3.74999976 5.625
v 3.24750018 6.49500036 1.87500048
v 3.24750018 6.49500036 1.87500048
v 0 7.50000048 3.27835409e-07
v 0 6.49500036 3.75000048
v 6.49500036 -1.63917704e-07 3.75000024
v 5.625 3.75000024 3.24750018
v 3.24750018 3.74999976 5.625
v 3.24750018 3.74999976 5.625
v 5.625 3.75000024 3.24750018
v 3.24750018 6.49500036 1.87500048
v 3.24750018 6.49500036 1.87500048
v 5.625 3.75000024 3.24750018
v 6.49500036 3.75000024 1.63917704e-07
v 3.24750018 6.49500036 -1.87499976
v 3.24750018 6.49500036 1.87500048
v 6.49500036 3.75000024 1.63917704e-07
v 3.24750018 6.49500036 1.87500048
v 3.24750018 6.49500036 -1.87499976
v 0 7.50000048 3.27835409e-07
v 3.24750018 6.49500036 -1.87499976
v 0 6.49500036 -3.74999976
v 0 7.50000048 3.27835409e-07
v 0 6.49500036 -3.74999976
v 3.24750018 6.49500036 -1.87499976
v 3.24750018 3.75000048 -5.625
v 0 3.75000048 -6.49500036
v 0 6.49500036 -3.74999976
v 3.24750018 3.75000048 -5.625
v 0 3.27835409e-07 -7.50000048
v 0 3.75000048 -6.49500036
v 3.24750018 3.75000048 -5.625
v 6.49500036 -1.63917704e-07 3.75000024
v 6.49500036 3.75000024 1.63917704e-07
v 5.625 3.75000024 3.24750018
v 6.49500036 3.75000024 1.63917704e-07
v 6.49500036 -1.63917704e-07 3.75000024
v 7.50000048 0 0
v 6.49500036 3.75000024 1.63917704e-07
v 7.50000048 0 0
v 6.49500036 1.63917704e-07 -3.75000024
v 6.49500036 1.63917704e-07 -3.75000024
v 5.625 3.75000024 -3.24749994
v 6.49500036 3.75000024 1.63917704e-07
v 3.24750018 6.49500036 -1.87499976
v 6.49500036 3.75000024 1.63917704e-07
v 5.625 3.75000024 -3.24749994
v 3.24750018 3.75000048 -5.625
v 3.24750018 6.49500036 -1.87499976
v 5.625 3.75000024 -3.24749994
v 6.49500036 1.63917704e-07 -3.75000024
v 3.24750018 3.75000048 -5.625
v 5.625 3.75000024 -3.24749994
v 3.24750018 3.75000048 -5.625
v 6.49500036 1.63917704e-07 -3.75000024
v 3.75000024 2.8390545e-07 -6.49500036
v 3.24750018 3.75000048 -5.625
v 3.75000024 2.8390545e-07 -6.49500036
v 0 3.27835409e-07 -7.50000048
v 3.75000024 -2.8390545e-07 6.49500036
v 3.24750018 -3.75000048 5.625
v 6.49500036 -1.63917704e-07 3.75000024
v 0 -3.27835409e-07 7.50000048
v 3.24750018 -3.75000048 5.625
v 3.75000024 -2.8390545e-07 6.49500036
v 3.24750018 -3.75000048 5.625
v 0 -3.27835409e-07 7.50000048
v 0 -3.75000048 6.49500036
v 0 -3.75000048 6.49500036
v 0 -6.49500036 3.74999976
v 3.24750018 -3.75000048 5.625
v 3.24750018 -3.75000048 5.625
v 0 -6.49500036 3.74999976
v 3.24750018 -6.49500036 1.87499976
v 5.625 -3.75000024 3.24749994
v 3.24750018 -3.75000048 5.625
v 3.24750018 -6.49500036 1.87499976
v 5.625 -3.75000024 3.24749994
v 6.49500036 -1.63917704e-07 3.75000024
v 3.24750018 -3.75000048 5.625
v 6.49500036 -3.75000024 -1.63917704e-07
v 6.49500036 -1.63917704e-07 3.75000024
v 5.625 -3.75000024 3.24749994
v 6.49500036 -1.63917704e-07 3.75000024
v 6.49500036 -3.75000024 -1.63917704e-07
v 7.50000048 0 0
v 7.50000048 0 0
v 6.49500036 -3.75000024 -1.63917704e-07
v 6.49500036 1.63917704e-07 -3.75000024
v 0 -7.50000048 -3.27835409e-07
v 3.24750018 -6.49500036 1.87499976
v 0 -6.49500036 3.74999976
v 3.24750018 -6.49500036 -1.87500048
v 3.24750018 -6.49500036 1.87499976
v 0 -7.50000048 -3.27835409e-07
v 3.24750018 -6.49500036 1.87499976
v 3.24750018 -6.49500036 -1.87500048
v 6.49500036 -3.75000024 -1.63917704e-07
v 5.625 -3.75000024 3.24749994
v 3.24750018 -6.49500036 1.87499976
v 6.49500036 -3.75000024 -1.63917704e-07
v 0 -6.49500036 -3.75000048
v 3.24750018 -6.49500036 -1.87500048
v 0 -7.50000048 -3.27835409e-07
v 3.24750018 -6.49500036 -1.87500048
v 0 -6.49500036 -3.75000048
v 3.24750018 -3.74999976 -5.625
v 3.24750018 -6.49500036 -1.87500048
v 3.24750018 -3.74999976 -5.625
v 5.625 -3.75000024 -3.24750018
v 6.49500036 -3.75000024 -1.63917704e-07
v 3.24750018 -6.49500036 -1.87500048
v 5.625 -3.75000024 -3.24750018
v 5.625 -3.75000024 -3.24750018
v 6.49500036 1.63917704e-07 -3.75000024
v 6.49500036 -3.75000024 -1.63917704e-07
v 3.24750018 -3.74999976 -5.625
v 6.49500036 1.63917704e-07 -3.75000024
v 5.625 -3.75000024 -3.24750018
v 6.49500036 1.63917704e-07 -3.75000024
v 3.24750018 -3.74999976 -5.625
v 3.75000024 2.8390545e-07 -6.49500036
v 3.75000024 2.8390545e-07 -6.49500036
v 3.24750018 -3.74999976 -5.625
v 0 3.27835409e-07 -7.50000048
v 0 -3.74999976 -6.49500036
v 0 3.27835409e-07 -7.50000048
v 3.24750018 -3.74999976 -5.625
v 0 -6.49500036 -3.75000048
v 0 -3.74999976 -6.49500036
v 3.24750018 -3.74999976 -5.625

# 24 UV coordinates
vt 0.171299994 0.0309999995 0
vt 0.054299999 0.0300999992 0
vt 0.1699 0.2456 0
vt 0.0584000014 0.264200002 0
vt 0.223800004 0.458900005 0
vt 0.1215 0.505100012 0
vt 0.263599992 0.720600009 0
vt 0.346799999 0.644699991 0
vt 0.472299993 0.875100017 0
vt 0.527400017 0.776000023 0
vt 0.713500023 0.951600015 0
vt 0.765399992 0.727299988 0
vt 0.953000009 0.967100024 0
vt 0.958100021 0.725700021 0
vt 0.898500025 0.478399992 0
vt 0.679099977 0.474599987 0
vt 0.582499981 0.676800013 0
vt 0.430000007 0.568700016 0
vt 0.752600014 0.255199999 0
vt 0.531000018 0.321799994 0
vt 0.534200013 0.101899996 0
vt 0.281399995 0.226999998 0
vt 0.326099992 0.412699997 0
vt 0.288399994 0.0320000015 0

# 102 vertex normals
vn -0.359792352 0.555988133 0.749284029
vn -0.714715481 0.699415207 3.05724051e-08
vn -0.61388135 0.351989269 0.706578493
vn 0.303991914 0.952674627 4.16427284e-08
vn 0.525292337 0.385894299 0.758388877
vn 0.907105863 0.420902669 1.83982394e-08
vn 0.605906725 -0.0142001919 0.795408845
vn 1 0 0
vn 0.907105863 -0.420902669 -1.83982394e-08
vn -0.221890345 -0.126294568 0.96685797
vn -0.25930512 0.0231004152 0.96551919
vn 0.381784976 -0.309287876 0.870965719
vn 0.303991914 -0.952674627 -4.16427284e-08
vn 0.525292337 -0.385894299 -0.758388877
vn 0.605906725 0.0142001919 -0.795408845
vn -0.209302261 0.145201534 0.967010438
vn -0.359792352 -0.555988193 0.749284029
vn -0.714715481 -0.699415207 -3.05724051e-08
vn -0.61388135 -0.351989329 0.706578493
vn 0.359792352 -0.749284029 0.555988133
vn 0.209302261 -0.967010438 -0.145201609
vn 0.61388135 -0.706578493 0.351989269
vn -0.381784976 -0.870965719 0.309287816
vn 0.25930512 -0.96551919 -0.0231005009
vn -0.605906725 -0.795408845 0.0142001221
vn 0.221890345 -0.96685797 0.126294479
vn -0.525292277 -0.758388817 -0.385894358
vn -0.303991914 -4.16427284e-08 0.952674627
vn -0.907105863 -1.83982394e-08 0.420902669
vn -1 0 0
vn -0.907105863 1.83982394e-08 -0.420902669
vn -0.303991914 4.16427284e-08 -0.952674627
vn 0.359792352 -0.749284029 -0.555988193
vn 0.714715481 -3.05724051e-08 0.699415207
vn 0.61388135 -0.706578493 -0.351989329
vn 0.714715481 3.05724051e-08 -0.699415207
vn -0.359792352 0.555988193 -0.749284029
vn -0.209302261 -0.145201534 -0.967010438
vn -0.61388135 0.351989329 -0.706578493
vn 0.381784976 0.309287876 -0.870965719
vn -0.25930512 -0.0231004152 -0.96551919
vn -0.221890345 0.126294568 -0.96685797
vn -0.359792352 -0.555988133 -0.749284029
vn -0.61388135 -0.351989269 -0.706578493
vn 0.359792352 0.749284029 0.555988193
vn 0.61388135 0.706578493 0.351989329
vn -0.525292277 0.758388817 0.385894358
vn -0.605906725 0.795408845 -0.0142001221
vn -0.381784976 0.870965719 -0.309287816
vn 0.221890345 0.96685797 -0.126294479
vn 0.25930512 0.96551919 0.0231005009
vn 0.209302261 0.967010438 0.145201609
vn 0.359792352 0.749284029 -0.555988133
vn 0.61388135 0.706578493 -0.351989269
vn -0.544899523 -0.0533999875 0.836799204
vn -0.438785583 0.4794842 0.759975016
vn -0.866019011 -2.18561738e-08 0.500011027
vn 0 -4.37113883e-08 1
vn 0 0.501717985 0.865031183
vn 0 0.847807229 0.530304551
vn -0.459300131 0.847800255 0.265100121
vn -0.749133766 0.501722574 0.432519525
vn -0.877555192 0.479475498 2.09585416e-08
vn -0.866019011 2.18561738e-08 -0.500011027
vn 0 1 4.37113883e-08
vn -0.45930019 0.847800255 -0.265100062
vn 0 0.847807229 -0.530304492
vn -0.438785583 0.47948429 -0.759975016
vn -0.749133706 0.501722574 -0.432519495
vn -0.452286243 -0.0533983372 -0.890272915
vn 0 4.37113883e-08 -1
vn 0 0.501718104 -0.865031183
vn -0.438785583 -0.47948429 0.759975016
vn 0 -0.501718104 0.865031183
vn 0 -0.847807229 0.530304492
vn -0.45930019 -0.847800255 0.265100062
vn 0 -1 -4.37113883e-08
vn -0.749133706 -0.501722574 0.432519495
vn -0.877555192 -0.479475498 -2.09585416e-08
vn -0.459300131 -0.847800255 -0.265100121
vn 0 -0.847807229 -0.530304551
vn -0.438785583 -0.4794842 -0.759975016
vn 0 -0.501717985 -0.865031183
vn -0.749133766 -0.501722574 -0.432519525
vn 0.438785583 0.4794842 0.759975016
vn 0.500011027 -3.78548961e-08 0.866019011
vn 0.866019011 -2.18561738e-08 0.500011027
vn 0.459300131 0.847800255 0.265100121
vn 0.749133766 0.501722574 0.432519525
vn 0.877555192 0.479475498 2.09585416e-08
vn 0.45930019 0.847800255 -0.265100062
vn 0.438785583 0.47948429 -0.759975016
vn 0.866019011 2.18561738e-08 -0.500011027
vn 0.749133706 0.501722574 -0.432519495
vn 0.500011027 3.78548961e-08 -0.866019011
vn 0.438785583 -0.47948429 0.759975016
vn 0.45930019 -0.847800255 0.265100062
vn 0.749133706 -0.501722574 0.432519495
vn 0.877555192 -0.479475498 -2.09585416e-08
vn 0.459300131 -0.847800255 -0.265100121
vn 0.438785583 -0.4794842 -0.759975016
vn 0.749133766 -0.501722574 -0.432519525

# Mesh 'PipelineFBX' with 176 faces
g PipelineFBX
usemtl DefaultMaterial
f  1/1/1 2/2/2 3/1/3
f  4/2/2 5/1/1 6/2/4
f  7/3/5 8/2/4 9/1/1
f  10/2/4 11/3/5 12/4/6
f  13/5/7 14/4/6 15/3/5
f  16/4/6 17/5/7 18/6/8
f  19/5/7 20/7/9 21/6/8
f  22/1/1 23/3/10 24/3/5
f  25/3/10 26/1/1 27/1/3
f  28/3/10 29/5/7 30/3/5
f  31/5/7 32/3/10 33/5/11
f  34/5/11 35/8/12 36/5/7
f  37/7/9 38/5/7 39/8/12
f  40/8/12 41/9/13 42/7/9
f  43/9/13 44/8/14 45/7/9
f  46/5/15 47/7/9 48/8/14
f  49/7/9 50/5/15 51/6/8
f  52/5/15 53/4/6 54/6/8
f  55/8/12 56/5/11 57/8/16
f  58/8/16 59/10/17 60/8/12
f  61/9/13 62/8/12 63/10/17
f  64/10/17 65/9/18 66/9/13
f  67/9/18 68/10/17 69/10/19
f  70/10/17 71/8/16 72/10/19
f  73/10/20 74/8/21 75/10/22
f  76/8/21 77/10/20 78/8/23
f  79/8/23 80/5/24 81/8/21
f  82/5/24 83/8/23 84/5/25
f  85/5/25 86/3/26 87/5/24
f  88/3/26 89/5/25 90/3/27
f  91/9/28 92/8/23 93/10/20
f  94/8/23 95/9/28 96/7/29
f  97/7/29 98/5/25 99/8/23
f  100/5/25 101/7/29 102/6/30
f  103/4/31 104/5/25 105/6/30
f  106/5/25 107/4/31 108/3/27
f  109/2/32 110/3/27 111/4/31
f  112/3/27 113/2/32 114/1/33
f  115/1/33 116/3/26 117/3/27
f  118/10/20 119/9/34 120/9/28
f  121/9/34 122/10/20 123/10/22
f  124/3/26 125/1/33 126/1/35
f  127/2/36 128/1/33 129/2/32
f  130/1/33 131/2/36 132/1/35
f  133/1/37 134/3/38 135/1/39
f  136/3/38 137/1/37 138/3/40
f  139/2/4 140/3/40 141/1/37
f  142/3/40 143/2/4 144/4/6
f  145/4/6 146/5/15 147/3/40
f  148/5/41 149/3/40 150/5/15
f  151/3/40 152/5/41 153/3/38
f  154/1/37 155/2/2 156/2/4
f  157/2/2 158/1/37 159/1/39
f  160/5/15 161/8/42 162/5/41
f  163/8/42 164/5/15 165/8/14
f  166/10/43 167/8/42 168/8/14
f  169/8/42 170/10/43 171/10/44
f  172/8/14 173/9/13 174/10/43
f  175/9/18 176/10/43 177/9/13
f  178/10/43 179/9/18 180/10/44
f  181/10/45 182/9/34 183/10/46
f  184/9/34 185/10/45 186/9/28
f  187/8/47 188/9/28 189/10/45
f  190/9/28 191/8/47 192/7/29
f  193/5/48 194/7/29 195/8/47
f  196/7/29 197/5/48 198/6/30
f  199/5/48 200/4/31 201/6/30
f  202/4/31 203/5/48 204/3/49
f  205/3/49 206/2/32 207/4/31
f  208/10/45 209/8/50 210/8/47
f  211/8/50 212/5/48 213/8/47
f  214/5/48 215/8/50 216/5/51
f  217/5/51 218/3/49 219/5/48
f  220/3/49 221/5/51 222/3/52
f  223/8/50 224/10/45 225/10/46
f  226/1/53 227/3/52 228/1/54
f  229/3/52 230/1/53 231/3/49
f  232/2/32 233/3/49 234/1/53
f  235/1/53 236/2/36 237/2/32
f  238/2/36 239/1/53 240/1/54
f  241/11/55 242/12/56 243/9/57
f  244/13/58 245/12/56 246/11/55
f  247/12/56 248/13/58 249/14/59
f  250/14/59 251/15/60 252/12/56
f  253/12/56 254/15/60 255/16/61
f  256/17/62 257/12/56 258/16/61
f  259/17/62 260/9/57 261/12/56
f  262/18/63 263/9/57 264/17/62
f  265/9/57 266/18/63 267/7/30
f  268/7/30 269/18/63 270/6/64
f  271/19/65 272/16/61 273/15/60
f  274/20/66 275/16/61 276/19/65
f  277/16/61 278/20/66 279/18/63
f  280/17/62 281/16/61 282/18/63
f  283/21/67 284/20/66 285/19/65
f  286/20/66 287/21/67 288/22/68
f  289/20/66 290/22/68 291/23/69
f  292/18/63 293/20/66 294/23/69
f  295/23/69 296/6/64 297/18/63
f  298/22/68 299/6/64 300/23/69
f  301/6/64 302/22/68 303/4/70
f  304/4/70 305/22/68 306/2/71
f  307/24/72 308/2/71 309/22/68
f  310/21/67 311/24/72 312/22/68
f  313/12/73 314/11/55 315/9/57
f  316/12/73 317/13/58 318/11/55
f  319/13/58 320/12/73 321/14/74
f  322/15/75 323/14/74 324/12/73
f  325/15/75 326/12/73 327/16/76
f  328/16/76 329/19/77 330/15/75
f  331/9/57 332/17/78 333/12/73
f  334/12/73 335/17/78 336/16/76
f  337/16/76 338/17/78 339/18/79
f  340/20/80 341/16/76 342/18/79
f  343/16/76 344/20/80 345/19/77
f  346/20/80 347/21/81 348/19/77
f  349/21/81 350/20/80 351/22/82
f  352/24/83 353/21/81 354/22/82
f  355/2/71 356/24/83 357/22/82
f  358/9/57 359/18/79 360/17/78
f  361/18/79 362/9/57 363/7/30
f  364/18/79 365/7/30 366/6/64
f  367/6/64 368/23/84 369/18/79
f  370/20/80 371/18/79 372/23/84
f  373/22/82 374/20/80 375/23/84
f  376/6/64 377/22/82 378/23/84
f  379/22/82 380/6/64 381/4/70
f  382/22/82 383/4/70 384/2/71
f  385/12/85 386/11/86 387/9/87
f  388/12/85 389/13/58 390/11/86
f  391/13/58 392/12/85 393/14/59
f  394/15/60 395/14/59 396/12/85
f  397/15/60 398/12/85 399/16/88
f  400/16/88 401/19/65 402/15/60
f  403/9/87 404/17/89 405/12/85
f  406/12/85 407/17/89 408/16/88
f  409/16/88 410/17/89 411/18/90
f  412/20/91 413/16/88 414/18/90
f  415/16/88 416/20/91 417/19/65
f  418/20/91 419/21/67 420/19/65
f  421/21/67 422/20/91 423/22/92
f  424/24/72 425/21/67 426/22/92
f  427/2/71 428/24/72 429/22/92
f  430/9/87 431/18/90 432/17/89
f  433/18/90 434/9/87 435/7/8
f  436/18/90 437/7/8 438/6/93
f  439/6/93 440/23/94 441/18/90
f  442/20/91 443/18/90 444/23/94
f  445/22/92 446/20/91 447/23/94
f  448/6/93 449/22/92 450/23/94
f  451/22/92 452/6/93 453/4/95
f  454/22/92 455/4/95 456/2/71
f  457/11/86 458/12/96 459/9/87
f  460/13/58 461/12/96 462/11/86
f  463/12/96 464/13/58 465/14/74
f  466/14/74 467/15/75 468/12/96
f  469/12/96 470/15/75 471/16/97
f  472/17/98 473/12/96 474/16/97
f  475/17/98 476/9/87 477/12/96
f  478/18/99 479/9/87 480/17/98
f  481/9/87 482/18/99 483/7/8
f  484/7/8 485/18/99 486/6/93
f  487/19/77 488/16/97 489/15/75
f  490/20/100 491/16/97 492/19/77
f  493/16/97 494/20/100 495/18/99
f  496/17/98 497/16/97 498/18/99
f  499/21/81 500/20/100 501/19/77
f  502/20/100 503/21/81 504/22/101
f  505/20/100 506/22/101 507/23/102
f  508/18/99 509/20/100 510/23/102
f  511/23/102 512/6/93 513/18/99
f  514/22/101 515/6/93 516/23/102
f  517/6/93 518/22/101 519/4/95
f  520/4/95 521/22/101 522/2/71
f  523/24/83 524/2/71 525/22/101
f  526/21/81 527/24/83 528/22/101

