# File produced by Open Asset Import Library (http://www.assimp.sf.net)
# (assimp v6.0.0)

mtllib torpedo.mtl

# 346 vertex positions
v -3.75000024 -0.365001619 37
v -12.5 0.364998192 41.5
v -3.75000024 0.3649984 37
v -12.5 0.364998192 41.5
v -3.75000024 -0.365001619 37
v -12.5 -0.365001827 41.5
v -9.5 -0.365000755 17
v -10 0.364998579 33
v -9.5 0.364999264 17
v -10 0.364998579 33
v -9.5 -0.365000755 17
v -10 -0.36500144 33
v -10 -0.365002126 48.25
v -2.25 0.364997923 47.5
v -10 0.364997894 48.25
v -2.25 0.364997923 47.5
v -10 -0.365002126 48.25
v -2.25 -0.365002096 47.5
v -5 -0.365000278 6.5
v -9.5 0.364999264 17
v -5 0.364999741 6.5
v -9.5 0.364999264 17
v -5 -0.365000278 6.5
v -9.5 -0.365000755 17
v -5 -0.3650015 34
v -9.5 -0.365000755 17
v -5 -0.365000278 6.5
v -9.5 -0.365000755 17
v -5 -0.3650015 34
v -10 -0.36500144 33
v -12.5 -0.365001827 41.5
v -10 0.364997894 48.25
v -12.5 0.364998192 41.5
v -10 0.364997894 48.25
v -12.5 -0.365001827 41.5
v -10 -0.365002126 48.25
v -10 -0.36500144 33
v -5 0.364998519 34
v -10 0.364998579 33
v -5 0.364998519 34
v -10 -0.36500144 33
v -5 -0.3650015 34
v -12.5 -0.365001827 41.5
v -2.25 -0.365002096 47.5
v -10 -0.365002126 48.25
v -2.25 -0.365002096 47.5
v -12.5 -0.365001827 41.5
v -3.75000024 -0.365001619 37
v -6.41499996 -1.56268209e-06 35.75
v -2.65499997 -2.65500236 49.5699997
v -3.75000024 -2.16677358e-06 49.5699997
v -2.65499997 -2.65500236 49.5699997
v -6.41499996 -1.56268209e-06 35.75
v -4.53499985 -4.53500175 35.75
v -4.53499985 -4.53500175 35.75
v 0 -3.75000238 49.5699997
v -2.65499997 -2.65500236 49.5699997
v 0 -2.51500225 51.8499985
v -2.65499997 -2.65500236 49.5699997
v 0 -3.75000238 49.5699997
v 0 -2.51500225 51.8499985
v -2.51499987 -2.26643533e-06 51.8499985
v -2.65499997 -2.65500236 49.5699997
v -2.51499987 -2.26643533e-06 51.8499985
v -3.75000024 -2.16677358e-06 49.5699997
v -2.65499997 -2.65500236 49.5699997
v -6.41499996 -1.56268209e-06 35.75
v -4.53499985 -4.53499794 -40.5099983
v -4.53499985 -4.53500175 35.75
v 0 -6.41499853 -40.5099983
v -4.53499985 -4.53500175 35.75
v -4.53499985 -4.53499794 -40.5099983
v -4.53499985 -4.53500175 35.75
v 0 -6.41499853 -40.5099983
v 0 -6.41500139 35.75
v 0 -3.75000238 49.5699997
v -4.53499985 -4.53500175 35.75
v 0 -6.41500139 35.75
v 0 -6.41500139 35.75
v 2.65499997 -2.65500236 49.5699997
v 0 -3.75000238 49.5699997
v 0 -2.51500225 51.8499985
v 0 -3.75000238 49.5699997
v 2.65499997 -2.65500236 49.5699997
v 0 -2.51500225 51.8499985
v 2.65499997 -2.65500236 49.5699997
v 2.51499987 -2.26643533e-06 51.8499985
v -2.51499987 -2.26643533e-06 51.8499985
v 0 -2.51500225 51.8499985
v 2.51499987 -2.26643533e-06 51.8499985
v -4.53499985 -4.53499794 -40.5099983
v -6.41499996 -1.56268209e-06 35.75
v -6.41499996 1.77074833e-06 -40.5099983
v -6.41499996 1.77074833e-06 -40.5099983
v -3.64499998 -3.64499807 -44.5
v -4.53499985 -4.53499794 -40.5099983
v 0 -5.1549983 -44.5
v -4.53499985 -4.53499794 -40.5099983
v -3.64499998 -3.64499807 -44.5
v -4.53499985 -4.53499794 -40.5099983
v 0 -5.1549983 -44.5
v 0 -6.41499853 -40.5099983
v 0 -5.1549983 -44.5
v 4.53499985 -4.53499794 -40.5099983
v 0 -6.41499853 -40.5099983
v 4.53499985 -4.53499794 -40.5099983
v 0 -6.41500139 35.75
v 0 -6.41499853 -40.5099983
v 0 -6.41500139 35.75
v 4.53499985 -4.53499794 -40.5099983
v 4.53499985 -4.53500175 35.75
v 2.65499997 -2.65500236 49.5699997
v 0 -6.41500139 35.75
v 4.53499985 -4.53500175 35.75
v 4.53499985 -4.53500175 35.75
v 3.75000024 -2.16677358e-06 49.5699997
v 2.65499997 -2.65500236 49.5699997
v 3.75000024 -2.16677358e-06 49.5699997
v 4.53499985 -4.53500175 35.75
v 6.41499996 -1.56268209e-06 35.75
v 4.53499985 -4.53500175 35.75
v 6.41499996 1.77074833e-06 -40.5099983
v 6.41499996 -1.56268209e-06 35.75
v -3.64499998 -3.64499807 -44.5
v -6.41499996 1.77074833e-06 -40.5099983
v -5.15500021 1.94515678e-06 -44.5
v 2.51499987 -2.26643533e-06 51.8499985
v 2.65499997 -2.65500236 49.5699997
v 3.75000024 -2.16677358e-06 49.5699997
v 6.41499996 1.77074833e-06 -40.5099983
v 4.53499985 -4.53500175 35.75
v 4.53499985 -4.53499794 -40.5099983
v 3.64499998 -3.64499807 -44.5
v 6.41499996 1.77074833e-06 -40.5099983
v 4.53499985 -4.53499794 -40.5099983
v 6.41499996 1.77074833e-06 -40.5099983
v 3.64499998 -3.64499807 -44.5
v 5.15500021 1.94515678e-06 -44.5
v 4.53499985 -4.53499794 -40.5099983
v 0 -5.1549983 -44.5
v 3.64499998 -3.64499807 -44.5
v 0 -1.75999796 -47.0099983
v 3.64499998 -3.64499807 -44.5
v 0 -5.1549983 -44.5
v 0 -1.75999796 -47.0099983
v 1.75999999 2.05487231e-06 -47.0099983
v 3.64499998 -3.64499807 -44.5
v 3.64499998 -3.64499807 -44.5
v 1.75999999 2.05487231e-06 -47.0099983
v 5.15500021 1.94515678e-06 -44.5
v -3.64499998 -3.64499807 -44.5
v 0 -1.75999796 -47.0099983
v 0 -5.1549983 -44.5
v -1.75999999 2.05487231e-06 -47.0099983
v 0 -1.75999796 -47.0099983
v -3.64499998 -3.64499807 -44.5
v 0 -1.75999796 -47.0099983
v -1.75999999 2.05487231e-06 -47.0099983
v 1.75999999 2.05487231e-06 -47.0099983
v -5.15500021 1.94515678e-06 -44.5
v -1.75999999 2.05487231e-06 -47.0099983
v -3.64499998 -3.64499807 -44.5
v 10 0.364997894 48.25
v 12.5 -0.365001827 41.5
v 12.5 0.364998192 41.5
v 12.5 -0.365001827 41.5
v 10 0.364997894 48.25
v 10 -0.365002126 48.25
v 5 0.364998519 34
v 10 -0.36500144 33
v 10 0.364998579 33
v 10 -0.36500144 33
v 5 0.364998519 34
v 5 -0.3650015 34
v -2.25 0.364997923 47.5
v -12.5 0.364998192 41.5
v -12.5 0.364998192 41.5
v -2.25 0.364997923 47.5
v -3.75000024 0.3649984 37
v 2.25 0.364997923 47.5
v 10 -0.365002126 48.25
v 10 0.364997894 48.25
v 10 -0.365002126 48.25
v 2.25 0.364997923 47.5
v 2.25 -0.365002096 47.5
v 9.5 0.364999264 17
v 5 -0.365000278 6.5
v 5 0.364999741 6.5
v 5 -0.365000278 6.5
v 9.5 0.364999264 17
v 9.5 -0.365000755 17
v -9.5 0.364999264 17
v -5 0.364998519 34
v -5 0.364999741 6.5
v -5 0.364998519 34
v -9.5 0.364999264 17
v -10 0.364998579 33
v 5 0.364998519 34
v 9.5 0.364999264 17
v 5 0.364999741 6.5
v 9.5 0.364999264 17
v 5 0.364998519 34
v 10 0.364998579 33
v 10 0.364998579 33
v 9.5 -0.365000755 17
v 9.5 0.364999264 17
v 9.5 -0.365000755 17
v 10 0.364998579 33
v 10 -0.36500144 33
v 9.5 -0.365000755 17
v 5 -0.3650015 34
v 5 -0.365000278 6.5
v 5 -0.3650015 34
v 9.5 -0.365000755 17
v 10 -0.36500144 33
v 12.5 0.364998192 41.5
v 2.25 0.364997923 47.5
v 10 0.364997894 48.25
v 2.25 0.364997923 47.5
v 12.5 0.364998192 41.5
v 3.75000024 0.3649984 37
v 12.5 0.364998192 41.5
v 3.75000024 -0.365001619 37
v 3.75000024 0.3649984 37
v 3.75000024 -0.365001619 37
v 12.5 0.364998192 41.5
v 12.5 -0.365001827 41.5
v 2.25 -0.365002096 47.5
v 12.5 -0.365001827 41.5
v 10 -0.365002126 48.25
v 12.5 -0.365001827 41.5
v 2.25 -0.365002096 47.5
v 3.75000024 -0.365001619 37
v -6.41499996 1.77074833e-06 -40.5099983
v -3.64499998 3.64500165 -44.5
v -5.15500021 1.94515678e-06 -44.5
v -3.64499998 3.64500165 -44.5
v -6.41499996 1.77074833e-06 -40.5099983
v -4.53499985 4.53500175 -40.5099983
v -4.53499985 4.53500175 -40.5099983
v 0 5.15500212 -44.5
v -3.64499998 3.64500165 -44.5
v 0 1.76000202 -47.0099983
v -3.64499998 3.64500165 -44.5
v 0 5.15500212 -44.5
v 0 1.76000202 -47.0099983
v -1.75999999 2.05487231e-06 -47.0099983
v -3.64499998 3.64500165 -44.5
v -1.75999999 2.05487231e-06 -47.0099983
v -5.15500021 1.94515678e-06 -44.5
v -3.64499998 3.64500165 -44.5
v -6.41499996 -1.56268209e-06 35.75
v -4.53499985 4.53500175 -40.5099983
v -4.53499985 4.53500175 -40.5099983
v -6.41499996 -1.56268209e-06 35.75
v -4.53499985 4.53499842 35.75
v -4.53499985 4.53499842 35.75
v 0 6.41500139 -40.5099983
v -4.53499985 4.53500175 -40.5099983
v 0 5.15500212 -44.5
v -4.53499985 4.53500175 -40.5099983
v 0 6.41500139 -40.5099983
v 4.53499985 4.53500175 -40.5099983
v 0 5.15500212 -44.5
v 0 6.41500139 -40.5099983
v 0 5.15500212 -44.5
v 4.53499985 4.53500175 -40.5099983
v 3.64499998 3.64500165 -44.5
v 3.64499998 3.64500165 -44.5
v 0 1.76000202 -47.0099983
v 0 5.15500212 -44.5
v 1.75999999 2.05487231e-06 -47.0099983
v 0 1.76000202 -47.0099983
v 3.64499998 3.64500165 -44.5
v -1.75999999 2.05487231e-06 -47.0099983
v 0 1.76000202 -47.0099983
v 1.75999999 2.05487231e-06 -47.0099983
v -3.75000024 -2.16677358e-06 49.5699997
v -4.53499985 4.53499842 35.75
v -6.41499996 -1.56268209e-06 35.75
v -4.53499985 4.53499842 35.75
v -3.75000024 -2.16677358e-06 49.5699997
v -2.65499997 2.65499783 49.5699997
v -2.65499997 2.65499783 49.5699997
v 0 6.41499853 35.75
v -4.53499985 4.53499842 35.75
v 0 6.41500139 -40.5099983
v -4.53499985 4.53499842 35.75
v 0 6.41499853 35.75
v 0 6.41499853 35.75
v 4.53499985 4.53500175 -40.5099983
v 0 6.41500139 -40.5099983
v 4.53499985 4.53500175 -40.5099983
v 0 6.41499853 35.75
v 4.53499985 4.53499842 35.75
v 4.53499985 4.53499842 35.75
v 6.41499996 1.77074833e-06 -40.5099983
v 4.53499985 4.53500175 -40.5099983
v 6.41499996 1.77074833e-06 -40.5099983
v 3.64499998 3.64500165 -44.5
v 4.53499985 4.53500175 -40.5099983
v 3.64499998 3.64500165 -44.5
v 6.41499996 1.77074833e-06 -40.5099983
v 5.15500021 1.94515678e-06 -44.5
v 0 6.41499853 35.75
v -2.65499997 2.65499783 49.5699997
v 0 3.74999785 49.5699997
v 0 3.74999785 49.5699997
v 4.53499985 4.53499842 35.75
v 0 6.41499853 35.75
v 4.53499985 4.53499842 35.75
v 0 3.74999785 49.5699997
v 2.65499997 2.65499783 49.5699997
v 2.65499997 2.65499783 49.5699997
v 6.41499996 -1.56268209e-06 35.75
v 4.53499985 4.53499842 35.75
v 6.41499996 1.77074833e-06 -40.5099983
v 4.53499985 4.53499842 35.75
v 6.41499996 -1.56268209e-06 35.75
v -2.65499997 2.65499783 49.5699997
v 0 2.51499772 51.8499985
v 0 3.74999785 49.5699997
v 0 3.74999785 49.5699997
v 0 2.51499772 51.8499985
v 2.65499997 2.65499783 49.5699997
v 2.65499997 2.65499783 49.5699997
v 0 2.51499772 51.8499985
v 2.51499987 -2.26643533e-06 51.8499985
v 2.65499997 2.65499783 49.5699997
v 2.51499987 -2.26643533e-06 51.8499985
v 3.75000024 -2.16677358e-06 49.5699997
v -2.51499987 -2.26643533e-06 51.8499985
v 0 2.51499772 51.8499985
v -2.65499997 2.65499783 49.5699997
v 0 2.51499772 51.8499985
v -2.51499987 -2.26643533e-06 51.8499985
v 2.51499987 -2.26643533e-06 51.8499985
v -3.75000024 -2.16677358e-06 49.5699997
v -2.51499987 -2.26643533e-06 51.8499985
v -2.65499997 2.65499783 49.5699997
v 6.41499996 -1.56268209e-06 35.75
v 2.65499997 2.65499783 49.5699997
v 3.75000024 -2.16677358e-06 49.5699997
v 1.75999999 2.05487231e-06 -47.0099983
v 3.64499998 3.64500165 -44.5
v 5.15500021 1.94515678e-06 -44.5

# 50 UV coordinates
vt 0.847100019 0.52670002 0
vt 0.665000021 0.550800025 0
vt 0.842599988 0.520099998 0
vt 0.66960001 0.557399988 0
vt 0.713400006 0.143000007 0
vt 0.689800024 0.295700014 0
vt 0.699400008 0.142800003 0
vt 0.703800023 0.295899987 0
vt 0.698599994 0.624599993 0
vt 0.846499979 0.63499999 0
vt 0.698000014 0.631600022 0
vt 0.847100019 0.628000021 0
vt 0.799300015 0.0428000018 0
vt 0.700500011 0.140200004 0
vt 0.78640002 0.0399999991 0
vt 0.799300015 0.305700004 0
vt 0.684899986 0.626100004 0
vt 0.655799985 0.558899999 0
vt 0.796500027 0.3125 0
vt 0.701099992 0.3028 0
vt 0.162599996 0.822099984 0
vt 0.291399986 0.953800023 0
vt 0.237299994 0.958400011 0
vt 0.256099999 0.820500016 0
vt 0.34740001 0.950299978 0
vt 0.34740001 0.971199989 0
vt 0.294999987 0.99119997 0
vt 0.253600001 0.975799978 0
vt 0.256599993 0.0932999998 0
vt 0.34920001 0.0942000002 0
vt 0.34920001 0.819899976 0
vt 0.404199988 0.954200029 0
vt 0.399300009 0.991599977 0
vt 0.163399994 0.0923999995 0
vt 0.270599991 0.0524000004 0
vt 0.349299997 0.0577999987 0
vt 0.441900015 0.0932999998 0
vt 0.442099988 0.820500016 0
vt 0.459500015 0.959399998 0
vt 0.535300016 0.822099984 0
vt 0.5352 0.0923999995 0
vt 0.189099997 0.0507000014 0
vt 0.441199988 0.976499975 0
vt 0.427899987 0.0524000004 0
vt 0.509500027 0.0507000014 0
vt 0.349299997 0.0216000006 0
vt 0.386599988 0.00710000005 0
vt 0.466399997 0.0188999996 0
vt 0.312000006 0.00710000005 0
vt 0.232199997 0.0188999996 0

# 54 vertex normals
vn -0.457305104 3.88729653e-08 -0.889309824
vn -0.999513149 1.36381328e-09 -0.0312004108
vn 0.0962954313 -4.35082512e-08 0.995352745
vn -0.919144928 1.7218758e-08 -0.393919289
vn 0 -1 -4.37113883e-08
vn -0.937747538 -1.5181735e-08 0.347317606
vn -0.196096897 -4.28627054e-08 0.980584443
vn -0.994978607 -0.0580987521 0.0814982504
vn -0.701986909 -0.606088698 0.37399298
vn -0.948077738 0.0815980807 0.307392776
vn -0.60087806 -0.793771029 0.0941965282
vn -0.0815980881 -0.948077738 0.307392776
vn 0 -0.647268116 0.762262404
vn -0.543317556 -3.66968962e-08 0.83952719
vn -0.70071137 -0.696911335 -0.15270251
vn -0.0833033472 -0.989039719 -0.121904932
vn 0.136001438 -0.986210406 0.0943009555
vn 0.606088698 -0.701986909 0.37399298
vn 0.543317556 -3.66968962e-08 0.83952719
vn -0.979135752 8.88247875e-09 -0.203207418
vn -0.613595784 -0.518196404 -0.59579587
vn 0 -0.868673563 -0.495384961
vn 0.596862555 -0.787950575 -0.151290551
vn 0.793771029 -0.60087806 0.0941965356
vn 0.948077738 -0.081598103 0.307392776
vn 0.990180194 0.0811983719 0.113797717
vn 0.988258123 6.67881705e-09 -0.152793527
vn -0.80980283 2.56455621e-08 -0.586702108
vn 0.613595784 -0.518196404 -0.59579587
vn 0.80980283 2.56455621e-08 -0.586702108
vn 0 -0.411873311 -0.911241055
vn 0.343516976 4.10514005e-08 -0.939146519
vn -0.343516976 4.10514005e-08 -0.939146519
vn 0.937747538 -1.5181735e-08 0.347317606
vn 0.196096897 -4.28627054e-08 0.980584443
vn 0 1 4.37113883e-08
vn -0.0962954313 -4.35082512e-08 0.995352745
vn 0.919144928 1.7218758e-08 -0.393919289
vn 0.999513149 1.36381328e-09 -0.0312004108
vn 0.457305104 3.88729653e-08 -0.889309824
vn -0.613595784 0.518196404 -0.59579587
vn -0.70071137 0.696911335 -0.152702451
vn 0 0.868673503 -0.495384872
vn 0 0.4118734 -0.911241055
vn -0.703352213 0.704452097 0.0950935706
vn -0.0833033547 0.989039838 -0.121904857
vn 0.596862614 0.787950635 -0.151290506
vn 0.613595784 0.518196404 -0.59579587
vn -0.606088698 0.701986909 0.373993069
vn 0.00139994023 0.99545753 0.0951959863
vn 0.704452097 0.703352213 0.0950935706
vn 0.0815980881 0.948077679 0.307392806
vn 0.701986909 0.606088698 0.373993069
vn 0 0.647268057 0.762262464

# Mesh 'PipelineFBX0' with 54 faces
g PipelineFBX0
usemtl DefaultMaterial
f  1/1/1 2/2/1 3/3/1
f  4/2/1 5/1/1 6/4/1
f  7/5/2 8/6/2 9/7/2
f  10/6/2 11/5/2 12/8/2
f  13/9/3 14/10/3 15/11/3
f  16/10/3 17/9/3 18/12/3
f  19/13/4 20/14/4 21/15/4
f  22/14/4 23/13/4 24/5/4
f  25/16/5 26/5/5 27/13/5
f  28/5/5 29/16/5 30/8/5
f  31/4/6 32/17/6 33/18/6
f  34/17/6 35/4/6 36/9/6
f  37/8/7 38/19/7 39/20/7
f  40/19/7 41/8/7 42/16/7
f  43/4/5 44/12/5 45/9/5
f  46/12/5 47/4/5 48/1/5
f  49/21/8 50/22/9 51/23/10
f  52/22/9 53/21/8 54/24/11
f  55/24/11 56/25/12 57/22/9
f  58/26/13 59/22/9 60/25/12
f  61/26/13 62/27/14 63/22/9
f  64/27/14 65/28/10 66/22/9
f  67/21/8 68/29/15 69/24/11
f  70/30/16 71/24/11 72/29/15
f  73/24/11 74/30/16 75/31/17
f  76/25/12 77/24/11 78/31/17
f  79/31/17 80/32/18 81/25/12
f  82/26/13 83/25/12 84/32/18
f  85/26/13 86/32/18 87/33/19
f  88/27/14 89/26/13 90/33/19
f  91/29/15 92/21/8 93/34/20
f  94/34/20 95/35/21 96/29/15
f  97/36/22 98/29/15 99/35/21
f  100/29/15 101/36/22 102/30/16
f  103/36/22 104/37/23 105/30/16
f  106/37/23 107/31/17 108/30/16
f  109/31/17 110/37/23 111/38/24
f  112/32/18 113/31/17 114/38/24
f  115/38/24 116/39/25 117/32/18
f  118/39/25 119/38/24 120/40/26
f  121/38/24 122/41/27 123/40/26
f  124/35/21 125/34/20 126/42/28
f  127/33/19 128/32/18 129/43/25
f  130/41/27 131/38/24 132/37/23
f  133/44/29 134/41/27 135/37/23
f  136/41/27 137/44/29 138/45/30
f  139/37/23 140/36/22 141/44/29
f  142/46/31 143/44/29 144/36/22
f  145/46/31 146/47/32 147/44/29
f  148/44/29 149/47/32 150/48/30
f  151/35/21 152/46/31 153/36/22
f  154/49/33 155/46/31 156/35/21
f  157/46/31 158/49/33 159/47/32
f  160/50/28 161/49/33 162/35/21

# Mesh 'PipelineFBX1' with 62 faces
g PipelineFBX1
usemtl DefaultMaterial
f  163/17/34 164/4/34 165/18/34
f  166/4/34 167/17/34 168/9/34
f  169/19/35 170/8/35 171/20/35
f  172/8/35 173/19/35 174/16/35
f  175/12/36 176/4/36 15/9/36
f  177/4/36 178/12/36 179/1/36
f  180/10/37 181/9/37 182/11/37
f  183/9/37 184/10/37 185/12/37
f  186/14/38 187/13/38 188/15/38
f  189/13/38 190/14/38 191/5/38
f  192/5/36 193/16/36 194/13/36
f  195/16/36 196/5/36 197/8/36
f  198/16/36 199/5/36 200/13/36
f  201/5/36 202/16/36 203/8/36
f  204/6/39 205/5/39 206/7/39
f  207/5/39 208/6/39 209/8/39
f  210/5/5 211/16/5 212/13/5
f  213/16/5 214/5/5 215/8/5
f  216/4/36 217/12/36 218/9/36
f  219/12/36 220/4/36 221/1/36
f  222/2/40 223/1/40 224/3/40
f  225/1/40 226/2/40 227/4/40
f  228/12/5 229/4/5 230/9/5
f  231/4/5 232/12/5 233/1/5
f  234/34/20 235/35/41 236/42/28
f  237/35/41 238/34/20 239/29/42
f  240/29/42 241/36/43 242/35/41
f  243/46/44 244/35/41 245/36/43
f  246/46/44 247/49/33 248/35/41
f  249/49/33 250/50/28 251/35/41
f  252/21/8 253/29/42 93/34/20
f  254/29/42 255/21/8 256/24/45
f  257/24/45 258/30/46 259/29/42
f  260/36/43 261/29/42 262/30/46
f  263/37/47 264/36/43 265/30/46
f  266/36/43 267/37/47 268/44/48
f  269/44/48 270/46/44 271/36/43
f  272/47/32 273/46/44 274/44/48
f  275/49/33 276/46/44 277/47/32
f  278/23/10 279/24/45 280/21/8
f  281/24/45 282/23/10 283/22/49
f  284/22/49 285/31/50 286/24/45
f  287/30/46 288/24/45 289/31/50
f  290/31/50 291/37/47 292/30/46
f  293/37/47 294/31/50 295/38/51
f  296/38/51 297/41/27 298/37/47
f  299/41/27 300/44/48 301/37/47
f  302/44/48 303/41/27 304/45/30
f  305/31/50 306/22/49 307/25/52
f  308/25/52 309/38/51 310/31/50
f  311/38/51 312/25/52 313/32/53
f  314/32/53 315/40/26 316/38/51
f  317/41/27 318/38/51 319/40/26
f  320/22/49 321/26/54 322/25/52
f  323/25/52 324/26/54 325/32/53
f  326/32/53 327/26/54 328/33/19
f  329/32/53 330/33/19 331/43/25
f  332/27/14 333/26/54 334/22/49
f  335/26/54 336/27/14 337/33/19
f  338/28/10 339/27/14 340/22/49
f  341/40/26 342/32/53 343/39/25
f  344/47/32 345/44/48 346/48/30

