# File produced by Open Asset Import Library (http://www.assimp.sf.net)
# (assimp v6.0.0)

mtllib TypeIII.mtl

# 1077 vertex positions
v 33.5999985 14.4439983 8.39999962
v 48.7999992 5.44000006 1.20000005
v 48.7999992 12.1599989 1.20000041
v 48.7999992 5.44000006 1.20000005
v 33.5999985 14.4439983 8.39999962
v 33.5999985 3.15599942 8.39999962
v 33.5999985 14.4439983 8.39999962
v 21.4000015 8.51599884 8.39999962
v 33.5999985 3.15599942 8.39999962
v 21.4000015 8.51599884 8.39999962
v 33.5999985 14.4439983 8.39999962
v 21.4000015 10.8439999 8.39999962
v 14 8.89999962 0.0400003903
v 14 14.5999985 18
v 14 8.89999771 24.5999985
v 14 14.5999985 18
v 14 8.89999962 0.0400003903
v 14 14.6000004 0.0400006361
v 9.15999985 8.90000057 -15.9999981
v 14 14.6000004 0.0400006361
v 14 8.89999962 0.0400003903
v 14 14.6000004 0.0400006361
v 9.15999985 8.90000057 -15.9999981
v 9.15999985 14.6000004 -15.9999981
v 14 8.89999771 24.5999985
v -14 14.5999985 18
v -14 8.89999771 24.5999985
v -14 14.5999985 18
v 14 8.89999771 24.5999985
v 14 14.5999985 18
v 14 14.5999985 18
v -14 14.6000004 0.0400006361
v -14 14.5999985 18
v -14 14.6000004 0.0400006361
v 14 14.5999985 18
v 14 14.6000004 0.0400006361
v 9.15999985 14.6000004 -15.9999981
v -14 14.6000004 0.0400006361
v 14 14.6000004 0.0400006361
v -14 14.6000004 0.0400006361
v 9.15999985 14.6000004 -15.9999981
v -9.15999985 14.6000004 -15.9999981
v -13.8840008 3.15600204 -45.2239952
v -7.20000029 10.8440018 -40.5999947
v -7.20000029 8.51600075 -40.5999947
v -7.20000029 10.8440018 -40.5999947
v -13.8840008 3.15600204 -45.2239952
v -13.8840008 14.4440002 -45.2239952
v -28.4000015 5.44000196 -39.9999962
v -13.8840008 14.4440002 -45.2239952
v -13.8840008 3.15600204 -45.2239952
v -13.8840008 14.4440002 -45.2239952
v -28.4000015 5.44000196 -39.9999962
v -28.4000015 12.1600008 -39.9999962
v -28.4000015 5.44000196 -39.9999962
v -48.7999992 12.1599989 1.20000041
v -28.4000015 12.1600008 -39.9999962
v -48.7999992 12.1599989 1.20000041
v -28.4000015 5.44000196 -39.9999962
v -48.7999992 5.44000006 1.20000005
v 17.1000004 3.8279984 33.567997
v -9.80800056 1.02799785 46.1559982
v 9.80800056 1.02799785 46.1559982
v -9.80800056 1.02799785 46.1559982
v 17.1000004 3.8279984 33.567997
v -17.1000004 3.8279984 33.567997
v -17.8239994 -7.56799746 -50.3559952
v -26.3320007 -0.431998551 -33.0200005
v -17.8239994 -0.431997776 -50.3559952
v -26.3320007 -0.431998551 -33.0200005
v -17.8239994 -7.56799746 -50.3559952
v -26.3320007 -7.56799841 -33.0200005
v -26.3320007 -7.56799841 -33.0200005
v -32.8759995 -0.431999683 -6.75599957
v -26.3320007 -0.431998551 -33.0200005
v -32.8759995 -0.431999683 -6.75599957
v -26.3320007 -7.56799841 -33.0200005
v -32.8759995 -7.56799889 -6.75599957
v -32.8759995 -7.56799889 -6.75599957
v -48.4000015 -0.432000369 9.33199978
v -32.8759995 -0.431999683 -6.75599957
v -48.4000015 -0.432000369 9.33199978
v -32.8759995 -7.56799889 -6.75599957
v -48.4000015 -7.56799984 9.33199883
v -48.4000015 -7.56799984 9.33199883
v -38.8879967 -0.432001799 42.3199959
v -48.4000015 -0.432000369 9.33199978
v -38.8879967 -0.432001799 42.3199959
v -48.4000015 -7.56799984 9.33199883
v -38.8879967 -7.56800127 42.3199959
v 38.8879967 -0.432001799 42.3199959
v -38.8879967 -7.56800127 42.3199959
v 38.8879967 -7.56800127 42.3199959
v -38.8879967 -7.56800127 42.3199959
v 38.8879967 -0.432001799 42.3199959
v -38.8879967 -0.432001799 42.3199959
v 38.8879967 -0.432001799 42.3199959
v -27.7999992 8.94799805 27.1999989
v -38.8879967 -0.432001799 42.3199959
v -27.7999992 8.94799805 27.1999989
v 38.8879967 -0.432001799 42.3199959
v 27.7999992 8.94799805 27.1999989
v -13.8800011 8.94800091 -30.7999973
v 4.80000019 8.94800186 -51.9999924
v -4.80000019 8.94800186 -51.9999924
v 4.80000019 8.94800186 -51.9999924
v -13.8800011 8.94800091 -30.7999973
v 13.8800011 8.94800091 -30.7999973
v -18.3999996 8.94799995 -6.19999933
v 13.8800011 8.94800091 -30.7999973
v -13.8800011 8.94800091 -30.7999973
v 13.8800011 8.94800091 -30.7999973
v -18.3999996 8.94799995 -6.19999933
v 18.3999996 8.94799995 -6.19999933
v -33.5999985 8.947999 8.80000019
v 18.3999996 8.94799995 -6.19999933
v -18.3999996 8.94799995 -6.19999933
v 18.3999996 8.94799995 -6.19999933
v -33.5999985 8.947999 8.80000019
v 33.5999985 8.947999 8.80000019
v -27.7999992 8.94799805 27.1999989
v 33.5999985 8.947999 8.80000019
v -33.5999985 8.947999 8.80000019
v 33.5999985 8.947999 8.80000019
v -27.7999992 8.94799805 27.1999989
v 27.7999992 8.94799805 27.1999989
v 26.3320007 -0.431998551 -33.0200005
v 17.8239994 -7.56799746 -50.3559952
v 17.8239994 -0.431997776 -50.3559952
v 17.8239994 -7.56799746 -50.3559952
v 26.3320007 -0.431998551 -33.0200005
v 26.3320007 -7.56799841 -33.0200005
v 32.8759995 -0.431999683 -6.75599957
v 26.3320007 -7.56799841 -33.0200005
v 26.3320007 -0.431998551 -33.0200005
v 26.3320007 -7.56799841 -33.0200005
v 32.8759995 -0.431999683 -6.75599957
v 32.8759995 -7.56799889 -6.75599957
v 48.4000015 -0.432000369 9.33199978
v 32.8759995 -7.56799889 -6.75599957
v 32.8759995 -0.431999683 -6.75599957
v 32.8759995 -7.56799889 -6.75599957
v 48.4000015 -0.432000369 9.33199978
v 48.4000015 -7.56799984 9.33199883
v 38.8879967 -0.432001799 42.3199959
v 48.4000015 -7.56799984 9.33199883
v 48.4000015 -0.432000369 9.33199978
v 48.4000015 -7.56799984 9.33199883
v 38.8879967 -0.432001799 42.3199959
v 38.8879967 -7.56800127 42.3199959
v 17.8239994 -7.56799746 -50.3559952
v 13.8800011 -16.947998 -30.7999973
v 4.80000019 -16.9479961 -51.9999924
v 13.8800011 -16.947998 -30.7999973
v 17.8239994 -7.56799746 -50.3559952
v 26.3320007 -7.56799841 -33.0200005
v 26.3320007 -7.56799841 -33.0200005
v 18.3999996 -16.947998 -6.20000076
v 13.8800011 -16.947998 -30.7999973
v 18.3999996 -16.947998 -6.20000076
v 26.3320007 -7.56799841 -33.0200005
v 32.8759995 -7.56799889 -6.75599957
v 32.8759995 -7.56799889 -6.75599957
v 33.5999985 -16.948 8.79999828
v 18.3999996 -16.947998 -6.20000076
v 33.5999985 -16.948 8.79999828
v 32.8759995 -7.56799889 -6.75599957
v 48.4000015 -7.56799984 9.33199883
v 48.4000015 -7.56799984 9.33199883
v 27.7999992 -16.948 27.1999969
v 33.5999985 -16.948 8.79999828
v 27.7999992 -16.948 27.1999969
v 48.4000015 -7.56799984 9.33199883
v 38.8879967 -7.56800127 42.3199959
v 13.8800011 8.94800091 -30.7999973
v 17.8239994 -0.431997776 -50.3559952
v 4.80000019 8.94800186 -51.9999924
v 17.8239994 -0.431997776 -50.3559952
v 13.8800011 8.94800091 -30.7999973
v 26.3320007 -0.431998551 -33.0200005
v 18.3999996 8.94799995 -6.19999933
v 26.3320007 -0.431998551 -33.0200005
v 13.8800011 8.94800091 -30.7999973
v 26.3320007 -0.431998551 -33.0200005
v 18.3999996 8.94799995 -6.19999933
v 32.8759995 -0.431999683 -6.75599957
v 33.5999985 8.947999 8.80000019
v 32.8759995 -0.431999683 -6.75599957
v 18.3999996 8.94799995 -6.19999933
v 32.8759995 -0.431999683 -6.75599957
v 33.5999985 8.947999 8.80000019
v 48.4000015 -0.432000369 9.33199978
v 27.7999992 8.94799805 27.1999989
v 48.4000015 -0.432000369 9.33199978
v 33.5999985 8.947999 8.80000019
v 48.4000015 -0.432000369 9.33199978
v 27.7999992 8.94799805 27.1999989
v 38.8879967 -0.432001799 42.3199959
v -17.8239994 -0.431997776 -50.3559952
v -13.8800011 8.94800091 -30.7999973
v -4.80000019 8.94800186 -51.9999924
v -13.8800011 8.94800091 -30.7999973
v -17.8239994 -0.431997776 -50.3559952
v -26.3320007 -0.431998551 -33.0200005
v -26.3320007 -0.431998551 -33.0200005
v -18.3999996 8.94799995 -6.19999933
v -13.8800011 8.94800091 -30.7999973
v -18.3999996 8.94799995 -6.19999933
v -26.3320007 -0.431998551 -33.0200005
v -32.8759995 -0.431999683 -6.75599957
v -32.8759995 -0.431999683 -6.75599957
v -33.5999985 8.947999 8.80000019
v -18.3999996 8.94799995 -6.19999933
v -33.5999985 8.947999 8.80000019
v -32.8759995 -0.431999683 -6.75599957
v -48.4000015 -0.432000369 9.33199978
v -48.4000015 -0.432000369 9.33199978
v -27.7999992 8.94799805 27.1999989
v -33.5999985 8.947999 8.80000019
v -27.7999992 8.94799805 27.1999989
v -48.4000015 -0.432000369 9.33199978
v -38.8879967 -0.432001799 42.3199959
v -22.7999992 -20.9999981 -5.40000105
v -22.4799995 -16.948 13.6399975
v -22.7999992 -14.5199986 -5.40000057
v -22.4799995 -16.948 13.6399975
v -22.7999992 -20.9999981 -5.40000105
v -22.4799995 -20.9999981 13.6399975
v -20.7999992 -21 21.3599968
v -22.4799995 -16.948 13.6399975
v -22.4799995 -20.9999981 13.6399975
v -22.4799995 -16.948 13.6399975
v -20.7999992 -21 21.3599968
v -20.7999992 -16.948 21.3599987
v -20.7999992 -21 21.3599968
v -17.5200005 -16.948 25.9999962
v -20.7999992 -16.948 21.3599987
v -17.5200005 -16.948 25.9999962
v -20.7999992 -21 21.3599968
v -17.5200005 -21 25.9999962
v -17.5200005 -21 25.9999962
v -11.8400002 -16.948 29.8399963
v -17.5200005 -16.948 25.9999962
v -11.8400002 -16.948 29.8399963
v -17.5200005 -21 25.9999962
v -11.8400002 -21 29.8399963
v -11.8400002 -21 29.8399963
v -5.03999996 -16.948 31.1599979
v -11.8400002 -16.948 29.8399963
v -5.03999996 -16.948 31.1599979
v -11.8400002 -21 29.8399963
v -5.03999996 -21 31.1599979
v -5.03999996 -21 31.1599979
v 5.03999996 -16.948 31.3999977
v -5.03999996 -16.948 31.1599979
v 5.03999996 -16.948 31.3999977
v -5.03999996 -21 31.1599979
v 5.03999996 -21 31.3999977
v 5.03999996 -21 31.3999977
v 11.8400002 -16.948 29.8399963
v 5.03999996 -16.948 31.3999977
v 11.8400002 -16.948 29.8399963
v 5.03999996 -21 31.3999977
v 11.8400002 -21 29.8399963
v 11.8400002 -21 29.8399963
v 17.5200005 -16.948 25.9999962
v 11.8400002 -16.948 29.8399963
v 17.5200005 -16.948 25.9999962
v 11.8400002 -21 29.8399963
v 17.5200005 -21 25.9999962
v 20.7999992 -21 21.3599968
v 17.5200005 -16.948 25.9999962
v 17.5200005 -21 25.9999962
v 17.5200005 -16.948 25.9999962
v 20.7999992 -21 21.3599968
v 20.7999992 -16.948 21.3599987
v 22.4799995 -20.9999981 13.6399975
v 20.7999992 -16.948 21.3599987
v 20.7999992 -21 21.3599968
v 20.7999992 -16.948 21.3599987
v 22.4799995 -20.9999981 13.6399975
v 22.4799995 -16.948 13.6399975
v 22.7999992 -20.9999981 -5.40000105
v 22.4799995 -16.948 13.6399975
v 22.4799995 -20.9999981 13.6399975
v 22.4799995 -16.948 13.6399975
v 22.7999992 -20.9999981 -5.40000105
v 22.7999992 -14.5199986 -5.40000057
v 0 -20.9999962 -17.3999996
v 22.7999992 -14.5199986 -5.40000057
v 22.7999992 -20.9999981 -5.40000105
v 22.7999992 -14.5199986 -5.40000057
v 0 -20.9999962 -17.3999996
v 0 -14.5199986 -17.3999996
v -22.7999992 -20.9999981 -5.40000105
v 0 -14.5199986 -17.3999996
v 0 -20.9999962 -17.3999996
v 0 -14.5199986 -17.3999996
v -22.7999992 -20.9999981 -5.40000105
v -22.7999992 -14.5199986 -5.40000057
v 16.5999985 -17.5439987 -15.5999994
v 18.2399998 -16.947998 -7.48000097
v 18.2399998 -20.3999977 -7.48000097
v 18.2399998 -16.947998 -7.48000097
v 16.5999985 -17.5439987 -15.5999994
v 16.5999985 -16.947998 -15.5999994
v 0 -17.5439987 -22.9999981
v 16.5999985 -16.947998 -15.5999994
v 16.5999985 -17.5439987 -15.5999994
v 16.5999985 -16.947998 -15.5999994
v 0 -17.5439987 -22.9999981
v 0 -16.947998 -22.9999981
v 0 -17.5439987 -22.9999981
v -16.5999985 -16.947998 -15.5999994
v 0 -16.947998 -22.9999981
v -16.5999985 -16.947998 -15.5999994
v 0 -17.5439987 -22.9999981
v -16.5999985 -17.5439987 -15.5999994
v -16.5999985 -17.5439987 -15.5999994
v -18.2399998 -16.947998 -7.48000097
v -16.5999985 -16.947998 -15.5999994
v -18.2399998 -16.947998 -7.48000097
v -16.5999985 -17.5439987 -15.5999994
v -18.2399998 -20.3999977 -7.48000097
v 16.5999985 -17.5439987 -15.5999994
v 0 -20.3999977 -17.079998
v 0 -17.5439987 -22.9999981
v 0 -20.3999977 -17.079998
v -16.5999985 -17.5439987 -15.5999994
v 0 -17.5439987 -22.9999981
v -16.5999985 -17.5439987 -15.5999994
v 0 -20.3999977 -17.079998
v -18.2399998 -20.3999977 -7.48000097
v 0 -20.3999977 -17.079998
v 16.5999985 -17.5439987 -15.5999994
v 18.2399998 -20.3999977 -7.48000097
v 22.7999992 -7.87599993 18.3999977
v 20.7600002 -3.42000175 42.1959991
v 22.7999992 -5.87600136 42.3999977
v 20.7600002 -3.42000175 42.1959991
v 22.7999992 -7.87599993 18.3999977
v 20.5839996 -5.20800066 18.1759987
v -20.7600002 -3.42000175 42.1959991
v -21.8840008 -7.90400076 21.5079975
v -22.7999992 -5.87600136 42.3999977
v -21.8840008 -7.90400076 21.5079975
v -20.7600002 -3.42000175 42.1959991
v -19.6720009 -5.23600054 21.2839985
v -6.52400017 -34.3199959 6.04399824
v -6.63999987 -29.3999977 5.75999784
v -6.63999987 -34.3199959 5.75999784
v -6.63999987 -29.3999977 5.75999784
v -6.52400017 -34.3199959 6.04399824
v -6.52400017 -29.3999977 6.04399824
v -6.52400017 -34.3199959 6.04399824
v -6.24000025 -29.3999977 6.15999842
v -6.52400017 -29.3999977 6.04399824
v -6.24000025 -29.3999977 6.15999842
v -6.52400017 -34.3199959 6.04399824
v -6.24000025 -34.3199959 6.15999794
v -5.95600033 -34.3199959 6.04399824
v -6.24000025 -29.3999977 6.15999842
v -6.24000025 -34.3199959 6.15999794
v -6.24000025 -29.3999977 6.15999842
v -5.95600033 -34.3199959 6.04399824
v -5.95600033 -29.3999977 6.04399824
v -5.84000015 -34.3199959 5.75999784
v -5.95600033 -29.3999977 6.04399824
v -5.95600033 -34.3199959 6.04399824
v -5.95600033 -29.3999977 6.04399824
v -5.84000015 -34.3199959 5.75999784
v -5.84000015 -29.3999977 5.75999784
v -5.84000015 -34.3199959 5.75999784
v -5.95600033 -29.3999977 5.4759984
v -5.84000015 -29.3999977 5.75999784
v -5.95600033 -29.3999977 5.4759984
v -5.84000015 -34.3199959 5.75999784
v -5.95600033 -34.3199959 5.47599792
v -6.24000025 -34.3199959 5.35999823
v -5.95600033 -29.3999977 5.4759984
v -5.95600033 -34.3199959 5.47599792
v -5.95600033 -29.3999977 5.4759984
v -6.24000025 -34.3199959 5.35999823
v -6.24000025 -29.3999977 5.3599987
v -6.52400017 -34.3199959 5.47599792
v -6.24000025 -29.3999977 5.3599987
v -6.24000025 -34.3199959 5.35999823
v -6.24000025 -29.3999977 5.3599987
v -6.52400017 -34.3199959 5.47599792
v -6.52400017 -29.3999977 5.4759984
v -6.63999987 -34.3199959 5.75999784
v -6.52400017 -29.3999977 5.4759984
v -6.52400017 -34.3199959 5.47599792
v -6.52400017 -29.3999977 5.4759984
v -6.63999987 -34.3199959 5.75999784
v -6.63999987 -29.3999977 5.75999784
v -7.12000036 -40.7199974 13.4399967
v -7.00400019 -29.4000015 13.7239981
v -7.12000036 -29.4000015 13.4399967
v -7.00400019 -29.4000015 13.7239981
v -7.12000036 -40.7199974 13.4399967
v -7.00400019 -40.7199974 13.7239981
v -6.71999979 -40.7199974 13.8399963
v -7.00400019 -29.4000015 13.7239981
v -7.00400019 -40.7199974 13.7239981
v -7.00400019 -29.4000015 13.7239981
v -6.71999979 -40.7199974 13.8399963
v -6.71999979 -29.4000015 13.8399982
v -6.43599987 -40.7199974 13.7239981
v -6.71999979 -29.4000015 13.8399982
v -6.71999979 -40.7199974 13.8399963
v -6.71999979 -29.4000015 13.8399982
v -6.43599987 -40.7199974 13.7239981
v -6.43599987 -29.4000015 13.7239981
v -6.32000065 -40.7199974 13.4399967
v -6.43599987 -29.4000015 13.7239981
v -6.43599987 -40.7199974 13.7239981
v -6.43599987 -29.4000015 13.7239981
v -6.32000065 -40.7199974 13.4399967
v -6.32000065 -29.4000015 13.4399967
v -6.43599987 -40.7199974 13.1559973
v -6.32000065 -29.4000015 13.4399967
v -6.32000065 -40.7199974 13.4399967
v -6.32000065 -29.4000015 13.4399967
v -6.43599987 -40.7199974 13.1559973
v -6.43599987 -29.4000015 13.1559992
v -6.71999979 -40.7199974 13.0399981
v -6.43599987 -29.4000015 13.1559992
v -6.43599987 -40.7199974 13.1559973
v -6.43599987 -29.4000015 13.1559992
v -6.71999979 -40.7199974 13.0399981
v -6.71999979 -29.4000015 13.0399981
v -7.00400019 -40.7199974 13.1559973
v -6.71999979 -29.4000015 13.0399981
v -6.71999979 -40.7199974 13.0399981
v -6.71999979 -29.4000015 13.0399981
v -7.00400019 -40.7199974 13.1559973
v -7.00400019 -29.4000015 13.1559992
v -7.12000036 -40.7199974 13.4399967
v -7.00400019 -29.4000015 13.1559992
v -7.00400019 -40.7199974 13.1559973
v -7.00400019 -29.4000015 13.1559992
v -7.12000036 -40.7199974 13.4399967
v -7.12000036 -29.4000015 13.4399967
v -6.63999987 -31.3599987 3.85999846
v -6.52400017 -29.3999977 4.14399862
v -6.63999987 -29.3999977 3.8599987
v -6.52400017 -29.3999977 4.14399862
v -6.63999987 -31.3599987 3.85999846
v -6.52400017 -31.3599987 4.14399862
v -6.52400017 -31.3599987 4.14399862
v -6.24000025 -29.3999977 4.25999832
v -6.52400017 -29.3999977 4.14399862
v -6.24000025 -29.3999977 4.25999832
v -6.52400017 -31.3599987 4.14399862
v -6.24000025 -31.3599987 4.25999832
v -5.95600033 -31.3599987 4.14399862
v -6.24000025 -29.3999977 4.25999832
v -6.24000025 -31.3599987 4.25999832
v -6.24000025 -29.3999977 4.25999832
v -5.95600033 -31.3599987 4.14399862
v -5.95600033 -29.3999977 4.14399862
v -5.84000015 -31.3599987 3.85999846
v -5.95600033 -29.3999977 4.14399862
v -5.95600033 -31.3599987 4.14399862
v -5.95600033 -29.3999977 4.14399862
v -5.84000015 -31.3599987 3.85999846
v -5.84000015 -29.3999977 3.8599987
v -5.95600033 -31.3599987 3.57599831
v -5.84000015 -29.3999977 3.8599987
v -5.84000015 -31.3599987 3.85999846
v -5.84000015 -29.3999977 3.8599987
v -5.95600033 -31.3599987 3.57599831
v -5.95600033 -29.3999977 3.57599854
v -6.24000025 -31.3599987 3.45999837
v -5.95600033 -29.3999977 3.57599854
v -5.95600033 -31.3599987 3.57599831
v -5.95600033 -29.3999977 3.57599854
v -6.24000025 -31.3599987 3.45999837
v -6.24000025 -29.3999977 3.45999837
v -6.52400017 -31.3599987 3.57599831
v -6.24000025 -29.3999977 3.45999837
v -6.24000025 -31.3599987 3.45999837
v -6.24000025 -29.3999977 3.45999837
v -6.52400017 -31.3599987 3.57599831
v -6.52400017 -29.3999977 3.57599854
v -6.52400017 -31.3599987 3.57599831
v -6.63999987 -29.3999977 3.8599987
v -6.52400017 -29.3999977 3.57599854
v -6.63999987 -29.3999977 3.8599987
v -6.52400017 -31.3599987 3.57599831
v -6.63999987 -31.3599987 3.85999846
v 21.4000015 8.51599884 8.39999962
v 7.20000029 10.8440018 -40.5999947
v 7.20000029 8.51600075 -40.5999947
v 7.20000029 10.8440018 -40.5999947
v 21.4000015 8.51599884 8.39999962
v 21.4000015 10.8439999 8.39999962
v 21.4000015 10.8439999 8.39999962
v 13.8840008 14.4440002 -45.2239952
v 7.20000029 10.8440018 -40.5999947
v 13.8840008 14.4440002 -45.2239952
v 21.4000015 10.8439999 8.39999962
v 33.5999985 14.4439983 8.39999962
v 33.5999985 14.4439983 8.39999962
v 28.4000015 12.1600008 -39.9999962
v 13.8840008 14.4440002 -45.2239952
v 28.4000015 12.1600008 -39.9999962
v 33.5999985 14.4439983 8.39999962
v 48.7999992 12.1599989 1.20000041
v 28.4000015 5.44000196 -39.9999962
v 33.5999985 3.15599942 8.39999962
v 13.8840008 3.15600204 -45.2239952
v 33.5999985 3.15599942 8.39999962
v 28.4000015 5.44000196 -39.9999962
v 48.7999992 5.44000006 1.20000005
v -14 8.89999962 0.0400003903
v -9.15999985 14.6000004 -15.9999981
v -9.15999985 8.90000057 -15.9999981
v -9.15999985 14.6000004 -15.9999981
v -14 8.89999962 0.0400003903
v -14 14.6000004 0.0400006361
v -14 8.89999962 0.0400003903
v -14 14.5999985 18
v -14 14.6000004 0.0400006361
v -14 14.5999985 18
v -14 8.89999962 0.0400003903
v -14 8.89999771 24.5999985
v -33.5999985 14.4439983 8.39999962
v -21.4000015 8.51599884 8.39999962
v -21.4000015 10.8439999 8.39999962
v -21.4000015 8.51599884 8.39999962
v -33.5999985 14.4439983 8.39999962
v -33.5999985 3.15599942 8.39999962
v -33.5999985 14.4439983 8.39999962
v -48.7999992 5.44000006 1.20000005
v -33.5999985 3.15599942 8.39999962
v -48.7999992 5.44000006 1.20000005
v -33.5999985 14.4439983 8.39999962
v -48.7999992 12.1599989 1.20000041
v -27.7999992 -16.948 27.1999969
v 38.8879967 -7.56800127 42.3199959
v -38.8879967 -7.56800127 42.3199959
v 38.8879967 -7.56800127 42.3199959
v -27.7999992 -16.948 27.1999969
v 27.7999992 -16.948 27.1999969
v -27.7999992 -16.948 27.1999969
v 33.5999985 -16.948 8.79999828
v 27.7999992 -16.948 27.1999969
v 33.5999985 -16.948 8.79999828
v -27.7999992 -16.948 27.1999969
v -33.5999985 -16.948 8.79999828
v -18.3999996 -16.947998 -6.20000076
v 33.5999985 -16.948 8.79999828
v -33.5999985 -16.948 8.79999828
v 33.5999985 -16.948 8.79999828
v -18.3999996 -16.947998 -6.20000076
v 18.3999996 -16.947998 -6.20000076
v -13.8800011 -16.947998 -30.7999973
v 18.3999996 -16.947998 -6.20000076
v -18.3999996 -16.947998 -6.20000076
v 18.3999996 -16.947998 -6.20000076
v -13.8800011 -16.947998 -30.7999973
v 13.8800011 -16.947998 -30.7999973
v -4.80000019 -16.9479961 -51.9999924
v 13.8800011 -16.947998 -30.7999973
v -13.8800011 -16.947998 -30.7999973
v 13.8800011 -16.947998 -30.7999973
v -4.80000019 -16.9479961 -51.9999924
v 4.80000019 -16.9479961 -51.9999924
v 1.31999993 -28.9199982 15.5999975
v 4.00000048 -30.3599987 16.3199978
v 4.00000048 -28.9199982 16.3199978
v 4.00000048 -30.3599987 16.3199978
v 1.31999993 -28.9199982 15.5999975
v 1.31999993 -30.3599987 15.5999975
v 1.9920001 -33.5479965 14.435998
v 4.00000048 -30.3599987 16.3199978
v 1.31999993 -30.3599987 15.5999975
v 4.00000048 -30.3599987 16.3199978
v 1.9920001 -33.5479965 14.435998
v 4.00000048 -33.5479965 14.975997
v -0.640000045 -28.9199982 13.6399975
v 1.31999993 -30.3599987 15.5999975
v 1.31999993 -28.9199982 15.5999975
v 1.31999993 -30.3599987 15.5999975
v -0.640000045 -28.9199982 13.6399975
v -0.640000045 -30.3599987 13.6399975
v 0.524000049 -33.5479965 12.9679985
v 1.31999993 -30.3599987 15.5999975
v -0.640000045 -30.3599987 13.6399975
v 1.31999993 -30.3599987 15.5999975
v 0.524000049 -33.5479965 12.9679985
v 1.9920001 -33.5479965 14.435998
v -1.36000013 -28.9199982 10.9599981
v -0.640000045 -30.3599987 13.6399975
v -0.640000045 -28.9199982 13.6399975
v -0.640000045 -30.3599987 13.6399975
v -1.36000013 -28.9199982 10.9599981
v -1.36000013 -30.3599987 10.9599981
v -0.0159999989 -33.5479965 10.9599981
v -0.640000045 -30.3599987 13.6399975
v -1.36000013 -30.3599987 10.9599981
v -0.640000045 -30.3599987 13.6399975
v -0.0159999989 -33.5479965 10.9599981
v 0.524000049 -33.5479965 12.9679985
v -0.640000045 -28.9199982 8.27999783
v -1.36000013 -30.3599987 10.9599981
v -1.36000013 -28.9199982 10.9599981
v -1.36000013 -30.3599987 10.9599981
v -0.640000045 -28.9199982 8.27999783
v -0.640000045 -30.3599987 8.27999783
v 0.524000049 -33.5479965 8.95199776
v -1.36000013 -30.3599987 10.9599981
v -0.640000045 -30.3599987 8.27999783
v -1.36000013 -30.3599987 10.9599981
v 0.524000049 -33.5479965 8.95199776
v -0.0159999989 -33.5479965 10.9599981
v 1.31999993 -28.9199982 6.31999826
v -0.640000045 -30.3599987 8.27999783
v -0.640000045 -28.9199982 8.27999783
v -0.640000045 -30.3599987 8.27999783
v 1.31999993 -28.9199982 6.31999826
v 1.31999993 -30.3599987 6.31999826
v 1.9920001 -33.5479965 7.4839983
v -0.640000045 -30.3599987 8.27999783
v 1.31999993 -30.3599987 6.31999826
v -0.640000045 -30.3599987 8.27999783
v 1.9920001 -33.5479965 7.4839983
v 0.524000049 -33.5479965 8.95199776
v 4.00000048 -28.9199982 5.59999847
v 1.31999993 -30.3599987 6.31999826
v 1.31999993 -28.9199982 6.31999826
v 1.31999993 -30.3599987 6.31999826
v 4.00000048 -28.9199982 5.59999847
v 4.00000048 -30.3599987 5.59999847
v 4.00000048 -33.5479965 6.94399786
v 1.31999993 -30.3599987 6.31999826
v 4.00000048 -30.3599987 5.59999847
v 1.31999993 -30.3599987 6.31999826
v 4.00000048 -33.5479965 6.94399786
v 1.9920001 -33.5479965 7.4839983
v 6.67999983 -28.9199982 6.31999826
v 4.00000048 -30.3599987 5.59999847
v 4.00000048 -28.9199982 5.59999847
v 4.00000048 -30.3599987 5.59999847
v 6.67999983 -28.9199982 6.31999826
v 6.67999983 -30.3599987 6.31999826
v 6.0079999 -33.5479965 7.4839983
v 4.00000048 -30.3599987 5.59999847
v 6.67999983 -30.3599987 6.31999826
v 4.00000048 -30.3599987 5.59999847
v 6.0079999 -33.5479965 7.4839983
v 4.00000048 -33.5479965 6.94399786
v 8.64000034 -28.9199982 8.27999783
v 6.67999983 -30.3599987 6.31999826
v 6.67999983 -28.9199982 6.31999826
v 6.67999983 -30.3599987 6.31999826
v 8.64000034 -28.9199982 8.27999783
v 8.64000034 -30.3599987 8.27999783
v 7.47600031 -33.5479965 8.95199776
v 6.67999983 -30.3599987 6.31999826
v 8.64000034 -30.3599987 8.27999783
v 6.67999983 -30.3599987 6.31999826
v 7.47600031 -33.5479965 8.95199776
v 6.0079999 -33.5479965 7.4839983
v 9.35999966 -28.9199982 10.9599981
v 8.64000034 -30.3599987 8.27999783
v 8.64000034 -28.9199982 8.27999783
v 8.64000034 -30.3599987 8.27999783
v 9.35999966 -28.9199982 10.9599981
v 9.35999966 -30.3599987 10.9599981
v 8.01599979 -33.5479965 10.9599981
v 8.64000034 -30.3599987 8.27999783
v 9.35999966 -30.3599987 10.9599981
v 8.64000034 -30.3599987 8.27999783
v 8.01599979 -33.5479965 10.9599981
v 7.47600031 -33.5479965 8.95199776
v 8.64000034 -28.9199982 13.6399975
v 9.35999966 -30.3599987 10.9599981
v 9.35999966 -28.9199982 10.9599981
v 9.35999966 -30.3599987 10.9599981
v 8.64000034 -28.9199982 13.6399975
v 8.64000034 -30.3599987 13.6399975
v 7.47600031 -33.5479965 12.9679985
v 9.35999966 -30.3599987 10.9599981
v 8.64000034 -30.3599987 13.6399975
v 9.35999966 -30.3599987 10.9599981
v 7.47600031 -33.5479965 12.9679985
v 8.01599979 -33.5479965 10.9599981
v 6.67999983 -28.9199982 15.5999975
v 8.64000034 -30.3599987 13.6399975
v 8.64000034 -28.9199982 13.6399975
v 8.64000034 -30.3599987 13.6399975
v 6.67999983 -28.9199982 15.5999975
v 6.67999983 -30.3599987 15.5999975
v 6.0079999 -33.5479965 14.435998
v 8.64000034 -30.3599987 13.6399975
v 6.67999983 -30.3599987 15.5999975
v 8.64000034 -30.3599987 13.6399975
v 6.0079999 -33.5479965 14.435998
v 7.47600031 -33.5479965 12.9679985
v 4.00000048 -28.9199982 16.3199978
v 6.67999983 -30.3599987 15.5999975
v 6.67999983 -28.9199982 15.5999975
v 6.67999983 -30.3599987 15.5999975
v 4.00000048 -28.9199982 16.3199978
v 4.00000048 -30.3599987 16.3199978
v 4.00000048 -33.5479965 14.975997
v 6.67999983 -30.3599987 15.5999975
v 4.00000048 -30.3599987 16.3199978
v 6.67999983 -30.3599987 15.5999975
v 4.00000048 -33.5479965 14.975997
v 6.0079999 -33.5479965 14.435998
v 0 -20.9999962 -17.3999996
v -13.6800003 -29.3999977 0.107998706
v -22.7999992 -20.9999981 -5.40000105
v -13.6800003 -29.3999977 0.107998706
v 0 -20.9999962 -17.3999996
v 0 -29.3999977 -7.09200096
v 0 -20.9999962 -17.3999996
v 13.6800003 -29.3999977 0.107998706
v 0 -29.3999977 -7.09200096
v 13.6800003 -29.3999977 0.107998706
v 0 -20.9999962 -17.3999996
v 22.7999992 -20.9999981 -5.40000105
v -18.9160004 -5.2200017 36.4279976
v -9.80800056 1.02799785 46.1559982
v -17.1000004 3.8279984 33.567997
v -9.80800056 1.02799785 46.1559982
v -18.9160004 -5.2200017 36.4279976
v -11.8359995 -10.6120024 48.6959953
v -48.4000015 -7.56799984 9.33199883
v -27.7999992 -16.948 27.1999969
v -38.8879967 -7.56800127 42.3199959
v -27.7999992 -16.948 27.1999969
v -48.4000015 -7.56799984 9.33199883
v -33.5999985 -16.948 8.79999828
v -32.8759995 -7.56799889 -6.75599957
v -33.5999985 -16.948 8.79999828
v -48.4000015 -7.56799984 9.33199883
v -33.5999985 -16.948 8.79999828
v -32.8759995 -7.56799889 -6.75599957
v -18.3999996 -16.947998 -6.20000076
v -26.3320007 -7.56799841 -33.0200005
v -18.3999996 -16.947998 -6.20000076
v -32.8759995 -7.56799889 -6.75599957
v -18.3999996 -16.947998 -6.20000076
v -26.3320007 -7.56799841 -33.0200005
v -13.8800011 -16.947998 -30.7999973
v -17.8239994 -7.56799746 -50.3559952
v -13.8800011 -16.947998 -30.7999973
v -26.3320007 -7.56799841 -33.0200005
v -13.8800011 -16.947998 -30.7999973
v -17.8239994 -7.56799746 -50.3559952
v -4.80000019 -16.9479961 -51.9999924
v -16.6919994 -19.4000015 21.7999973
v -22.7999992 -5.87600136 42.3999977
v -21.8840008 -7.90400076 21.5079975
v -22.7999992 -5.87600136 42.3999977
v -16.6919994 -19.4000015 21.7999973
v -13.012001 -13.2000017 51.9999924
v -16.6919994 -19.4000015 21.7999973
v 13.012001 -13.2000017 51.9999924
v -13.012001 -13.2000017 51.9999924
v 13.012001 -13.2000017 51.9999924
v -16.6919994 -19.4000015 21.7999973
v 16.6919994 -19.4000015 21.7999973
v 16.6919994 -19.4000015 21.7999973
v 22.7999992 -5.87600136 42.3999977
v 13.012001 -13.2000017 51.9999924
v 22.7999992 -5.87600136 42.3999977
v 16.6919994 -19.4000015 21.7999973
v 22.7999992 -7.87599993 18.3999977
v 14.724 -16.3119984 20.9279976
v 20.7600002 -3.42000175 42.1959991
v 20.5839996 -5.20800066 18.1759987
v 20.7600002 -3.42000175 42.1959991
v 14.724 -16.3119984 20.9279976
v 11.6639996 -10.0960026 51.1999931
v -14.724 -16.3119984 20.9279976
v 11.6639996 -10.0960026 51.1999931
v 14.724 -16.3119984 20.9279976
v 11.6639996 -10.0960026 51.1999931
v -14.724 -16.3119984 20.9279976
v -11.6639996 -10.0960026 51.1999931
v -14.724 -16.3119984 20.9279976
v -20.7600002 -3.42000175 42.1959991
v -11.6639996 -10.0960026 51.1999931
v -20.7600002 -3.42000175 42.1959991
v -14.724 -16.3119984 20.9279976
v -19.6720009 -5.23600054 21.2839985
v -9.15999985 8.90000057 -15.9999981
v 9.15999985 14.6000004 -15.9999981
v 9.15999985 8.90000057 -15.9999981
v 9.15999985 14.6000004 -15.9999981
v -9.15999985 8.90000057 -15.9999981
v -9.15999985 14.6000004 -15.9999981
v 4.80000019 -16.9479961 -51.9999924
v 17.8239994 -0.431997776 -50.3559952
v 17.8239994 -7.56799746 -50.3559952
v 17.8239994 -0.431997776 -50.3559952
v 4.80000019 -16.9479961 -51.9999924
v 4.80000019 8.94800186 -51.9999924
v 4.80000019 -16.9479961 -51.9999924
v -4.80000019 8.94800186 -51.9999924
v 4.80000019 8.94800186 -51.9999924
v -4.80000019 8.94800186 -51.9999924
v 4.80000019 -16.9479961 -51.9999924
v -4.80000019 -16.9479961 -51.9999924
v -17.8239994 -7.56799746 -50.3559952
v -4.80000019 8.94800186 -51.9999924
v -4.80000019 -16.9479961 -51.9999924
v -4.80000019 8.94800186 -51.9999924
v -17.8239994 -7.56799746 -50.3559952
v -17.8239994 -0.431997776 -50.3559952
v 22.4799995 -20.9999981 13.6399975
v 13.6800003 -29.3999977 0.107998706
v 22.7999992 -20.9999981 -5.40000105
v 13.6800003 -29.3999977 0.107998706
v 22.4799995 -20.9999981 13.6399975
v 13.1199999 -29.4000015 15.079998
v 13.1199999 -29.4000015 15.079998
v -13.6800003 -29.3999977 0.107998706
v 13.6800003 -29.3999977 0.107998706
v 13.6800003 -29.3999977 0.107998706
v -13.6800003 -29.3999977 0.107998706
v 0 -29.3999977 -7.09200096
v 20.7999992 -21 21.3599968
v 13.1199999 -29.4000015 15.079998
v 22.4799995 -20.9999981 13.6399975
v 13.1199999 -29.4000015 15.079998
v 20.7999992 -21 21.3599968
v 11.5600004 -29.4000015 19.0399971
v 11.5600004 -29.4000015 19.0399971
v -13.1199999 -29.4000015 15.079998
v 13.1199999 -29.4000015 15.079998
v -13.6800003 -29.3999977 0.107998706
v 13.1199999 -29.4000015 15.079998
v -13.1199999 -29.4000015 15.079998
v -22.4799995 -20.9999981 13.6399975
v -13.6800003 -29.3999977 0.107998706
v -13.1199999 -29.4000015 15.079998
v -13.6800003 -29.3999977 0.107998706
v -22.4799995 -20.9999981 13.6399975
v -22.7999992 -20.9999981 -5.40000105
v 11.5600004 -29.4000015 19.0399971
v 20.7999992 -21 21.3599968
v 17.5200005 -21 25.9999962
v 17.5200005 -21 25.9999962
v 8.11999989 -29.4000015 21.3999977
v 11.5600004 -29.4000015 19.0399971
v -8.11999989 -29.4000015 21.3999977
v 11.5600004 -29.4000015 19.0399971
v 8.11999989 -29.4000015 21.3999977
v 11.5600004 -29.4000015 19.0399971
v -8.11999989 -29.4000015 21.3999977
v -11.5600004 -29.4000015 19.0399971
v -13.1199999 -29.4000015 15.079998
v 11.5600004 -29.4000015 19.0399971
v -11.5600004 -29.4000015 19.0399971
v -20.7999992 -21 21.3599968
v -13.1199999 -29.4000015 15.079998
v -11.5600004 -29.4000015 19.0399971
v -13.1199999 -29.4000015 15.079998
v -20.7999992 -21 21.3599968
v -22.4799995 -20.9999981 13.6399975
v 8.11999989 -29.4000015 21.3999977
v 17.5200005 -21 25.9999962
v 11.8400002 -21 29.8399963
v 5.03999996 -21 31.3999977
v 8.11999989 -29.4000015 21.3999977
v 11.8400002 -21 29.8399963
v 8.11999989 -29.4000015 21.3999977
v 5.03999996 -21 31.3999977
v 4.13999987 -29.4000015 22.2799969
v -4.13999987 -29.4000015 22.2799969
v 8.11999989 -29.4000015 21.3999977
v 4.13999987 -29.4000015 22.2799969
v 8.11999989 -29.4000015 21.3999977
v -4.13999987 -29.4000015 22.2799969
v -8.11999989 -29.4000015 21.3999977
v -5.03999996 -21 31.1599979
v -8.11999989 -29.4000015 21.3999977
v -4.13999987 -29.4000015 22.2799969
v -8.11999989 -29.4000015 21.3999977
v -5.03999996 -21 31.1599979
v -11.8400002 -21 29.8399963
v -17.5200005 -21 25.9999962
v -8.11999989 -29.4000015 21.3999977
v -11.8400002 -21 29.8399963
v -8.11999989 -29.4000015 21.3999977
v -17.5200005 -21 25.9999962
v -11.5600004 -29.4000015 19.0399971
v -11.5600004 -29.4000015 19.0399971
v -17.5200005 -21 25.9999962
v -20.7999992 -21 21.3599968
v 5.03999996 -21 31.3999977
v -4.13999987 -29.4000015 22.2799969
v 4.13999987 -29.4000015 22.2799969
v -4.13999987 -29.4000015 22.2799969
v 5.03999996 -21 31.3999977
v -5.03999996 -21 31.1599979
v 22.7999992 -7.87599993 18.3999977
v 14.724 -16.3119984 20.9279976
v 20.5839996 -5.20800066 18.1759987
v 14.724 -16.3119984 20.9279976
v 22.7999992 -7.87599993 18.3999977
v 16.6919994 -19.4000015 21.7999973
v 16.6919994 -19.4000015 21.7999973
v -14.724 -16.3119984 20.9279976
v 14.724 -16.3119984 20.9279976
v -14.724 -16.3119984 20.9279976
v 16.6919994 -19.4000015 21.7999973
v -16.6919994 -19.4000015 21.7999973
v -21.8840008 -7.90400076 21.5079975
v -14.724 -16.3119984 20.9279976
v -16.6919994 -19.4000015 21.7999973
v -14.724 -16.3119984 20.9279976
v -21.8840008 -7.90400076 21.5079975
v -19.6720009 -5.23600054 21.2839985
v -22.7999992 -5.87600136 42.3999977
v -11.6639996 -10.0960026 51.1999931
v -20.7600002 -3.42000175 42.1959991
v -11.6639996 -10.0960026 51.1999931
v -22.7999992 -5.87600136 42.3999977
v -13.012001 -13.2000017 51.9999924
v -13.012001 -13.2000017 51.9999924
v 11.6639996 -10.0960026 51.1999931
v -11.6639996 -10.0960026 51.1999931
v 11.6639996 -10.0960026 51.1999931
v -13.012001 -13.2000017 51.9999924
v 13.012001 -13.2000017 51.9999924
v 22.7999992 -5.87600136 42.3999977
v 11.6639996 -10.0960026 51.1999931
v 13.012001 -13.2000017 51.9999924
v 11.6639996 -10.0960026 51.1999931
v 22.7999992 -5.87600136 42.3999977
v 20.7600002 -3.42000175 42.1959991
v 7.20000029 10.8440018 -40.5999947
v 13.8840008 3.15600204 -45.2239952
v 7.20000029 8.51600075 -40.5999947
v 13.8840008 3.15600204 -45.2239952
v 7.20000029 10.8440018 -40.5999947
v 13.8840008 14.4440002 -45.2239952
v 28.4000015 12.1600008 -39.9999962
v 13.8840008 3.15600204 -45.2239952
v 13.8840008 14.4440002 -45.2239952
v 13.8840008 3.15600204 -45.2239952
v 28.4000015 12.1600008 -39.9999962
v 28.4000015 5.44000196 -39.9999962
v 48.7999992 12.1599989 1.20000041
v 28.4000015 5.44000196 -39.9999962
v 28.4000015 12.1600008 -39.9999962
v 28.4000015 5.44000196 -39.9999962
v 48.7999992 12.1599989 1.20000041
v 48.7999992 5.44000006 1.20000005
v -7.20000029 10.8440018 -40.5999947
v -21.4000015 8.51599884 8.39999962
v -7.20000029 8.51600075 -40.5999947
v -21.4000015 8.51599884 8.39999962
v -7.20000029 10.8440018 -40.5999947
v -21.4000015 10.8439999 8.39999962
v -13.8840008 14.4440002 -45.2239952
v -21.4000015 10.8439999 8.39999962
v -7.20000029 10.8440018 -40.5999947
v -21.4000015 10.8439999 8.39999962
v -13.8840008 14.4440002 -45.2239952
v -33.5999985 14.4439983 8.39999962
v -28.4000015 12.1600008 -39.9999962
v -33.5999985 14.4439983 8.39999962
v -13.8840008 14.4440002 -45.2239952
v -33.5999985 14.4439983 8.39999962
v -28.4000015 12.1600008 -39.9999962
v -48.7999992 12.1599989 1.20000041
v -33.5999985 3.15599942 8.39999962
v -28.4000015 5.44000196 -39.9999962
v -13.8840008 3.15600204 -45.2239952
v -28.4000015 5.44000196 -39.9999962
v -33.5999985 3.15599942 8.39999962
v -48.7999992 5.44000006 1.20000005
v 18.9160004 -5.2200017 36.4279976
v 9.80800056 1.02799785 46.1559982
v 11.8359995 -10.6120024 48.6959953
v 9.80800056 1.02799785 46.1559982
v 18.9160004 -5.2200017 36.4279976
v 17.1000004 3.8279984 33.567997
v -11.8359995 -10.6120024 48.6959953
v 9.80800056 1.02799785 46.1559982
v -9.80800056 1.02799785 46.1559982
v 9.80800056 1.02799785 46.1559982
v -11.8359995 -10.6120024 48.6959953
v 11.8359995 -10.6120024 48.6959953
v 6.0079999 -33.5479965 7.4839983
v 1.9920001 -33.5479965 7.4839983
v 4.00000048 -33.5479965 6.94399786
v 7.47600031 -33.5479965 8.95199776
v 1.9920001 -33.5479965 7.4839983
v 6.0079999 -33.5479965 7.4839983
v 1.9920001 -33.5479965 7.4839983
v 7.47600031 -33.5479965 8.95199776
v 0.524000049 -33.5479965 8.95199776
v 8.01599979 -33.5479965 10.9599981
v 0.524000049 -33.5479965 8.95199776
v 7.47600031 -33.5479965 8.95199776
v 0.524000049 -33.5479965 8.95199776
v 8.01599979 -33.5479965 10.9599981
v -0.0159999989 -33.5479965 10.9599981
v 8.01599979 -33.5479965 10.9599981
v 0.524000049 -33.5479965 12.9679985
v -0.0159999989 -33.5479965 10.9599981
v 0.524000049 -33.5479965 12.9679985
v 8.01599979 -33.5479965 10.9599981
v 7.47600031 -33.5479965 12.9679985
v 7.47600031 -33.5479965 12.9679985
v 1.9920001 -33.5479965 14.435998
v 0.524000049 -33.5479965 12.9679985
v 1.9920001 -33.5479965 14.435998
v 7.47600031 -33.5479965 12.9679985
v 6.0079999 -33.5479965 14.435998
v 6.0079999 -33.5479965 14.435998
v 4.00000048 -33.5479965 14.975997
v 1.9920001 -33.5479965 14.435998
v -6.52400017 -31.3599987 4.14399862
v -6.63999987 -31.3599987 3.85999846
v -6.52400017 -31.3599987 3.57599831
v -6.52400017 -31.3599987 3.57599831
v -6.24000025 -31.3599987 4.25999832
v -6.52400017 -31.3599987 4.14399862
v -6.24000025 -31.3599987 4.25999832
v -6.52400017 -31.3599987 3.57599831
v -6.24000025 -31.3599987 3.45999837
v -5.95600033 -31.3599987 3.57599831
v -6.24000025 -31.3599987 4.25999832
v -6.24000025 -31.3599987 3.45999837
v -6.24000025 -31.3599987 4.25999832
v -5.95600033 -31.3599987 3.57599831
v -5.95600033 -31.3599987 4.14399862
v -5.95600033 -31.3599987 3.57599831
v -5.84000015 -31.3599987 3.85999846
v -5.95600033 -31.3599987 4.14399862
v -5.95600033 -34.3199959 5.47599792
v -5.84000015 -34.3199959 5.75999784
v -5.95600033 -34.3199959 6.04399824
v -6.24000025 -34.3199959 6.15999794
v -5.95600033 -34.3199959 5.47599792
v -5.95600033 -34.3199959 6.04399824
v -5.95600033 -34.3199959 5.47599792
v -6.24000025 -34.3199959 6.15999794
v -6.24000025 -34.3199959 5.35999823
v -6.24000025 -34.3199959 6.15999794
v -6.52400017 -34.3199959 5.47599792
v -6.24000025 -34.3199959 5.35999823
v -6.52400017 -34.3199959 5.47599792
v -6.24000025 -34.3199959 6.15999794
v -6.52400017 -34.3199959 6.04399824
v -6.52400017 -34.3199959 6.04399824
v -6.63999987 -34.3199959 5.75999784
v -6.52400017 -34.3199959 5.47599792
v -6.43599987 -40.7199974 13.1559973
v -6.32000065 -40.7199974 13.4399967
v -6.43599987 -40.7199974 13.7239981
v -6.43599987 -40.7199974 13.7239981
v -6.71999979 -40.7199974 13.0399981
v -6.43599987 -40.7199974 13.1559973
v -6.71999979 -40.7199974 13.0399981
v -6.43599987 -40.7199974 13.7239981
v -6.71999979 -40.7199974 13.8399963
v -7.00400019 -40.7199974 13.7239981
v -6.71999979 -40.7199974 13.0399981
v -6.71999979 -40.7199974 13.8399963
v -6.71999979 -40.7199974 13.0399981
v -7.00400019 -40.7199974 13.7239981
v -7.00400019 -40.7199974 13.1559973
v -7.00400019 -40.7199974 13.7239981
v -7.12000036 -40.7199974 13.4399967
v -7.00400019 -40.7199974 13.1559973

# 351 UV coordinates
vt 0.557500005 0.3741 0
vt 0.625699997 0.410600007 0
vt 0.625699997 0.383399993 0
vt 0.557500005 0.4199 0
vt 0.508099973 0.398099989 0
vt 0.508099973 0.388700008 0
vt 0.252499998 0.157900006 0
vt 0.241799995 0.119000003 0
vt 0.254700005 0.105400003 0
vt 0.240899995 0.156200007 0
vt 0.243200004 0.192599997 0
vt 0.231399998 0.189500004 0
vt 0.2324 0.100599997 0
vt 0.1734 0.118900001 0
vt 0.1734 0.100500003 0
vt 0.232299998 0.119000003 0
vt 0.174099997 0.156100005 0
vt 0.231399998 0.156200007 0
vt 0.221900001 0.189500004 0
vt 0.183400005 0.189400002 0
vt 0.874599993 0.4199 0
vt 0.907599986 0.388799995 0
vt 0.907599986 0.398200005 0
vt 0.874599993 0.374199986 0
vt 0.812099993 0.410600007 0
vt 0.812099993 0.383399993 0
vt 0.491699994 0.245100006 0
vt 0.435400009 0.2183 0
vt 0.476399988 0.218199998 0
vt 0.420300007 0.245299995 0
vt 0.0432999991 0.558899999 0
vt 0.0143999998 0.637199998 0
vt 0.0143999998 0.558899999 0
vt 0.0432999991 0.637199998 0
vt 0.0143999998 0.746900022 0
vt 0.0432999991 0.746900022 0
vt 0.0143999998 0.837499976 0
vt 0.0432999991 0.837499976 0
vt 0.0143999998 0.976700008 0
vt 0.0432999991 0.976700008 0
vt 0.42050001 0.917500019 0
vt 0.1052 0.888499975 0
vt 0.42050001 0.888599992 0
vt 0.1052 0.917400002 0
vt 0.150099993 0.989600003 0
vt 0.375499994 0.989700019 0
vt 0.074000001 0.134399995 0
vt 0.112999998 0.1787 0
vt 0.0929000005 0.1787 0
vt 0.131899998 0.134399995 0
vt 0.0645999983 0.0829999968 0
vt 0.141399994 0.0830999985 0
vt 0.0328000002 0.0516999997 0
vt 0.173199996 0.0518000014 0
vt 0.0450000018 0.0132999998 0
vt 0.1611 0.0132999998 0
vt 0.169100001 0.479400009 0
vt 0.200399995 0.563300014 0
vt 0.234599993 0.476099998 0
vt 0.137600005 0.551199973 0
vt 0.180700004 0.662999988 0
vt 0.110799998 0.657899976 0
vt 0.125799999 0.730199993 0
vt 0.0546000004 0.729300022 0
vt 0.142399997 0.806800008 0
vt 0.0812999979 0.86619997 0
vt 0.578000009 0.00529999984 0
vt 0.655099988 0.0219000001 0
vt 0.577899992 0.0315999985 0
vt 0.655200005 0.00549999997 0
vt 0.68720001 0.0055999998 0
vt 0.68720001 0.0219999999 0
vt 0.710200012 0.0219999999 0
vt 0.710200012 0.0055999998 0
vt 0.737999976 0.0220999997 0
vt 0.737999976 0.0057000001 0
vt 0.766099989 0.0220999997 0
vt 0.766099989 0.0057000001 0
vt 0.806999981 0.0221999995 0
vt 0.806999981 0.00579999993 0
vt 0.835200012 0.0221999995 0
vt 0.835300028 0.00579999993 0
vt 0.862999976 0.0222999994 0
vt 0.862999976 0.00579999993 0
vt 0.886099994 0.00590000022 0
vt 0.885999978 0.0222999994 0
vt 0.918099999 0.00590000022 0
vt 0.918099999 0.0222999994 0
vt 0.995299995 0.00600000005 0
vt 0.995199978 0.0322000012 0
vt 0.871500015 0.105599999 0
vt 0.975899994 0.0791999996 0
vt 0.976000011 0.105400003 0
vt 0.871500015 0.079400003 0
vt 0.767099977 0.105899997 0
vt 0.76700002 0.0797000006 0
vt 0.516200006 0.293500006 0
vt 0.548799992 0.302700013 0
vt 0.544099987 0.315899998 0
vt 0.51700002 0.291299999 0
vt 0.44749999 0.268999994 0
vt 0.44749999 0.266499996 0
vt 0.377900004 0.291099995 0
vt 0.378699988 0.29339999 0
vt 0.346100003 0.30250001 0
vt 0.350800008 0.315699995 0
vt 0.44749999 0.295399994 0
vt 0.370200008 0.327899992 0
vt 0.524600029 0.328000009 0
vt 0.622099996 0.551299989 0
vt 0.617299974 0.649600029 0
vt 0.604600012 0.647300005 0
vt 0.635999978 0.553799987 0
vt 0.364899993 0.649699986 0
vt 0.363599986 0.563799977 0
vt 0.377700001 0.647800028 0
vt 0.349700004 0.565900028 0
vt 0.0921000019 0.499300003 0
vt 0.0720999986 0.497999996 0
vt 0.0921000019 0.497999996 0
vt 0.0720999986 0.499300003 0
vt 0.0720999986 0.500500023 0
vt 0.0921000019 0.500500023 0
vt 0.0921000019 0.501800001 0
vt 0.0720999986 0.501800001 0
vt 0.0921000019 0.503000021 0
vt 0.0720999986 0.503000021 0
vt 0.0720999986 0.504199982 0
vt 0.0921000019 0.504199982 0
vt 0.0921000019 0.505500019 0
vt 0.0720999986 0.505500019 0
vt 0.0921000019 0.506699979 0
vt 0.0720999986 0.506699979 0
vt 0.0921000019 0.508000016 0
vt 0.0720999986 0.508000016 0
vt 0.0957000032 0.470499992 0
vt 0.0498000011 0.471799999 0
vt 0.0498000011 0.470499992 0
vt 0.0957000032 0.471799999 0
vt 0.0957000032 0.47299999 0
vt 0.0498000011 0.47299999 0
vt 0.0957000032 0.474299997 0
vt 0.0498000011 0.474299997 0
vt 0.0957000032 0.475499988 0
vt 0.0498000011 0.475499988 0
vt 0.0957000032 0.476700008 0
vt 0.0498000011 0.476700008 0
vt 0.0957000032 0.477999985 0
vt 0.0498000011 0.477999985 0
vt 0.0957000032 0.479200006 0
vt 0.0498000011 0.479200006 0
vt 0.0957000032 0.480500013 0
vt 0.0498000011 0.480500013 0
vt 0.0588000007 0.497900009 0
vt 0.0507999994 0.4991 0
vt 0.0507999994 0.497900009 0
vt 0.0588000007 0.4991 0
vt 0.0507999994 0.50029999 0
vt 0.0588000007 0.50029999 0
vt 0.0588000007 0.501600027 0
vt 0.0507999994 0.501600027 0
vt 0.0588000007 0.502799988 0
vt 0.0507999994 0.502799988 0
vt 0.0588000007 0.504100025 0
vt 0.0507999994 0.504100025 0
vt 0.0588000007 0.505299985 0
vt 0.0507999994 0.505299985 0
vt 0.0588000007 0.506600022 0
vt 0.0507999994 0.506600022 0
vt 0.0507999994 0.507799983 0
vt 0.0588000007 0.507799983 0
vt 0.688300014 0.506500006 0
vt 0.792400002 0.529600024 0
vt 0.793200016 0.524800003 0
vt 0.687399983 0.511300027 0
vt 0.794700027 0.547999978 0
vt 0.675999999 0.535300016 0
vt 0.771399975 0.570800006 0
vt 0.675400019 0.57069999 0
vt 0.812399983 0.425900012 0
vt 0.627200007 0.494599998 0
vt 0.857500017 0.470200002 0
vt 0.626100004 0.425799996 0
vt 0.150999993 0.157700002 0
vt 0.171900004 0.189400002 0
vt 0.160099998 0.192499995 0
vt 0.162599996 0.156100005 0
vt 0.161899999 0.118900001 0
vt 0.149000004 0.1052 0
vt 0.163499996 0.799799979 0
vt 0.432999998 0.871699989 0
vt 0.118699998 0.871699989 0
vt 0.388200015 0.799799979 0
vt 0.41170001 0.725399971 0
vt 0.140100002 0.725399971 0
vt 0.201499999 0.664799988 0
vt 0.350199997 0.664799988 0
vt 0.219799995 0.565299988 0
vt 0.331999987 0.565400004 0
vt 0.256599993 0.479600012 0
vt 0.295399994 0.479699999 0
vt 0.0326000005 0.252099991 0
vt 0.0449000001 0.254700005 0
vt 0.0412999988 0.25909999 0
vt 0.0364000015 0.247999996 0
vt 0.0454000011 0.237900004 0
vt 0.0518999994 0.242799997 0
vt 0.0247000009 0.243799999 0
vt 0.0291000009 0.2403 0
vt 0.0397000015 0.231800005 0
vt 0.0183000006 0.234200001 0
vt 0.0231999997 0.231399998 0
vt 0.0351000018 0.224800006 0
vt 0.0136000002 0.2236 0
vt 0.0188999996 0.221699998 0
vt 0.0318000019 0.217199996 0
vt 0.0107000005 0.212400004 0
vt 0.0163000003 0.211400002 0
vt 0.0296999998 0.209199995 0
vt 0.00970000029 0.200900003 0
vt 0.0153999999 0.200900003 0
vt 0.0289999992 0.200900003 0
vt 0.0107000005 0.189400002 0
vt 0.0163000003 0.190300003 0
vt 0.0296999998 0.192599997 0
vt 0.0136000002 0.178200006 0
vt 0.0188999996 0.180000007 0
vt 0.0318000019 0.184499994 0
vt 0.0183000006 0.167600006 0
vt 0.0231999997 0.170300007 0
vt 0.0351999998 0.176899999 0
vt 0.0247000009 0.158000007 0
vt 0.0291000009 0.161500007 0
vt 0.0397999994 0.170000002 0
vt 0.0324999988 0.149599999 0
vt 0.0364000015 0.153699994 0
vt 0.0454999991 0.163900003 0
vt 0.0412000008 0.1426 0
vt 0.0449000001 0.147100002 0
vt 0.0520000011 0.158899993 0
vt 0.870700002 0.121299997 0
vt 0.810800016 0.199699998 0
vt 0.770900011 0.159899995 0
vt 0.870700002 0.176499993 0
vt 0.930499971 0.199699998 0
vt 0.970399976 0.159899995 0
vt 0.394899994 0.205300003 0
vt 0.424899995 0.211799994 0
vt 0.397100002 0.225400001 0
vt 0.420599997 0.186900005 0
vt 0.422199994 0.552900016 0
vt 0.382099986 0.647700012 0
vt 0.372099996 0.56309998 0
vt 0.437400013 0.677900016 0
vt 0.542900026 0.677600026 0
vt 0.557600021 0.552600026 0
vt 0.598100007 0.647199988 0
vt 0.612200022 0.550599992 0
vt 0.458999991 0.506200016 0
vt 0.478799999 0.45660001 0
vt 0.485900015 0.506399989 0
vt 0.452600002 0.441700011 0
vt 0.397599995 0.506299973 0
vt 0.403899997 0.441799998 0
vt 0.377700001 0.456699997 0
vt 0.372900009 0.50029999 0
vt 0.183400005 0.214399993 0
vt 0.221900001 0.202500001 0
vt 0.221900001 0.214499995 0
vt 0.183400005 0.202399999 0
vt 0.203999996 0.452399999 0
vt 0.255699992 0.384299994 0
vt 0.256399989 0.413199991 0
vt 0.2016 0.34740001 0
vt 0.162699997 0.34830001 0
vt 0.165099993 0.453299999 0
vt 0.111000001 0.416500002 0
vt 0.110399999 0.387600005 0
vt 0.9727 0.273900002 0
vt 0.926900029 0.213599995 0
vt 0.979099989 0.195800006 0
vt 0.922399998 0.273400009 0
vt 0.814499974 0.212799996 0
vt 0.870899975 0.184 0
vt 0.962499976 0.306800008 0
vt 0.915799975 0.289000005 0
vt 0.818400025 0.273299992 0
vt 0.76819998 0.273099989 0
vt 0.762300014 0.194800004 0
vt 0.9472 0.326700002 0
vt 0.9023 0.298400015 0
vt 0.838400006 0.298400015 0
vt 0.824899971 0.288899988 0
vt 0.777999997 0.306199998 0
vt 0.921999991 0.343300015 0
vt 0.892199993 0.351599991 0
vt 0.886699975 0.301899999 0
vt 0.853999972 0.301899999 0
vt 0.84799999 0.350199997 0
vt 0.818300009 0.342900008 0
vt 0.793200016 0.326200008 0
vt 0.520099998 0.481299996 0
vt 0.488200009 0.517799973 0
vt 0.510699987 0.470800012 0
vt 0.496499985 0.530600011 0
vt 0.368699998 0.520799994 0
vt 0.361099988 0.533999979 0
vt 0.337500006 0.488700002 0
vt 0.345800012 0.477299988 0
vt 0.328900009 0.454299986 0
vt 0.381599993 0.425500005 0
vt 0.337500006 0.463999987 0
vt 0.376100004 0.412600011 0
vt 0.476200014 0.425000012 0
vt 0.481599987 0.412 0
vt 0.529200017 0.453299999 0
vt 0.520699978 0.463099986 0
vt 0.431100011 0.186900005 0
vt 0.476399988 0.211700007 0
vt 0.435400009 0.211799994 0
vt 0.480500013 0.186800003 0
vt 0.0711999983 0.187099993 0
vt 0.0557000004 0.187099993 0
vt 0.0634000003 0.185000002 0
vt 0.0768999979 0.1928 0
vt 0.0500000007 0.1928 0
vt 0.0790000036 0.200499997 0
vt 0.0478999987 0.200499997 0
vt 0.0500000007 0.208299994 0
vt 0.0768999979 0.208299994 0
vt 0.0557000004 0.214000002 0
vt 0.0711999983 0.214000002 0
vt 0.0634000003 0.216100007 0
vt 0.060899999 0.500699997 0
vt 0.0617999993 0.501600027 0
vt 0.0617999993 0.502799988 0
vt 0.059700001 0.500699997 0
vt 0.060899999 0.503700018 0
vt 0.059700001 0.503700018 0
vt 0.0930000022 0.503899992 0
vt 0.0930000022 0.500899971 0
vt 0.0942000002 0.503899992 0
vt 0.0951000005 0.503000021 0
vt 0.0942000002 0.500899971 0
vt 0.0951000005 0.501800001 0
vt 0.0966000035 0.476399988 0
vt 0.0978000015 0.476399988 0
vt 0.0966000035 0.473399997 0
vt 0.0978000015 0.473399997 0
vt 0.0987000018 0.475499988 0
vt 0.0987000018 0.474299997 0

# 276 vertex normals
vn 0.219407544 -4.26462812e-08 0.975633323
vn 0.789169133 -2.68464806e-08 0.614175856
vn 0.999973357 -3.19084564e-10 0.00729980366
vn 0 -4.37113883e-08 1
vn 0.995265186 4.24859703e-09 -0.097196579
vn 1 0 0
vn 0.980921566 8.49767812e-09 -0.19440423
vn 0.957362652 1.26277229e-08 -0.288888633
vn 0 0.756823003 0.653619885
vn 0 0.887193799 0.461396873
vn 0 0.973023593 0.230705634
vn 0 1 4.37113883e-08
vn 0.295301378 4.17620427e-08 -0.955404222
vn 0.568903267 3.59484424e-08 -0.822404444
vn -0.0399999917 4.36764047e-08 -0.999199688
vn -0.665604353 3.26220189e-08 -0.74630475
vn -0.999973357 -3.19084564e-10 0.00729980366
vn -0.789169133 -2.68464806e-08 0.614175856
vn 0 0.976147056 0.2171105
vn -0.897702873 1.92592928e-08 -0.440601289
vn -0.926533043 1.64448064e-08 -0.376213312
vn -0.950870037 1.35326168e-08 -0.309590191
vn -0.914367437 1.76981079e-08 -0.404885501
vn -0.828215182 2.4496309e-08 -0.560410202
vn -0.907387853 1.83716455e-08 -0.420294255
vn -0.998594522 2.3166904e-09 -0.0529997051
vn -0.960845649 -1.21117374e-08 0.277084261
vn 0 0.486220151 0.873836339
vn 0 0.849757493 0.527173698
vn 0.926533043 1.64448064e-08 -0.376213312
vn 0.897702873 1.92592928e-08 -0.440601289
vn 0.950870037 1.35326168e-08 -0.309590191
vn 0.914367437 1.76981079e-08 -0.404885501
vn 0.828215182 2.4496309e-08 -0.560410202
vn 0.907387853 1.83716455e-08 -0.420294255
vn 0.998594522 2.3166904e-09 -0.0529997051
vn 0.960845649 -1.21117374e-08 0.277084261
vn 0.567534804 -0.781147718 -0.260215968
vn 0.575211227 -0.790615201 -0.20990409
vn 0.586408854 -0.770111442 -0.251103789
vn 0.558190107 -0.811985552 -0.170597002
vn 0.537678242 -0.807767212 -0.241690233
vn 0.502628028 -0.784543693 -0.363120228
vn 0.516111195 -0.812417507 -0.271305919
vn 0.531701446 -0.845202148 -0.0541001707
vn 0.518579841 -0.840567291 0.156593874
vn 0.513322413 -0.845336735 0.148006409
vn 0.575211227 0.790615201 -0.209904015
vn 0.567534864 0.781147838 -0.260215908
vn 0.586408854 0.770111442 -0.251103699
vn 0.558190107 0.811985552 -0.170596957
vn 0.537678242 0.807767212 -0.241690159
vn 0.502628028 0.784543693 -0.363120168
vn 0.516111195 0.812417567 -0.271305799
vn 0.531701446 0.845202148 -0.0541000962
vn 0.518579841 0.840567231 0.156593934
vn 0.513322413 0.845336735 0.148006469
vn -0.567534864 0.781147838 -0.260215908
vn -0.575211227 0.790615201 -0.209904015
vn -0.586408854 0.770111442 -0.251103699
vn -0.558190107 0.811985552 -0.170596957
vn -0.537678242 0.807767212 -0.241690159
vn -0.502628028 0.784543693 -0.363120168
vn -0.516111195 0.812417567 -0.271305799
vn -0.531701446 0.845202148 -0.0541000962
vn -0.518579841 0.840567231 0.156593934
vn -0.513322413 0.845336735 0.148006469
vn -0.999858856 -7.34320937e-10 0.0167993065
vn -0.9933303 -5.04007502e-09 0.115303487
vn -0.915199935 -1.76156831e-08 0.402999908
vn -0.74181056 -2.93132683e-08 0.670609474
vn -0.655014396 -3.30290426e-08 0.755616426
vn -0.444892138 -3.91472241e-08 0.895584166
vn -0.319495916 -4.14203711e-08 0.947587669
vn -0.13539882 -4.33088587e-08 0.990791142
vn -0.0796021447 -4.35726726e-08 0.996826708
vn 0.059097182 -4.36349943e-08 0.998252273
vn 0.142093301 -4.32678569e-08 0.989853263
vn 0.340899915 -4.10930561e-08 0.940099657
vn 0.454797477 -3.89291372e-08 0.89059484
vn 0.699718475 -3.12282324e-08 0.714418709
vn 0.885849237 -2.02809165e-08 0.463973314
vn 0.940346956 -1.48713548e-08 0.340216935
vn 0.988987625 -6.4692034e-09 0.147998124
vn 0.996599317 -3.60181529e-09 0.0823999271
vn 0.999858856 -7.34320937e-10 0.0167993065
vn 0.172792673 4.30538876e-08 -0.984958172
vn 0.465717703 3.86816623e-08 -0.884933352
vn -0.172792673 4.30538876e-08 -0.984958172
vn -0.465717703 3.86816623e-08 -0.884933352
vn 0.705311775 -0.461607665 -0.538008988
vn 0.9802019 8.6548706e-09 -0.198000357
vn 0.66327697 3.27124567e-08 -0.748373926
vn 0 -0.365296513 -0.930891156
vn 0 4.37113883e-08 -1
vn -0.66327697 3.27124567e-08 -0.748373926
vn -0.705311775 -0.461607665 -0.538008988
vn -0.9802019 8.6548706e-09 -0.198000357
vn 0 -0.916244507 -0.400619537
vn -0.189300552 -0.913702548 -0.359601051
vn 0.189300552 -0.913702548 -0.359601051
vn 0.770341039 0.635433793 -0.0529027842
vn 0.770336926 0.635430396 -0.0530025028
vn 0.770381689 0.635384798 -0.052898705
vn -0.769933522 0.631027341 -0.09490408
vn -0.76960963 0.631407797 -0.0950011387
vn -0.770297885 0.630598247 -0.0947997198
vn -0.707106829 -3.09086126e-08 0.70710665
vn -0.925769746 -1.65267302e-08 0.37808758
vn 0.489601105 -0.582201242 0.649101317
vn 0.798328936 -2.63239457e-08 0.602221727
vn 0.965418458 -0.260704935 -1.13957741e-08
vn 0.707106829 3.09086126e-08 -0.70710665
vn 0.134894565 4.33118679e-08 -0.990859985
vn -0.134894565 4.33118679e-08 -0.990859985
vn -0.602221787 3.48960612e-08 -0.798328757
vn -0.798328936 2.63239457e-08 -0.602221727
vn -0.925769746 1.65267302e-08 -0.37808758
vn -0.134894565 -4.33118679e-08 0.990859985
vn 0.134894565 -4.33118679e-08 0.990859985
vn 0.41039145 -0.731884658 0.543988585
vn 0.933240712 -0.336014599 0.127105519
vn 0.990859866 5.89642646e-09 -0.13489452
vn 0.798328936 2.63239457e-08 -0.602221727
vn 0.602221787 3.48960612e-08 -0.798328757
vn -0.798328936 -2.63239457e-08 0.602221727
vn -0.602221787 -3.48960612e-08 0.798328757
vn -0.707106829 3.09086126e-08 -0.70710665
vn -0.960494697 -1.21648096e-08 0.278298408
vn -0.899670899 0.350188643 0.260691553
vn -0.650282502 0.73368001 0.197094664
vn -0.176407278 0.98284024 0.0539022535
vn 0.00589973666 0.999955237 -0.00739962375
vn 0.149399027 0.986793339 -0.0625995398
vn 0.120600566 0.990904391 -0.059700232
vn 0.149399027 -0.986793339 -0.0625996292
vn 0.178008437 -0.981846392 -0.0655031279
vn 0.120600566 -0.990904391 -0.059700314
vn -0.989284873 6.38176401e-09 -0.145997733
vn -0.957362652 1.26277229e-08 -0.288888633
vn -1 0 0
vn -0.219407544 -4.26462812e-08 0.975633323
vn 0 -0.961701095 0.274100274
vn 0 -0.849757612 0.527173638
vn 0 -1 -4.37113883e-08
vn -0.421390474 -3.96409519e-08 0.906879365
vn -0.254706621 -0.192204997 0.947724521
vn -0.259485811 -4.22141362e-08 0.965746939
vn -0.563891292 -0.197896928 0.801787555
vn -0.388615668 -0.387115568 0.83613354
vn -0.24050051 -0.377100766 0.894401789
vn -0.818008542 -2.51430485e-08 0.575205982
vn -0.888918161 -0.197904006 0.413108319
vn -0.754132152 -0.387216419 0.53042239
vn -0.996013641 -3.89910859e-09 0.0892012119
vn -0.976308644 -0.197901681 -0.0875007585
vn -0.918320477 -0.387208581 0.0822018012
vn -0.906879306 1.84195539e-08 -0.421390325
vn -0.801787674 -0.197896913 -0.563891292
vn -0.836133718 -0.387115538 -0.388615608
vn -0.575206101 3.57562868e-08 -0.818008542
vn -0.413108498 -0.197903991 -0.888918042
vn -0.530422688 -0.387216419 -0.754132152
vn -0.0892012343 4.35371348e-08 -0.996013641
vn 0.0875007883 -0.197901726 -0.976308703
vn -0.0822018459 -0.387208611 -0.918320358
vn 0.421390474 3.96409519e-08 -0.906879365
vn 0.563891292 -0.197896853 -0.801787555
vn 0.388615698 -0.387115538 -0.836133659
vn 0.818008542 2.51430485e-08 -0.575205982
vn 0.888918161 -0.197903991 -0.413108319
vn 0.754132211 -0.387216359 -0.530422509
vn 0.996013641 3.89910859e-09 -0.0892012119
vn 0.976308644 -0.197901696 0.0875007436
vn 0.918320358 -0.387208521 -0.082201831
vn 0.906879306 -1.84195539e-08 0.421390325
vn 0.801787674 -0.197896957 0.563891292
vn 0.836133659 -0.387115538 0.388615519
vn 0.575206101 -3.57562868e-08 0.818008542
vn 0.413108498 -0.19790408 0.888918042
vn 0.530422688 -0.387216508 0.754132032
vn 0.259485811 -4.22141362e-08 0.965746939
vn 0.254593879 -0.192095384 0.947777033
vn 0.24039723 -0.377195626 0.89438951
vn 0 -0.775207698 -0.631706357
vn -0.315511435 -0.7356264 -0.59942162
vn 0.315511435 -0.7356264 -0.59942162
vn -0.784569621 0.292188615 0.546878695
vn -0.785494149 0.324297458 0.527096033
vn -0.782526672 0.259808749 0.565819144
vn -0.531701446 -0.845202148 -0.0541001707
vn -0.518579841 -0.840567291 0.156593874
vn -0.513322413 -0.845336735 0.148006409
vn -0.516111195 -0.812417507 -0.271305919
vn -0.502628028 -0.784543693 -0.363120228
vn -0.537678242 -0.807767212 -0.241690233
vn -0.558190107 -0.811985552 -0.170597002
vn -0.575211227 -0.790615201 -0.20990409
vn -0.567534804 -0.781147718 -0.260215968
vn -0.586408854 -0.770111442 -0.251103789
vn -0.464868128 -0.867140412 0.178787708
vn -0.828899682 -0.54769969 0.113799922
vn -0.911370575 -0.411586672 -1.79910238e-08
vn -0.388314098 -0.89223212 0.230508268
vn 0.256303072 -0.940211177 0.22430262
vn 0.597285748 -0.783281147 0.172395825
vn 0.811962485 -0.568473637 0.132493824
vn 0.887546122 -0.45912379 0.0383019634
vn -0.592780292 0.788573563 -0.163594484
vn -0.807530642 0.577321827 -0.120804548
vn -0.886909902 0.461105078 -0.0278002825
vn -0.252098739 0.942595184 -0.218998834
vn 0.462481827 0.869865656 -0.171593189
vn 0.381796211 0.896990955 -0.222797707
vn 0.826406837 0.553904474 -0.101200789
vn 0.913120925 0.407509267 0.0121002924
vn 0.0627020374 4.36253771e-08 -0.998032272
vn 0.125203937 4.33674217e-08 -0.992131054
vn -0.0627020374 4.36253771e-08 -0.998032272
vn -0.125203937 4.33674217e-08 -0.992131054
vn 0.675982356 -0.734380603 0.0610983558
vn 0.362390339 -0.931974888 0.00979969651
vn 0.681204319 -0.732004523 0.0114000384
vn 0.351095289 -0.93338728 0.074298948
vn -0.289090961 -0.957269907 0.00779971248
vn 0.621405482 -0.737706423 0.263902247
vn 0.23989585 -0.953183293 0.184096754
vn -0.351095289 -0.93338728 0.074298948
vn -0.675982356 -0.734380603 0.0610983558
vn -0.681204319 -0.732004523 0.0114000384
vn 0.444593012 -0.736788332 0.509391904
vn 0.163196474 -0.912180007 0.375891745
vn -0.160307139 -0.911440432 0.37891674
vn -0.336307734 -0.905720711 0.258005857
vn -0.621405482 -0.737706423 0.263902247
vn 0.268302828 -0.739307702 0.617606401
vn 0.0708029047 -0.735030115 0.674327493
vn 0.0520023964 -0.87784034 0.476121813
vn -0.0353987925 -0.898869157 0.436784953
vn -0.098504968 -0.729236722 0.677133977
vn -0.257686317 -0.739260614 0.622166812
vn -0.444593012 -0.736788332 0.509391904
vn -0.0642989129 -0.229496032 -0.97118336
vn -0.04289902 -0.243794337 -0.968877733
vn -0.117800705 -0.179901004 -0.976605654
vn -0.00349993422 -0.27379474 -0.96178174
vn -0.0804964378 -0.171692342 -0.981856465
vn -0.115003921 -0.201406792 -0.972733021
vn -0.159896016 -0.0681982487 -0.984775245
vn -0.0906046331 -0.00850038975 -0.995850682
vn -0.458410442 0.421709478 0.782317698
vn -0.315307319 0.37600863 0.871320128
vn -0.449379712 0.437880129 0.778664768
vn -0.160806328 0.311212152 0.936636746
vn 0.237497658 0.34779644 0.906990886
vn 0.242111668 0.339416236 0.908943594
vn 0.458410442 0.421709478 0.782317698
vn 0.449379712 0.437880129 0.778664768
vn -0.568903267 3.59484424e-08 -0.822404444
vn -0.129497409 4.33433271e-08 -0.991579711
vn 0.560410321 3.62024331e-08 -0.828215063
vn 0.758903563 2.84649797e-08 -0.651202917
vn 0.899670899 0.350188643 0.260691553
vn 0.960494697 -1.21648096e-08 0.278298408
vn 0.650282502 0.73368001 0.197094664
vn 0.176407278 0.98284024 0.0539022535
vn -0.00589973666 0.999955237 -0.00739962375
vn -0.149399027 0.986793339 -0.0625995398
vn -0.120600566 0.990904391 -0.059700232
vn -0.149399027 -0.986793339 -0.0625996292
vn -0.178008437 -0.981846392 -0.0655031279
vn -0.120600566 -0.990904391 -0.059700314
vn 0.784569621 0.292188615 0.546878695
vn 0.782526672 0.259808749 0.565819144
vn 0.785494149 0.324297458 0.527096033
vn 0 0.213201746 0.977008224

# Mesh 'PipelineFBX' with 359 faces
g PipelineFBX
usemtl DefaultMaterial
f  1/1/1 2/2/2 3/3/3
f  4/2/2 5/1/1 6/4/1
f  7/1/1 8/5/4 9/4/1
f  10/5/4 11/1/1 12/6/4
f  13/7/5 14/8/6 15/9/6
f  16/8/6 17/7/5 18/10/7
f  19/11/8 20/10/7 21/7/5
f  22/10/7 23/11/8 24/12/8
f  25/13/9 26/14/10 27/15/9
f  28/14/10 29/13/9 30/16/11
f  31/16/11 32/17/12 33/14/10
f  34/17/12 35/16/11 36/18/12
f  37/19/12 38/17/12 39/18/12
f  40/17/12 41/19/12 42/20/12
f  43/21/13 44/22/14 45/23/14
f  46/22/14 47/21/13 48/24/15
f  49/25/16 50/24/15 51/21/13
f  52/24/15 53/25/16 54/26/16
f  55/25/16 56/3/17 57/26/16
f  58/3/17 59/25/16 60/2/18
f  61/27/19 62/28/19 63/29/19
f  64/28/19 65/27/19 66/30/19
f  67/31/20 68/32/21 69/33/20
f  70/32/21 71/31/20 72/34/22
f  73/34/22 74/35/23 75/32/21
f  76/35/23 77/34/22 78/36/24
f  79/36/24 80/37/25 81/35/23
f  82/37/25 83/36/24 84/38/26
f  85/38/26 86/39/27 87/37/25
f  88/39/27 89/38/26 90/40/27
f  91/41/28 92/42/4 93/43/4
f  94/42/4 95/41/28 96/44/28
f  97/41/28 98/45/29 99/44/28
f  100/45/29 101/41/28 102/46/29
f  103/47/12 104/48/12 105/49/12
f  106/48/12 107/47/12 108/50/12
f  109/51/12 110/50/12 111/47/12
f  112/50/12 113/51/12 114/52/12
f  115/53/12 116/52/12 117/51/12
f  118/52/12 119/53/12 120/54/12
f  121/55/12 122/54/12 123/53/12
f  124/54/12 125/55/12 126/56/12
f  127/32/30 128/31/31 129/33/31
f  130/31/31 131/32/30 132/34/32
f  133/35/33 134/34/32 135/32/30
f  136/34/32 137/35/33 138/36/34
f  139/37/35 140/36/34 141/35/33
f  142/36/34 143/37/35 144/38/36
f  145/39/37 146/38/36 147/37/35
f  148/38/36 149/39/37 150/40/37
f  151/57/38 152/58/39 153/59/40
f  154/58/39 155/57/38 156/60/41
f  157/60/41 158/61/42 159/58/39
f  160/61/42 161/60/41 162/62/43
f  163/62/43 164/63/44 165/61/42
f  166/63/44 167/62/43 168/64/45
f  169/64/45 170/65/46 171/63/44
f  172/65/46 173/64/45 174/66/47
f  175/58/48 176/57/49 177/59/50
f  178/57/49 179/58/48 180/60/51
f  181/61/52 182/60/51 183/58/48
f  184/60/51 185/61/52 186/62/53
f  187/63/54 188/62/53 189/61/52
f  190/62/53 191/63/54 192/64/55
f  193/65/56 194/64/55 195/63/54
f  196/64/55 197/65/56 198/66/57
f  199/57/58 200/58/59 201/59/60
f  202/58/59 203/57/58 204/60/61
f  205/60/61 206/61/62 207/58/59
f  208/61/62 209/60/61 210/62/63
f  211/62/63 212/63/64 213/61/62
f  214/63/64 215/62/63 216/64/65
f  217/64/65 218/65/66 219/63/64
f  220/65/66 221/64/65 222/66/67
f  223/67/68 224/68/69 225/69/68
f  226/68/69 227/67/68 228/70/69
f  229/71/70 230/68/69 231/70/69
f  232/68/69 233/71/70 234/72/70
f  235/71/70 236/73/71 237/72/70
f  238/73/71 239/71/70 240/74/72
f  241/74/72 242/75/73 243/73/71
f  244/75/73 245/74/72 246/76/74
f  247/76/74 248/77/75 249/75/73
f  250/77/75 251/76/74 252/78/76
f  253/78/76 254/79/77 255/77/75
f  256/79/77 257/78/76 258/80/78
f  259/80/78 260/81/79 261/79/77
f  262/81/79 263/80/78 264/82/80
f  265/82/80 266/83/81 267/81/79
f  268/83/81 269/82/80 270/84/81
f  271/85/82 272/83/81 273/84/81
f  274/83/81 275/85/82 276/86/83
f  277/87/84 278/86/83 279/85/82
f  280/86/83 281/87/84 282/88/85
f  283/89/86 284/88/85 285/87/84
f  286/88/85 287/89/86 288/90/86
f  289/91/87 290/92/88 291/93/88
f  292/92/88 293/91/87 294/94/89
f  295/95/90 296/94/89 297/91/87
f  298/94/89 299/95/90 300/96/90
f  301/97/91 302/98/92 303/99/92
f  304/98/92 305/97/91 306/100/93
f  307/101/94 308/100/93 309/97/91
f  310/100/93 311/101/94 312/102/95
f  313/101/94 314/103/96 315/102/95
f  316/103/96 317/101/94 318/104/97
f  319/104/97 320/105/98 321/103/96
f  322/105/98 323/104/97 324/106/98
f  325/97/91 326/107/99 327/101/94
f  328/107/99 329/104/97 330/101/94
f  331/104/97 332/107/99 333/108/100
f  334/107/99 335/97/91 336/109/101
f  337/110/102 338/111/102 339/112/103
f  340/111/102 341/110/102 342/113/104
f  343/114/105 344/115/105 345/116/106
f  346/115/105 347/114/105 348/117/107
f  349/118/108 350/119/109 351/120/109
f  352/119/109 353/118/108 354/121/108
f  355/118/108 356/122/4 357/121/108
f  358/122/4 359/118/108 360/123/4
f  361/124/110 362/122/4 363/123/4
f  364/122/4 365/124/110 366/125/111
f  367/126/112 368/125/111 369/124/110
f  370/125/111 371/126/112 372/127/6
f  373/126/112 374/128/113 375/127/6
f  376/128/113 377/126/112 378/129/113
f  379/130/114 380/128/113 381/129/113
f  382/128/113 383/130/114 384/131/115
f  385/132/116 386/131/115 387/130/114
f  388/131/115 389/132/116 390/133/117
f  391/134/118 392/133/117 393/132/116
f  394/133/117 395/134/118 396/135/118
f  397/136/109 398/137/108 399/138/109
f  400/137/108 401/136/109 402/139/108
f  403/140/119 404/137/108 405/139/108
f  406/137/108 407/140/119 408/141/120
f  409/142/121 410/141/120 411/140/119
f  412/141/120 413/142/121 414/143/111
f  415/144/122 416/143/111 417/142/121
f  418/143/111 419/144/122 420/145/123
f  421/146/124 422/145/123 423/144/122
f  424/145/123 425/146/124 426/147/125
f  427/148/114 428/147/125 429/146/124
f  430/147/125 431/148/114 432/149/115
f  433/150/116 434/149/115 435/148/114
f  436/149/115 437/150/116 438/151/117
f  439/152/118 440/151/117 441/150/116
f  442/151/117 443/152/118 444/153/118
f  445/154/109 446/155/126 447/156/109
f  448/155/126 449/154/109 450/157/127
f  451/157/127 452/158/4 453/155/126
f  454/158/4 455/157/127 456/159/4
f  457/160/110 458/158/4 459/159/4
f  460/158/4 461/160/110 462/161/111
f  463/162/122 464/161/111 465/160/110
f  466/161/111 467/162/122 468/163/123
f  469/164/124 470/163/123 471/162/122
f  472/163/123 473/164/124 474/165/125
f  475/166/114 476/165/125 477/164/124
f  478/165/125 479/166/114 480/167/115
f  481/168/128 482/167/115 483/166/114
f  484/167/115 485/168/128 486/169/128
f  487/168/128 488/170/118 489/169/128
f  490/170/118 491/168/128 492/171/118
f  493/172/129 494/173/130 495/174/129
f  496/173/130 497/172/129 498/175/131
f  499/175/131 500/176/132 501/173/130
f  502/176/132 503/175/131 504/177/133
f  505/177/133 506/178/134 507/176/132
f  508/178/134 509/177/133 510/179/135
f  511/180/136 512/181/136 513/182/137
f  514/181/136 515/180/136 516/183/138
f  517/184/139 518/185/140 519/186/140
f  520/185/140 521/184/139 522/187/139
f  523/184/139 524/188/141 525/187/139
f  526/188/141 527/184/139 528/189/141
f  529/1/142 530/5/4 531/6/4
f  532/5/4 533/1/142 534/4/142
f  535/1/142 536/2/18 537/4/142
f  538/2/18 539/1/142 540/3/17
f  541/190/143 542/191/144 543/192/144
f  544/191/144 545/190/143 546/193/143
f  547/190/143 548/194/145 549/193/143
f  550/194/145 551/190/143 552/195/145
f  553/196/145 554/194/145 555/195/145
f  556/194/145 557/196/145 558/197/145
f  559/198/145 560/197/145 561/196/145
f  562/197/145 563/198/145 564/199/145
f  565/200/145 566/199/145 567/198/145
f  568/199/145 569/200/145 570/201/145
f  571/202/146 572/203/147 573/204/148
f  574/203/147 575/202/146 576/205/149
f  577/206/150 578/203/147 579/205/149
f  580/203/147 581/206/150 582/207/151
f  583/208/152 584/205/149 585/202/146
f  586/205/149 587/208/152 588/209/153
f  589/210/154 590/205/149 591/209/153
f  592/205/149 593/210/154 594/206/150
f  595/211/155 596/209/153 597/208/152
f  598/209/153 599/211/155 600/212/156
f  601/213/157 602/209/153 603/212/156
f  604/209/153 605/213/157 606/210/154
f  607/214/158 608/212/156 609/211/155
f  610/212/156 611/214/158 612/215/159
f  613/216/160 614/212/156 615/215/159
f  616/212/156 617/216/160 618/213/157
f  619/217/161 620/215/159 621/214/158
f  622/215/159 623/217/161 624/218/162
f  625/219/163 626/215/159 627/218/162
f  628/215/159 629/219/163 630/216/160
f  631/220/164 632/218/162 633/217/161
f  634/218/162 635/220/164 636/221/165
f  637/222/166 638/218/162 639/221/165
f  640/218/162 641/222/166 642/219/163
f  643/223/167 644/221/165 645/220/164
f  646/221/165 647/223/167 648/224/168
f  649/225/169 650/221/165 651/224/168
f  652/221/165 653/225/169 654/222/166
f  655/226/170 656/224/168 657/223/167
f  658/224/168 659/226/170 660/227/171
f  661/228/172 662/224/168 663/227/171
f  664/224/168 665/228/172 666/225/169
f  667/229/173 668/227/171 669/226/170
f  670/227/171 671/229/173 672/230/174
f  673/231/175 674/227/171 675/230/174
f  676/227/171 677/231/175 678/228/172
f  679/232/176 680/230/174 681/229/173
f  682/230/174 683/232/176 684/233/177
f  685/234/178 686/230/174 687/233/177
f  688/230/174 689/234/178 690/231/175
f  691/235/179 692/233/177 693/232/176
f  694/233/177 695/235/179 696/236/180
f  697/237/181 698/233/177 699/236/180
f  700/233/177 701/237/181 702/234/178
f  703/238/182 704/236/180 705/235/179
f  706/236/180 707/238/182 708/239/183
f  709/240/184 710/236/180 711/239/183
f  712/236/180 713/240/184 714/237/181
f  715/241/185 716/242/186 717/243/186
f  718/242/186 719/241/185 720/244/185
f  721/241/185 722/245/187 723/244/185
f  724/245/187 725/241/185 726/246/187
f  727/247/188 728/248/188 729/249/189
f  730/248/188 731/247/188 732/250/190
f  733/64/191 734/65/192 735/66/193
f  736/65/192 737/64/191 738/63/194
f  739/62/195 740/63/194 741/64/191
f  742/63/194 743/62/195 744/61/196
f  745/60/197 746/61/196 747/62/195
f  748/61/196 749/60/197 750/58/198
f  751/57/199 752/58/198 753/60/197
f  754/58/198 755/57/199 756/59/200
f  757/251/201 758/252/202 759/253/203
f  760/252/202 761/251/201 762/254/204
f  763/251/201 764/255/205 765/254/204
f  766/255/205 767/251/201 768/256/206
f  769/256/206 770/257/207 771/255/205
f  772/257/207 773/256/206 774/258/208
f  775/259/209 776/260/210 777/261/211
f  778/260/210 779/259/209 780/262/212
f  781/263/213 782/262/212 783/259/209
f  784/262/212 785/263/213 786/264/214
f  787/263/213 788/265/215 789/264/214
f  790/265/215 791/263/213 792/266/216
f  793/267/95 794/268/95 795/269/95
f  796/268/95 797/267/95 798/270/95
f  799/271/217 800/272/218 801/273/218
f  802/272/218 803/271/217 804/274/217
f  805/271/217 806/275/219 807/274/217
f  808/275/219 809/271/217 810/276/219
f  811/277/220 812/275/219 813/276/219
f  814/275/219 815/277/220 816/278/220
f  817/279/221 818/280/222 819/281/223
f  820/280/222 821/279/221 822/282/224
f  823/282/224 824/283/225 825/280/222
f  826/280/222 827/283/225 828/284/145
f  829/285/226 830/282/224 831/279/221
f  832/282/224 833/285/226 834/286/227
f  835/286/227 836/287/228 837/282/224
f  838/283/225 839/282/224 840/287/228
f  841/288/229 842/283/225 843/287/228
f  844/283/225 845/288/229 846/289/230
f  847/286/227 848/285/226 849/290/231
f  850/290/231 851/291/232 852/286/227
f  853/292/233 854/286/227 855/291/232
f  856/286/227 857/292/233 858/293/234
f  859/287/228 860/286/227 861/293/234
f  862/294/235 863/287/228 864/293/234
f  865/287/228 866/294/235 867/288/229
f  868/291/232 869/290/231 870/295/236
f  871/296/237 872/291/232 873/295/236
f  874/291/232 875/296/237 876/297/238
f  877/298/239 878/291/232 879/297/238
f  880/291/232 881/298/239 882/292/233
f  883/299/240 884/292/233 885/298/239
f  886/292/233 887/299/240 888/300/241
f  889/301/242 890/292/233 891/300/241
f  892/292/233 893/301/242 894/293/234
f  895/293/234 896/301/242 897/294/235
f  898/296/237 899/298/239 900/297/238
f  901/298/239 902/296/237 903/299/240
f  904/302/243 905/303/244 906/304/245
f  907/303/244 908/302/243 909/305/246
f  910/305/246 911/306/247 912/303/244
f  913/306/247 914/305/246 915/307/248
f  916/308/249 917/306/247 918/307/248
f  919/306/247 920/308/249 921/309/250
f  922/310/251 923/311/252 924/312/253
f  925/311/252 926/310/251 927/313/254
f  928/313/254 929/314/255 930/311/252
f  931/314/255 932/313/254 933/315/256
f  934/316/257 935/314/255 936/315/256
f  937/314/255 938/316/257 939/317/258
f  940/22/259 941/21/260 942/23/259
f  943/21/260 944/22/259 945/24/260
f  946/26/261 947/21/260 948/24/260
f  949/21/260 950/26/261 951/25/262
f  952/3/3 953/25/262 954/26/261
f  955/25/262 956/3/3 957/2/2
f  958/173/263 959/172/264 960/174/264
f  961/172/264 962/173/263 963/175/265
f  964/176/266 965/175/265 966/173/263
f  967/175/265 968/176/266 969/177/267
f  970/178/268 971/177/267 972/176/266
f  973/177/267 974/178/268 975/179/269
f  976/181/270 977/180/270 978/182/271
f  979/180/270 980/181/270 981/183/272
f  982/247/273 983/248/273 984/250/274
f  985/248/273 986/247/273 987/249/275
f  988/318/276 989/319/276 990/320/276
f  991/319/276 992/318/276 993/321/276
f  994/322/145 995/323/145 996/324/145
f  997/325/145 998/323/145 999/322/145
f  1000/323/145 1001/325/145 1002/326/145
f  1003/327/145 1004/326/145 1005/325/145
f  1006/326/145 1007/327/145 1008/328/145
f  1009/327/145 1010/329/145 1011/328/145
f  1012/329/145 1013/327/145 1014/330/145
f  1015/330/145 1016/331/145 1017/329/145
f  1018/331/145 1019/330/145 1020/332/145
f  1021/332/145 1022/333/145 1023/331/145
f  1024/334/145 1025/335/145 1026/336/145
f  1027/336/145 1028/337/145 1029/334/145
f  1030/337/145 1031/336/145 1032/338/145
f  1033/339/145 1034/337/145 1035/338/145
f  1036/337/145 1037/339/145 1038/160/110
f  1039/339/145 1040/162/122 1041/160/110
f  1042/340/145 1043/126/112 1044/124/110
f  1045/341/145 1046/340/145 1047/124/110
f  1048/340/145 1049/341/145 1050/342/145
f  1051/341/145 1052/343/145 1053/342/145
f  1054/343/145 1055/341/145 1056/344/145
f  1057/344/145 1058/345/145 1059/343/145
f  1060/346/145 1061/144/122 1062/142/121
f  1063/142/121 1064/347/145 1065/346/145
f  1066/347/145 1067/142/121 1068/348/145
f  1069/349/145 1070/347/145 1071/348/145
f  1072/347/145 1073/349/145 1074/350/145
f  1075/349/145 1076/351/145 1077/350/145

