# File produced by Open Asset Import Library (http://www.assimp.sf.net)
# (assimp v6.0.0)

mtllib TypeI.mtl

# 921 vertex positions
v -15.9850006 -9.74510098 15.6399994
v 22.3606014 -4.35160112 24.3339996
v -22.3606014 -4.35160112 24.3339996
v 22.3606014 -4.35160112 24.3339996
v -15.9850006 -9.74510098 15.6399994
v 15.9850006 -9.74510098 15.6399994
v -15.9850006 -9.74510098 15.6399994
v 19.3199997 -9.74510002 5.05999947
v 15.9850006 -9.74510098 15.6399994
v 19.3199997 -9.74510002 5.05999947
v -15.9850006 -9.74510098 15.6399994
v -19.3199997 -9.74510002 5.05999947
v -10.5799999 -9.74510002 -3.5650003
v 19.3199997 -9.74510002 5.05999947
v -19.3199997 -9.74510002 5.05999947
v 19.3199997 -9.74510002 5.05999947
v -10.5799999 -9.74510002 -3.5650003
v 10.5799999 -9.74510002 -3.5650003
v -7.98099995 -9.74509907 -17.710001
v 10.5799999 -9.74510002 -3.5650003
v -10.5799999 -9.74510002 -3.5650003
v 10.5799999 -9.74510002 -3.5650003
v -7.98099995 -9.74509907 -17.710001
v 7.98099995 -9.74509907 -17.710001
v -2.75999999 -9.74509907 -29.8999996
v 7.98099995 -9.74509907 -17.710001
v -7.98099995 -9.74509907 -17.710001
v 7.98099995 -9.74509907 -17.710001
v -2.75999999 -9.74509907 -29.8999996
v 2.75999999 -9.74509907 -29.8999996
v 19.3199997 5.14509964 5.06000042
v -15.9850006 5.14509916 15.6400013
v 15.9850006 5.14509916 15.6400013
v -15.9850006 5.14509916 15.6400013
v 19.3199997 5.14509964 5.06000042
v -19.3199997 5.14509964 5.06000042
v 10.5799999 5.14510012 -3.56500006
v -19.3199997 5.14509964 5.06000042
v 19.3199997 5.14509964 5.06000042
v -19.3199997 5.14509964 5.06000042
v 10.5799999 5.14510012 -3.56500006
v -10.5799999 5.14510012 -3.56500006
v 7.98099995 5.14510107 -17.710001
v -10.5799999 5.14510012 -3.56500006
v 10.5799999 5.14510012 -3.56500006
v -10.5799999 5.14510012 -3.56500006
v 7.98099995 5.14510107 -17.710001
v -7.98099995 5.14510107 -17.710001
v 2.75999999 5.14510155 -29.8999996
v -7.98099995 5.14510107 -17.710001
v 7.98099995 5.14510107 -17.710001
v -7.98099995 5.14510107 -17.710001
v 2.75999999 5.14510155 -29.8999996
v -2.75999999 5.14510155 -29.8999996
v 0.759000003 -16.6289997 8.96999931
v 2.29999995 -17.4570007 9.38399982
v 2.29999995 -16.6289997 9.38399982
v 2.29999995 -17.4570007 9.38399982
v 0.759000003 -16.6289997 8.96999931
v 0.759000003 -17.4570007 8.96999931
v 1.14540005 -19.2901001 8.30069923
v 2.29999995 -17.4570007 9.38399982
v 0.759000003 -17.4570007 8.96999931
v 2.29999995 -17.4570007 9.38399982
v 1.14540005 -19.2901001 8.30069923
v 2.29999995 -19.2901001 8.61119938
v -0.368000031 -16.6289997 7.84299898
v 0.759000003 -17.4570007 8.96999931
v 0.759000003 -16.6289997 8.96999931
v 0.759000003 -17.4570007 8.96999931
v -0.368000031 -16.6289997 7.84299898
v -0.368000031 -17.4570007 7.84299898
v 0.301300019 -19.2901001 7.45659924
v 0.759000003 -17.4570007 8.96999931
v -0.368000031 -17.4570007 7.84299898
v 0.759000003 -17.4570007 8.96999931
v 0.301300019 -19.2901001 7.45659924
v 1.14540005 -19.2901001 8.30069923
v -0.782000065 -16.6289997 6.30199909
v -0.368000031 -17.4570007 7.84299898
v -0.368000031 -16.6289997 7.84299898
v -0.368000031 -17.4570007 7.84299898
v -0.782000065 -16.6289997 6.30199909
v -0.782000065 -17.4570007 6.30199909
v -0.0092000002 -19.2901001 6.30199909
v -0.368000031 -17.4570007 7.84299898
v -0.782000065 -17.4570007 6.30199909
v -0.368000031 -17.4570007 7.84299898
v -0.0092000002 -19.2901001 6.30199909
v 0.301300019 -19.2901001 7.45659924
v -0.368000031 -16.6289997 4.7609992
v -0.782000065 -17.4570007 6.30199909
v -0.782000065 -16.6289997 6.30199909
v -0.782000065 -17.4570007 6.30199909
v -0.368000031 -16.6289997 4.7609992
v -0.368000031 -17.4570007 4.7609992
v 0.301300019 -19.2901001 5.14739943
v -0.782000065 -17.4570007 6.30199909
v -0.368000031 -17.4570007 4.7609992
v -0.782000065 -17.4570007 6.30199909
v 0.301300019 -19.2901001 5.14739943
v -0.0092000002 -19.2901001 6.30199909
v 0.759000003 -16.6289997 3.63399935
v -0.368000031 -17.4570007 4.7609992
v -0.368000031 -16.6289997 4.7609992
v -0.368000031 -17.4570007 4.7609992
v 0.759000003 -16.6289997 3.63399935
v 0.759000003 -17.4570007 3.63399935
v 1.14540005 -19.2901001 4.30329943
v -0.368000031 -17.4570007 4.7609992
v 0.759000003 -17.4570007 3.63399935
v -0.368000031 -17.4570007 4.7609992
v 1.14540005 -19.2901001 4.30329943
v 0.301300019 -19.2901001 5.14739943
v 2.29999995 -16.6289997 3.21999931
v 0.759000003 -17.4570007 3.63399935
v 0.759000003 -16.6289997 3.63399935
v 0.759000003 -17.4570007 3.63399935
v 2.29999995 -16.6289997 3.21999931
v 2.29999995 -17.4570007 3.21999931
v 2.29999995 -19.2901001 3.99279928
v 0.759000003 -17.4570007 3.63399935
v 2.29999995 -17.4570007 3.21999931
v 0.759000003 -17.4570007 3.63399935
v 2.29999995 -19.2901001 3.99279928
v 1.14540005 -19.2901001 4.30329943
v 3.84100008 -16.6289997 3.63399935
v 2.29999995 -17.4570007 3.21999931
v 2.29999995 -16.6289997 3.21999931
v 2.29999995 -17.4570007 3.21999931
v 3.84100008 -16.6289997 3.63399935
v 3.84100008 -17.4570007 3.63399935
v 3.45459986 -19.2901001 4.30329943
v 2.29999995 -17.4570007 3.21999931
v 3.84100008 -17.4570007 3.63399935
v 2.29999995 -17.4570007 3.21999931
v 3.45459986 -19.2901001 4.30329943
v 2.29999995 -19.2901001 3.99279928
v 4.96800041 -16.6289997 4.7609992
v 3.84100008 -17.4570007 3.63399935
v 3.84100008 -16.6289997 3.63399935
v 3.84100008 -17.4570007 3.63399935
v 4.96800041 -16.6289997 4.7609992
v 4.96800041 -17.4570007 4.7609992
v 4.29869986 -19.2901001 5.14739943
v 3.84100008 -17.4570007 3.63399935
v 4.96800041 -17.4570007 4.7609992
v 3.84100008 -17.4570007 3.63399935
v 4.29869986 -19.2901001 5.14739943
v 3.45459986 -19.2901001 4.30329943
v 5.38199997 -16.6289997 6.30199909
v 4.96800041 -17.4570007 4.7609992
v 4.96800041 -16.6289997 4.7609992
v 4.96800041 -17.4570007 4.7609992
v 5.38199997 -16.6289997 6.30199909
v 5.38199997 -17.4570007 6.30199909
v 4.6092 -19.2901001 6.30199909
v 4.96800041 -17.4570007 4.7609992
v 5.38199997 -17.4570007 6.30199909
v 4.96800041 -17.4570007 4.7609992
v 4.6092 -19.2901001 6.30199909
v 4.29869986 -19.2901001 5.14739943
v 4.96800041 -16.6289997 7.84299898
v 5.38199997 -17.4570007 6.30199909
v 5.38199997 -16.6289997 6.30199909
v 5.38199997 -17.4570007 6.30199909
v 4.96800041 -16.6289997 7.84299898
v 4.96800041 -17.4570007 7.84299898
v 4.29869986 -19.2901001 7.45659924
v 5.38199997 -17.4570007 6.30199909
v 4.96800041 -17.4570007 7.84299898
v 5.38199997 -17.4570007 6.30199909
v 4.29869986 -19.2901001 7.45659924
v 4.6092 -19.2901001 6.30199909
v 3.84100008 -16.6289997 8.96999931
v 4.96800041 -17.4570007 7.84299898
v 4.96800041 -16.6289997 7.84299898
v 4.96800041 -17.4570007 7.84299898
v 3.84100008 -16.6289997 8.96999931
v 3.84100008 -17.4570007 8.96999931
v 3.45459986 -19.2901001 8.30069923
v 4.96800041 -17.4570007 7.84299898
v 3.84100008 -17.4570007 8.96999931
v 4.96800041 -17.4570007 7.84299898
v 3.45459986 -19.2901001 8.30069923
v 4.29869986 -19.2901001 7.45659924
v 2.29999995 -16.6289997 9.38399982
v 3.84100008 -17.4570007 8.96999931
v 3.84100008 -16.6289997 8.96999931
v 3.84100008 -17.4570007 8.96999931
v 2.29999995 -16.6289997 9.38399982
v 2.29999995 -17.4570007 9.38399982
v 2.29999995 -19.2901001 8.61119938
v 3.84100008 -17.4570007 8.96999931
v 2.29999995 -17.4570007 9.38399982
v 3.84100008 -17.4570007 8.96999931
v 2.29999995 -19.2901001 8.61119938
v 3.45459986 -19.2901001 8.30069923
v 12.9260006 -9.74510098 7.84299946
v 13.1099997 -12.0749998 -3.10500073
v 13.1099997 -8.34899998 -3.1050005
v 13.1099997 -12.0749998 -3.10500073
v 12.9260006 -9.74510098 7.84299946
v 12.9260006 -12.0749998 7.84299946
v 11.96 -9.74510098 12.2819986
v 12.9260006 -12.0749998 7.84299946
v 12.9260006 -9.74510098 7.84299946
v 12.9260006 -12.0749998 7.84299946
v 11.96 -9.74510098 12.2819986
v 11.96 -12.0749998 12.2819986
v 10.0740004 -9.74510098 14.9499998
v 11.96 -12.0749998 12.2819986
v 11.96 -9.74510098 12.2819986
v 11.96 -12.0749998 12.2819986
v 10.0740004 -9.74510098 14.9499998
v 10.0740004 -12.0749998 14.9499998
v 10.0740004 -9.74510098 14.9499998
v 6.80800009 -12.0749998 17.1580009
v 10.0740004 -12.0749998 14.9499998
v 6.80800009 -12.0749998 17.1580009
v 10.0740004 -9.74510098 14.9499998
v 6.80800009 -9.74510098 17.1580009
v 6.80800009 -9.74510098 17.1580009
v 2.89800024 -12.0749998 18.0550003
v 6.80800009 -12.0749998 17.1580009
v 2.89800024 -12.0749998 18.0550003
v 6.80800009 -9.74510098 17.1580009
v 2.89800024 -9.74510098 18.0550003
v 2.89800024 -9.74510098 18.0550003
v -2.89800024 -12.0749998 17.9169998
v 2.89800024 -12.0749998 18.0550003
v -2.89800024 -12.0749998 17.9169998
v 2.89800024 -9.74510098 18.0550003
v -2.89800024 -9.74510098 17.9169998
v -2.89800024 -9.74510098 17.9169998
v -6.80800009 -12.0749998 17.1580009
v -2.89800024 -12.0749998 17.9169998
v -6.80800009 -12.0749998 17.1580009
v -2.89800024 -9.74510098 17.9169998
v -6.80800009 -9.74510098 17.1580009
v -6.80800009 -9.74510098 17.1580009
v -10.0740004 -12.0749998 14.9499998
v -6.80800009 -12.0749998 17.1580009
v -10.0740004 -12.0749998 14.9499998
v -6.80800009 -9.74510098 17.1580009
v -10.0740004 -9.74510098 14.9499998
v -10.0740004 -9.74510098 14.9499998
v -11.96 -12.0749998 12.2819986
v -10.0740004 -12.0749998 14.9499998
v -11.96 -12.0749998 12.2819986
v -10.0740004 -9.74510098 14.9499998
v -11.96 -9.74510098 12.2819986
v -12.9260006 -9.74510098 7.84299946
v -11.96 -12.0749998 12.2819986
v -11.96 -9.74510098 12.2819986
v -11.96 -12.0749998 12.2819986
v -12.9260006 -9.74510098 7.84299946
v -12.9260006 -12.0749998 7.84299946
v -12.9260006 -9.74510098 7.84299946
v -13.1099997 -12.0749998 -3.10500073
v -12.9260006 -12.0749998 7.84299946
v -13.1099997 -12.0749998 -3.10500073
v -12.9260006 -9.74510098 7.84299946
v -13.1099997 -8.34899998 -3.1050005
v 0 -12.0749998 -10.0050011
v -7.86600018 -16.9050007 0.0620992631
v -13.1099997 -12.0749998 -3.10500073
v -7.86600018 -16.9050007 0.0620992631
v 0 -12.0749998 -10.0050011
v 0 -16.9050007 -4.07790089
v 0 -12.0749998 -10.0050011
v 7.86600018 -16.9050007 0.0620992631
v 0 -16.9050007 -4.07790089
v 7.86600018 -16.9050007 0.0620992631
v 0 -12.0749998 -10.0050011
v 13.1099997 -12.0749998 -3.10500073
v -10.8767004 -3.00150108 20.9461002
v -5.6395998 0.591098845 26.5397015
v -9.83250046 2.2010994 19.3016014
v -5.6395998 0.591098845 26.5397015
v -10.8767004 -3.00150108 20.9461002
v -6.8057003 -6.10190153 28.0002003
v -27.8300018 -4.35160017 5.36590004
v -15.9850006 -9.74510098 15.6399994
v -22.3606014 -4.35160112 24.3339996
v -15.9850006 -9.74510098 15.6399994
v -27.8300018 -4.35160017 5.36590004
v -19.3199997 -9.74510002 5.05999947
v -18.9037018 -4.35159969 -3.8847003
v -19.3199997 -9.74510002 5.05999947
v -27.8300018 -4.35160017 5.36590004
v -19.3199997 -9.74510002 5.05999947
v -18.9037018 -4.35159969 -3.8847003
v -10.5799999 -9.74510002 -3.5650003
v -15.1408997 -4.35159922 -18.9865017
v -10.5799999 -9.74510002 -3.5650003
v -18.9037018 -4.35159969 -3.8847003
v -10.5799999 -9.74510002 -3.5650003
v -15.1408997 -4.35159922 -18.9865017
v -7.98099995 -9.74509907 -17.710001
v -10.2488003 -4.35159874 -28.9547024
v -7.98099995 -9.74509907 -17.710001
v -15.1408997 -4.35159922 -18.9865017
v -7.98099995 -9.74509907 -17.710001
v -10.2488003 -4.35159874 -28.9547024
v -2.75999999 -9.74509907 -29.8999996
v -9.54500008 -10.0878 -8.97000027
v 0 -11.7299995 -9.82100105
v -10.4880009 -11.7299995 -4.3010006
v 0 -11.7299995 -9.82100105
v -9.54500008 -10.0878 -8.97000027
v 0 -10.0878 -13.2250013
v 9.54500008 -10.0878 -8.97000027
v 0 -11.7299995 -9.82100105
v 0 -10.0878 -13.2250013
v 0 -11.7299995 -9.82100105
v 9.54500008 -10.0878 -8.97000027
v 10.4880009 -11.7299995 -4.3010006
v -9.54500008 -9.74510002 -8.97000027
v 0 -10.0878 -13.2250013
v -9.54500008 -10.0878 -8.97000027
v 0 -10.0878 -13.2250013
v -9.54500008 -9.74510002 -8.97000027
v 0 -9.74509907 -13.2250013
v 9.54500008 -9.74510002 -8.97000027
v 0 -10.0878 -13.2250013
v 0 -9.74509907 -13.2250013
v 0 -10.0878 -13.2250013
v 9.54500008 -9.74510002 -8.97000027
v 9.54500008 -10.0878 -8.97000027
v 10.4880009 -9.74510002 -4.3010006
v 9.54500008 -10.0878 -8.97000027
v 9.54500008 -9.74510002 -8.97000027
v 9.54500008 -10.0878 -8.97000027
v 10.4880009 -9.74510002 -4.3010006
v 10.4880009 -11.7299995 -4.3010006
v -9.54500008 -10.0878 -8.97000027
v -10.4880009 -9.74510002 -4.3010006
v -9.54500008 -9.74510002 -8.97000027
v -10.4880009 -9.74510002 -4.3010006
v -9.54500008 -10.0878 -8.97000027
v -10.4880009 -11.7299995 -4.3010006
v -9.59789944 -11.1550007 12.5349998
v -13.1099997 -3.37870121 24.3799992
v -12.5833006 -4.54480076 12.3671007
v -13.1099997 -3.37870121 24.3799992
v -9.59789944 -11.1550007 12.5349998
v -7.48190069 -7.59000206 29.8999996
v -9.59789944 -11.1550007 12.5349998
v 7.48190069 -7.59000206 29.8999996
v -7.48190069 -7.59000206 29.8999996
v 7.48190069 -7.59000206 29.8999996
v -9.59789944 -11.1550007 12.5349998
v 9.59789944 -11.1550007 12.5349998
v 9.59789944 -11.1550007 12.5349998
v 13.1099997 -3.37870121 24.3799992
v 7.48190069 -7.59000206 29.8999996
v 13.1099997 -3.37870121 24.3799992
v 9.59789944 -11.1550007 12.5349998
v 13.1099997 -4.52870035 10.5799999
v 8.46630001 -9.37940025 12.0335999
v 11.9370003 -1.96650124 24.262701
v 11.8357992 -2.99460053 10.4511995
v 11.9370003 -1.96650124 24.262701
v 8.46630001 -9.37940025 12.0335999
v 6.70679951 -5.80520153 29.4400005
v -8.46630001 -9.37940025 12.0335999
v 6.70679951 -5.80520153 29.4400005
v 8.46630001 -9.37940025 12.0335999
v 6.70679951 -5.80520153 29.4400005
v -8.46630001 -9.37940025 12.0335999
v -6.70679951 -5.80520153 29.4400005
v -8.46630001 -9.37940025 12.0335999
v -11.9370003 -1.96650124 24.262701
v -6.70679951 -5.80520153 29.4400005
v -11.9370003 -1.96650124 24.262701
v -8.46630001 -9.37940025 12.0335999
v -11.3114004 -3.01070046 12.2383003
v 9.83250046 2.2010994 19.3016014
v -5.6395998 0.591098845 26.5397015
v 5.6395998 0.591098845 26.5397015
v -5.6395998 0.591098845 26.5397015
v 9.83250046 2.2010994 19.3016014
v -9.83250046 2.2010994 19.3016014
v -10.2488003 -4.35159874 -28.9547024
v -15.1408997 -0.248399198 -18.9865017
v -10.2488003 -0.248398751 -28.9547024
v -15.1408997 -0.248399198 -18.9865017
v -10.2488003 -4.35159874 -28.9547024
v -15.1408997 -4.35159922 -18.9865017
v -15.1408997 -4.35159922 -18.9865017
v -18.9037018 -0.248399839 -3.88469982
v -15.1408997 -0.248399198 -18.9865017
v -18.9037018 -0.248399839 -3.88469982
v -15.1408997 -4.35159922 -18.9865017
v -18.9037018 -4.35159969 -3.8847003
v -18.9037018 -4.35159969 -3.8847003
v -27.8300018 -0.248400241 5.36590004
v -18.9037018 -0.248399839 -3.88469982
v -27.8300018 -0.248400241 5.36590004
v -18.9037018 -4.35159969 -3.8847003
v -27.8300018 -4.35160017 5.36590004
v -27.8300018 -4.35160017 5.36590004
v -22.3606014 -0.248401076 24.3339996
v -27.8300018 -0.248400241 5.36590004
v -22.3606014 -0.248401076 24.3339996
v -27.8300018 -4.35160017 5.36590004
v -22.3606014 -4.35160112 24.3339996
v 22.3606014 -0.248401076 24.3339996
v -22.3606014 -4.35160112 24.3339996
v 22.3606014 -4.35160112 24.3339996
v -22.3606014 -4.35160112 24.3339996
v 22.3606014 -0.248401076 24.3339996
v -22.3606014 -0.248401076 24.3339996
v 22.3606014 -0.248401076 24.3339996
v -15.9850006 5.14509916 15.6400013
v -22.3606014 -0.248401076 24.3339996
v -15.9850006 5.14509916 15.6400013
v 22.3606014 -0.248401076 24.3339996
v 15.9850006 5.14509916 15.6400013
v 15.1408997 -0.248399198 -18.9865017
v 10.2488003 -4.35159874 -28.9547024
v 10.2488003 -0.248398751 -28.9547024
v 10.2488003 -4.35159874 -28.9547024
v 15.1408997 -0.248399198 -18.9865017
v 15.1408997 -4.35159922 -18.9865017
v 18.9037018 -0.248399839 -3.88469982
v 15.1408997 -4.35159922 -18.9865017
v 15.1408997 -0.248399198 -18.9865017
v 15.1408997 -4.35159922 -18.9865017
v 18.9037018 -0.248399839 -3.88469982
v 18.9037018 -4.35159969 -3.8847003
v 27.8300018 -0.248400241 5.36590004
v 18.9037018 -4.35159969 -3.8847003
v 18.9037018 -0.248399839 -3.88469982
v 18.9037018 -4.35159969 -3.8847003
v 27.8300018 -0.248400241 5.36590004
v 27.8300018 -4.35160017 5.36590004
v 22.3606014 -0.248401076 24.3339996
v 27.8300018 -4.35160017 5.36590004
v 27.8300018 -0.248400241 5.36590004
v 27.8300018 -4.35160017 5.36590004
v 22.3606014 -0.248401076 24.3339996
v 22.3606014 -4.35160112 24.3339996
v 10.2488003 -4.35159874 -28.9547024
v 7.98099995 -9.74509907 -17.710001
v 2.75999999 -9.74509907 -29.8999996
v 7.98099995 -9.74509907 -17.710001
v 10.2488003 -4.35159874 -28.9547024
v 15.1408997 -4.35159922 -18.9865017
v 15.1408997 -4.35159922 -18.9865017
v 10.5799999 -9.74510002 -3.5650003
v 7.98099995 -9.74509907 -17.710001
v 10.5799999 -9.74510002 -3.5650003
v 15.1408997 -4.35159922 -18.9865017
v 18.9037018 -4.35159969 -3.8847003
v 18.9037018 -4.35159969 -3.8847003
v 19.3199997 -9.74510002 5.05999947
v 10.5799999 -9.74510002 -3.5650003
v 19.3199997 -9.74510002 5.05999947
v 18.9037018 -4.35159969 -3.8847003
v 27.8300018 -4.35160017 5.36590004
v 27.8300018 -4.35160017 5.36590004
v 15.9850006 -9.74510098 15.6399994
v 19.3199997 -9.74510002 5.05999947
v 15.9850006 -9.74510098 15.6399994
v 27.8300018 -4.35160017 5.36590004
v 22.3606014 -4.35160112 24.3339996
v 7.98099995 5.14510107 -17.710001
v 10.2488003 -0.248398751 -28.9547024
v 2.75999999 5.14510155 -29.8999996
v 10.2488003 -0.248398751 -28.9547024
v 7.98099995 5.14510107 -17.710001
v 15.1408997 -0.248399198 -18.9865017
v 10.5799999 5.14510012 -3.56500006
v 15.1408997 -0.248399198 -18.9865017
v 7.98099995 5.14510107 -17.710001
v 15.1408997 -0.248399198 -18.9865017
v 10.5799999 5.14510012 -3.56500006
v 18.9037018 -0.248399839 -3.88469982
v 19.3199997 5.14509964 5.06000042
v 18.9037018 -0.248399839 -3.88469982
v 10.5799999 5.14510012 -3.56500006
v 18.9037018 -0.248399839 -3.88469982
v 19.3199997 5.14509964 5.06000042
v 27.8300018 -0.248400241 5.36590004
v 15.9850006 5.14509916 15.6400013
v 27.8300018 -0.248400241 5.36590004
v 19.3199997 5.14509964 5.06000042
v 27.8300018 -0.248400241 5.36590004
v 15.9850006 5.14509916 15.6400013
v 22.3606014 -0.248401076 24.3339996
v -10.2488003 -0.248398751 -28.9547024
v -7.98099995 5.14510107 -17.710001
v -2.75999999 5.14510155 -29.8999996
v -7.98099995 5.14510107 -17.710001
v -10.2488003 -0.248398751 -28.9547024
v -15.1408997 -0.248399198 -18.9865017
v -15.1408997 -0.248399198 -18.9865017
v -10.5799999 5.14510012 -3.56500006
v -7.98099995 5.14510107 -17.710001
v -10.5799999 5.14510012 -3.56500006
v -15.1408997 -0.248399198 -18.9865017
v -18.9037018 -0.248399839 -3.88469982
v -18.9037018 -0.248399839 -3.88469982
v -19.3199997 5.14509964 5.06000042
v -10.5799999 5.14510012 -3.56500006
v -19.3199997 5.14509964 5.06000042
v -18.9037018 -0.248399839 -3.88469982
v -27.8300018 -0.248400241 5.36590004
v -27.8300018 -0.248400241 5.36590004
v -15.9850006 5.14509916 15.6400013
v -19.3199997 5.14509964 5.06000042
v -15.9850006 5.14509916 15.6400013
v -27.8300018 -0.248400241 5.36590004
v -22.3606014 -0.248401076 24.3339996
v 0 -12.0749998 -10.0050011
v 13.1099997 -8.34899998 -3.1050005
v 13.1099997 -12.0749998 -3.10500073
v 13.1099997 -8.34899998 -3.1050005
v 0 -12.0749998 -10.0050011
v 0 -8.34899998 -10.0050001
v -13.1099997 -12.0749998 -3.10500073
v 0 -8.34899998 -10.0050001
v 0 -12.0749998 -10.0050011
v 0 -8.34899998 -10.0050001
v -13.1099997 -12.0749998 -3.10500073
v -13.1099997 -8.34899998 -3.1050005
v 13.1099997 -4.52870035 10.5799999
v 11.9370003 -1.96650124 24.262701
v 13.1099997 -3.37870121 24.3799992
v 11.9370003 -1.96650124 24.262701
v 13.1099997 -4.52870035 10.5799999
v 11.8357992 -2.99460053 10.4511995
v -11.9370003 -1.96650124 24.262701
v -12.5833006 -4.54480076 12.3671007
v -13.1099997 -3.37870121 24.3799992
v -12.5833006 -4.54480076 12.3671007
v -11.9370003 -1.96650124 24.262701
v -11.3114004 -3.01070046 12.2383003
v -3.75130033 -19.7339993 3.47529912
v -3.81800008 -16.9050007 3.31199908
v -3.81800008 -19.7339993 3.31199908
v -3.81800008 -16.9050007 3.31199908
v -3.75130033 -19.7339993 3.47529912
v -3.75130033 -16.9050007 3.47529912
v -3.75130033 -19.7339993 3.47529912
v -3.5880003 -16.9050007 3.54199934
v -3.75130033 -16.9050007 3.47529912
v -3.5880003 -16.9050007 3.54199934
v -3.75130033 -19.7339993 3.47529912
v -3.5880003 -19.7339993 3.54199934
v -3.42470002 -19.7339993 3.47529912
v -3.5880003 -16.9050007 3.54199934
v -3.5880003 -19.7339993 3.54199934
v -3.5880003 -16.9050007 3.54199934
v -3.42470002 -19.7339993 3.47529912
v -3.42470002 -16.9050007 3.47529912
v -3.35800004 -19.7339993 3.31199908
v -3.42470002 -16.9050007 3.47529912
v -3.42470002 -19.7339993 3.47529912
v -3.42470002 -16.9050007 3.47529912
v -3.35800004 -19.7339993 3.31199908
v -3.35800004 -16.9050007 3.31199908
v -3.35800004 -19.7339993 3.31199908
v -3.42470002 -16.9050007 3.14869928
v -3.35800004 -16.9050007 3.31199908
v -3.42470002 -16.9050007 3.14869928
v -3.35800004 -19.7339993 3.31199908
v -3.42470002 -19.7339993 3.14869928
v -3.5880003 -19.7339993 3.0819993
v -3.42470002 -16.9050007 3.14869928
v -3.42470002 -19.7339993 3.14869928
v -3.42470002 -16.9050007 3.14869928
v -3.5880003 -19.7339993 3.0819993
v -3.5880003 -16.9050007 3.0819993
v -3.75130033 -19.7339993 3.14869928
v -3.5880003 -16.9050007 3.0819993
v -3.5880003 -19.7339993 3.0819993
v -3.5880003 -16.9050007 3.0819993
v -3.75130033 -19.7339993 3.14869928
v -3.75130033 -16.9050007 3.14869928
v -3.81800008 -19.7339993 3.31199908
v -3.75130033 -16.9050007 3.14869928
v -3.75130033 -19.7339993 3.14869928
v -3.75130033 -16.9050007 3.14869928
v -3.81800008 -19.7339993 3.31199908
v -3.81800008 -16.9050007 3.31199908
v -4.09400034 -23.4140015 7.72799921
v -4.02729988 -16.9050007 7.89129972
v -4.09400034 -16.9050007 7.72799921
v -4.02729988 -16.9050007 7.89129972
v -4.09400034 -23.4140015 7.72799921
v -4.02729988 -23.4140015 7.89129972
v -3.86400008 -23.4140015 7.95799875
v -4.02729988 -16.9050007 7.89129972
v -4.02729988 -23.4140015 7.89129972
v -4.02729988 -16.9050007 7.89129972
v -3.86400008 -23.4140015 7.95799875
v -3.86400008 -16.9050007 7.95799923
v -3.70070004 -23.4140015 7.89129972
v -3.86400008 -16.9050007 7.95799923
v -3.86400008 -23.4140015 7.95799875
v -3.86400008 -16.9050007 7.95799923
v -3.70070004 -23.4140015 7.89129972
v -3.70070004 -16.9050007 7.89129972
v -3.6340003 -23.4140015 7.72799921
v -3.70070004 -16.9050007 7.89129972
v -3.70070004 -23.4140015 7.89129972
v -3.70070004 -16.9050007 7.89129972
v -3.6340003 -23.4140015 7.72799921
v -3.6340003 -16.9050007 7.72799921
v -3.70070004 -23.4140015 7.56469965
v -3.6340003 -16.9050007 7.72799921
v -3.6340003 -23.4140015 7.72799921
v -3.6340003 -16.9050007 7.72799921
v -3.70070004 -23.4140015 7.56469965
v -3.70070004 -16.9050007 7.56469965
v -3.86400008 -23.4140015 7.49799919
v -3.70070004 -16.9050007 7.56469965
v -3.70070004 -23.4140015 7.56469965
v -3.70070004 -16.9050007 7.56469965
v -3.86400008 -23.4140015 7.49799919
v -3.86400008 -16.9050007 7.49799967
v -4.02729988 -23.4140015 7.56469965
v -3.86400008 -16.9050007 7.49799967
v -3.86400008 -23.4140015 7.49799919
v -3.86400008 -16.9050007 7.49799967
v -4.02729988 -23.4140015 7.56469965
v -4.02729988 -16.9050007 7.56469965
v -4.09400034 -23.4140015 7.72799921
v -4.02729988 -16.9050007 7.56469965
v -4.02729988 -23.4140015 7.56469965
v -4.02729988 -16.9050007 7.56469965
v -4.09400034 -23.4140015 7.72799921
v -4.09400034 -16.9050007 7.72799921
v -3.81800008 -18.0319996 2.21949935
v -3.75130033 -16.9050007 2.38279939
v -3.81800008 -16.9050007 2.21949935
v -3.75130033 -16.9050007 2.38279939
v -3.81800008 -18.0319996 2.21949935
v -3.75130033 -18.0319996 2.38279915
v -3.75130033 -18.0319996 2.38279915
v -3.5880003 -16.9050007 2.44949937
v -3.75130033 -16.9050007 2.38279939
v -3.5880003 -16.9050007 2.44949937
v -3.75130033 -18.0319996 2.38279915
v -3.5880003 -18.0319996 2.44949937
v -3.42470002 -18.0319996 2.38279915
v -3.5880003 -16.9050007 2.44949937
v -3.5880003 -18.0319996 2.44949937
v -3.5880003 -16.9050007 2.44949937
v -3.42470002 -18.0319996 2.38279915
v -3.42470002 -16.9050007 2.38279939
v -3.35800004 -18.0319996 2.21949935
v -3.42470002 -16.9050007 2.38279939
v -3.42470002 -18.0319996 2.38279915
v -3.42470002 -16.9050007 2.38279939
v -3.35800004 -18.0319996 2.21949935
v -3.35800004 -16.9050007 2.21949935
v -3.42470002 -18.0319996 2.05619931
v -3.35800004 -16.9050007 2.21949935
v -3.35800004 -18.0319996 2.21949935
v -3.35800004 -16.9050007 2.21949935
v -3.42470002 -18.0319996 2.05619931
v -3.42470002 -16.9050007 2.05619931
v -3.5880003 -18.0319996 1.98949909
v -3.42470002 -16.9050007 2.05619931
v -3.42470002 -18.0319996 2.05619931
v -3.42470002 -16.9050007 2.05619931
v -3.5880003 -18.0319996 1.98949909
v -3.5880003 -16.9050007 1.98949933
v -3.75130033 -18.0319996 2.05619931
v -3.5880003 -16.9050007 1.98949933
v -3.5880003 -18.0319996 1.98949909
v -3.5880003 -16.9050007 1.98949933
v -3.75130033 -18.0319996 2.05619931
v -3.75130033 -16.9050007 2.05619931
v -3.75130033 -18.0319996 2.05619931
v -3.81800008 -16.9050007 2.21949935
v -3.75130033 -16.9050007 2.05619931
v -3.81800008 -16.9050007 2.21949935
v -3.75130033 -18.0319996 2.05619931
v -3.81800008 -18.0319996 2.21949935
v 2.75999999 -9.74509907 -29.8999996
v 10.2488003 -0.248398751 -28.9547024
v 10.2488003 -4.35159874 -28.9547024
v 10.2488003 -0.248398751 -28.9547024
v 2.75999999 -9.74509907 -29.8999996
v 2.75999999 5.14510155 -29.8999996
v 2.75999999 -9.74509907 -29.8999996
v -2.75999999 5.14510155 -29.8999996
v 2.75999999 5.14510155 -29.8999996
v -2.75999999 5.14510155 -29.8999996
v 2.75999999 -9.74509907 -29.8999996
v -2.75999999 -9.74509907 -29.8999996
v -10.2488003 -4.35159874 -28.9547024
v -2.75999999 5.14510155 -29.8999996
v -2.75999999 -9.74509907 -29.8999996
v -2.75999999 5.14510155 -29.8999996
v -10.2488003 -4.35159874 -28.9547024
v -10.2488003 -0.248398751 -28.9547024
v 12.9260006 -12.0749998 7.84299946
v 7.86600018 -16.9050007 0.0620992631
v 13.1099997 -12.0749998 -3.10500073
v 7.86600018 -16.9050007 0.0620992631
v 12.9260006 -12.0749998 7.84299946
v 7.54400063 -16.9050007 8.67099953
v 7.54400063 -16.9050007 8.67099953
v -7.86600018 -16.9050007 0.0620992631
v 7.86600018 -16.9050007 0.0620992631
v 7.86600018 -16.9050007 0.0620992631
v -7.86600018 -16.9050007 0.0620992631
v 0 -16.9050007 -4.07790089
v 11.96 -12.0749998 12.2819986
v 7.54400063 -16.9050007 8.67099953
v 12.9260006 -12.0749998 7.84299946
v 7.54400063 -16.9050007 8.67099953
v 11.96 -12.0749998 12.2819986
v 6.64700031 -16.9050007 10.947999
v 6.64700031 -16.9050007 10.947999
v -7.54400063 -16.9050007 8.67099953
v 7.54400063 -16.9050007 8.67099953
v -7.86600018 -16.9050007 0.0620992631
v 7.54400063 -16.9050007 8.67099953
v -7.54400063 -16.9050007 8.67099953
v -12.9260006 -12.0749998 7.84299946
v -7.86600018 -16.9050007 0.0620992631
v -7.54400063 -16.9050007 8.67099953
v -7.86600018 -16.9050007 0.0620992631
v -12.9260006 -12.0749998 7.84299946
v -13.1099997 -12.0749998 -3.10500073
v 6.64700031 -16.9050007 10.947999
v 11.96 -12.0749998 12.2819986
v 10.0740004 -12.0749998 14.9499998
v 10.0740004 -12.0749998 14.9499998
v 4.66899967 -16.9050007 12.3050003
v 6.64700031 -16.9050007 10.947999
v -4.66899967 -16.9050007 12.3050003
v 6.64700031 -16.9050007 10.947999
v 4.66899967 -16.9050007 12.3050003
v 6.64700031 -16.9050007 10.947999
v -4.66899967 -16.9050007 12.3050003
v -6.64700031 -16.9050007 10.947999
v -7.54400063 -16.9050007 8.67099953
v 6.64700031 -16.9050007 10.947999
v -6.64700031 -16.9050007 10.947999
v -11.96 -12.0749998 12.2819986
v -7.54400063 -16.9050007 8.67099953
v -6.64700031 -16.9050007 10.947999
v -7.54400063 -16.9050007 8.67099953
v -11.96 -12.0749998 12.2819986
v -12.9260006 -12.0749998 7.84299946
v 4.66899967 -16.9050007 12.3050003
v 10.0740004 -12.0749998 14.9499998
v 6.80800009 -12.0749998 17.1580009
v 2.89800024 -12.0749998 18.0550003
v 4.66899967 -16.9050007 12.3050003
v 6.80800009 -12.0749998 17.1580009
v 4.66899967 -16.9050007 12.3050003
v 2.89800024 -12.0749998 18.0550003
v 2.38050008 -16.9050007 12.8109989
v -2.38050008 -16.9050007 12.8109989
v 4.66899967 -16.9050007 12.3050003
v 2.38050008 -16.9050007 12.8109989
v 4.66899967 -16.9050007 12.3050003
v -2.38050008 -16.9050007 12.8109989
v -4.66899967 -16.9050007 12.3050003
v -2.89800024 -12.0749998 17.9169998
v -4.66899967 -16.9050007 12.3050003
v -2.38050008 -16.9050007 12.8109989
v -4.66899967 -16.9050007 12.3050003
v -2.89800024 -12.0749998 17.9169998
v -6.80800009 -12.0749998 17.1580009
v -10.0740004 -12.0749998 14.9499998
v -4.66899967 -16.9050007 12.3050003
v -6.80800009 -12.0749998 17.1580009
v -4.66899967 -16.9050007 12.3050003
v -10.0740004 -12.0749998 14.9499998
v -6.64700031 -16.9050007 10.947999
v -6.64700031 -16.9050007 10.947999
v -10.0740004 -12.0749998 14.9499998
v -11.96 -12.0749998 12.2819986
v 2.89800024 -12.0749998 18.0550003
v -2.38050008 -16.9050007 12.8109989
v 2.38050008 -16.9050007 12.8109989
v -2.38050008 -16.9050007 12.8109989
v 2.89800024 -12.0749998 18.0550003
v -2.89800024 -12.0749998 17.9169998
v 13.1099997 -4.52870035 10.5799999
v 8.46630001 -9.37940025 12.0335999
v 11.8357992 -2.99460053 10.4511995
v 8.46630001 -9.37940025 12.0335999
v 13.1099997 -4.52870035 10.5799999
v 9.59789944 -11.1550007 12.5349998
v 9.59789944 -11.1550007 12.5349998
v -8.46630001 -9.37940025 12.0335999
v 8.46630001 -9.37940025 12.0335999
v -8.46630001 -9.37940025 12.0335999
v 9.59789944 -11.1550007 12.5349998
v -9.59789944 -11.1550007 12.5349998
v -12.5833006 -4.54480076 12.3671007
v -8.46630001 -9.37940025 12.0335999
v -9.59789944 -11.1550007 12.5349998
v -8.46630001 -9.37940025 12.0335999
v -12.5833006 -4.54480076 12.3671007
v -11.3114004 -3.01070046 12.2383003
v -13.1099997 -3.37870121 24.3799992
v -6.70679951 -5.80520153 29.4400005
v -11.9370003 -1.96650124 24.262701
v -6.70679951 -5.80520153 29.4400005
v -13.1099997 -3.37870121 24.3799992
v -7.48190069 -7.59000206 29.8999996
v -7.48190069 -7.59000206 29.8999996
v 6.70679951 -5.80520153 29.4400005
v -6.70679951 -5.80520153 29.4400005
v 6.70679951 -5.80520153 29.4400005
v -7.48190069 -7.59000206 29.8999996
v 7.48190069 -7.59000206 29.8999996
v 13.1099997 -3.37870121 24.3799992
v 6.70679951 -5.80520153 29.4400005
v 7.48190069 -7.59000206 29.8999996
v 6.70679951 -5.80520153 29.4400005
v 13.1099997 -3.37870121 24.3799992
v 11.9370003 -1.96650124 24.262701
v 10.8767004 -3.00150108 20.9461002
v 5.6395998 0.591098845 26.5397015
v 6.8057003 -6.10190153 28.0002003
v 5.6395998 0.591098845 26.5397015
v 10.8767004 -3.00150108 20.9461002
v 9.83250046 2.2010994 19.3016014
v -6.8057003 -6.10190153 28.0002003
v 5.6395998 0.591098845 26.5397015
v -5.6395998 0.591098845 26.5397015
v 5.6395998 0.591098845 26.5397015
v -6.8057003 -6.10190153 28.0002003
v 6.8057003 -6.10190153 28.0002003
v 3.45459986 -19.2901001 4.30329943
v 1.14540005 -19.2901001 4.30329943
v 2.29999995 -19.2901001 3.99279928
v 4.29869986 -19.2901001 5.14739943
v 1.14540005 -19.2901001 4.30329943
v 3.45459986 -19.2901001 4.30329943
v 1.14540005 -19.2901001 4.30329943
v 4.29869986 -19.2901001 5.14739943
v 0.301300019 -19.2901001 5.14739943
v 4.6092 -19.2901001 6.30199909
v 0.301300019 -19.2901001 5.14739943
v 4.29869986 -19.2901001 5.14739943
v 0.301300019 -19.2901001 5.14739943
v 4.6092 -19.2901001 6.30199909
v -0.0092000002 -19.2901001 6.30199909
v 4.6092 -19.2901001 6.30199909
v 0.301300019 -19.2901001 7.45659924
v -0.0092000002 -19.2901001 6.30199909
v 0.301300019 -19.2901001 7.45659924
v 4.6092 -19.2901001 6.30199909
v 4.29869986 -19.2901001 7.45659924
v 4.29869986 -19.2901001 7.45659924
v 1.14540005 -19.2901001 8.30069923
v 0.301300019 -19.2901001 7.45659924
v 1.14540005 -19.2901001 8.30069923
v 4.29869986 -19.2901001 7.45659924
v 3.45459986 -19.2901001 8.30069923
v 3.45459986 -19.2901001 8.30069923
v 2.29999995 -19.2901001 8.61119938
v 1.14540005 -19.2901001 8.30069923
v -3.75130033 -18.0319996 2.38279915
v -3.81800008 -18.0319996 2.21949935
v -3.75130033 -18.0319996 2.05619931
v -3.75130033 -18.0319996 2.05619931
v -3.5880003 -18.0319996 2.44949937
v -3.75130033 -18.0319996 2.38279915
v -3.5880003 -18.0319996 2.44949937
v -3.75130033 -18.0319996 2.05619931
v -3.5880003 -18.0319996 1.98949909
v -3.42470002 -18.0319996 2.05619931
v -3.5880003 -18.0319996 2.44949937
v -3.5880003 -18.0319996 1.98949909
v -3.5880003 -18.0319996 2.44949937
v -3.42470002 -18.0319996 2.05619931
v -3.42470002 -18.0319996 2.38279915
v -3.42470002 -18.0319996 2.05619931
v -3.35800004 -18.0319996 2.21949935
v -3.42470002 -18.0319996 2.38279915
v -3.42470002 -19.7339993 3.14869928
v -3.35800004 -19.7339993 3.31199908
v -3.42470002 -19.7339993 3.47529912
v -3.5880003 -19.7339993 3.54199934
v -3.42470002 -19.7339993 3.14869928
v -3.42470002 -19.7339993 3.47529912
v -3.42470002 -19.7339993 3.14869928
v -3.5880003 -19.7339993 3.54199934
v -3.5880003 -19.7339993 3.0819993
v -3.5880003 -19.7339993 3.54199934
v -3.75130033 -19.7339993 3.14869928
v -3.5880003 -19.7339993 3.0819993
v -3.75130033 -19.7339993 3.14869928
v -3.5880003 -19.7339993 3.54199934
v -3.75130033 -19.7339993 3.47529912
v -3.75130033 -19.7339993 3.47529912
v -3.81800008 -19.7339993 3.31199908
v -3.75130033 -19.7339993 3.14869928
v -3.70070004 -23.4140015 7.56469965
v -3.6340003 -23.4140015 7.72799921
v -3.70070004 -23.4140015 7.89129972
v -3.70070004 -23.4140015 7.89129972
v -3.86400008 -23.4140015 7.49799919
v -3.70070004 -23.4140015 7.56469965
v -3.86400008 -23.4140015 7.49799919
v -3.70070004 -23.4140015 7.89129972
v -3.86400008 -23.4140015 7.95799875
v -4.02729988 -23.4140015 7.89129972
v -3.86400008 -23.4140015 7.49799919
v -3.86400008 -23.4140015 7.95799875
v -3.86400008 -23.4140015 7.49799919
v -4.02729988 -23.4140015 7.89129972
v -4.02729988 -23.4140015 7.56469965
v -4.02729988 -23.4140015 7.89129972
v -4.09400034 -23.4140015 7.72799921
v -4.02729988 -23.4140015 7.56469965

# 303 UV coordinates
vt 0.163499996 0.799799979 0
vt 0.432999998 0.871699989 0
vt 0.118699998 0.871699989 0
vt 0.388200015 0.799799979 0
vt 0.41170001 0.725399971 0
vt 0.140100002 0.725399971 0
vt 0.201499999 0.664799988 0
vt 0.350199997 0.664799988 0
vt 0.219799995 0.565299988 0
vt 0.331999987 0.565400004 0
vt 0.256599993 0.479600012 0
vt 0.295399994 0.479699999 0
vt 0.173199996 0.0518000014 0
vt 0.0450000018 0.0132999998 0
vt 0.1611 0.0132999998 0
vt 0.0328000002 0.0516999997 0
vt 0.141399994 0.0830999985 0
vt 0.0645999983 0.0829999968 0
vt 0.131899998 0.134399995 0
vt 0.074000001 0.134399995 0
vt 0.112999998 0.1787 0
vt 0.0929000005 0.1787 0
vt 0.0326000005 0.252099991 0
vt 0.0449000001 0.254700005 0
vt 0.0412999988 0.25909999 0
vt 0.0364000015 0.247999996 0
vt 0.0454000011 0.237900004 0
vt 0.0518999994 0.242799997 0
vt 0.0247000009 0.243799999 0
vt 0.0291000009 0.2403 0
vt 0.0397000015 0.231800005 0
vt 0.0183000006 0.234200001 0
vt 0.0231999997 0.231399998 0
vt 0.0351000018 0.224800006 0
vt 0.0136000002 0.2236 0
vt 0.0188999996 0.221699998 0
vt 0.0318000019 0.217199996 0
vt 0.0107000005 0.212400004 0
vt 0.0163000003 0.211400002 0
vt 0.0296999998 0.209199995 0
vt 0.00970000029 0.200900003 0
vt 0.0153999999 0.200900003 0
vt 0.0289999992 0.200900003 0
vt 0.0107000005 0.189400002 0
vt 0.0163000003 0.190300003 0
vt 0.0296999998 0.192599997 0
vt 0.0136000002 0.178200006 0
vt 0.0188999996 0.180000007 0
vt 0.0318000019 0.184499994 0
vt 0.0183000006 0.167600006 0
vt 0.0231999997 0.170300007 0
vt 0.0351999998 0.176899999 0
vt 0.0247000009 0.158000007 0
vt 0.0291000009 0.161500007 0
vt 0.0397999994 0.170000002 0
vt 0.0324999988 0.149599999 0
vt 0.0364000015 0.153699994 0
vt 0.0454999991 0.163900003 0
vt 0.0412000008 0.1426 0
vt 0.0449000001 0.147100002 0
vt 0.0520000011 0.158899993 0
vt 0.918099999 0.0222999994 0
vt 0.995299995 0.00600000005 0
vt 0.995199978 0.0322000012 0
vt 0.918099999 0.00590000022 0
vt 0.885999978 0.0222999994 0
vt 0.886099994 0.00590000022 0
vt 0.862999976 0.0222999994 0
vt 0.862999976 0.00579999993 0
vt 0.835300028 0.00579999993 0
vt 0.835200012 0.0221999995 0
vt 0.806999981 0.00579999993 0
vt 0.806999981 0.0221999995 0
vt 0.766099989 0.0057000001 0
vt 0.766099989 0.0220999997 0
vt 0.737999976 0.0057000001 0
vt 0.737999976 0.0220999997 0
vt 0.710200012 0.0055999998 0
vt 0.710200012 0.0219999999 0
vt 0.68720001 0.0055999998 0
vt 0.68720001 0.0219999999 0
vt 0.655099988 0.0219000001 0
vt 0.655200005 0.00549999997 0
vt 0.578000009 0.00529999984 0
vt 0.577899992 0.0315999985 0
vt 0.870700002 0.121299997 0
vt 0.810800016 0.199699998 0
vt 0.770900011 0.159899995 0
vt 0.870700002 0.176499993 0
vt 0.930499971 0.199699998 0
vt 0.970399976 0.159899995 0
vt 0.394899994 0.205300003 0
vt 0.424899995 0.211799994 0
vt 0.397100002 0.225400001 0
vt 0.420599997 0.186900005 0
vt 0.0546000004 0.729300022 0
vt 0.142399997 0.806800008 0
vt 0.0812999979 0.86619997 0
vt 0.125799999 0.730199993 0
vt 0.110799998 0.657899976 0
vt 0.180700004 0.662999988 0
vt 0.137600005 0.551199973 0
vt 0.200399995 0.563300014 0
vt 0.169100001 0.479400009 0
vt 0.234599993 0.476099998 0
vt 0.378699988 0.29339999 0
vt 0.44749999 0.295399994 0
vt 0.370200008 0.327899992 0
vt 0.44749999 0.268999994 0
vt 0.516200006 0.293500006 0
vt 0.524600029 0.328000009 0
vt 0.377900004 0.291099995 0
vt 0.44749999 0.266499996 0
vt 0.51700002 0.291299999 0
vt 0.548799992 0.302700013 0
vt 0.544099987 0.315899998 0
vt 0.346100003 0.30250001 0
vt 0.350800008 0.315699995 0
vt 0.422199994 0.552900016 0
vt 0.382099986 0.647700012 0
vt 0.372099996 0.56309998 0
vt 0.437400013 0.677900016 0
vt 0.542900026 0.677600026 0
vt 0.557600021 0.552600026 0
vt 0.598100007 0.647199988 0
vt 0.612200022 0.550599992 0
vt 0.458999991 0.506200016 0
vt 0.478799999 0.45660001 0
vt 0.485900015 0.506399989 0
vt 0.452600002 0.441700011 0
vt 0.397599995 0.506299973 0
vt 0.403899997 0.441799998 0
vt 0.377700001 0.456699997 0
vt 0.372900009 0.50029999 0
vt 0.491699994 0.245100006 0
vt 0.435400009 0.2183 0
vt 0.476399988 0.218199998 0
vt 0.420300007 0.245299995 0
vt 0.0432999991 0.558899999 0
vt 0.0143999998 0.637199998 0
vt 0.0143999998 0.558899999 0
vt 0.0432999991 0.637199998 0
vt 0.0143999998 0.746900022 0
vt 0.0432999991 0.746900022 0
vt 0.0143999998 0.837499976 0
vt 0.0432999991 0.837499976 0
vt 0.0143999998 0.976700008 0
vt 0.0432999991 0.976700008 0
vt 0.42050001 0.917500019 0
vt 0.1052 0.888499975 0
vt 0.42050001 0.888599992 0
vt 0.1052 0.917400002 0
vt 0.150099993 0.989600003 0
vt 0.375499994 0.989700019 0
vt 0.871500015 0.105599999 0
vt 0.975899994 0.0791999996 0
vt 0.976000011 0.105400003 0
vt 0.871500015 0.079400003 0
vt 0.767099977 0.105899997 0
vt 0.76700002 0.0797000006 0
vt 0.622099996 0.551299989 0
vt 0.617299974 0.649600029 0
vt 0.604600012 0.647300005 0
vt 0.635999978 0.553799987 0
vt 0.364899993 0.649699986 0
vt 0.363599986 0.563799977 0
vt 0.377700001 0.647800028 0
vt 0.349700004 0.565900028 0
vt 0.0921000019 0.499300003 0
vt 0.0720999986 0.497999996 0
vt 0.0921000019 0.497999996 0
vt 0.0720999986 0.499300003 0
vt 0.0720999986 0.500500023 0
vt 0.0921000019 0.500500023 0
vt 0.0921000019 0.501800001 0
vt 0.0720999986 0.501800001 0
vt 0.0921000019 0.503000021 0
vt 0.0720999986 0.503000021 0
vt 0.0720999986 0.504199982 0
vt 0.0921000019 0.504199982 0
vt 0.0921000019 0.505500019 0
vt 0.0720999986 0.505500019 0
vt 0.0921000019 0.506699979 0
vt 0.0720999986 0.506699979 0
vt 0.0921000019 0.508000016 0
vt 0.0720999986 0.508000016 0
vt 0.0957000032 0.470499992 0
vt 0.0498000011 0.471799999 0
vt 0.0498000011 0.470499992 0
vt 0.0957000032 0.471799999 0
vt 0.0957000032 0.47299999 0
vt 0.0498000011 0.47299999 0
vt 0.0957000032 0.474299997 0
vt 0.0498000011 0.474299997 0
vt 0.0957000032 0.475499988 0
vt 0.0498000011 0.475499988 0
vt 0.0957000032 0.476700008 0
vt 0.0498000011 0.476700008 0
vt 0.0957000032 0.477999985 0
vt 0.0498000011 0.477999985 0
vt 0.0957000032 0.479200006 0
vt 0.0498000011 0.479200006 0
vt 0.0957000032 0.480500013 0
vt 0.0498000011 0.480500013 0
vt 0.0588000007 0.497900009 0
vt 0.0507999994 0.4991 0
vt 0.0507999994 0.497900009 0
vt 0.0588000007 0.4991 0
vt 0.0507999994 0.50029999 0
vt 0.0588000007 0.50029999 0
vt 0.0588000007 0.501600027 0
vt 0.0507999994 0.501600027 0
vt 0.0588000007 0.502799988 0
vt 0.0507999994 0.502799988 0
vt 0.0588000007 0.504100025 0
vt 0.0507999994 0.504100025 0
vt 0.0588000007 0.505299985 0
vt 0.0507999994 0.505299985 0
vt 0.0588000007 0.506600022 0
vt 0.0507999994 0.506600022 0
vt 0.0507999994 0.507799983 0
vt 0.0588000007 0.507799983 0
vt 0.203999996 0.452399999 0
vt 0.255699992 0.384299994 0
vt 0.256399989 0.413199991 0
vt 0.2016 0.34740001 0
vt 0.162699997 0.34830001 0
vt 0.165099993 0.453299999 0
vt 0.111000001 0.416500002 0
vt 0.110399999 0.387600005 0
vt 0.9727 0.273900002 0
vt 0.926900029 0.213599995 0
vt 0.979099989 0.195800006 0
vt 0.922399998 0.273400009 0
vt 0.814499974 0.212799996 0
vt 0.870899975 0.184 0
vt 0.962499976 0.306800008 0
vt 0.915799975 0.289000005 0
vt 0.818400025 0.273299992 0
vt 0.76819998 0.273099989 0
vt 0.762300014 0.194800004 0
vt 0.9472 0.326700002 0
vt 0.9023 0.298400015 0
vt 0.838400006 0.298400015 0
vt 0.824899971 0.288899988 0
vt 0.777999997 0.306199998 0
vt 0.921999991 0.343300015 0
vt 0.892199993 0.351599991 0
vt 0.886699975 0.301899999 0
vt 0.853999972 0.301899999 0
vt 0.84799999 0.350199997 0
vt 0.818300009 0.342900008 0
vt 0.793200016 0.326200008 0
vt 0.520099998 0.481299996 0
vt 0.488200009 0.517799973 0
vt 0.510699987 0.470800012 0
vt 0.496499985 0.530600011 0
vt 0.368699998 0.520799994 0
vt 0.361099988 0.533999979 0
vt 0.337500006 0.488700002 0
vt 0.345800012 0.477299988 0
vt 0.328900009 0.454299986 0
vt 0.381599993 0.425500005 0
vt 0.337500006 0.463999987 0
vt 0.376100004 0.412600011 0
vt 0.476200014 0.425000012 0
vt 0.481599987 0.412 0
vt 0.529200017 0.453299999 0
vt 0.520699978 0.463099986 0
vt 0.431100011 0.186900005 0
vt 0.476399988 0.211700007 0
vt 0.435400009 0.211799994 0
vt 0.480500013 0.186800003 0
vt 0.0711999983 0.187099993 0
vt 0.0557000004 0.187099993 0
vt 0.0634000003 0.185000002 0
vt 0.0768999979 0.1928 0
vt 0.0500000007 0.1928 0
vt 0.0790000036 0.200499997 0
vt 0.0478999987 0.200499997 0
vt 0.0500000007 0.208299994 0
vt 0.0768999979 0.208299994 0
vt 0.0557000004 0.214000002 0
vt 0.0711999983 0.214000002 0
vt 0.0634000003 0.216100007 0
vt 0.060899999 0.500699997 0
vt 0.0617999993 0.501600027 0
vt 0.0617999993 0.502799988 0
vt 0.059700001 0.500699997 0
vt 0.060899999 0.503700018 0
vt 0.059700001 0.503700018 0
vt 0.0930000022 0.503899992 0
vt 0.0930000022 0.500899971 0
vt 0.0942000002 0.503899992 0
vt 0.0951000005 0.503000021 0
vt 0.0942000002 0.500899971 0
vt 0.0951000005 0.501800001 0
vt 0.0966000035 0.476399988 0
vt 0.0978000015 0.476399988 0
vt 0.0966000035 0.473399997 0
vt 0.0978000015 0.473399997 0
vt 0.0987000018 0.475499988 0
vt 0.0987000018 0.474299997 0

# 233 vertex normals
vn 0 -0.961701095 0.274100274
vn 0 -0.849757612 0.527173638
vn 0 -1 -4.37113883e-08
vn 0 1 4.37113883e-08
vn -0.421390444 -3.96409554e-08 0.906879365
vn -0.254706591 -0.192204982 0.947724402
vn -0.259485722 -4.22141362e-08 0.96574688
vn -0.563891292 -0.197896972 0.801787615
vn -0.388615668 -0.387115657 0.836133659
vn -0.24050051 -0.377100825 0.894401789
vn -0.818008542 -2.51430556e-08 0.575206041
vn -0.888918042 -0.197904035 0.413108408
vn -0.754132152 -0.387216508 0.530422568
vn -0.996013582 -3.89910859e-09 0.0892012119
vn -0.976308584 -0.197901726 -0.0875007808
vn -0.918320477 -0.387208611 0.0822018087
vn -0.906879365 1.8419561e-08 -0.421390444
vn -0.801787615 -0.197896913 -0.563891292
vn -0.836133659 -0.387115628 -0.388615668
vn -0.575206041 3.57562904e-08 -0.818008542
vn -0.413108408 -0.197903976 -0.888918042
vn -0.530422509 -0.387216419 -0.754132092
vn -0.0892012119 4.35371348e-08 -0.996013582
vn 0.0875007808 -0.197901696 -0.976308644
vn -0.0822018385 -0.387208611 -0.918320477
vn 0.421390444 3.96409554e-08 -0.906879365
vn 0.563891292 -0.197896898 -0.801787615
vn 0.388615638 -0.387115538 -0.836133659
vn 0.818008542 2.51430556e-08 -0.575206041
vn 0.888918042 -0.197903991 -0.413108408
vn 0.754132092 -0.387216449 -0.530422568
vn 0.996013582 3.89910859e-09 -0.0892012119
vn 0.976308584 -0.197901741 0.087500751
vn 0.918320477 -0.387208611 -0.0822018459
vn 0.906879365 -1.8419561e-08 0.421390444
vn 0.801787615 -0.197896972 0.563891292
vn 0.836133659 -0.387115657 0.388615638
vn 0.575206041 -3.57562904e-08 0.818008542
vn 0.413108468 -0.19790408 0.888918161
vn 0.530422568 -0.387216508 0.754132152
vn 0.259485722 -4.22141362e-08 0.96574688
vn 0.254593849 -0.192095414 0.947776973
vn 0.2403972 -0.377195656 0.89438957
vn 0.996599317 -3.6018164e-09 0.0823999569
vn 0.999858856 -7.34321048e-10 0.0167993084
vn 0.988987625 -6.46920384e-09 0.147998154
vn 0.940346897 -1.48713557e-08 0.340216964
vn 0.885849118 -2.02809147e-08 0.463973314
vn 0.699718356 -3.1228236e-08 0.714418828
vn 0.454797387 -3.89291408e-08 0.8905949
vn 0.340899885 -4.10930596e-08 0.940099657
vn 0.142093271 -4.32678497e-08 0.989853144
vn 0.0590971783 -4.36349943e-08 0.998252273
vn -0.0796021298 -4.35726761e-08 0.996826649
vn -0.135398805 -4.33088587e-08 0.990791142
vn -0.319495827 -4.14203711e-08 0.947587609
vn -0.444892108 -3.91472206e-08 0.895584166
vn -0.655014277 -3.30290426e-08 0.755616426
vn -0.741810501 -2.93132736e-08 0.670609474
vn -0.915199935 -1.76156867e-08 0.402999997
vn -0.9933303 -5.0400768e-09 0.115303516
vn -0.999858856 -7.34321048e-10 0.0167993084
vn 0 -0.775207758 -0.631706357
vn -0.315511376 -0.735626519 -0.59942162
vn 0.315511376 -0.735626519 -0.59942162
vn -0.784569621 0.292188615 0.546878755
vn -0.785494089 0.324297518 0.527096033
vn -0.782526672 0.259808779 0.565819263
vn -0.531701446 -0.845202148 -0.0541001782
vn -0.518579781 -0.840567291 0.156593874
vn -0.513322353 -0.845336735 0.148006409
vn -0.516111195 -0.812417567 -0.271305919
vn -0.502628028 -0.784543693 -0.363120258
vn -0.537678182 -0.807767212 -0.241690233
vn -0.558190048 -0.811985552 -0.170597002
vn -0.575211108 -0.790615201 -0.20990409
vn -0.567534804 -0.781147838 -0.260215968
vn -0.586408734 -0.770111442 -0.251103789
vn -0.705311716 -0.461607665 -0.538008988
vn 0 -0.916244507 -0.400619447
vn -0.189300522 -0.913702488 -0.359601051
vn 0 -0.365296483 -0.930891156
vn 0.705311716 -0.461607665 -0.538008988
vn 0.189300522 -0.913702488 -0.359601051
vn -0.66327697 3.27124674e-08 -0.748373985
vn 0 4.37113883e-08 -1
vn 0.66327697 3.27124674e-08 -0.748373985
vn 0.98020184 8.65487149e-09 -0.198000371
vn -0.98020184 8.65487149e-09 -0.198000371
vn -0.464868069 -0.867140472 0.178787678
vn -0.828899622 -0.547699749 0.113799922
vn -0.911370635 -0.411586702 -1.79910256e-08
vn -0.388313979 -0.89223218 0.230508253
vn 0.256303042 -0.940211177 0.224302635
vn 0.597285688 -0.783281147 0.172395825
vn 0.811962426 -0.568473697 0.132493839
vn 0.887546122 -0.45912388 0.0383019708
vn -0.592780232 0.788573682 -0.163594499
vn -0.807530582 0.577321827 -0.120804556
vn -0.886909902 0.461105138 -0.0278002899
vn -0.252098709 0.942595184 -0.218998849
vn 0.462481737 0.869865716 -0.171593189
vn 0.381796151 0.896991014 -0.222797692
vn 0.826406777 0.553904533 -0.101200797
vn 0.913120866 0.407509297 0.0121002933
vn 0 0.976147056 0.21711047
vn -0.897702754 1.92592964e-08 -0.440601379
vn -0.926533043 1.64448117e-08 -0.376213431
vn -0.950870037 1.35326177e-08 -0.30959022
vn -0.914367378 1.76981096e-08 -0.40488559
vn -0.828215182 2.44963108e-08 -0.560410321
vn -0.907387853 1.83716491e-08 -0.420294374
vn -0.998594463 2.3166904e-09 -0.0529997051
vn -0.960845649 -1.21117409e-08 0.277084321
vn 0 0.486220151 0.873836339
vn 0 -4.37113883e-08 1
vn 0 0.849757493 0.527173638
vn 0.926533043 1.64448117e-08 -0.376213431
vn 0.897702754 1.92592964e-08 -0.440601379
vn 0.950870037 1.35326177e-08 -0.30959022
vn 0.914367378 1.76981096e-08 -0.40488559
vn 0.828215182 2.44963108e-08 -0.560410321
vn 0.907387853 1.83716491e-08 -0.420294374
vn 0.998594463 2.3166904e-09 -0.0529997051
vn 0.960845649 -1.21117409e-08 0.277084321
vn 0.567534804 -0.781147838 -0.260215968
vn 0.575211108 -0.790615201 -0.20990409
vn 0.586408734 -0.770111442 -0.251103789
vn 0.558190048 -0.811985552 -0.170597002
vn 0.537678182 -0.807767212 -0.241690233
vn 0.502628028 -0.784543693 -0.363120258
vn 0.516111195 -0.812417567 -0.271305919
vn 0.531701446 -0.845202148 -0.0541001782
vn 0.518579781 -0.840567291 0.156593874
vn 0.513322353 -0.845336735 0.148006409
vn 0.575211108 0.790615201 -0.209904015
vn 0.567534745 0.781147838 -0.260215878
vn 0.586408734 0.770111442 -0.251103699
vn 0.558190048 0.811985552 -0.170596942
vn 0.537678182 0.807767212 -0.241690144
vn 0.502627969 0.784543693 -0.363120139
vn 0.516111195 0.812417567 -0.271305829
vn 0.531701446 0.845202148 -0.0541001074
vn 0.518579721 0.840567231 0.156593919
vn 0.513322353 0.845336735 0.148006484
vn -0.567534745 0.781147838 -0.260215878
vn -0.575211108 0.790615201 -0.209904015
vn -0.586408734 0.770111442 -0.251103699
vn -0.558190048 0.811985552 -0.170596942
vn -0.537678182 0.807767212 -0.241690144
vn -0.502627969 0.784543693 -0.363120139
vn -0.516111195 0.812417567 -0.271305829
vn -0.531701446 0.845202148 -0.0541001074
vn -0.518579721 0.840567231 0.156593919
vn -0.513322353 0.845336735 0.148006484
vn 0.172792658 4.30538911e-08 -0.984958172
vn 0.465717614 3.86816659e-08 -0.884933352
vn -0.172792658 4.30538911e-08 -0.984958172
vn -0.465717614 3.86816659e-08 -0.884933352
vn 0.770340919 0.635433853 -0.0529027916
vn 0.770336807 0.635430455 -0.0530025139
vn 0.770381629 0.635384858 -0.0528987162
vn -0.769933462 0.6310274 -0.0949040875
vn -0.769609511 0.631407857 -0.0950011536
vn -0.770297885 0.630598307 -0.0947997272
vn -0.707106769 -3.09086126e-08 0.707106769
vn -0.925769806 -1.65267355e-08 0.37808764
vn 0.489601016 -0.582201183 0.649101317
vn 0.798328817 -2.63239475e-08 0.602221727
vn 0.965418518 -0.260705024 -1.13957777e-08
vn 1 0 0
vn 0.707106769 3.09086126e-08 -0.707106769
vn 0.134894565 4.33118608e-08 -0.990859985
vn -0.134894565 4.33118608e-08 -0.990859985
vn -0.602221727 3.48960647e-08 -0.798328817
vn -0.798328817 2.63239475e-08 -0.602221727
vn -0.925769806 1.65267355e-08 -0.37808764
vn -0.134894565 -4.33118608e-08 0.990859985
vn 0.134894565 -4.33118608e-08 0.990859985
vn 0.41039142 -0.731884718 0.543988705
vn 0.933240712 -0.336014658 0.127105549
vn 0.990859985 5.89642779e-09 -0.134894565
vn 0.798328817 2.63239475e-08 -0.602221727
vn 0.602221727 3.48960647e-08 -0.798328817
vn -0.798328817 -2.63239475e-08 0.602221727
vn -0.602221727 -3.48960647e-08 0.798328817
vn -0.707106769 3.09086126e-08 -0.707106769
vn 0.0627020299 4.36253771e-08 -0.998032272
vn 0.125203922 4.33674252e-08 -0.992130995
vn -0.0627020299 4.36253771e-08 -0.998032272
vn -0.125203922 4.33674252e-08 -0.992130995
vn 0.675982177 -0.734380722 0.0610983633
vn 0.36239028 -0.931974947 0.00979969651
vn 0.681204259 -0.732004523 0.0114000393
vn 0.3510952 -0.93338728 0.0742989406
vn -0.289090931 -0.957269907 0.00779971294
vn 0.621405482 -0.737706482 0.263902307
vn 0.239895806 -0.953183293 0.184096724
vn -0.3510952 -0.93338728 0.0742989406
vn -0.675982177 -0.734380722 0.0610983633
vn -0.681204259 -0.732004523 0.0114000393
vn 0.444592923 -0.736788332 0.509391904
vn 0.16319643 -0.912180007 0.375891715
vn -0.160307109 -0.911440492 0.37891677
vn -0.336307704 -0.905720711 0.258005857
vn -0.621405482 -0.737706482 0.263902307
vn 0.268302798 -0.739307702 0.617606461
vn 0.0708028972 -0.735030115 0.674327612
vn 0.052002389 -0.87784034 0.476121813
vn -0.0353987888 -0.898869216 0.436784953
vn -0.0985049605 -0.729236722 0.677133977
vn -0.257686228 -0.739260554 0.622166812
vn -0.444592923 -0.736788332 0.509391904
vn -0.064298898 -0.229496032 -0.97118336
vn -0.0428990126 -0.243794337 -0.968877673
vn -0.117800675 -0.179901004 -0.976605654
vn -0.00349993398 -0.27379477 -0.96178174
vn -0.0804964229 -0.171692327 -0.981856465
vn -0.115003906 -0.201406792 -0.972733021
vn -0.159896001 -0.0681982487 -0.984775245
vn -0.0906046107 -0.00850038882 -0.995850682
vn -0.458410412 0.421709538 0.782317698
vn -0.315307319 0.37600866 0.871320188
vn -0.449379683 0.437880129 0.778664768
vn -0.160806268 0.311212093 0.936636627
vn 0.237497598 0.34779644 0.906990886
vn 0.242111623 0.339416265 0.908943594
vn 0.458410412 0.421709538 0.782317698
vn 0.449379683 0.437880129 0.778664768
vn 0.784569621 0.292188615 0.546878755
vn 0.782526672 0.259808779 0.565819263
vn 0.785494089 0.324297518 0.527096033
vn 0 0.213201761 0.977008224

# Mesh 'PipelineFBX' with 307 faces
g PipelineFBX
usemtl DefaultMaterial
f  1/1/1 2/2/2 3/3/2
f  4/2/2 5/1/1 6/4/1
f  7/1/1 8/5/3 9/4/1
f  10/5/3 11/1/1 12/6/3
f  13/7/3 14/5/3 15/6/3
f  16/5/3 17/7/3 18/8/3
f  19/9/3 20/8/3 21/7/3
f  22/8/3 23/9/3 24/10/3
f  25/11/3 26/10/3 27/9/3
f  28/10/3 29/11/3 30/12/3
f  31/13/4 32/14/4 33/15/4
f  34/14/4 35/13/4 36/16/4
f  37/17/4 38/16/4 39/13/4
f  40/16/4 41/17/4 42/18/4
f  43/19/4 44/18/4 45/17/4
f  46/18/4 47/19/4 48/20/4
f  49/21/4 50/20/4 51/19/4
f  52/20/4 53/21/4 54/22/4
f  55/23/5 56/24/6 57/25/7
f  58/24/6 59/23/5 60/26/8
f  61/27/9 62/24/6 63/26/8
f  64/24/6 65/27/9 66/28/10
f  67/29/11 68/26/8 69/23/5
f  70/26/8 71/29/11 72/30/12
f  73/31/13 74/26/8 75/30/12
f  76/26/8 77/31/13 78/27/9
f  79/32/14 80/30/12 81/29/11
f  82/30/12 83/32/14 84/33/15
f  85/34/16 86/30/12 87/33/15
f  88/30/12 89/34/16 90/31/13
f  91/35/17 92/33/15 93/32/14
f  94/33/15 95/35/17 96/36/18
f  97/37/19 98/33/15 99/36/18
f  100/33/15 101/37/19 102/34/16
f  103/38/20 104/36/18 105/35/17
f  106/36/18 107/38/20 108/39/21
f  109/40/22 110/36/18 111/39/21
f  112/36/18 113/40/22 114/37/19
f  115/41/23 116/39/21 117/38/20
f  118/39/21 119/41/23 120/42/24
f  121/43/25 122/39/21 123/42/24
f  124/39/21 125/43/25 126/40/22
f  127/44/26 128/42/24 129/41/23
f  130/42/24 131/44/26 132/45/27
f  133/46/28 134/42/24 135/45/27
f  136/42/24 137/46/28 138/43/25
f  139/47/29 140/45/27 141/44/26
f  142/45/27 143/47/29 144/48/30
f  145/49/31 146/45/27 147/48/30
f  148/45/27 149/49/31 150/46/28
f  151/50/32 152/48/30 153/47/29
f  154/48/30 155/50/32 156/51/33
f  157/52/34 158/48/30 159/51/33
f  160/48/30 161/52/34 162/49/31
f  163/53/35 164/51/33 165/50/32
f  166/51/33 167/53/35 168/54/36
f  169/55/37 170/51/33 171/54/36
f  172/51/33 173/55/37 174/52/34
f  175/56/38 176/54/36 177/53/35
f  178/54/36 179/56/38 180/57/39
f  181/58/40 182/54/36 183/57/39
f  184/54/36 185/58/40 186/55/37
f  187/59/41 188/57/39 189/56/38
f  190/57/39 191/59/41 192/60/42
f  193/61/43 194/57/39 195/60/42
f  196/57/39 197/61/43 198/58/40
f  199/62/44 200/63/45 201/64/45
f  202/63/45 203/62/44 204/65/46
f  205/66/47 206/65/46 207/62/44
f  208/65/46 209/66/47 210/67/48
f  211/68/49 212/67/48 213/66/47
f  214/67/48 215/68/49 216/69/49
f  217/68/49 218/70/50 219/69/49
f  220/70/50 221/68/49 222/71/51
f  223/71/51 224/72/52 225/70/50
f  226/72/52 227/71/51 228/73/53
f  229/73/53 230/74/54 231/72/52
f  232/74/54 233/73/53 234/75/55
f  235/75/55 236/76/56 237/74/54
f  238/76/56 239/75/55 240/77/57
f  241/77/57 242/78/58 243/76/56
f  244/78/58 245/77/57 246/79/59
f  247/79/59 248/80/60 249/78/58
f  250/80/60 251/79/59 252/81/60
f  253/82/61 254/80/60 255/81/60
f  256/80/60 257/82/61 258/83/61
f  259/82/61 260/84/62 261/83/61
f  262/84/62 263/82/61 264/85/62
f  265/86/63 266/87/64 267/88/64
f  268/87/64 269/86/63 270/89/63
f  271/86/63 272/90/65 273/89/63
f  274/90/65 275/86/63 276/91/65
f  277/92/66 278/93/66 279/94/67
f  280/93/66 281/92/66 282/95/68
f  283/96/69 284/97/70 285/98/71
f  286/97/70 287/96/69 288/99/72
f  289/100/73 290/99/72 291/96/69
f  292/99/72 293/100/73 294/101/74
f  295/102/75 296/101/74 297/100/73
f  298/101/74 299/102/75 300/103/76
f  301/104/77 302/103/76 303/102/75
f  304/103/76 305/104/77 306/105/78
f  307/106/79 308/107/80 309/108/81
f  310/107/80 311/106/79 312/109/82
f  313/110/83 314/107/80 315/109/82
f  316/107/80 317/110/83 318/111/84
f  319/112/85 320/109/82 321/106/79
f  322/109/82 323/112/85 324/113/86
f  325/114/87 326/109/82 327/113/86
f  328/109/82 329/114/87 330/110/83
f  331/115/88 332/110/83 333/114/87
f  334/110/83 335/115/88 336/116/88
f  337/106/79 338/117/89 339/112/85
f  340/117/89 341/106/79 342/118/89
f  343/119/90 344/120/91 345/121/92
f  346/120/91 347/119/90 348/122/93
f  349/119/90 350/123/94 351/122/93
f  352/123/94 353/119/90 354/124/95
f  355/124/95 356/125/96 357/123/94
f  358/125/96 359/124/95 360/126/97
f  361/127/98 362/128/99 363/129/100
f  364/128/99 365/127/98 366/130/101
f  367/131/102 368/130/101 369/127/98
f  370/130/101 371/131/102 372/132/103
f  373/131/102 374/133/104 375/132/103
f  376/133/104 377/131/102 378/134/105
f  379/135/106 380/136/106 381/137/106
f  382/136/106 383/135/106 384/138/106
f  385/139/107 386/140/108 387/141/107
f  388/140/108 389/139/107 390/142/109
f  391/142/109 392/143/110 393/140/108
f  394/143/110 395/142/109 396/144/111
f  397/144/111 398/145/112 399/143/110
f  400/145/112 401/144/111 402/146/113
f  403/146/113 404/147/114 405/145/112
f  406/147/114 407/146/113 408/148/114
f  409/149/115 410/150/116 411/151/116
f  412/150/116 413/149/115 414/152/115
f  415/149/115 416/153/117 417/152/115
f  418/153/117 419/149/115 420/154/117
f  421/140/118 422/139/119 423/141/119
f  424/139/119 425/140/118 426/142/120
f  427/143/121 428/142/120 429/140/118
f  430/142/120 431/143/121 432/144/122
f  433/145/123 434/144/122 435/143/121
f  436/144/122 437/145/123 438/146/124
f  439/147/125 440/146/124 441/145/123
f  442/146/124 443/147/125 444/148/125
f  445/104/126 446/103/127 447/105/128
f  448/103/127 449/104/126 450/102/129
f  451/102/129 452/101/130 453/103/127
f  454/101/130 455/102/129 456/100/131
f  457/100/131 458/99/132 459/101/130
f  460/99/132 461/100/131 462/96/133
f  463/96/133 464/97/134 465/99/132
f  466/97/134 467/96/133 468/98/135
f  469/103/136 470/104/137 471/105/138
f  472/104/137 473/103/136 474/102/139
f  475/101/140 476/102/139 477/103/136
f  478/102/139 479/101/140 480/100/141
f  481/99/142 482/100/141 483/101/140
f  484/100/141 485/99/142 486/96/143
f  487/97/144 488/96/143 489/99/142
f  490/96/143 491/97/144 492/98/145
f  493/104/146 494/103/147 495/105/148
f  496/103/147 497/104/146 498/102/149
f  499/102/149 500/101/150 501/103/147
f  502/101/150 503/102/149 504/100/151
f  505/100/151 506/99/152 507/101/150
f  508/99/152 509/100/151 510/96/153
f  511/96/153 512/97/154 513/99/152
f  514/97/154 515/96/153 516/98/155
f  517/155/156 518/156/157 519/157/157
f  520/156/157 521/155/156 522/158/158
f  523/159/159 524/158/158 525/155/156
f  526/158/158 527/159/159 528/160/159
f  529/161/160 530/162/160 531/163/161
f  532/162/160 533/161/160 534/164/162
f  535/165/163 536/166/163 537/167/164
f  538/166/163 539/165/163 540/168/165
f  541/169/166 542/170/167 543/171/167
f  544/170/167 545/169/166 546/172/166
f  547/169/166 548/173/116 549/172/166
f  550/173/116 551/169/166 552/174/116
f  553/175/168 554/173/116 555/174/116
f  556/173/116 557/175/168 558/176/169
f  559/177/170 560/176/169 561/175/168
f  562/176/169 563/177/170 564/178/171
f  565/177/170 566/179/172 567/178/171
f  568/179/172 569/177/170 570/180/172
f  571/181/173 572/179/172 573/180/172
f  574/179/172 575/181/173 576/182/174
f  577/183/175 578/182/174 579/181/173
f  580/182/174 581/183/175 582/184/176
f  583/185/177 584/184/176 585/183/175
f  586/184/176 587/185/177 588/186/177
f  589/187/167 590/188/166 591/189/167
f  592/188/166 593/187/167 594/190/166
f  595/191/178 596/188/166 597/190/166
f  598/188/166 599/191/178 600/192/179
f  601/193/180 602/192/179 603/191/178
f  604/192/179 605/193/180 606/194/169
f  607/195/181 608/194/169 609/193/180
f  610/194/169 611/195/181 612/196/182
f  613/197/183 614/196/182 615/195/181
f  616/196/182 617/197/183 618/198/184
f  619/199/173 620/198/184 621/197/183
f  622/198/184 623/199/173 624/200/174
f  625/201/175 626/200/174 627/199/173
f  628/200/174 629/201/175 630/202/176
f  631/203/177 632/202/176 633/201/175
f  634/202/176 635/203/177 636/204/177
f  637/205/167 638/206/185 639/207/167
f  640/206/185 641/205/167 642/208/186
f  643/208/186 644/209/116 645/206/185
f  646/209/116 647/208/186 648/210/116
f  649/211/168 650/209/116 651/210/116
f  652/209/116 653/211/168 654/212/169
f  655/213/181 656/212/169 657/211/168
f  658/212/169 659/213/181 660/214/182
f  661/215/183 662/214/182 663/213/181
f  664/214/182 665/215/183 666/216/184
f  667/217/173 668/216/184 669/215/183
f  670/216/184 671/217/173 672/218/174
f  673/219/187 674/218/174 675/217/173
f  676/218/174 677/219/187 678/220/187
f  679/219/187 680/221/177 681/220/187
f  682/221/177 683/219/187 684/222/177
f  685/223/188 686/224/189 687/225/189
f  688/224/189 689/223/188 690/226/188
f  691/223/188 692/227/190 693/226/188
f  694/227/190 695/223/188 696/228/190
f  697/229/191 698/227/190 699/228/190
f  700/227/190 701/229/191 702/230/191
f  703/231/192 704/232/193 705/233/194
f  706/232/193 707/231/192 708/234/195
f  709/234/195 710/235/196 711/232/193
f  712/232/193 713/235/196 714/236/3
f  715/237/197 716/234/195 717/231/192
f  718/234/195 719/237/197 720/238/198
f  721/238/198 722/239/199 723/234/195
f  724/235/196 725/234/195 726/239/199
f  727/240/200 728/235/196 729/239/199
f  730/235/196 731/240/200 732/241/201
f  733/238/198 734/237/197 735/242/202
f  736/242/202 737/243/203 738/238/198
f  739/244/204 740/238/198 741/243/203
f  742/238/198 743/244/204 744/245/205
f  745/239/199 746/238/198 747/245/205
f  748/246/206 749/239/199 750/245/205
f  751/239/199 752/246/206 753/240/200
f  754/243/203 755/242/202 756/247/207
f  757/248/208 758/243/203 759/247/207
f  760/243/203 761/248/208 762/249/209
f  763/250/210 764/243/203 765/249/209
f  766/243/203 767/250/210 768/244/204
f  769/251/211 770/244/204 771/250/210
f  772/244/204 773/251/211 774/252/212
f  775/253/213 776/244/204 777/252/212
f  778/244/204 779/253/213 780/245/205
f  781/245/205 782/253/213 783/246/206
f  784/248/208 785/250/210 786/249/209
f  787/250/210 788/248/208 789/251/211
f  790/254/214 791/255/215 792/256/216
f  793/255/215 794/254/214 795/257/217
f  796/257/217 797/258/218 798/255/215
f  799/258/218 800/257/217 801/259/219
f  802/260/220 803/258/218 804/259/219
f  805/258/218 806/260/220 807/261/221
f  808/262/222 809/263/223 810/264/224
f  811/263/223 812/262/222 813/265/225
f  814/265/225 815/266/226 816/263/223
f  817/266/226 818/265/225 819/267/227
f  820/268/228 821/266/226 822/267/227
f  823/266/226 824/268/228 825/269/229
f  826/92/230 827/93/230 828/95/231
f  829/93/230 830/92/230 831/94/232
f  832/270/233 833/271/233 834/272/233
f  835/271/233 836/270/233 837/273/233
f  838/274/3 839/275/3 840/276/3
f  841/277/3 842/275/3 843/274/3
f  844/275/3 845/277/3 846/278/3
f  847/279/3 848/278/3 849/277/3
f  850/278/3 851/279/3 852/280/3
f  853/279/3 854/281/3 855/280/3
f  856/281/3 857/279/3 858/282/3
f  859/282/3 860/283/3 861/281/3
f  862/283/3 863/282/3 864/284/3
f  865/284/3 866/285/3 867/283/3
f  868/286/3 869/287/3 870/288/3
f  871/288/3 872/289/3 873/286/3
f  874/289/3 875/288/3 876/290/3
f  877/291/3 878/289/3 879/290/3
f  880/289/3 881/291/3 882/211/168
f  883/291/3 884/213/181 885/211/168
f  886/292/3 887/177/170 888/175/168
f  889/293/3 890/292/3 891/175/168
f  892/292/3 893/293/3 894/294/3
f  895/293/3 896/295/3 897/294/3
f  898/295/3 899/293/3 900/296/3
f  901/296/3 902/297/3 903/295/3
f  904/298/3 905/195/181 906/193/180
f  907/193/180 908/299/3 909/298/3
f  910/299/3 911/193/180 912/300/3
f  913/301/3 914/299/3 915/300/3
f  916/299/3 917/301/3 918/302/3
f  919/301/3 920/303/3 921/302/3

