# File produced by Open Asset Import Library (http://www.assimp.sf.net)
# (assimp v6.0.0)

mtllib asteroid1.mtl

# 546 vertex positions
v -66.0527878 149.961624 -27.7920113
v -1.69198656 153.784836 4.42079401
v -39.7151871 147.960037 -64.5264206
v -1.69198656 153.784836 4.42079401
v -66.0527878 149.961624 -27.7920113
v -67.0103912 140.148026 21.9671974
v -67.0103912 140.148026 21.9671974
v -27.9863892 126.468033 52.9128036
v -1.69198656 153.784836 4.42079401
v -27.9863892 126.468033 52.9128036
v 20.2608109 122.378426 91.9296188
v -1.69198656 153.784836 4.42079401
v -1.69198656 153.784836 4.42079401
v 20.2608109 122.378426 91.9296188
v 80.2368164 128.772018 92.7864075
v 80.2368164 128.772018 92.7864075
v 20.2608109 122.378426 91.9296188
v 66.837616 112.867218 116.81282
v 116.704811 53.8056107 146.030426
v 66.837616 112.867218 116.81282
v 20.2608109 122.378426 91.9296188
v -39.7151871 147.960037 -64.5264206
v -72.2304001 126.583229 -77.1408234
v -66.0527878 149.961624 -27.7920113
v -129.880798 106.581619 -41.2488136
v -66.0527878 149.961624 -27.7920113
v -72.2304001 126.583229 -77.1408234
v -66.0527878 149.961624 -27.7920113
v -129.880798 106.581619 -41.2488136
v -67.0103912 140.148026 21.9671974
v -129.880798 106.581619 -41.2488136
v -134.042404 95.1264343 21.2975998
v -67.0103912 140.148026 21.9671974
v -134.042404 95.1264343 21.2975998
v -70.3223953 93.6504288 81.6624146
v -67.0103912 140.148026 21.9671974
v -70.3223953 93.6504288 81.6624146
v -27.9863892 126.468033 52.9128036
v -67.0103912 140.148026 21.9671974
v -15.9695969 44.4024162 103.716019
v -27.9863892 126.468033 52.9128036
v -70.3223953 93.6504288 81.6624146
v -27.9863892 126.468033 52.9128036
v -15.9695969 44.4024162 103.716019
v 20.2608109 122.378426 91.9296188
v 20.2608109 122.378426 91.9296188
v -15.9695969 44.4024162 103.716019
v 66.5424042 47.3904114 140.637619
v 20.2608109 122.378426 91.9296188
v 66.5424042 47.3904114 140.637619
v 116.704811 53.8056107 146.030426
v 149.716812 -0.756006598 151.171234
v 116.704811 53.8056107 146.030426
v 66.5424042 47.3904114 140.637619
v -77.6088028 94.2768173 -77.8896179
v -129.880798 106.581619 -41.2488136
v -72.2304001 126.583229 -77.1408234
v -129.880798 106.581619 -41.2488136
v -77.6088028 94.2768173 -77.8896179
v -100.173592 61.0704155 -104.997627
v -162.986404 20.3328152 -87.1776199
v -129.880798 106.581619 -41.2488136
v -100.173592 61.0704155 -104.997627
v -129.880798 106.581619 -41.2488136
v -162.986404 20.3328152 -87.1776199
v -158.5224 67.6800232 -41.0760117
v -158.5224 67.6800232 -41.0760117
v -134.042404 95.1264343 21.2975998
v -129.880798 106.581619 -41.2488136
v -158.5224 67.6800232 -41.0760117
v -164.800797 24.2856178 -32.8752098
v -134.042404 95.1264343 21.2975998
v -134.042404 95.1264343 21.2975998
v -164.800797 24.2856178 -32.8752098
v -130.831207 36.0792198 32.6808052
v -87.8184052 8.21521282 74.1888123
v -134.042404 95.1264343 21.2975998
v -130.831207 36.0792198 32.6808052
v -134.042404 95.1264343 21.2975998
v -87.8184052 8.21521282 74.1888123
v -37.7711983 50.5080185 100.562424
v -37.7711983 50.5080185 100.562424
v -70.3223953 93.6504288 81.6624146
v -134.042404 95.1264343 21.2975998
v -15.9695969 44.4024162 103.716019
v -70.3223953 93.6504288 81.6624146
v -37.7711983 50.5080185 100.562424
v -162.986404 20.3328152 -87.1776199
v -164.800797 24.2856178 -32.8752098
v -158.5224 67.6800232 -41.0760117
v -146.930405 -34.4159966 -51.818409
v -164.800797 24.2856178 -32.8752098
v -162.986404 20.3328152 -87.1776199
v -146.930405 -34.4159966 -51.818409
v -129.477615 -20.1167927 -4.37039995
v -164.800797 24.2856178 -32.8752098
v -129.477615 -20.1167927 -4.37039995
v -130.831207 36.0792198 32.6808052
v -164.800797 24.2856178 -32.8752098
v -96.4152069 -31.3343964 48.4992142
v -130.831207 36.0792198 32.6808052
v -129.477615 -20.1167927 -4.37039995
v -96.4152069 -31.3343964 48.4992142
v -87.8184052 8.21521282 74.1888123
v -130.831207 36.0792198 32.6808052
v -87.8184052 8.21521282 74.1888123
v -96.4152069 -31.3343964 48.4992142
v -61.8912048 -36.1511955 87.026413
v -87.8184052 8.21521282 74.1888123
v -61.8912048 -36.1511955 87.026413
v -15.9695969 44.4024162 103.716019
v -87.8184052 8.21521282 74.1888123
v -15.9695969 44.4024162 103.716019
v -37.7711983 50.5080185 100.562424
v -118.166412 -51.638401 -117.871216
v -146.930405 -34.4159966 -51.818409
v -162.986404 20.3328152 -87.1776199
v -146.930405 -34.4159966 -51.818409
v -118.166412 -51.638401 -117.871216
v -119.210411 -84.2400055 12.5280056
v -146.930405 -34.4159966 -51.818409
v -119.210411 -84.2400055 12.5280056
v -129.477615 -20.1167927 -4.37039995
v -129.477615 -20.1167927 -4.37039995
v -119.210411 -84.2400055 12.5280056
v -125.143219 -79.6823959 58.1112099
v -125.143219 -79.6823959 58.1112099
v -96.4152069 -31.3343964 48.4992142
v -129.477615 -20.1167927 -4.37039995
v -125.143219 -79.6823959 58.1112099
v -66.9240036 -67.816803 77.1768188
v -96.4152069 -31.3343964 48.4992142
v -66.9240036 -67.816803 77.1768188
v -61.8912048 -36.1511955 87.026413
v -96.4152069 -31.3343964 48.4992142
v -66.9240036 -67.816803 77.1768188
v -23.0832062 -60.2928085 119.642433
v -61.8912048 -36.1511955 87.026413
v -61.8912048 -36.1511955 87.026413
v -23.0832062 -60.2928085 119.642433
v 31.2048016 12.5640059 123.883217
v -61.8912048 -36.1511955 87.026413
v 31.2048016 12.5640059 123.883217
v -15.9695969 44.4024162 103.716019
v 66.5424042 47.3904114 140.637619
v -15.9695969 44.4024162 103.716019
v 31.2048016 12.5640059 123.883217
v -48.5496101 -91.1088181 -60.1776085
v -119.210411 -84.2400055 12.5280056
v -118.166412 -51.638401 -117.871216
v -48.5496101 -91.1088181 -60.1776085
v -70.8984146 -130.51442 30.7152119
v -119.210411 -84.2400055 12.5280056
v -119.210411 -84.2400055 12.5280056
v -70.8984146 -130.51442 30.7152119
v -125.143219 -79.6823959 58.1112099
v -84.8592072 -94.8528061 97.9560242
v -125.143219 -79.6823959 58.1112099
v -70.8984146 -130.51442 30.7152119
v -84.8592072 -94.8528061 97.9560242
v -66.9240036 -67.816803 77.1768188
v -125.143219 -79.6823959 58.1112099
v -66.9240036 -67.816803 77.1768188
v -84.8592072 -94.8528061 97.9560242
v -23.0832062 -60.2928085 119.642433
v -84.8592072 -94.8528061 97.9560242
v -24.4368114 -108.072014 129.038422
v -23.0832062 -60.2928085 119.642433
v -24.4368114 -108.072014 129.038422
v 31.1903915 -96.0696182 115.941628
v -23.0832062 -60.2928085 119.642433
v 31.1903915 -96.0696182 115.941628
v 54.0647964 -29.7648029 158.536835
v -23.0832062 -60.2928085 119.642433
v 54.0647964 -29.7648029 158.536835
v 31.2048016 12.5640059 123.883217
v -23.0832062 -60.2928085 119.642433
v 121.651207 5.06879711 161.87764
v 31.2048016 12.5640059 123.883217
v 54.0647964 -29.7648029 158.536835
v 31.2048016 12.5640059 123.883217
v 121.651207 5.06879711 161.87764
v 66.5424042 47.3904114 140.637619
v 66.5424042 47.3904114 140.637619
v 121.651207 5.06879711 161.87764
v 149.716812 -0.756006598 151.171234
v -70.8984146 -130.51442 30.7152119
v -48.5496101 -91.1088181 -60.1776085
v -46.2456131 -118.951218 -30.6431999
v -70.8984146 -130.51442 30.7152119
v -46.2456131 -118.951218 -30.6431999
v -24.681612 -149.428833 25.3224106
v -24.681612 -149.428833 25.3224106
v -24.4368114 -108.072014 129.038422
v -70.8984146 -130.51442 30.7152119
v -84.8592072 -94.8528061 97.9560242
v -70.8984146 -130.51442 30.7152119
v -24.4368114 -108.072014 129.038422
v 25.6247883 -153.784836 15.2280102
v -24.4368114 -108.072014 129.038422
v -24.681612 -149.428833 25.3224106
v 69.8111954 -100.180817 94.5720291
v -24.4368114 -108.072014 129.038422
v 25.6247883 -153.784836 15.2280102
v 31.1903915 -96.0696182 115.941628
v -24.4368114 -108.072014 129.038422
v 69.8111954 -100.180817 94.5720291
v 54.0647964 -29.7648029 158.536835
v 31.1903915 -96.0696182 115.941628
v 69.8111954 -100.180817 94.5720291
v 54.0647964 -29.7648029 158.536835
v 69.8111954 -100.180817 94.5720291
v 126.799202 -55.3968163 151.488037
v 121.651207 5.06879711 161.87764
v 54.0647964 -29.7648029 158.536835
v 126.799202 -55.3968163 151.488037
v 126.799202 -55.3968163 151.488037
v 149.716812 -0.756006598 151.171234
v 121.651207 5.06879711 161.87764
v 149.716812 -0.756006598 151.171234
v 126.799202 -55.3968163 151.488037
v 162.5112 -36.4752159 140.536835
v 159.919205 -66.5208206 109.274414
v 162.5112 -36.4752159 140.536835
v 126.799202 -55.3968163 151.488037
v 126.799202 -55.3968163 151.488037
v 82.7207947 -127.778427 67.9536133
v 159.919205 -66.5208206 109.274414
v 69.8111954 -100.180817 94.5720291
v 82.7207947 -127.778427 67.9536133
v 126.799202 -55.3968163 151.488037
v 25.6247883 -153.784836 15.2280102
v 82.7207947 -127.778427 67.9536133
v 69.8111954 -100.180817 94.5720291
v -36.7703934 115.495224 -120.837639
v -72.2304001 126.583229 -77.1408234
v -39.7151871 147.960037 -64.5264206
v -36.7703934 115.495224 -120.837639
v -77.6088028 94.2768173 -77.8896179
v -72.2304001 126.583229 -77.1408234
v -36.7703934 115.495224 -120.837639
v -61.7615929 85.1472168 -139.744827
v -77.6088028 94.2768173 -77.8896179
v -77.6088028 94.2768173 -77.8896179
v -61.7615929 85.1472168 -139.744827
v -100.173592 61.0704155 -104.997627
v -100.173592 61.0704155 -104.997627
v -61.7615929 85.1472168 -139.744827
v -49.3847923 60.4152107 -159.400848
v -80.035202 20.8728046 -160.459229
v -100.173592 61.0704155 -104.997627
v -49.3847923 60.4152107 -159.400848
v -80.035202 20.8728046 -160.459229
v -162.986404 20.3328152 -87.1776199
v -100.173592 61.0704155 -104.997627
v 30.1968136 135.756012 -64.1808167
v -36.7703934 115.495224 -120.837639
v -39.7151871 147.960037 -64.5264206
v 30.1968136 135.756012 -64.1808167
v 21.2904091 88.0704041 -130.708832
v -36.7703934 115.495224 -120.837639
v -36.7703934 115.495224 -120.837639
v 21.2904091 88.0704041 -130.708832
v -49.3847923 60.4152107 -159.400848
v -61.7615929 85.1472168 -139.744827
v -36.7703934 115.495224 -120.837639
v -49.3847923 60.4152107 -159.400848
v 30.1968136 135.756012 -64.1808167
v -39.7151871 147.960037 -64.5264206
v 24.0480118 146.138428 -1.0728066
v 30.1968136 135.756012 -64.1808167
v 24.0480118 146.138428 -1.0728066
v 75.6360092 88.1568146 -23.0400066
v 54.2304115 109.252815 -58.1328125
v 30.1968136 135.756012 -64.1808167
v 75.6360092 88.1568146 -23.0400066
v 21.2904091 88.0704041 -130.708832
v 30.1968136 135.756012 -64.1808167
v 54.2304115 109.252815 -58.1328125
v 54.2304115 109.252815 -58.1328125
v 53.4528084 69.616806 -97.1928177
v 21.2904091 88.0704041 -130.708832
v 21.2904091 88.0704041 -130.708832
v 53.4528084 69.616806 -97.1928177
v 32.6664047 15.4079933 -131.191223
v -34.8120003 12.5927973 -161.87764
v 21.2904091 88.0704041 -130.708832
v 32.6664047 15.4079933 -131.191223
v -34.8120003 12.5927973 -161.87764
v -49.3847923 60.4152107 -159.400848
v 21.2904091 88.0704041 -130.708832
v -34.8120003 12.5927973 -161.87764
v -80.035202 20.8728046 -160.459229
v -49.3847923 60.4152107 -159.400848
v -39.7151871 147.960037 -64.5264206
v -1.69198656 153.784836 4.42079401
v 24.0480118 146.138428 -1.0728066
v -1.69198656 153.784836 4.42079401
v 110.354408 102.096016 56.7144051
v 24.0480118 146.138428 -1.0728066
v 92.0952072 101.030411 9.01439762
v 24.0480118 146.138428 -1.0728066
v 110.354408 102.096016 56.7144051
v 75.6360092 88.1568146 -23.0400066
v 24.0480118 146.138428 -1.0728066
v 92.0952072 101.030411 9.01439762
v 114.5952 30.4127979 14.925601
v 75.6360092 88.1568146 -23.0400066
v 92.0952072 101.030411 9.01439762
v 111.974403 -1.12320971 4.57200098
v 75.6360092 88.1568146 -23.0400066
v 114.5952 30.4127979 14.925601
v 100.281609 42.1487961 -48.4776115
v 75.6360092 88.1568146 -23.0400066
v 111.974403 -1.12320971 4.57200098
v 100.281609 42.1487961 -48.4776115
v 75.2112122 94.9896088 -68.4288177
v 75.6360092 88.1568146 -23.0400066
v 54.2304115 109.252815 -58.1328125
v 75.6360092 88.1568146 -23.0400066
v 75.2112122 94.9896088 -68.4288177
v 110.354408 102.096016 56.7144051
v -1.69198656 153.784836 4.42079401
v 80.2368164 128.772018 92.7864075
v 80.2368164 128.772018 92.7864075
v 127.497612 68.6448059 81.2520065
v 110.354408 102.096016 56.7144051
v 109.26001 59.9256058 51.0696068
v 110.354408 102.096016 56.7144051
v 127.497612 68.6448059 81.2520065
v 110.354408 102.096016 56.7144051
v 109.26001 59.9256058 51.0696068
v 92.0952072 101.030411 9.01439762
v 92.0952072 101.030411 9.01439762
v 109.26001 59.9256058 51.0696068
v 114.5952 30.4127979 14.925601
v 114.5952 30.4127979 14.925601
v 109.26001 59.9256058 51.0696068
v 141.768005 11.3831921 59.2992096
v 114.5952 30.4127979 14.925601
v 141.768005 11.3831921 59.2992096
v 134.193604 -25.7904148 58.7232094
v 114.5952 30.4127979 14.925601
v 134.193604 -25.7904148 58.7232094
v 111.974403 -1.12320971 4.57200098
v 80.2368164 128.772018 92.7864075
v 66.837616 112.867218 116.81282
v 127.497612 68.6448059 81.2520065
v 152.503204 43.5023994 124.574432
v 127.497612 68.6448059 81.2520065
v 66.837616 112.867218 116.81282
v 141.768005 11.3831921 59.2992096
v 127.497612 68.6448059 81.2520065
v 152.503204 43.5023994 124.574432
v 141.768005 11.3831921 59.2992096
v 109.26001 59.9256058 51.0696068
v 127.497612 68.6448059 81.2520065
v 152.503204 43.5023994 124.574432
v 66.837616 112.867218 116.81282
v 116.704811 53.8056107 146.030426
v 116.704811 53.8056107 146.030426
v 149.716812 -0.756006598 151.171234
v 152.503204 43.5023994 124.574432
v 141.768005 11.3831921 59.2992096
v 152.503204 43.5023994 124.574432
v 149.716812 -0.756006598 151.171234
v 141.768005 11.3831921 59.2992096
v 149.716812 -0.756006598 151.171234
v 164.800797 -22.716013 110.332825
v 134.193604 -25.7904148 58.7232094
v 141.768005 11.3831921 59.2992096
v 164.800797 -22.716013 110.332825
v 164.800797 -22.716013 110.332825
v 157.87439 -64.5264282 48.5568085
v 134.193604 -25.7904148 58.7232094
v 157.87439 -64.5264282 48.5568085
v 111.974403 -1.12320971 4.57200098
v 134.193604 -25.7904148 58.7232094
v 157.87439 -64.5264282 48.5568085
v 125.531998 -74.2320328 -16.0991993
v 111.974403 -1.12320971 4.57200098
v 125.531998 -74.2320328 -16.0991993
v 95.2559967 -53.121624 -53.7048073
v 111.974403 -1.12320971 4.57200098
v 95.2559967 -53.121624 -53.7048073
v 70.3728027 4.7087903 -92.3688126
v 111.974403 -1.12320971 4.57200098
v 111.974403 -1.12320971 4.57200098
v 70.3728027 4.7087903 -92.3688126
v 100.281609 42.1487961 -48.4776115
v 149.716812 -0.756006598 151.171234
v 162.5112 -36.4752159 140.536835
v 164.800797 -22.716013 110.332825
v 159.919205 -66.5208206 109.274414
v 164.800797 -22.716013 110.332825
v 162.5112 -36.4752159 140.536835
v 159.926407 -53.5176239 90.4608231
v 164.800797 -22.716013 110.332825
v 159.919205 -66.5208206 109.274414
v 157.87439 -64.5264282 48.5568085
v 164.800797 -22.716013 110.332825
v 159.926407 -53.5176239 90.4608231
v 157.87439 -64.5264282 48.5568085
v 159.926407 -53.5176239 90.4608231
v 136.461609 -102.816025 36.9792099
v 136.461609 -102.816025 36.9792099
v 125.531998 -74.2320328 -16.0991993
v 157.87439 -64.5264282 48.5568085
v 136.461609 -102.816025 36.9792099
v 110.980782 -121.226425 36.1944122
v 125.531998 -74.2320328 -16.0991993
v 110.980782 -121.226425 36.1944122
v 132.739197 -111.376839 -21.3407993
v 125.531998 -74.2320328 -16.0991993
v 125.531998 -74.2320328 -16.0991993
v 132.739197 -111.376839 -21.3407993
v 95.2559967 -53.121624 -53.7048073
v 82.7207947 -127.778427 67.9536133
v 159.926407 -53.5176239 90.4608231
v 159.919205 -66.5208206 109.274414
v 159.926407 -53.5176239 90.4608231
v 82.7207947 -127.778427 67.9536133
v 110.980782 -121.226425 36.1944122
v 136.461609 -102.816025 36.9792099
v 159.926407 -53.5176239 90.4608231
v 110.980782 -121.226425 36.1944122
v 82.7207947 -127.778427 67.9536133
v 112.622391 -130.010437 -18.7775974
v 110.980782 -121.226425 36.1944122
v 112.622391 -130.010437 -18.7775974
v 132.739197 -111.376839 -21.3407993
v 110.980782 -121.226425 36.1944122
v 132.739197 -111.376839 -21.3407993
v 112.622391 -130.010437 -18.7775974
v 97.2431946 -128.685638 -57.7008018
v 97.2431946 -128.685638 -57.7008018
v 109.763992 -89.7840271 -64.404007
v 132.739197 -111.376839 -21.3407993
v 132.739197 -111.376839 -21.3407993
v 109.763992 -89.7840271 -64.404007
v 95.2559967 -53.121624 -53.7048073
v 95.2559967 -53.121624 -53.7048073
v 109.763992 -89.7840271 -64.404007
v 62.1072006 -63.7704239 -79.8192139
v 62.1072006 -63.7704239 -79.8192139
v 50.0831947 -46.0584183 -97.7256241
v 95.2559967 -53.121624 -53.7048073
v 50.0831947 -46.0584183 -97.7256241
v 70.3728027 4.7087903 -92.3688126
v 95.2559967 -53.121624 -53.7048073
v 82.7207947 -127.778427 67.9536133
v 25.6247883 -153.784836 15.2280102
v 112.622391 -130.010437 -18.7775974
v 25.6247883 -153.784836 15.2280102
v 19.1447868 -138.693634 -61.9056015
v 112.622391 -130.010437 -18.7775974
v 97.2431946 -128.685638 -57.7008018
v 112.622391 -130.010437 -18.7775974
v 19.1447868 -138.693634 -61.9056015
v 19.1447868 -138.693634 -61.9056015
v 68.4287949 -100.620033 -119.55603
v 97.2431946 -128.685638 -57.7008018
v 68.4287949 -100.620033 -119.55603
v 109.763992 -89.7840271 -64.404007
v 97.2431946 -128.685638 -57.7008018
v 68.4287949 -100.620033 -119.55603
v 62.1072006 -63.7704239 -79.8192139
v 109.763992 -89.7840271 -64.404007
v 50.0831947 -46.0584183 -97.7256241
v 62.1072006 -63.7704239 -79.8192139
v 68.4287949 -100.620033 -119.55603
v 68.4287949 -100.620033 -119.55603
v -7.04880333 -36.2520142 -132.019226
v 50.0831947 -46.0584183 -97.7256241
v 32.6664047 15.4079933 -131.191223
v 50.0831947 -46.0584183 -97.7256241
v -7.04880333 -36.2520142 -132.019226
v 70.3728027 4.7087903 -92.3688126
v 50.0831947 -46.0584183 -97.7256241
v 32.6664047 15.4079933 -131.191223
v 32.6664047 15.4079933 -131.191223
v 53.4528084 69.616806 -97.1928177
v 70.3728027 4.7087903 -92.3688126
v 53.4528084 69.616806 -97.1928177
v 75.2112122 94.9896088 -68.4288177
v 70.3728027 4.7087903 -92.3688126
v 100.281609 42.1487961 -48.4776115
v 70.3728027 4.7087903 -92.3688126
v 75.2112122 94.9896088 -68.4288177
v 25.6247883 -153.784836 15.2280102
v -24.681612 -149.428833 25.3224106
v 19.1447868 -138.693634 -61.9056015
v -24.681612 -149.428833 25.3224106
v -46.2456131 -118.951218 -30.6431999
v 19.1447868 -138.693634 -61.9056015
v 19.1447868 -138.693634 -61.9056015
v -46.2456131 -118.951218 -30.6431999
v -48.5496101 -91.1088181 -60.1776085
v -48.5496101 -91.1088181 -60.1776085
v -6.3576088 -98.8560257 -74.2824097
v 19.1447868 -138.693634 -61.9056015
v -6.3576088 -98.8560257 -74.2824097
v 20.239193 -94.6656265 -119.793625
v 19.1447868 -138.693634 -61.9056015
v 19.1447868 -138.693634 -61.9056015
v 20.239193 -94.6656265 -119.793625
v 68.4287949 -100.620033 -119.55603
v -7.04880333 -36.2520142 -132.019226
v 68.4287949 -100.620033 -119.55603
v 20.239193 -94.6656265 -119.793625
v -7.04880333 -36.2520142 -132.019226
v 20.239193 -94.6656265 -119.793625
v -86.5656052 -10.7928019 -155.60643
v -34.8120003 12.5927973 -161.87764
v -7.04880333 -36.2520142 -132.019226
v -86.5656052 -10.7928019 -155.60643
v 32.6664047 15.4079933 -131.191223
v -7.04880333 -36.2520142 -132.019226
v -34.8120003 12.5927973 -161.87764
v -6.3576088 -98.8560257 -74.2824097
v -48.5496101 -91.1088181 -60.1776085
v -37.6200066 -64.9656143 -123.120026
v -37.6200066 -64.9656143 -123.120026
v 20.239193 -94.6656265 -119.793625
v -6.3576088 -98.8560257 -74.2824097
v -86.5656052 -10.7928019 -155.60643
v 20.239193 -94.6656265 -119.793625
v -37.6200066 -64.9656143 -123.120026
v -86.5656052 -10.7928019 -155.60643
v -37.6200066 -64.9656143 -123.120026
v -118.166412 -51.638401 -117.871216
v -86.5656052 -10.7928019 -155.60643
v -118.166412 -51.638401 -117.871216
v -162.986404 20.3328152 -87.1776199
v -80.035202 20.8728046 -160.459229
v -86.5656052 -10.7928019 -155.60643
v -162.986404 20.3328152 -87.1776199
v -86.5656052 -10.7928019 -155.60643
v -80.035202 20.8728046 -160.459229
v -34.8120003 12.5927973 -161.87764
v -37.6200066 -64.9656143 -123.120026
v -48.5496101 -91.1088181 -60.1776085
v -118.166412 -51.638401 -117.871216
v 54.2304115 109.252815 -58.1328125
v 75.2112122 94.9896088 -68.4288177
v 53.4528084 69.616806 -97.1928177

# 111 UV coordinates
vt 0.915799975 0.681699991 0
vt 0.968800008 0.641300023 0
vt 0.934099972 0.711099982 0
vt 0.914099991 0.642499983 0
vt 0.933600008 0.603699982 0
vt 0.954999983 0.557099998 0
vt 0.995800018 0.532299995 0
vt 0.971199989 0.516499996 0
vt 0.95480001 0.4463 0
vt 0.895200014 0.723800004 0
vt 0.852900028 0.690299988 0
vt 0.853200018 0.644200027 0
vt 0.890399992 0.593999982 0
vt 0.890399992 0.535899997 0
vt 0.928200006 0.476399988 0
vt 0.92869997 0.395799994 0
vt 0.864000022 0.735499978 0
vt 0.818700016 0.742600024 0
vt 0.763700008 0.69599998 0
vt 0.814499974 0.676299989 0
vt 0.785700023 0.657999992 0
vt 0.821799994 0.615800023 0
vt 0.831799984 0.568899989 0
vt 0.882799983 0.55250001 0
vt 0.738699973 0.639500022 0
vt 0.769900024 0.611999989 0
vt 0.796199977 0.569199979 0
vt 0.819100022 0.533800006 0
vt 0.684499979 0.661199987 0
vt 0.734899998 0.5704 0
vt 0.760399997 0.552999973 0
vt 0.796700001 0.529799998 0
vt 0.820100009 0.49059999 0
vt 0.889699996 0.488499999 0
vt 0.658299983 0.576499999 0
vt 0.716400027 0.513300002 0
vt 0.773599982 0.518000007 0
vt 0.787800014 0.475699991 0
vt 0.804499984 0.438899994 0
vt 0.868700027 0.446200013 0
vt 0.917100012 0.417499989 0
vt 0.669399977 0.541000009 0
vt 0.70450002 0.471199989 0
vt 0.708899975 0.423099995 0
vt 0.801800013 0.405699998 0
vt 0.877200007 0.389200002 0
vt 0.900300026 0.368000001 0
vt 0.863099992 0.349999994 0
vt 0.776600003 0.385699987 0
vt 0.76700002 0.0511000007 0
vt 0.77640003 0.0104 0
vt 0.817600012 0.0285 0
vt 0.74089998 0.00879999995 0
vt 0.730599999 0.0566000007 0
vt 0.690199971 0.0320999995 0
vt 0.720399976 0.0790999979 0
vt 0.683700025 0.0886999965 0
vt 0.620999992 0.0348999985 0
vt 0.832799971 0.0847999975 0
vt 0.774399996 0.0987000018 0
vt 0.884299994 0.0842000023 0
vt 0.856700003 0.144299999 0
vt 0.833500028 0.112800002 0
vt 0.794499993 0.128399998 0
vt 0.747600019 0.143700004 0
vt 0.704699993 0.112999998 0
vt 0.891499996 0.0636000037 0
vt 0.916999996 0.175899997 0
vt 0.88319999 0.154200003 0
vt 0.860199988 0.209299996 0
vt 0.838999987 0.224900007 0
vt 0.822799981 0.173700005 0
vt 0.825800002 0.130700007 0
vt 0.953700006 0.1567 0
vt 0.92110002 0.212300003 0
vt 0.895399988 0.201299995 0
vt 0.882399976 0.247199997 0
vt 0.861699998 0.268099993 0
vt 0.974900007 0.172999993 0
vt 0.936600029 0.253399998 0
vt 0.968100011 0.242599994 0
vt 0.937699974 0.296600014 0
vt 0.897599995 0.299199998 0
vt 0.837599993 0.29550001 0
vt 0.792400002 0.265399992 0
vt 0.778699994 0.227400005 0
vt 0.775399983 0.172999993 0
vt 0.912400007 0.319999993 0
vt 0.874000013 0.3292 0
vt 0.868499994 0.31220001 0
vt 0.802999973 0.309599996 0
vt 0.779799998 0.325800002 0
vt 0.768400013 0.281899989 0
vt 0.773699999 0.359600008 0
vt 0.752200007 0.293799996 0
vt 0.735599995 0.2685 0
vt 0.756500006 0.248099998 0
vt 0.74879998 0.211600006 0
vt 0.74150002 0.192100003 0
vt 0.686600029 0.330300003 0
vt 0.675599992 0.2667 0
vt 0.716600001 0.225099996 0
vt 0.700200021 0.160600007 0
vt 0.638999999 0.328200012 0
vt 0.620700002 0.265599996 0
vt 0.621900022 0.220500007 0
vt 0.656099975 0.228400007 0
vt 0.68900001 0.209700003 0
vt 0.663200021 0.106200002 0
vt 0.662299991 0.169400007 0
vt 0.6153 0.117200002 0

# 93 vertex normals
vn -0.349092305 0.933179915 -0.0854981989
vn 0.0638030022 0.986745417 0.149206832
vn -0.0393003859 0.951411605 -0.305403799
vn -0.352595627 0.865989745 0.354595751
vn -0.193404406 0.741117418 0.64291507
vn -0.316793263 0.611587286 0.724984884
vn 0.406100839 0.841801822 0.355600744
vn 0.306500137 0.688200295 0.657600224
vn 0.077300027 0.377200127 0.9229002
vn -0.559902132 0.595302522 -0.576302409
vn -0.629105389 0.688406169 -0.36100322
vn -0.783108592 0.343203932 0.518605769
vn -0.281001717 0.503203332 0.81720531
vn -0.298896611 0.177198097 0.937689483
vn -0.2012963 0.274495155 0.940283
vn 0.684495151 0.260998249 0.680695415
vn -0.634371459 0.51277709 -0.578474164
vn -0.585308015 0.552307665 -0.59360832
vn -0.853825569 0.137704208 -0.502015233
vn -0.921740294 0.385117024 -0.0456020236
vn -0.953468859 -0.113796204 0.279190898
vn -0.809616923 -0.15320316 0.566612005
vn -0.58132112 -0.0830029398 0.809429526
vn -0.407618582 0.0142007265 0.91304189
vn -0.922124386 -0.380210042 0.0716019198
vn -0.912178695 -0.139296681 0.385391086
vn -0.73866713 -0.000299892738 0.674070179
vn -0.591611207 -0.0132001648 0.806115329
vn -0.557016969 -0.677020669 -0.481014699
vn -0.787315905 -0.606012285 -0.113502286
vn -0.858034849 -0.0195006989 0.513220966
vn -0.591019571 0.35051173 0.726524115
vn -0.438387781 0.187194899 0.879075766
vn -0.426990926 0.191796064 0.883681536
vn -0.438710451 -0.752818048 -0.490711749
vn -0.566694498 -0.82349205 -0.0267997067
vn -0.655112863 -0.00490000751 0.755515039
vn -0.0698000863 -0.681800485 0.728200555
vn 0.162195131 -0.423887432 0.891073644
vn -0.171506792 -0.207708195 0.963038266
vn 0.00980029255 0.211505994 0.977327526
vn -0.527904689 -0.740106642 -0.416603714
vn -0.26608929 -0.963761091 -0.018999191
vn 0.0628008917 -0.974215448 0.216703489
vn 0.0584007576 -0.736410499 0.674009621
vn 0.205791578 -0.514279127 0.832566381
vn 0.838591337 -0.184698224 0.512494862
vn 0.836915255 -0.528509915 0.142302662
vn 0.321079433 -0.884843886 0.337578624
vn -0.213303223 0.71591121 -0.664810359
vn -0.58900696 0.588907182 -0.553406715
vn -0.193707004 0.376513779 -0.905933201
vn -0.426012993 0.222906843 -0.876826882
vn 0.499610603 0.804417074 -0.321406871
vn 0.515208602 0.409306794 -0.753012657
vn 0.449712485 0.877724349 -0.165404648
vn 0.816194892 0.543696582 -0.195498824
vn 0.639135659 0.685238123 -0.349219561
vn 0.657498538 0.330299258 -0.677198648
vn 0.590608239 -0.0846012905 -0.802511334
vn 0.203595251 -0.113297448 -0.972477615
vn 0.764421165 0.621817231 -0.17030476
vn 0.819832087 0.43201685 -0.375814766
vn 0.88881886 0.179103732 -0.421809047
vn 0.912180543 0.209995478 -0.35189262
vn 0.951886594 0.203197062 -0.22939682
vn 0.734953463 0.52056706 -0.434572548
vn 0.869807839 0.486204475 -0.0839007944
vn 0.88771826 0.261505336 -0.378907859
vn 0.910782754 0.208295986 -0.356493324
vn 0.889053941 0.173190951 -0.423778117
vn 0.841697454 0.493498474 0.219099343
vn 0.983111501 0.133101493 -0.125601485
vn 0.966566086 0.0666975677 -0.247591361
vn 0.92382282 -0.0249007195 -0.382009566
vn 0.793706059 0.156201139 -0.587904572
vn 0.788976371 -0.0131997019 -0.614281714
vn 0.85203433 -0.517821014 0.0768031329
vn 0.76310277 -0.640202641 -0.0884003192
vn 0.690060794 -0.698260665 0.19038929
vn 0.951978207 -0.20389545 -0.228394821
vn 0.405606121 -0.913714111 -0.0247003436
vn 0.540894687 -0.725993276 -0.424695969
vn 0.776378214 0.185394749 -0.602383196
vn 0.710712135 0.330505639 -0.621010721
vn 0.700894475 -0.0258998945 -0.712794483
vn -0.204898939 -0.870495439 -0.447497576
vn 0.556897879 -0.144599572 -0.817897022
vn 0.306001514 -0.166800961 -0.937304974
vn -0.457133859 -0.722453535 -0.518738449
vn -0.240807578 -0.607019186 -0.757323921
vn -0.239105985 -0.331308365 -0.912723005
vn -0.277402759 -0.800808012 -0.53080523

# Mesh 'PipelineFBX' with 182 faces
g PipelineFBX
usemtl DefaultMaterial
f  1/1/1 2/2/2 3/3/3
f  4/2/2 5/1/1 6/4/4
f  7/4/4 8/5/5 9/2/2
f  10/5/5 11/6/6 12/2/2
f  13/2/2 14/6/6 15/7/7
f  16/7/7 17/6/6 18/8/8
f  19/9/9 20/8/8 21/6/6
f  22/3/3 23/10/10 24/1/1
f  25/11/11 26/1/1 27/10/10
f  28/1/1 29/11/11 30/4/4
f  31/11/11 32/12/12 33/4/4
f  34/12/12 35/13/13 36/4/4
f  37/13/13 38/5/5 39/4/4
f  40/14/14 41/5/5 42/13/13
f  43/5/5 44/14/14 45/6/6
f  46/6/6 47/14/14 48/15/15
f  49/6/6 50/15/15 51/9/9
f  52/16/16 53/9/9 54/15/15
f  55/17/17 56/11/11 57/10/10
f  58/11/11 59/17/17 60/18/18
f  61/19/19 62/11/11 63/18/18
f  64/11/11 65/19/19 66/20/20
f  67/20/20 68/12/12 69/11/11
f  70/20/20 71/21/21 72/12/12
f  73/12/12 74/21/21 75/22/22
f  76/23/23 77/12/12 78/22/22
f  79/12/12 80/23/23 81/24/24
f  82/24/24 83/13/13 84/12/12
f  85/14/14 86/13/13 87/24/24
f  88/19/19 89/21/21 90/20/20
f  91/25/25 92/21/21 93/19/19
f  94/25/25 95/26/26 96/21/21
f  97/26/26 98/22/22 99/21/21
f  100/27/27 101/22/22 102/26/26
f  103/27/27 104/23/23 105/22/22
f  106/23/23 107/27/27 108/28/28
f  109/23/23 110/28/28 111/14/14
f  112/23/23 113/14/14 114/24/24
f  115/29/29 116/25/25 117/19/19
f  118/25/25 119/29/29 120/30/30
f  121/25/25 122/30/30 123/26/26
f  124/26/26 125/30/30 126/31/31
f  127/31/31 128/27/27 129/26/26
f  130/31/31 131/32/32 132/27/27
f  133/32/32 134/28/28 135/27/27
f  136/32/32 137/33/33 138/28/28
f  139/28/28 140/33/33 141/34/34
f  142/28/28 143/34/34 144/14/14
f  145/15/15 146/14/14 147/34/34
f  148/35/35 149/30/30 150/29/29
f  151/35/35 152/36/36 153/30/30
f  154/30/30 155/36/36 156/31/31
f  157/37/37 158/31/31 159/36/36
f  160/37/37 161/32/32 162/31/31
f  163/32/32 164/37/37 165/33/33
f  166/37/37 167/38/38 168/33/33
f  169/38/38 170/39/39 171/33/33
f  172/39/39 173/40/40 174/33/33
f  175/40/40 176/34/34 177/33/33
f  178/41/41 179/34/34 180/40/40
f  181/34/34 182/41/41 183/15/15
f  184/15/15 185/41/41 186/16/16
f  187/36/36 188/35/35 189/42/42
f  190/36/36 191/42/42 192/43/43
f  193/43/43 194/38/38 195/36/36
f  196/37/37 197/36/36 198/38/38
f  199/44/44 200/38/38 201/43/43
f  202/45/45 203/38/38 204/44/44
f  205/39/39 206/38/38 207/45/45
f  208/40/40 209/39/39 210/45/45
f  211/40/40 212/45/45 213/46/46
f  214/41/41 215/40/40 216/46/46
f  217/46/46 218/16/16 219/41/41
f  220/16/16 221/46/46 222/47/47
f  223/48/48 224/47/47 225/46/46
f  226/46/46 227/49/49 228/48/48
f  229/45/45 230/49/49 231/46/46
f  232/44/44 233/49/49 234/45/45
f  235/50/50 236/51/10 237/52/3
f  238/50/50 239/53/17 240/51/10
f  241/50/50 242/54/51 243/53/17
f  244/53/17 245/54/51 246/55/18
f  247/55/18 248/54/51 249/56/52
f  250/57/53 251/55/18 252/56/52
f  253/57/53 254/58/19 255/55/18
f  256/59/54 257/50/50 258/52/3
f  259/59/54 260/60/55 261/50/50
f  262/50/50 263/60/55 264/56/52
f  265/54/51 266/50/50 267/56/52
f  268/59/54 269/52/3 270/61/56
f  271/59/54 272/61/56 273/62/57
f  274/63/58 275/59/54 276/62/57
f  277/60/55 278/59/54 279/63/58
f  280/63/58 281/64/59 282/60/55
f  283/60/55 284/64/59 285/65/60
f  286/66/61 287/60/55 288/65/60
f  289/66/61 290/56/52 291/60/55
f  292/66/61 293/57/53 294/56/52
f  295/52/3 296/67/2 297/61/56
f  298/67/2 299/68/62 300/61/56
f  301/69/63 302/61/56 303/68/62
f  304/62/57 305/61/56 306/69/63
f  307/70/64 308/62/57 309/69/63
f  310/71/65 311/62/57 312/70/64
f  313/72/66 314/62/57 315/71/65
f  316/72/66 317/73/67 318/62/57
f  319/63/58 320/62/57 321/73/67
f  322/68/62 323/67/2 324/74/7
f  325/74/7 326/75/68 327/68/62
f  328/76/69 329/68/62 330/75/68
f  331/68/62 332/76/69 333/69/63
f  334/69/63 335/76/69 336/70/64
f  337/70/64 338/76/69 339/77/70
f  340/70/64 341/77/70 342/78/71
f  343/70/64 344/78/71 345/71/65
f  346/74/7 347/79/8 348/75/68
f  349/80/72 350/75/68 351/79/8
f  352/77/70 353/75/68 354/80/72
f  355/77/70 356/76/69 357/75/68
f  358/80/72 359/79/8 360/81/9
f  361/81/9 362/82/16 363/80/72
f  364/77/70 365/80/72 366/82/16
f  367/77/70 368/82/16 369/83/73
f  370/78/71 371/77/70 372/83/73
f  373/83/73 374/84/74 375/78/71
f  376/84/74 377/71/65 378/78/71
f  379/84/74 380/85/75 381/71/65
f  382/85/75 383/86/76 384/71/65
f  385/86/76 386/87/77 387/71/65
f  388/71/65 389/87/77 390/72/66
f  391/82/16 392/88/47 393/83/73
f  394/89/48 395/83/73 396/88/47
f  397/90/78 398/83/73 399/89/48
f  400/84/74 401/83/73 402/90/78
f  403/84/74 404/90/78 405/91/79
f  406/91/79 407/85/75 408/84/74
f  409/91/79 410/92/80 411/85/75
f  412/92/80 413/93/81 414/85/75
f  415/85/75 416/93/81 417/86/76
f  418/94/49 419/90/78 420/89/48
f  421/90/78 422/94/49 423/92/80
f  424/91/79 425/90/78 426/92/80
f  427/94/49 428/95/82 429/92/80
f  430/95/82 431/93/81 432/92/80
f  433/93/81 434/95/82 435/96/83
f  436/96/83 437/97/84 438/93/81
f  439/93/81 440/97/84 441/86/76
f  442/86/76 443/97/84 444/98/85
f  445/98/85 446/99/86 447/86/76
f  448/99/86 449/87/77 450/86/76
f  451/94/49 452/100/44 453/95/82
f  454/100/44 455/101/87 456/95/82
f  457/96/83 458/95/82 459/101/87
f  460/101/87 461/102/88 462/96/83
f  463/102/88 464/97/84 465/96/83
f  466/102/88 467/98/85 468/97/84
f  469/99/86 470/98/85 471/102/88
f  472/102/88 473/103/89 474/99/86
f  475/65/60 476/99/86 477/103/89
f  478/87/77 479/99/86 480/65/60
f  481/65/60 482/64/59 483/87/77
f  484/64/59 485/73/67 486/87/77
f  487/72/66 488/87/77 489/73/67
f  490/100/44 491/104/43 492/101/87
f  493/104/43 494/105/42 495/101/87
f  496/101/87 497/105/42 498/106/35
f  499/106/35 500/107/90 501/101/87
f  502/107/90 503/108/91 504/101/87
f  505/101/87 506/108/91 507/102/88
f  508/103/89 509/102/88 510/108/91
f  511/103/89 512/108/91 513/109/92
f  514/66/61 515/103/89 516/109/92
f  517/65/60 518/103/89 519/66/61
f  520/107/90 521/106/35 522/110/93
f  523/110/93 524/108/91 525/107/90
f  526/109/92 527/108/91 528/110/93
f  529/109/92 530/110/93 531/111/29
f  532/109/92 533/111/29 534/58/19
f  535/57/53 536/109/92 537/58/19
f  538/109/92 539/57/53 540/66/61
f  541/110/93 542/106/35 543/111/29
f  544/63/58 545/73/67 546/64/59

