# File produced by Open Asset Import Library (http://www.assimp.sf.net)
# (assimp v6.0.0)

mtllib asteroid2.mtl

# 546 vertex positions
v 26.8719997 -27.9800014 27.6739998
v 11.9019966 -40.8699951 15.2639999
v 24.1959972 -38.7980003 20.4239998
v 11.9019966 -40.8699951 15.2639999
v 26.8719997 -27.9800014 27.6739998
v 7.96399689 -31.4519978 34.973999
v -0.488003105 -35.6899986 23.5579987
v 11.9019966 -40.8699951 15.2639999
v 7.96399689 -31.4519978 34.973999
v -9.61800385 -39.423996 -11.2679968
v 11.9019966 -40.8699951 15.2639999
v -0.488003105 -35.6899986 23.5579987
v 11.9019966 -40.8699951 15.2639999
v -9.61800385 -39.423996 -11.2679968
v 1.93199646 -42.4779968 -12.4099979
v 1.93199646 -42.4779968 -12.4099979
v -9.61800385 -39.423996 -11.2679968
v -0.360002786 -32.1279984 -21.6519966
v 26.8719997 -27.9800014 27.6739998
v 10.289999 -20.4559975 40.1499977
v 7.96399689 -31.4519978 34.973999
v 7.96399689 -31.4519978 34.973999
v 10.289999 -20.4559975 40.1499977
v -2.8940022 -22.5079956 37.3059998
v -2.8940022 -22.5079956 37.3059998
v -0.488003105 -35.6899986 23.5579987
v 7.96399689 -31.4519978 34.973999
v -0.488003105 -35.6899986 23.5579987
v -2.8940022 -22.5079956 37.3059998
v -16.4440022 -27.9139938 31.0179977
v -16.4440022 -27.9139938 31.0179977
v -14.3180027 -34.6219978 19.4500008
v -0.488003105 -35.6899986 23.5579987
v -14.3180027 -34.6219978 19.4500008
v -9.61800385 -39.423996 -11.2679968
v -0.488003105 -35.6899986 23.5579987
v -16.5720024 -38.1939964 -4.40999842
v -9.61800385 -39.423996 -11.2679968
v -14.3180027 -34.6219978 19.4500008
v -9.61800385 -39.423996 -11.2679968
v -16.5720024 -38.1939964 -4.40999842
v -0.360002786 -32.1279984 -21.6519966
v 26.8719997 -27.9800014 27.6739998
v 35.723999 -18.052 42.223999
v 10.289999 -20.4559975 40.1499977
v 35.723999 -18.052 42.223999
v 19.4899998 -2.93599963 43.2019958
v 10.289999 -20.4559975 40.1499977
v 6.79399967 -5.82999897 36.1479988
v 10.289999 -20.4559975 40.1499977
v 19.4899998 -2.93599963 43.2019958
v -4.6240015 -13.3939972 32.8180008
v 10.289999 -20.4559975 40.1499977
v 6.79399967 -5.82999897 36.1479988
v -4.6240015 -13.3939972 32.8180008
v -2.8940022 -22.5079956 37.3059998
v 10.289999 -20.4559975 40.1499977
v -4.6240015 -13.3939972 32.8180008
v -16.4440022 -27.9139938 31.0179977
v -2.8940022 -22.5079956 37.3059998
v -14.4400015 -7.63399696 29.8079967
v -16.4440022 -27.9139938 31.0179977
v -4.6240015 -13.3939972 32.8180008
v -31.5680027 -9.66199589 17.0279999
v -16.4440022 -27.9139938 31.0179977
v -14.4400015 -7.63399696 29.8079967
v -16.4440022 -27.9139938 31.0179977
v -31.5680027 -9.66199589 17.0279999
v -28.682003 -28.8419971 22.3659992
v -28.682003 -28.8419971 22.3659992
v -14.3180027 -34.6219978 19.4500008
v -16.4440022 -27.9139938 31.0179977
v -16.5720024 -38.1939964 -4.40999842
v -14.3180027 -34.6219978 19.4500008
v -28.682003 -28.8419971 22.3659992
v 35.723999 -18.052 42.223999
v 36.2659988 -11.5960007 46.3099976
v 19.4899998 -2.93599963 43.2019958
v 19.4899998 -2.93599963 43.2019958
v 36.2659988 -11.5960007 46.3099976
v 28.4660015 8.32599831 43.9399986
v 12.9260015 8.25600052 46.7619934
v 19.4899998 -2.93599963 43.2019958
v 28.4660015 8.32599831 43.9399986
v 19.4899998 -2.93599963 43.2019958
v 12.9260015 8.25600052 46.7619934
v -0.549999654 4.06600142 37.2399979
v 6.79399967 -5.82999897 36.1479988
v 19.4899998 -2.93599963 43.2019958
v -0.549999654 4.06600142 37.2399979
v -0.549999654 4.06600142 37.2399979
v -4.6240015 -13.3939972 32.8180008
v 6.79399967 -5.82999897 36.1479988
v -9.31400013 5.73200226 39.0379982
v -4.6240015 -13.3939972 32.8180008
v -0.549999654 4.06600142 37.2399979
v -9.31400013 5.73200226 39.0379982
v -17.4740009 4.39800262 34.2539978
v -4.6240015 -13.3939972 32.8180008
v -17.4740009 4.39800262 34.2539978
v -14.4400015 -7.63399696 29.8079967
v -4.6240015 -13.3939972 32.8180008
v 35.723999 -18.052 42.223999
v 42.9979973 -7.00600147 43.6339989
v 36.2659988 -11.5960007 46.3099976
v 28.4660015 8.32599831 43.9399986
v 36.2659988 -11.5960007 46.3099976
v 42.9979973 -7.00600147 43.6339989
v 28.4660015 8.32599831 43.9399986
v 42.9979973 -7.00600147 43.6339989
v 34.3700027 13.0119982 31.8099976
v 34.3700027 13.0119982 31.8099976
v 18.5560017 19.2799988 41.4439964
v 28.4660015 8.32599831 43.9399986
v 18.5560017 19.2799988 41.4439964
v 12.9260015 8.25600052 46.7619934
v 28.4660015 8.32599831 43.9399986
v 12.9260015 8.25600052 46.7619934
v 18.5560017 19.2799988 41.4439964
v -0.549999654 4.06600142 37.2399979
v -0.549999654 4.06600142 37.2399979
v 18.5560017 19.2799988 41.4439964
v -9.31400013 5.73200226 39.0379982
v 11.2520027 25.513998 34.1139984
v -9.31400013 5.73200226 39.0379982
v 18.5560017 19.2799988 41.4439964
v -9.31400013 5.73200226 39.0379982
v 11.2520027 25.513998 34.1139984
v -17.4740009 4.39800262 34.2539978
v -1.14799762 28.2199993 31.0099964
v -17.4740009 4.39800262 34.2539978
v 11.2520027 25.513998 34.1139984
v -1.14799762 28.2199993 31.0099964
v -23.2919998 20.9920025 19.8799992
v -17.4740009 4.39800262 34.2539978
v -17.4740009 4.39800262 34.2539978
v -23.2919998 20.9920025 19.8799992
v -23.4540005 11.3060026 29.1879997
v -23.4540005 11.3060026 29.1879997
v -14.4400015 -7.63399696 29.8079967
v -17.4740009 4.39800262 34.2539978
v 21.5000038 28.9659977 38.9399986
v 18.5560017 19.2799988 41.4439964
v 34.3700027 13.0119982 31.8099976
v 11.2520027 25.513998 34.1139984
v 18.5560017 19.2799988 41.4439964
v 21.5000038 28.9659977 38.9399986
v 21.5000038 28.9659977 38.9399986
v 1.3020035 40.0999985 19.4919968
v 11.2520027 25.513998 34.1139984
v 1.3020035 40.0999985 19.4919968
v -1.14799762 28.2199993 31.0099964
v 11.2520027 25.513998 34.1139984
v -23.2919998 20.9920025 19.8799992
v -1.14799762 28.2199993 31.0099964
v 1.3020035 40.0999985 19.4919968
v -31.317997 25.5780029 8.92399883
v -23.2919998 20.9920025 19.8799992
v 1.3020035 40.0999985 19.4919968
v -23.2919998 20.9920025 19.8799992
v -31.317997 25.5780029 8.92399883
v -34.5180016 16.0140018 10.263998
v -34.5180016 16.0140018 10.263998
v -23.4540005 11.3060026 29.1879997
v -23.2919998 20.9920025 19.8799992
v -34.5180016 16.0140018 10.263998
v -34.1940002 -0.125996143 19.8259983
v -23.4540005 11.3060026 29.1879997
v -23.4540005 11.3060026 29.1879997
v -34.1940002 -0.125996143 19.8259983
v -14.4400015 -7.63399696 29.8079967
v -31.5680027 -9.66199589 17.0279999
v -14.4400015 -7.63399696 29.8079967
v -34.1940002 -0.125996143 19.8259983
v -31.5680027 -9.66199589 17.0279999
v -34.1940002 -0.125996143 19.8259983
v -33.4660034 -19.1699963 6.40200043
v -31.5680027 -9.66199589 17.0279999
v -33.4660034 -19.1699963 6.40200043
v -28.682003 -28.8419971 22.3659992
v 1.3020035 40.0999985 19.4919968
v 21.5000038 28.9659977 38.9399986
v 13.6900034 42.477993 15.4939966
v 2.78600383 42.4020004 3.06199789
v 1.3020035 40.0999985 19.4919968
v 13.6900034 42.477993 15.4939966
v -31.317997 25.5780029 8.92399883
v 1.3020035 40.0999985 19.4919968
v 2.78600383 42.4020004 3.06199789
v -23.8759956 32.1559982 2.29399848
v -31.317997 25.5780029 8.92399883
v 2.78600383 42.4020004 3.06199789
v -23.8759956 32.1559982 2.29399848
v -36.8660011 15.0240021 -3.46200037
v -31.317997 25.5780029 8.92399883
v -31.317997 25.5780029 8.92399883
v -36.8660011 15.0240021 -3.46200037
v -34.5180016 16.0140018 10.263998
v -37.8619995 7.71600246 -4.41400003
v -34.5180016 16.0140018 10.263998
v -36.8660011 15.0240021 -3.46200037
v -47.276001 -3.85199571 -2.01599979
v -34.5180016 16.0140018 10.263998
v -37.8619995 7.71600246 -4.41400003
v -34.1940002 -0.125996143 19.8259983
v -34.5180016 16.0140018 10.263998
v -47.276001 -3.85199571 -2.01599979
v -47.276001 -3.85199571 -2.01599979
v -33.4660034 -19.1699963 6.40200043
v -34.1940002 -0.125996143 19.8259983
v 13.6900034 42.477993 15.4939966
v 0.692002714 30.6279964 -25.0760002
v 2.78600383 42.4020004 3.06199789
v 0.692002714 30.6279964 -25.0760002
v -12.5959978 34.7779961 -12.5120001
v 2.78600383 42.4020004 3.06199789
v -12.5959978 34.7779961 -12.5120001
v -23.8759956 32.1559982 2.29399848
v 2.78600383 42.4020004 3.06199789
v -23.8759956 32.1559982 2.29399848
v -12.5959978 34.7779961 -12.5120001
v -29.1039982 23.1879997 -9.56600094
v -29.1039982 23.1879997 -9.56600094
v -36.8660011 15.0240021 -3.46200037
v -23.8759956 32.1559982 2.29399848
v -29.1039982 23.1879997 -9.56600094
v -27.868 13.9440002 -26.4960003
v -36.8660011 15.0240021 -3.46200037
v -36.8660011 15.0240021 -3.46200037
v -27.868 13.9440002 -26.4960003
v -37.8619995 7.71600246 -4.41400003
v -27.868 13.9440002 -26.4960003
v -31.3980007 5.84000158 -17.5359993
v -37.8619995 7.71600246 -4.41400003
v -42.3100014 -10.2079964 -13.2999992
v -37.8619995 7.71600246 -4.41400003
v -31.3980007 5.84000158 -17.5359993
v -42.3100014 -10.2079964 -13.2999992
v -47.276001 -3.85199571 -2.01599979
v -37.8619995 7.71600246 -4.41400003
v -47.276001 -3.85199571 -2.01599979
v -42.3100014 -10.2079964 -13.2999992
v -42.2279968 -15.7459946 -5.56599855
v -42.2279968 -15.7459946 -5.56599855
v -33.4660034 -19.1699963 6.40200043
v -47.276001 -3.85199571 -2.01599979
v -12.5959978 34.7779961 -12.5120001
v 0.692002714 30.6279964 -25.0760002
v -8.17799759 21.3759975 -30.1559982
v -24.2099991 24.8239994 -25.8239994
v -12.5959978 34.7779961 -12.5120001
v -8.17799759 21.3759975 -30.1559982
v -29.1039982 23.1879997 -9.56600094
v -12.5959978 34.7779961 -12.5120001
v -24.2099991 24.8239994 -25.8239994
v -29.1039982 23.1879997 -9.56600094
v -24.2099991 24.8239994 -25.8239994
v -27.868 13.9440002 -26.4960003
v -8.17799759 21.3759975 -30.1559982
v -27.868 13.9440002 -26.4960003
v -24.2099991 24.8239994 -25.8239994
v -8.17799759 21.3759975 -30.1559982
v -5.34799862 14.4219971 -36.8159981
v -27.868 13.9440002 -26.4960003
v -27.868 13.9440002 -26.4960003
v -5.34799862 14.4219971 -36.8159981
v -11.8540001 6.67399931 -35.3419952
v -11.8540001 6.67399931 -35.3419952
v -31.3980007 5.84000158 -17.5359993
v -27.868 13.9440002 -26.4960003
v -11.8540001 6.67399931 -35.3419952
v -34.7220001 -4.70999765 -26.645998
v -31.3980007 5.84000158 -17.5359993
v -31.3980007 5.84000158 -17.5359993
v -34.7220001 -4.70999765 -26.645998
v -42.3100014 -10.2079964 -13.2999992
v -32.6800003 -18.6959972 -16.7059994
v -42.3100014 -10.2079964 -13.2999992
v -34.7220001 -4.70999765 -26.645998
v -32.6800003 -18.6959972 -16.7059994
v -42.2279968 -15.7459946 -5.56599855
v -42.3100014 -10.2079964 -13.2999992
v 0.692002714 30.6279964 -25.0760002
v -5.34799862 14.4219971 -36.8159981
v -8.17799759 21.3759975 -30.1559982
v -21.9300022 -4.56799984 -38.223999
v -34.7220001 -4.70999765 -26.645998
v -11.8540001 6.67399931 -35.3419952
v -21.9300022 -4.56799984 -38.223999
v -20.9440002 -18.3899994 -25.1359978
v -34.7220001 -4.70999765 -26.645998
v -32.6800003 -18.6959972 -16.7059994
v -34.7220001 -4.70999765 -26.645998
v -20.9440002 -18.3899994 -25.1359978
v -22.2300034 -32.8479996 0.434001416
v -32.6800003 -18.6959972 -16.7059994
v -20.9440002 -18.3899994 -25.1359978
v -32.6800003 -18.6959972 -16.7059994
v -22.2300034 -32.8479996 0.434001416
v -42.2279968 -15.7459946 -5.56599855
v -22.2300034 -32.8479996 0.434001416
v -33.4660034 -19.1699963 6.40200043
v -42.2279968 -15.7459946 -5.56599855
v -22.2300034 -32.8479996 0.434001416
v -28.682003 -28.8419971 22.3659992
v -33.4660034 -19.1699963 6.40200043
v -22.2300034 -32.8479996 0.434001416
v -16.5720024 -38.1939964 -4.40999842
v -28.682003 -28.8419971 22.3659992
v -16.5720024 -38.1939964 -4.40999842
v -22.2300034 -32.8479996 0.434001416
v -15.1900024 -25.6899986 -17.1019974
v -16.5720024 -38.1939964 -4.40999842
v -15.1900024 -25.6899986 -17.1019974
v -0.360002786 -32.1279984 -21.6519966
v -6.02200222 -26.6800003 -29.0719986
v -20.9440002 -18.3899994 -25.1359978
v -21.9300022 -4.56799984 -38.223999
v -0.360002786 -32.1279984 -21.6519966
v -20.9440002 -18.3899994 -25.1359978
v -6.02200222 -26.6800003 -29.0719986
v -15.1900024 -25.6899986 -17.1019974
v -20.9440002 -18.3899994 -25.1359978
v -0.360002786 -32.1279984 -21.6519966
v -22.2300034 -32.8479996 0.434001416
v -20.9440002 -18.3899994 -25.1359978
v -15.1900024 -25.6899986 -17.1019974
v -6.02200222 -26.6800003 -29.0719986
v -4.48600149 -14.7220001 -42.2339973
v -0.360002786 -32.1279984 -21.6519966
v -6.02200222 -26.6800003 -29.0719986
v -21.9300022 -4.56799984 -38.223999
v -4.48600149 -14.7220001 -42.2339973
v 0.729999661 -3.94400167 -46.7619934
v -4.48600149 -14.7220001 -42.2339973
v -21.9300022 -4.56799984 -38.223999
v -4.48600149 -14.7220001 -42.2339973
v 0.729999661 -3.94400167 -46.7619934
v 15.6599998 -6.80600214 -34.779995
v -4.48600149 -14.7220001 -42.2339973
v 15.6599998 -6.80600214 -34.779995
v 22.5779972 -33.8800011 -26.0759964
v -0.360002786 -32.1279984 -21.6519966
v -4.48600149 -14.7220001 -42.2339973
v 22.5779972 -33.8800011 -26.0759964
v -0.360002786 -32.1279984 -21.6519966
v 22.5779972 -33.8800011 -26.0759964
v 1.93199646 -42.4779968 -12.4099979
v 22.5779972 -33.8800011 -26.0759964
v 21.9379959 -39.7280006 -0.543998241
v 1.93199646 -42.4779968 -12.4099979
v 11.9019966 -40.8699951 15.2639999
v 1.93199646 -42.4779968 -12.4099979
v 21.9379959 -39.7280006 -0.543998241
v 21.9379959 -39.7280006 -0.543998241
v 24.1959972 -38.7980003 20.4239998
v 11.9019966 -40.8699951 15.2639999
v -21.9300022 -4.56799984 -38.223999
v -11.8540001 6.67399931 -35.3419952
v 0.729999661 -3.94400167 -46.7619934
v 8.29400158 12.3959961 -36.1619987
v 0.729999661 -3.94400167 -46.7619934
v -11.8540001 6.67399931 -35.3419952
v 0.729999661 -3.94400167 -46.7619934
v 8.29400158 12.3959961 -36.1619987
v 15.6599998 -6.80600214 -34.779995
v 8.29400158 12.3959961 -36.1619987
v 29.4759979 7.56599617 -24.1720009
v 15.6599998 -6.80600214 -34.779995
v 15.6599998 -6.80600214 -34.779995
v 29.4759979 7.56599617 -24.1720009
v 38.0900002 1.19599605 -11.8899994
v 38.0900002 1.19599605 -11.8899994
v 30.3700008 -9.65000248 -13.8179989
v 15.6599998 -6.80600214 -34.779995
v 15.6599998 -6.80600214 -34.779995
v 30.3700008 -9.65000248 -13.8179989
v 29.5239983 -25.6360035 -18.9079971
v 22.5779972 -33.8800011 -26.0759964
v 15.6599998 -6.80600214 -34.779995
v 29.5239983 -25.6360035 -18.9079971
v 29.5239983 -25.6360035 -18.9079971
v 38.6139946 -25.2400017 -0.565998852
v 22.5779972 -33.8800011 -26.0759964
v 22.5779972 -33.8800011 -26.0759964
v 38.6139946 -25.2400017 -0.565998852
v 21.9379959 -39.7280006 -0.543998241
v 8.29400158 12.3959961 -36.1619987
v -11.8540001 6.67399931 -35.3419952
v -5.34799862 14.4219971 -36.8159981
v 9.50800133 21.7539959 -31.6859989
v 8.29400158 12.3959961 -36.1619987
v -5.34799862 14.4219971 -36.8159981
v 8.29400158 12.3959961 -36.1619987
v 9.50800133 21.7539959 -31.6859989
v 20.5840015 17.9219971 -25.4759998
v 20.5840015 17.9219971 -25.4759998
v 29.4759979 7.56599617 -24.1720009
v 8.29400158 12.3959961 -36.1619987
v 31.3740005 24.107996 -4.40000057
v 29.4759979 7.56599617 -24.1720009
v 20.5840015 17.9219971 -25.4759998
v 31.3740005 24.107996 -4.40000057
v 38.7980003 14.3779964 9.62799931
v 29.4759979 7.56599617 -24.1720009
v 38.0900002 1.19599605 -11.8899994
v 29.4759979 7.56599617 -24.1720009
v 38.7980003 14.3779964 9.62799931
v -5.34799862 14.4219971 -36.8159981
v 0.692002714 30.6279964 -25.0760002
v 9.50800133 21.7539959 -31.6859989
v 0.692002714 30.6279964 -25.0760002
v 13.6900034 42.477993 15.4939966
v 9.50800133 21.7539959 -31.6859989
v 13.6900034 42.477993 15.4939966
v 21.9680023 34.7079964 0.469998419
v 9.50800133 21.7539959 -31.6859989
v 9.50800133 21.7539959 -31.6859989
v 21.9680023 34.7079964 0.469998419
v 20.5840015 17.9219971 -25.4759998
v 21.9680023 34.7079964 0.469998419
v 31.3740005 24.107996 -4.40000057
v 20.5840015 17.9219971 -25.4759998
v 21.9680023 34.7079964 0.469998419
v 38.7980003 14.3779964 9.62799931
v 31.3740005 24.107996 -4.40000057
v 38.7980003 14.3779964 9.62799931
v 21.9680023 34.7079964 0.469998419
v 40.2700005 15.6839972 19.7699986
v 47.1120033 2.36599612 11.855999
v 38.7980003 14.3779964 9.62799931
v 40.2700005 15.6839972 19.7699986
v 47.1120033 2.36599612 11.855999
v 38.4600029 3.64599657 1.46999967
v 38.7980003 14.3779964 9.62799931
v 38.7980003 14.3779964 9.62799931
v 38.4600029 3.64599657 1.46999967
v 38.0900002 1.19599605 -11.8899994
v 13.6900034 42.477993 15.4939966
v 28.6620026 36.9319992 13.1619978
v 21.9680023 34.7079964 0.469998419
v 28.6620026 36.9319992 13.1619978
v 39.9660034 21.831995 20.383997
v 21.9680023 34.7079964 0.469998419
v 21.9680023 34.7079964 0.469998419
v 39.9660034 21.831995 20.383997
v 40.2700005 15.6839972 19.7699986
v 34.3700027 13.0119982 31.8099976
v 40.2700005 15.6839972 19.7699986
v 39.9660034 21.831995 20.383997
v 45.0960045 4.87199736 31.5639973
v 40.2700005 15.6839972 19.7699986
v 34.3700027 13.0119982 31.8099976
v 47.1120033 2.36599612 11.855999
v 40.2700005 15.6839972 19.7699986
v 45.0960045 4.87199736 31.5639973
v 42.9239998 -7.29400253 18.2079983
v 47.1120033 2.36599612 11.855999
v 45.0960045 4.87199736 31.5639973
v 42.9239998 -7.29400253 18.2079983
v 34.6980019 -3.8640027 3.54999995
v 47.1120033 2.36599612 11.855999
v 47.1120033 2.36599612 11.855999
v 34.6980019 -3.8640027 3.54999995
v 38.4600029 3.64599657 1.46999967
v 34.6980019 -3.8640027 3.54999995
v 38.0900002 1.19599605 -11.8899994
v 38.4600029 3.64599657 1.46999967
v 28.6620026 36.9319992 13.1619978
v 13.6900034 42.477993 15.4939966
v 21.5000038 28.9659977 38.9399986
v 39.9660034 21.831995 20.383997
v 28.6620026 36.9319992 13.1619978
v 21.5000038 28.9659977 38.9399986
v 39.9660034 21.831995 20.383997
v 21.5000038 28.9659977 38.9399986
v 34.3700027 13.0119982 31.8099976
v 34.3700027 13.0119982 31.8099976
v 42.9979973 -7.00600147 43.6339989
v 45.0960045 4.87199736 31.5639973
v 42.9979973 -7.00600147 43.6339989
v 47.276001 -10.7420015 35.6019974
v 45.0960045 4.87199736 31.5639973
v 42.9239998 -7.29400253 18.2079983
v 45.0960045 4.87199736 31.5639973
v 47.276001 -10.7420015 35.6019974
v 42.7759972 -19.8759995 29.2539997
v 42.9239998 -7.29400253 18.2079983
v 47.276001 -10.7420015 35.6019974
v 42.9239998 -7.29400253 18.2079983
v 42.7759972 -19.8759995 29.2539997
v 40.9539986 -19.5760002 13.1880007
v 34.4839973 -15.4440022 4.3380003
v 42.9239998 -7.29400253 18.2079983
v 40.9539986 -19.5760002 13.1880007
v 34.4839973 -15.4440022 4.3380003
v 34.6980019 -3.8640027 3.54999995
v 42.9239998 -7.29400253 18.2079983
v 33.3099976 -15.5460014 -4.24999952
v 34.6980019 -3.8640027 3.54999995
v 34.4839973 -15.4440022 4.3380003
v 38.0900002 1.19599605 -11.8899994
v 34.6980019 -3.8640027 3.54999995
v 33.3099976 -15.5460014 -4.24999952
v 33.3099976 -15.5460014 -4.24999952
v 30.3700008 -9.65000248 -13.8179989
v 38.0900002 1.19599605 -11.8899994
v 47.276001 -10.7420015 35.6019974
v 42.9979973 -7.00600147 43.6339989
v 35.723999 -18.052 42.223999
v 42.7759972 -19.8759995 29.2539997
v 47.276001 -10.7420015 35.6019974
v 35.723999 -18.052 42.223999
v 26.8719997 -27.9800014 27.6739998
v 42.7759972 -19.8759995 29.2539997
v 35.723999 -18.052 42.223999
v 42.7759972 -19.8759995 29.2539997
v 26.8719997 -27.9800014 27.6739998
v 36.2039986 -33.6020012 7.51400089
v 40.9539986 -19.5760002 13.1880007
v 42.7759972 -19.8759995 29.2539997
v 36.2039986 -33.6020012 7.51400089
v 36.2039986 -33.6020012 7.51400089
v 38.6139946 -25.2400017 -0.565998852
v 40.9539986 -19.5760002 13.1880007
v 40.9539986 -19.5760002 13.1880007
v 38.6139946 -25.2400017 -0.565998852
v 34.4839973 -15.4440022 4.3380003
v 34.4839973 -15.4440022 4.3380003
v 38.6139946 -25.2400017 -0.565998852
v 33.3099976 -15.5460014 -4.24999952
v 29.5239983 -25.6360035 -18.9079971
v 33.3099976 -15.5460014 -4.24999952
v 38.6139946 -25.2400017 -0.565998852
v 33.3099976 -15.5460014 -4.24999952
v 29.5239983 -25.6360035 -18.9079971
v 30.3700008 -9.65000248 -13.8179989
v 26.8719997 -27.9800014 27.6739998
v 24.1959972 -38.7980003 20.4239998
v 36.2039986 -33.6020012 7.51400089
v 24.1959972 -38.7980003 20.4239998
v 21.9379959 -39.7280006 -0.543998241
v 36.2039986 -33.6020012 7.51400089
v 38.6139946 -25.2400017 -0.565998852
v 36.2039986 -33.6020012 7.51400089
v 21.9379959 -39.7280006 -0.543998241

# 108 UV coordinates
vt 0.56370002 0.354900002 0
vt 0.474400014 0.339399993 0
vt 0.522599995 0.328999996 0
vt 0.523400009 0.3926 0
vt 0.478500009 0.382299989 0
vt 0.359100014 0.387800008 0
vt 0.360199988 0.354999989 0
vt 0.309399992 0.389800012 0
vt 0.552100003 0.41839999 0
vt 0.517199993 0.428499997 0
vt 0.478799999 0.435000002 0
vt 0.450100005 0.412099987 0
vt 0.377099991 0.407799989 0
vt 0.621399999 0.398999989 0
vt 0.597800016 0.460700005 0
vt 0.558499992 0.465299994 0
vt 0.521799982 0.457500011 0
vt 0.501399994 0.481599987 0
vt 0.444999993 0.493699998 0
vt 0.444499999 0.446999997 0
vt 0.632700026 0.422199994 0
vt 0.632700026 0.488900006 0
vt 0.595700026 0.500500023 0
vt 0.553200006 0.500699997 0
vt 0.534200013 0.512600005 0
vt 0.510599971 0.515900016 0
vt 0.657599986 0.428499997 0
vt 0.668099999 0.50819999 0
vt 0.612600029 0.538500011 0
vt 0.58859998 0.569700003 0
vt 0.551500022 0.580500007 0
vt 0.485500008 0.568599999 0
vt 0.492599994 0.5352 0
vt 0.623300016 0.571799994 0
vt 0.539099991 0.632000029 0
vt 0.451400012 0.584999979 0
vt 0.443699986 0.562699974 0
vt 0.453900009 0.516499996 0
vt 0.409999996 0.474900007 0
vt 0.559700012 0.667699993 0
vt 0.501100004 0.663900018 0
vt 0.449800014 0.613699973 0
vt 0.408899993 0.574299991 0
vt 0.396800011 0.559400022 0
vt 0.395099998 0.524900019 0
vt 0.398200005 0.708000004 0
vt 0.426499993 0.658299983 0
vt 0.408499986 0.605400026 0
vt 0.353700012 0.606299996 0
vt 0.359299988 0.57160002 0
vt 0.363700002 0.51910001 0
vt 0.380199999 0.5 0
vt 0.354900002 0.669099987 0
vt 0.375699997 0.630400002 0
vt 0.317200005 0.663500011 0
vt 0.301899999 0.619700015 0
vt 0.328700006 0.538600028 0
vt 0.346500009 0.488799989 0
vt 0.284999996 0.549700022 0
vt 0.31220001 0.475800008 0
vt 0.387800008 0.428499997 0
vt 0.331499994 0.439099997 0
vt 0.287099987 0.424299985 0
vt 0.174899995 0.470400006 0
vt 0.124200001 0.452300012 0
vt 0.208199993 0.458900005 0
vt 0.079400003 0.494100004 0
vt 0.0974000022 0.430900007 0
vt 0.125799999 0.390599996 0
vt 0.204099998 0.397399992 0
vt 0.258100003 0.438300014 0
vt 0.265700012 0.36469999 0
vt 0.318199992 0.359499991 0
vt 0.306400001 0.315699995 0
vt 0.0467999987 0.4472 0
vt 0.0653000027 0.383100003 0
vt 0.112599999 0.333600014 0
vt 0.146599993 0.306699991 0
vt 0.166999996 0.333900005 0
vt 0.197799996 0.364499986 0
vt 0.226099998 0.318599999 0
vt 0.0364999995 0.412099987 0
vt 0.0469000004 0.357800007 0
vt 0.0768999979 0.335299999 0
vt 0.0942000002 0.268000007 0
vt 0.137199998 0.238700002 0
vt 0.0118000004 0.3389 0
vt 0.0276999995 0.2016 0
vt 0.0590999983 0.248199999 0
vt 0.145400003 0.209999993 0
vt 0.174999997 0.243300006 0
vt 0.156000003 0.272199988 0
vt 0.0734999999 0.211799994 0
vt 0.130099997 0.202500001 0
vt 0.157299995 0.169400007 0
vt 0.192399994 0.196099997 0
vt 0.2086 0.246099994 0
vt 0.178800002 0.281899989 0
vt 0.0938000008 0.134900004 0
vt 0.244200006 0.180299997 0
vt 0.239299998 0.207900003 0
vt 0.255499989 0.239099994 0
vt 0.231399998 0.277200013 0
vt 0.205799997 0.2958 0
vt 0.194399998 0.316700011 0
vt 0.282799989 0.206699997 0
vt 0.300599992 0.269699991 0
vt 0.256799996 0.315299988 0

# 93 vertex normals
vn 0.309105784 -0.740613818 0.596611142
vn -0.0423018523 -0.946839333 0.318913311
vn 0.302403152 -0.866109073 0.398004204
vn 0.00990003999 -0.719707251 0.694207072
vn -0.20260261 -0.882610917 0.424205273
vn -0.324010462 -0.932629704 -0.158805013
vn -0.0648016706 -0.94352299 -0.324907869
vn -0.352318168 -0.6985358 -0.622831941
vn -0.148398459 -0.191597894 0.97018975
vn -0.318490595 -0.262092113 0.910972834
vn -0.415213495 -0.311509967 0.854727626
vn -0.191200972 -0.941004157 0.279201239
vn -0.602366328 -0.733358741 -0.315182269
vn 0.303092867 -0.63498503 0.710583329
vn -0.259886414 -0.22628805 0.938750684
vn -0.362804681 -0.081300959 0.928311825
vn -0.304405332 -0.0442006961 0.951516569
vn -0.556411326 -0.205804035 0.80501622
vn -0.744995475 -0.120499149 0.656095862
vn -0.737972975 -0.607377529 0.294089168
vn 0.0802014321 -0.194503456 0.977617562
vn 0.300401658 0.303301603 0.904304624
vn -0.19450739 0.0749028996 0.978037
vn -0.235996589 -0.219296694 0.946686089
vn -0.228605285 0.031100776 0.973022282
vn -0.464207917 0.150102615 0.872914791
vn 0.6718629 0.122593179 0.730459571
vn 0.661292255 0.437694758 0.609192729
vn -0.00369990221 0.368593484 0.929583371
vn -0.343521237 0.499731004 0.795149148
vn -0.320795894 0.540493071 0.77778995
vn -0.472995192 0.573694229 0.668693125
vn -0.631167352 0.22178857 0.743261456
vn 0.226297989 0.622494221 0.749193013
vn -0.320894569 0.792586625 0.518491209
vn -0.667199373 0.67339927 0.318399608
vn -0.86186552 0.369285285 0.347586006
vn -0.755306125 -0.138801023 0.640505195
vn -0.833792329 -0.449095666 0.321096987
vn 0.242798179 0.96699208 -0.0772994086
vn -0.166703954 0.985323727 -0.0367009267
vn -0.592135072 0.803147495 -0.0658039302
vn -0.899236739 0.417417049 -0.130905345
vn -0.899275422 0.296991915 -0.321091205
vn -0.994700134 0.0274000876 0.0990999863
vn 0.043598704 0.799874783 -0.598581135
vn -0.343598932 0.862297297 -0.371998876
vn -0.749796152 0.620296836 -0.230298802
vn -0.726992905 0.188398167 -0.66029346
vn -0.817067325 0.223691076 -0.531378686
vn -0.877009511 -0.0127000781 -0.480305135
vn -0.786444306 -0.616134465 -0.0434024073
vn -0.244304955 0.590312064 -0.76931572
vn -0.522407889 0.626709402 -0.578208745
vn -0.157305345 0.389413238 -0.907530963
vn -0.417301238 0.302900881 -0.856802583
vn -0.736703038 0.0206001159 -0.675902665
vn -0.552805543 -0.665506423 -0.501504838
vn -0.540994585 -0.185598075 -0.820291519
vn -0.462596238 -0.73089385 -0.501795769
vn -0.643630624 -0.723934293 -0.248311743
vn -0.534401 -0.671901047 -0.512800753
vn -0.365089297 -0.745077848 -0.558183432
vn 0.00119994092 -0.569495559 -0.82199353
vn 0.0618004166 0.133600801 -0.989106357
vn 0.660895765 -0.121999279 -0.740495026
vn 0.434508622 -0.639512777 -0.634212554
vn 0.375293314 -0.915383697 -0.145697355
vn 0.330786765 0.277888715 -0.901863635
vn 0.747296572 0.27059859 -0.606897116
vn 0.934531629 -0.201106891 -0.293609917
vn 0.850031257 -0.178906664 -0.495418161
vn 0.873352706 0.0187010281 -0.486729264
vn 0.931594193 -0.136499226 -0.33689779
vn 0.315617234 0.664835989 -0.677036762
vn 0.57571125 0.530010104 -0.622612059
vn 0.761641145 0.56013006 -0.325817555
vn 0.8722651 0.431682497 -0.229790762
vn 0.624526501 0.670128167 -0.401116967
vn 0.894517064 0.446608305 -0.019500386
vn 0.941916347 -0.00530018844 -0.335805774
vn 0.934789181 -0.152298301 -0.320896208
vn 0.601376295 0.798868179 -0.0124995383
vn 0.932729542 0.352411062 0.0763023943
vn 0.904223442 0.330708444 0.270206928
vn 0.934142113 -0.177008048 -0.309913903
vn 0.903906822 -0.327102482 -0.275602043
vn 0.946304321 -0.250701159 0.204100907
vn 0.817175567 -0.561883211 0.128496155
vn 0.968081653 -0.0204997007 -0.249795198
vn 0.915318072 0.202003881 -0.348406821
vn 0.971253514 0.0176990535 -0.237388611
vn 0.751375735 -0.658478737 0.04289864

# Mesh 'PipelineFBX' with 182 faces
g PipelineFBX
usemtl DefaultMaterial
f  1/1/1 2/2/2 3/3/3
f  4/2/2 5/1/1 6/4/4
f  7/5/5 8/2/2 9/4/4
f  10/6/6 11/2/2 12/5/5
f  13/2/2 14/6/6 15/7/7
f  16/7/7 17/6/6 18/8/8
f  19/1/1 20/9/9 21/4/4
f  22/4/4 23/9/9 24/10/10
f  25/10/10 26/5/5 27/4/4
f  28/5/5 29/10/10 30/11/11
f  31/11/11 32/12/12 33/5/5
f  34/12/12 35/6/6 36/5/5
f  37/13/13 38/6/6 39/12/12
f  40/6/6 41/13/13 42/8/8
f  43/1/1 44/14/14 45/9/9
f  46/14/14 47/15/15 48/9/9
f  49/16/16 50/9/9 51/15/15
f  52/17/17 53/9/9 54/16/16
f  55/17/17 56/10/10 57/9/9
f  58/17/17 59/11/11 60/10/10
f  61/18/18 62/11/11 63/17/17
f  64/19/19 65/11/11 66/18/18
f  67/11/11 68/19/19 69/20/20
f  70/20/20 71/12/12 72/11/11
f  73/13/13 74/12/12 75/20/20
f  76/14/14 77/21/21 78/15/15
f  79/15/15 80/21/21 81/22/22
f  82/23/23 83/15/15 84/22/22
f  85/15/15 86/23/23 87/24/24
f  88/16/16 89/15/15 90/24/24
f  91/24/24 92/17/17 93/16/16
f  94/25/25 95/17/17 96/24/24
f  97/25/25 98/26/26 99/17/17
f  100/26/26 101/18/18 102/17/17
f  103/14/14 104/27/27 105/21/21
f  106/22/22 107/21/21 108/27/27
f  109/22/22 110/27/27 111/28/28
f  112/28/28 113/29/29 114/22/22
f  115/29/29 116/23/23 117/22/22
f  118/23/23 119/29/29 120/24/24
f  121/24/24 122/29/29 123/25/25
f  124/30/30 125/25/25 126/29/29
f  127/25/25 128/30/30 129/26/26
f  130/31/31 131/26/26 132/30/30
f  133/31/31 134/32/32 135/26/26
f  136/26/26 137/32/32 138/33/33
f  139/33/33 140/18/18 141/26/26
f  142/34/34 143/29/29 144/28/28
f  145/30/30 146/29/29 147/34/34
f  148/34/34 149/35/35 150/30/30
f  151/35/35 152/31/31 153/30/30
f  154/32/32 155/31/31 156/35/35
f  157/36/36 158/32/32 159/35/35
f  160/32/32 161/36/36 162/37/37
f  163/37/37 164/33/33 165/32/32
f  166/37/37 167/38/38 168/33/33
f  169/33/33 170/38/38 171/18/18
f  172/19/19 173/18/18 174/38/38
f  175/19/19 176/38/38 177/39/39
f  178/19/19 179/39/39 180/20/20
f  181/35/35 182/34/34 183/40/40
f  184/41/41 185/35/35 186/40/40
f  187/36/36 188/35/35 189/41/41
f  190/42/42 191/36/36 192/41/41
f  193/42/42 194/43/43 195/36/36
f  196/36/36 197/43/43 198/37/37
f  199/44/44 200/37/37 201/43/43
f  202/45/45 203/37/37 204/44/44
f  205/38/38 206/37/37 207/45/45
f  208/45/45 209/39/39 210/38/38
f  211/40/40 212/46/46 213/41/41
f  214/46/46 215/47/47 216/41/41
f  217/47/47 218/42/42 219/41/41
f  220/42/42 221/47/47 222/48/48
f  223/48/48 224/43/43 225/42/42
f  226/48/48 227/49/49 228/43/43
f  229/43/43 230/49/49 231/44/44
f  232/49/49 233/50/50 234/44/44
f  235/51/51 236/44/44 237/50/50
f  238/51/51 239/45/45 240/44/44
f  241/45/45 242/51/51 243/52/52
f  244/52/52 245/39/39 246/45/45
f  247/47/47 248/46/46 249/53/53
f  250/54/54 251/47/47 252/53/53
f  253/48/48 254/47/47 255/54/54
f  256/48/48 257/54/54 258/49/49
f  259/53/53 260/49/49 261/54/54
f  262/53/53 263/55/55 264/49/49
f  265/49/49 266/55/55 267/56/56
f  268/56/56 269/50/50 270/49/49
f  271/56/56 272/57/57 273/50/50
f  274/50/50 275/57/57 276/51/51
f  277/58/58 278/51/51 279/57/57
f  280/58/58 281/52/52 282/51/51
f  283/46/46 284/55/55 285/53/53
f  286/59/59 287/57/57 288/56/56
f  289/59/59 290/60/60 291/57/57
f  292/58/58 293/57/57 294/60/60
f  295/61/61 296/58/58 297/60/60
f  298/58/58 299/61/61 300/52/52
f  301/61/61 302/39/39 303/52/52
f  304/61/61 305/20/20 306/39/39
f  307/61/61 308/13/13 309/20/20
f  310/13/13 311/61/61 312/62/62
f  313/13/13 314/62/62 315/8/8
f  316/63/63 317/60/60 318/59/59
f  319/8/8 320/60/60 321/63/63
f  322/62/62 323/60/60 324/8/8
f  325/61/61 326/60/60 327/62/62
f  328/64/63 329/65/64 330/66/8
f  331/64/63 332/67/59 333/65/64
f  334/68/65 335/65/64 336/67/59
f  337/65/64 338/68/65 339/69/66
f  340/65/64 341/69/66 342/70/67
f  343/66/8 344/65/64 345/70/67
f  346/66/8 347/70/67 348/71/7
f  349/70/67 350/72/68 351/71/7
f  352/73/2 353/71/7 354/72/68
f  355/72/68 356/74/3 357/73/2
f  358/67/59 359/75/56 360/68/65
f  361/76/69 362/68/65 363/75/56
f  364/68/65 365/76/69 366/69/66
f  367/76/69 368/77/70 369/69/66
f  370/69/66 371/77/70 372/78/71
f  373/78/71 374/79/72 375/69/66
f  376/69/66 377/79/72 378/80/73
f  379/70/67 380/69/66 381/80/73
f  382/80/73 383/81/74 384/70/67
f  385/70/67 386/81/74 387/72/68
f  388/76/69 389/75/56 390/82/55
f  391/83/75 392/76/69 393/82/55
f  394/76/69 395/83/75 396/84/76
f  397/84/76 398/77/70 399/76/69
f  400/85/77 401/77/70 402/84/76
f  403/85/77 404/86/78 405/77/70
f  406/78/71 407/77/70 408/86/78
f  409/82/55 410/87/46 411/83/75
f  412/87/46 413/88/40 414/83/75
f  415/88/40 416/89/79 417/83/75
f  418/83/75 419/89/79 420/84/76
f  421/89/79 422/85/77 423/84/76
f  424/89/79 425/86/78 426/85/77
f  427/86/78 428/89/79 429/90/80
f  430/91/81 431/86/78 432/90/80
f  433/91/81 434/92/82 435/86/78
f  436/86/78 437/92/82 438/78/71
f  439/88/40 440/93/83 441/89/79
f  442/93/83 443/94/84 444/89/79
f  445/89/79 446/94/84 447/90/80
f  448/95/28 449/90/80 450/94/84
f  451/96/85 452/90/80 453/95/28
f  454/91/81 455/90/80 456/96/85
f  457/97/86 458/91/81 459/96/85
f  460/97/86 461/98/87 462/91/81
f  463/91/81 464/98/87 465/92/82
f  466/98/87 467/78/71 468/92/82
f  469/93/83 470/88/40 471/99/34
f  472/94/84 473/93/83 474/99/34
f  475/94/84 476/99/34 477/95/28
f  478/95/28 479/100/27 480/96/85
f  481/100/27 482/101/88 483/96/85
f  484/97/86 485/96/85 486/101/88
f  487/102/89 488/97/86 489/101/88
f  490/97/86 491/102/89 492/103/90
f  493/104/91 494/97/86 495/103/90
f  496/104/91 497/98/87 498/97/86
f  499/105/92 500/98/87 501/104/91
f  502/78/71 503/98/87 504/105/92
f  505/105/92 506/79/72 507/78/71
f  508/101/88 509/100/27 510/106/14
f  511/102/89 512/101/88 513/106/14
f  514/107/1 515/102/89 516/106/14
f  517/102/89 518/107/1 519/108/93
f  520/103/90 521/102/89 522/108/93
f  523/108/93 524/81/74 525/103/90
f  526/103/90 527/81/74 528/104/91
f  529/104/91 530/81/74 531/105/92
f  532/80/73 533/105/92 534/81/74
f  535/105/92 536/80/73 537/79/72
f  538/107/1 539/74/3 540/108/93
f  541/74/3 542/72/68 543/108/93
f  544/81/74 545/108/93 546/72/68

