# File produced by Open Asset Import Library (http://www.assimp.sf.net)
# (assimp v6.0.0)

mtllib asteroid8.mtl

# 132 vertex positions
v 41.4799995 -2.03000426 -14.3099995
v 14.749999 3.71999693 -40.9799995
v 32.7400017 11.1099958 -29.1099987
v 8.39999866 -13.920002 -30.6300011
v 14.749999 3.71999693 -40.9799995
v 41.4799995 -2.03000426 -14.3099995
v -22.6899967 27.9599991 -24.5400009
v 14.749999 3.71999693 -40.9799995
v 8.39999866 -13.920002 -30.6300011
v 8.39999866 -13.920002 -30.6300011
v -22.5400009 2.58000112 -22.7399998
v -22.6899967 27.9599991 -24.5400009
v -22.6899967 27.9599991 -24.5400009
v -22.5400009 2.58000112 -22.7399998
v -30.4400024 -17.3799973 6.72000027
v -30.4400024 -17.3799973 6.72000027
v -41.4799995 -2.1499958 13.46
v -22.6899967 27.9599991 -24.5400009
v -41.4799995 -2.1499958 13.46
v -30.4400024 -17.3799973 6.72000027
v -20.8100014 -7.84999752 26.5599995
v -30.4400024 -17.3799973 6.72000027
v -3.14000106 -12.1899986 35.4000015
v -20.8100014 -7.84999752 26.5599995
v 41.4799995 -2.03000426 -14.3099995
v 20.0999985 -27.2800007 6.71000195
v 8.39999866 -13.920002 -30.6300011
v 20.0999985 -27.2800007 6.71000195
v -15.840003 -36.6199989 -12.8499985
v 8.39999866 -13.920002 -30.6300011
v -15.840003 -36.6199989 -12.8499985
v -30.4700012 -22.1099987 -30.1299992
v 8.39999866 -13.920002 -30.6300011
v -30.4700012 -22.1099987 -30.1299992
v -22.5400009 2.58000112 -22.7399998
v 8.39999866 -13.920002 -30.6300011
v -30.4700012 -22.1099987 -30.1299992
v -30.4400024 -17.3799973 6.72000027
v -22.5400009 2.58000112 -22.7399998
v -30.4700012 -22.1099987 -30.1299992
v -15.840003 -36.6199989 -12.8499985
v -30.4400024 -17.3799973 6.72000027
v -15.840003 -36.6199989 -12.8499985
v -5.25000286 -34.6599998 7.82000113
v -30.4400024 -17.3799973 6.72000027
v -5.25000286 -34.6599998 7.82000113
v -3.14000106 -12.1899986 35.4000015
v -30.4400024 -17.3799973 6.72000027
v -5.25000286 -34.6599998 7.82000113
v 20.0999985 -27.2800007 6.71000195
v -3.14000106 -12.1899986 35.4000015
v 24.9699993 -8.08000088 21.9099998
v -3.14000106 -12.1899986 35.4000015
v 20.0999985 -27.2800007 6.71000195
v 24.9699993 -8.08000088 21.9099998
v 20.0999985 -27.2800007 6.71000195
v 41.4799995 -2.03000426 -14.3099995
v -15.840003 -36.6199989 -12.8499985
v 20.0999985 -27.2800007 6.71000195
v -5.25000286 -34.6599998 7.82000113
v -20.8100014 -7.84999752 26.5599995
v -3.14000106 -12.1899986 35.4000015
v -22.0300007 6.95000362 40.9799995
v 24.9699993 -8.08000088 21.9099998
v -22.0300007 6.95000362 40.9799995
v -3.14000106 -12.1899986 35.4000015
v 17.039999 7.69999933 18.0100002
v -22.0300007 6.95000362 40.9799995
v 24.9699993 -8.08000088 21.9099998
v -22.0300007 6.95000362 40.9799995
v 17.039999 7.69999933 18.0100002
v 3.45000219 26.8500004 23.1699982
v -19.6399975 29.4100018 19.7799988
v -22.0300007 6.95000362 40.9799995
v 3.45000219 26.8500004 23.1699982
v -35.8199997 14.3100042 21.6499996
v -22.0300007 6.95000362 40.9799995
v -19.6399975 29.4100018 19.7799988
v -35.8199997 14.3100042 21.6499996
v -20.8100014 -7.84999752 26.5599995
v -22.0300007 6.95000362 40.9799995
v -35.8199997 14.3100042 21.6499996
v -41.4799995 -2.1499958 13.46
v -20.8100014 -7.84999752 26.5599995
v -22.6899967 27.9599991 -24.5400009
v -41.4799995 -2.1499958 13.46
v -35.8199997 14.3100042 21.6499996
v 17.039999 7.69999933 18.0100002
v 24.9699993 -8.08000088 21.9099998
v 41.4799995 -2.03000426 -14.3099995
v 17.039999 7.69999933 18.0100002
v 41.4799995 -2.03000426 -14.3099995
v 36.3100014 17.6099968 -7.27000093
v 36.3100014 17.6099968 -7.27000093
v 3.45000219 26.8500004 23.1699982
v 17.039999 7.69999933 18.0100002
v 3.45000219 26.8500004 23.1699982
v 36.3100014 17.6099968 -7.27000093
v 11.1800032 34.659996 -21.920002
v 3.45000219 26.8500004 23.1699982
v 11.1800032 34.659996 -21.920002
v -8.20999622 36.6199989 -11.2300014
v -8.20999622 36.6199989 -11.2300014
v -19.6399975 29.4100018 19.7799988
v 3.45000219 26.8500004 23.1699982
v -8.20999622 36.6199989 -11.2300014
v -29.9399967 27.1300011 2.299999
v -19.6399975 29.4100018 19.7799988
v -19.6399975 29.4100018 19.7799988
v -29.9399967 27.1300011 2.299999
v -35.8199997 14.3100042 21.6499996
v -22.6899967 27.9599991 -24.5400009
v -35.8199997 14.3100042 21.6499996
v -29.9399967 27.1300011 2.299999
v -29.9399967 27.1300011 2.299999
v -8.20999622 36.6199989 -11.2300014
v -22.6899967 27.9599991 -24.5400009
v -8.20999622 36.6199989 -11.2300014
v 11.1800032 34.659996 -21.920002
v -22.6899967 27.9599991 -24.5400009
v 11.1800032 34.659996 -21.920002
v 14.749999 3.71999693 -40.9799995
v -22.6899967 27.9599991 -24.5400009
v 11.1800032 34.659996 -21.920002
v 32.7400017 11.1099958 -29.1099987
v 14.749999 3.71999693 -40.9799995
v 32.7400017 11.1099958 -29.1099987
v 36.3100014 17.6099968 -7.27000093
v 41.4799995 -2.03000426 -14.3099995
v 11.1800032 34.659996 -21.920002
v 36.3100014 17.6099968 -7.27000093
v 32.7400017 11.1099958 -29.1099987

# 32 UV coordinates
vt 0.318699986 0.983399987 0
vt 0.342099994 0.99180001 0
vt 0.328000009 0.993099988 0
vt 0.340200007 0.981000006 0
vt 0.375 0.979900002 0
vt 0.362699986 0.9727 0
vt 0.354999989 0.949500024 0
vt 0.364199996 0.944700003 0
vt 0.344900012 0.938799977 0
vt 0.329600006 0.938300014 0
vt 0.325100005 0.962300003 0
vt 0.343100011 0.961600006 0
vt 0.351900011 0.966899991 0
vt 0.336899996 0.954699993 0
vt 0.313800007 0.956499994 0
vt 0.417199999 0.920300007 0
vt 0.431899995 0.930499971 0
vt 0.418000013 0.930499971 0
vt 0.441900015 0.9472 0
vt 0.432599992 0.950200021 0
vt 0.420599997 0.948400021 0
vt 0.41049999 0.943300009 0
vt 0.404799998 0.932699978 0
vt 0.396699995 0.926500022 0
vt 0.39230001 0.961000025 0
vt 0.439500004 0.973800004 0
vt 0.429199994 0.968800008 0
vt 0.411900014 0.968800008 0
vt 0.405499995 0.959500015 0
vt 0.40169999 0.94690001 0
vt 0.409399986 0.987500012 0
vt 0.423900008 0.981100023 0

# 24 vertex normals
vn 0.956240892 -0.261911303 -0.13040556
vn 0.224398717 -0.0441998094 -0.97349447
vn 0.725289106 0.341294795 -0.597890973
vn 0.120499186 -0.500696898 -0.857194602
vn -0.718291759 0.29799664 -0.628692865
vn -0.704799235 0.164799854 -0.689999282
vn -0.83128196 -0.523488522 0.186895937
vn -0.944136322 -0.251482993 0.212985665
vn -0.580585301 -0.543786049 0.605984569
vn -0.0638002604 -0.637502015 0.767802477
vn 0.520713151 -0.843821526 0.129703343
vn -0.110794544 -0.976151168 -0.186690629
vn -0.680381358 -0.302791655 -0.667381644
vn -0.141007274 -0.896445692 0.420121491
vn 0.681803524 -0.00680006249 0.731503725
vn -0.087498188 0.182096303 0.979379833
vn 0.666198969 0.279299527 0.691498935
vn 0.361802906 0.748005867 0.556404293
vn -0.316203475 0.850109518 0.42110464
vn -0.908836842 0.231509492 0.34701404
vn 0.827507079 0.517404318 0.218001798
vn 0.28388986 0.877868354 -0.3856861
vn -0.14199391 0.98985815 0.00429977477
vn -0.67979151 0.733390987 0.00459991163

# Mesh 'PipelineFBX' with 44 faces
g PipelineFBX
usemtl DefaultMaterial
f  1/1/1 2/2/2 3/3/3
f  4/4/4 5/2/2 6/1/1
f  7/5/5 8/2/2 9/4/4
f  10/4/4 11/6/6 12/5/5
f  13/5/5 14/6/6 15/7/7
f  16/7/7 17/8/8 18/5/5
f  19/8/8 20/7/7 21/9/9
f  22/7/7 23/10/10 24/9/9
f  25/1/1 26/11/11 27/4/4
f  28/11/11 29/12/12 30/4/4
f  31/12/12 32/13/13 33/4/4
f  34/13/13 35/6/6 36/4/4
f  37/13/13 38/7/7 39/6/6
f  40/13/13 41/12/12 42/7/7
f  43/12/12 44/14/14 45/7/7
f  46/14/14 47/10/10 48/7/7
f  49/14/14 50/11/11 51/10/10
f  52/15/15 53/10/10 54/11/11
f  55/15/15 56/11/11 57/1/1
f  58/12/12 59/11/11 60/14/14
f  61/16/9 62/17/10 63/18/16
f  64/19/15 65/18/16 66/17/10
f  67/20/17 68/18/16 69/19/15
f  70/18/16 71/20/17 72/21/18
f  73/22/19 74/18/16 75/21/18
f  76/23/20 77/18/16 78/22/19
f  79/23/20 80/16/9 81/18/16
f  82/23/20 83/24/8 84/16/9
f  85/25/5 86/24/8 87/23/20
f  88/20/17 89/19/15 90/26/1
f  91/20/17 92/26/1 93/27/21
f  94/27/21 95/21/18 96/20/17
f  97/21/18 98/27/21 99/28/22
f  100/21/18 101/28/22 102/29/23
f  103/29/23 104/22/19 105/21/18
f  106/29/23 107/30/24 108/22/19
f  109/22/19 110/30/24 111/23/20
f  112/25/5 113/23/20 114/30/24
f  115/30/24 116/29/23 117/25/5
f  118/29/23 119/28/22 120/25/5
f  121/28/22 122/31/2 123/25/5
f  124/28/22 125/32/3 126/31/2
f  127/32/3 128/27/21 129/26/1
f  130/28/22 131/27/21 132/32/3

