# File produced by Open Asset Import Library (http://www.assimp.sf.net)
# (assimp v6.0.0)

mtllib asteroid4.mtl

# 264 vertex positions
v 88.3700104 36.3799973 79.659996
v 61.8000031 47.3799973 89.1100006
v 104.190002 -50.8800087 100.049995
v 13.2100077 88.5800018 53.609993
v 61.8000031 47.3799973 89.1100006
v 88.3700104 36.3799973 79.659996
v 13.2100077 88.5800018 53.609993
v 88.3700104 36.3799973 79.659996
v 51.5200081 73.7299957 20.9799976
v -33.7399902 100.639999 9.60999584
v 13.2100077 88.5800018 53.609993
v 51.5200081 73.7299957 20.9799976
v 51.5200081 73.7299957 20.9799976
v -2.54999113 99.6999969 -16.2900047
v -33.7399902 100.639999 9.60999584
v 51.5200081 73.7299957 20.9799976
v 67.1300049 84.4399948 -23.1000042
v -2.54999113 99.6999969 -16.2900047
v 38.1700058 78.2799988 -65.7400055
v -2.54999113 99.6999969 -16.2900047
v 67.1300049 84.4399948 -23.1000042
v 104.190002 -50.8800087 100.049995
v 105.009995 -45.0500069 57.2799988
v 88.3700104 36.3799973 79.659996
v 88.3700104 36.3799973 79.659996
v 105.009995 -45.0500069 57.2799988
v 99.9700012 6.26999378 49.3199997
v 99.9700012 6.26999378 49.3199997
v 51.5200081 73.7299957 20.9799976
v 88.3700104 36.3799973 79.659996
v 98.6500092 46.0199928 9.54999733
v 51.5200081 73.7299957 20.9799976
v 99.9700012 6.26999378 49.3199997
v 98.6500092 46.0199928 9.54999733
v 91.3700027 65.3199844 -24.9700031
v 51.5200081 73.7299957 20.9799976
v 51.5200081 73.7299957 20.9799976
v 91.3700027 65.3199844 -24.9700031
v 67.1300049 84.4399948 -23.1000042
v 38.1700058 78.2799988 -65.7400055
v 67.1300049 84.4399948 -23.1000042
v 91.3700027 65.3199844 -24.9700031
v 72.3300018 15.7699909 -72.8399963
v 38.1700058 78.2799988 -65.7400055
v 91.3700027 65.3199844 -24.9700031
v 44.6300011 12.2899923 -95.6600037
v 38.1700058 78.2799988 -65.7400055
v 72.3300018 15.7699909 -72.8399963
v 38.1700058 78.2799988 -65.7400055
v 44.6300011 12.2899923 -95.6600037
v -4.09999943 8.20999527 -106.470001
v 104.190002 -50.8800087 100.049995
v 58.4199982 -100.639999 51.8800087
v 105.009995 -45.0500069 57.2799988
v 105.009995 -45.0500069 57.2799988
v 58.4199982 -100.639999 51.8800087
v 60.9799919 -81.3700104 26.1800022
v 60.9799919 -81.3700104 26.1800022
v 58.8899956 -81.9200058 -6.75999594
v 105.009995 -45.0500069 57.2799988
v 105.009995 -45.0500069 57.2799988
v 58.8899956 -81.9200058 -6.75999594
v 91.5400009 -10.9800081 18.7199993
v 99.9700012 6.26999378 49.3199997
v 105.009995 -45.0500069 57.2799988
v 91.5400009 -10.9800081 18.7199993
v 98.6500092 46.0199928 9.54999733
v 99.9700012 6.26999378 49.3199997
v 91.5400009 -10.9800081 18.7199993
v 98.6500092 46.0199928 9.54999733
v 91.5400009 -10.9800081 18.7199993
v 108.540001 29.689991 -4.73000097
v 98.6500092 46.0199928 9.54999733
v 108.540001 29.689991 -4.73000097
v 91.3700027 65.3199844 -24.9700031
v 72.3300018 15.7699909 -72.8399963
v 91.3700027 65.3199844 -24.9700031
v 108.540001 29.689991 -4.73000097
v 60.9799919 -81.3700104 26.1800022
v 58.4199982 -100.639999 51.8800087
v 0.249991223 -100.469994 3.52000451
v 60.9799919 -81.3700104 26.1800022
v 0.249991223 -100.469994 3.52000451
v 58.8899956 -81.9200058 -6.75999594
v -27.4700069 -96.8899994 -66.0199966
v 58.8899956 -81.9200058 -6.75999594
v 0.249991223 -100.469994 3.52000451
v -20.8100071 -72.2599945 -91.5699921
v 58.8899956 -81.9200058 -6.75999594
v -27.4700069 -96.8899994 -66.0199966
v -20.8100071 -72.2599945 -91.5699921
v 36.4399986 -50.6800041 -78.5599976
v 58.8899956 -81.9200058 -6.75999594
v 36.4399986 -50.6800041 -78.5599976
v 72.3300018 15.7699909 -72.8399963
v 58.8899956 -81.9200058 -6.75999594
v 58.8899956 -81.9200058 -6.75999594
v 72.3300018 15.7699909 -72.8399963
v 82.3600006 -26.6400108 -28.3800011
v 58.8899956 -81.9200058 -6.75999594
v 82.3600006 -26.6400108 -28.3800011
v 91.5400009 -10.9800081 18.7199993
v 91.5400009 -10.9800081 18.7199993
v 82.3600006 -26.6400108 -28.3800011
v 72.3300018 15.7699909 -72.8399963
v 72.3300018 15.7699909 -72.8399963
v 108.540001 29.689991 -4.73000097
v 91.5400009 -10.9800081 18.7199993
v 36.4399986 -50.6800041 -78.5599976
v -20.8100071 -72.2599945 -91.5699921
v 44.6300011 12.2899923 -95.6600037
v 36.4399986 -50.6800041 -78.5599976
v 44.6300011 12.2899923 -95.6600037
v 72.3300018 15.7699909 -72.8399963
v 44.6300011 12.2899923 -95.6600037
v -20.8100071 -72.2599945 -91.5699921
v -4.09999943 8.20999527 -106.470001
v -74.4299927 62.8700066 34.8599968
v -33.7399902 100.639999 9.60999584
v -2.54999113 99.6999969 -16.2900047
v -50.5899963 90.1200027 46.8599968
v -33.7399902 100.639999 9.60999584
v -74.4299927 62.8700066 34.8599968
v -33.7399902 100.639999 9.60999584
v -50.5899963 90.1200027 46.8599968
v 13.2100077 88.5800018 53.609993
v -50.5899963 90.1200027 46.8599968
v -10.0799932 75.3800049 100.460007
v 13.2100077 88.5800018 53.609993
v -10.0799932 75.3800049 100.460007
v 43.6000023 33.9399986 96.8899994
v 13.2100077 88.5800018 53.609993
v 13.2100077 88.5800018 53.609993
v 43.6000023 33.9399986 96.8899994
v 61.8000031 47.3799973 89.1100006
v -2.54999113 99.6999969 -16.2900047
v -20.2199936 70.7600021 -18.5800037
v -74.4299927 62.8700066 34.8599968
v -74.4299927 62.8700066 34.8599968
v -20.2199936 70.7600021 -18.5800037
v -108.540001 1.25000918 -8.03999996
v -101.170006 -4.12998962 35.1900024
v -74.4299927 62.8700066 34.8599968
v -108.540001 1.25000918 -8.03999996
v -57.7399979 39.3800087 73.3699951
v -74.4299927 62.8700066 34.8599968
v -101.170006 -4.12998962 35.1900024
v -74.4299927 62.8700066 34.8599968
v -57.7399979 39.3800087 73.3699951
v -50.5899963 90.1200027 46.8599968
v -50.5899963 90.1200027 46.8599968
v -57.7399979 39.3800087 73.3699951
v -10.0799932 75.3800049 100.460007
v -10.0799932 75.3800049 100.460007
v -57.7399979 39.3800087 73.3699951
v -2.43999577 46.4700089 106.470001
v 43.6000023 33.9399986 96.8899994
v -10.0799932 75.3800049 100.460007
v -2.43999577 46.4700089 106.470001
v -20.2199936 70.7600021 -18.5800037
v -2.54999113 99.6999969 -16.2900047
v 2.51000595 68.7099991 -27.4900017
v 2.51000595 68.7099991 -27.4900017
v -4.09999943 8.20999527 -106.470001
v -20.2199936 70.7600021 -18.5800037
v -85.1899948 14.8200064 -35.4300003
v -20.2199936 70.7600021 -18.5800037
v -4.09999943 8.20999527 -106.470001
v -20.2199936 70.7600021 -18.5800037
v -85.1899948 14.8200064 -35.4300003
v -108.540001 1.25000918 -8.03999996
v -79.6500092 -68.2199936 -55.2999916
v -108.540001 1.25000918 -8.03999996
v -85.1899948 14.8200064 -35.4300003
v -79.6500092 -68.2199936 -55.2999916
v -101.170006 -4.12998962 35.1900024
v -108.540001 1.25000918 -8.03999996
v -2.54999113 99.6999969 -16.2900047
v 38.1700058 78.2799988 -65.7400055
v 2.51000595 68.7099991 -27.4900017
v 38.1700058 78.2799988 -65.7400055
v -4.09999943 8.20999527 -106.470001
v 2.51000595 68.7099991 -27.4900017
v -101.170006 -4.12998962 35.1900024
v -79.6500092 -68.2199936 -55.2999916
v -91.8100052 -77.4399948 -16.4199963
v -91.8100052 -77.4399948 -16.4199963
v -79.6500092 -68.2199936 -55.2999916
v -27.4700069 -96.8899994 -66.0199966
v 0.249991223 -100.469994 3.52000451
v -91.8100052 -77.4399948 -16.4199963
v -27.4700069 -96.8899994 -66.0199966
v -21.1700077 -80.5899887 38.6300011
v -91.8100052 -77.4399948 -16.4199963
v 0.249991223 -100.469994 3.52000451
v -76.7900085 -51.2499924 37.9000053
v -91.8100052 -77.4399948 -16.4199963
v -21.1700077 -80.5899887 38.6300011
v -101.170006 -4.12998962 35.1900024
v -91.8100052 -77.4399948 -16.4199963
v -76.7900085 -51.2499924 37.9000053
v -76.7900085 -51.2499924 37.9000053
v -67.9899979 8.1300087 73.8499985
v -101.170006 -4.12998962 35.1900024
v -67.9899979 8.1300087 73.8499985
v -57.7399979 39.3800087 73.3699951
v -101.170006 -4.12998962 35.1900024
v -20.8100071 -72.2599945 -91.5699921
v -27.4700069 -96.8899994 -66.0199966
v -79.6500092 -68.2199936 -55.2999916
v -20.8100071 -72.2599945 -91.5699921
v -79.6500092 -68.2199936 -55.2999916
v -68.7699966 -26.739996 -68.9100037
v -20.8100071 -72.2599945 -91.5699921
v -68.7699966 -26.739996 -68.9100037
v -4.09999943 8.20999527 -106.470001
v -68.7699966 -26.739996 -68.9100037
v -85.1899948 14.8200064 -35.4300003
v -4.09999943 8.20999527 -106.470001
v -85.1899948 14.8200064 -35.4300003
v -68.7699966 -26.739996 -68.9100037
v -79.6500092 -68.2199936 -55.2999916
v -2.07999873 15.5300055 86.0499954
v -57.7399979 39.3800087 73.3699951
v -67.9899979 8.1300087 73.8499985
v -2.07999873 15.5300055 86.0499954
v -2.43999577 46.4700089 106.470001
v -57.7399979 39.3800087 73.3699951
v -2.43999577 46.4700089 106.470001
v -2.07999873 15.5300055 86.0499954
v 43.6000023 33.9399986 96.8899994
v 43.6000023 33.9399986 96.8899994
v -2.07999873 15.5300055 86.0499954
v 62.8700027 -28.2599983 103.260002
v 43.6000023 33.9399986 96.8899994
v 62.8700027 -28.2599983 103.260002
v 61.8000031 47.3799973 89.1100006
v 61.8000031 47.3799973 89.1100006
v 62.8700027 -28.2599983 103.260002
v 104.190002 -50.8800087 100.049995
v -2.07999873 15.5300055 86.0499954
v -67.9899979 8.1300087 73.8499985
v 62.8700027 -28.2599983 103.260002
v -67.9899979 8.1300087 73.8499985
v -76.7900085 -51.2499924 37.9000053
v 62.8700027 -28.2599983 103.260002
v -76.7900085 -51.2499924 37.9000053
v -21.1700077 -80.5899887 38.6300011
v 62.8700027 -28.2599983 103.260002
v 42.909996 -53.8800011 80.909996
v 62.8700027 -28.2599983 103.260002
v -21.1700077 -80.5899887 38.6300011
v 62.8700027 -28.2599983 103.260002
v 42.909996 -53.8800011 80.909996
v 104.190002 -50.8800087 100.049995
v 58.4199982 -100.639999 51.8800087
v 104.190002 -50.8800087 100.049995
v 42.909996 -53.8800011 80.909996
v 0.249991223 -100.469994 3.52000451
v 58.4199982 -100.639999 51.8800087
v 42.909996 -53.8800011 80.909996
v 0.249991223 -100.469994 3.52000451
v 42.909996 -53.8800011 80.909996
v -21.1700077 -80.5899887 38.6300011

# 57 UV coordinates
vt 0.318500012 0.214000002 0
vt 0.308200002 0.227599993 0
vt 0.306199998 0.161400005 0
vt 0.328200012 0.267800003 0
vt 0.34830001 0.246700004 0
vt 0.355300009 0.296299994 0
vt 0.371899992 0.280200005 0
vt 0.376100004 0.242200002 0
vt 0.407000005 0.247199997 0
vt 0.33039999 0.1664 0
vt 0.334899992 0.1963 0
vt 0.35679999 0.217500001 0
vt 0.375 0.227599993 0
vt 0.40290001 0.203899994 0
vt 0.421200007 0.202500001 0
vt 0.448399991 0.198699996 0
vt 0.344900012 0.126900002 0
vt 0.35769999 0.139899999 0
vt 0.375499994 0.145300001 0
vt 0.352499992 0.185100004 0
vt 0.364300013 0.209099993 0
vt 0.389800012 0.114699997 0
vt 0.432799995 0.127299994 0
vt 0.443399996 0.145699993 0
vt 0.415499985 0.166700006 0
vt 0.379299998 0.1796 0
vt 0.220699996 0.120899998 0
vt 0.203700006 0.149800003 0
vt 0.176699996 0.152099997 0
vt 0.228699997 0.138099998 0
vt 0.265799999 0.164800003 0
vt 0.266299993 0.134800002 0
vt 0.304500014 0.120899998 0
vt 0.313800007 0.130400002 0
vt 0.178100005 0.131699994 0
vt 0.206200004 0.0820000023 0
vt 0.226500005 0.0844999999 0
vt 0.246099994 0.111900002 0
vt 0.276800007 0.121399999 0
vt 0.165099993 0.133699998 0
vt 0.133100003 0.0780000016 0
vt 0.188800007 0.0852999985 0
vt 0.193599999 0.0392999984 0
vt 0.135199994 0.137199998 0
vt 0.214399993 0.0428000018 0
vt 0.195199996 0.00609999988 0
vt 0.259000003 0.0124000004 0
vt 0.261599988 0.0401999988 0
vt 0.238600001 0.0612999983 0
vt 0.247799993 0.0960000008 0
vt 0.162900001 0.0205000006 0
vt 0.177200004 0.0584999993 0
vt 0.281100005 0.102700002 0
vt 0.318199992 0.0791999996 0
vt 0.341500014 0.0649000034 0
vt 0.303900003 0.0610000007 0
vt 0.306199998 0.0280000009 0

# 46 vertex normals
vn 0.797329307 0.531419516 0.286110491
vn 0.26978901 0.447981685 0.852365077
vn 0.46839571 -0.267997593 0.841892362
vn 0.267497599 0.896491587 0.353196651
vn 0.500586927 0.830678165 0.243693575
vn -0.206702441 0.972211838 -0.109901391
vn -0.343295693 0.774790406 -0.530893505
vn 0.421493113 0.906784892 -0.00919988751
vn 0.120404467 0.657324076 -0.7439273
vn 0.944086552 -0.291995913 -0.153097808
vn 0.963473558 0.264992625 0.0386989266
vn 0.86033231 0.394814759 0.322412074
vn 0.769462049 0.61806941 -0.160992086
vn 0.810305059 -0.10120073 -0.577203631
vn 0.410601974 0.0042999452 -0.911804497
vn -0.322403759 0.433105081 -0.841709971
vn 0.352289021 -0.924871504 0.143195614
vn 0.553613186 -0.797919214 -0.23840566
vn 0.643401384 -0.68780148 -0.336100727
vn 0.971056461 -0.18919161 -0.145793453
vn 0.998675764 0.02419932 -0.0453988984
vn -0.00820022915 -0.990117192 0.140002474
vn -0.10489887 -0.917189419 -0.38439551
vn -0.00429996289 -0.465791583 -0.88488394
vn 0.574611068 -0.466709077 -0.672312975
vn 0.897714078 -0.315905005 -0.307104796
vn -0.849272132 0.514783204 -0.117196187
vn -0.490900189 0.790700436 0.365800112
vn -0.0924989879 0.599393845 0.795091689
vn 0.152796566 0.230594829 0.960978329
vn -0.494495451 0.642394125 -0.585494697
vn -0.908937097 0.347814292 -0.229909435
vn -0.933769226 -0.0204992276 0.357288241
vn -0.630723476 0.155205861 0.760328174
vn -0.176496163 -0.214795262 0.960579038
vn -0.508319259 0.494518757 -0.705026746
vn -0.716923654 0.423314095 -0.553918421
vn -0.810930073 -0.278310269 -0.514719129
vn -0.648355961 -0.749948859 0.131191105
vn -0.279793054 -0.734381557 0.6183846
vn -0.526179254 -0.517379463 0.674873233
vn -0.466711879 -0.0714017376 0.881522417
vn -0.642420411 0.0529017001 -0.764524281
vn -0.210297987 -0.182298154 0.960490644
vn -0.159694061 -0.198692501 0.966963887
vn -0.271783859 -0.61506331 0.740155876

# Mesh 'PipelineFBX' with 88 faces
g PipelineFBX
usemtl DefaultMaterial
f  1/1/1 2/2/2 3/3/3
f  4/4/4 5/2/2 6/1/1
f  7/4/4 8/1/1 9/5/5
f  10/6/6 11/4/4 12/5/5
f  13/5/5 14/7/7 15/6/6
f  16/5/5 17/8/8 18/7/7
f  19/9/9 20/7/7 21/8/8
f  22/3/3 23/10/10 24/1/1
f  25/1/1 26/10/10 27/11/11
f  28/11/11 29/5/5 30/1/1
f  31/12/12 32/5/5 33/11/11
f  34/12/12 35/13/13 36/5/5
f  37/5/5 38/13/13 39/8/8
f  40/9/9 41/8/8 42/13/13
f  43/14/14 44/9/9 45/13/13
f  46/15/15 47/9/9 48/14/14
f  49/9/9 50/15/15 51/16/16
f  52/3/3 53/17/17 54/10/10
f  55/10/10 56/17/17 57/18/18
f  58/18/18 59/19/19 60/10/10
f  61/10/10 62/19/19 63/20/20
f  64/11/11 65/10/10 66/20/20
f  67/12/12 68/11/11 69/20/20
f  70/12/12 71/20/20 72/21/21
f  73/12/12 74/21/21 75/13/13
f  76/14/14 77/13/13 78/21/21
f  79/18/18 80/17/17 81/22/22
f  82/18/18 83/22/22 84/19/19
f  85/23/23 86/19/19 87/22/22
f  88/24/24 89/19/19 90/23/23
f  91/24/24 92/25/25 93/19/19
f  94/25/25 95/14/14 96/19/19
f  97/19/19 98/14/14 99/26/26
f  100/19/19 101/26/26 102/20/20
f  103/20/20 104/26/26 105/14/14
f  106/14/14 107/21/21 108/20/20
f  109/25/25 110/24/24 111/15/15
f  112/25/25 113/15/15 114/14/14
f  115/15/15 116/24/24 117/16/16
f  118/27/27 119/28/6 120/29/7
f  121/30/28 122/28/6 123/27/27
f  124/28/6 125/30/28 126/31/4
f  127/30/28 128/32/29 129/31/4
f  130/32/29 131/33/30 132/31/4
f  133/31/4 134/33/30 135/34/2
f  136/29/7 137/35/31 138/27/27
f  139/27/27 140/35/31 141/36/32
f  142/37/33 143/27/27 144/36/32
f  145/38/34 146/27/27 147/37/33
f  148/27/27 149/38/34 150/30/28
f  151/30/28 152/38/34 153/32/29
f  154/32/29 155/38/34 156/39/35
f  157/33/30 158/32/29 159/39/35
f  160/35/31 161/29/7 162/40/36
f  163/40/36 164/41/16 165/35/31
f  166/42/37 167/35/31 168/41/16
f  169/35/31 170/42/37 171/36/32
f  172/43/38 173/36/32 174/42/37
f  175/43/38 176/37/33 177/36/32
f  178/29/7 179/44/9 180/40/36
f  181/44/9 182/41/16 183/40/36
f  184/37/33 185/43/38 186/45/39
f  187/45/39 188/43/38 189/46/23
f  190/47/22 191/45/39 192/46/23
f  193/48/40 194/45/39 195/47/22
f  196/49/41 197/45/39 198/48/40
f  199/37/33 200/45/39 201/49/41
f  202/49/41 203/50/42 204/37/33
f  205/50/42 206/38/34 207/37/33
f  208/51/24 209/46/23 210/43/38
f  211/51/24 212/43/38 213/52/43
f  214/51/24 215/52/43 216/41/16
f  217/52/43 218/42/37 219/41/16
f  220/42/37 221/52/43 222/43/38
f  223/53/44 224/38/34 225/50/42
f  226/53/44 227/39/35 228/38/34
f  229/39/35 230/53/44 231/33/30
f  232/33/30 233/53/44 234/54/45
f  235/33/30 236/54/45 237/34/2
f  238/34/2 239/54/45 240/55/3
f  241/53/44 242/50/42 243/54/45
f  244/50/42 245/49/41 246/54/45
f  247/49/41 248/48/40 249/54/45
f  250/56/46 251/54/45 252/48/40
f  253/54/45 254/56/46 255/55/3
f  256/57/17 257/55/3 258/56/46
f  259/47/22 260/57/17 261/56/46
f  262/47/22 263/56/46 264/48/40

