# File produced by Open Asset Import Library (http://www.assimp.sf.net)
# (assimp v6.0.0)

mtllib asteroid9.mtl

# 132 vertex positions
v -44.4400024 -22.9799957 -0.55999893
v -30.1800041 -18.2999954 29.9299984
v -42.2000008 -16.1499958 12.3500004
v -42.2000008 -16.1499958 12.3500004
v -30.1800041 -18.2999954 29.9299984
v -26.3500004 3.15000367 28.3100014
v -42.2000008 -16.1499958 12.3500004
v -26.3500004 3.15000367 28.3100014
v -11.9599972 25.1700039 26.1400013
v -11.9599972 25.1700039 26.1400013
v -18.5299988 2.0600009 -19.2900009
v -42.2000008 -16.1499958 12.3500004
v -18.5299988 2.0600009 -19.2900009
v 12.1999989 -14.5600033 -39.2999992
v -42.2000008 -16.1499958 12.3500004
v -42.2000008 -16.1499958 12.3500004
v 12.1999989 -14.5600033 -39.2999992
v -44.4400024 -22.9799957 -0.55999893
v 12.1999989 -14.5600033 -39.2999992
v -29.1800022 -29.6499996 -28.0900002
v -44.4400024 -22.9799957 -0.55999893
v -29.1800022 -29.6499996 -28.0900002
v 12.1999989 -14.5600033 -39.2999992
v 11.1099977 -25.3200016 -43.1499977
v 11.1099977 -25.3200016 -43.1499977
v 12.1999989 -14.5600033 -39.2999992
v 33.9300003 -16.5800056 -29.7699986
v -26.3500004 3.15000367 28.3100014
v -9.91999912 12.5200033 43.1499977
v -11.9599972 25.1700039 26.1400013
v 13.3500023 38.5 33.659996
v -11.9599972 25.1700039 26.1400013
v -9.91999912 12.5200033 43.1499977
v 13.3500023 38.5 33.659996
v -8.91999722 21.7099991 -11.0600014
v -11.9599972 25.1700039 26.1400013
v -8.91999722 21.7099991 -11.0600014
v -18.5299988 2.0600009 -19.2900009
v -11.9599972 25.1700039 26.1400013
v 12.1999989 -14.5600033 -39.2999992
v -18.5299988 2.0600009 -19.2900009
v -8.91999722 21.7099991 -11.0600014
v -8.91999722 21.7099991 -11.0600014
v 32.3700027 16.3699951 -20.5
v 12.1999989 -14.5600033 -39.2999992
v 12.1999989 -14.5600033 -39.2999992
v 32.3700027 16.3699951 -20.5
v 33.9300003 -16.5800056 -29.7699986
v 33.9300003 -16.5800056 -29.7699986
v 32.3700027 16.3699951 -20.5
v 44.4400024 16.1799946 -5.71000099
v 32.3700027 16.3699951 -20.5
v 28.8900013 38.0400009 24.5199986
v 44.4400024 16.1799946 -5.71000099
v -8.91999722 21.7099991 -11.0600014
v 28.8900013 38.0400009 24.5199986
v 32.3700027 16.3699951 -20.5
v 28.8900013 38.0400009 24.5199986
v -8.91999722 21.7099991 -11.0600014
v 13.3500023 38.5 33.659996
v 33.9300003 -16.5800056 -29.7699986
v 5.04999733 -30.0700016 -20.0399971
v 11.1099977 -25.3200016 -43.1499977
v 24.4899979 -8.56000233 3.40000057
v 5.04999733 -30.0700016 -20.0399971
v 33.9300003 -16.5800056 -29.7699986
v 5.04999733 -30.0700016 -20.0399971
v 24.4899979 -8.56000233 3.40000057
v 23.2599983 -23.5200024 24.5400009
v 23.2599983 -23.5200024 24.5400009
v -10.7500038 -38.5 -13.329999
v 5.04999733 -30.0700016 -20.0399971
v -10.7500038 -38.5 -13.329999
v 11.1099977 -25.3200016 -43.1499977
v 5.04999733 -30.0700016 -20.0399971
v 11.1099977 -25.3200016 -43.1499977
v -10.7500038 -38.5 -13.329999
v -29.1800022 -29.6499996 -28.0900002
v -44.4400024 -22.9799957 -0.55999893
v -29.1800022 -29.6499996 -28.0900002
v -10.7500038 -38.5 -13.329999
v -30.1800041 -18.2999954 29.9299984
v -44.4400024 -22.9799957 -0.55999893
v -10.7500038 -38.5 -13.329999
v 33.9300003 -16.5800056 -29.7699986
v 44.4400024 16.1799946 -5.71000099
v 24.4899979 -8.56000233 3.40000057
v 39.5200005 3.04999709 10.8699999
v 24.4899979 -8.56000233 3.40000057
v 44.4400024 16.1799946 -5.71000099
v 39.5200005 3.04999709 10.8699999
v 23.2599983 -23.5200024 24.5400009
v 24.4899979 -8.56000233 3.40000057
v 39.5200005 3.04999709 10.8699999
v 12.2199993 -0.279999673 31.4000015
v 23.2599983 -23.5200024 24.5400009
v -10.7500038 -38.5 -13.329999
v 23.2599983 -23.5200024 24.5400009
v 12.2199993 -0.279999673 31.4000015
v -9.84999943 -1.31999779 30.5
v -10.7500038 -38.5 -13.329999
v 12.2199993 -0.279999673 31.4000015
v -30.1800041 -18.2999954 29.9299984
v -10.7500038 -38.5 -13.329999
v -9.84999943 -1.31999779 30.5
v -30.1800041 -18.2999954 29.9299984
v -9.84999943 -1.31999779 30.5
v -26.3500004 3.15000367 28.3100014
v -9.91999912 12.5200033 43.1499977
v -26.3500004 3.15000367 28.3100014
v -9.84999943 -1.31999779 30.5
v 39.5200005 3.04999709 10.8699999
v 44.4400024 16.1799946 -5.71000099
v 28.8900013 38.0400009 24.5199986
v 28.8900013 38.0400009 24.5199986
v 18.9700031 15.6399994 34.9799995
v 39.5200005 3.04999709 10.8699999
v 39.5200005 3.04999709 10.8699999
v 18.9700031 15.6399994 34.9799995
v 12.2199993 -0.279999673 31.4000015
v 18.9700031 15.6399994 34.9799995
v -9.91999912 12.5200033 43.1499977
v 12.2199993 -0.279999673 31.4000015
v -9.91999912 12.5200033 43.1499977
v -9.84999943 -1.31999779 30.5
v 12.2199993 -0.279999673 31.4000015
v 28.8900013 38.0400009 24.5199986
v 13.3500023 38.5 33.659996
v 18.9700031 15.6399994 34.9799995
v -9.91999912 12.5200033 43.1499977
v 18.9700031 15.6399994 34.9799995
v 13.3500023 38.5 33.659996

# 34 UV coordinates
vt 0.496100008 0.0599000007 0
vt 0.493600011 0.0412999988 0
vt 0.497799993 0.052099999 0
vt 0.506699979 0.0377000012 0
vt 0.520699978 0.0324999988 0
vt 0.519500017 0.0582000017 0
vt 0.530399978 0.0771000013 0
vt 0.505500019 0.075000003 0
vt 0.528299987 0.0828000009 0
vt 0.544499993 0.0780000016 0
vt 0.513899982 0.0236000009 0
vt 0.53640002 0.0255999994 0
vt 0.527100027 0.0500999987 0
vt 0.545700014 0.0588999987 0
vt 0.554799974 0.0544999987 0
vt 0.546299994 0.0307999998 0
vt 0.452600002 0.0706999972 0
vt 0.449400008 0.0505999997 0
vt 0.461699992 0.0557000004 0
vt 0.434500009 0.0654999986 0
vt 0.427399993 0.0568999983 0
vt 0.445899993 0.0397000015 0
vt 0.455300003 0.0302000009 0
vt 0.439200014 0.0200999994 0
vt 0.421200007 0.0271000005 0
vt 0.426600009 0.0829000026 0
vt 0.423799992 0.0710999966 0
vt 0.414499998 0.0520000011 0
vt 0.414200008 0.0401999988 0
vt 0.4102 0.0315999985 0
vt 0.403299987 0.0430999994 0
vt 0.402200013 0.0732000023 0
vt 0.408300012 0.0593999997 0
vt 0.396400005 0.063699998 0

# 24 vertex normals
vn -0.950710773 -0.306403399 -0.0476005264
vn -0.385391951 -0.50578934 0.77178371
vn -0.954120398 0.297906429 -0.0301006548
vn -0.674678385 0.172894552 0.717576981
vn -0.735678375 0.664680541 0.130296156
vn -0.755593836 0.363397151 -0.544995666
vn -0.203403294 0.47990787 -0.853414059
vn -0.561191857 -0.285495818 -0.776888609
vn 0.254406154 -0.643515706 -0.72191757
vn 0.815800071 -0.371900141 -0.442900032
vn -0.213603184 -0.0803011507 0.973614573
vn -0.0949019715 0.815717578 0.570612252
vn -0.342399627 0.802699208 -0.488299549
vn 0.344696909 0.624894202 -0.700493515
vn 0.987335384 -0.00360022229 -0.15860571
vn 0.634310722 0.745812416 0.2035034
vn 0.552893281 -0.832690001 -0.0305995941
vn 0.748703957 -0.659303665 -0.069000341
vn 0.625608563 -0.743710339 0.235603273
vn 0.0116996719 -0.970579803 0.240495041
vn 0.870071292 -0.318289578 0.376387596
vn 0.175205588 -0.492615789 0.852427423
vn 0.0366000645 -0.589001775 0.807302535
vn 0.503301024 -0.0983002037 0.858501732

# Mesh 'PipelineFBX' with 44 faces
g PipelineFBX
usemtl DefaultMaterial
f  1/1/1 2/2/2 3/3/3
f  4/3/3 5/2/2 6/4/4
f  7/3/3 8/4/4 9/5/5
f  10/5/5 11/6/6 12/3/3
f  13/6/6 14/7/7 15/3/3
f  16/3/3 17/7/7 18/1/1
f  19/7/7 20/8/8 21/1/1
f  22/8/8 23/7/7 24/9/9
f  25/9/9 26/7/7 27/10/10
f  28/4/4 29/11/11 30/5/5
f  31/12/12 32/5/5 33/11/11
f  34/12/12 35/13/13 36/5/5
f  37/13/13 38/6/6 39/5/5
f  40/7/7 41/6/6 42/13/13
f  43/13/13 44/14/14 45/7/7
f  46/7/7 47/14/14 48/10/10
f  49/10/10 50/14/14 51/15/15
f  52/14/14 53/16/16 54/15/15
f  55/13/13 56/16/16 57/14/14
f  58/16/16 59/13/13 60/12/12
f  61/17/10 62/18/17 63/19/9
f  64/20/18 65/18/17 66/17/10
f  67/18/17 68/20/18 69/21/19
f  70/21/19 71/22/20 72/18/17
f  73/22/20 74/19/9 75/18/17
f  76/19/9 77/22/20 78/23/8
f  79/24/1 80/23/8 81/22/20
f  82/25/2 83/24/1 84/22/20
f  85/17/10 86/26/15 87/20/18
f  88/27/21 89/20/18 90/26/15
f  91/27/21 92/21/19 93/20/18
f  94/27/21 95/28/22 96/21/19
f  97/22/20 98/21/19 99/28/22
f  100/29/23 101/22/20 102/28/22
f  103/25/2 104/22/20 105/29/23
f  106/25/2 107/29/23 108/30/4
f  109/31/11 110/30/4 111/29/23
f  112/27/21 113/26/15 114/32/16
f  115/32/16 116/33/24 117/27/21
f  118/27/21 119/33/24 120/28/22
f  121/33/24 122/31/11 123/28/22
f  124/31/11 125/29/23 126/28/22
f  127/32/16 128/34/12 129/33/24
f  130/31/11 131/33/24 132/34/12

